<svg xmlns="http://www.w3.org/2000/svg" xmlns:xlink="http://www.w3.org/1999/xlink" xml:space="preserve" viewBox="0 0 1000 700"><path d="M0 0h1000v700H0z" style="fill:#eeefdc"/><defs><path id="a" d="M0 0h1000v700H0z"/></defs><clipPath id="b"><use xlink:href="#a" style="overflow:visible"/></clipPath><g style="opacity:.6;clip-path:url(#b)"><path d="M-139 162.5a508 508 0 0 1 267.8 53.7 9 9 0 0 0-.3 3.7 504 504 0 0 0-267.3-54 2 2 0 0 1-1.8-1.6q0-1.6 1.5-1.8" style="fill:#fff"/><path d="M87.2 167.6q-.3 1.8.2 3.6c-20.2-4-32-5.6-54.8 10.9l-1.9-2.9c23.6-17 36.5-15.4 56.5-11.6m31.2 89.8q1.5.1 3-.1c-3.7 17.2-5.4 27.3 7.5 47.3l-2.4 1.6c-13.3-20.7-11.7-31.8-8-48.8" style="fill:#fff"/><path d="M86 204c10.2 21.6 23 48.3 58.5 69q-.9 1.6-1.3 3.3C106.5 255 93.4 227.6 83 205.4l-4-8.2 3-1.6zm-131-40.5c.6 17.7 16.5 31.2 30.5 43l2.6 2.3-.1.2-.8 3.5-3.8-3.3c-11.3-9.5-23.7-20-29.1-33.2q-2.5-5.9-2.7-12.3zm187.2 85.3q2.6 2.4 5.5 4.5c3 2.1 6.5 4 10.3 4.3 7.6.9 18.8-4.9 23.1-11.2a32 32 0 0 0 3.7-25.2 20 20 0 0 0-11.4-13.9c-3.2-1.1-6.7-1.2-10-1.6-5.6-.7-11-2.7-16.6-3-8-.3-18.4 6.8-18.6 16q0 2.6.9 5a75 75 0 0 0 5.8 15.7q3 5.2 7.3 9.4m-18.8 82.5q2 2 4.2 3.4 3.5 2.7 8 3.4c5.7.6 14.3-3.8 17.7-8.7 3.7-5.4 4.5-13 2.8-19.3-1.2-4.7-4.3-9-8.7-10.6-2.5-1-5.2-1-7.7-1.3-4.3-.5-8.4-2-12.7-2.2-6.2-.3-14.1 5.1-14.4 12.2q.1 2 .7 3.9a58 58 0 0 0 4.5 12q2.3 4 5.6 7.2M49.2 106l1.2 1.8C30.9 115.5 14 130-1.1 144.7A771 771 0 0 0-24 168h-1.3l-1.7-.9c7.6-8 16.3-17 24.2-24.5 15.2-14.6 32-29.2 51.8-37.2z" style="fill:#fff"/><path d="M22.8 135a51 51 0 0 0 24 2.3 82 82 0 0 0 21.2-7.8l.1.2q.7 1.2 1.6 2a85 85 0 0 1-22.4 8.3 53 53 0 0 1-25.2-2.4c-3.9-1-8.6-1.9-12.9-2.5l1-3q6.7 1.2 12.6 2.9" style="fill:#fff"/><path d="M92 133.6c8.3-2.1 16-6.6 23-11.7a19 19 0 0 0 6-6.3c2.6-5.4.2-11.8-2.3-17.3-2.3-5.2-5.1-10.9-10.3-12.8-2.7-1-5.6-.9-8.4-.6-5.2.5-10.5 1.5-15.1 4.2-10.6 6.3-14.5 19.7-17.5 31.8-3.8 15.3 14.3 15.2 24.6 12.7" style="fill:#fff"/><path d="M63.9 114c7.1.5 15-1.4 19.3-5.3 7.3-6.5 12.5-20 5.8-29a14 14 0 0 0-10-5.1c-3.9-.4-7.7.4-11.5 1.4-12 3.2-27 18.3-17.4 31.5 2.8 4 8 6 13.8 6.5m44.1 74.6q5.4.8 11.3 0a27 27 0 0 0 12.5-3.6c6.5-4.6 8-13.7 8-21.8-.1-3.6-.4-7.2-1.8-10.4a19 19 0 0 0-13.6-11c-4.2-.9-8.5.7-12.4 2.4-19 8.2-38.2 24.6-13.3 40.7q4.6 2.8 9.3 3.7m78.7 119.2c3-5.6 4.1-12.5 3.3-18.8a24 24 0 0 0-18.6-19.7c-4.7-1.2-26.5-1-28 5-2.8 11.4-2.2 25.4 5.8 34.3 7.7 8.5 20.4 13.4 30.7 6.7a21 21 0 0 0 6.8-7.5" style="opacity:.55;fill:#fff"/><path d="M-13.4 221c2 7.8 2.4 16.7 6.7 23.8 3.5 5.8 9.7 10.2 16.4 10 6.1-.1 11.6-4 16.2-8.3 2.5-2.2 5-4.6 6.5-7.6 4.1-7.4 2.7-16.9-1.2-24.4a35 35 0 0 0-22.5-19c-13.2-3.2-25.2 12.6-22 25.4" style="fill:#fff"/><g style="opacity:.4"><path d="M-139 162.5a508 508 0 0 1 267.8 53.7 9 9 0 0 0-.3 3.7 504 504 0 0 0-267.3-54 2 2 0 0 1-1.8-1.6q0-1.6 1.5-1.8" style="fill:#739175"/><path d="M87.2 167.6q-.3 1.8.2 3.6c-20.2-4-32-5.6-54.8 10.9l-1.9-2.9c23.6-17 36.5-15.4 56.5-11.6m31.2 89.8q1.5.1 3-.1c-3.7 17.2-5.4 27.3 7.5 47.3l-2.4 1.6c-13.3-20.7-11.7-31.8-8-48.8" style="fill:#739175"/><path d="M86 204c10.2 21.6 23 48.3 58.5 69q-.9 1.6-1.3 3.3C106.5 255 93.4 227.6 83 205.4l-4-8.2 3-1.6zm-131-40.5c.6 17.7 16.5 31.2 30.5 43l2.6 2.3-.1.2-.8 3.5-3.8-3.3c-11.3-9.5-23.7-20-29.1-33.2q-2.5-5.9-2.7-12.3z" style="fill:#739175"/><path d="M142.2 248.8q2.6 2.4 5.5 4.5c3 2.1 6.5 4 10.3 4.3 7.6.9 18.8-4.9 23.1-11.2a32 32 0 0 0 3.7-25.2 20 20 0 0 0-11.4-13.9c-3.2-1.1-6.7-1.2-10-1.6-5.6-.7-11-2.7-16.6-3-8-.3-18.4 6.8-18.6 16q0 2.6.9 5a75 75 0 0 0 5.8 15.7q3 5.2 7.3 9.4m-18.8 82.5q2 2 4.2 3.4 3.5 2.7 8 3.4c5.7.6 14.3-3.8 17.7-8.7 3.7-5.4 4.5-13 2.8-19.3-1.2-4.7-4.3-9-8.7-10.6-2.5-1-5.2-1-7.7-1.3-4.3-.5-8.4-2-12.7-2.2-6.2-.3-14.1 5.1-14.4 12.2q.1 2 .7 3.9a58 58 0 0 0 4.5 12q2.3 4 5.6 7.2" style="fill:#cad6c7"/><path d="m49.2 106 1.2 1.8C30.9 115.5 14 130-1.1 144.7A771 771 0 0 0-24 168h-1.3l-1.7-.9c7.6-8 16.3-17 24.2-24.5 15.2-14.6 32-29.2 51.8-37.2z" style="fill:#739175"/><path d="M22.8 135a51 51 0 0 0 24 2.3 82 82 0 0 0 21.2-7.8l.1.2q.7 1.2 1.6 2a85 85 0 0 1-22.4 8.3 53 53 0 0 1-25.2-2.4c-3.9-1-8.6-1.9-12.9-2.5l1-3q6.7 1.2 12.6 2.9" style="fill:#739175"/><path d="M92 133.6c8.3-2.1 16-6.6 23-11.7a19 19 0 0 0 6-6.3c2.6-5.4.2-11.8-2.3-17.3-2.3-5.2-5.1-10.9-10.3-12.8-2.7-1-5.6-.9-8.4-.6-5.2.5-10.5 1.5-15.1 4.2-10.6 6.3-14.5 19.7-17.5 31.8-3.8 15.3 14.3 15.2 24.6 12.7" style="fill:#cad6c7"/><path d="M63.9 114c7.1.5 15-1.4 19.3-5.3 7.3-6.5 12.5-20 5.8-29a14 14 0 0 0-10-5.1c-3.9-.4-7.7.4-11.5 1.4-12 3.2-27 18.3-17.4 31.5 2.8 4 8 6 13.8 6.5m44.1 74.6q5.4.8 11.3 0a27 27 0 0 0 12.5-3.6c6.5-4.6 8-13.7 8-21.8-.1-3.6-.4-7.2-1.8-10.4a19 19 0 0 0-13.6-11c-4.2-.9-8.5.7-12.4 2.4-19 8.2-38.2 24.6-13.3 40.7q4.6 2.8 9.3 3.7m78.7 119.2c3-5.6 4.1-12.5 3.3-18.8a24 24 0 0 0-18.6-19.7c-4.7-1.2-26.5-1-28 5-2.8 11.4-2.2 25.4 5.8 34.3 7.7 8.5 20.4 13.4 30.7 6.7a21 21 0 0 0 6.8-7.5" style="opacity:.55;fill:#739175"/><path d="M-13.4 221c2 7.8 2.4 16.7 6.7 23.8 3.5 5.8 9.7 10.2 16.4 10 6.1-.1 11.6-4 16.2-8.3 2.5-2.2 5-4.6 6.5-7.6 4.1-7.4 2.7-16.9-1.2-24.4a35 35 0 0 0-22.5-19c-13.2-3.2-25.2 12.6-22 25.4" style="fill:#cad6c7"/></g></g><g style="opacity:.6;clip-path:url(#b)"><path d="M283.5 908.8A508 508 0 0 1 245 638.3q2 0 3.6-1a504 504 0 0 0 38 270.2 2 2 0 0 1-1 2.2q-1.5.5-2.2-.9" style="fill:#fff"/><path d="M213.2 693.8q1.7-.5 3.2-1.4c3 20.3 5.4 32 28.5 48l-2 2.7c-24-16.5-26.8-29.3-29.7-49.3m74.2-59.4a8 8 0 0 0-1-2.7c17.5-2.2 27.5-4 42.1-22.8l2.3 1.7c-15 19.4-26 21.6-43.4 23.8" style="fill:#fff"/><path d="M247.8 682.8c17-16.8 38-37.8 45.8-78.2q1.7.4 3.5.2c-8 41.7-29.4 63.1-46.8 80.4l-6.5 6.5-2.5-2.3zm5.4 137c16.4-6.4 23.9-26 30.5-43l1.2-3.3h.3q1.8 0 3.5-.4l-1.8 4.7c-5.3 13.8-11 29-21.7 38.5q-4.7 4.2-10.7 6.7zm18.3-205q1.4-3.1 2.3-6.6c1-3.6 1.6-7.5.8-11.1-1.8-7.5-11-16.1-18.4-18.1-8.3-2.3-17.8 0-25 4.8-5.2 3.5-9.2 9.3-9.2 15.4 0 3.4 1 6.7 1.8 10 1.1 5.5 1 11.2 2.7 16.6 2.4 7.7 12.4 15.1 21.2 12.3q2.5-.9 4.5-2.5c4.5-3.3 9.1-6.5 12.8-10.7q4-4.6 6.5-10m84-9.7q1.2-2.5 1.9-5.1a18 18 0 0 0 .5-8.6c-1.3-5.7-8.3-12.3-14-13.8-6.5-1.8-13.8 0-19.2 3.7-4 2.7-7.1 7-7.1 11.8 0 2.6.8 5.1 1.3 7.6 1 4.3.9 8.7 2.1 12.8 1.8 5.9 9.6 11.6 16.3 9.4q1.9-.6 3.5-2c3.4-2.4 7-5 9.8-8q3-3.6 5-7.8M167.6 750q.8-.7 1.3-1.7c13.8 15.8 33 26.8 52 36.3a771 771 0 0 0 29.7 14l.4 1.1-.2 2a999 999 0 0 1-31.3-14.7c-18.9-9.6-38.2-20.6-52.3-36.5z" style="fill:#fff"/><path d="M203.8 765.3a51 51 0 0 0-5.8-23.5 82 82 0 0 0-14.4-17.4h.1q.8-1 1.4-2.3a85 85 0 0 1 15.2 18.4c4.9 8.3 5.5 16.2 6.2 24.6.3 4 1 8.7 1.9 13h-3.1q-1.2-6.6-1.6-12.8" style="fill:#fff"/><path d="M179.4 700.5a66 66 0 0 0-18.6-17.7c-2.4-1.7-5-3.3-7.9-3.6-6-.8-11.2 3.7-15.6 7.8-4.1 3.9-8.5 8.4-8.6 14a38 38 0 0 0 11.2 21c9.4 7.9 23.3 7 35.8 5.9 15.7-1.5 9.6-18.5 3.7-27.4" style="fill:#fff"/><path d="M170.3 733.5a27 27 0 0 0-11.4-16.4c-8.5-4.8-23-5.2-29.2 4a14 14 0 0 0-1.5 11.3c.9 3.7 3 7 5 10.3 7.2 10.3 26.3 19.5 35.6 6 2.8-4 3-9.6 1.5-15.2m55.7-66.3q-1-5.4-3.7-10.7c-2-4-4-8-7.6-10.6-6.4-4.7-15.6-3-23.2-.3a26 26 0 0 0-9.2 5.1 19 19 0 0 0-6 16.5c.7 4.2 3.6 7.8 6.6 11 13.9 15 35.9 27.8 42.7-1q1.3-5.5.4-10m86.3-113.9c-6.3-1-13.2.3-18.7 3.1a24 24 0 0 0-12.5 24c.4 5 7.8 25.5 14 24.9 11.7-1.2 24.7-6.4 30.5-16.9 5.4-10 5.8-23.7-4-31.2a21 21 0 0 0-9.3-3.9" style="opacity:.55;fill:#fff"/><path d="M296.8 770.9c6.8-4.4 15.1-7.8 20.4-14.2 4.3-5.3 6.4-12.6 4-18.8-2.2-5.8-7.7-9.6-13.3-12.6q-4.3-2.6-9.3-3.6c-8.3-1.4-16.8 3.1-22.6 9.3a35 35 0 0 0-10.4 27.5c1.3 13.5 20.2 19.6 31.2 12.4" style="fill:#fff"/><g style="opacity:.4"><path d="M283.5 908.8A508 508 0 0 1 245 638.3q2 0 3.6-1a504 504 0 0 0 38 270.2 2 2 0 0 1-1 2.2q-1.5.5-2.2-.9" style="fill:#739175"/><path d="M213.2 693.8q1.7-.5 3.2-1.4c3 20.3 5.4 32 28.5 48l-2 2.7c-24-16.5-26.8-29.3-29.7-49.3m74.2-59.4a8 8 0 0 0-1-2.7c17.5-2.2 27.5-4 42.1-22.8l2.3 1.7c-15 19.4-26 21.6-43.4 23.8" style="fill:#739175"/><path d="M247.8 682.8c17-16.8 38-37.8 45.8-78.2q1.7.4 3.5.2c-8 41.7-29.4 63.1-46.8 80.4l-6.5 6.5-2.5-2.3zm5.4 137c16.4-6.4 23.9-26 30.5-43l1.2-3.3h.3q1.8 0 3.5-.4l-1.8 4.7c-5.3 13.8-11 29-21.7 38.5q-4.7 4.2-10.7 6.7z" style="fill:#739175"/><path d="M271.5 614.8q1.4-3.1 2.3-6.6c1-3.6 1.6-7.5.8-11.1-1.8-7.5-11-16.1-18.4-18.1-8.3-2.3-17.8 0-25 4.8-5.2 3.5-9.2 9.3-9.2 15.4 0 3.4 1 6.7 1.8 10 1.1 5.5 1 11.2 2.7 16.6 2.4 7.7 12.4 15.1 21.2 12.3q2.5-.9 4.5-2.5c4.5-3.3 9.1-6.5 12.8-10.7q4-4.6 6.5-10m84-9.7q1.2-2.5 1.9-5.1a18 18 0 0 0 .5-8.6c-1.3-5.7-8.3-12.3-14-13.8-6.5-1.8-13.8 0-19.2 3.7-4 2.7-7.1 7-7.1 11.8 0 2.6.8 5.1 1.3 7.6 1 4.3.9 8.7 2.1 12.8 1.8 5.9 9.6 11.6 16.3 9.4q1.9-.6 3.5-2c3.4-2.4 7-5 9.8-8q3-3.6 5-7.8" style="fill:#cad6c7"/><path d="M167.6 750q.8-.7 1.3-1.7c13.8 15.8 33 26.8 52 36.3a771 771 0 0 0 29.7 14l.4 1.1-.2 2a999 999 0 0 1-31.3-14.7c-18.9-9.6-38.2-20.6-52.3-36.5z" style="fill:#739175"/><path d="M203.8 765.3a51 51 0 0 0-5.8-23.5 82 82 0 0 0-14.4-17.4h.1q.8-1 1.4-2.3a85 85 0 0 1 15.2 18.4c4.9 8.3 5.5 16.2 6.2 24.6.3 4 1 8.7 1.9 13h-3.1q-1.2-6.6-1.6-12.8" style="fill:#739175"/><path d="M179.4 700.5a66 66 0 0 0-18.6-17.7c-2.4-1.7-5-3.3-7.9-3.6-6-.8-11.2 3.7-15.6 7.8-4.1 3.9-8.5 8.4-8.6 14a38 38 0 0 0 11.2 21c9.4 7.9 23.3 7 35.8 5.9 15.7-1.5 9.6-18.5 3.7-27.4" style="fill:#cad6c7"/><path d="M170.3 733.5a27 27 0 0 0-11.4-16.4c-8.5-4.8-23-5.2-29.2 4a14 14 0 0 0-1.5 11.3c.9 3.7 3 7 5 10.3 7.2 10.3 26.3 19.5 35.6 6 2.8-4 3-9.6 1.5-15.2m55.7-66.3q-1-5.4-3.7-10.7c-2-4-4-8-7.6-10.6-6.4-4.7-15.6-3-23.2-.3a26 26 0 0 0-9.2 5.1 19 19 0 0 0-6 16.5c.7 4.2 3.6 7.8 6.6 11 13.9 15 35.9 27.8 42.7-1q1.3-5.5.4-10m86.3-113.9c-6.3-1-13.2.3-18.7 3.1a24 24 0 0 0-12.5 24c.4 5 7.8 25.5 14 24.9 11.7-1.2 24.7-6.4 30.5-16.9 5.4-10 5.8-23.7-4-31.2a21 21 0 0 0-9.3-3.9" style="opacity:.55;fill:#739175"/><path d="M296.8 770.9c6.8-4.4 15.1-7.8 20.4-14.2 4.3-5.3 6.4-12.6 4-18.8-2.2-5.8-7.7-9.6-13.3-12.6q-4.3-2.6-9.3-3.6c-8.3-1.4-16.8 3.1-22.6 9.3a35 35 0 0 0-10.4 27.5c1.3 13.5 20.2 19.6 31.2 12.4" style="fill:#cad6c7"/></g></g><g style="opacity:.6;clip-path:url(#b)"><path d="M958.4 734.8a508 508 0 0 1-87-259q1.9-.4 3.4-1.6a505 505 0 0 0 86.4 258.7q.6 1 0 2-.2 0-.5.3c-.7.6-1.8.4-2.3-.4" style="fill:#fff"/><path d="M850 536.1q1.8-.6 3-2c6.7 19.5 11.2 30.6 36.8 42.1l-1.5 3c-26.5-11.9-31.6-23.9-38.2-43m62.2-71.9a8 8 0 0 0-1.5-2.5c16.8-5.4 26.3-9 37.3-30l2.5 1.2c-11.3 21.8-21.7 26-38.3 31.3" style="fill:#fff"/><path d="M882.2 519c13.6-19.6 30.4-44 30.8-85.2q1.7 0 3.4-.5c-.2 42.5-17.4 67.5-31.4 87.7l-5.2 7.5-2.8-1.8zm30.2 133.8c15-9.3 18.8-29.9 22.1-48l.6-3.3h.3l3.4-1-1 4.9c-2.6 14.5-5.5 30.5-14.2 41.7a36 36 0 0 1-9.4 8.6zM893 448q.9-3.6 1.2-7 .6-5.9-1.4-11.1c-3-7-13.6-13.9-21.3-14.5a32 32 0 0 0-23.7 9.3c-4.5 4.4-7.4 10.8-6.3 16.9.6 3.3 2.3 6.3 3.6 9.4 2.1 5.2 3.1 10.9 5.7 15.9 3.8 7.1 15 12.6 23.1 8.2q2.3-1.3 4-3.3c3.8-4 7.7-8 10.6-12.8q3-5.2 4.5-11m81-25q.6-2.5.8-5.2.5-4.6-1-8.5a23 23 0 0 0-16.4-11.1 24 24 0 0 0-18.1 7.1 15 15 0 0 0-4.9 13c.5 2.5 1.8 4.8 2.8 7.2 1.6 4 2.3 8.3 4.3 12.1 3 5.5 11.5 9.7 17.8 6.4q1.6-1 3-2.6 4.7-4.5 8.2-9.8 2.4-4 3.4-8.5M815.6 599.8l1-2c16.4 13 37.3 20.3 57.6 26.3a823 823 0 0 0 31.8 8.3l.6 1v2a770 770 0 0 1-33.3-8.8c-20.3-6-41.3-13.3-58-26.3q0-.2.3-.5" style="fill:#fff"/><path d="M853.9 608.2a51 51 0 0 0-10-22 82 82 0 0 0-17.3-14.5v-.1q.9-1.2 1-2.5a85 85 0 0 1 18.4 15.3 53 53 0 0 1 10.5 23c1 4 2.6 8.5 4.2 12.5l-3 .6q-2.4-6.3-3.8-12.3" style="fill:#fff"/><path d="M818.1 548.9a66 66 0 0 0-21.5-14 19 19 0 0 0-8.4-2.2c-6 .4-10.4 5.7-14 10.6-3.3 4.6-6.8 9.9-5.9 15.4.5 2.7 2 5.2 3.7 7.5 3 4.3 6.5 8.4 11.2 11 10.6 6 24.2 2.8 36.2-.7 15.2-4.4 6.1-20-1.3-27.6" style="fill:#fff"/><path d="M815.2 583c-3-6.4-8.7-12.2-14.2-14-9.2-3.2-23.5-1-28 9.3a14 14 0 0 0 .5 11.3c1.6 3.5 4.2 6.4 7 9.2 8.8 8.9 29.3 14.4 36-.6 2-4.4 1.1-10-1.3-15.1m42.7-75.5a38 38 0 0 0-5.6-9.8 27 27 0 0 0-9.4-9c-7.2-3.4-15.9-.1-22.9 4-3 1.8-6 3.8-8.1 6.6-3.6 5-4.8 11.6-2.8 17.3 1.4 4 4.9 7 8.3 9.6 16.5 12.3 40.4 20.8 41.9-8.8q.2-5.5-1.4-9.9M922 380c-6.4 0-13 2.6-17.9 6.4a24 24 0 0 0-7.8 26c1.3 4.6 12.2 23.5 18.3 21.8 11.3-3.3 23-10.7 26.8-22.1 3.5-11 1.4-24.4-9.5-30a21 21 0 0 0-9.9-2.1" style="opacity:.55;fill:#fff"/><path d="M946.4 596.7c5.9-5.6 13.4-10.4 17.4-17.7 3.3-5.9 4-13.5.5-19.2-3.2-5.2-9.3-8-15.3-10q-4.8-1.6-9.8-1.8c-8.5.2-16 6.2-20.6 13.3-5.6 8.7-8 19.1-5.2 29 3.8 13 23.4 15.5 33 6.4" style="fill:#fff"/><g style="opacity:.4"><path d="M958.4 734.8a508 508 0 0 1-87-259q1.9-.4 3.4-1.6a505 505 0 0 0 86.4 258.7q.6 1 0 2-.2 0-.5.3c-.7.6-1.8.4-2.3-.4" style="fill:#739175"/><path d="M850 536.1q1.8-.6 3-2c6.7 19.5 11.2 30.6 36.8 42.1l-1.5 3c-26.5-11.9-31.6-23.9-38.2-43m62.2-71.9a8 8 0 0 0-1.5-2.5c16.8-5.4 26.3-9 37.3-30l2.5 1.2c-11.3 21.8-21.7 26-38.3 31.3" style="fill:#739175"/><path d="M882.2 519c13.6-19.6 30.4-44 30.8-85.2q1.7 0 3.4-.5c-.2 42.5-17.4 67.5-31.4 87.7l-5.2 7.5-2.8-1.8zm30.2 133.8c15-9.3 18.8-29.9 22.1-48l.6-3.3h.3l3.4-1-1 4.9c-2.6 14.5-5.5 30.5-14.2 41.7a36 36 0 0 1-9.4 8.6z" style="fill:#739175"/><path d="M893 448q.9-3.6 1.2-7 .6-5.9-1.4-11.1c-3-7-13.6-13.9-21.3-14.5a32 32 0 0 0-23.7 9.3c-4.5 4.4-7.4 10.8-6.3 16.9.6 3.3 2.3 6.3 3.6 9.4 2.1 5.2 3.1 10.9 5.7 15.9 3.8 7.1 15 12.6 23.1 8.2q2.3-1.3 4-3.3c3.8-4 7.7-8 10.6-12.8q3-5.2 4.5-11m81-25q.6-2.5.8-5.2.5-4.6-1-8.5a23 23 0 0 0-16.4-11.1 24 24 0 0 0-18.1 7.1 15 15 0 0 0-4.9 13c.5 2.5 1.8 4.8 2.8 7.2 1.6 4 2.3 8.3 4.3 12.1 3 5.5 11.5 9.7 17.8 6.4q1.6-1 3-2.6 4.7-4.5 8.2-9.8 2.4-4 3.4-8.5" style="fill:#cad6c7"/><path d="m815.6 599.8 1-2c16.4 13 37.3 20.3 57.6 26.3a823 823 0 0 0 31.8 8.3l.6 1v2a770 770 0 0 1-33.3-8.8c-20.3-6-41.3-13.3-58-26.3q0-.2.3-.5" style="fill:#739175"/><path d="M853.9 608.2a51 51 0 0 0-10-22 82 82 0 0 0-17.3-14.5v-.1q.9-1.2 1-2.5a85 85 0 0 1 18.4 15.3 53 53 0 0 1 10.5 23c1 4 2.6 8.5 4.2 12.5l-3 .6q-2.4-6.3-3.8-12.3" style="fill:#739175"/><path d="M818.1 548.9a66 66 0 0 0-21.5-14 19 19 0 0 0-8.4-2.2c-6 .4-10.4 5.7-14 10.6-3.3 4.6-6.8 9.9-5.9 15.4.5 2.7 2 5.2 3.7 7.5 3 4.3 6.5 8.4 11.2 11 10.6 6 24.2 2.8 36.2-.7 15.2-4.4 6.1-20-1.3-27.6" style="fill:#cad6c7"/><path d="M815.2 583c-3-6.4-8.7-12.2-14.2-14-9.2-3.2-23.5-1-28 9.3a14 14 0 0 0 .5 11.3c1.6 3.5 4.2 6.4 7 9.2 8.8 8.9 29.3 14.4 36-.6 2-4.4 1.1-10-1.3-15.1m42.7-75.5a38 38 0 0 0-5.6-9.8 27 27 0 0 0-9.4-9c-7.2-3.4-15.9-.1-22.9 4-3 1.8-6 3.8-8.1 6.6-3.6 5-4.8 11.6-2.8 17.3 1.4 4 4.9 7 8.3 9.6 16.5 12.3 40.4 20.8 41.9-8.8q.2-5.5-1.4-9.9M922 380c-6.4 0-13 2.6-17.9 6.4a24 24 0 0 0-7.8 26c1.3 4.6 12.2 23.5 18.3 21.8 11.3-3.3 23-10.7 26.8-22.1 3.5-11 1.4-24.4-9.5-30a21 21 0 0 0-9.9-2.1" style="opacity:.55;fill:#739175"/><path d="M946.4 596.7c5.9-5.6 13.4-10.4 17.4-17.7 3.3-5.9 4-13.5.5-19.2-3.2-5.2-9.3-8-15.3-10q-4.8-1.6-9.8-1.8c-8.5.2-16 6.2-20.6 13.3-5.6 8.7-8 19.1-5.2 29 3.8 13 23.4 15.5 33 6.4" style="fill:#cad6c7"/></g></g><g style="opacity:.6;clip-path:url(#b)"><path d="M591.2-258.6a508 508 0 0 0 17.1 272.7q1.9-.3 3.8.2a504 504 0 0 1-17.5-272.1 1.7 1.7 0 0 0-1.4-2q-1.6-.2-2 1.2" style="fill:#fff"/><path d="M565.8-33.7q1.8 0 3.5.7c-1.1-20.5-1.2-32.4 18.2-52.8l-2.6-2.3c-20 21-20.2 34.1-19 54.4m84.7 43.1q0 1.5-.5 2.8C667.7 11 677.9 10.6 696 26l1.9-2C679 8 667.9 8 650.6 9.3" style="fill:#fff"/><path d="M602-30c20 13 44.8 29.3 60.6 67.3q1.6-.6 3.4-.8c-16.2-39.2-41.6-55.9-62-69.3l-7.6-5-2 2.7zm-22.4-135.3c17.3 3 28.6 20.6 38.5 36.1l1.8 2.9.3-.1 3.6-.3-2.8-4.2c-8-12.5-16.7-26.2-29-33.3a36 36 0 0 0-11.9-4.4zm59.3 197.1q2 3 3.7 6c1.7 3.4 3 7 3 10.8-.3 7.6-7.5 18-14.4 21.4a32 32 0 0 1-25.4.3c-5.9-2.4-11-7.2-12.2-13.2-.7-3.3-.3-6.7-.3-10.1 0-5.6-1.2-11.3-.7-16.8.8-8 9.2-17.3 18.3-16.4q2.6.4 5 1.6c5 2.2 10.2 4.5 14.6 7.8q4.8 3.7 8.4 8.6m84.3-7.5q1.5 2.1 2.8 4.6 2.1 4 2.3 8.2c-.2 6-5.7 13.8-11 16.5a24 24 0 0 1-19.5.2c-4.5-1.8-8.4-5.5-9.4-10.1-.5-2.6-.2-5.2-.2-7.8 0-4.3-1-8.6-.5-12.9.6-6.2 7-13.3 14-12.5q2 .1 3.8 1.2c3.9 1.7 7.8 3.4 11.3 6q3.6 2.7 6.4 6.6M509.8-79.6l1.7 1.4c10.3-18.2 27-32.9 43.5-46 8.1-6.5 17.8-13.6 26.3-19.8l.1-1.1-.6-1.8a771 771 0 0 0-27.6 20.6c-16.6 13.2-33.3 28-43.8 46.4z" style="fill:#fff"/><path d="M542.1-101.9c1 8 2 15.6-.9 24.2a87 87 0 0 1-10.5 20h.1q1 .7 1.8 1.9a85 85 0 0 0 11.2-21c3.1-9.2 2.1-17 1-25.4-.5-4-.7-8.8-.7-13l-3 .5q.1 6.7 1 12.8" style="fill:#fff"/><path d="M531.4-33.5c-3.1 8-8.6 15-14.6 21.2-2 2-4.2 4.1-7 5-5.7 2-11.8-1.3-16.9-4.4-4.8-3-10-6.6-11.3-12-.6-2.8 0-5.6.6-8.3a36 36 0 0 1 6.2-14.5c7.6-9.6 21.4-11.7 33.8-13 15.7-1.7 13.2 16.1 9.2 26" style="fill:#fff"/><path d="M515.8-64a27 27 0 0 1-7.8 18.5c-7.4 6.3-21.4 9.6-29.4 1.8a14 14 0 0 1-3.8-10.6c.1-3.9 1.4-7.6 3-11.2 4.7-11.5 21.6-24.4 33.5-13 3.5 3.3 4.8 8.8 4.5 14.5m68 53.8q0 5.4-1.5 11.2a27 27 0 0 1-5.3 11.9c-5.3 5.8-14.6 6-22.6 4.9q-5.4-.6-10.1-3c-5.2-3.3-8.8-9-9.1-15-.3-4.3 1.9-8.4 4.1-12C550-30 569-46.9 581.3-20q2.3 5 2.5 9.7m107.6 94.1c-6 2.3-13 2.4-19 .8a24 24 0 0 1-17-21c-.7-5 2.4-26.6 8.6-27.2 11.7-1.2 25.5 1.2 33.2 10.4 7.4 8.7 10.5 22 2.5 31.2a21 21 0 0 1-8.3 5.8" style="opacity:.55;fill:#fff"/><path d="M632.2-126.2c7.5 3 16.3 4.7 22.8 9.9 5.2 4.2 8.8 11 7.7 17.5-1 6.1-5.6 11-10.4 15a31 31 0 0 1-8.5 5.5c-7.8 3-17 .3-24-4.5a35 35 0 0 1-15.7-24.9c-1.4-13.5 15.8-23.3 28-18.5" style="fill:#fff"/><g style="opacity:.4"><path d="M591.2-258.6a508 508 0 0 0 17.1 272.7q1.9-.3 3.8.2a504 504 0 0 1-17.5-272.1 1.7 1.7 0 0 0-1.4-2q-1.6-.2-2 1.2" style="fill:#739175"/><path d="M565.8-33.7q1.8 0 3.5.7c-1.1-20.5-1.2-32.4 18.2-52.8l-2.6-2.3c-20 21-20.2 34.1-19 54.4m84.7 43.1q0 1.5-.5 2.8C667.7 11 677.9 10.6 696 26l1.9-2C679 8 667.9 8 650.6 9.3" style="fill:#739175"/><path d="M602-30c20 13 44.8 29.3 60.6 67.3q1.6-.6 3.4-.8c-16.2-39.2-41.6-55.9-62-69.3l-7.6-5-2 2.7zm-22.4-135.3c17.3 3 28.6 20.6 38.5 36.1l1.8 2.9.3-.1 3.6-.3-2.8-4.2c-8-12.5-16.7-26.2-29-33.3a36 36 0 0 0-11.9-4.4z" style="fill:#739175"/><path d="M638.9 31.8q2 3 3.7 6c1.7 3.4 3 7 3 10.8-.3 7.6-7.5 18-14.4 21.4a32 32 0 0 1-25.4.3c-5.9-2.4-11-7.2-12.2-13.2-.7-3.3-.3-6.7-.3-10.1 0-5.6-1.2-11.3-.7-16.8.8-8 9.2-17.3 18.3-16.4q2.6.4 5 1.6c5 2.2 10.2 4.5 14.6 7.8q4.8 3.7 8.4 8.6m84.3-7.5q1.5 2.1 2.8 4.6 2.1 4 2.3 8.2c-.2 6-5.7 13.8-11 16.5a24 24 0 0 1-19.5.2c-4.5-1.8-8.4-5.5-9.4-10.1-.5-2.6-.2-5.2-.2-7.8 0-4.3-1-8.6-.5-12.9.6-6.2 7-13.3 14-12.5q2 .1 3.8 1.2c3.9 1.7 7.8 3.4 11.3 6q3.6 2.7 6.4 6.6" style="fill:#cad6c7"/><path d="m509.8-79.6 1.7 1.4c10.3-18.2 27-32.9 43.5-46 8.1-6.5 17.8-13.6 26.3-19.8l.1-1.1-.6-1.8a771 771 0 0 0-27.6 20.6c-16.6 13.2-33.3 28-43.8 46.4z" style="fill:#739175"/><path d="M542.1-101.9c1 8 2 15.6-.9 24.2a87 87 0 0 1-10.5 20h.1q1 .7 1.8 1.9a85 85 0 0 0 11.2-21c3.1-9.2 2.1-17 1-25.4-.5-4-.7-8.8-.7-13l-3 .5q.1 6.7 1 12.8" style="fill:#739175"/><path d="M531.4-33.5c-3.1 8-8.6 15-14.6 21.2-2 2-4.2 4.1-7 5-5.7 2-11.8-1.3-16.9-4.4-4.8-3-10-6.6-11.3-12-.6-2.8 0-5.6.6-8.3a36 36 0 0 1 6.2-14.5c7.6-9.6 21.4-11.7 33.8-13 15.7-1.7 13.2 16.1 9.2 26" style="fill:#cad6c7"/><path d="M515.8-64a27 27 0 0 1-7.8 18.5c-7.4 6.3-21.4 9.6-29.4 1.8a14 14 0 0 1-3.8-10.6c.1-3.9 1.4-7.6 3-11.2 4.7-11.5 21.6-24.4 33.5-13 3.5 3.3 4.8 8.8 4.5 14.5m68 53.8q0 5.4-1.5 11.2a27 27 0 0 1-5.3 11.9c-5.3 5.8-14.6 6-22.6 4.9q-5.4-.6-10.1-3c-5.2-3.3-8.8-9-9.1-15-.3-4.3 1.9-8.4 4.1-12C550-30 569-46.9 581.3-20q2.3 5 2.5 9.7m107.6 94.1c-6 2.3-13 2.4-19 .8a24 24 0 0 1-17-21c-.7-5 2.4-26.6 8.6-27.2 11.7-1.2 25.5 1.2 33.2 10.4 7.4 8.7 10.5 22 2.5 31.2a21 21 0 0 1-8.3 5.8" style="opacity:.55;fill:#739175"/><path d="M632.2-126.2c7.5 3 16.3 4.7 22.8 9.9 5.2 4.2 8.8 11 7.7 17.5-1 6.1-5.6 11-10.4 15a31 31 0 0 1-8.5 5.5c-7.8 3-17 .3-24-4.5a35 35 0 0 1-15.7-24.9c-1.4-13.5 15.8-23.3 28-18.5" style="fill:#cad6c7"/></g></g><g style="clip-path:url(#b)"><path d="M428.2-175.1a472 472 0 0 1 55 235.7q-1.5.1-3 1a469 469 0 0 0-54.5-235.3 1.5 1.5 0 0 1 .5-2q1.2-.5 2 .6" style="fill:#739175"/><path d="M505.4 9.5q-1.5.5-2.6 1.4c-4.3-17.7-7.2-27.8-28-40.3l1.5-2.6c21.5 13 24.9 24 29.1 41.5M448 67l1.1 2.3c-14.5 3.2-22.8 5.5-33.4 23l-2-1.3c11-18.2 20-20.9 34.3-24" style="fill:#739175"/><path d="M477.2 21.5c-12.8 16.1-28.7 36-31.8 72.2q-1.5-.2-3 0c3.2-37.2 19.4-57.6 32.6-74l4.8-6.2 2.3 1.8zM461.1-98.8c-13.2 6.8-17.8 24.5-22 40.1l-.7 3h-.2q-1.5 0-3 .6l1.2-4.3c3.2-12.5 6.8-26.3 15-35.4q3.5-4.1 8.4-6.7z" style="fill:#739175"/><path d="M463.1 83.1q-1 3-1.4 6-1 5 .3 9.9a26 26 0 0 0 17 14.6c7.1 1.4 15-1.3 20.5-6 4.1-3.4 7-8.8 6.5-14.2-.3-3-1.5-5.8-2.4-8.7-1.4-4.7-1.8-9.8-3.7-14.4-2.6-6.6-11.7-12.4-18.8-9.4q-2 1-3.6 2.6-5.4 4.6-9.8 10.3-3 4.3-4.6 9.3m-69.8 14.4q-.7 2.2-1.1 4.6-.7 4 .3 7.6c1.6 5 8 10.3 13 11.3 5.5 1 11.5-1 15.7-4.7a13 13 0 0 0 5-10.9c-.2-2.3-1.1-4.4-1.8-6.6-1-3.7-1.4-7.6-2.8-11.1-2-5-9-9.5-14.5-7.2q-1.5.7-2.7 2a48 48 0 0 0-7.6 7.9 27 27 0 0 0-3.5 7.1" style="fill:#cad6c7"/><path d="m538.9-43.3-1 1.6C525-54.7 508-63 491.3-70c-8.2-3.5-17.8-7.2-26.2-10.3l-.4-1v-1.6a578 578 0 0 1 27.5 10.7c16.7 7 33.9 15.5 47 28.5z" style="fill:#739175"/><path d="M507.3-54.2c1.2 7 2.3 13.7 6.8 20.2q5.8 8.1 13.6 14.4h-.1q-.7 1-1 2.1a76 76 0 0 1-14.4-15.1c-4.8-7-6-14-7.2-21.2-.6-3.6-1.6-7.7-2.7-11.3l2.6-.3q1.6 5.8 2.4 11.2" style="fill:#739175"/><path d="M533.2 1.2c4.5 6 10.7 10.5 17 14.3 2.3 1.3 4.6 2.5 7 2.6 5.1.2 9.2-4 12.5-8 3.1-3.7 6.4-8 6-13-.1-2.4-1.3-4.7-2.5-6.9-2.3-4-5-8-8.6-10.7-8.6-6.3-20.2-4.6-30.6-2.7-13 2.4-6.5 17-.8 24.4" style="fill:#cad6c7"/><path d="M538-28.6c2.2 6 6.5 11.6 11 13.8 7.6 3.5 19.7 2.9 24.2-5.7a13 13 0 0 0 .3-10c-1-3.2-3-6-5.1-8.7-6.9-8.7-23.7-15.4-30.4-2.8-2 3.7-1.6 8.7 0 13.4m-41.1 62.4q1.3 4.7 4 9.2c2 3.3 4 6.7 7.2 8.8 5.8 3.6 13.4 1.5 19.6-1.4q4.1-1.8 7.3-5.1c3.4-4 4.8-9.8 3.6-15a21 21 0 0 0-6.4-9.2c-13-12.3-32.5-22-35.8 4q-.6 4.7.5 8.7M434 140.2a25 25 0 0 0 15.5-4c7.3-4.8 9.9-13.7 8.4-22.1-.8-4.3-8.7-21.9-13.9-20.9-9.7 1.9-20.2 7.3-24 17-3.8 9.2-3 21.3 5.8 27.2q3.8 2.4 8.2 2.8" style="opacity:.55;fill:#739175"/><path d="M428.6-52.6c-5.3 4.4-12 8-15.8 14-3.2 4.9-4.4 11.5-1.9 16.8 2.4 5 7.4 7.9 12.2 10.1q4 2 8.2 2.6c7.1.6 13.9-4 18.2-9.8a32 32 0 0 0 6.4-25c-2.3-11.8-18.6-15.8-27.3-8.7" style="fill:#cad6c7"/></g><g style="opacity:.4;clip-path:url(#b)"><path d="M-78.7-191.4A472 472 0 0 1-10.7 41q-1.6.3-2.8 1.2a469 469 0 0 0-67.7-231.9 1.5 1.5 0 0 1 .5-2q1-.7 2 .4" style="fill:#739175"/><path d="M8.6-11.4q-1.5.7-2.5 1.6C.9-27.2-2.7-37-24.1-48.5l1.3-2.6C-.6-39.4 3.5-28.6 8.6-11.4m-54 60.6q.4 1.3 1.2 2.3c-14.3 4-22.5 6.7-32.1 24.8l-2.2-1.2c10-18.7 19-21.9 33-25.9" style="fill:#739175"/><path d="M-18.8 2.2C-30.8 19-45.5 39.8-46.6 76q-1.5 0-3 .3C-48.4 39-33.3 17.6-21.1.5l4.5-6.4 2.4 1.7zM-41.6-117c-12.9 7.6-16.5 25.5-19.7 41.3l-.6 3h-.2q-1.5.2-3 .7l1-4.3c2.5-12.7 5.4-26.7 13-36.2q3.3-4.2 8-7.1z" style="fill:#739175"/><path d="M-29.5 64.5q-.8 3-1.1 6-.7 5.2.9 10A26 26 0 0 0-12 94c7.3 1 15-2.1 20.2-7.1a17 17 0 0 0 5.7-14.6c-.4-3-1.8-5.7-2.8-8.5-1.7-4.7-2.4-9.7-4.5-14.2-3-6.5-12.4-11.8-19.4-8.3q-2 1-3.4 2.7a63 63 0 0 0-9.2 11 35 35 0 0 0-4.1 9.6m-68.9 18.2q-.6 2.2-.8 4.7-.6 3.8.7 7.5c1.8 4.9 8.6 9.8 13.5 10.5 5.6.8 11.5-1.6 15.6-5.5 3-2.8 5-7 4.3-11.2-.3-2.2-1.4-4.3-2.2-6.5-1.2-3.6-1.8-7.4-3.4-10.9-2.3-5-9.5-9-14.9-6.4q-1.5.8-2.6 2.1a48 48 0 0 0-7 8.3 27 27 0 0 0-3.2 7.4" style="fill:#cad6c7"/><path d="m39.1-66-.8 1.7C24.6-76.5 7-83.8-10-90a645 645 0 0 0-26.7-8.7l-.5-1v-1.7c9 2.8 19.2 6 28 9.2a147 147 0 0 1 48.5 25.8z" style="fill:#739175"/><path d="M7-75c1.5 6.9 3 13.5 7.9 19.8q6.2 7.7 14.3 13.5v.1q-.7 1-1 2.1a76 76 0 0 1-15-14.3 49 49 0 0 1-8.5-20.7c-.8-3.5-2-7.6-3.3-11.2L4-86q1.8 5.7 3 11" style="fill:#739175"/><path d="M35.9-21.2c4.9 5.7 11.3 10 17.9 13.4 2.2 1.1 4.6 2.2 7 2.2 5.1 0 9-4.6 12-8.7 3-3.9 6-8.4 5.4-13.3a16 16 0 0 0-3-6.8A30 30 0 0 0 66-44.6c-8.9-5.8-20.4-3.5-30.6-1-13 3.2-5.6 17.3.5 24.4" style="fill:#cad6c7"/><path d="M39.1-51.2c2.5 5.9 7 11.2 11.7 13.1 7.7 3.2 19.8 1.8 23.8-7a13 13 0 0 0-.2-10 30 30 0 0 0-5.6-8.4c-7.3-8.2-24.5-14-30.5-1.1-1.7 3.8-1.1 8.8.8 13.4M1.5 13.4Q3 18 6 22.4c2.1 3.1 4.4 6.5 7.7 8.3 6 3.3 13.4.8 19.4-2.5q4.1-2 7-5.5c3.2-4.2 4.3-10 2.8-15.1-1.1-3.7-4-6.4-6.9-8.8C22.4-12.8 2.3-21.4.5 4.7q-.3 4.7 1 8.7m-56.9 109.7a25 25 0 0 0 15.3-4.9c7-5.1 9-14.1 7.1-22.5-1-4.2-9.9-21.3-15-20C-57.6 78-67.7 84-71 94c-3.2 9.4-1.7 21.4 7.4 26.8q3.9 2.2 8.3 2.3" style="opacity:.55;fill:#739175"/><path d="M-71.5-69c-5 4.6-11.5 8.5-15 14.7a18 18 0 0 0-1 17 24 24 0 0 0 12.8 9.4c2.7 1 5.5 2 8.3 2 7.2.4 13.6-4.6 17.7-10.7 5-7.4 7.2-16.5 5-25.3-3-11.7-19.5-14.8-27.8-7.2" style="fill:#cad6c7"/></g><path d="M79.5 84.8c5.5-14-6.9-38.3-15-47C31.9 3.2 18 108.4 68.7 94.1c5.7-1.6 9.1-5 10.8-9.3" style="opacity:.55;clip-path:url(#b);fill:#739175"/><path d="M1021.5 432.3c5.4-14-7-38.3-15-47-32.7-34.6-46.6 70.6 4.1 56.3q8.5-2.6 10.9-9.4" style="opacity:.55;clip-path:url(#b);fill:#739175"/><path d="M71.2-23v1.5q10.5 8 17 19.3a40 40 0 0 0-5.2 10c-.3.8-1.3 2.6-1.5 4-1.4 0-3 2-3.9 2.9Q75.9 16 75.8 18c.1 1.8 2.4 4 4.2 4h.1q2-.2 2.9-2.3c1-2 1.2-5.1-.2-7l-.1-.3c.4-1.6 1.7-4.7 1.8-5 1.3-2.8 2.3-5.6 4.3-8l.1-.3 2 4.2q4.2 9.5 6.5 20-3.3 3.9-6 8.2-1 0-2.6.3c-2 .6-3.8 1.5-4.6 3.7-2.1 5.3 4.3 8 7 3.5q1.2-1.8 1.7-3.7.5-2.4-.1-3.2 2.3-3.5 5-6.8.7 4 1 8c-1.1.4-1.7 1.6-2.2 2.7Q95 39 94 42.3q-.4 1.4-.4 3.2c0 4.3 1.8 9.4 6.7 7.5a7 7 0 0 0 4-4.9q.6-3.2-.3-6.5c-.4-1.6-1.6-7-3.7-8.3l-.5-4.9q2.4.8 4.3 2.4c0 2.7 1.9 6.8 3.6 7.6 1.7 1 4 .1 5-1.6 1.3-2.2.5-4.8-1.1-6.4a6 6 0 0 0-5.7-2q-.9.2-1.2.8-2.3-1.8-5.2-2.5Q98 16.7 94 6.5c3.9 2 7.1 5.2 10 8.1.3 2.8 2.5 4.9 5.3 4 3.2-.9 3.3-4.7.1-6a7 7 0 0 0-4.6 0l-.5.1a36 36 0 0 0-11.2-8.3 96 96 0 0 0-5.3-11q-2.3-3.5-5.2-6.4a38 38 0 0 0-10.3-9.7z" style="clip-path:url(#b);fill:#d6c98a"/><g style="clip-path:url(#b)"><path d="M398 63.7c1.6 5.8 6 11.9 11.8 7.4 2.4-1.8 3.5-5 3.4-8.1q-.4-4.6-3-8.6c-1.3-2.4-6.8-12.1-10.2-9-1.2 1.1-1.5 2.9-1.7 4.5-.5 3.2-1.1 6.3-1 9.5q0 2 .6 4.3m-16.4-9.3c-.2 2.3.5 4.6 2.5 5.8 3 1.8 4.6 1 5.5-1 2-2.8 1.8-9.5 2.3-12.8v-.6c-.3-.7-1.3-.5-2-.2-3.9 2.3-7.8 3.4-8.3 8.8m38.5-9.9c.8-3.3-1.2-6.5-4-8a9 9 0 0 0-8.3-.3c-4.8 2.3 2.5 11.8 6.2 12.6 2.7.5 5.5-1.6 6.1-4.3m-31.4-8.4q1.6-2.6.6-6.7-.4-1.6-1.6-2.7c-2.8-2.1-4.8 2.2-5.6 4.2a11 11 0 0 0-1.1 4.5c.2 5.7 5.4 4.7 7.7.7" style="fill:#d6c98a"/><path d="m324.5-31.8-.7 1.5c28.5 15 63 37.4 77 77.2l1.6-.5c-14.3-40.4-49.1-63-77.9-78.2" style="fill:#d6c98a"/><path d="M394.8 32q-3.2 7.8-5.6 15.8l1.5.5q2.4-8 5.6-15.6zm3.2 4.7v1.7q5.4-.4 10 2.1l.7-1.5c-3.1-1.7-7-2.6-10.8-2.3m-12.5-18.6-.1 9h1.6l.2-8.9zM378 7.3V9c8.2 0 16.1 4.8 22.4 8.6l.8-1.4a46 46 0 0 0-23.3-9" style="fill:#d6c98a"/><path d="M406.2 13.6c4.8.6 6.1 5.7 2.2 8.2-4 2.5-8.2-.3-9-4.8q-.2-.5 0-.8 0-.5.6-.7c1.8-1.2 4-2.1 6.2-1.9m-37 4a6 6 0 0 0-3-4.4q-.9-.7-2.1-.8c-2.7.2-1.8 3.7-1.3 5.4q.4 1.8 1.5 3.2c2.8 3.3 5.4 0 4.9-3.4" style="fill:#d6c98a"/><path d="M358.3-1 357 .2q6 6 7.4 16l1.6-.2q-1.5-10.5-7.8-17m5.6 51.2c.9 4.5 0 10.3-5.6 9.3a7 7 0 0 1-5-4.4q-1.4-3.2-1.1-6.9c.1-2.1.4-10.7 3.9-9.8q1.7.6 2.8 2.5 2.2 3 4 6 .7 1.4 1 3.3m7.7-12.2c1.7 2.1 2.1 4.7-.7 6.2-1.2.7-3.5.6-4.5-.3a8 8 0 0 1-1.7-2.4l-1.2-2.2q-.7-1-.8-2.3c-.2-5 7.6-.5 8.9 1M342 45c-1.7-2-1.5-5 0-7a7 7 0 0 1 5.5-3.2c4-.1 2.4 9 .1 10.9-1.6 1.3-4.3.9-5.7-.7" style="fill:#d6c98a"/><path d="M359-8.6a118 118 0 0 0-4.5 48.5l1.6-.2c-2-14.8-.3-31.8 4.5-47.8z" style="fill:#d6c98a"/><path d="m355 27.2-1 1.3q4.8 4 9.2 8.7l1.2-1.2q-4.5-4.6-9.4-8.8m-.7 4.3q-4.2 1.8-6.7 5.6l1.4.9q2.2-3.3 6-5zm1.3-26.7c-6 3.3-9.6 10-12.5 15.3l1.5.9c2.8-5.2 6.3-11.7 11.8-14.7z" style="fill:#d6c98a"/><path d="M339 20c-3 2.2-2 6.6 1.5 7 3.6.5 5.5-3.2 4.4-7l-.3-.6-.7-.2a7 7 0 0 0-4.9.8" style="fill:#d6c98a"/></g><g style="clip-path:url(#b)"><path d="M339 63.8a44 44 0 0 0-17.5-18.5c-6.1-3.3-15-6-21.8-4.2q-2.4.7-4.2 1.6c0-15.6-6.3-30.6-12.4-45.1-4.3-10.4-8.8-21.2-11-32l-1 .2q6-14 11.3-28l-2-.7a620 620 0 0 1-19.8 46.3c-6 3.7-12.7 6.2-19.2 8.7q-8.7 3-17 7.4c-11 6-20 14.9-28.6 23.5l-3.1 3.1a14 14 0 0 0-3.5-2.2c-15.5-7.5-32.7-14.6-48.6-8.3-3.4 1.3-7 4.1-6.9 8.3q.3 2.8 2 5a53 53 0 0 0 35.8 22.4 21 21 0 0 0-.3 4.3 21 21 0 0 0 6.8 15.5q-12.6.3-24.8-2.3c-3-11.8-30.6-24.7-42.7-18.2-2 1-3.4 3-4.7 4.8q-3.4 5-5.8 10.8c-1.9 4.8-2.9 11 .8 14.5 2.4 2.2 5.8 2.5 9 2.7 12.4.7 25.5 1.4 36.8-4q6.9-3.6 6.9-8.2c9 2 18.3 2.4 27.4 2.2q2.7 1.7 5.7 2.5c6.6 1.9 14.5 1.2 19.2-3.9q2.2-.4 4-1.3c-2.6 6.2-6.2 15-9.7 24.8l-.1-.3a86 86 0 0 0-23.5 16 32 32 0 0 0-6.7-3.1c-23.8-8.2-67.5 7.4-74.4 33.7-2.5 9.4.4 20.6 8.3 26 7.1 5 16.4 4.5 24.8 3.3q11-1.3 21.1-5.1l-1.4 5c-4 15.5-5.4 31.7-4.1 47.7 9.5 2.8 19.7-3.2 25.5-11.5 5.7-8.3 8.3-18.4 11.6-28 3.2-9.3 22.7-40.7 12.6-46.2q-1.1-.6-2.5-.8a401 401 0 0 1 22-63.8c4.2-3.8 7.5-9 10.5-13.7l.6-.9 6-9.5q1.8 5.6 4.3 11 2.4 4.8 4.1 9.8l.6 2a11 11 0 0 0 1.4 9.1l.8 1 1.1 8.8 3.7 30.9-1.3 1c-7.4 5.8-21 14.5-21.9 24.7a66 66 0 0 0 9.4 34c1.4 2.5 3.1 5 5.8 6 4.4 1.9 9.2-1.3 13-4.3 5-4 10.4-8.4 11.9-14.7A29 29 0 0 0 261 148l-9.3-27.2c-.6-1.7-1.6-3.6-3-4.2l-3.7-31-.9-6.7a17 17 0 0 0 8 1.5 23 23 0 0 0 18.7-9.1c3.7-5.5 4.3-16-.6-21.5a23 23 0 0 0 4.5-8.2l.1-.4q4.8-12.8 13.1-25.4a81 81 0 0 1 5.4 28.5c-4.6 4.4-5.1 11.6-5.4 18.8a55 55 0 0 0 .5 13.3 24 24 0 0 0 20.2 18.2c10.7 1.6 24.4-3.5 30.1-12.5 3.3-5 4-11.4.3-18.4M199 98.2c-4 11.4-7.9 23.6-10 34h.5q-3 .4-6.9 2c3.4-8.1 3-16-4.2-21.7a84 84 0 0 1 20.7-14.3m13.7-87.9q-1.8 14.1-7 27.5c-1.4-.7-3-.7-4.7-1a49 49 0 0 0-6.3-.9q1.6-4.3-.6-8l3.3-3.3q7.3-7.4 15.3-14.3M258.9-13a630 630 0 0 1-36.4 65.6l-.6.9a57 57 0 0 1-11 14q-1.3.9-2.8 1.5a29 29 0 0 0 1.8-24.3c-.5-1.5-1.3-3.7-2.3-5.3 3.9-10 6.5-20.6 7.6-31q4.8-4 10.2-7a128 128 0 0 1 16.8-7.2q8.5-3 16.7-7.2m28 26.2q-9 13.5-14.2 27.3l-.1.4c-1 2.6-2 5.2-4 7.5l-1-.6c-7.3-4.2-17 4.2-22 9.4q-2.9 3-4.9 6.6a113 113 0 0 0-4-9.5c-1.8-4-3.7-8.3-4.8-12.6A646 646 0 0 0 262.3-15l.1-.1 7.9-17.4c2.3 10.5 6.6 20.9 10.8 30.9z" style="fill:#fff"/><path d="M95.4 141.8c-2.5 9.4.4 20.6 8.3 26 7.1 5 16.4 4.5 24.8 3.3a93 93 0 0 0 22.6-5.7c20-8.3 53-45.6 18.7-57.3-23.8-8.2-67.5 7.4-74.4 33.7" style="fill:#cad6c7"/><path d="M156.7 152.9c-4.5 5-6.8 11.5-8.5 18-4 15.6-5.4 31.8-4.1 47.8 9.5 2.8 19.7-3.2 25.5-11.5 5.7-8.2 8.3-18.4 11.6-28 3.2-9.3 22.7-40.7 12.6-46.2-8.8-4.9-32 14.3-37.1 19.9" style="opacity:.55;fill:#739175"/><path d="M282.4-62.1q-9 23.8-20 47v.1a631 631 0 0 1-30.5 56.7c1.1 4.3 3 8.5 4.9 12.6q2.3 4.9 4.1 10c2.3 7 3.2 14.3 4 21.4l4.5 37-2.2.3-4.5-37a105 105 0 0 0-3.9-20.9q-1.8-5-4-9.8a98 98 0 0 1-4.5-11l-6 9.5-.5 1c-3 4.6-6.3 9.8-10.6 13.6a399 399 0 0 0-22 64.2l-2.2-.5c2.1-10.3 6-22.5 10-33.9a83 83 0 0 0-23.4 17.1l-1.6-1.6a86 86 0 0 1 26-18.5v.3c3.6-9.8 7.2-18.6 9.8-24.8a32 32 0 0 1-12.8 2l-4 .1c-14.4 1-29.7 1.4-44.1-2.8l.6-2.2c14 4.1 29.1 3.6 43.3 2.7l4.2-.1c5.1-.1 10.4-.2 13.9-3 4.4-3.5 8-9 11-14l.6-.8A645 645 0 0 0 258.9-13c-5.4 3-11.1 5.1-16.7 7.2-5.7 2.2-11.5 4.3-16.8 7.3a77 77 0 0 0-10.2 6.8 120 120 0 0 1-10.6 38.1l-2-1c5.1-11 8.6-23 10-35a231 231 0 0 0-15.2 14.2L194 28l-1.5-1.7 3.3-3.3c8.7-8.6 17.6-17.5 28.5-23.5Q232.7-5 241.4-8a111 111 0 0 0 19.2-8.7A620 620 0 0 0 280.3-63z" style="fill:#739175"/><path d="M245 117.8c-7.3 5.9-20.9 14.6-21.8 24.8a66 66 0 0 0 9.4 34c1.4 2.5 3.1 5 5.8 6 4.4 1.9 9.2-1.3 13-4.3 5-4 10.4-8.4 11.9-14.7A29 29 0 0 0 261 148l-9.4-27.2c-.7-2-2-4.5-4-4.4q-1.5.3-2.5 1.3M110.5 50.6c-2 1-3.4 3-4.7 4.8q-3.4 5-5.8 10.8c-1.9 4.8-2.9 11 .8 14.5 2.4 2.2 5.8 2.5 9 2.7 12.4.7 25.5 1.4 36.8-4 23.7-11.4-19.9-37.5-36-28.8m60.7 2.4v2.6a21 21 0 0 0 15.3 20.3c6.6 1.9 14.5 1.2 19.2-3.9 6.5-7 7.3-18.5 4.1-27.3-.7-1.9-1.6-5-3.2-6.3s-3.7-1.2-5.7-1.6a43 43 0 0 0-17.2-.1c-4 .8-6 3.4-8.4 6.7a21 21 0 0 0-3.4 5.5q-.6 2-.7 4.1" style="fill:#cad6c7"/><path d="M135.6 29c8.2 13.2 30.8 26.5 44.7 21.2C189 47 204 31 189.3 24c-15.6-7.5-32.8-14.6-48.7-8.3-3.4 1.3-7 4.1-6.9 8.3 0 1.9 1 3.5 2 5" style="opacity:.55;fill:#739175"/><path d="m272.1-34.5-2.2.5a181 181 0 0 0 11.2 32.5c6.2 14.9 12.6 30.3 12.2 46l2.2.2c.5-16.3-6-32-12.4-47.1-4.3-10.4-8.8-21.2-11-32" style="fill:#739175"/><path d="M287.6 12.3a127 127 0 0 0-14.9 28.2l-.1.4c-1.5 4-2.8 7.6-8 10.5l1.1 2c5.9-3.3 7.5-7.7 9-11.7l.1-.4q5.3-14 14.6-27.7z" style="fill:#739175"/><path d="M338.7 82.2c-5.8 9-19.4 14-30.1 12.5a24 24 0 0 1-20.2-18.2 55 55 0 0 1-.5-13.3c.4-9.7 1.2-19.4 11.8-22.1 6.9-1.8 15.7.9 21.8 4.2A44 44 0 0 1 339 63.8c3.7 7 3 13.3-.3 18.4" style="opacity:.55;fill:#739175"/><path d="M245.6 57.2a25 25 0 0 0-5.9 8.8c-1.1 3.3-1 7.3 1 10.2 2.6 3.4 7.2 4.4 11.4 4.3a23 23 0 0 0 18.7-9.1c4.2-6.3 4.5-19.3-3.1-23.6-7.4-4.2-17.1 4.2-22.1 9.4" style="fill:#cad6c7"/></g><path d="M456.4 9.7q.1 10.6-3.1 20.7c-.9 2.6-2.1 5.3-4.5 6.2-2.2.9-4.5.1-6.7-.7l-15.3-5.7c-8.5-3.1-18.6-8.4-18.6-17.7 0-4 2-7.8 4-11.3 6-10.6 14.7-22.6 26.5-21.3C448.6-19 454.9-8.7 458 1z" style="opacity:.5;clip-path:url(#b);fill:#cad6c7"/><g style="opacity:.6;clip-path:url(#b)"><path d="M1195.6 148c-90 16.7-186 7.6-272-25.5q.3-1.8 0-3.8a504 504 0 0 0 271.4 26q1.1-.2 1.8.8l.2.5q0 1.7-1.4 2" style="fill:#fff"/><path d="M970 166.4q.1-1.8-.5-3.5c20.5 1.8 32.4 2.2 53.3-16.5l2.2 2.6c-21.7 19.4-34.7 19.2-55 17.4m-40.3-86q-1.5 0-3 .4c2-17.5 2.5-27.8-12.3-46.3l2.1-1.8c15.4 19.2 15 30.4 13.2 47.7" style="fill:#fff"/><path d="M967.5 130.2c-12.5-20.5-28-45.7-65.4-62.7q.7-1.6 1-3.4c38.6 17.5 54.5 43.3 67.3 64.3l4.8 7.7-2.8 1.9zm134.5 26.6c-2.4-17.5-19.7-29.3-34.9-39.7l-2.8-1.9.1-.3q.4-1.8.4-3.5l4.2 2.9c12.2 8.3 25.6 17.5 32.3 30q3 5.4 4 12zM906.9 91.4a45 45 0 0 0-6-3.9 23 23 0 0 0-10.6-3.3c-7.6 0-18.2 6.9-21.8 13.7a31 31 0 0 0-1.1 25.4 19 19 0 0 0 12.8 12.6c3.3.8 6.7.5 10.1.6 5.6.1 11.2 1.5 16.8 1.2 8-.6 17.6-8.6 16.9-17.8q-.3-2.6-1.4-5c-2.1-5.1-4.2-10.3-7.4-14.9a40 40 0 0 0-8.3-8.6m10.1-84q-2.2-1.7-4.5-3a18 18 0 0 0-8.2-2.5c-5.9 0-14 5.2-16.8 10.4a24 24 0 0 0-.8 19.5c1.7 4.6 5.2 8.6 9.8 9.7 2.5.6 5.2.4 7.8.5 4.3 0 8.6 1.2 12.9.9 6.1-.4 13.5-6.6 13-13.7q-.4-1.9-1.2-3.8-2.2-6.2-5.6-11.4-2.7-3.8-6.4-6.6m97.3 216.4-1.4-1.7c18.5-9.7 33.7-26 47.3-42 6.7-8 14.2-17.4 20.6-25.7l1.2-.1 1.7.6a771 771 0 0 1-21.5 27c-13.7 16.1-28.9 32.4-47.6 42.4z" style="fill:#fff"/><path d="M1037.5 192.2a51 51 0 0 0-24.2.2 82 82 0 0 0-20.3 10v-.2q-.7-1.2-1.8-1.9a85 85 0 0 1 21.4-10.5 53 53 0 0 1 25.3-.3c4 .6 8.8 1 13 1.2l-.6 3q-6.7-.4-12.8-1.5" style="fill:#fff"/><path d="M968.8 200.8c-8 3-15.2 8.1-21.6 14-2.1 2-4.3 4-5.3 6.8-2.1 5.7 1 11.8 4 17 2.8 5 6.2 10.3 11.6 11.7 2.7.7 5.6.3 8.3-.3 5.2-1 10.4-2.6 14.7-5.8 9.9-7.3 12.3-21 14-33.4 2.2-15.6-15.7-13.6-25.7-10" style="fill:#fff"/><path d="M998.8 217.4c-7.2.1-14.7 2.9-18.7 7.2-6.5 7.2-10.3 21.1-2.7 29.4a14 14 0 0 0 10.5 4 31 31 0 0 0 11.2-2.5c11.7-4.5 25-21 14.1-33.2-3.2-3.6-8.7-5-14.4-5m-51.6-69.5q-5.4-.3-11.3 1a27 27 0 0 0-12 5c-6 5.2-6.6 14.5-5.6 22.5.4 3.5 1 7 2.7 10.1a19 19 0 0 0 14.7 9.6c4.3.4 8.4-1.6 12.1-3.7 18-10 35.5-28.5 9-41.8a25 25 0 0 0-9.6-2.7M856.5 37.3a31 31 0 0 0-1.3 19A24 24 0 0 0 875.7 74c4.8.7 26.5-1.7 27.4-7.9 1.6-11.6-.5-25.5-9.4-33.5-8.5-7.6-21.7-11.1-31.2-3.4a21 21 0 0 0-6 8.1" style="opacity:.55;fill:#fff"/><path d="M1064.5 103c-2.7-7.7-4-16.5-9-23.1-4.2-5.4-10.8-9.2-17.4-8.3-6.1.8-11.1 5.3-15.3 10a31 31 0 0 0-5.7 8.2c-3.3 7.8-.9 17.1 3.8 24.2a35 35 0 0 0 24.3 16.5c13.5 1.8 23.8-15.1 19.3-27.5" style="fill:#fff"/><g style="opacity:.4"><path d="M1195.6 148c-90 16.7-186 7.6-272-25.5q.3-1.8 0-3.8a504 504 0 0 0 271.4 26q1.1-.2 1.8.8l.2.5q0 1.7-1.4 2" style="fill:#739175"/><path d="M970 166.4q.1-1.8-.5-3.5c20.5 1.8 32.4 2.2 53.3-16.5l2.2 2.6c-21.7 19.4-34.7 19.2-55 17.4m-40.3-86q-1.5 0-3 .4c2-17.5 2.5-27.8-12.3-46.3l2.1-1.8c15.4 19.2 15 30.4 13.2 47.7" style="fill:#739175"/><path d="M967.5 130.2c-12.5-20.5-28-45.7-65.4-62.7q.7-1.6 1-3.4c38.6 17.5 54.5 43.3 67.3 64.3l4.8 7.7-2.8 1.9zm134.5 26.6c-2.4-17.5-19.7-29.3-34.9-39.7l-2.8-1.9.1-.3q.4-1.8.4-3.5l4.2 2.9c12.2 8.3 25.6 17.5 32.3 30q3 5.4 4 12z" style="fill:#739175"/><path d="M906.9 91.4a45 45 0 0 0-6-3.9 23 23 0 0 0-10.6-3.3c-7.6 0-18.2 6.9-21.8 13.7a31 31 0 0 0-1.1 25.4 19 19 0 0 0 12.8 12.6c3.3.8 6.7.5 10.1.6 5.6.1 11.2 1.5 16.8 1.2 8-.6 17.6-8.6 16.9-17.8q-.3-2.6-1.4-5c-2.1-5.1-4.2-10.3-7.4-14.9a40 40 0 0 0-8.3-8.6m10.1-84q-2.2-1.7-4.5-3a18 18 0 0 0-8.2-2.5c-5.9 0-14 5.2-16.8 10.4a24 24 0 0 0-.8 19.5c1.7 4.6 5.2 8.6 9.8 9.7 2.5.6 5.2.4 7.8.5 4.3 0 8.6 1.2 12.9.9 6.1-.4 13.5-6.6 13-13.7q-.4-1.9-1.2-3.8-2.2-6.2-5.6-11.4-2.7-3.8-6.4-6.6" style="fill:#cad6c7"/><path d="m1014.3 223.8-1.4-1.7c18.5-9.7 33.7-26 47.3-42 6.7-8 14.2-17.4 20.6-25.7l1.2-.1 1.7.6a771 771 0 0 1-21.5 27c-13.7 16.1-28.9 32.4-47.6 42.4z" style="fill:#739175"/><path d="M1037.5 192.2a51 51 0 0 0-24.2.2 82 82 0 0 0-20.3 10v-.2q-.7-1.2-1.8-1.9a85 85 0 0 1 21.4-10.5 53 53 0 0 1 25.3-.3c4 .6 8.8 1 13 1.2l-.6 3q-6.7-.4-12.8-1.5" style="fill:#739175"/><path d="M968.8 200.8c-8 3-15.2 8.1-21.6 14-2.1 2-4.3 4-5.3 6.8-2.1 5.7 1 11.8 4 17 2.8 5 6.2 10.3 11.6 11.7 2.7.7 5.6.3 8.3-.3 5.2-1 10.4-2.6 14.7-5.8 9.9-7.3 12.3-21 14-33.4 2.2-15.6-15.7-13.6-25.7-10" style="fill:#cad6c7"/><path d="M998.8 217.4c-7.2.1-14.7 2.9-18.7 7.2-6.5 7.2-10.3 21.1-2.7 29.4a14 14 0 0 0 10.5 4 31 31 0 0 0 11.2-2.5c11.7-4.5 25-21 14.1-33.2-3.2-3.6-8.7-5-14.4-5m-51.6-69.5q-5.4-.3-11.3 1a27 27 0 0 0-12 5c-6 5.2-6.6 14.5-5.6 22.5.4 3.5 1 7 2.7 10.1a19 19 0 0 0 14.7 9.6c4.3.4 8.4-1.6 12.1-3.7 18-10 35.5-28.5 9-41.8a25 25 0 0 0-9.6-2.7M856.5 37.3a31 31 0 0 0-1.3 19A24 24 0 0 0 875.7 74c4.8.7 26.5-1.7 27.4-7.9 1.6-11.6-.5-25.5-9.4-33.5-8.5-7.6-21.7-11.1-31.2-3.4a21 21 0 0 0-6 8.1" style="opacity:.55;fill:#739175"/><path d="M1064.5 103c-2.7-7.7-4-16.5-9-23.1-4.2-5.4-10.8-9.2-17.4-8.3-6.1.8-11.1 5.3-15.3 10a31 31 0 0 0-5.7 8.2c-3.3 7.8-.9 17.1 3.8 24.2a35 35 0 0 0 24.3 16.5c13.5 1.8 23.8-15.1 19.3-27.5" style="fill:#cad6c7"/></g></g><g style="opacity:.6;clip-path:url(#b)"><path d="M430.2 782a445 445 0 0 1 210.7-113q.7 1.5 2 2.7a442 442 0 0 0-210.7 112.6q-.7.7-1.7.2l-.4-.3q-.8-1 0-2" style="fill:#fff"/><path d="M585.7 659.3q.9 1.5 2.2 2.3c-15.8 8.6-24.7 14-31 37.9l-2.8-.8c6.4-24.7 16-30.9 31.6-39.4m71.3 43.2a7 7 0 0 0 1.8-1.7c7.2 13.7 11.7 21.4 31.5 27.7l-.7 2.4c-20.5-6.5-25.6-14.9-32.7-28.4" style="fill:#fff"/><path d="M605.2 684.5c19 8.9 42.5 19.8 78 14q.3 1.5 1 3c-36.7 6-60.8-5.2-80.2-14.3l-7.3-3.3 1.2-2.7zm-111 45.8c10.3 11.6 28.5 11.8 44.6 12h3v.3l1.5 2.8h-4.4c-13-.3-27.2-.4-38.2-6.3q-4.9-2.6-8.7-6.8zm174-46.9q3 .3 6.2 0a20 20 0 0 0 9.4-2.8c5.6-3.7 9.9-13.8 9.3-20.5a28 28 0 0 0-11.5-19c-4.5-3.3-10.4-4.9-15.5-3-2.8 1-5.1 2.9-7.6 4.4-4.2 2.6-9 4.3-12.9 7.3-5.6 4.3-8.6 14.8-3.7 21.1q1.5 1.7 3.5 3c4 2.7 8 5.5 12.6 7.3q5 1.8 10.2 2.2m33.3 66.2h4.8q3.8-.2 7.2-2.1a20 20 0 0 0 7.1-15.8 21 21 0 0 0-8.8-14.6c-3.4-2.5-8-3.7-11.9-2.3-2.1.7-4 2.2-5.9 3.4-3.2 2-6.8 3.3-9.8 5.6-4.3 3.3-6.6 11.3-2.9 16.2q1.2 1.4 2.7 2.3c3 2 6.2 4.2 9.7 5.6q3.8 1.5 7.8 1.7M525.7 638.9l1.8.5c-8.8 16.1-12 35.3-14.1 53.6-1 9.1-2 19.6-2.6 28.7l-.8.7-1.6.4c.7-9.6 1.5-20.6 2.6-30 2.2-18.5 5.4-37.8 14.2-54.1z" style="fill:#fff"/><path d="M524 673.2c6.5-3 12.6-5.7 17.6-11.9q6.1-7.7 10-17h.1q1.1.5 2.2.5c-2.8 6.5-6 12.7-10.5 18a44 44 0 0 1-18.3 12.5 100 100 0 0 0-10.1 5.5l-1-2.5q5.1-3 10-5.1" style="fill:#fff"/><path d="M570 633.6c4.5-6 7.1-13.3 9-20.6.6-2.5 1.1-5.1.5-7.6-1.1-5.1-6.4-8.1-11-10.5-4.6-2.2-9.6-4.4-14.2-2.8a32 32 0 0 0-13.8 15.5c-3.7 10.1 1.1 21.3 5.9 31.2 6 12.4 18 2.3 23.6-5.2" style="fill:#fff"/><path d="M540 636a24 24 0 0 0 10.2-14.2c1.3-8.5-2.7-20.4-12.2-22.8-3.3-.8-6.9.2-9.7 2.1s-5 4.6-6.9 7.3c-6.4 9-8.1 27.5 5.8 31 4 1.1 8.8-.4 12.9-3.3m71.4 25.7a33 33 0 0 0 7.6-6.2c2.7-2.8 5.4-5.7 6.5-9.4 1.8-6.7-2.3-13.8-6.9-19.2a23 23 0 0 0-6.9-6 17 17 0 0 0-15.3 0 19 19 0 0 0-7 8.7c-8.3 16-12.1 38 13.7 34.8a22 22 0 0 0 8.3-2.7m119.6 36.6c-1-5.4-4.2-10.7-8.2-14.5a21 21 0 0 0-23.5-2.9c-3.9 1.8-18.6 14-16.2 19 4.5 9.3 12.7 18.4 23 20 10 1.4 21.3-2.5 24.5-12.7q1.4-4.3.4-8.9" style="opacity:.55;fill:#fff"/><path d="M547.6 751.4c5.7 4.2 11 10 17.8 12.4 5.6 2 12.3 1.5 16.7-2.4 4-3.5 5.5-9.2 6.3-14.6q.8-4.5.2-8.8c-1.4-7.3-7.7-13-14.5-15.8a31 31 0 0 0-25.8-.3c-10.7 5.3-10 22.6-.7 29.5" style="fill:#fff"/><g style="opacity:.4"><path d="M430.2 782a445 445 0 0 1 210.7-113q.7 1.5 2 2.7a442 442 0 0 0-210.7 112.6q-.7.7-1.7.2l-.4-.3q-.8-1 0-2" style="fill:#739175"/><path d="M585.7 659.3q.9 1.5 2.2 2.3c-15.8 8.6-24.7 14-31 37.9l-2.8-.8c6.4-24.7 16-30.9 31.6-39.4m71.3 43.2a7 7 0 0 0 1.8-1.7c7.2 13.7 11.7 21.4 31.5 27.7l-.7 2.4c-20.5-6.5-25.6-14.9-32.7-28.4" style="fill:#739175"/><path d="M605.2 684.5c19 8.9 42.5 19.8 78 14q.3 1.5 1 3c-36.7 6-60.8-5.2-80.2-14.3l-7.3-3.3 1.2-2.7zm-111 45.8c10.3 11.6 28.5 11.8 44.6 12h3v.3l1.5 2.8h-4.4c-13-.3-27.2-.4-38.2-6.3q-4.9-2.6-8.7-6.8z" style="fill:#739175"/><path d="M668.2 683.4q3 .3 6.2 0a20 20 0 0 0 9.4-2.8c5.6-3.7 9.9-13.8 9.3-20.5a28 28 0 0 0-11.5-19c-4.5-3.3-10.4-4.9-15.5-3-2.8 1-5.1 2.9-7.6 4.4-4.2 2.6-9 4.3-12.9 7.3-5.6 4.3-8.6 14.8-3.7 21.1q1.5 1.7 3.5 3c4 2.7 8 5.5 12.6 7.3q5 1.8 10.2 2.2m33.3 66.2h4.8q3.8-.2 7.2-2.1a20 20 0 0 0 7.1-15.8 21 21 0 0 0-8.8-14.6c-3.4-2.5-8-3.7-11.9-2.3-2.1.7-4 2.2-5.9 3.4-3.2 2-6.8 3.3-9.8 5.6-4.3 3.3-6.6 11.3-2.9 16.2q1.2 1.4 2.7 2.3c3 2 6.2 4.2 9.7 5.6q3.8 1.5 7.8 1.7" style="fill:#cad6c7"/><path d="m525.7 638.9 1.8.5c-8.8 16.1-12 35.3-14.1 53.6-1 9.1-2 19.6-2.6 28.7l-.8.7-1.6.4c.7-9.6 1.5-20.6 2.6-30 2.2-18.5 5.4-37.8 14.2-54.1z" style="fill:#739175"/><path d="M524 673.2c6.5-3 12.6-5.7 17.6-11.9q6.1-7.7 10-17h.1q1.1.5 2.2.5c-2.8 6.5-6 12.7-10.5 18a44 44 0 0 1-18.3 12.5 100 100 0 0 0-10.1 5.5l-1-2.5q5.1-3 10-5.1" style="fill:#739175"/><path d="M570 633.6c4.5-6 7.1-13.3 9-20.6.6-2.5 1.1-5.1.5-7.6-1.1-5.1-6.4-8.1-11-10.5-4.6-2.2-9.6-4.4-14.2-2.8a32 32 0 0 0-13.8 15.5c-3.7 10.1 1.1 21.3 5.9 31.2 6 12.4 18 2.3 23.6-5.2" style="fill:#cad6c7"/><path d="M540 636a24 24 0 0 0 10.2-14.2c1.3-8.5-2.7-20.4-12.2-22.8-3.3-.8-6.9.2-9.7 2.1s-5 4.6-6.9 7.3c-6.4 9-8.1 27.5 5.8 31 4 1.1 8.8-.4 12.9-3.3m71.4 25.7a33 33 0 0 0 7.6-6.2c2.7-2.8 5.4-5.7 6.5-9.4 1.8-6.7-2.3-13.8-6.9-19.2a23 23 0 0 0-6.9-6 17 17 0 0 0-15.3 0 19 19 0 0 0-7 8.7c-8.3 16-12.1 38 13.7 34.8a22 22 0 0 0 8.3-2.7m119.6 36.6c-1-5.4-4.2-10.7-8.2-14.5a21 21 0 0 0-23.5-2.9c-3.9 1.8-18.6 14-16.2 19 4.5 9.3 12.7 18.4 23 20 10 1.4 21.3-2.5 24.5-12.7q1.4-4.3.4-8.9" style="opacity:.55;fill:#739175"/><path d="M547.6 751.4c5.7 4.2 11 10 17.8 12.4 5.6 2 12.3 1.5 16.7-2.4 4-3.5 5.5-9.2 6.3-14.6q.8-4.5.2-8.8c-1.4-7.3-7.7-13-14.5-15.8a31 31 0 0 0-25.8-.3c-10.7 5.3-10 22.6-.7 29.5" style="fill:#cad6c7"/></g></g><g style="clip-path:url(#b)"><path d="M731.8 852.8a472 472 0 0 1-79.2-228.6q1.6-.5 2.8-1.4A469 469 0 0 0 734.2 851a1.5 1.5 0 0 1-.4 2.1c-.6.5-1.6.3-2-.4" style="fill:#739175"/><path d="M635.8 677.3q1.5-.7 2.5-1.8c6 17.2 10 27 32 37.2l-1.2 2.7c-22.7-10.6-27.3-21.2-33.3-38.1m51.2-63.2q-.6-1.2-1.4-2.1c14-4.7 22-8 30.9-26.5l2.2 1.2c-9.1 19.2-17.9 22.8-31.8 27.4" style="fill:#739175"/><path d="M662.6 662.3c11.1-17.3 24.8-38.7 24.2-75q1.5 0 3-.4c.6 37.4-13.4 59.4-24.8 77.1l-4.2 6.6-2.4-1.6zm28.5 118.1c12.5-8.2 15.2-26.3 17.7-42.2l.4-3h.3q1.6-.4 2.8-1l-.7 4.4c-2 12.8-4 27-11.2 36.8q-3 4.4-7.7 7.5z" style="fill:#739175"/><path d="M670.3 599.6q.6-3 .8-6 .5-5.2-1.4-9.9a26 26 0 0 0-18.3-12.8 26 26 0 0 0-19.9 8.1c-3.7 3.9-6 9.5-5 14.9.6 2.9 2.1 5.6 3.3 8.3 1.9 4.6 2.8 9.6 5.2 14 3.3 6.3 12.9 11.2 19.7 7.4q1.9-1.3 3.3-3c3.1-3.5 6.4-7 8.7-11.2a35 35 0 0 0 3.6-9.8m67.9-21.6q.4-2.2.6-4.7.4-3.8-1-7.5a20 20 0 0 0-14.1-9.8 20 20 0 0 0-15.3 6.2c-2.8 3-4.6 7.3-3.8 11.4.5 2.3 1.6 4.3 2.5 6.4 1.5 3.6 2.2 7.4 4 10.8 2.5 4.8 10 8.5 15.1 5.6q1.5-.9 2.5-2.2a48 48 0 0 0 6.7-8.7q2-3.4 2.8-7.5" style="fill:#cad6c7"/><path d="M608 733.2q.5-.7.8-1.7c14.2 11.6 32 18 49.3 23.4 8.5 2.6 18.4 5.2 27.1 7.5l.6.9v1.6c-9-2.3-19.4-5-28.3-7.8a147 147 0 0 1-49.8-23.4z" style="fill:#739175"/><path d="M640.6 740.8c-2-6.9-3.8-13.4-9-19.4q-6.5-7.4-14.9-12.9l.1-.1q.6-1 .8-2.1a76 76 0 0 1 15.8 13.5 49 49 0 0 1 9.4 20.4c1 3.4 2.4 7.4 3.9 11l-2.6.4q-2.1-5.5-3.5-10.8" style="fill:#739175"/><path d="M609 688.4a58 58 0 0 0-18.4-12.5c-2.3-1-4.7-2-7.2-1.9-5 .3-8.7 5-11.5 9.3-2.8 4-5.7 8.7-4.8 13.5.5 2.5 1.9 4.6 3.3 6.6 2.7 3.8 5.7 7.5 9.7 9.8 9.2 5.4 20.6 2.5 30.7-.5 12.7-3.7 4.7-17.5-1.7-24.3" style="fill:#cad6c7"/><path d="M607.3 718.5A25 25 0 0 0 595 706c-7.9-2.8-19.9-.9-23.5 8.1a13 13 0 0 0 .7 10 30 30 0 0 0 6 8.1c7.8 8 25.2 12.9 30.6-.3 1.5-4 .7-8.8-1.5-13.4m34.5-66.3q-1.7-4.5-5-8.7a24 24 0 0 0-8-8c-6.2-3-13.5-.2-19.3 3.4q-4 2.3-6.8 5.8c-3 4.4-3.8 10.2-2 15.3 1.3 3.6 4.3 6.2 7.3 8.4 14.2 11 34.6 18.6 35.2-7.5q0-4.9-1.4-8.7m51.5-112.4a25 25 0 0 0-15 5.7c-6.7 5.4-8.4 14.6-6 22.8 1.1 4.1 10.8 20.8 15.9 19.3 9.5-2.8 19.3-9.4 22.2-19.4 2.8-9.6.7-21.5-8.7-26.4q-4-2-8.4-2" style="opacity:.55;fill:#739175"/><path d="M718.7 731c4.8-4.9 11-9.1 14.3-15.5 2.6-5.2 3-12 0-17-2.8-4.6-8-7-13.1-8.8a25 25 0 0 0-8.4-1.6c-7.2 0-13.4 5.3-17.1 11.6a32 32 0 0 0-3.8 25.5c3.5 11.5 20.2 13.8 28 5.8" style="fill:#cad6c7"/></g><path d="m1053.7 127-1.6-.2-.7-.1a96 96 0 0 0-25.4-28.6c-.8.9-2.4 1.6-3.4 2.1a56 56 0 0 1-11.6 4.2c-1.3.3-4.2 1.7-6.2 1.8-.2 2-3.1 4-4.7 5.4-1.4 1.3-3 2.5-5 2.2-2.5-.4-5.5-4.3-5.3-7v-.1c.3-2 2-3.3 3.8-4 3.1-1.2 7.7-1 10.3 1.2l.3.3c2.4-.4 7-2 7.4-2 4.3-1.5 8.4-2.7 12.3-5.3l.3-.2-5.7-3.7a142 142 0 0 0-27.9-12.7q-6 4.2-12.7 7.9 0 1.5-.9 3.7c-1.1 3.2-2.7 5.6-6 6.6-7.8 2.4-11-7.7-3.9-11.3q2.6-1.5 5.6-2 3.4-.4 4.5.7 5.4-3 10.5-6.5-5.5-1.6-11.2-2.7-1.7 2-4.3 2.8c-3.1 1.1-6.2 2.4-9.5 3q-2 .4-4.6.2c-6.2-.7-13.4-4.2-10-11.4a10 10 0 0 1 7.7-5.3 19 19 0 0 1 9.4 1.4c2.2.8 9.9 3.6 11.4 6.9l7 1.5q-.9-3.9-2.9-7c-3.9-.2-9.5-3.8-10.5-6.5-1.1-2.8.5-6.2 3.1-7.5 3.3-1.5 7 0 9 2.8q3.2 4 2 8.9-.3 1.2-1.2 1.8 2.2 3.8 2.8 8.1 14.3 4 28.3 11.5a65 65 0 0 0-10.2-16.4c-4-.9-6.7-4.5-5-8.7 1.7-4.8 7.2-4.4 8.8.7a11 11 0 0 1-.7 7.1q0 .4-.3.7a57 57 0 0 1 10.3 18.2q8 4.5 15 9.8c3.4 2.5 6 5.7 8.8 8.8a62 62 0 0 1 12.5 17.2q.4.8.4 1.7z" style="clip-path:url(#b);fill:#d6c98a"/><g style="opacity:.6;clip-path:url(#b)"><path d="M-227.4 593.8a508 508 0 0 0 273.2-1.2q-.2-1.9.4-3.8a504 504 0 0 1-272.7 1.7q-1.2-.3-1.9.7l-.2.5q-.2 1.5 1.2 2" style="fill:#fff"/><path d="M-4.4 632.2q0-1.8.9-3.4c-20.6 0-32.5-.7-51.7-21.2l-2.4 2.4c19.9 21.2 32.9 22.2 53.2 22.2m47.9-82.1q1.5 0 2.8.7c-.3-17.6 0-27.9 16.5-45l-2-2c-17 17.7-17.6 29-17.3 46.3" style="fill:#fff"/><path d="M1.4 596.4c14.2-19.3 31.9-43 70.7-56.7q-.6-1.6-.6-3.4c-40.1 14-58.2 38.3-72.8 58l-5.5 7.3 2.6 2.1zM-135 610.8c4-17.2 22.2-27.3 38.3-36.3l3-1.7-.1-.3V569l-4.5 2.4c-12.9 7.2-27 15.2-34.9 27q-3.5 5.3-5 11.6zm200.2-47.7q3-2 6.2-3.3c3.5-1.5 7.2-2.6 11-2.3 7.6.6 17.5 8.4 20.5 15.5 3.4 8 2.5 17.7-1.2 25.4-2.7 5.7-7.8 10.5-13.9 11.4-3.3.5-6.7-.1-10-.3-5.7-.4-11.4.5-17-.3C53 608 44.2 599 45.7 590q.6-2.6 1.9-4.8c2.5-5 5.1-10 8.7-14.2q4-4.6 9-7.9m-2.7-84.6q2.3-1.5 4.8-2.5 4-2 8.4-1.8c5.8.5 13.4 6.5 15.7 12 2.7 6 2 13.5-.9 19.4-2 4.4-6 8-10.6 8.8-2.6.4-5.2-.1-7.8-.3-4.3-.2-8.6.4-12.9-.2-6.1-1-12.9-7.8-11.7-14.8q.4-2 1.4-3.7 2.8-5.9 6.7-10.8 3-3.6 7-6M-53.5 685.4l1.5-1.5c-17.6-11.4-31.3-28.9-43.4-46.1-6-8.5-12.6-18.6-18.2-27.4l-1.2-.3-1.8.5c5.9 9.3 12.7 19.8 19 28.8 12.2 17.3 26 34.9 43.7 46.5z" style="fill:#fff"/><path d="M-73.9 651.9c8-.6 15.7-1 24 2.3 7 2.8 13.4 7 19.4 11.7v-.1q1-1 2-1.7-9.4-7.7-20.3-12.4a53 53 0 0 0-25.2-2.5c-4 .2-8.8.2-13.2 0l.5 3q6.7.3 12.8-.3" style="fill:#fff"/><path d="M-6.2 666.6A66 66 0 0 1 14 682.4c2 2.2 4 4.5 4.7 7.3 1.6 5.8-2 11.7-5.5 16.6-3.2 4.6-7 9.7-12.6 10.6a36 36 0 0 1-22.3-8c-9.2-8.2-10.5-22.2-11-34.7-.8-15.7 16.8-12.2 26.5-7.6" style="fill:#fff"/><path d="M-37.6 680.4c7.1.8 14.4 4.2 18 8.9 5.9 7.7 8.4 22 .1 29.5a14 14 0 0 1-10.8 3.1 33 33 0 0 1-11-3.6c-11.3-5.5-23-23-11-34.3 3.5-3.3 9-4.2 14.7-3.6M20 615.7q5.5.1 11.1 2a27 27 0 0 1 11.6 6c5.5 5.8 5.3 15 3.6 23-.7 3.4-1.6 7-3.7 9.8-3.5 5-9.4 8.3-15.4 8.3-4.3 0-8.2-2.4-11.8-4.8-17-11.7-32.7-31.6-5.2-42.5q5.2-2 9.8-1.8m100.2-101.9c2 6 1.7 13-.4 19a24 24 0 0 1-22 15.8c-4.8.3-26.2-4-26.5-10.3-.6-11.7 2.7-25.3 12.3-32.5 9.1-6.9 22.6-9.2 31.3-.7a21 21 0 0 1 5.3 8.7" style="opacity:.55;fill:#fff"/><path d="M-92.9 560.6c3.4-7.4 5.6-16 11.2-22.2 4.6-5 11.5-8.1 18-6.7 6 1.4 10.6 6.3 14.3 11.3 2 2.7 4 5.5 5 8.7 2.6 8-.7 17.1-6 23.8A35 35 0 0 1-76 589.7c-13.7.6-22.4-17.1-16.9-29.1" style="fill:#fff"/><g style="opacity:.4"><path d="M-227.4 593.8a508 508 0 0 0 273.2-1.2q-.2-1.9.4-3.8a504 504 0 0 1-272.7 1.7q-1.2-.3-1.9.7l-.2.5q-.2 1.5 1.2 2" style="fill:#739175"/><path d="M-4.4 632.2q0-1.8.9-3.4c-20.6 0-32.5-.7-51.7-21.2l-2.4 2.4c19.9 21.2 32.9 22.2 53.2 22.2m47.9-82.1q1.5 0 2.8.7c-.3-17.6 0-27.9 16.5-45l-2-2c-17 17.7-17.6 29-17.3 46.3" style="fill:#739175"/><path d="M1.4 596.4c14.2-19.3 31.9-43 70.7-56.7q-.6-1.6-.6-3.4c-40.1 14-58.2 38.3-72.8 58l-5.5 7.3 2.6 2.1zM-135 610.8c4-17.2 22.2-27.3 38.3-36.3l3-1.7-.1-.3V569l-4.5 2.4c-12.9 7.2-27 15.2-34.9 27q-3.5 5.3-5 11.6z" style="fill:#739175"/><path d="M65.2 563.1q3-2 6.2-3.3c3.5-1.5 7.2-2.6 11-2.3 7.6.6 17.5 8.4 20.5 15.5 3.4 8 2.5 17.7-1.2 25.4-2.7 5.7-7.8 10.5-13.9 11.4-3.3.5-6.7-.1-10-.3-5.7-.4-11.4.5-17-.3C53 608 44.2 599 45.7 590q.6-2.6 1.9-4.8c2.5-5 5.1-10 8.7-14.2q4-4.6 9-7.9m-2.7-84.6q2.3-1.5 4.8-2.5 4-2 8.4-1.8c5.8.5 13.4 6.5 15.7 12 2.7 6 2 13.5-.9 19.4-2 4.4-6 8-10.6 8.8-2.6.4-5.2-.1-7.8-.3-4.3-.2-8.6.4-12.9-.2-6.1-1-12.9-7.8-11.7-14.8q.4-2 1.4-3.7 2.8-5.9 6.7-10.8 3-3.6 7-6" style="fill:#cad6c7"/><path d="m-53.5 685.4 1.5-1.5c-17.6-11.4-31.3-28.9-43.4-46.1-6-8.5-12.6-18.6-18.2-27.4l-1.2-.3-1.8.5c5.9 9.3 12.7 19.8 19 28.8 12.2 17.3 26 34.9 43.7 46.5z" style="fill:#739175"/><path d="M-73.9 651.9c8-.6 15.7-1 24 2.3 7 2.8 13.4 7 19.4 11.7v-.1q1-1 2-1.7-9.4-7.7-20.3-12.4a53 53 0 0 0-25.2-2.5c-4 .2-8.8.2-13.2 0l.5 3q6.7.3 12.8-.3" style="fill:#739175"/><path d="M-6.2 666.6A66 66 0 0 1 14 682.4c2 2.2 4 4.5 4.7 7.3 1.6 5.8-2 11.7-5.5 16.6-3.2 4.6-7 9.7-12.6 10.6a36 36 0 0 1-22.3-8c-9.2-8.2-10.5-22.2-11-34.7-.8-15.7 16.8-12.2 26.5-7.6" style="fill:#cad6c7"/><path d="M-37.6 680.4c7.1.8 14.4 4.2 18 8.9 5.9 7.7 8.4 22 .1 29.5a14 14 0 0 1-10.8 3.1 33 33 0 0 1-11-3.6c-11.3-5.5-23-23-11-34.3 3.5-3.3 9-4.2 14.7-3.6M20 615.7q5.5.1 11.1 2a27 27 0 0 1 11.6 6c5.5 5.8 5.3 15 3.6 23-.7 3.4-1.6 7-3.7 9.8-3.5 5-9.4 8.3-15.4 8.3-4.3 0-8.2-2.4-11.8-4.8-17-11.7-32.7-31.6-5.2-42.5q5.2-2 9.8-1.8m100.2-101.9c2 6 1.7 13-.4 19a24 24 0 0 1-22 15.8c-4.8.3-26.2-4-26.5-10.3-.6-11.7 2.7-25.3 12.3-32.5 9.1-6.9 22.6-9.2 31.3-.7a21 21 0 0 1 5.3 8.7" style="opacity:.55;fill:#739175"/><path d="M-92.9 560.6c3.4-7.4 5.6-16 11.2-22.2 4.6-5 11.5-8.1 18-6.7 6 1.4 10.6 6.3 14.3 11.3 2 2.7 4 5.5 5 8.7 2.6 8-.7 17.1-6 23.8A35 35 0 0 1-76 589.7c-13.7.6-22.4-17.1-16.9-29.1" style="fill:#cad6c7"/></g></g><path d="m-43.8 583 1.6-.2.7-.1a98 98 0 0 1 24-29.8c.8.9 2.4 1.6 3.4 2q5.7 2.5 11.8 3.7c1.4.2 4.3 1.4 6.3 1.4.3 2 3.4 4 5 5.2 1.4 1.2 3.2 2.4 5 2 2.6-.5 5.4-4.6 5-7.2v-.2c-.4-2-2.2-3.2-4-3.8-3.1-1-7.6-.7-10.2 1.7l-.2.4c-2.5-.4-7-1.7-7.5-1.8-4.4-1.3-8.6-2.3-12.6-4.6l-.3-.2 5.5-4a142 142 0 0 1 27.3-14q6.3 3.9 13 7.3.2 1.5 1 3.7c1.4 3 3 5.4 6.4 6.2 7.9 2 10.6-8.2 3.4-11.4q-2.7-1.4-5.7-1.8-3.5-.2-4.5 1l-10.8-6a107 107 0 0 1 11.1-3.3c1 1.5 2.8 2 4.5 2.6 3.1 1 6.3 2.2 9.6 2.6q2 .3 4.6 0c6.2-1 13.2-5 9.4-12a10 10 0 0 0-8-4.8 19 19 0 0 0-9.2 1.8c-2.2 1-9.7 4-11 7.4q-3.4.8-7 1.9.6-3.9 2.5-7.2c3.9-.4 9.3-4.2 10.2-7 1-2.8-.7-6.2-3.5-7.3-3.3-1.3-6.9.4-8.8 3.2a10 10 0 0 0-1.6 9q.3 1.2 1.3 1.7a23 23 0 0 0-2.4 8.3 138 138 0 0 0-27.7 12.8c2-6.3 5.8-11.9 9.4-17 3.9-1 6.4-4.7 4.7-8.8-2-4.7-7.6-4-8.9 1.2a11 11 0 0 0 1 7l.4.6A56 56 0 0 0-9 544q-7.6 4.8-14.5 10.4-4.6 4.2-8.3 9.3c-4.6 5.4-9.3 11-11.7 17.7q-.4.9-.3 1.7z" style="clip-path:url(#b);fill:#d6c98a"/><path d="M986.3 248c-4 14.5 10.8 37.4 19.8 45.1 36 31.1 39-75-10-55.5-5.6 2.2-8.6 6-9.8 10.4" style="opacity:.55;clip-path:url(#b);fill:#739175"/><path d="m1005.7 354.4-.1-1v-.6a65 65 0 0 1-18.9-17.3 40 40 0 0 0 4.1-10.4c.2-1 1-3 1.1-4.3 1.4-.2 2.7-2.2 3.6-3.3s1.6-2.1 1.4-3.4c-.3-1.8-2.8-3.9-4.6-3.7h-.1c-1.3.2-2.2 1.4-2.6 2.7-.8 2-.6 5.2.9 7l.2.2c-.3 1.7-1.3 4.9-1.4 5.2-1 3-1.7 5.8-3.3 8.5l-.2.2-2.4-4q-5.2-9-8.5-19.1 2.8-4.3 5.1-8.8 1.1 0 2.5-.7 3.1-1 4.3-4.1c1.5-5.4-5.1-7.6-7.4-2.7q-1 1.8-1.3 3.8-.3 2.5.5 3.2l-4.3 7.3-1.8-7.8c1-.6 1.5-1.9 1.8-3q1.3-3.2 2-6.5.3-1.4 0-3.2c-.4-4.3-2.7-9.3-7.4-6.9a7 7 0 0 0-3.4 5.4q-.3 3.3 1 6.4c.5 1.5 2.3 6.9 4.5 7.9l1 4.8q-2.6-.5-4.6-2c-.2-2.6-2.6-6.5-4.3-7.2-1.8-.7-4 .4-4.9 2.2-1 2.3 0 4.8 1.9 6.2q2.6 2.2 5.8 1.4.8-.3 1.1-.9 2.6 1.5 5.4 2a99 99 0 0 0 7.6 19.4 41 41 0 0 1-10.8-7c-.5-2.7-3-4.5-5.7-3.4-3 1.2-2.8 5 .6 6q2.3.6 4.6-.4l.4-.3c3.5 2.8 7.4 5.8 12 7.1q3 5.6 6.5 10.4c1.6 2.3 3.7 4 5.7 6 3.5 3.3 7 6.7 11.4 8.6z" style="clip-path:url(#b);fill:#d6c98a"/><path d="M567.6 702.1v-1.6a65 65 0 0 1-15.4-20.4 40 40 0 0 0 5.9-9.5c.3-.9 1.5-2.7 1.8-4 1.3 0 3-1.7 4-2.6 1-.8 2-1.9 2-3.2 0-1.8-2-4.2-3.8-4.4h-.2q-1.9.2-3 2.2c-1 2-1.5 5-.3 7l.1.3c-.6 1.6-2 4.5-2.2 4.8-1.5 2.8-2.7 5.4-4.8 7.8l-.2.2-1.7-4.3q-3.5-9.8-5-20.4 3.4-3.7 6.6-7.7l2.5-.2c2.2-.5 4-1.3 5-3.4 2.4-5-3.7-8.3-6.8-4q-1.3 1.8-2 3.6-.7 2.3 0 3.2l-5.5 6.5q-.4-4-.4-8c1-.4 1.7-1.6 2.3-2.6q1.8-3 3-6.1.6-1.4.7-3.2c.3-4.3-1.2-9.5-6.2-8a7 7 0 0 0-4.3 4.6q-.8 3.2-.2 6.6c.3 1.6 1.2 7.1 3.1 8.5l.2 4.9q-2.4-.9-4.2-2.7c.3-2.7-1.4-6.9-3-7.9s-4-.3-5.1 1.3c-1.4 2-.8 4.8.7 6.5a6 6 0 0 0 5.5 2.3q.9 0 1.3-.6 2.1 1.9 5 2.8.9 10.2 4 20.5a42 42 0 0 1-9.4-8.7c0-2.8-2.1-5-5-4.5-3.3.7-3.7 4.5-.5 6.2q2.1.9 4.6.3l.4-.2c3 3.4 6.3 7 10.6 9.1q2 6 4.6 11.3 2 3.7 4.6 7c2.8 3.8 5.7 7.7 9.7 10.4z" style="clip-path:url(#b);fill:#d6c98a"/><g style="clip-path:url(#b)"><path d="M737.1 612.1c-2.3-5.5-7.3-11.1-12.6-6-2.2 2-3 5.4-2.5 8.4q1 4.5 3.8 8.2c1.6 2.2 8 11.4 11.1 7.9 1.1-1.2 1.2-3 1.3-4.7.1-3.2.4-6.3 0-9.5q-.1-2-1.1-4.3m17.3 7.7c0-2.4-1-4.6-3-5.6-3.2-1.5-4.8-.4-5.4 1.5-1.8 3-.8 9.7-1 13v.7c.4.7 1.4.3 2-.1 3.7-2.6 7.4-4.2 7.4-9.5m-37.3 13.8c-.4 3.4 2 6.3 4.9 7.5q4.3 1.7 8.3-.5c4.5-2.8-3.8-11.6-7.6-12-2.7-.2-5.2 2.2-5.6 5m32.2 5q-1.4 3 0 6.8.6 1.6 1.9 2.5c3 1.8 4.5-2.7 5.1-4.8q1-2.2.7-4.6c-.8-5.6-5.9-4-7.7.1" style="fill:#d6c98a"/><path d="m820 699.5.6-1.5c-29.9-12-66.6-30.7-84.7-68.8l-1.5.7c18.4 38.6 55.4 57.5 85.6 69.6" style="fill:#d6c98a"/><path d="M743.5 643.3q2.4-8 4-16.2l-1.6-.4q-1.5 8.2-4 16.1zm-3.6-4.3-.3-1.6c-3.4.6-7 .2-10-1.1l-.7 1.5a18 18 0 0 0 11 1.2m14.4 17.2-.8-8.9-1.7.1.8 8.9zm8.5 10-.1-1.7c-8.3.9-16.6-3-23.3-6.2l-.7 1.5a47 47 0 0 0 24.1 6.4" style="fill:#d6c98a"/><path d="M734.1 662.8c-4.9 0-6.7-5-3-7.9 3.6-2.9 8.1-.6 9.5 3.9v.8q-.1.5-.5.8a10 10 0 0 1-6 2.4m36.4-7.8q.6 2.5 3.3 4.1 1 .7 2.3.5c2.7-.4 1.4-3.8.7-5.4q-.6-1.8-1.8-3c-3.2-3-5.4.4-4.5 3.9" style="fill:#d6c98a"/><path d="m783.2 672.4 1-1.3a27 27 0 0 1-8.9-15.2l-1.6.4q2.6 10.3 9.5 16.1M772.4 622c-1.3-4.3-1-10.2 4.6-9.8 2.3.2 4.4 1.8 5.6 3.8q1.7 3.2 1.7 6.8c0 2.1.7 10.7-2.9 10.2q-1.7-.5-3-2.2-2.5-2.6-4.6-5.6-.8-1.3-1.4-3.1M766 635c-1.8-2-2.5-4.4 0-6.3 1.2-.8 3.5-.9 4.7-.1q1 .9 1.8 2.1l1.5 2.1c.4.7 1 1.4 1 2.3.7 5-7.5 1.3-9-.2m28.7-9.9c2 1.8 2 4.7.8 6.9a7 7 0 0 1-5.2 3.8c-4 .5-3.4-8.8-1.3-10.8 1.5-1.5 4.2-1.4 5.7 0" style="fill:#d6c98a"/><path d="M783.3 680c3.2-16.6 3-34-.5-48.7l-1.6.4a119 119 0 0 1 .5 48z" style="fill:#d6c98a"/><path d="m783.6 644 .9-1.4q-5.3-3.6-10.1-7.7l-1 1.3q4.9 4.2 10.2 7.8m.3-4.3q3.9-2.3 6-6.3l-1.5-.7q-1.7 3.4-5.3 5.5zm1.4 26.6c5.6-3.8 8.5-10.8 10.8-16.5l-1.5-.7c-2.2 5.5-5 12.3-10.2 15.8z" style="fill:#d6c98a"/><path d="M800.2 649.5c2.8-2.5 1.4-6.7-2.2-6.8s-5 3.8-3.6 7.4q0 .3.4.6l.7.2q2.6.1 4.7-1.4" style="fill:#d6c98a"/></g><g style="clip-path:url(#b)"><path d="M806.3 652.7a44 44 0 0 0 19.4 16.6c6.4 2.6 15.4 4.4 22.1 2q2.3-1 4-2.2c1.7 15.5 9.4 29.8 17 43.6 5.4 10 11 20.2 14.2 30.8l1-.4q-4.5 14.4-8.3 29l2.2.6q6.3-24.3 14.7-48.2c5.6-4.3 12-7.5 18.2-10.6q8.4-4 16.3-9.1c10.2-7.1 18.1-17 25.8-26.4l2.9-3.5a14 14 0 0 0 3.6 2c16.2 5.8 34 11 49.3 3.1 3.2-1.6 6.5-4.8 6-9a11 11 0 0 0-2.5-4.8 53 53 0 0 0-38-18.5 21 21 0 0 0-.2-4.3 21 21 0 0 0-8.3-14.7q12.4-1.7 24.9-.2c4.3 11.3 33 21.3 44.3 13.6q2.7-2.1 4.2-5.2 3-5.5 4.6-11.4c1.5-5 1.8-11.2-2.2-14.3-2.6-2-6-2-9.3-1.8-12.4.6-25.4 1.3-36.1 7.8-4.5 2.8-6.2 5.8-6 8.9-9.2-1.1-18.5-.5-27.6.7q-2.7-1.5-5.9-2c-6.8-1.2-14.5.3-18.7 5.9q-2 .6-3.8 1.7c2-6.4 4.6-15.6 7-25.6l.2.2q12.3-7.3 21.7-18.3 3 1.5 7 2.4c24.6 5.6 66.4-14.4 70.5-41.2 1.5-9.7-2.6-20.6-11-25.2-7.6-4-16.7-2.6-25-.6q-10.6 2.5-20.5 7.3l1-5.1c2.3-15.8 2-32.1-.9-47.9-9.7-1.8-19.3 5.3-24.2 14-4.8 8.9-6.3 19.2-8.6 29s-18.4 43-7.8 47.4q1.2.5 2.6.5c-2.2 22-11.3 53.1-15.2 65.8a63 63 0 0 0-9 14.7l-.5.9-5 10.1a98 98 0 0 0-5.5-10.4q-2.8-4.6-5-9.4l-.9-2a11 11 0 0 0-2.3-8.8l-.9-.9-2-8.6-7-30.4 1.3-1c6.7-6.7 19.4-16.7 19.2-27a66 66 0 0 0-12.9-32.9c-1.6-2.3-3.6-4.6-6.3-5.4-4.7-1.3-9 2.3-12.6 5.7-4.6 4.4-9.5 9.4-10.2 16a29 29 0 0 0 3.9 15l12 26.1c.8 1.6 2 3.4 3.4 3.9l7 30.5 1.5 6.5a17 17 0 0 0-8-.7 23 23 0 0 0-17.7 11c-3.1 5.9-2.7 16.5 2.8 21.4a23 23 0 0 0-3.6 8.6l-.1.4q-3.5 13.3-10.4 26.6c-4.2-9-7.5-18.2-8.3-27.8 4-4.8 3.9-12 3.4-19.2a55 55 0 0 0-1.9-13.2 24 24 0 0 0-22-16c-10.8-.4-23.8 6-28.6 15.5a18 18 0 0 0 1.6 18.4M941.9 604c2.9-11.7 5.5-24.3 6.5-34.7l-.5-.1q3-.6 6.6-2.6c-2.5 8.3-1.3 16.2 6.5 21q-8.3 9.7-19.1 16.4m-4.4 88.9q.4-14.3 4-28.1c1.5.6 3.2.4 4.9.6q3.2.2 6.3.1-1.2 4.5 1.4 8l-2.9 3.5q-6.4 8.2-13.7 15.9m-43.6 28a629 629 0 0 1 29.5-69l.4-1c2.6-5.2 5.5-11 9.6-15q1-1.2 2.6-1.9c-3.6 7.5-2.8 17 .7 24.4.7 1.4 1.6 3.6 2.9 5a120 120 0 0 0-4.4 31.7q-4.4 4.3-9.4 7.9a128 128 0 0 1-16 9q-8.1 3.8-15.9 8.9m-30.6-23.2q7.7-14.3 11.4-28.6v-.4c.8-2.8 1.4-5.4 3.3-7.9l1 .5c7.7 3.4 16.5-6 20.9-11.7q2.6-3.1 4.2-7 2.2 4.7 4.9 9c2.2 3.9 4.6 7.9 6.2 12a645 645 0 0 0-24.4 59.5l-.2.1h.1q-3.1 9-6 18.1c-3.4-10.2-8.8-20-14-29.6z" style="fill:#fff"/><path d="M1040.5 549.9c1.5-9.7-2.6-20.6-11-25.2-7.6-4-16.7-2.6-25-.6-7.5 2-15 4.3-21.8 8-19 10.4-48 50.9-12.7 59 24.5 5.6 66.4-14.4 70.5-41.2" style="fill:#cad6c7"/><path d="M978.4 545.1c4-5.3 5.6-12.1 6.5-18.8 2.4-15.8 2.1-32.1-.8-47.9-9.7-1.8-19.3 5.3-24.2 14-4.8 8.9-6.3 19.2-8.6 29.1-2.2 9.7-18.4 42.9-7.8 47.3 9.3 4 30.4-17.5 35-23.7" style="opacity:.55;fill:#739175"/><path d="M875.7 772a623 623 0 0 1 15-48.8v-.2a632 632 0 0 1 24.5-59.4c-1.6-4.2-4-8.2-6.2-12q-2.8-4.6-5.2-9.6c-3-6.7-4.7-13.9-6.2-20.8l-8.3-36.5 2.2-.5 8.2 36.5a105 105 0 0 0 6.1 20.3q2.3 4.8 5.1 9.4 3.1 5 5.5 10.4l5-10.1.4-1c2.5-4.9 5.3-10.5 9.1-14.6 4-12.8 13.1-44.2 15.2-66.2l2.3.3c-1 10.4-3.6 23-6.5 34.7a83 83 0 0 0 21.6-19.4l1.8 1.4a86 86 0 0 1-24 21l-.1-.1c-2.5 10-5.2 19.2-7.1 25.6 3.5-2.2 8-2.7 12.5-3.3l4-.5c14.3-2.4 29.4-4.5 44.2-1.8l-.4 2.2a129 129 0 0 0-43.4 1.8l-4.1.6c-5.1.6-10.4 1.3-13.5 4.4-4 4-7 9.8-9.6 15l-.4 1a645 645 0 0 0-29.5 69q7.8-5.1 16-9a128 128 0 0 0 16-9 77 77 0 0 0 9.3-7.8c0-13 2.3-26.5 6.6-39l2.1.8c-4 11.5-6.2 23.9-6.4 36q7.3-7.6 13.7-15.9l3-3.7 1.8 1.5-3 3.7a133 133 0 0 1-26 26.4c-5 3.5-10.7 6.4-16.2 9.1a104 104 0 0 0-18.2 10.6q-8.4 24-14.7 48.2z" style="fill:#739175"/><path d="M894.1 589.2c6.7-6.6 19.4-16.6 19.2-27a66 66 0 0 0-12.9-32.8c-1.6-2.3-3.6-4.6-6.3-5.4-4.7-1.3-9 2.3-12.6 5.7-4.6 4.4-9.5 9.4-10.2 16a29 29 0 0 0 3.9 15l12 26.1c1 2 2.5 4.3 4.6 4q1.5-.5 2.3-1.6M1035 642c1.8-1.2 3-3.2 4.1-5.1q3-5.4 4.6-11.4c1.5-5 1.8-11.2-2.2-14.3-2.6-2-6-2-9.3-1.8-12.4.6-25.4 1.3-36.1 7.8-22.5 13.8 23.6 35.3 38.8 24.9m-60.7 3.9-.2-2.6c-.9-9.4-8.2-17-17.4-18.6-6.8-1.1-14.5.3-18.7 5.9-5.7 7.7-5.3 19.1-1.2 27.6.8 1.8 2.1 4.7 3.8 5.9 1.8 1.2 3.8.9 5.9 1a43 43 0 0 0 17.1-1.7c4-1.2 5.6-4 7.7-7.5a21 21 0 0 0 2.7-5.9q.5-2 .3-4.1" style="fill:#cad6c7"/><path d="M1012.2 666.2c-9.5-12.3-33.4-23.1-46.7-16.5-8.2 4.1-21.4 21.6-6 27.1 16.1 5.9 34 11.2 49.2 3.2 3.2-1.6 6.5-4.8 6-9q-.6-2.7-2.5-4.8" style="opacity:.55;fill:#739175"/><path d="m883 743.5 2.1-.7c-3.3-10.8-9-21.2-14.4-31.2-7.7-14.1-15.7-28.8-17-44.6l-2.2.2c1.3 16.3 9.4 31.2 17.3 45.5 5.4 10 11 20.2 14.2 30.8" style="fill:#739175"/><path d="M862.8 698.6q8.1-14.8 11.9-29.6v-.4c1.1-4 2-7.9 6.9-11.2l-1.3-2c-5.5 3.9-6.7 8.5-7.7 12.6l-.1.4q-3.7 14.5-11.7 29z" style="fill:#739175"/><path d="M804.7 634.3c4.8-9.5 17.8-16 28.7-15.5 9.4.3 19 6.5 22 16a55 55 0 0 1 1.8 13.2c.6 9.7.8 19.4-9.4 23.2-6.7 2.5-15.7.7-22.1-2a44 44 0 0 1-19.4-16.5c-4.4-6.6-4.3-13-1.6-18.4" style="opacity:.55;fill:#739175"/><path d="M899.9 649.5a25 25 0 0 0 5-9.3c.7-3.4.2-7.4-2.2-10-2.8-3.2-7.5-3.7-11.7-3.2a23 23 0 0 0-17.6 11c-3.6 6.8-2.5 19.7 5.5 23.2 7.8 3.4 16.6-6 21-11.7" style="fill:#cad6c7"/></g><g style="clip-path:url(#b)"><path d="M28 245.1a39 39 0 0 0-19.5 11.1C4.5 260.7.3 267.7.4 274q0 2.2.6 4c-13.4-3.3-27.5-1-41.1 1-9.8 1.6-20 3.2-29.7 2.7v1q-10.5-8-21.4-15.5l-1.1 1.6q18 12.5 35.4 26.5a98 98 0 0 1 3.4 18.2 114 114 0 0 0 2.7 16.1c2.8 10.5 8.5 20 14 29.2l2.1 3.4q-1.3.8-2.6 2.4c-9.7 11.6-19.3 24.8-17.3 39.8.5 3 2.1 6.8 5.7 7.5q2.4.4 4.7-.5a47 47 0 0 0 26.6-26l3.6 1.2c5 1.3 10.4.2 14.6-2.6a92 92 0 0 1-7.2 20.7c-10.6.2-27.4 21-24.4 32.6.5 1.9 1.8 3.5 3.1 5q3.6 4 8 7.2c3.7 2.6 8.8 4.8 12.5 2.4 2.4-1.6 3.4-4.5 4.2-7.2 3.3-10.4 6.5-21.4 4.3-32.1Q-.5 406-4.5 405a99 99 0 0 0 7.6-23q2-1.8 3.4-4.3c3-5.3 4-12.1.7-17.2q0-2-.3-3.7a516 516 0 0 0 19 13.5h-.1a75 75 0 0 0 8.7 23.4q-2.1 2-4.1 5c-12 18.7-7.8 59.1 13.2 70.5 7.5 4.1 17.7 4 24-1.6 5.6-5 7.2-13 8-20.5.5-6.3.8-12.7 0-19l4 2.2a129 129 0 0 0 39.7 13.5c4.4-7.5 1.4-17.5-4.4-24.1s-14-11-21.5-15.8c-7.3-4.7-30-27.9-36.8-20.5q-.7 1-1.1 2c-17.5-8.2-40.5-25-49.9-32-2.3-4.4-6-8.3-9.4-11.8l-.6-.7-7-7q5.3-.6 10.3-1.5 4.6-1 9.3-1.5H10a10 10 0 0 0 8 .7l1-.5 7.8.8 27.1 3.3.5 1.4c3.5 7.5 8 21 16.6 23.8 9 3 22 1.7 31-.9 2.4-.7 4.9-1.6 6.3-3.6 2.5-3.5.8-8.2-1-12-2.3-5.2-5-10.7-10-13.2-4.2-2-9.1-1.7-13.7-1.3l-25.2 2.2c-1.5.2-3.3.6-4.2 1.7L27 329.9l-5.9-.7q2.2-2.8 3-6.4c1.4-6.2.4-13.1-3.9-17.9-3.9-4.3-12.8-7-18.5-4-1.7-2.6-4-4.1-6-5.5l-.3-.2q-10-6.7-19-16.5c8.7-.8 17.3-.8 25.5 1.4 2.8 4.8 8.8 6.7 14.9 8.5a50 50 0 0 0 11.5 2.4c8.6.3 16.6-5.8 19.7-13.4 3.6-8.9 2-21.6-4.4-28.4a15 15 0 0 0-15.6-4m.1 126.5A229 229 0 0 0 55 387.3l.2-.4q-.4 2.8.2 6.3c-6.2-4.6-13-6-19.3-1a73 73 0 0 1-7.9-20.6m-72-30q11.5 4.6 22 11.7c-1 1-1.4 2.5-2 3.9q-1.1 2.5-2 5.2-3.3-2.4-7-1.2l-2-3.5q-5-7.8-9-16m-10.3-44.2A552 552 0 0 1-6 342l.6.7c3.5 3.7 7.5 7.8 9.6 12.3q.6 1.4.8 2.7a26 26 0 0 0-20.3-6.6c-1.5.2-3.5.3-5 1q-11.7-8.4-25-13a68 68 0 0 1-3.7-10.2q-1.9-7.9-2.6-15.8c-.7-5.3-1.3-10.6-2.7-15.8m28.2-18.5q9.5 10.5 20.3 17.9l.3.2c2 1.4 4 2.7 5.5 5l-.7.6c-5 5.5 0 15.5 3.5 20.8q1.9 3.1 4.5 5.5-4.5.5-8.9 1.4-5.7 1.3-11.8 1.6A565 565 0 0 0-55.2 294v-.1l-13.2-10.4a153 153 0 0 0 28.6-2.7z" style="fill:#fff"/><path d="M43.6 469.1c7.5 4.1 17.7 4 24-1.6 5.6-5 7.2-13 8-20.5a82 82 0 0 0-.2-20.4c-3-18.8-27.8-54.8-45-28-12 18.7-7.8 59.1 13.2 70.5" style="fill:#cad6c7"/><path d="M65.9 419.2c3.2 4.9 8.4 8.2 13.6 11a131 131 0 0 0 39.8 13.5c4.4-7.5 1.4-17.5-4.4-24.1s-14-11-21.5-15.8c-7.3-4.7-30-27.9-36.8-20.5-6 6.6 5.5 30.3 9.3 36" style="opacity:.55;fill:#739175"/><path d="M-91.2 267.1a555 555 0 0 1 78 64.7c3.9 0 7.9-.8 11.7-1.5q4.7-1 9.5-1.4a86 86 0 0 1 19 1l32.5 4-.2 1.9-32.5-4a92 92 0 0 0-18.6-1q-4.6.5-9.3 1.5-5 1-10.3 1.4l7 7.1.6.7c3.4 3.5 7.1 7.4 9.4 11.8 9.4 7 32.7 24 50.2 32.2l-.9 1.8c-8.3-4-18-9.8-26.8-15.7a73 73 0 0 0 9.7 23.7l-1.7 1c-5-8-8.6-17-10.3-26l.2-.1a516 516 0 0 1-19-13.5A28 28 0 0 1 6 368l-.8 3.5a114 114 0 0 1-11.6 37l-1.8-1a111 111 0 0 0 11.4-36.3l.8-3.6c1-4.4 2-9 .3-12.5-2-4.5-6-8.6-9.6-12.3l-.6-.7a566 566 0 0 0-48.3-44.7c1.4 5.2 2 10.5 2.7 15.8q.7 7.9 2.6 15.8 1.5 5.2 3.7 10.1c10.8 3.9 21.3 9.8 30.3 17l-1.3 1.5a103 103 0 0 0-27.8-16q4.2 8.3 9 16.1l2.2 3.6-1.8 1-2.1-3.6a116 116 0 0 1-14.1-29.2 114 114 0 0 1-2.7-16.1c-.8-6-1.5-12.3-3.4-18.2a544 544 0 0 0-35.4-26.5z" style="fill:#739175"/><path d="M54.4 336.5c3.5 7.5 8 21 16.6 23.8 9 3 22 1.7 31-.9 2.4-.7 4.9-1.6 6.3-3.6 2.5-3.5.8-8.2-1-12-2.3-5.2-5-10.7-10-13.2-4.2-2-9.1-1.7-13.7-1.3l-25.2 2.2c-1.9.2-4.3.8-4.6 2.6q0 1.3.6 2.4M-31 437.2q1 2.8 3.1 5 3.6 4 8 7.2c3.7 2.6 8.8 4.8 12.5 2.4 2.4-1.6 3.4-4.5 4.2-7.2 3.3-10.4 6.5-21.4 4.3-32.1-4.8-22.7-36.1 9-32 24.7m14.7-51.3 2.2.6c8 2 16.5-1.8 20.5-8.9 3-5.3 4-12.1.7-17.2-4.7-7-14.3-10-22.4-9.2-1.8.2-4.6.4-6 1.5-1.6 1-2 2.8-2.7 4.5a38 38 0 0 0-3.6 14.6c-.2 3.6 1.6 5.8 3.9 8.6q1.7 2.4 4 4 1.6 1 3.4 1.5" style="fill:#cad6c7"/><path d="M-44.2 411.3c13-4.3 29-20.7 27.5-33.7-1-8-11.5-24.1-20.6-13.1-9.7 11.6-19.3 24.8-17.3 39.8.5 3 2.1 6.8 5.7 7.5q2.4.4 4.7-.5" style="opacity:.55;fill:#739175"/><path d="M-69.8 281.6v2c10 .4 20.1-1.2 30-2.7 14-2.2 28.5-4.4 41.9-.8l.5-1.9c-13.8-3.8-28.5-1.5-42.7.7-9.8 1.6-20 3.2-29.7 2.7" style="fill:#739175"/><path d="M-26.7 278.2q9.8 11 21 18.6l.3.2c3 2 5.9 4 7.2 9l2-.5c-1.6-5.7-5-8-8-10.1l-.4-.2q-10.9-7.4-20.6-18.3z" style="fill:#739175"/><path d="M43.6 249.2c6.5 6.8 8 19.5 4.4 28.4-3 7.6-11 13.7-19.7 13.4a49 49 0 0 1-11.5-2.4C8.6 286.2.5 283.5.4 273.9c0-6.2 4-13.2 8.1-17.7a37 37 0 0 1 19.5-11 15 15 0 0 1 15.6 4" style="opacity:.55;fill:#739175"/><path d="M2.9 323.4a22 22 0 0 0 6.2 6.8c2.6 1.7 6 2.4 9 1.3 3.4-1.5 5.2-5.2 6-8.8 1.4-6 .4-13-3.9-17.8-4.5-5-15.5-7.9-20.8-2.3-5 5.5 0 15.5 3.5 20.8" style="fill:#cad6c7"/></g><g style="clip-path:url(#b)"><path d="M315 742c4.7 6 10.9 10.9 18 13.2 5.7 1.9 13.7 2.8 19.3.2q2-.9 3.3-2.1c2.5 13.4 10.2 25.3 17.7 36.8a143 143 0 0 1 14.5 25.8l.8-.4q-3 12.9-5.3 25.7l2 .4q3.8-21.5 9.6-42.9a97 97 0 0 1 15-10.4q7.1-4 13.6-9c8.4-6.9 14.7-16 20.7-24.7l2.3-3.2q1.3.9 3.3 1.4c14.4 4 30.3 7.4 43-.5 2.7-1.6 5.4-4.6 4.6-8.2a9 9 0 0 0-2.4-4 46 46 0 0 0-34.3-13.6 17 17 0 0 0-.5-3.7c-.9-5.2-4-9.6-8.2-12.3a91 91 0 0 1 21.6-1.8c4.5 9.5 30.1 16.4 39.5 8.8q2.2-2 3.3-4.8 2.1-4.9 3.3-10.2c.9-4.4.7-9.8-3-12.3-2.3-1.5-5.4-1.2-8.1-.9-10.8 1.3-22 2.8-31 9.2q-5.3 4.1-4.6 8.1c-8-.3-16 .8-23.9 2.4a18 18 0 0 0-5.3-1.3c-6-.5-12.6 1.3-15.8 6.4a15 15 0 0 0-3.2 1.7c1.2-5.6 2.9-13.8 4.4-22.7l.1.2a75 75 0 0 0 17.7-17.4q2.7 1.1 6.3 1.6c21.7 3.3 56.7-16.9 58.5-40.5.6-8.5-3.6-17.7-11.3-21.1-6.8-3.1-14.7-1.2-21.7 1.1q-9.2 2.9-17.3 7.7l.4-4.5q1.5-21.1-3.9-41.6c-8.6-1-16.4 5.9-20 13.8-3.8 8-4.3 17.1-5.7 25.9-1.2 8.5-13.1 38.5-3.6 41.7q1 .3 2.3.2a350 350 0 0 1-8.8 58.2c-3 3.9-5.1 8.9-7 13.4l-.3.8-3.6 9.2a85 85 0 0 0-5.5-8.8q-2.6-3.7-5-7.8l-.9-1.6c.2-2.8-.6-5.7-2.6-7.6l-.8-.7-2.4-7.4-8-26q.6-.4 1-1c5.4-6.1 15.8-15.7 14.9-24.6a58 58 0 0 0-13.4-27.7c-1.6-2-3.5-3.8-5.9-4.3-4-.9-7.7 2.6-10.5 5.8-3.7 4.1-7.6 8.8-7.8 14.5-.2 4.6 2.1 8.8 4.3 12.8l12.3 22c.8 1.3 1.9 2.8 3.2 3l8 26.1 1.8 5.6q-3.4-.8-7 0a20 20 0 0 0-14.6 10.7c-2.4 5.3-1.3 14.5 3.8 18.4a20 20 0 0 0-2.5 7.7v.3q-2.2 12-7.3 24a71 71 0 0 1-9.1-23.7c3.2-4.5 2.5-10.7 1.7-17a48 48 0 0 0-2.6-11.3c-3.2-8-12-12.8-20.1-12.5-9.5.4-20.4 6.9-24 15.5-2 4.9-1.6 10.4 2.7 15.9m114.7-51.4c1.7-10.4 3-21.5 3.3-30.7h-.5q2.7-.7 5.6-2.8c-1.6 7.5 0 14.3 7 18q-6.6 9-15.4 15.5m2 77.5a103 103 0 0 1 1.7-24.7q2 .4 4.3.2 2.8 0 5.5-.3-.7 4 1.7 6.9l-2.3 3.2q-5.1 7.6-10.8 14.7m-36 27.3a549 549 0 0 1 21-62l.4-.8c1.9-4.7 4-10 7.3-13.8q.9-1 2.1-1.7c-2.6 6.7-1.3 15 2.2 21 .8 1.3 1.7 3 2.9 4.2q-2.7 14-1.7 28a67 67 0 0 1-21 16.2q-6.8 4-13.1 8.9m-28.1-18.1q5.7-13 8-25.7v-.3a18 18 0 0 1 2.3-7q.4 0 .8.3c7 2.4 14-6.3 17.5-11.6q2-3 3.2-6.3 2.2 3.8 4.8 7.5a71 71 0 0 1 6.2 10 564 564 0 0 0-17.3 53.4v.1q-2.1 8-4 16.1c-3.7-8.7-9-16.9-14.2-24.8q-3.8-5.8-7.3-11.7" style="fill:#fff"/><path d="M511.8 637c.6-8.5-3.6-17.7-11.3-21.1-6.8-3.1-14.7-1.2-21.7 1.1a80 80 0 0 0-18.5 8.4c-15.8 10.3-38.3 47.5-7 52.1 21.7 3.3 56.7-16.9 58.5-40.5" style="fill:#cad6c7"/><path d="M457.5 637c3-4.9 4-11 4.4-16.8q1.5-21.1-3.9-41.6c-8.6-1-16.4 5.9-20 13.8-3.8 8-4.3 17.1-5.7 25.9-1.2 8.5-13 38.5-3.6 41.7 8.3 2.7 25.2-17.3 28.8-23" style="opacity:.55;fill:#739175"/><path d="M383.3 841.2q4-21.8 9.8-43.5v-.1a551 551 0 0 1 17.3-53.4 71 71 0 0 0-6.2-10 93 93 0 0 1-5.1-8 93 93 0 0 1-6.8-17.7l-9.7-31 2-.7L394 708a92 92 0 0 0 6.7 17.3q2.3 4 5 7.8 3 4.2 5.5 8.8l3.6-9.2.4-.8c1.8-4.5 3.8-9.5 6.9-13.4 2.6-11.3 8.4-39.3 8.8-58.5h2c-.2 9.2-1.6 20.3-3.3 30.7q10.3-7.6 17.5-18.4l1.6 1.1a75 75 0 0 1-19.5 20v-.2c-1.6 9-3.3 17-4.5 22.8 2.9-2.1 6.8-3 10.6-3.7l3.5-.8a112 112 0 0 1 38.3-4.5l-.2 2a110 110 0 0 0-37.6 4.5l-3.6.7c-4.4 1-9 1.8-11.4 4.7a48 48 0 0 0-7.3 13.8l-.4.8a562 562 0 0 0-21 62q6.4-5 13.3-8.9t13.3-8.8q4.1-3.4 7.6-7.5c-.8-11.3.2-23.2 3.2-34.3l1.9.5a103 103 0 0 0-3.2 31.7q5.8-7 10.8-14.7l2.4-3.4 1.6 1.2-2.4 3.4c-6 8.8-12.3 17.8-20.7 24.7-4.2 3.4-9 6.2-13.5 9a97 97 0 0 0-15.1 10.4q-5.7 21.4-9.7 42.9z" style="fill:#739175"/><path d="M387.1 681c5.4-6.2 15.8-15.8 14.9-24.7a58 58 0 0 0-13.4-27.7c-1.6-2-3.5-3.8-5.9-4.3-4-.8-7.7 2.6-10.5 5.8-3.7 4.1-7.6 8.8-7.8 14.5-.2 4.6 2.1 8.8 4.3 12.8l12.3 22c1 1.6 2.4 3.5 4.2 3q1.1-.4 2-1.4m125.9 36.5q2.2-2 3.3-4.8 2.1-4.9 3.3-10.2c.9-4.4.7-9.8-3-12.3-2.3-1.5-5.4-1.2-8.1-.9-10.8 1.3-22 2.8-31 9.2-18.5 13.5 23 29 35.5 19m-52.5 7.5-.4-2.2a18.4 18.4 0 0 0-16.4-15c-6-.6-12.6 1.2-15.8 6.3-4.5 7.1-3.3 17 .7 24 1 1.6 2.3 4 3.8 5 1.6.9 3.3.5 5.2.5q7.6.1 14.7-2.6c3.3-1.4 4.6-4 6.2-7q1.4-2.6 2-5.4.2-1.8 0-3.6" style="fill:#cad6c7"/><path d="M495 740c-9.2-10-30.6-17.9-41.7-11.2-6.9 4.2-17.3 20.2-3.5 24 14.4 4 30.3 7.4 43-.5 2.7-1.6 5.4-4.6 4.6-8.2a9 9 0 0 0-2.4-4" style="opacity:.55;fill:#739175"/><path d="m387.8 815.9 1.8-.8a153 153 0 0 0-14.7-26.1c-7.6-11.8-15.5-24-17.6-37.7l-2 .3c2.2 14.1 10.2 26.5 18 38.5a143 143 0 0 1 14.5 25.8" style="fill:#739175"/><path d="M367.2 778.2q6-13.4 8.3-26.6l.1-.3c.6-3.6 1.2-7 5.2-10.2l-1.3-1.6c-4.5 3.7-5.2 7.8-5.8 11.4v.4q-2.4 12.9-8.3 26z" style="fill:#739175"/><path d="M312.4 726.2c3.5-8.6 14.4-15.1 23.9-15.5a21 21 0 0 1 20.1 12.5 48 48 0 0 1 2.6 11.4c1.1 8.3 2 16.8-6.7 20.8-5.6 2.6-13.6 1.7-19.4-.2-7-2.3-13.2-7.2-17.9-13.1-4.3-5.5-4.6-11-2.6-16" style="opacity:.55;fill:#739175"/><path d="M396.2 733c1.7-2.5 3.2-5.3 3.6-8.4.5-3-.2-6.5-2.5-8.6-2.7-2.5-6.8-2.7-10.3-2a20 20 0 0 0-14.6 10.8c-2.7 6.1-.9 17.3 6.3 19.8 7 2.4 14-6.3 17.5-11.6" style="fill:#cad6c7"/></g><path d="M684.6 672q-1.3-10.6 1-21c.5-2.6 1.4-5.4 3.7-6.6 2-1.1 4.5-.6 6.7 0l15.9 4c8.8 2.3 19.4 6.5 20.4 15.8.4 4-1.3 7.9-2.9 11.6-4.8 11.1-12.2 24-24.1 24-10-.1-17.4-9.7-21.5-19z" style="opacity:.5;clip-path:url(#b);fill:#cad6c7"/><path d="m-19.2 160 1.5.4.7.1a98 98 0 0 0 22.3 31.1 56 56 0 0 1 15.6-4.8c1.3 0 4.3-1.1 6.3-1 .4-2 3.5-3.8 5.2-5 1.5-1 3.4-2.1 5.2-1.6 2.5.6 5 4.8 4.6 7.5v.1c-.6 2-2.4 3.1-4.3 3.6-3.1.9-7.6.2-10-2.3l-.3-.4c-2.4.3-7.1 1.3-7.5 1.4-4.5 1-8.7 1.7-12.8 3.9l-.4.1q2.6 2.3 5.3 4.3c8.2 6 17.1 11.5 26.4 15.6q6.6-3.6 13.5-6.5.2-1.6 1.2-3.7c1.5-3 3.3-5.2 6.7-5.9 8-1.6 10.1 8.8 2.7 11.7Q60 209.8 57 210q-3.5 0-4.5-1.2a166 166 0 0 0-11.1 5.4q5.4 2.3 11 3.9c1-1.5 2.8-2 4.5-2.4 3.2-.8 6.4-1.8 9.7-2q2.2-.2 4.6.3c6.1 1.3 13 5.6 8.8 12.4a10 10 0 0 1-8.2 4.4 19 19 0 0 1-9.2-2.4c-2-1-9.5-4.5-10.6-8l-6.8-2.2q.4 3.8 2.1 7.2c3.8.7 9 4.8 9.8 7.6.8 2.9-1.1 6.1-4 7.1-3.3 1.2-6.8-.7-8.6-3.7q-2.7-4.4-1-9 .4-1.3 1.3-1.7a23 23 0 0 1-2-8.4Q29.2 211.8 16 203a65 65 0 0 0 8.4 17.4c3.8 1.2 6.2 5.1 4.2 9.1-2.3 4.6-7.8 3.6-8.8-1.6a11 11 0 0 1 1.4-7l.4-.6a56 56 0 0 1-8.4-19.3q-7.4-5.3-14-11.3c-3-2.8-5.2-6.3-7.7-9.6a62 62 0 0 1-10.7-18.4l-.2-1.7z" style="clip-path:url(#b);fill:#d6c98a"/><g style="clip-path:url(#b)"><path d="M-83.2 857.5a472 472 0 0 1 149.8-190q1.1 1 2.7 1.6A469 469 0 0 0-80.5 858.6a1.5 1.5 0 0 1-2 .8 1.4 1.4 0 0 1-.7-1.9" style="fill:#739175"/><path d="M12.8 682q1.3.9 2.8 1.2c-11.2 14.3-17.2 23-14 47l-3 .4c-3.3-24.8 3.2-34.4 14.2-48.6m80.8 9q.7-1 1-2.3c11.6 9.3 18.6 14.3 39 11.7l.2 2.4c-21 2.8-28.8-2.6-40.2-11.8" style="fill:#739175"/><path d="M39.8 696.5c20.6 0 46 0 76.3-20.1q.7 1.3 2 2.2c-31.2 20.8-57.3 20.9-78.3 20.9h-7.9v-3zm-83.9 87.7c13.6 6 30.3-1.4 45-8l2.7-1.1.2.2 2.3 1.9-4 1.8c-11.8 5.2-24.9 11-37 10.4q-5.4-.3-10.5-2.5z" style="fill:#739175"/><path d="M96.8 669.1a41 41 0 0 0 5.6-2.6q4.5-2.4 7.5-6.4a26 26 0 0 0 .9-22.4 26 26 0 0 0-17.6-12.3c-5.2-1-11.2 0-15.2 3.8-2.1 2-3.5 4.8-5.3 7.2-2.8 4.1-6.5 7.6-9 12-3.5 6.1-2.3 16.8 4.5 20.5q2 1 4.2 1.2a62 62 0 0 0 14.2 1.3 35 35 0 0 0 10.2-2.3m54.8 45.5q2.3-.8 4.3-2 3.5-1.8 5.7-4.9c3-4.3 3-12.7.7-17.2-2.6-5-8-8.3-13.4-9.4-4-.8-8.7 0-11.7 2.9q-2.2 2.6-4 5.6c-2.2 3.1-5 5.8-7 9-2.6 4.8-1.8 13 3.5 15.9q1.5.7 3.2.9a48 48 0 0 0 10.9 1q4-.3 7.8-1.8" style="fill:#cad6c7"/><path d="m-49.3 688.8 1.8-.3c-2 18.2 2.2 36.8 7 54.2 2.4 8.5 5.5 18.3 8.3 26.8l-.4 1-1.4 1c-3-9-6.2-19.1-8.7-28.2-4.9-17.4-9-36-7.1-54.5z" style="fill:#739175"/><path d="M-38.1 720.3a47 47 0 0 0 11.6-18 75 75 0 0 0 2.7-19.5h.2q1.1 0 2.2-.5c-.2 7-.8 14-2.9 20.6a49 49 0 0 1-12 19c-2.5 2.6-5 6-7.2 9.1l-1.8-1.9q3.5-4.7 7.2-8.8" style="fill:#739175"/><path d="M-11 665.5c1.9-7.3 1.6-15 .5-22.3-.3-2.5-.8-5-2.3-7-3-4.2-8.8-4.7-14-4.8-4.8-.1-10.3 0-13.9 3.3q-2.6 2.7-3.8 6.3a33 33 0 0 0-3 13.5c.4 10.6 9 18.7 17 25.6 10 8.6 17.3-5.5 19.5-14.6" style="fill:#cad6c7"/><path d="M-37.3 680.3c3.4-5.4 5-12.3 4-17.2-2-8-10-17.2-19.6-15.3a13 13 0 0 0-8 6 30 30 0 0 0-3.6 9.4c-2.5 10.7 2.8 28 16.7 25.5 4.2-.8 7.9-4.2 10.5-8.4m74.5-6.8q2.9-3.9 4.6-8.9c1.4-3.6 2.8-7.3 2.4-11.1-.8-6.8-7.1-11.4-13.3-14.4a22 22 0 0 0-8.6-2.5A17 17 0 0 0 8.4 643a21 21 0 0 0-3.2 10.7c-1.5 17.9 3.1 39.2 25.4 25.6q4.1-2.6 6.6-6m122.3-17.1a25 25 0 0 0-12.8-9.6c-8.2-2.7-16.8.8-22.5 7.3-2.8 3.2-11.6 20.4-7.6 23.8 7.5 6.5 18.3 11.2 28.3 8.2 9.6-2.8 18.4-11 17.6-21.5q-.5-4.5-3-8.2" style="opacity:.55;fill:#739175"/><path d="M12.3 780.8c6.7 1.4 13.7 4.4 20.8 3.6 5.8-.5 11.7-3.8 14.2-9 2.4-5 1.7-10.7.4-16q-1-4.2-3.1-7.9c-4-6-11.8-8.4-19-8.1A32 32 0 0 0 2 754c-7.8 9.2-.7 24.4 10.3 26.8" style="fill:#cad6c7"/></g><g style="clip-path:url(#b)"><path d="M273.3 653.7q2.7 4.5 5 9.2 6.7 18.6 12.5 37.5a47 47 0 0 0-10.2-6.5l-1.3 2.7q7.3 3.4 13.3 9.3 5.9 18.6 12.4 37v.3q6.8 18.8 15.4 36.3a163 163 0 0 1-24.2-22.7l-2.2 1.9a159 159 0 0 0 15 15.2q-7.2 1.2-14.4 1.9l.2 2.9q8.6-.7 17-2.3 5.6 4.7 11.6 9c10.3 19.2 23 36.6 40.2 50.5l-1.3-4.8c-26.4-22.7-41.7-53.6-54-87.7l4.3-6.8c9.6-.8 18.6-6 26-15.2l-2.3-1.9a36 36 0 0 1-21.9 13.9 134 134 0 0 0 13-32.2l-3-1q-5.3 21.4-17.4 39.7-6.5-18.7-12.6-38.1-6.3-20-13.3-40-2.6-5.2-5.6-10z" style="fill:#739175"/><path d="M263.2 676a30 30 0 0 1-13.5-17.8q-1.3-6.4.2-12.7a25 25 0 0 1 8.2-15c6.5-5 16.3-4.1 23 .7a31 31 0 0 1 11.5 21c1.4 9.2-.1 18.6-1.6 27.8q-.2 2.9-2 5c-4.4 4.1-22-6.4-25.8-9m57.4 22a28 28 0 0 1-10-19.4 32 32 0 0 1 2.6-12.1c3.4-9.4 7-23.1 19.6-20.1a20 20 0 0 1 11.2 8.1 40 40 0 0 1 .4 41c-6.8 10-16.6 8.6-23.8 2.5m-51.4 63.2q-3.7 0-7-1.5a14 14 0 0 1-5.7-5.5 19.5 19.5 0 0 1 3-23c6-5.8 16-7 23-2.8 6.1 3.6 19.1 20 14.4 27.4-3.9 6.3-21.5 5.6-27.7 5.4" style="fill:#cad6c7"/><path d="m334.7 700.8.8-3.7q.5-2.6 1.9-4.7c4.4-5.8 15.6-2.9 19.7 2 5 5.6 1.8 12.7-2 18.4-5.4 8-19.2 15.8-20.8.7q-.5-6.4.4-12.7M247 687.7q.1-3 2.8-6c8.2-8.8 21.7.3 28.2 6.6 1.2 1.2 2.4 2.5 2.6 4.2.4 3-2 5.3-4.3 7.2-3 2.4-6.3 5-10.2 5-3 0-5.9-1.8-8.5-3.5-4.7-3-10.7-8-10.5-13.5M261 771c-.2-10.6 13.4-19.3 22.2-13 3 2.2 5.3 5.3 7.5 8.4 1.9 2.6 3.8 5.3 4.7 8.3 4.7 15.5-34 17.6-34.4-3.8" style="opacity:.55;fill:#739175"/></g><g style="clip-path:url(#b)"><path d="M755.5 80.5q3.6-5 7.8-10c11.4-10.5 23.5-20.9 35.3-31a56 56 0 0 0-2.3 14.3h3.5q.2-9.5 4-18.8 17.8-15 35-30.9l.1-.2q17.6-16 32.7-33.6a194 194 0 0 1-13.7 37l3.2 1.6q5.4-11 9.7-23.5A187 187 0 0 1 879.5.3l3.1-1.6Q878-10.4 872.2-19q2.6-8.4 4.5-17a193 193 0 0 0 36.8-67.5l-4.8 3.7c-12.6 39.5-39.4 70.6-71 100.1q-4.7-1-9.5-1.6a46 46 0 0 0-28.8-21.5l-1 3.4a43 43 0 0 1 25.4 17.6 160 160 0 0 0-41.3.8q.3 1.7.3 3.5 25.8-4 51.7.8-17.5 15.8-36 31.6a1334 1334 0 0 0-37.7 33.2q-4.5 5.1-8.4 10.8 1.7.5 3.1 1.5" style="fill:#739175"/><path d="M774.8 92.7a42 42 0 0 1-17.8 25.2c-5 3-10.9 4.5-16.7 5.2-8 .9-16.7.2-23.3-4.5-9.2-6.5-12.2-19.7-8.7-30.4A43 43 0 0 1 730.9 64c11.6-5.8 24.6-7.8 37.4-9.7 2.5-.3 5.2-.7 7.3.5 7.4 4.1 1 31.6-.8 37.8M782.1 8a33 33 0 0 1-16.6 20c-4.5 2-9.5 2.5-14.5 2.8-11.9.5-28.5 3-31.2-12.3-.9-5.5.9-11.2 3.7-16a48 48 0 0 1 45-19.6c14 2.9 17 14.3 13.6 25M875.3 35c1 2.7 2 5.5 1.8 8.4q-.5 4.8-3.5 8.8c-6 7.9-17.5 11-26.7 7.2a23 23 0 0 1-13.7-23.9c1-8.3 13-30.2 23.4-28.5 8.6 1.4 16.2 21 18.7 28" style="fill:#cad6c7"/><path d="m778.6-8.9-4.4 1q-3 .6-6 0c-8.5-2-10.4-15.7-7-22.5 3.9-8 13-8 21.2-6.3 11.3 2.2 26.3 13.7 10.4 22.3a59 59 0 0 1-14.2 5.5M805 93.4q-3.1 1.5-7.8-.2c-13.5-4.9-9.7-24-5.9-34q1-3 3.4-4.9c3-1.8 6.8-.1 9.9 1.5 4 2.1 8.4 4.6 10.2 8.8 1.4 3.4.8 7.3.1 11-1.1 6.6-3.8 15.4-9.9 17.8m84.9-54c-11.5 5.1-27.3-5.7-24.5-18.4A41 41 0 0 1 871 9c2-3.4 4-6.7 7-9.1 14.8-12.3 35.2 29.1 12 39.5" style="opacity:.55;fill:#739175"/></g></svg>