<svg xmlns="http://www.w3.org/2000/svg" viewBox="0 0 5000 3000"><path d="M0 0h5000v3000H0z" style="fill:#b1d4f3"/><path d="M5000 97.8v-2h-97V0h-2v95.8h-96V0h-2v95.8h-96.1V0h-2v95.8h-96V0h-2v95.8h-96.1V0h-2v95.8h-96V0h-2v95.8h-96V0h-2v95.8h-96.1V0h-2v95.8h-96V0h-2v95.8h-96V0h-2v95.8h-96.1V0h-2v95.8h-96V0h-2v95.8h-96.1V0h-2v95.8h-96V0h-2v95.8h-96V0h-2v95.8h-96.1V0h-2v95.8h-96V0h-2v95.8h-96.1V0h-2v95.8h-96V0h-2v95.8h-96V0h-2v95.8h-96.1V0h-2v95.8h-96V0h-2v95.8H2746V0h-2v95.8h-96V0h-2v95.8h-96V0h-2v95.8h-96V0h-2v95.8h-96V0h-2v95.8h-96.1V0h-2v95.8h-96V0h-2v95.8h-96V0h-2v95.8h-96.1V0h-2v95.8h-96V0h-2v95.8h-96V0h-2v95.8h-96.1V0h-2v95.8h-96V0h-2v95.8h-96.1V0h-2v95.8h-96V0h-2v95.8h-96V0h-2v95.8h-96.1V0h-2v95.8h-96V0h-2v95.8h-96.1V0h-2v95.8h-96V0h-2v95.8h-96V0h-2v95.8h-96.1V0h-2v95.8h-96V0h-2v95.8h-96.1V0h-2v95.8h-96V0h-2v95.8h-96V0h-2v95.8H197V0h-2v95.8H99V0h-2v95.8H0v2h97v94.7H0v2h97v94.8H0v2h97v94.8H0v2h97v94.8H0v2h97v94.7H0v2h97v94.8H0v2h97v94.8H0v2h97V870H0v2h97v94.7H0v2h97v94.8H0v2h97v94.8H0v2h97v94.8H0v2h97v94.7H0v2h97v94.8H0v2h97v94.8H0v2h97v94.8H0v2h97v94.7H0v2h97v94.8H0v2h97v94.8H0v2h97v94.8H0v2h97v94.7H0v2h97v94.8H0v2h97v94.8H0v2h97v94.7H0v2h97v94.8H0v2h97v94.8H0v2h97v94.8H0v2h97v94.7H0v2h97v94.8H0v2h97v95.8h2v-95.8h96v95.8h2v-95.8h96.1v95.8h2v-95.8h96v95.8h2v-95.8h96.1v95.8h2v-95.8h96v95.8h2v-95.8h96v95.8h2v-95.8h96.1v95.8h2v-95.8h96v95.8h2v-95.8h96v95.8h2v-95.8h96.1v95.8h2v-95.8h96v95.8h2v-95.8h96.1v95.8h2v-95.8h96v95.8h2v-95.8h96v95.8h2v-95.8h96.1v95.8h2v-95.8h96v95.8h2v-95.8h96.1v95.8h2v-95.8h96v95.8h2v-95.8h96v95.8h2v-95.8h96.1v95.8h2v-95.8h96v95.8h2v-95.8h96.1v95.8h2v-95.8h96v95.8h2v-95.8h96v95.8h2v-95.8h96.1v95.8h2v-95.8h96v95.8h2v-95.8h96.1v95.8h2v-95.8h96v95.8h2v-95.8h96v95.8h2v-95.8h96.1v95.8h2v-95.8h96v95.8h2v-95.8h96v95.8h2v-95.8h96.1v95.8h2v-95.8h96v95.8h2v-95.8h96.1v95.8h2v-95.8h96v95.8h2v-95.8h96v95.8h2v-95.8h96.1v95.8h2v-95.8h96v95.8h2v-95.8h96.1v95.8h2v-95.8h96v95.8h2v-95.8h96v95.8h2v-95.8h96.1v95.8h2v-95.8h96v95.8h2v-95.8h96.1v95.8h2v-95.8h96v95.8h2v-95.8h96v95.8h2v-95.8h96.1v95.8h2v-95.8h96v95.8h2v-95.8h97.1v-2h-97v-94.8h97v-2h-97v-94.7h97v-2h-97v-94.8h97v-2h-97v-94.8h97v-2h-97v-94.8h97v-2h-97v-94.7h97v-2h-97v-94.8h97v-2h-97V2130h97v-2h-97v-94.7h97v-2h-97v-94.8h97v-2h-97v-94.8h97v-2h-97V1743h97v-2h-97v-94.7h97v-2h-97v-94.8h97v-2h-97v-94.8h97v-2h-97v-94.8h97v-2h-97v-94.7h97v-2h-97v-94.8h97v-2h-97v-94.8h97v-2h-97v-94.8h97v-2h-97V872h97v-2h-97v-94.8h97v-2h-97v-94.8h97v-2h-97v-94.8h97v-2h-97V485h97v-2h-97v-95h97v-2h-97v-94.8h97v-2h-97v-94.8h97v-2h-97V97.8zm-197 0v94.7h-96.1V97.8zM1569.5 1452.6h96v94.8h-96zm-2 94.8h-96v-94.8h96zm100-94.8h96.1v94.8h-96zm98.1 0h96v94.8h-96zm98 0h96v94.8h-96zm98 0h96.1v94.8h-96zm98.1 0h96v94.8h-96zm98 0h96.1v94.8h-96zm98.1 0h96v94.8h-96zm98 0h96v94.8h-96zm98 0h96.1v94.8h-96zm98.1 0h96v94.8h-96zm98 0h96.1v94.8h-96zm98.1 0h96v94.8h-96zm98 0h96v94.8h-96zm98 0h96.1v94.8h-96zm98.1 0h96v94.8h-96zm98 0h96v94.8h-96zm98 0h96.1v94.8h-96zm98.1 0h96v94.8h-96zm98 0h96.1v94.8h-96zm0-2v-94.8h96.1v94.8zm-2 0h-96v-94.8h96zm-98 0h-96v-94.8h96zm-98 0h-96v-94.8h96zm-98 0h-96v-94.8h96zm-98 0h-96.1v-94.8h96zm-98.1 0h-96v-94.8h96zm-98 0H2746v-94.8h96zm-98.1 0h-96v-94.8h96zm-98 0h-96v-94.8h96zm-98 0h-96v-94.8h96zm-98.1 0h-96v-94.8h96zm-98 0h-96.1v-94.8h96zm-98.1 0h-96v-94.8h96zm-98 0h-96v-94.8h96zm-98 0h-96.1v-94.8h96zm-98.1 0h-96v-94.8h96zm-98 0h-96v-94.8h96zm-98 0h-96.1v-94.8h96zm-98.1 0h-96v-94.8h96zm-98 0h-96.1v-94.8h96zm-98.1 0h-96v-94.8h96zm0 2v94.8h-96v-94.8zm0 96.8v94.8h-96v-94.8zm2 0h96v94.8h-96zm98 0h96v94.8h-96zm98 0h96.1v94.8h-96zm98.1 0h96v94.8h-96zm98 0h96v94.8h-96zm98 0h96.1v94.8h-96zm98.1 0h96v94.8h-96zm98 0h96.1v94.8h-96zm98.1 0h96v94.8h-96zm98 0h96v94.8h-96zm98 0h96.1v94.8h-96zm98.1 0h96v94.8h-96zm98 0h96.1v94.8h-96zm98.1 0h96v94.8h-96zm98 0h96v94.8h-96zm98 0h96.1v94.8h-96zm98.1 0h96v94.8h-96zm98 0h96v94.8h-96zm98 0h96.1v94.8h-96zm98.1 0h96v94.8h-96zm98 0h96.1v94.8h-96zm98.1 0h96v94.8h-96zm0-2v-94.8h96v94.8zm0-96.8v-94.8h96v94.8zm0-96.8v-94.7h96v94.7zm-2 0h-96v-94.7h96zm-98 0h-96v-94.7h96zm-98 0h-96.1v-94.7h96zm-98.1 0h-96v-94.7h96zm-98 0h-96v-94.7h96zm-98 0h-96.1v-94.7h96zm-98.1 0h-96v-94.7h96zm-98 0H2746v-94.7h96zm-98.1 0h-96v-94.7h96zm-98 0h-96v-94.7h96zm-98 0h-96v-94.7h96zm-98.1 0h-96v-94.7h96zm-98 0h-96.1v-94.7h96zm-98.1 0h-96v-94.7h96zm-98 0h-96v-94.7h96zm-98 0h-96.1v-94.7h96zm-98.1 0h-96v-94.7h96zm-98 0h-96v-94.7h96zm-98 0h-96.1v-94.7h96zm-98.1 0h-96v-94.7h96zm-98 0h-96.1v-94.7h96zm-98.1 0h-96v-94.7h96zm-98 0h-96v-94.7h96zm0 2v94.8h-96v-94.8zm0 96.8v94.8h-96v-94.8zm0 96.8v94.8h-96v-94.8zm0 96.8v94.7h-96v-94.7zm2 0h96v94.7h-96zm98 0h96v94.7h-96zm98 0h96v94.7h-96zm98 0h96.1v94.7h-96zm98.1 0h96v94.7h-96zm98 0h96v94.7h-96zm98 0h96.1v94.7h-96zm98.1 0h96v94.7h-96zm98 0h96.1v94.7h-96zm98.1 0h96v94.7h-96zm98 0h96v94.7h-96zm98 0h96.1v94.7h-96zm98.1 0h96v94.7h-96zm98 0h96.1v94.7h-96zm98.1 0h96v94.7h-96zm98 0h96v94.7h-96zm98 0h96.1v94.7h-96zm98.1 0h96v94.7h-96zm98 0h96v94.7h-96zm98 0h96.1v94.7h-96zm98.1 0h96v94.7h-96zm98 0h96.1v94.7h-96zm98.1 0h96v94.7h-96zm98 0h96v94.7h-96zm0-2v-94.8h96v94.8zm0-96.8v-94.8h96v94.8zm0-96.8v-94.8h96v94.8zm0-96.8v-94.7h96v94.7zm0-96.7v-94.8h96v94.8zm-2 0h-96v-94.8h96zm-98 0h-96v-94.8h96zm-98 0h-96v-94.8h96zm-98 0h-96.1v-94.8h96zm-98.1 0h-96v-94.8h96zm-98 0h-96v-94.8h96zm-98 0h-96.1v-94.8h96zm-98.1 0h-96v-94.8h96zm-98 0H2746v-94.8h96zm-98.1 0h-96v-94.8h96zm-98 0h-96v-94.8h96zm-98 0h-96v-94.8h96zm-98.1 0h-96v-94.8h96zm-98 0h-96.1v-94.8h96zm-98.1 0h-96v-94.8h96zm-98 0h-96v-94.8h96zm-98 0h-96.1v-94.8h96zm-98.1 0h-96v-94.8h96zm-98 0h-96v-94.8h96zm-98 0h-96.1v-94.8h96zm-98.1 0h-96v-94.8h96zm-98 0h-96.1v-94.8h96zm-98.1 0h-96v-94.8h96zm-98 0h-96v-94.8h96zm-98 0h-96.1v-94.8h96zm0 2v94.7h-96.1v-94.7zm0 96.7v94.8h-96.1v-94.8zm0 96.8v94.8h-96.1v-94.8zm0 96.8v94.8h-96.1v-94.8zm0 96.8v94.7h-96.1v-94.7zm0 96.7v94.8h-96.1V1743zm2 0h96v94.8h-96zm98 0h96v94.8h-96zm98 0h96v94.8h-96zm98 0h96v94.8h-96zm98 0h96.1v94.8h-96zm98.1 0h96v94.8h-96zm98 0h96v94.8h-96zm98 0h96.1v94.8h-96zm98.1 0h96v94.8h-96zm98 0h96.1v94.8h-96zm98.1 0h96v94.8h-96zm98 0h96v94.8h-96zm98 0h96.1v94.8h-96zm98.1 0h96v94.8h-96zm98 0h96.1v94.8h-96zm98.1 0h96v94.8h-96zm98 0h96v94.8h-96zm98 0h96.1v94.8h-96zm98.1 0h96v94.8h-96zm98 0h96v94.8h-96zm98 0h96.1v94.8h-96zm98.1 0h96v94.8h-96zm98 0h96.1v94.8h-96zm98.1 0h96v94.8h-96zm98 0h96v94.8h-96zm98 0h96.1v94.8h-96zm0-2v-94.7h96.1v94.7zm0-96.7v-94.8h96.1v94.8zm0-96.8v-94.8h96.1v94.8zm0-96.8v-94.8h96.1v94.8zm0-96.8v-94.7h96.1v94.7zm0-96.7v-94.8h96.1v94.8zm0-96.8v-94.8h96.1v94.8zm-2 0h-96v-94.8h96zm-98 0h-96v-94.8h96zm-98 0h-96v-94.8h96zm-98 0h-96v-94.8h96zm-98 0h-96.1v-94.8h96zm-98.1 0h-96v-94.8h96zm-98 0h-96v-94.8h96zm-98 0h-96.1v-94.8h96zm-98.1 0h-96v-94.8h96zm-98 0H2746v-94.8h96zm-98.1 0h-96v-94.8h96zm-98 0h-96v-94.8h96zm-98 0h-96v-94.8h96zm-98.1 0h-96v-94.8h96zm-98 0h-96.1v-94.8h96zm-98.1 0h-96v-94.8h96zm-98 0h-96v-94.8h96zm-98 0h-96.1v-94.8h96zm-98.1 0h-96v-94.8h96zm-98 0h-96v-94.8h96zm-98 0h-96.1v-94.8h96zm-98.1 0h-96v-94.8h96zm-98 0h-96.1v-94.8h96zm-98.1 0h-96v-94.8h96zm-98 0h-96v-94.8h96zm-98 0h-96.1v-94.8h96zm-98.1 0h-96v-94.8h96zm0 2v94.8h-96v-94.8zm0 96.8v94.7h-96v-94.7zm0 96.7v94.8h-96v-94.8zm0 96.8v94.8h-96v-94.8zm0 96.8v94.8h-96v-94.8zm0 96.8v94.7h-96v-94.7zm0 96.7v94.8h-96V1743zm0 96.8v94.8h-96v-94.8zm2 0h96v94.8h-96zm98 0h96v94.8h-96zm98 0h96v94.8h-96zm98 0h96.1v94.8h-96zm98.1 0h96v94.8h-96zm98 0h96.1v94.8h-96zm98.1 0h96v94.8h-96zm98 0h96v94.8h-96zm98 0h96.1v94.8h-96zm98.1 0h96v94.8h-96zm98 0h96.1v94.8h-96zm98.1 0h96v94.8h-96zm98 0h96v94.8h-96zm98 0h96.1v94.8h-96zm98.1 0h96v94.8h-96zm98 0h96.1v94.8h-96zm98.1 0h96v94.8h-96zm98 0h96v94.8h-96zm98 0h96.1v94.8h-96zm98.1 0h96v94.8h-96zm98 0h96v94.8h-96zm98 0h96.1v94.8h-96zm98.1 0h96v94.8h-96zm98 0h96.1v94.8h-96zm98.1 0h96v94.8h-96zm98 0h96v94.8h-96zm98 0h96.1v94.8h-96zm98.1 0h96v94.8h-96zm0-2V1743h96v94.8zm0-96.8v-94.7h96v94.7zm0-96.7v-94.8h96v94.8zm0-96.8v-94.8h96v94.8zm0-96.8v-94.8h96v94.8zm0-96.8v-94.7h96v94.7zm0-96.7v-94.8h96v94.8zm0-96.8v-94.8h96v94.8zm0-96.8v-94.8h96v94.8zm-2 0h-96v-94.8h96zm-98 0h-96v-94.8h96zm-98 0h-96v-94.8h96zm-98 0h-96.1v-94.8h96zm-98.1 0h-96v-94.8h96zm-98 0h-96.1v-94.8h96zm-98.1 0h-96v-94.8h96zm-98 0h-96v-94.8h96zm-98 0h-96.1v-94.8h96zm-98.1 0h-96v-94.8h96zm-98 0H2746v-94.8h96zm-98.1 0h-96v-94.8h96zm-98 0h-96v-94.8h96zm-98 0h-96v-94.8h96zm-98.1 0h-96v-94.8h96zm-98 0h-96.1v-94.8h96zm-98.1 0h-96v-94.8h96zm-98 0h-96v-94.8h96zm-98 0h-96.1v-94.8h96zm-98.1 0h-96v-94.8h96zm-98 0h-96v-94.8h96zm-98 0h-96.1v-94.8h96zm-98.1 0h-96v-94.8h96zm-98 0h-96.1v-94.8h96zm-98.1 0h-96v-94.8h96zm-98 0h-96v-94.8h96zm-98 0h-96.1v-94.8h96zm-98.1 0h-96v-94.8h96zm-98 0h-96.1v-94.8h96zm0 2v94.8h-96.1v-94.8zm0 96.8v94.8h-96.1v-94.8zm0 96.8v94.7h-96.1v-94.7zm0 96.7v94.8h-96.1v-94.8zm0 96.8v94.8h-96.1v-94.8zm0 96.8v94.8h-96.1v-94.8zm0 96.8v94.7h-96.1v-94.7zm0 96.7v94.8h-96.1V1743zm0 96.8v94.8h-96.1v-94.8zm0 96.8v94.8h-96.1v-94.8zm2 0h96v94.8h-96zm98 0h96v94.8h-96zm98 0h96v94.8h-96zm98 0h96v94.8h-96zm98 0h96.1v94.8h-96zm98.1 0h96v94.8h-96zm98 0h96.1v94.8h-96zm98.1 0h96v94.8h-96zm98 0h96v94.8h-96zm98 0h96.1v94.8h-96zm98.1 0h96v94.8h-96zm98 0h96.1v94.8h-96zm98.1 0h96v94.8h-96zm98 0h96v94.8h-96zm98 0h96.1v94.8h-96zm98.1 0h96v94.8h-96zm98 0h96.1v94.8h-96zm98.1 0h96v94.8h-96zm98 0h96v94.8h-96zm98 0h96.1v94.8h-96zm98.1 0h96v94.8h-96zm98 0h96v94.8h-96zm98 0h96.1v94.8h-96zm98.1 0h96v94.8h-96zm98 0h96.1v94.8h-96zm98.1 0h96v94.8h-96zm98 0h96v94.8h-96zm98 0h96.1v94.8h-96zm98.1 0h96v94.8h-96zm98 0h96.1v94.8h-96zm0-2v-94.8h96.1v94.8zm0-96.8V1743h96.1v94.8zm0-96.8v-94.7h96.1v94.7zm0-96.7v-94.8h96.1v94.8zm0-96.8v-94.8h96.1v94.8zm0-96.8v-94.8h96.1v94.8zm0-96.8v-94.7h96.1v94.7zm0-96.7v-94.8h96.1v94.8zm0-96.8v-94.8h96.1v94.8zm0-96.8v-94.8h96.1v94.8zm0-96.8V872h96.1v94.7zm-2 0h-96V872h96zm-98 0h-96V872h96zm-98 0h-96V872h96zm-98 0h-96V872h96zm-98 0h-96.1V872h96zm-98.1 0h-96V872h96zm-98 0h-96.1V872h96zm-98.1 0h-96V872h96zm-98 0h-96V872h96zm-98 0h-96.1V872h96zm-98.1 0h-96V872h96zm-98 0H2746V872h96zm-98.1 0h-96V872h96zm-98 0h-96V872h96zm-98 0h-96V872h96zm-98.1 0h-96V872h96zm-98 0h-96.1V872h96zm-98.1 0h-96V872h96zm-98 0h-96V872h96zm-98 0h-96.1V872h96zm-98.1 0h-96V872h96zm-98 0h-96V872h96zm-98 0h-96.1V872h96zm-98.1 0h-96V872h96zm-98 0h-96.1V872h96zm-98.1 0h-96V872h96zm-98 0h-96V872h96zm-98 0h-96.1V872h96zm-98.1 0h-96V872h96zm-98 0h-96.1V872h96zm-98.1 0h-96V872h96zm0 2v94.8h-96v-94.8zm0 96.8v94.8h-96v-94.8zm0 96.8v94.8h-96v-94.8zm0 96.8v94.7h-96v-94.7zm0 96.7v94.8h-96v-94.8zm0 96.8v94.8h-96v-94.8zm0 96.8v94.8h-96v-94.8zm0 96.8v94.7h-96v-94.7zm0 96.7v94.8h-96V1743zm0 96.8v94.8h-96v-94.8zm0 96.8v94.8h-96v-94.8zm0 96.8v94.7h-96v-94.7zm2 0h96v94.7h-96zm98 0h96v94.7h-96zm98 0h96.1v94.7h-96zm98.1 0h96v94.7h-96zm98 0h96v94.7h-96zm98 0h96.1v94.7h-96zm98.1 0h96v94.7h-96zm98 0h96.1v94.7h-96zm98.1 0h96v94.7h-96zm98 0h96v94.7h-96zm98 0h96.1v94.7h-96zm98.1 0h96v94.7h-96zm98 0h96.1v94.7h-96zm98.1 0h96v94.7h-96zm98 0h96v94.7h-96zm98 0h96.1v94.7h-96zm98.1 0h96v94.7h-96zm98 0h96.1v94.7h-96zm98.1 0h96v94.7h-96zm98 0h96v94.7h-96zm98 0h96.1v94.7h-96zm98.1 0h96v94.7h-96zm98 0h96v94.7h-96zm98 0h96.1v94.7h-96zm98.1 0h96v94.7h-96zm98 0h96.1v94.7h-96zm98.1 0h96v94.7h-96zm98 0h96v94.7h-96zm98 0h96.1v94.7h-96zm98.1 0h96v94.7h-96zm98 0h96.1v94.7h-96zm98.1 0h96v94.7h-96zm0-2v-94.8h96v94.8zm0-96.8v-94.8h96v94.8zm0-96.8V1743h96v94.8zm0-96.8v-94.7h96v94.7zm0-96.7v-94.8h96v94.8zm0-96.8v-94.8h96v94.8zm0-96.8v-94.8h96v94.8zm0-96.8v-94.7h96v94.7zm0-96.7v-94.8h96v94.8zm0-96.8v-94.8h96v94.8zm0-96.8v-94.8h96v94.8zm0-96.8V872h96v94.7zm0-96.7v-94.8h96V870zm-2 0h-96v-94.8h96zm-98 0h-96v-94.8h96zm-98 0h-96.1v-94.8h96zm-98.1 0h-96v-94.8h96zm-98 0h-96v-94.8h96zm-98 0h-96.1v-94.8h96zm-98.1 0h-96v-94.8h96zm-98 0h-96.1v-94.8h96zm-98.1 0h-96v-94.8h96zm-98 0h-96v-94.8h96zm-98 0h-96.1v-94.8h96zm-98.1 0h-96v-94.8h96zm-98 0H2746v-94.8h96zm-98.1 0h-96v-94.8h96zm-98 0h-96v-94.8h96zm-98 0h-96v-94.8h96zm-98.1 0h-96v-94.8h96zm-98 0h-96.1v-94.8h96zm-98.1 0h-96v-94.8h96zm-98 0h-96v-94.8h96zm-98 0h-96.1v-94.8h96zm-98.1 0h-96v-94.8h96zm-98 0h-96v-94.8h96zm-98 0h-96.1v-94.8h96zm-98.1 0h-96v-94.8h96zm-98 0h-96.1v-94.8h96zm-98.1 0h-96v-94.8h96zm-98 0h-96v-94.8h96zm-98 0h-96.1v-94.8h96zm-98.1 0h-96v-94.8h96zm-98 0h-96.1v-94.8h96zm-98.1 0h-96v-94.8h96zm-98 0h-96v-94.8h96zm0 2v94.7h-96V872zm0 96.7v94.8h-96v-94.8zm0 96.8v94.8h-96v-94.8zm0 96.8v94.8h-96v-94.8zm0 96.8v94.7h-96v-94.7zm0 96.7v94.8h-96v-94.8zm0 96.8v94.8h-96v-94.8zm0 96.8v94.8h-96v-94.8zm0 96.8v94.7h-96v-94.7zm0 96.7v94.8h-96V1743zm0 96.8v94.8h-96v-94.8zm0 96.8v94.8h-96v-94.8zm0 96.8v94.7h-96v-94.7zm0 96.7v94.8h-96V2130zm2 0h96v94.8h-96zm98 0h96v94.8h-96zm98 0h96v94.8h-96zm98 0h96.1v94.8h-96zm98.1 0h96v94.8h-96zm98 0h96v94.8h-96zm98 0h96.1v94.8h-96zm98.1 0h96v94.8h-96zm98 0h96.1v94.8h-96zm98.1 0h96v94.8h-96zm98 0h96v94.8h-96zm98 0h96.1v94.8h-96zm98.1 0h96v94.8h-96zm98 0h96.1v94.8h-96zm98.1 0h96v94.8h-96zm98 0h96v94.8h-96zm98 0h96.1v94.8h-96zm98.1 0h96v94.8h-96zm98 0h96.1v94.8h-96zm98.1 0h96v94.8h-96zm98 0h96v94.8h-96zm98 0h96.1v94.8h-96zm98.1 0h96v94.8h-96zm98 0h96v94.8h-96zm98 0h96.1v94.8h-96zm98.1 0h96v94.8h-96zm98 0h96.1v94.8h-96zm98.1 0h96v94.8h-96zm98 0h96v94.8h-96zm98 0h96.1v94.8h-96zm98.1 0h96v94.8h-96zm98 0h96.1v94.8h-96zm98.1 0h96v94.8h-96zm98 0h96v94.8h-96zm0-2v-94.7h96v94.7zm0-96.7v-94.8h96v94.8zm0-96.8v-94.8h96v94.8zm0-96.8V1743h96v94.8zm0-96.8v-94.7h96v94.7zm0-96.7v-94.8h96v94.8zm0-96.8v-94.8h96v94.8zm0-96.8v-94.8h96v94.8zm0-96.8v-94.7h96v94.7zm0-96.7v-94.8h96v94.8zm0-96.8v-94.8h96v94.8zm0-96.8v-94.8h96v94.8zm0-96.8V872h96v94.7zm0-96.7v-94.8h96V870zm0-96.8v-94.8h96v94.8zm-2 0h-96v-94.8h96zm-98 0h-96v-94.8h96zm-98 0h-96v-94.8h96zm-98 0h-96.1v-94.8h96zm-98.1 0h-96v-94.8h96zm-98 0h-96v-94.8h96zm-98 0h-96.1v-94.8h96zm-98.1 0h-96v-94.8h96zm-98 0h-96.1v-94.8h96zm-98.1 0h-96v-94.8h96zm-98 0h-96v-94.8h96zm-98 0h-96.1v-94.8h96zm-98.1 0h-96v-94.8h96zm-98 0H2746v-94.8h96zm-98.1 0h-96v-94.8h96zm-98 0h-96v-94.8h96zm-98 0h-96v-94.8h96zm-98.1 0h-96v-94.8h96zm-98 0h-96.1v-94.8h96zm-98.1 0h-96v-94.8h96zm-98 0h-96v-94.8h96zm-98 0h-96.1v-94.8h96zm-98.1 0h-96v-94.8h96zm-98 0h-96v-94.8h96zm-98 0h-96.1v-94.8h96zm-98.1 0h-96v-94.8h96zm-98 0h-96.1v-94.8h96zm-98.1 0h-96v-94.8h96zm-98 0h-96v-94.8h96zm-98 0h-96.1v-94.8h96zm-98.1 0h-96v-94.8h96zm-98 0h-96.1v-94.8h96zm-98.1 0h-96v-94.8h96zm-98 0h-96v-94.8h96zm-98 0h-96.1v-94.8h96zm0 2V870h-96.1v-94.8zm0 96.8v94.7h-96.1V872zm0 96.7v94.8h-96.1v-94.8zm0 96.8v94.8h-96.1v-94.8zm0 96.8v94.8h-96.1v-94.8zm0 96.8v94.7h-96.1v-94.7zm0 96.7v94.8h-96.1v-94.8zm0 96.8v94.8h-96.1v-94.8zm0 96.8v94.8h-96.1v-94.8zm0 96.8v94.7h-96.1v-94.7zm0 96.7v94.8h-96.1V1743zm0 96.8v94.8h-96.1v-94.8zm0 96.8v94.8h-96.1v-94.8zm0 96.8v94.7h-96.1v-94.7zm0 96.7v94.8h-96.1V2130zm0 96.8v94.8h-96.1v-94.8zm2 0h96v94.8h-96zm98 0h96v94.8h-96zm98 0h96v94.8h-96zm98 0h96v94.8h-96zm98 0h96.1v94.8h-96zm98.1 0h96v94.8h-96zm98 0h96v94.8h-96zm98 0h96.1v94.8h-96zm98.1 0h96v94.8h-96zm98 0h96.1v94.8h-96zm98.1 0h96v94.8h-96zm98 0h96v94.8h-96zm98 0h96.1v94.8h-96zm98.1 0h96v94.8h-96zm98 0h96.1v94.8h-96zm98.1 0h96v94.8h-96zm98 0h96v94.8h-96zm98 0h96.1v94.8h-96zm98.1 0h96v94.8h-96zm98 0h96.1v94.8h-96zm98.1 0h96v94.8h-96zm98 0h96v94.8h-96zm98 0h96.1v94.8h-96zm98.1 0h96v94.8h-96zm98 0h96v94.8h-96zm98 0h96.1v94.8h-96zm98.1 0h96v94.8h-96zm98 0h96.1v94.8h-96zm98.1 0h96v94.8h-96zm98 0h96v94.8h-96zm98 0h96.1v94.8h-96zm98.1 0h96v94.8h-96zm98 0h96.1v94.8h-96zm98.1 0h96v94.8h-96zm98 0h96v94.8h-96zm98 0h96.1v94.8h-96zm0-2V2130h96.1v94.8zm0-96.8v-94.7h96.1v94.7zm0-96.7v-94.8h96.1v94.8zm0-96.8v-94.8h96.1v94.8zm0-96.8V1743h96.1v94.8zm0-96.8v-94.7h96.1v94.7zm0-96.7v-94.8h96.1v94.8zm0-96.8v-94.8h96.1v94.8zm0-96.8v-94.8h96.1v94.8zm0-96.8v-94.7h96.1v94.7zm0-96.7v-94.8h96.1v94.8zm0-96.8v-94.8h96.1v94.8zm0-96.8v-94.8h96.1v94.8zm0-96.8V872h96.1v94.7zm0-96.7v-94.8h96.1V870zm0-96.8v-94.8h96.1v94.8zm0-96.8v-94.8h96.1v94.8zm-2 0h-96v-94.8h96zm-98 0h-96v-94.8h96zm-98 0h-96v-94.8h96zm-98 0h-96v-94.8h96zm-98 0h-96.1v-94.8h96zm-98.1 0h-96v-94.8h96zm-98 0h-96v-94.8h96zm-98 0h-96.1v-94.8h96zm-98.1 0h-96v-94.8h96zm-98 0h-96.1v-94.8h96zm-98.1 0h-96v-94.8h96zm-98 0h-96v-94.8h96zm-98 0h-96.1v-94.8h96zm-98.1 0h-96v-94.8h96zm-98 0H2746v-94.8h96zm-98.1 0h-96v-94.8h96zm-98 0h-96v-94.8h96zm-98 0h-96v-94.8h96zm-98.1 0h-96v-94.8h96zm-98 0h-96.1v-94.8h96zm-98.1 0h-96v-94.8h96zm-98 0h-96v-94.8h96zm-98 0h-96.1v-94.8h96zm-98.1 0h-96v-94.8h96zm-98 0h-96v-94.8h96zm-98 0h-96.1v-94.8h96zm-98.1 0h-96v-94.8h96zm-98 0h-96.1v-94.8h96zm-98.1 0h-96v-94.8h96zm-98 0h-96v-94.8h96zm-98 0h-96.1v-94.8h96zm-98.1 0h-96v-94.8h96zm-98 0h-96.1v-94.8h96zm-98.1 0h-96v-94.8h96zm-98 0h-96v-94.8h96zm-98 0h-96.1v-94.8h96zm-98.1 0h-96v-94.8h96zm0 2v94.8h-96v-94.8zm0 96.8V870h-96v-94.8zm0 96.8v94.7h-96V872zm0 96.7v94.8h-96v-94.8zm0 96.8v94.8h-96v-94.8zm0 96.8v94.8h-96v-94.8zm0 96.8v94.7h-96v-94.7zm0 96.7v94.8h-96v-94.8zm0 96.8v94.8h-96v-94.8zm0 96.8v94.8h-96v-94.8zm0 96.8v94.7h-96v-94.7zm0 96.7v94.8h-96V1743zm0 96.8v94.8h-96v-94.8zm0 96.8v94.8h-96v-94.8zm0 96.8v94.7h-96v-94.7zm0 96.7v94.8h-96V2130zm0 96.8v94.8h-96v-94.8zm0 96.8v94.8h-96v-94.8zm2 0h96v94.8h-96zm98 0h96v94.8h-96zm98 0h96v94.8h-96zm98 0h96.1v94.8h-96zm98.1 0h96v94.8h-96zm98 0h96.1v94.8h-96zm98.1 0h96v94.8h-96zm98 0h96v94.8h-96zm98 0h96.1v94.8h-96zm98.1 0h96v94.8h-96zm98 0h96.1v94.8h-96zm98.1 0h96v94.8h-96zm98 0h96v94.8h-96zm98 0h96.1v94.8h-96zm98.1 0h96v94.8h-96zm98 0h96.1v94.8h-96zm98.1 0h96v94.8h-96zm98 0h96v94.8h-96zm98 0h96.1v94.8h-96zm98.1 0h96v94.8h-96zm98 0h96.1v94.8h-96zm98.1 0h96v94.8h-96zm98 0h96v94.8h-96zm98 0h96.1v94.8h-96zm98.1 0h96v94.8h-96zm98 0h96v94.8h-96zm98 0h96.1v94.8h-96zm98.1 0h96v94.8h-96zm98 0h96.1v94.8h-96zm98.1 0h96v94.8h-96zm98 0h96v94.8h-96zm98 0h96.1v94.8h-96zm98.1 0h96v94.8h-96zm98 0h96.1v94.8h-96zm98.1 0h96v94.8h-96zm98 0h96v94.8h-96zm98 0h96.1v94.8h-96zm98.1 0h96v94.8h-96zm0-2v-94.8h96v94.8zm0-96.8V2130h96v94.8zm0-96.8v-94.7h96v94.7zm0-96.7v-94.8h96v94.8zm0-96.8v-94.8h96v94.8zm0-96.8V1743h96v94.8zm0-96.8v-94.7h96v94.7zm0-96.7v-94.8h96v94.8zm0-96.8v-94.8h96v94.8zm0-96.8v-94.8h96v94.8zm0-96.8v-94.7h96v94.7zm0-96.7v-94.8h96v94.8zm0-96.8v-94.8h96v94.8zm0-96.8v-94.8h96v94.8zm0-96.8V872h96v94.7zm0-96.7v-94.8h96V870zm0-96.8v-94.8h96v94.8zm0-96.8v-94.8h96v94.8zm0-96.8V485h96v94.7zm-2 0h-96V485h96zm-98 0h-96V485h96zm-98 0h-96V485h96zm-98 0h-96.1V485h96zm-98.1 0h-96V485h96zm-98 0h-96.1V485h96zm-98.1 0h-96V485h96zm-98 0h-96V485h96zm-98 0h-96.1V485h96zm-98.1 0h-96V485h96zm-98 0h-96.1V485h96zm-98.1 0h-96V485h96zm-98 0h-96V485h96zm-98 0h-96.1V485h96zm-98.1 0h-96V485h96zm-98 0H2746V485h96zm-98.1 0h-96V485h96zm-98 0h-96V485h96zm-98 0h-96V485h96zm-98.1 0h-96V485h96zm-98 0h-96.1V485h96zm-98.1 0h-96V485h96zm-98 0h-96V485h96zm-98 0h-96.1V485h96zm-98.1 0h-96V485h96zm-98 0h-96V485h96zm-98 0h-96.1V485h96zm-98.1 0h-96V485h96zm-98 0h-96.1V485h96zm-98.1 0h-96V485h96zm-98 0h-96V485h96zm-98 0h-96.1V485h96zm-98.1 0h-96V485h96zm-98 0h-96.1V485h96zm-98.1 0h-96V485h96zm-98 0h-96V485h96zm-98 0h-96.1V485h96zm-98.1 0h-96V485h96zm-98 0h-96.1V485h96zm0 2v94.8h-96.1v-94.8zm0 96.8v94.8h-96.1v-94.8zm0 96.8V870h-96.1v-94.8zm0 96.8v94.7h-96.1V872zm0 96.7v94.8h-96.1v-94.8zm0 96.8v94.8h-96.1v-94.8zm0 96.8v94.8h-96.1v-94.8zm0 96.8v94.7h-96.1v-94.7zm0 96.7v94.8h-96.1v-94.8zm0 96.8v94.8h-96.1v-94.8zm0 96.8v94.8h-96.1v-94.8zm0 96.8v94.7h-96.1v-94.7zm0 96.7v94.8h-96.1V1743zm0 96.8v94.8h-96.1v-94.8zm0 96.8v94.8h-96.1v-94.8zm0 96.8v94.7h-96.1v-94.7zm0 96.7v94.8h-96.1V2130zm0 96.8v94.8h-96.1v-94.8zm0 96.8v94.8h-96.1v-94.8zm0 96.8v94.7h-96.1v-94.7zm2 0h96v94.7h-96zm98 0h96v94.7h-96zm98 0h96v94.7h-96zm98 0h96v94.7h-96zm98 0h96.1v94.7h-96zm98.1 0h96v94.7h-96zm98 0h96.1v94.7h-96zm98.1 0h96v94.7h-96zm98 0h96v94.7h-96zm98 0h96.1v94.7h-96zm98.1 0h96v94.7h-96zm98 0h96.1v94.7h-96zm98.1 0h96v94.7h-96zm98 0h96v94.7h-96zm98 0h96.1v94.7h-96zm98.1 0h96v94.7h-96zm98 0h96.1v94.7h-96zm98.1 0h96v94.7h-96zm98 0h96v94.7h-96zm98 0h96.1v94.7h-96zm98.1 0h96v94.7h-96zm98 0h96.1v94.7h-96zm98.1 0h96v94.7h-96zm98 0h96v94.7h-96zm98 0h96.1v94.7h-96zm98.1 0h96v94.7h-96zm98 0h96v94.7h-96zm98 0h96.1v94.7h-96zm98.1 0h96v94.7h-96zm98 0h96.1v94.7h-96zm98.1 0h96v94.7h-96zm98 0h96v94.7h-96zm98 0h96.1v94.7h-96zm98.1 0h96v94.7h-96zm98 0h96.1v94.7h-96zm98.1 0h96v94.7h-96zm98 0h96v94.7h-96zm98 0h96.1v94.7h-96zm98.1 0h96v94.7h-96zm98 0h96.1v94.7h-96zm0-2v-94.8h96.1v94.8zm0-96.8v-94.8h96.1v94.8zm0-96.8V2130h96.1v94.8zm0-96.8v-94.7h96.1v94.7zm0-96.7v-94.8h96.1v94.8zm0-96.8v-94.8h96.1v94.8zm0-96.8V1743h96.1v94.8zm0-96.8v-94.7h96.1v94.7zm0-96.7v-94.8h96.1v94.8zm0-96.8v-94.8h96.1v94.8zm0-96.8v-94.8h96.1v94.8zm0-96.8v-94.7h96.1v94.7zm0-96.7v-94.8h96.1v94.8zm0-96.8v-94.8h96.1v94.8zm0-96.8v-94.8h96.1v94.8zm0-96.8V872h96.1v94.7zm0-96.7v-94.8h96.1V870zm0-96.8v-94.8h96.1v94.8zm0-96.8v-94.8h96.1v94.8zm0-96.8V485h96.1v94.7zm0-96.7V388h96.1v94.8zm-2 0h-96V388h96zm-98 0h-96V388h96zm-98 0h-96V388h96zm-98 0h-96V388h96zm-98 0h-96.1V388h96zm-98.1 0h-96V388h96zm-98 0h-96.1V388h96zm-98.1 0h-96V388h96zm-98 0h-96V388h96zm-98 0h-96.1V388h96zm-98.1 0h-96V388h96zm-98 0h-96.1V388h96zm-98.1 0h-96V388h96zm-98 0h-96V388h96zm-98 0h-96.1V388h96zm-98.1 0h-96V388h96zm-98 0H2746V388h96zm-98.1 0h-96V388h96zm-98 0h-96V388h96zm-98 0h-96V388h96zm-98.1 0h-96V388h96zm-98 0h-96.1V388h96zm-98.1 0h-96V388h96zm-98 0h-96V388h96zm-98 0h-96.1V388h96zm-98.1 0h-96V388h96zm-98 0h-96V388h96zm-98 0h-96.1V388h96zm-98.1 0h-96V388h96zm-98 0h-96.1V388h96zm-98.1 0h-96V388h96zm-98 0h-96V388h96zm-98 0h-96.1V388h96zm-98.1 0h-96V388h96zm-98 0h-96.1V388h96zm-98.1 0h-96V388h96zm-98 0h-96V388h96zm-98 0h-96.1V388h96zm-98.1 0h-96V388h96zm-98 0h-96.1V388h96zm-98.1 0h-96V388h96zm0 2v94.7h-96V485zm0 96.7v94.8h-96v-94.8zm0 96.8v94.8h-96v-94.8zm0 96.8V870h-96v-94.8zm0 96.8v94.7h-96V872zm0 96.7v94.8h-96v-94.8zm0 96.8v94.8h-96v-94.8zm0 96.8v94.8h-96v-94.8zm0 96.8v94.7h-96v-94.7zm0 96.7v94.8h-96v-94.8zm0 96.8v94.8h-96v-94.8zm0 96.8v94.8h-96v-94.8zm0 96.8v94.7h-96v-94.7zm0 96.7v94.8h-96V1743zm0 96.8v94.8h-96v-94.8zm0 96.8v94.8h-96v-94.8zm0 96.8v94.7h-96v-94.7zm0 96.7v94.8h-96V2130zm0 96.8v94.8h-96v-94.8zm0 96.8v94.8h-96v-94.8zm0 96.8v94.7h-96v-94.7zm0 96.7v94.8h-96v-94.8zm2 0h96v94.8h-96zm98 0h96v94.8h-96zm98 0h96.1v94.8h-96zm98.1 0h96v94.8h-96zm98 0h96v94.8h-96zm98 0h96.1v94.8h-96zm98.1 0h96v94.8h-96zm98 0h96.1v94.8h-96zm98.1 0h96v94.8h-96zm98 0h96v94.8h-96zm98 0h96.1v94.8h-96zm98.1 0h96v94.8h-96zm98 0h96.1v94.8h-96zm98.1 0h96v94.8h-96zm98 0h96v94.8h-96zm98 0h96.1v94.8h-96zm98.1 0h96v94.8h-96zm98 0h96.1v94.8h-96zm98.1 0h96v94.8h-96zm98 0h96v94.8h-96zm98 0h96.1v94.8h-96zm98.1 0h96v94.8h-96zm98 0h96.1v94.8h-96zm98.1 0h96v94.8h-96zm98 0h96v94.8h-96zm98 0h96.1v94.8h-96zm98.1 0h96v94.8h-96zm98 0h96v94.8h-96zm98 0h96.1v94.8h-96zm98.1 0h96v94.8h-96zm98 0h96.1v94.8h-96zm98.1 0h96v94.8h-96zm98 0h96v94.8h-96zm98 0h96.1v94.8h-96zm98.1 0h96v94.8h-96zm98 0h96.1v94.8h-96zm98.1 0h96v94.8h-96zm98 0h96v94.8h-96zm98 0h96.1v94.8h-96zm98.1 0h96v94.8h-96zm98 0h96.1v94.8h-96zm98.1 0h96v94.8h-96zm0-2v-94.7h96v94.7zm0-96.7v-94.8h96v94.8zm0-96.8v-94.8h96v94.8zm0-96.8V2130h96v94.8zm0-96.8v-94.7h96v94.7zm0-96.7v-94.8h96v94.8zm0-96.8v-94.8h96v94.8zm0-96.8V1743h96v94.8zm0-96.8v-94.7h96v94.7zm0-96.7v-94.8h96v94.8zm0-96.8v-94.8h96v94.8zm0-96.8v-94.8h96v94.8zm0-96.8v-94.7h96v94.7zm0-96.7v-94.8h96v94.8zm0-96.8v-94.8h96v94.8zm0-96.8v-94.8h96v94.8zm0-96.8V872h96v94.7zm0-96.7v-94.8h96V870zm0-96.8v-94.8h96v94.8zm0-96.8v-94.8h96v94.8zm0-96.8V485h96v94.7zm0-96.7V388h96v94.8zm0-96.8v-94.8h96v94.8zm-2 0h-96v-94.8h96zm-98 0h-96v-94.8h96zm-98 0h-96.1v-94.8h96zm-98.1 0h-96v-94.8h96zm-98 0h-96v-94.8h96zm-98 0h-96.1v-94.8h96zm-98.1 0h-96v-94.8h96zm-98 0h-96.1v-94.8h96zm-98.1 0h-96v-94.8h96zm-98 0h-96v-94.8h96zm-98 0h-96.1v-94.8h96zm-98.1 0h-96v-94.8h96zm-98 0h-96.1v-94.8h96zm-98.1 0h-96v-94.8h96zm-98 0h-96v-94.8h96zm-98 0h-96.1v-94.8h96zm-98.1 0h-96v-94.8h96zm-98 0H2746v-94.8h96zm-98.1 0h-96v-94.8h96zm-98 0h-96v-94.8h96zm-98 0h-96v-94.8h96zm-98.1 0h-96v-94.8h96zm-98 0h-96.1v-94.8h96zm-98.1 0h-96v-94.8h96zm-98 0h-96v-94.8h96zm-98 0h-96.1v-94.8h96zm-98.1 0h-96v-94.8h96zm-98 0h-96v-94.8h96zm-98 0h-96.1v-94.8h96zm-98.1 0h-96v-94.8h96zm-98 0h-96.1v-94.8h96zm-98.1 0h-96v-94.8h96zm-98 0h-96v-94.8h96zm-98 0h-96.1v-94.8h96zm-98.1 0h-96v-94.8h96zm-98 0h-96.1v-94.8h96zm-98.1 0h-96v-94.8h96zm-98 0h-96v-94.8h96zm-98 0h-96.1v-94.8h96zm-98.1 0h-96v-94.8h96zm-98 0h-96.1v-94.8h96zm-98.1 0h-96v-94.8h96zm-98 0h-96v-94.8h96zm0 2v94.8h-96V388zm0 96.8v94.7h-96V485zm0 96.7v94.8h-96v-94.8zm0 96.8v94.8h-96v-94.8zm0 96.8V870h-96v-94.8zm0 96.8v94.7h-96V872zm0 96.7v94.8h-96v-94.8zm0 96.8v94.8h-96v-94.8zm0 96.8v94.8h-96v-94.8zm0 96.8v94.7h-96v-94.7zm0 96.7v94.8h-96v-94.8zm0 96.8v94.8h-96v-94.8zm0 96.8v94.8h-96v-94.8zm0 96.8v94.7h-96v-94.7zm0 96.7v94.8h-96V1743zm0 96.8v94.8h-96v-94.8zm0 96.8v94.8h-96v-94.8zm0 96.8v94.7h-96v-94.7zm0 96.7v94.8h-96V2130zm0 96.8v94.8h-96v-94.8zm0 96.8v94.8h-96v-94.8zm0 96.8v94.7h-96v-94.7zm0 96.7v94.8h-96v-94.8zm0 96.8v94.8h-96v-94.8zm2 0h96v94.8h-96zm98 0h96v94.8h-96zm98 0h96v94.8h-96zm98 0h96.1v94.8h-96zm98.1 0h96v94.8h-96zm98 0h96v94.8h-96zm98 0h96.1v94.8h-96zm98.1 0h96v94.8h-96zm98 0h96.1v94.8h-96zm98.1 0h96v94.8h-96zm98 0h96v94.8h-96zm98 0h96.1v94.8h-96zm98.1 0h96v94.8h-96zm98 0h96.1v94.8h-96zm98.1 0h96v94.8h-96zm98 0h96v94.8h-96zm98 0h96.1v94.8h-96zm98.1 0h96v94.8h-96zm98 0h96.1v94.8h-96zm98.1 0h96v94.8h-96zm98 0h96v94.8h-96zm98 0h96.1v94.8h-96zm98.1 0h96v94.8h-96zm98 0h96.1v94.8h-96zm98.1 0h96v94.8h-96zm98 0h96v94.8h-96zm98 0h96.1v94.8h-96zm98.1 0h96v94.8h-96zm98 0h96v94.8h-96zm98 0h96.1v94.8h-96zm98.1 0h96v94.8h-96zm98 0h96.1v94.8h-96zm98.1 0h96v94.8h-96zm98 0h96v94.8h-96zm98 0h96.1v94.8h-96zm98.1 0h96v94.8h-96zm98 0h96.1v94.8h-96zm98.1 0h96v94.8h-96zm98 0h96v94.8h-96zm98 0h96.1v94.8h-96zm98.1 0h96v94.8h-96zm98 0h96.1v94.8h-96zm98.1 0h96v94.8h-96zm98 0h96v94.8h-96zm0-2v-94.8h96v94.8zm0-96.8v-94.7h96v94.7zm0-96.7v-94.8h96v94.8zm0-96.8v-94.8h96v94.8zm0-96.8V2130h96v94.8zm0-96.8v-94.7h96v94.7zm0-96.7v-94.8h96v94.8zm0-96.8v-94.8h96v94.8zm0-96.8V1743h96v94.8zm0-96.8v-94.7h96v94.7zm0-96.7v-94.8h96v94.8zm0-96.8v-94.8h96v94.8zm0-96.8v-94.8h96v94.8zm0-96.8v-94.7h96v94.7zm0-96.7v-94.8h96v94.8zm0-96.8v-94.8h96v94.8zm0-96.8v-94.8h96v94.8zm0-96.8V872h96v94.7zm0-96.7v-94.8h96V870zm0-96.8v-94.8h96v94.8zm0-96.8v-94.8h96v94.8zm0-96.8V485h96v94.7zm0-96.7V388h96v94.8zm0-96.8v-94.8h96v94.8zm0-96.8v-94.8h96v94.8zm-2 0h-96v-94.8h96zm-98 0h-96v-94.8h96zm-98 0h-96v-94.8h96zm-98 0h-96.1v-94.8h96zm-98.1 0h-96v-94.8h96zm-98 0h-96v-94.8h96zm-98 0h-96.1v-94.8h96zm-98.1 0h-96v-94.8h96zm-98 0h-96.1v-94.8h96zm-98.1 0h-96v-94.8h96zm-98 0h-96v-94.8h96zm-98 0h-96.1v-94.8h96zm-98.1 0h-96v-94.8h96zm-98 0h-96.1v-94.8h96zm-98.1 0h-96v-94.8h96zm-98 0h-96v-94.8h96zm-98 0h-96.1v-94.8h96zm-98.1 0h-96v-94.8h96zm-98 0H2746v-94.8h96zm-98.1 0h-96v-94.8h96zm-98 0h-96v-94.8h96zm-98 0h-96v-94.8h96zm-98.1 0h-96v-94.8h96zm-98 0h-96.1v-94.8h96zm-98.1 0h-96v-94.8h96zm-98 0h-96v-94.8h96zm-98 0h-96.1v-94.8h96zm-98.1 0h-96v-94.8h96zm-98 0h-96v-94.8h96zm-98 0h-96.1v-94.8h96zm-98.1 0h-96v-94.8h96zm-98 0h-96.1v-94.8h96zm-98.1 0h-96v-94.8h96zm-98 0h-96v-94.8h96zm-98 0h-96.1v-94.8h96zm-98.1 0h-96v-94.8h96zm-98 0h-96.1v-94.8h96zm-98.1 0h-96v-94.8h96zm-98 0h-96v-94.8h96zm-98 0h-96.1v-94.8h96zm-98.1 0h-96v-94.8h96zm-98 0h-96.1v-94.8h96zm-98.1 0h-96v-94.8h96zm-98 0h-96v-94.8h96zm-98 0H197v-94.8h96zm0 2v94.8H197v-94.8zm0 96.8v94.8H197V388zm0 96.8v94.7H197V485zm0 96.7v94.8H197v-94.8zm0 96.8v94.8H197v-94.8zm0 96.8V870H197v-94.8zm0 96.8v94.7H197V872zm0 96.7v94.8H197v-94.8zm0 96.8v94.8H197v-94.8zm0 96.8v94.8H197v-94.8zm0 96.8v94.7H197v-94.7zm0 96.7v94.8H197v-94.8zm0 96.8v94.8H197v-94.8zm0 96.8v94.8H197v-94.8zm0 96.8v94.7H197v-94.7zm0 96.7v94.8H197V1743zm0 96.8v94.8H197v-94.8zm0 96.8v94.8H197v-94.8zm0 96.8v94.7H197v-94.7zm0 96.7v94.8H197V2130zm0 96.8v94.8H197v-94.8zm0 96.8v94.8H197v-94.8zm0 96.8v94.7H197v-94.7zm0 96.7v94.8H197v-94.8zm0 96.8v94.8H197v-94.8zm0 96.8v94.8H197v-94.8zm2 0h96v94.8h-96zm98 0h96v94.8h-96zm98 0h96v94.8h-96zm98 0h96v94.8h-96zm98 0h96.1v94.8h-96zm98.1 0h96v94.8h-96zm98 0h96v94.8h-96zm98 0h96.1v94.8h-96zm98.1 0h96v94.8h-96zm98 0h96.1v94.8h-96zm98.1 0h96v94.8h-96zm98 0h96v94.8h-96zm98 0h96.1v94.8h-96zm98.1 0h96v94.8h-96zm98 0h96.1v94.8h-96zm98.1 0h96v94.8h-96zm98 0h96v94.8h-96zm98 0h96.1v94.8h-96zm98.1 0h96v94.8h-96zm98 0h96.1v94.8h-96zm98.1 0h96v94.8h-96zm98 0h96v94.8h-96zm98 0h96.1v94.8h-96zm98.1 0h96v94.8h-96zm98 0h96.1v94.8h-96zm98.1 0h96v94.8h-96zm98 0h96v94.8h-96zm98 0h96.1v94.8h-96zm98.1 0h96v94.8h-96zm98 0h96v94.8h-96zm98 0h96.1v94.8h-96zm98.1 0h96v94.8h-96zm98 0h96.1v94.8h-96zm98.1 0h96v94.8h-96zm98 0h96v94.8h-96zm98 0h96.1v94.8h-96zm98.1 0h96v94.8h-96zm98 0h96.1v94.8h-96zm98.1 0h96v94.8h-96zm98 0h96v94.8h-96zm98 0h96.1v94.8h-96zm98.1 0h96v94.8h-96zm98 0h96.1v94.8h-96zm98.1 0h96v94.8h-96zm98 0h96v94.8h-96zm98 0h96.1v94.8h-96zm0-2v-94.8h96.1v94.8zm0-96.8v-94.8h96.1v94.8zm0-96.8v-94.7h96.1v94.7zm0-96.7v-94.8h96.1v94.8zm0-96.8v-94.8h96.1v94.8zm0-96.8V2130h96.1v94.8zm0-96.8v-94.7h96.1v94.7zm0-96.7v-94.8h96.1v94.8zm0-96.8v-94.8h96.1v94.8zm0-96.8V1743h96.1v94.8zm0-96.8v-94.7h96.1v94.7zm0-96.7v-94.8h96.1v94.8zm0-96.8v-94.8h96.1v94.8zm0-96.8v-94.8h96.1v94.8zm0-96.8v-94.7h96.1v94.7zm0-96.7v-94.8h96.1v94.8zm0-96.8v-94.8h96.1v94.8zm0-96.8v-94.8h96.1v94.8zm0-96.8V872h96.1v94.7zm0-96.7v-94.8h96.1V870zm0-96.8v-94.8h96.1v94.8zm0-96.8v-94.8h96.1v94.8zm0-96.8V485h96.1v94.7zm0-96.7V388h96.1v94.8zm0-96.8v-94.8h96.1v94.8zm0-96.8v-94.8h96.1v94.8zm-2-191.5v94.7h-96V97.8zm-98 0v94.7h-96V97.8zm-98 0v94.7h-96V97.8zm-98 0v94.7h-96V97.8zm-98 0v94.7h-96.1V97.8zm-98.1 0v94.7h-96V97.8zm-98 0v94.7h-96V97.8zm-98 0v94.7h-96.1V97.8zm-98.1 0v94.7h-96V97.8zm-98 0v94.7h-96.1V97.8zm-98.1 0v94.7h-96V97.8zm-98 0v94.7h-96V97.8zm-98 0v94.7h-96.1V97.8zm-98.1 0v94.7h-96V97.8zm-98 0v94.7h-96.1V97.8zm-98.1 0v94.7h-96V97.8zm-98 0v94.7h-96V97.8zm-98 0v94.7h-96.1V97.8zm-98.1 0v94.7h-96V97.8zm-98 0v94.7H2746V97.8zm-98.1 0v94.7h-96V97.8zm-98 0v94.7h-96V97.8zm-98 0v94.7h-96V97.8zm-98.1 0v94.7h-96V97.8zm-98 0v94.7h-96.1V97.8zm-98.1 0v94.7h-96V97.8zm-98 0v94.7h-96V97.8zm-98 0v94.7h-96.1V97.8zm-98.1 0v94.7h-96V97.8zm-98 0v94.7h-96V97.8zm-98 0v94.7h-96.1V97.8zm-98.1 0v94.7h-96V97.8zm-98 0v94.7h-96.1V97.8zm-98.1 0v94.7h-96V97.8zm-98 0v94.7h-96V97.8zm-98 0v94.7h-96.1V97.8zm-98.1 0v94.7h-96V97.8zm-98 0v94.7h-96.1V97.8zm-98.1 0v94.7h-96V97.8zm-98 0v94.7h-96V97.8zm-98 0v94.7h-96.1V97.8zm-98.1 0v94.7h-96V97.8zm-98 0v94.7h-96.1V97.8zm-98.1 0v94.7h-96V97.8zm-98 0v94.7h-96V97.8zm-98 0v94.7H197V97.8zM99 97.8h96v94.7H99zm0 96.7h96v94.8H99zm0 96.8h96v94.8H99zm0 96.8h96v94.8H99zm0 96.8h96v94.7H99zm0 96.7h96v94.8H99zm0 96.8h96v94.8H99zm0 96.8h96V870H99zm0 96.8h96v94.7H99zm0 96.7h96v94.8H99zm0 96.8h96v94.8H99zm0 96.8h96v94.8H99zm0 96.8h96v94.7H99zm0 96.7h96v94.8H99zm0 96.8h96v94.8H99zm0 96.8h96v94.8H99zm0 96.8h96v94.7H99zm0 96.7h96v94.8H99zm0 96.8h96v94.8H99zm0 96.8h96v94.8H99zm0 96.8h96v94.7H99zm0 96.7h96v94.8H99zm0 96.8h96v94.8H99zm0 96.8h96v94.8H99zm0 96.8h96v94.7H99zm0 96.7h96v94.8H99zm0 96.8h96v94.8H99zm0 96.8h96v94.8H99zm0 191.5v-94.7h96v94.7zm98 0v-94.7h96.1v94.7zm98.1 0v-94.7h96v94.7zm98 0v-94.7h96.1v94.7zm98.1 0v-94.7h96v94.7zm98 0v-94.7h96v94.7zm98 0v-94.7h96.1v94.7zm98.1 0v-94.7h96v94.7zm98 0v-94.7h96v94.7zm98 0v-94.7h96.1v94.7zm98.1 0v-94.7h96v94.7zm98 0v-94.7h96.1v94.7zm98.1 0v-94.7h96v94.7zm98 0v-94.7h96v94.7zm98 0v-94.7h96.1v94.7zm98.1 0v-94.7h96v94.7zm98 0v-94.7h96.1v94.7zm98.1 0v-94.7h96v94.7zm98 0v-94.7h96v94.7zm98 0v-94.7h96.1v94.7zm98.1 0v-94.7h96v94.7zm98 0v-94.7h96.1v94.7zm98.1 0v-94.7h96v94.7zm98 0v-94.7h96v94.7zm98 0v-94.7h96.1v94.7zm98.1 0v-94.7h96v94.7zm98 0v-94.7h96.1v94.7zm98.1 0v-94.7h96v94.7zm98 0v-94.7h96v94.7zm98 0v-94.7h96.1v94.7zm98.1 0v-94.7h96v94.7zm98 0v-94.7h96v94.7zm98 0v-94.7h96.1v94.7zm98.1 0v-94.7h96v94.7zm98 0v-94.7h96.1v94.7zm98.1 0v-94.7h96v94.7zm98 0v-94.7h96v94.7zm98 0v-94.7h96.1v94.7zm98.1 0v-94.7h96v94.7zm98 0v-94.7h96.1v94.7zm98.1 0v-94.7h96v94.7zm98 0v-94.7h96v94.7zm98 0v-94.7h96.1v94.7zm98.1 0v-94.7h96v94.7zm98 0v-94.7h96.1v94.7zm98.1 0v-94.7h96v94.7zm98 0v-94.7h96v94.7zm98 0v-94.7h96.1v94.7zm194.2 0h-96v-94.7h96zm0-96.7h-96v-94.8h96zm0-96.8h-96v-94.8h96zm0-96.8h-96v-94.8h96zm0-96.8h-96v-94.7h96zm0-96.7h-96v-94.8h96zm0-96.8h-96v-94.8h96zm0-96.8h-96V2130h96zm0-96.8h-96v-94.7h96zm0-96.7h-96v-94.8h96zm0-96.8h-96v-94.8h96zm0-96.8h-96V1743h96zm0-96.8h-96v-94.7h96zm0-96.7h-96v-94.8h96zm0-96.8h-96v-94.8h96zm0-96.8h-96v-94.8h96zm0-96.8h-96v-94.7h96zm0-96.7h-96v-94.8h96zm0-96.8h-96v-94.8h96zm0-96.8h-96v-94.8h96zm0-96.8h-96V872h96zm0-96.7h-96v-94.8h96zm0-96.8h-96v-94.8h96zm0-96.8h-96v-94.8h96zm0-96.8h-96V485h96zm0-96.7h-96V388h96zm0-96.8h-96v-94.8h96zm0-96.8h-96v-94.8h96zm0-96.8h-96V97.8h96z" style="fill:#fff;opacity:.61"/><path d="M5000 1950v1050H0V1717.2q45.7-7.6 95-7.7c170.3 0 314.4 71.9 362.7 170.8 32-16 69.2-25 108.7-25 39 0 75.6 8.8 107.3 24.3 39-80.6 137.3-137.9 252.4-137.9 56.4 0 108.7 13.8 152 37.3 71.2-121 220.9-204.3 394.1-204.3 200.2 0 369 111.3 421.4 263.2a464 464 0 0 1 166.9-30.3c109 0 207.1 36 274.8 93.3 69.7-188.2 296.8-326.2 566.2-326.2 324.9 0 588.3 200.7 588.3 448.1l-.2 10c43-49 114.6-68.2 178.9-56a314 314 0 0 1-19.4-108.7c0-195 179.7-353.1 401.4-353.1 216.6 0 393.1 151 401 339.9 115.2-12.6 237.5 69.2 262.5 184a997 997 0 0 1 286-89" style="fill:#fff;opacity:.45"/><path d="M5000 2228.9V3000H0v-943.3c57 14.4 99.3 60.4 106.2 153.5 91.6-35.2 206.5 11.7 247.3 100.9 98.8-41.7 224.7-3.8 284.1 85.5 7.9-124 167.8-209.1 275.1-146.4 132.4-176.5 455.5-140.6 546 60.6 104.3-40.5 230.8-9.9 309 69.1 35.4-45.4 101.8-76 177.9-76 46.3 0 89 11.4 123.4 30.5a177 177 0 0 1 62.7-48c71.6-32.2 163.3-11.3 213.9 48.7 23.7-94.7 114.2-168.5 211.8-172.6 97.5-4.2 194 61.6 225.7 154 97.5-53.8 237.8 41.8 223.6 152.3 133-84.9 331.4-41 416.2 92.1 13.3-70.8 73.8-127.6 143-144.8a217.5 217.5 0 0 1 376.8-195.6c31.3-78.6 110.8-137.6 196-140.7 97.5-3.6 193 66.3 219 160.4 78-117.4 296.5-77.3 327.9 60.1 33-95.7 187.4-114.7 242.8-30q34.1-24 71.6-41.4" style="fill:#fff;opacity:.72"/><path d="M3563 2082c-3.2-.8-6.7-1.5-9.1 1.3-1.6 1.9-3.7 2.2-6 2.1q-1.2.1-1.9-1c-3.4-5.6-9.4-9-15.7-10.3q-4-.8-7.7-2.3-7.5-3.3-14.2-7.8 0 .8.5 1.3 5.9 7.3 14.6 11c3.9 1.6 7.6 4.2 9.4 8 1.4 3-.2 6.3-3.7 6.5-2 .2-3.8-.2-5.7-.3l-2.7-.1-.1.3 1 .8q5 2.7 10.6 2.3a3 3 0 0 1 1.7.4 17 17 0 0 0 21-1 9 9 0 0 1 4.7-2q1.5-.2 3.5-.2-2.3-1.3-4.5-1.6l-1.3-2.2q1.2-.5 2.3-.7 6.5-.9 13.2-.4a11 11 0 0 0 7.2-2.4q1-.4 1-1.8l-2 .4q-8.1 1.7-16.2-.2M2129.4 2566c-3.2-.9-6.7-1.6-9 1.2-1.7 1.8-3.8 2.2-6.1 2.1q-1.3.1-1.9-1a24 24 0 0 0-15.6-10.4q-4-.6-7.7-2.2-7.5-3.3-14.3-7.9 0 .8.5 1.4 6 7.3 14.6 11c3.9 1.6 7.6 4.2 9.5 8 1.3 3-.3 6.3-3.8 6.5q-2.9 0-5.6-.3l-2.8-.1-.1.3 1 .8c3.2 1.8 7 2.4 10.6 2.3a3 3 0 0 1 1.7.4 17 17 0 0 0 21-1 9 9 0 0 1 4.7-2q1.5-.2 3.5-.2-2.2-1.3-4.5-1.6l-1.3-2.2q1.2-.5 2.3-.7 6.6-1 13.2-.5a11 11 0 0 0 7.2-2.3q1-.5 1-1.8l-2 .3q-8.1 1.9-16.1-.2m2506.4-39.2-1.4.5q-5.2 2-10.7 1.3c-2.1-.2-4.5-.4-5.9 1.7q-1.3 1.9-3.8 2-.7.1-1.3-.5c-2.7-3.4-7-5.1-11.3-5.4q-2.7-.1-5.3-.8-5.3-1.5-10.2-3.8 0 .5.5.8 4.5 4.3 10.7 6c2.7.6 5.4 2 7 4.4 1.1 1.8.4 4.1-2 4.6q-1.8.3-3.7.3l-1.8.2v.2l.7.5q3.5 1.3 7.2.5h1.2c5 2.7 10.8 1 13.8-2.5a6 6 0 0 1 3-1.8l2.2-.5a9 9 0 0 0-3.1-.6l-1-1.4q.6-.4 1.4-.6 4.2-1.3 8.7-1.6 2.7-.3 4.5-2.2.7-.3.6-1.3m-2743.3-611.4.8-1-.2-.2c-5 1-9.8 1.3-14.7 0-2.6-.6-4.6-1.2-6.6.9a6 6 0 0 1-4.7 1.9q-1.1.1-1.8-1a18 18 0 0 0-12-8q-3.2-.6-6.2-1.8a96 96 0 0 1-11.4-6.2c1.7 3.9 7.9 8 11.7 9.6q3 1.3 5.4 3.4 1.5 1.2 2.3 3c1.1 2.7-.4 5-3.3 5.2-2.3 0-4.2-.4-6.5-.3 2.5 2.4 6 2.6 9.3 2.6q.8 0 1.6.5 3.3 2.3 7.3 2.3 5 0 8.8-3a8 8 0 0 1 5.6-2h1q-1.8-1-3.5-1.3l-1-1.8q1.5-.4 3.2-.6l5.8-.3h4.4q2.7 0 4.7-1.9m2430.5 3.8q-1.5-1-2.8-2.2t.5-2.1c.4-.2 1-.2 1.2-.8a22 22 0 0 0-16.5 1.6 47 47 0 0 1-18.1 3.4c2.4 2.3 5.2 2.9 8.5 2.8a26 26 0 0 0-6.7 14l.6-.1c5.7-3.1 10.8-7 14-13q1.1-2.2 3.7-2.5a14 14 0 0 1 6.7 1.5q1.6.6 2.5 2.2.4.8 1.2 1.5c3.5 3.8 7.4 7.5 9.6 12.2l1.9 4.7.3.1c1.7-3.8 1.5-8 .8-12-1-4.8-3-8.8-7.4-11.3m-3227.7 347.4-2.7-2c-2.7-2.1-2.7-2.6.6-4-4.6-2-11.3-.8-15.8 1.1q-7.4 3.4-15.6 3.7l-3.5.3q3.8 2.8 8.4 2.7c-3.7 4-5.6 8.8-6.6 14l.5-.1a31 31 0 0 0 14-13q1.5-2.5 4.4-2.6 4 .2 7.4 2.2l.5.5c1.1 2 3 3.5 4.5 5.2a32 32 0 0 1 8.9 14.4c.8-.8 1-1.4 1.3-2.8q1.3-7.2-1.7-14-1.4-3.6-4.6-5.6m1884.8 146.3q-2.3-1.4-4.4-3.5c-1.4-1.5.7-2 2-2.6l-1-.4a24 24 0 0 0-15.3 1.7q-7 3-14.5 3.4l-4 .3a9 9 0 0 0 3.9 2.2l4.4.7a25 25 0 0 0-6.5 13.7h.4a31 31 0 0 0 14-12.9q1.4-2.6 4.5-2.7 4 .2 7.5 2.3l.4.5 3.4 4.1c4.9 5.4 7.8 8.1 10 15.4q1.1-1.5 1.3-3.1.9-6.8-1.5-13.2-1.4-3.6-4.6-6M414.9 1998q-3.3-2-6-4.6c-2-2 1-2.8 2.7-3.6l-1.2-.6c-7-1.8-14.5-.6-21 2.3a57 57 0 0 1-19.8 4.7l-5.4.4q2.6 2.3 5.3 3l6 1c-5 4.7-7.9 12-9 18.7l.7-.1a42 42 0 0 0 19-17.5 6 6 0 0 1 6.2-3.7c3.7 0 7 1.4 10.2 3l.6.8 4.6 5.6c6.6 7.4 10.7 11 13.5 21a8 8 0 0 0 1.9-4.3q1.3-9.2-2-18a16 16 0 0 0-6.3-8m311.5 705q-2.3-1.5-4.5-3.4c-1.4-1.5.8-2.1 2-2.7l-.8-.4a24 24 0 0 0-15.4 1.7q-7 3-14.5 3.4-1.9 0-4 .4a9 9 0 0 0 3.9 2q2 .5 4.4.8a25 25 0 0 0-6.6 13.8l.5-.1a31 31 0 0 0 14-12.9q1.4-2.7 4.5-2.6 4 .2 7.4 2.2l.5.5 3.4 4.1c4.9 5.5 7.8 8.2 10 15.5q1-1.5 1.3-3.2.9-6.8-1.5-13.1-1.4-3.8-4.6-6" style="fill:#252525"/></svg>