<svg xmlns="http://www.w3.org/2000/svg" viewBox="1549.2 563.5 698.7 870.2"><path d="M2011.74 1239.63c11.39 27.44 5.46 61.23-14.56 83.14-20.02 21.95-53.14 30.86-81.5 22.01 3.15 23.32-13.51 41.66-33.02 49.23-19.5 7.57-41.23 6.44-62.02 3.82a463 463 0 0 1-107.5-27.14c-25.7-9.89-51.49-22.89-68.03-44.92-15.08-20.09-20.9-46.83-15.6-71.36a89.2 89.2 0 0 1 43.71-58.55c-56.5-83.8-88.18-180.69-90.77-278.48-1.47-55.46 7.05-113.33 38.21-159.2 31.16-45.88 89.03-76.61 143-68.98 3.02-36.05 40.84-57.9 75.17-69.26a457 457 0 0 1 213.81-17.36c35.59 5.64 71.18 15.8 100.85 36.23s52.95 52.16 56.89 87.96-14.62 74.69-47.1 85.07c20.94 35.52 24.85 80.6 10.32 119.22 22.59 4.67 37.88 27.65 40.23 50.57s-5.65 45.66-15.23 66.6c-35.62 77.62-95.75 143.82-186.86 191.4" style="fill:#f2e9e1"/><path d="M2008.9 1158.17c-24.02 23.1-51.58 42.12-79.3 60.62-35.34 28.5-78.65 35.89-116.37 23.96-27.72-8.76-51.56-26.98-72-47.65-68.2-68.98-102.28-166.47-108.66-263.25-2.57-38.86-.77-79.08 15.01-114.67s47.8-65.87 86.44-70.81c42.37-5.4 82.29 19.29 115.1 45.66 46-47.19 120.1-64.56 182.28-42.76a158 158 0 0 1 30.67 14.5 145.3 145.3 0 0 1 56.6 65.31c17.57 40.5 13.7 86.84 3.44 129.78-17.22 71.91-89.19 176.2-113.2 199.3" style="fill:#ec707a"/><path d="M2051.18 999.49a133.3 133.3 0 0 1 56.4-39.29c12.03-4.33 27.87-5.83 35.4 4.52 6.54 8.97 2.78 21.58-2.1 31.56a181.6 181.6 0 0 1-86.13 84.06c-28.36 13.06-63.21 18.04-89.92 1.86-18.44-11.17-30.37-31.01-35.9-51.86-8.54-32.17-7.26-98.16 18.29-114.3 24.26-15.32 47.74 38.64 45.66 71.11 5.19-20.54 16-39.64 30.92-54.66 5.16-5.19 11.9-10.23 19.07-8.8 8.76 1.78 12.76 11.97 14.2 20.8 3.02 18.76 1.43 38.33-5.9 55" style="fill:#f5a1a6"/><path d="M1952.04 1237.62c-17.15-51.74-35.31-105.24-72.73-144.86-6.02-6.38-12.85-12.51-21.3-14.77s-18.87.64-22.69 8.51c-2.71 5.65-1.58 12.34-.09 18.44 15.14 61.62 61.05 114.91 116.81 132.68" style="fill:#969e38"/><path d="M1684.18 813.58c-12.94 17.42-20.48 38.67-22.04 60.28-.36 6.28-.67 12.72.61 18.92.58 2.29 2.47 4 4.7 4.7 8.03 1.59 9.28-6.26 8.43-12.36-.22-9.98.45-15.23 1.55-21.4 3.3-19.25 9.98-28.47 19.66-45.69 1.43-7.3-9.4-10.99-12.91-4.45m-5.71 112.99a7 7 0 0 0-2.04-4.95c-4.1-4.4-12.12-1.07-11.94 4.95 1.13 5.64-.15 14.07 6.53 16.39a6.5 6.5 0 0 0 7.94-4.52c1.22-3.87-.25-7.94-.49-11.87m399.93-107.01c-5.8-1.8-11.1 5.13-7.9 10.25 8.76 13.4 9.98 25.92 15.6 43.38 2.46 3.63 8.42 3.14 10.52-.65 4.06-8.97-9.06-49.44-18.22-52.98m-108.47 183.41c-2.48-7-13.65-4.67-13.37 2.68.58 5.46-1.07 12.79 3.3 16.91 2.4 2.1 6.68 1.56 8.48-1.1 2.01-2.69 1.62-6.44 2.07-9.61-.18-2.93.74-6.14-.48-8.88m40.8 10.07c-2.84-5.25-11.35-4.15-12.79 1.68-1.55 5.1-3.81 10.1-4.3 15.44-.88 6.53 8.24 9.86 11.54 4.06 2.47-3.57 3.5-8 5-12.03 1.04-2.96 2.45-6.25.55-9.15m39.47 13.76c-1.4-5.8-9.92-6.93-12.8-1.68-2.46 4.3-7.84 8.37-6.58 13.83 1.25 4.91 7.87 6.68 11.38 3.02 2.9-4.73 9.28-9.06 8-15.17" style="fill:#fff7ed"/><path d="M2004.08 1097.77c-15.57 0-29.91-3.67-42.03-11.02-18.19-11.02-31.8-30.58-38.3-55.03-8.28-31.17-8.49-101.82 20.57-120.2 7.35-4.64 15.29-4.7 22.95-.15 13.74 8.15 24.36 30.06 28.78 51.3a124 124 0 0 1 23.93-33.93c8.4-8.46 16.2-11.82 23.93-10.26 9.52 1.92 16.09 10.87 18.4 25.15a112 112 0 0 1 0 37.05 138 138 0 0 1 43.5-25.45c18.28-6.6 33.82-4.21 41.54 6.4 6.56 9.01 6.01 21.5-1.65 37.06a185.7 185.7 0 0 1-88.7 86.56c-18.25 8.3-36.29 12.52-52.92 12.52m-48.26-179.1q-2.91-.01-5.8 1.86c-21.85 13.82-24.75 75.3-15.96 108.44 5.8 21.8 17.67 39.07 33.52 48.65 10.43 6.32 39.58 18.74 84.9-2.13a175 175 0 0 0 83.6-81.56c3.98-8.06 7.64-19.14 2.6-26.07-5.58-7.69-18.8-6.4-29.27-2.62a127 127 0 0 0-54.15 37.7 5.34 5.34 0 0 1-8.97-5.58c6.56-14.9 8.52-33.37 5.46-52.02-.58-3.48-2.96-14.99-9.98-16.42-3.87-.76-8.64 1.68-14.22 7.32a114 114 0 0 0-29.55 52.23 5.34 5.34 0 0 1-10.53-1.65c1.53-23.9-11.69-58-25.66-66.26a11 11 0 0 0-5.99-1.9" style="fill:#511239"/><path d="M2120.22 962.52q-1.01.01-2.02-.4a5.3 5.3 0 0 1-2.93-6.95c19.87-48.9 11.17-128.47-37.5-171.78-45.21-40.23-116.39-49.66-173.07-22.9-54.97 25.95-94.28 83.42-100.17 146.42a5.34 5.34 0 0 1-10.62-.98c6.22-66.69 47.92-127.55 106.24-155.08 60.44-28.5 136.4-18.4 184.72 24.57 52.16 46.43 61.56 131.55 40.32 183.8a5.4 5.4 0 0 1-4.97 3.3m-174.01 255.72a5.33 5.33 0 0 1-3.51-9.37c.86-.77 86.9-76.16 121.14-135.86a5.34 5.34 0 1 1 9.28 5.31c-35.13 61.26-119.8 135.46-123.37 138.6a5.6 5.6 0 0 1-3.54 1.32" style="fill:#511239"/><path d="M1852.84 1253.8q-5.52 0-11.41-.5c-29.85-2.5-60.44-17.33-90.93-44.1-70.32-61.71-113.84-157.5-122.6-269.66-3.97-50.97.91-89.95 15.44-122.67 18.65-42.06 55.98-72.12 95.1-76.64 36.54-4.21 76 11.72 117.3 47.31a5.36 5.36 0 0 1-6.99 8.09c-38.94-33.58-75.63-48.65-109.08-44.8-35.47 4.08-69.47 31.7-86.6 70.35-13.76 31.04-18.37 68.4-14.55 117.5 8.54 109.4 50.82 202.61 119 262.46 28.75 25.22 57.26 39.2 84.8 41.48 36.56 3.06 60.37-10.1 76.14-18.8l3.15-1.7a5.33 5.33 0 1 1 5.1 9.36l-3.09 1.71c-14.28 7.9-37.26 20.57-70.78 20.6m97.98 52.26h-.06a5.33 5.33 0 0 1-5.28-5.4 664 664 0 0 1 36.38-211.4 5.35 5.35 0 0 1 10.1 3.51 654 654 0 0 0-35.8 208c0 2.9-2.41 5.29-5.34 5.29" style="fill:#511239"/><path d="M1952.04 1242.96q-.83-.01-1.62-.24c-57.26-18.26-104.48-71.82-120.35-136.5-1.77-7.26-2.96-14.96.46-22.04 5.28-10.95 18.8-14.04 28.85-11.35 9.95 2.65 17.6 9.7 23.8 16.27 38.92 41.2 57.54 97.33 73.93 146.84a5.4 5.4 0 0 1-5.07 7.02m-99.78-160.36c-4.94 0-10.1 2.01-12.15 6.22-1.95 4.03-1 9.53.31 14.84 13.83 56.31 54.51 105.24 103.04 125.14-15.26-45.75-33.45-95.72-68.06-132.4-5.16-5.47-11.42-11.33-18.8-13.28a18 18 0 0 0-4.34-.52" style="fill:#511239"/><path d="M1814.78 739.8q-2.12 0-4.12-1.06c-4-2.17-6.32-7.15-7.17-11.08-1.59-7.54-2.41-16.64-2.63-25.89a4.56 4.56 0 0 1-.06-7.05c.06-9.3.67-18.43 1.59-26.03.64-5.37 3.84-9.59 8.15-10.78a8.5 8.5 0 0 1 9.12 3.09c2.45 3.17 5.07 10.71-3.17 26.58a242 242 0 0 0 26.7-15.1 12.4 12.4 0 0 1 5.35-3.33 4.6 4.6 0 0 1 4.51 1c2.32-.09 4.74.34 7.06 1.32 5 2.07 8.72 6.25 9.98 11.14 2.29 8.91-3.24 19.01-12.33 22.55-4.64 1.8-9.37 1.62-12.95-.54-4.67-2.81-6.99-8.34-6.83-16.4q0-.9.06-1.76a257 257 0 0 1-21.89 11.41 25 25 0 0 1 8.55 10.4c3.27 7.46 2.96 16.7-.82 24.76-.98 2.08-2.66 4.98-5.96 6.26-1.03.3-2.07.51-3.14.51m-4.64-34.97c.3 7.57 1.01 14.83 2.32 20.9a10 10 0 0 0 2.3 4.77c.14-.22.42-.61.82-1.4 2.68-5.69 2.93-12.1.73-17.2a16 16 0 0 0-6.17-7.07m38.5-24.3c-1.05 2.1-1.47 5.07-1.54 7.81-.06 4.43.8 7.39 2.42 8.4 1.1.67 2.99.6 4.91-.16 4.73-1.83 7.9-7.32 6.78-11.72-.55-2.1-2.32-4-4.67-4.97-1.99-.83-3.97-.83-5.47.06-.76.4-1.58.64-2.44.58m-36.03-13.58c-.4.4-.94 1.28-1.12 2.8-.3 2.66-.61 5.53-.83 8.58 2.66-6.59 2.41-10.16 1.95-11.38m73 29.94q-.27 0-.53-.03c-5.12-.3-8.9-4.73-10.13-11.84-2.17-12.52-1.22-29.36 2.41-42.86a4.6 4.6 0 0 1 5.62-3.23 4.6 4.6 0 0 1 3.23 5.62c-3.32 12.33-4.2 27.59-2.23 38.91.5 2.75 1.4 4.09 1.74 4.3.03-.03.5-.12 1.87-1.12a66 66 0 0 0 12.73-12.4 30 30 0 0 1-.8-5.77c-.64-12.85 5.83-37.2 14.44-40.74 2.93-1.2 5.86-.8 8.06 1.1 4.27 3.69 3.9 11.8 3.05 15.16a97 97 0 0 1-14.47 31.72 5 5 0 0 0 2.14 2.01c1.7.82 4.12.43 5.8-.06a21.7 21.7 0 0 0 11.44-8.06 30 30 0 0 1 5.07-13.12c1.19-1.71 3.36-2.41 5.31-1.71a4.3 4.3 0 0 1 1.92 1.34q.49-.36 1.07-.58a52 52 0 0 1 17.03-3.45c1.99-.06 4.34.03 6.53 1.22 6.02 3.24 5.16 9.77 4.58 14.1-.3 2.32-.6 4.7-.09 6.05.27.7.98 1.1 1.53 1.31 1.3.52 2.99.52 4.27-.06 2.5-1.1 4.7-3.66 6.93-8.03q.72-1.43 1.4-2.87c1.65-3.42 3.33-6.99 6.04-10.13a4.57 4.57 0 0 1 7.76 4.58 49 49 0 0 0-3.09 17.09c0 3.39.77 4.12.92 4.21.58.43 2.53 0 4.45-1.31a21.5 21.5 0 0 0 8.7-20.6c-.42-2.5 1.25-4.86 3.76-5.28s4.85 1.25 5.28 3.75a30.5 30.5 0 0 1-12.52 29.64c-5.3 3.66-11.08 4.12-15.07 1.16-3.12-2.3-4.16-5.86-4.46-8.55a19 19 0 0 1-6.32 4.64 15 15 0 0 1-11.41.15 11.7 11.7 0 0 1-6.57-6.4c-1.43-3.58-.94-7.33-.48-10.66.21-1.56.55-4.15.18-4.82a6 6 0 0 0-1.92-.12q-4.13.12-8.15 1.04a19.6 19.6 0 0 1 1.34 11.41c-1.19 6.9-5.62 12.42-11.54 14.44q-3.77 1.26-6.71-.03c-3.48-1.59-4.49-5.16-4.82-6.41a30 30 0 0 1-9.77 4.79c-4.64 1.28-8.73 1.13-12.15-.49a13 13 0 0 1-4.03-2.93 72 72 0 0 1-11.84 10.93c-1.37 1-4.09 2.99-7.5 2.99m53.25-24.02q-.12 3.22.7 6.35l.04.15c3.11-1.19 4.73-4.49 5.22-7.23.45-2.63.09-6.08-2.17-8.27a31 31 0 0 1-3.79 9m-22.55-35.5c-2.57 3.66-6.26 13.89-7.39 23.44a89 89 0 0 0 7.24-19.04c.3-1.25.33-3.02.15-4.4m210.9 102.25q-4.3 0-7.07-2.53c-4.37-4.03-3.27-10.53-.25-15.17 1.37-2.14 2.93-4 4.46-5.8a51 51 0 0 0 3.72-4.8c2.08-3.14 2.8-6.31 1.99-8.48a3.7 3.7 0 0 0-2.42-2.01c-.24-.06-.85-.19-1.19.06-.6.52-1.13 1.92-1.64 3.3l-.22.58c-2.75 7.41-7.08 12.36-12.51 14.31a14.2 14.2 0 0 1-12.82-2.04 10.9 10.9 0 0 1-4.67-9.31c.15-3.42 1.86-6.17 3.36-8.18q.68-.92 1.37-1.77-8.51 1.29-16.9 3.08c-7.3 9.5-16.19 18.34-27.82 23.35-2.47 1.07-5.76 2.17-9.21 1.19a10 10 0 0 1-6.66-6.38 13.2 13.2 0 0 1 1.4-11.66c3.33-4.85 8.77-6.87 13.62-8.4 7.7-2.4 15.5-4.54 23.38-6.31 1.86-2.53 3.6-5.13 5.28-7.66a54 54 0 0 1-9.7 3.2c-2.63.61-5.74 1.07-8.89 0-6.96-2.4-9.37-10.8-7.23-17.18 1.86-5.56 6.16-9.37 9.61-12.45a4.59 4.59 0 0 1 6.07 6.87c-2.77 2.47-5.95 5.27-7.01 8.5-.74 2.24.03 5.1 1.52 5.63.98.33 2.57.03 3.85-.25a47.4 47.4 0 0 0 25.18-15.23 4.56 4.56 0 0 1 7.32 5.43l-8.48 13.37a396 396 0 0 1-4.64 7.2q11.96-2.15 24.05-3.29a4.55 4.55 0 0 1 2.5 8.6 32 32 0 0 0-11.29 9.62c-.37.52-1.53 2.08-1.59 3.18-.03.64.52 1.19.98 1.52a5 5 0 0 0 4.3.77c3.55-1.26 5.77-5.53 7.02-8.89l.22-.55c.82-2.28 1.9-5.12 4.42-7.2a10.3 10.3 0 0 1 9.34-1.83 12.9 12.9 0 0 1 8.61 7.63c1.9 4.98.86 11.11-2.87 16.76a59 59 0 0 1-4.33 5.61 52 52 0 0 0-3.79 4.92c-1.03 1.58-1.3 3.11-1.16 3.57.03-.03.25.03.7.03.4 0 .98-.03 1.78-.18a24.3 24.3 0 0 0 17.24-13.56 4.6 4.6 0 0 1 6.08-2.25 4.6 4.6 0 0 1 2.25 6.07 33.6 33.6 0 0 1-23.83 18.74 29 29 0 0 1-3.42.27m-60.24-35.04q-5.29 1.43-10.5 3.08c-3.55 1.13-7.15 2.42-8.83 4.86a4 4 0 0 0-.36 3.32c.06.19.24.61.52.7q.84.23 3.17-.79c6.01-2.56 11.3-6.53 16-11.17m116.88 51.71a4.5 4.5 0 0 1-2.9-1.04c-2.2-1.83-3.66-4.1-4.97-6.1-1.25-1.96-2.35-3.67-3.73-4.37-3.05-1.59-7.9 1.65-9.34 2.68l-2.07 1.56c-3.7 2.81-7.85 5.98-13.28 6.6a4.55 4.55 0 0 1-4.64-2.6 4.6 4.6 0 0 1 .95-5.25l14.74-14.34a4.55 4.55 0 0 1 7.66 2.32c3.7-.95 7.2-.65 10.23.94 3.5 1.83 5.43 4.85 7.17 7.51 1.04 1.59 1.98 3.11 3.11 4.03a4.56 4.56 0 0 1 .61 6.44 4.7 4.7 0 0 1-3.54 1.62m-312.2 606.38c-8.25 0-15.94-3.15-21.13-8.67a27.6 27.6 0 0 1-6.62-12.4 54 54 0 0 1-18 10.3c-2.14.7-4.7 1.37-7.49.82a10.3 10.3 0 0 1-6.95-4.95c-2.08-3.48-2.45-8.42-1.01-13.24.6-2.08 2.07-6.93 2.5-9.98-1.7.24-4.3.45-6.74-.65-.55 1.22-1.07 2.54-1.47 3.48-1.25 3.03-2.04 4.98-2.87 6.23-5.5 8.55-18.37 13.7-28.05 7.48-2.8-1.8-4.67-4.76-5.43-8.42-3.51 1.19-7.57 1-10.93-.55a11.3 11.3 0 0 1-6.07-6.41 20 20 0 0 1-7.94 2.16c-10.77.37-23.2-6.01-26.12-17.15-2.3.1-4.43.15-6.17.34-7.6.76-13.06-.95-16.27-5.04-4.3-5.5-2.53-12.09-1.07-17.4.68-2.47 1.32-4.85 1.35-6.77a50.6 50.6 0 0 0-27.72 18.13 4.58 4.58 0 0 1-7.66-4.95 313 313 0 0 1 23.35-36.96c-6.71-2.62-12.88-7.5-16.45-13.4a4.57 4.57 0 1 1 7.81-4.76c2.93 4.82 8.73 8.91 14.47 10.44q4.22-5.4 8.67-10.62c3.33-3.91 9.34-7.42 14.44-6.57a8.3 8.3 0 0 1 6.44 5.22c1.5 4 .85 8.1-1.74 11.57-5.16 6.9-16.82 10.26-23.75 10.2a309 309 0 0 0-12.15 17.33 59 59 0 0 1 16.64-5.43 4.6 4.6 0 0 1 4.52 1.9c3.84 5.49 2.07 11.93.67 17.08-1.25 4.64-1.93 7.6-.58 9.34 1.43 1.83 5.25 1.87 8.18 1.59 2.2-.21 4.76-.3 7.44-.4 2.6-7.02 10.01-13.37 16.49-14.37 5.67-.89 10.1 2.26 11.26 8.02.88 4.25-.55 7.18-1.9 8.86-3.32 4.2-9.76 5.61-16.69 6.2 2.66 5.36 9.95 8.66 16.2 8.45 2.63-.1 5.93-2.02 9.4-4.28q.8-1.37 1.84-2.65c4.94-5.83 13.73-8.55 24.11-7.42a4.6 4.6 0 0 1 4.06 4.88q0 .23-.06.46c.82.28 1.56.83 2.14 1.53a4.6 4.6 0 0 1 .24 5.22 67 67 0 0 1-7.45 9.55q-.1.44-.15.89c-.43 3.02.18 5.61 1.46 6.44 4.92 3.17 12.3.06 15.39-4.74.4-.64 1.37-2.99 2.07-4.73 2.9-7.08 4.64-11.32 8.76-11.5a5.2 5.2 0 0 1 4.86 2.93c.12.24.21.3.21.33.24.03 1.4-.15 2.1-.24 2.05-.3 4.86-.76 7.3 1.16q2.36 1.84 2.66 5.46c.27 3.42-.92 8.34-2.96 15.17-.68 2.26-.64 4.7.09 5.92.24.4.49.55.94.64.7.16 2.14-.33 2.75-.52 8-2.65 15.08-7.66 20.45-14.1 1.16-7.14 4.7-13.49 9.95-17.73a4.58 4.58 0 0 1 7.26 4.88 54 54 0 0 1-8.39 16.46c-.4 5.8 1.44 11.26 4.95 15.01 3.54 3.76 8.88 5.9 14.7 5.8 5.8-.06 11.12-2.29 14.6-6.07a4.58 4.58 0 0 1 6.77 6.16c-5.19 5.71-12.94 9-21.27 9.1-.03-.06-.15-.06-.25-.06m-111.72-42.06q-.2 1 .06 1.92c.16.52.58.98 1.32 1.28 1.37.64 3.26.61 4.64 0 .91-.43 2.1-1.34 3.35-2.53a22 22 0 0 1 4.1-7.33c-4.8 1.07-9.2 3.85-13.47 6.66m-23.8-24.45c-.52 0-2.57.43-5.16 2.53a16 16 0 0 0-2.29 2.23c3.6-.43 6.75-1.16 7.78-2.47.1-.12.3-.4.12-1.34a2 2 0 0 0-.33-.92q-.09-.04-.12-.03m-26-53.96c-1.26.21-3.8 1.46-5.5 3.44q-1.59 1.85-3.15 3.73c3.36-1.2 6.44-2.96 7.94-4.94.67-.9.82-1.56.7-2.23" style="fill:#e35a26"/><path d="M1874.85 1326.96q-.33.01-.61-.04l-36.35-4.94a4.58 4.58 0 0 1 1.25-9.06l36.35 4.94a4.56 4.56 0 0 1 3.9 5.16 4.6 4.6 0 0 1-4.54 3.94" style="fill:#e35a26"/></svg>