<svg xmlns="http://www.w3.org/2000/svg" viewBox="1410.3 1896 679.4 879.4"><path d="M1513.92 2740.34c72.57 0 270.47-1.43 300.7-2.49 53.34 16.13 92.32-44.9 67.81-101.25 17.54-11.75 174.8-62.15 171.37-105.6-.03-29.62 12.7-82.99-25.58-95.56-.08-.03-147.3-68.56-147.46-71.85-1.41-29.52-39.6-72.33-49.6-93.05 24.38-56.67 7.06-130.05-54.32-128.85-71.34 26.43-45.3-2.54-103.56 8.28 4.07-15.95 5.67-23.63 5.6-38.87 67.48 33.4 158.6-116.32 89.24-166.03-18.24-12.92-42.13-13.72-61.44-2.68a56.8 56.8 0 0 0-34.89-12c-55.3-1.77-70.33 69.9-51 118.54-62.85 29.76-69.49-3.37-107.56 28.75-43.57 42.06.11 141.59 58.54 158.77-15.36-.12-31.47 2.9-42.06 15.24-13.25 20.39-87.22 84.1-83.11 111.2 15.26 69.05-37.86 377.45 67.32 377.45" style="fill:#f5ecdf"/><path d="M1503.1 2702.67a16 16 0 0 0 10.21 3.46c6.65 0 12.36-3.41 12.72-3.63a4.7 4.7 0 0 0-4.9-8.06c-.07.04-7.6 4.47-12.17.84-2.78-2.2-3.95-15.93-2.5-29.38a4.72 4.72 0 0 0-9.38-1.02c-.77 7.14-2.62 30.94 6.02 37.8m45.33-.24h.27c5.97-.08 10.71-2.78 13.35-7.6 4.44-8.11 2.01-20.01-2.69-27.58-3.57-5.74-8.17-8.8-13.17-8.59-10.96.46-16.55 12.17-16.26 22.95.34 12.49 7.76 20.82 18.5 20.82m-1.85-34.34h.06c1.07 0 2.93 1.27 4.7 4.14 3.56 5.71 4.67 13.99 2.44 18.06-.68 1.24-1.88 2.67-5.2 2.71h-.14c-8.34 0-9.03-9.7-9.08-11.65-.17-6.23 2.54-13.07 7.22-13.26m37.19 32.86q.42 0 .74-.03c7.26-.43 13.19-12.45 17.64-35.7a4.71 4.71 0 1 0-9.27-1.78c-2.24 11.73-6.02 23.37-8.66 27.17-2.52-4.1-5.95-16.52-7.86-28.95a4.7 4.7 0 1 0-9.32 1.43c5.47 35.62 13.32 37.86 16.73 37.86m27.9-.02h.13a4.7 4.7 0 0 0 4.71-4.58l1-35.35a4.7 4.7 0 0 0-4.57-4.84h-.14a4.7 4.7 0 0 0-4.7 4.58l-1.01 35.34a4.7 4.7 0 0 0 4.58 4.85m16.42 1 .5-.02a4.7 4.7 0 0 0 4.2-5.18c-1.25-11.93-1.39-23.84-.5-29.45 4.26 5.26 11.49 18.7 16.82 30.6a4.72 4.72 0 0 0 9.01-1.69l1.75-35.84a4.72 4.72 0 0 0-9.42-.46l-.84 17.36c-11.62-21.9-16.92-21.5-19.12-21.33a6.8 6.8 0 0 0-4.67 2.5c-5.03 6.03-3.67 27.2-2.41 39.28a4.7 4.7 0 0 0 4.68 4.23m55.17-.14q.63 0 1.24-.07a11.3 11.3 0 0 0 5.9-2.54 4.7 4.7 0 0 0 4.23 1.27 4.7 4.7 0 0 0 3.62-5.6l-2.64-12.36-.03-.11q-.08-.28-.18-.54l-.12-.34q-.12-.23-.26-.45-.08-.17-.2-.32-.16-.23-.35-.42l-.21-.25q-.33-.3-.69-.54l-.1-.06a5 5 0 0 0-.68-.35l-.28-.09-.57-.16-.39-.05q-.21-.04-.44-.05l-9.77-.23a4.64 4.64 0 0 0-4.72 5.73q-.74-2.23-1.21-5.23c-1.4-9.14.45-13.48 2.47-14.42 2.05-.95 5.56.59 8.17 3.58a4.71 4.71 0 1 0 7.1-6.21c-5.53-6.33-13.27-8.7-19.25-5.92-4.03 1.87-10.4 7.53-7.81 24.4 2.27 14.88 10.25 21.33 17.17 21.33m-2.15-13.84 5.04.12c-.49 2.77-1.7 4.17-2.72 4.28-1.4.18-4.39-1.58-6.45-7.04a4.7 4.7 0 0 0 4.13 2.64m68.79-5.07c5.71-.14 10.18-4.05 13.48-8.7.14 7.09-.81 13.99-3.93 17.4-1.16 1.27-3.27 2.88-8.15 2.22a4.72 4.72 0 0 0-1.27 9.34q1.8.24 3.38.24c6.54 0 10.64-2.85 13-5.45 10.75-11.77 4.96-38.5 4.27-41.5a4.72 4.72 0 0 0-9.13-.26c-2 6.9-7.16 17.17-11.87 17.28-.63.02-.85-.13-1.12-.44-2.15-2.4-2.23-10.22-1.62-14.76a4.71 4.71 0 0 0-9.34-1.29c-.36 2.6-1.86 15.85 3.92 22.33a10.6 10.6 0 0 0 8.38 3.59m46.32 17.69q.4 0 .8-.03c5.45-.27 9.84-3.4 12.37-8.77 5-10.6 2.12-27.95-3.7-35.79-3.82-5.14-8.04-5.36-10.22-5.04-11.52 1.7-17.02 16.67-15.68 30.15 1.18 11.93 7.6 19.48 16.43 19.47m.55-40.29c2.24.8 6.8 11.07 5.54 21.9-.46 3.98-1.84 8.75-5.76 8.95h-.29c-5.7 0-6.9-9.12-7.09-10.97-.93-9.45 2.75-19.07 7.6-19.88m34.26 39.78h.2a14 14 0 0 0 10.23-4.65c8.98-9.7 7.85-32.3 7.7-34.84a4.71 4.71 0 1 0-9.42.59c.5 8.06-.48 22.75-5.2 27.84a4.5 4.5 0 0 1-3.45 1.63 2.1 2.1 0 0 1-1.96-.88c-3.92-4.81-2.36-21.9 0-32.48a4.72 4.72 0 0 0-9.21-2.05c-1.12 5-6.27 30.45 1.9 40.48a11.5 11.5 0 0 0 9.2 4.36" style="fill:#e45825"/><path d="M1817.45 2614.33a2.77 2.77 0 0 1-2.76-3.02l4.57-50.7c.1-1.02.75-1.91 1.7-2.3l74.12-30.84a2.77 2.77 0 0 1 3.82 2.32l3.78 43.7a2.8 2.8 0 0 1-1.6 2.76l-82.48 37.82q-.55.26-1.15.26m-246.84-253.65a2.77 2.77 0 0 1-2.76-2.66l-2.65-71.37a2.77 2.77 0 0 1 2.63-2.87l110.5-5.54c1.25 0 2.35.83 2.68 2.04 6.55 24.13 21.33 64.6 46.6 64.6q1.9 0 3.83-.3c10.35-1.63 21.85-12.1 33.24-30.28a2.78 2.78 0 0 1 5.09 1.87l-6.07 41.54a2.8 2.8 0 0 1-2.73 2.37zm199.89-.63a2.78 2.78 0 0 1-2.74-3.17l9.67-66.28q.06-.39.22-.74a272 272 0 0 0 2.02-4.6 2.77 2.77 0 0 1 4.9-.37l44.49 70.74a2.77 2.77 0 0 1-2.34 4.24zm-268.28.85a2.77 2.77 0 0 1-2.08-4.6l56.59-64.1a2.78 2.78 0 0 1 4.85 1.74l2.36 63.9a2.76 2.76 0 0 1-2.76 2.87zm168.81 265.5a2.77 2.77 0 0 1-2.76-2.84l6.83-256.63a2.77 2.77 0 0 1 2.76-2.7l152.21-.48a2.77 2.77 0 0 1 2.76 3.02l-23.24 257.74a2.77 2.77 0 0 1-2.76 2.52zm29.44-34.73a5.5 5.5 0 1 0 .02 11.01 5.5 5.5 0 0 0-.02-11.01m70.1-2.38a5.5 5.5 0 1 0 .01 11.02 5.5 5.5 0 0 0-.01-11.02m-37.74-41.7a5.5 5.5 0 1 0 .01 11.02 5.5 5.5 0 0 0 0-11.02m51.2-52.22a5.5 5.5 0 1 0 0 11.01 5.5 5.5 0 0 0 0-11.01m-78.11-4.51a5.5 5.5 0 1 0 .01 11.01 5.5 5.5 0 0 0-.01-11.01m37.71-51.12a5.5 5.5 0 1 0 .02 11.01 5.5 5.5 0 0 0-.02-11m-43.17-41.7a5.5 5.5 0 1 0 .01 11.01 5.5 5.5 0 0 0-.01-11.01m93.52-4.88a5.5 5.5 0 1 0 .01 11.02 5.5 5.5 0 0 0-.01-11.02m-294.32 232.44a2.77 2.77 0 0 1-2.76-2.74l-3.18-255.26a2.8 2.8 0 0 1 2.77-2.8l141.33-.45a2.77 2.77 0 0 1 2.77 2.84l-6.37 256.32a2.77 2.77 0 0 1-2.77 2.7zm26.06-34.84a5.5 5.5 0 1 0 .01 11.02 5.5 5.5 0 0 0-.01-11.02m86.1-.08a5.5 5.5 0 1 0 0 11.02 5.5 5.5 0 0 0 0-11.02m-45.22-39.17a5.5 5.5 0 1 0 0 11.01 5.5 5.5 0 0 0 0-11.01m-42.83-43.49a5.5 5.5 0 1 0 .01 11.02 5.5 5.5 0 0 0 0-11.02m79.78-4.9a5.5 5.5 0 1 0 .01 11.02 5.5 5.5 0 0 0-.01-11.01m-44.74-49.6a5.5 5.5 0 1 0 .02 11 5.5 5.5 0 0 0-.02-11m42.84-53.32a5.5 5.5 0 1 0 0 11.02 5.5 5.5 0 0 0 0-11.02m307.35 172.11a2.76 2.76 0 0 1-2.76-2.53l-3.74-43.34c-.1-1.2.58-2.33 1.7-2.8l100.65-41.87a2.77 2.77 0 0 1 3.84 2.68l-1.81 41.6a2.8 2.8 0 0 1-1.62 2.4l-95.1 43.61q-.56.25-1.16.25m-86.04-19.31a2.77 2.77 0 0 1-2.76-3.02l5.18-57.47c.08-.9.6-1.7 1.37-2.15l9.5-5.5a2.8 2.8 0 0 1 2.97.12l51.38 35.49a2.77 2.77 0 0 1-.51 4.83l-66.07 27.49q-.51.21-1.06.21m15.13-74.12q-.84 0-1.57-.5l-8.05-5.55a2.8 2.8 0 0 1-1.1-2.47l5.5-60.87a2.77 2.77 0 0 1 3.81-2.32l68.33 28.26a2.77 2.77 0 0 1 .33 4.96l-65.86 38.1q-.66.39-1.39.38m61.29 42.34q-.85 0-1.57-.5l-52.71-36.4a2.77 2.77 0 0 1 .19-4.68l68.25-39.5a2.8 2.8 0 0 1 2.45-.16l83.71 34.61a2.77 2.77 0 0 1 0 5.12l-99.26 41.3q-.51.2-1.06.2" style="fill:#f9dbce"/><path d="m1631.46 2623.45 39.58.18 6.83-256.63-40.04.13zm293.74-192.28a4.7 4.7 0 0 0-6.45-1.72l-4.5 2.6-10.28 5.96-65.86 38.11-7.94-5.48-.01-.01-.96 10.65-.02.13-1.02 11.37 9.5-5.5 51.39 35.48 6.88 4.76.21 2.5 3.78 43.72.7 8.15a4.7 4.7 0 0 0 5.1 4.3 4.7 4.7 0 0 0 4.3-5.11l-.13-1.54-.87-9.98-3.74-43.34-.15-1.73a4.7 4.7 0 0 0-2.02-3.47l-3.7-2.56-52.71-36.4 68.25-39.51 8.52-4.93q.82-.49 1.36-1.2a4.7 4.7 0 0 0 .36-5.25" style="fill:#f879a5"/><circle cx="1523.78" cy="2513.53" r="8.27" style="fill:#f879a5" transform="rotate(-4.07 1523.57 2513.22)"/><circle cx="1603.56" cy="2508.64" r="8.27" style="fill:#f879a5"/><circle cx="1705.92" cy="2496.36" r="8.27" style="fill:#f879a5" transform="rotate(-4.07 1705.65 2496)"/><circle cx="1784.02" cy="2500.87" r="8.27" style="fill:#f879a5" transform="rotate(-84.35 1783.95 2500.85)"/><circle cx="1732.83" cy="2553.09" r="8.27" style="fill:#f879a5" transform="rotate(-86.44 1732.74 2553.07)"/><path d="M1566.6 2548.75a8.27 8.27 0 1 0 0 16.54 8.27 8.27 0 0 0 0-16.54" style="fill:#f879a5"/><circle cx="1525.73" cy="2596.27" r="8.27" style="fill:#f879a5"/><path d="M1611.82 2587.92a8.27 8.27 0 1 0 0 16.54 8.27 8.27 0 0 0 0-16.54" style="fill:#f879a5"/><circle cx="1700.47" cy="2597.17" r="8.27" style="fill:#f879a5" transform="rotate(-76.71 1700.6 2597.21)"/><path d="M1770.57 2586.52a8.27 8.27 0 1 0 0 16.55 8.27 8.27 0 0 0 0-16.55" style="fill:#f879a5"/><circle cx="1601.65" cy="2405.71" r="8.27" style="fill:#f879a5" transform="rotate(-4.73 1601.3 2405.21)"/><circle cx="1528.96" cy="2404.71" r="8.27" style="fill:#f879a5" transform="rotate(-4.73 1528.62 2404.2)"/><path d="M1567.1 2459.02a8.27 8.27 0 1 0-16.55 0 8.27 8.27 0 0 0 16.55 0m176.53-22.05a8.27 8.27 0 1 0 0 16.54 8.27 8.27 0 0 0 0-16.54" style="fill:#f879a5"/><circle cx="1700.46" cy="2403.54" r="8.27" style="fill:#f879a5" transform="rotate(-7.02 1700.2 2403.2)"/><path d="M1793.98 2390.39a8.27 8.27 0 1 0 0 16.54 8.27 8.27 0 0 0 0-16.54" style="fill:#f879a5"/><path d="M1780.17 2291a262 262 0 0 0 6.41-15.4c13.8-36.19 19.86-74.42 9.96-84.2-19.55-19.3-45.12-10.28-63.17 43.36-19.05-69.93-67.17-54.14-64.67-11.03.77 13.2 3.16 30.49 7.27 47.95q1.1 4.67 2.36 9.32c9.88 36.36 27.38 70.4 53.54 66.3 12.16-1.9 24.4-14.37 35.16-31.53a212 212 0 0 0 13.14-24.77" style="fill:#f53176"/><path d="M1629.1 2090.2c-25.17-8.85-43.6 47.14-43.6 47.14s-23.38-51.03-43.94-30.83 17.72 96.4 50.68 91.8c32.96-4.62 62.02-99.24 36.86-108.1" style="fill:#f879a5"/><path d="M1694.3 2073.2c42.13 5.86 73.01-79.39 50.69-94.98s-45.01 32.25-45.01 32.25-9.22-47.14-34.03-38.63c-24.8 8.5-12.4 95.69 28.36 101.36" style="fill:#fbbbd5"/><path d="m2015.53 2476.02-.08-.26-.12-.42q-.15-.33-.33-.61l-.08-.15a5 5 0 0 0-.83-.95l-.2-.16q-.5-.4-1.12-.68l-87.94-36.36q-.54.7-1.35 1.19l-8.53 4.93 83.71 34.61-99.26 41.3 3.71 2.56a4.7 4.7 0 0 1 2.02 3.47l.15 1.73 100.66-41.87-1.81 41.6-95.1 43.61.86 9.98 100.79-46.22a4.7 4.7 0 0 0 2.74-4.08l2.26-51.89v-.05q0-.66-.15-1.28" style="fill:#360623"/><path d="M1490.3 2627.6a4.7 4.7 0 0 0 4.7 4.65l316.12 1.46h.02a4.7 4.7 0 0 0 4.7-4.3l.63-7.03 84.63-38.8a5 5 0 0 1-.48-1.69l-.7-8.15-82.47 37.82 4.57-50.7 74.12-30.83-.22-2.51-6.87-4.76-66.07 27.49 5.18-57.47 1.02-11.37.02-.13.96-10.65 5.49-60.88 68.32 28.25 10.29-5.95-77.73-32.14 3.4-37.7v-.14l.02-.3q0-.54-.13-1.06l-.02-.08q-.17-.67-.54-1.27l-.03-.08-.2-.3-52.44-83.39a276 276 0 0 1-4.37 10.77l44.5 70.74-56.22.18 9.68-66.28a213 213 0 0 1-13.15 24.77l-6.06 41.54-190.35.6-2.65-71.36 110.37-5.55q-1.28-4.64-2.37-9.32l-113.12 5.68q-.24.02-.46.07-.22.02-.45.07-.18.05-.35.12-.27.08-.53.2l-.3.18q-.25.13-.48.29-.15.12-.28.25-.21.17-.4.37l-.05.04-71.35 80.8-.19.26-.26.35q-.12.2-.2.4l-.2.4q-.08.22-.14.45-.07.2-.1.4-.06.32-.07.66l-.02.22v.04zm187.57-260.6 152.2-.48-23.24 257.74-135.79-.63-39.58-.18-131.78-.61-3.18-255.26 141.33-.45zm-119.06-72.96 2.37 63.9-58.97.19z" style="fill:#360623"/></svg>