<svg xmlns="http://www.w3.org/2000/svg" xml:space="preserve" viewBox="113.4 248.1 178.7 71.9"><path d="M126.7 269.39 274.16 314l10.4-2.76.66.2a.67.67 0 1 0 .4-1.29l-.67-.2-.13.43.12-.42-7.12-8.06-147.44-44.62h-.02a6.3 6.3 0 0 0-6.9 2.3v-.03q-.17.23-.32.5l-.2.34q-.29.52-.47 1.1a6.33 6.33 0 0 0 4.22 7.9zm149.89 36.54" style="opacity:.26;fill:#00609b"/><path d="m271.38 311.14 3.67-12.1-147.47-44.63a6.33 6.33 0 1 0-3.66 12.1z" style="fill:#5d5262"/><path d="M119.7 258.63q.32-1.08.98-1.95a6.3 6.3 0 0 0 4.48 5.73l147.47 44.62-1.25 4.11-147.46-44.62a6.33 6.33 0 0 1-4.22-7.89" style="fill:#32343d"/><path d="M283.29 308.13a.67.67 0 0 0-.45-.84l-.67-.2-.39 1.29.67.2c.35.1.73-.1.84-.45" style="fill:#5d5262"/><path d="M270.77 308.75c.3-1 1.53-.63 1.83-1.64s-.92-1.38-.61-2.4c.3-1 1.53-.63 1.83-1.64s-.92-1.38-.61-2.39c.3-1 1.53-.64 1.84-1.65l7.12 8.07-.39 1.27-10.4 2.77c.3-1-.92-1.38-.62-2.39" style="fill:#ffb869"/><path d="M271.38 311.14c.3-1-.92-1.38-.61-2.39.3-1 1.53-.63 1.83-1.64l9.44.4-.26.86z" style="fill:#e5974a"/><path d="M274.44 301.05c-.3 1.01.92 1.38.61 2.4-.3 1-1.53.63-1.84 1.64-.3 1 .93 1.38.62 2.39-.3 1-1.53.64-1.84 1.64-.22.75.38 1.14.6 1.7l-1.2.32c.3-1-.93-1.38-.62-2.39.3-1 1.53-.63 1.83-1.64s-.92-1.38-.61-2.4c.3-1 1.53-.63 1.83-1.64s-.92-1.38-.61-2.39c.3-1 1.53-.64 1.84-1.65l.82.94c-.49.34-1.2.34-1.43 1.08" style="fill:#e5974a"/><path d="M123.94 266.52h-.02a6.33 6.33 0 1 1 3.66-12.1h.03z" style="fill:#5d5262"/></svg>