<svg xmlns="http://www.w3.org/2000/svg" xml:space="preserve" viewBox="696.3 463.5 64.4 397.7"><path d="M746.34 833.48c.7 8.97-.1 16.34-1.77 16.47s-3.59-7.04-4.28-16 .1-16.34 1.77-16.47c1.68-.13 3.6 7.03 4.28 16" style="fill:#6d6e71"/><path d="M745.2 659.47c5 86.94 5.5 160.24 1.65 181.12l-5.97.46c-7-20.04-17.77-92.55-26.17-179.23-9.92-102.5-9.54-186.27.88-187.07s23.67 81.9 29.6 184.72" style="fill:#e6e7e8"/><path d="m743.77 637.27.45 6.49c-3.02 3.58-8.56 6.23-15.06 6.74s-12.37-1.28-15.9-4.35l-.57-6.48c3.52 3.13 9.43 4.93 15.98 4.42 6.54-.5 12.12-3.2 15.1-6.82" style="fill:#0260a0"/><linearGradient id="a" x1="714.68" x2="745.94" y1="657.99" y2="657.99" gradientTransform="rotate(-4.42 727.58 665.1)" gradientUnits="userSpaceOnUse"><stop offset="0" style="stop-color:#f1f2f2"/><stop offset=".18" style="stop-color:#eceded"/><stop offset=".4" style="stop-color:#dddedf"/><stop offset=".65" style="stop-color:#c5c6c7"/><stop offset=".9" style="stop-color:#a3a4a7"/><stop offset="1" style="stop-color:#939598"/></linearGradient><path d="M745.2 659.47c5 86.94 5.5 160.24 1.65 181.12l-5.97.46c-7-20.04-17.77-92.55-26.17-179.23-9.92-102.5-9.54-186.27.88-187.07s23.67 81.9 29.6 184.72" style="fill:url(#a)"/><path d="M747.9 832.55q-.46 4.82-1.05 8.04l-5.97.46a96 96 0 0 1-2.27-7.79 59 59 0 0 0 9.28-.72m-23.92-343.08c9.04 7.92 20.5 127.67 20.34 131.47-.15 3.8-1.22 3.63-2.58 1.45-1.38-2.15-2.5-4.84-1.13-6.72 1.18-4.16-2.25-32.14-7.25-62.78-4.34-26.57-11.7-55.9-11.98-57.89-.58-4.23-.5-5.35.68-6.61 1.2-1.27.7.01 1.92 1.08" style="fill:#0260a0"/></svg>