<svg xmlns="http://www.w3.org/2000/svg" xml:space="preserve" viewBox="394.4 501.5 302.7 318"><path d="M637.64 787.72c-48.72 33.23-115.63 24.44-153.92-21.93-13.9-16.82-69.92-84.11-72.9-104.23-5.7-38.65 56.06-31.56 88.39-58.26 34.74-28.7 51.87-82.84 90.5-65.91 16.03 7.02 60.09 67 71.99 81.4 36.57 44.28 34.55 107.71-2.14 149.53l17.74 20.61c3.6 4.35 1.45 12.06-4.77 17.2-6.23 5.15-14.2 5.8-17.8 1.44z" style="opacity:.3;fill-rule:evenodd;clip-rule:evenodd;fill:#2b2a29"/><path d="M590.08 712.41c-48.56 40.1-120.43 33.25-160.53-15.3s-33.25-120.43 15.3-160.52c48.56-40.1 120.42-33.25 160.53 15.3s33.24 120.42-15.3 160.52" style="fill-rule:evenodd;clip-rule:evenodd;fill:#e9e5b2"/><path d="M630.53 756.93c-6.23 5.15-14.2 5.8-17.8 1.44l-33.01-38.34a115 115 0 0 0 22.28-19l33.3 38.7c3.6 4.35 1.45 12.05-4.77 17.2" style="fill-rule:evenodd;clip-rule:evenodd;fill:#d9d19f"/><path d="M577.37 697.03c-40.06 33.08-99.35 27.43-132.43-12.63-33.08-40.05-27.44-99.35 12.63-132.43A94.06 94.06 0 0 1 590 564.6c33.08 40.05 27.42 99.35-12.63 132.43" style="fill-rule:evenodd;clip-rule:evenodd;fill:#854d1d"/><path d="M415.47 660.6c-14.98-42.09-3.06-90.86 33.39-120.96 46.56-38.45 115.46-31.88 153.91 14.67a109 109 0 0 1 21.46 41.85 109 109 0 0 0-18.72-32.95c-38.45-46.55-107.35-53.12-153.91-14.67a109.3 109.3 0 0 0-36.13 112.07" style="fill-rule:evenodd;clip-rule:evenodd;fill:#fef9d2"/><path d="M624.67 749.68c-4.86 4.01-11.08 4.52-13.88 1.12l-25.74-29.9a90 90 0 0 0 17.37-14.81l25.97 30.18c2.8 3.39 1.13 9.4-3.73 13.4" style="fill-rule:evenodd;clip-rule:evenodd;fill:#e9e5b2"/><path d="M621.14 739.68c-2.25 1.87-10.83-7.55-12.13-9.13-1.31-1.7-14.16-14.76-11.66-16.83 3.17-2.61 12.63 9.9 14.83 11.8 1.3 1.58 11.22 12.3 8.96 14.16" style="fill-rule:evenodd;clip-rule:evenodd;fill:#f8f5c3"/><path d="M591.14 574.1c13.02 14.8 15.77 29.92 16.45 45.08.8 17.69-1.08 36.32-14.99 55.85-30.12 42.33-90.36 51.46-132.68 21.33-13.63-9.7-18.26-21.62-24.9-35.74 8.87 10.08 28.42 28.3 40.36 31.17 19.33 4.63 29.74-15.06 47.8-21.17 3.99-1.34 10.2-1.4 16.61-1.3 7.04.12 14.33.42 19.2-.59 8.46-1.75 18.05-1.66 22.92-8.5 3.33-4.68 1.38-4.9 1.38-13.2 0-6.68 3.66-10.22 7.5-10.22 3.12 0 5.29-3.57 6.12-6.44 1.5-5.15.72-9.56 1.07-14.73.9-13.35-.28-27.59-6.84-41.53" style="fill-rule:evenodd;clip-rule:evenodd;fill:#a15f40"/><path d="M433.13 666.21c-18.96-38.25-9.9-85.88 24.44-114.24a94.06 94.06 0 0 1 152.47 55.78c-3.15-6.37-7.24-16.44-11.96-22.16-33.09-40.06-95.22-50.75-135.27-17.66-27.17 22.43-35.5 65.92-29.68 98.28" style="opacity:.1;fill-rule:evenodd;clip-rule:evenodd;fill:#1c1b17"/><path d="M514.29 682.37a3.56 3.56 0 1 1 0 7.13 3.56 3.56 0 0 1 0-7.13m20.62-4.12a3.56 3.56 0 1 1 0 7.12 3.56 3.56 0 0 1 0-7.12m-13.12 18.37a2.81 2.81 0 1 1 0 5.63 2.81 2.81 0 0 1 0-5.63m39.65-24a1.97 1.97 0 1 1 0 3.94 1.97 1.97 0 0 1 0-3.94M596.5 643a1.97 1.97 0 1 1 0 3.94 1.97 1.97 0 0 1 0-3.94" style="fill-rule:evenodd;clip-rule:evenodd;fill:#854d1d"/></svg>