<svg xmlns="http://www.w3.org/2000/svg" viewBox="0 0 235 420"><g style="opacity:.15"><path d="M548.78 731.46c-.1-2.9-.22-5.88-.55-8.97q-.2-1.84-.49-3.69a11 11 0 0 0-.4-15.58 11 11 0 0 0-5.18-2.87 60 60 0 0 0-2.25-4.31 24 24 0 0 0-4.53-5.85 55.5 55.5 0 0 0-24.36-12.98q-1.1-.27-2.16-.43-.22-2.59-.48-4.89a61.5 61.5 0 0 0-8.14-24.58l-.22-.4a39 39 0 0 0-3.8-5.66c-4.1-4.91-8.69-10.06-14.51-14.4a60 60 0 0 0-7.4-4.85 13 13 0 0 0 1.85-7.46q-.1-2.26-.75-4.36c.56-1.37.79-2.64.86-3.65.3-4.36-1.13-8.45-4.04-11.51a14.3 14.3 0 0 0-10.6-4.48h-.12q-.45-.45-.91-.86a12.2 12.2 0 0 0-10.46-3.02 12.2 12.2 0 0 0-8.57 6.72 16 16 0 0 0-1.62 6.37l-1.07.62a12.8 12.8 0 0 0-6.23 12.53 15 15 0 0 0 3.6 8.46 68 68 0 0 0-18.8 12.06 65 65 0 0 0-14.99 20.24c-1.3 2.76-2.48 5.52-3.63 8.2a300 300 0 0 1-2.47 5.67q-1.06 2.33-2.02 4.79a11.19 11.19 0 0 0-5.94 19.72l-.05.13c-2.86 9.29-4.33 18.48-5.39 26.24q-.25 1.85-.45 3.65a11.17 11.17 0 0 0-1.49 16.53c-.29 3.78-.52 7.77-.54 11.75q0 1.6-.03 3.2l-.02 1.78q-1.09.02-2.18.13c-4.14.44-7.42 2-10.05 3.26l-.08.04a23.5 23.5 0 0 0-10.2 9.29 11.1 11.1 0 0 0-8.24 18.3q1.19 1.43 2.51 2.75l-.09 1.92c-.17 4.92.02 9.3.57 13.36.88 6.44 2 11.64 3.56 16.35a82 82 0 0 0 15.98 28.03c-.5 3.35.55 6.82 2.92 9.34a11 11 0 0 0 10.6 3.2l.7-.16a42 42 0 0 0 7.3 3.3 13 13 0 0 0-6.55 7.52 17 17 0 0 0-.91 6.64c.3 4.23 1.64 8.22 4 11.88a45 45 0 0 0 5.35 6.8 16 16 0 0 0-.59 7.18c1.16 7.93 3.1 14.73 5.91 20.8 1.68 3.62 4.2 8.2 8.83 11.73q.2.56.35.9l.05.11a142 142 0 0 0 6.69 16.26q2.72 5.46 7.94 8.85a51 51 0 0 0 14.24 6.32c5.79 1.6 11.5 2.36 17.01 3.1l.87.12q4.02.54 7.7.54 4.92 0 9.36-.98l2.2-.47c3.61-.75 7.7-1.6 11.82-3.49l.76-.34c4.6-2.11 9.82-4.5 14.53-8.44 2.95-2.47 6.94-6.5 7.75-13.06l.02-.1.22-.98.34-1.79c.63-3.18 1.26-6.45 1.72-9.85 1-.98 1.75-1.93 2.3-2.61a50 50 0 0 0 9.34-19.47c1.26-5.23 2.58-12.19 1.54-19.65-.35-2.55-.84-6.05-2.4-9.62a20 20 0 0 0-2.27-3.92 35 35 0 0 0 2.76-11.78c.56-8.95-5.03-15.95-13.62-17a29 29 0 0 0-6.32-.04q-.3-.93-.67-1.82a14 14 0 0 0-4-5.48q1.4-.46 2.63-.9a50 50 0 0 0 14.46-7.98 79 79 0 0 0 11.7-11.95l.13-.17a38 38 0 0 0 3.88-5.44 124 124 0 0 0 5.9-12.46l.4-.93c3.52-8.18 5.24-16.45 6.57-24.16.67-3.9 1.07-7.75 1.46-11.47l.32-3.06c.63-5.77 1.04-11.73 1.25-18.25v-.1c.14-4.3.28-8.73.1-13.27z" style="fill:#fff" transform="translate(-330.38 -568.07)"/><path d="M548.26 730.58c-.11-2.9-.23-5.88-.56-8.97q-.2-1.83-.48-3.68a11 11 0 0 0-.4-15.58 11 11 0 0 0-5.19-2.88 60 60 0 0 0-2.25-4.3 24 24 0 0 0-4.53-5.86 55.5 55.5 0 0 0-24.36-12.97q-1.08-.27-2.16-.44-.21-2.58-.47-4.88a61.5 61.5 0 0 0-8.14-24.59l-.23-.39a39 39 0 0 0-3.8-5.67c-4.09-4.91-8.69-10.06-14.5-14.4a60 60 0 0 0-7.4-4.85 13 13 0 0 0 1.85-7.46q-.11-2.25-.76-4.36c.56-1.37.79-2.63.86-3.65.3-4.36-1.13-8.45-4.04-11.51a14.3 14.3 0 0 0-10.6-4.47h-.12q-.44-.46-.9-.87a12.2 12.2 0 0 0-10.47-3.01 12.2 12.2 0 0 0-8.56 6.71 16 16 0 0 0-1.63 6.37q-.54.3-1.07.63a12.8 12.8 0 0 0-6.23 12.52 15 15 0 0 0 3.6 8.46 68 68 0 0 0-18.8 12.06 65 65 0 0 0-14.98 20.24q-1.94 4.16-3.64 8.2a300 300 0 0 1-2.47 5.68q-1.06 2.32-2.02 4.78c-3.16.3-6.15 1.98-8.1 4.9a11.2 11.2 0 0 0 2.16 14.82l-.04.13c-2.88 9.29-4.33 18.48-5.4 26.24l-.45 3.65a11.17 11.17 0 0 0-1.49 16.53c-.29 3.79-.52 7.77-.54 11.75q0 1.6-.03 3.2l-.02 1.78q-1.08.02-2.18.14c-4.14.43-7.41 2-10.05 3.26l-.08.04a23.5 23.5 0 0 0-10.2 9.28 11.1 11.1 0 0 0-8.24 18.3q1.19 1.44 2.52 2.75l-.1 1.92c-.17 4.93.02 9.3.57 13.36a91 91 0 0 0 3.56 16.36 82 82 0 0 0 15.98 28.03c-.5 3.35.56 6.81 2.92 9.34a11 11 0 0 0 10.6 3.2l.7-.16a42 42 0 0 0 7.3 3.28 13 13 0 0 0-6.55 7.54 17 17 0 0 0-.9 6.63 25 25 0 0 0 4 11.88 45 45 0 0 0 5.35 6.8 16 16 0 0 0-.6 7.18c1.17 7.93 3.1 14.74 5.92 20.8 1.68 3.62 4.2 8.2 8.83 11.74l.34.9.05.1a142 142 0 0 0 6.69 16.27 22 22 0 0 0 7.95 8.84 51 51 0 0 0 14.24 6.32c5.78 1.6 11.5 2.37 17 3.1l.88.12q4.02.55 7.69.55 4.93 0 9.36-.98 1.1-.25 2.2-.47c3.62-.75 7.7-1.6 11.83-3.5l.75-.34c4.6-2.1 9.82-4.5 14.53-8.43 2.95-2.47 6.95-6.5 7.76-13.07l.02-.1.21-.97.35-1.8c.62-3.18 1.26-6.45 1.71-9.84 1-.98 1.75-1.93 2.3-2.62a50 50 0 0 0 9.34-19.47c1.27-5.22 2.58-12.18 1.55-19.65-.36-2.55-.84-6.05-2.4-9.61a20 20 0 0 0-2.28-3.93 35 35 0 0 0 2.77-11.77c.56-8.96-5.04-15.95-13.62-17a29 29 0 0 0-6.33-.05q-.3-.93-.66-1.82a14 14 0 0 0-4-5.47q1.4-.46 2.62-.9a50 50 0 0 0 14.47-7.98 79 79 0 0 0 11.69-11.95l.14-.17a38 38 0 0 0 3.88-5.44c2.35-4.17 4.15-8.39 5.9-12.46l.4-.94c3.51-8.17 5.23-16.44 6.56-24.16.68-3.9 1.08-7.75 1.47-11.46l.32-3.07a237 237 0 0 0 1.25-18.24v-.1c.14-4.3.28-8.74.1-13.28z" style="fill:#ccc" transform="translate(-330.38 -568.07)"/><path d="M547.73 729.7c-.1-2.89-.22-5.88-.55-8.97q-.2-1.83-.49-3.68a11 11 0 0 0-.4-15.58 11 11 0 0 0-5.18-2.88 60 60 0 0 0-2.25-4.3 24 24 0 0 0-4.53-5.86 55.5 55.5 0 0 0-24.36-12.97q-1.1-.27-2.16-.43-.22-2.59-.48-4.89a61.5 61.5 0 0 0-8.14-24.58l-.22-.4a39 39 0 0 0-3.8-5.66c-4.1-4.92-8.69-10.06-14.51-14.41a60 60 0 0 0-7.4-4.84 13 13 0 0 0 1.85-7.46q-.1-2.25-.75-4.36c.56-1.37.78-2.64.86-3.65a15 15 0 0 0-4.04-11.52 14.3 14.3 0 0 0-10.6-4.47h-.12q-.45-.45-.91-.87a12.2 12.2 0 0 0-10.47-3 12.2 12.2 0 0 0-8.56 6.7 16 16 0 0 0-1.63 6.38l-1.06.62a12.8 12.8 0 0 0-6.23 12.53 15 15 0 0 0 3.6 8.46 68 68 0 0 0-18.8 12.06 65 65 0 0 0-14.99 20.23c-1.3 2.76-2.49 5.53-3.63 8.2a300 300 0 0 1-2.48 5.68q-1.05 2.32-2.01 4.78a11.19 11.19 0 0 0-5.94 19.72l-.05.13c-2.88 9.29-4.33 18.49-5.39 26.25q-.25 1.85-.45 3.64a11.17 11.17 0 0 0-1.49 16.53c-.29 3.8-.52 7.77-.54 11.76l-.03 3.2-.02 1.77q-1.09.02-2.18.14c-4.14.44-7.42 2-10.05 3.26l-.08.04a23.5 23.5 0 0 0-10.2 9.29 11.1 11.1 0 0 0-8.24 18.3q1.19 1.43 2.51 2.75-.06.95-.09 1.92c-.17 4.92.02 9.3.57 13.36.87 6.44 2 11.64 3.56 16.35A82 82 0 0 0 371.15 847c-.5 3.35.56 6.82 2.93 9.34a11 11 0 0 0 10.6 3.2l.7-.16a42 42 0 0 0 7.3 3.29 13 13 0 0 0-6.55 7.53 17 17 0 0 0-.91 6.63c.3 4.24 1.64 8.23 4 11.88a45 45 0 0 0 5.35 6.8 16 16 0 0 0-.59 7.18c1.16 7.94 3.1 14.74 5.91 20.8 1.69 3.63 4.2 8.2 8.83 11.74q.2.55.35.9l.05.11a142 142 0 0 0 6.69 16.26c1.8 3.62 4.47 6.6 7.94 8.85a51 51 0 0 0 14.24 6.32c5.8 1.6 11.5 2.36 17.01 3.1l.87.12q4.02.54 7.7.54 4.92 0 9.36-.98l2.2-.47c3.61-.75 7.7-1.6 11.82-3.49l.76-.34c4.6-2.11 9.82-4.5 14.53-8.44 2.95-2.47 6.94-6.5 7.75-13.06l.02-.1.22-.98.34-1.79c.63-3.18 1.26-6.45 1.72-9.85 1-.98 1.75-1.93 2.3-2.61a50 50 0 0 0 9.34-19.47c1.26-5.23 2.58-12.19 1.54-19.65-.35-2.55-.84-6.05-2.4-9.62a20 20 0 0 0-2.27-3.92 35 35 0 0 0 2.76-11.78c.57-8.95-5.03-15.95-13.62-17a29 29 0 0 0-6.32-.04q-.3-.93-.67-1.82a14 14 0 0 0-4-5.48q1.4-.46 2.63-.9a50 50 0 0 0 14.46-7.98 79 79 0 0 0 11.7-11.95l.13-.17a38 38 0 0 0 3.88-5.44 124 124 0 0 0 5.9-12.46l.4-.93c3.52-8.18 5.24-16.45 6.57-24.16.68-3.9 1.07-7.75 1.46-11.47l.32-3.06c.63-5.77 1.04-11.73 1.25-18.25v-.1c.14-4.3.29-8.73.1-13.27z" style="fill:#999" transform="translate(-330.38 -568.07)"/><path d="M547.2 728.83c-.1-2.9-.22-5.88-.55-8.97q-.2-1.85-.48-3.69a11 11 0 0 0-.4-15.58 11 11 0 0 0-5.19-2.87 60 60 0 0 0-2.25-4.3 24 24 0 0 0-4.53-5.86 55.5 55.5 0 0 0-24.36-12.98q-1.08-.27-2.16-.43-.21-2.59-.47-4.88a61.5 61.5 0 0 0-8.14-24.59l-.23-.39a39 39 0 0 0-3.8-5.67c-4.09-4.91-8.68-10.06-14.5-14.4a60 60 0 0 0-7.4-4.85 13 13 0 0 0 1.85-7.46q-.11-2.25-.76-4.36c.56-1.37.79-2.63.86-3.65.3-4.36-1.13-8.45-4.04-11.51a14.3 14.3 0 0 0-10.6-4.47h-.12q-.44-.46-.9-.87a12.2 12.2 0 0 0-10.47-3.01 12.2 12.2 0 0 0-8.56 6.71 16 16 0 0 0-1.63 6.37q-.54.3-1.07.63a12.8 12.8 0 0 0-6.23 12.52 15 15 0 0 0 3.6 8.46 68 68 0 0 0-18.8 12.06 65 65 0 0 0-14.98 20.24q-1.94 4.16-3.64 8.2a300 300 0 0 1-2.47 5.67q-1.06 2.34-2.02 4.79a11.19 11.19 0 0 0-5.94 19.72l-.04.13c-2.88 9.28-4.33 18.48-5.4 26.24l-.45 3.65a11.17 11.17 0 0 0-1.49 16.53c-.28 3.79-.52 7.77-.54 11.75q0 1.6-.03 3.2l-.02 1.78q-1.08.02-2.18.13c-4.14.44-7.41 2-10.04 3.26l-.09.04a23.5 23.5 0 0 0-10.2 9.3 11.1 11.1 0 0 0-8.24 18.3q1.2 1.42 2.52 2.74l-.1 1.92c-.17 4.92.02 9.3.57 13.36a90 90 0 0 0 3.57 16.36 82 82 0 0 0 15.97 28.02 11.3 11.3 0 0 0 2.92 9.35 11 11 0 0 0 10.6 3.2l.7-.16a42 42 0 0 0 7.3 3.28 13 13 0 0 0-6.55 7.53 17 17 0 0 0-.9 6.64 25 25 0 0 0 4 11.88 45 45 0 0 0 5.35 6.8 16 16 0 0 0-.6 7.18c1.17 7.93 3.1 14.73 5.92 20.8 1.68 3.62 4.2 8.2 8.83 11.74l.34.9.05.1a142 142 0 0 0 6.69 16.27 22 22 0 0 0 7.95 8.84 51 51 0 0 0 14.24 6.32c5.78 1.6 11.5 2.37 17 3.1l.88.12q4.02.55 7.69.55 4.93 0 9.36-.98 1.1-.25 2.2-.47c3.62-.75 7.7-1.6 11.83-3.5l.75-.34c4.6-2.1 9.82-4.5 14.53-8.43 2.95-2.47 6.95-6.5 7.76-13.07l.02-.1.21-.97.35-1.8c.62-3.18 1.26-6.45 1.71-9.84 1-.98 1.75-1.93 2.3-2.62a50 50 0 0 0 9.34-19.47c1.27-5.23 2.59-12.18 1.55-19.65-.36-2.55-.84-6.05-2.4-9.61a20 20 0 0 0-2.28-3.93 35 35 0 0 0 2.77-11.77c.56-8.96-5.04-15.95-13.62-17a29 29 0 0 0-6.33-.05q-.3-.93-.66-1.82a14 14 0 0 0-4-5.47q1.4-.46 2.62-.91a50 50 0 0 0 14.47-7.97 79 79 0 0 0 11.69-11.95l.14-.18a38 38 0 0 0 3.88-5.43c2.35-4.17 4.15-8.39 5.9-12.46l.4-.94c3.51-8.17 5.23-16.44 6.57-24.16.67-3.9 1.07-7.75 1.46-11.46l.32-3.07a237 237 0 0 0 1.25-18.24v-.1c.14-4.3.28-8.74.1-13.28z" style="fill:#666" transform="translate(-330.38 -568.07)"/><path d="M546.68 727.95a136 136 0 0 0-.55-8.97q-.2-1.83-.49-3.68a11 11 0 0 0-.4-15.58 11 11 0 0 0-5.18-2.88 60 60 0 0 0-2.26-4.3 24 24 0 0 0-4.53-5.86 55.5 55.5 0 0 0-24.36-12.97q-1.08-.27-2.16-.44-.21-2.58-.47-4.88a61.5 61.5 0 0 0-8.14-24.58l-.23-.4a39 39 0 0 0-3.79-5.66c-4.1-4.92-8.7-10.06-14.52-14.41a60 60 0 0 0-7.38-4.85c1.3-2.14 1.96-4.7 1.84-7.45q-.1-2.26-.76-4.36c.56-1.37.8-2.64.86-3.65a15 15 0 0 0-4.04-11.52 14.3 14.3 0 0 0-10.6-4.47h-.11q-.45-.46-.91-.87a12.2 12.2 0 0 0-10.47-3.01 12.2 12.2 0 0 0-8.56 6.71 16 16 0 0 0-1.63 6.37l-1.06.63a12.8 12.8 0 0 0-6.24 12.53 15 15 0 0 0 3.61 8.45 68 68 0 0 0-18.81 12.06 65 65 0 0 0-14.98 20.24c-1.3 2.76-2.49 5.53-3.63 8.2a300 300 0 0 1-2.48 5.68q-1.05 2.32-2.02 4.78c-3.16.3-6.15 1.99-8.09 4.9a11.2 11.2 0 0 0 2.15 14.82l-.04.13c-2.88 9.29-4.33 18.48-5.4 26.25l-.45 3.64a11.17 11.17 0 0 0-1.49 16.53c-.28 3.79-.51 7.77-.54 11.76l-.03 3.2-.02 1.77q-1.08.02-2.18.14c-4.14.43-7.41 2-10.04 3.26l-.09.04a23.5 23.5 0 0 0-10.2 9.28 11.1 11.1 0 0 0-8.24 18.3q1.2 1.44 2.52 2.76l-.1 1.91c-.16 4.93.02 9.3.57 13.36a90 90 0 0 0 3.57 16.36 82 82 0 0 0 15.97 28.03c-.5 3.35.56 6.81 2.92 9.34a11 11 0 0 0 10.6 3.2l.7-.16a42 42 0 0 0 7.3 3.29 13 13 0 0 0-6.55 7.53 17 17 0 0 0-.9 6.63 25 25 0 0 0 4 11.88 45 45 0 0 0 5.35 6.8 16 16 0 0 0-.6 7.18c1.17 7.93 3.1 14.74 5.92 20.8 1.68 3.63 4.2 8.2 8.83 11.74q.2.55.35.9l.04.11a142 142 0 0 0 6.7 16.26 22 22 0 0 0 7.94 8.85 51 51 0 0 0 14.24 6.31c5.79 1.6 11.5 2.37 17.01 3.11l.87.12q4.01.54 7.7.54 4.9 0 9.35-.98l2.21-.47c3.6-.75 7.7-1.6 11.82-3.49l.75-.35c4.6-2.1 9.82-4.5 14.53-8.43 2.95-2.47 6.95-6.5 7.76-13.06l.02-.1.21-.98.35-1.79c.62-3.18 1.26-6.45 1.71-9.85 1-.98 1.75-1.93 2.3-2.62a50 50 0 0 0 9.34-19.46c1.27-5.23 2.58-12.19 1.55-19.65-.36-2.56-.84-6.05-2.4-9.62a20 20 0 0 0-2.28-3.92 35 35 0 0 0 2.77-11.78c.56-8.96-5.04-15.95-13.62-17a29 29 0 0 0-6.33-.05q-.3-.92-.66-1.82a14 14 0 0 0-4-5.47q1.4-.47 2.62-.9A50 50 0 0 0 515 829.9c3.87-3.11 7.58-6.9 11.69-11.95l.14-.17a38 38 0 0 0 3.88-5.44c2.35-4.17 4.15-8.38 5.9-12.46l.4-.94c3.51-8.17 5.23-16.44 6.56-24.15.68-3.91 1.08-7.75 1.47-11.47q.14-1.53.32-3.06c.63-5.77 1.04-11.73 1.25-18.25v-.1c.14-4.3.28-8.73.1-13.27z" style="fill:#333" transform="translate(-330.38 -568.07)"/><path d="M215.78 159a130 130 0 0 0-.56-8.96q-.2-1.84-.48-3.69a11 11 0 0 0-.4-15.58 11 11 0 0 0-5.19-2.87 60 60 0 0 0-2.25-4.3 24 24 0 0 0-4.53-5.86 55.5 55.5 0 0 0-24.36-12.98q-1.08-.27-2.16-.43-.21-2.59-.47-4.88a61.5 61.5 0 0 0-8.14-24.59l-.23-.39a39 39 0 0 0-3.8-5.67c-4.09-4.91-8.69-10.06-14.5-14.4a60 60 0 0 0-7.4-4.85 13 13 0 0 0 1.85-7.46q-.11-2.25-.76-4.36c.56-1.37.79-2.63.86-3.65.3-4.36-1.13-8.45-4.04-11.51a14.3 14.3 0 0 0-10.6-4.47h-.12q-.44-.46-.9-.87a12.2 12.2 0 0 0-10.47-3.01 12.2 12.2 0 0 0-8.56 6.71 16 16 0 0 0-1.63 6.37q-.54.3-1.07.63a12.8 12.8 0 0 0-6.23 12.52 15 15 0 0 0 3.6 8.46 68 68 0 0 0-18.8 12.06 65 65 0 0 0-14.98 20.24q-1.94 4.16-3.64 8.2a300 300 0 0 1-2.47 5.67q-1.05 2.34-2.02 4.79a11.19 11.19 0 0 0-5.94 19.72l-.04.13c-2.86 9.29-4.33 18.48-5.4 26.24l-.45 3.65a11.17 11.17 0 0 0-1.49 16.53c-.28 3.79-.51 7.77-.54 11.75q0 1.6-.03 3.2l-.02 1.78q-1.08.02-2.18.14c-4.14.43-7.41 2-10.04 3.25l-.09.04a23.5 23.5 0 0 0-10.2 9.3 11.1 11.1 0 0 0-8.24 18.3q1.2 1.42 2.52 2.74l-.1 1.92c-.16 4.93.02 9.3.57 13.36a90 90 0 0 0 3.57 16.36A82 82 0 0 0 39.2 276.3c-.5 3.35.56 6.81 2.92 9.34a11 11 0 0 0 10.6 3.2l.7-.16a42 42 0 0 0 7.3 3.28 13 13 0 0 0-6.55 7.54 17 17 0 0 0-.9 6.63 25 25 0 0 0 4 11.88 45 45 0 0 0 5.35 6.8 16 16 0 0 0-.6 7.18c1.17 7.93 3.1 14.74 5.92 20.8 1.68 3.62 4.2 8.2 8.83 11.74l.34.9.05.1a142 142 0 0 0 6.69 16.27 22 22 0 0 0 7.95 8.84 51 51 0 0 0 14.24 6.32c5.78 1.6 11.5 2.37 17 3.11l.88.12q4.02.54 7.69.54 4.93 0 9.36-.98 1.1-.25 2.2-.47c3.62-.75 7.7-1.6 11.83-3.5l.75-.34c4.6-2.1 9.82-4.5 14.53-8.43 2.95-2.47 6.95-6.5 7.76-13.07l.02-.1.21-.97.35-1.79c.62-3.18 1.26-6.45 1.71-9.85 1-.98 1.75-1.93 2.3-2.62a50 50 0 0 0 9.34-19.47c1.27-5.22 2.58-12.18 1.55-19.64-.36-2.56-.84-6.05-2.4-9.62a20 20 0 0 0-2.28-3.92 35 35 0 0 0 2.77-11.78c.56-8.96-5.04-15.95-13.62-17a29 29 0 0 0-6.33-.05q-.3-.93-.66-1.82a14 14 0 0 0-4-5.47q1.4-.47 2.62-.9a50 50 0 0 0 14.47-7.98c3.87-3.11 7.58-6.91 11.69-11.95l.14-.17a38 38 0 0 0 3.88-5.44c2.35-4.17 4.15-8.38 5.9-12.46l.4-.94c3.51-8.17 5.23-16.44 6.56-24.15a163 163 0 0 0 1.46-11.47l.33-3.06c.63-5.77 1.04-11.74 1.25-18.25v-.1c.14-4.3.28-8.73.1-13.27z"/></g><path d="M546.16 727.08c-.12-2.9-.23-5.88-.56-8.97q-.2-1.85-.48-3.69a11 11 0 0 0-.4-15.58 11 11 0 0 0-5.19-2.87 60 60 0 0 0-2.25-4.31 24 24 0 0 0-4.53-5.85 55.5 55.5 0 0 0-24.36-12.98q-1.08-.27-2.16-.43-.23-2.59-.47-4.89a61.5 61.5 0 0 0-8.14-24.58l-.23-.4a39 39 0 0 0-3.8-5.66c-4.1-4.91-8.69-10.06-14.51-14.4a60 60 0 0 0-7.39-4.85 13 13 0 0 0 1.84-7.46q-.1-2.25-.75-4.36c.56-1.37.79-2.64.86-3.65.3-4.36-1.13-8.45-4.04-11.51a14.3 14.3 0 0 0-10.6-4.48h-.12q-.45-.45-.9-.86a12.2 12.2 0 0 0-10.47-3.02 12.2 12.2 0 0 0-8.56 6.72 16 16 0 0 0-1.63 6.37l-1.07.62a12.8 12.8 0 0 0-6.23 12.53 15 15 0 0 0 3.6 8.46 68 68 0 0 0-18.8 12.06 65 65 0 0 0-14.98 20.24q-1.95 4.16-3.64 8.2a300 300 0 0 1-2.47 5.67q-1.06 2.33-2.02 4.79a11.19 11.19 0 0 0-5.94 19.72l-.04.13c-2.86 9.29-4.34 18.48-5.4 26.24q-.25 1.85-.45 3.65a11.17 11.17 0 0 0-1.49 16.53c-.29 3.78-.52 7.77-.54 11.75q0 1.6-.03 3.2l-.02 1.78q-1.08.02-2.18.13c-4.14.44-7.41 2-10.05 3.26l-.08.04a23.5 23.5 0 0 0-10.2 9.29 11.1 11.1 0 0 0-8.24 18.3q1.19 1.43 2.52 2.75l-.1 1.92c-.17 4.92.02 9.3.57 13.36a90 90 0 0 0 3.56 16.35 82 82 0 0 0 15.98 28.03c-.5 3.35.56 6.82 2.92 9.35a11 11 0 0 0 10.6 3.2l.7-.17a42 42 0 0 0 7.3 3.3 13 13 0 0 0-6.55 7.52 17 17 0 0 0-.9 6.64 25 25 0 0 0 4 11.88 45 45 0 0 0 5.35 6.8 16 16 0 0 0-.6 7.18c1.17 7.93 3.1 14.73 5.92 20.8 1.68 3.62 4.2 8.2 8.83 11.74l.34.9.05.1a142 142 0 0 0 6.69 16.27c1.8 3.62 4.47 6.6 7.94 8.84a51 51 0 0 0 14.24 6.32c5.8 1.6 11.5 2.37 17.02 3.1l.86.12q4.03.55 7.7.55 4.92 0 9.36-.98 1.1-.25 2.2-.47c3.61-.75 7.7-1.6 11.83-3.5l.75-.34c4.6-2.1 9.82-4.5 14.53-8.43 2.95-2.47 6.94-6.5 7.75-13.07l.03-.1.21-.97.35-1.8c.62-3.18 1.26-6.44 1.71-9.84 1-.98 1.75-1.93 2.3-2.62a50 50 0 0 0 9.34-19.47c1.27-5.22 2.58-12.18 1.55-19.65-.36-2.55-.84-6.05-2.4-9.61a20 20 0 0 0-2.28-3.92 35 35 0 0 0 2.76-11.78c.57-8.96-5.03-15.95-13.61-17a29 29 0 0 0-6.33-.05q-.3-.92-.67-1.82a14 14 0 0 0-4-5.47q1.4-.46 2.63-.9a50 50 0 0 0 14.46-7.98c3.88-3.11 7.6-6.91 11.7-11.95l.14-.17a38 38 0 0 0 3.87-5.44c2.35-4.17 4.16-8.39 5.9-12.46l.41-.94c3.51-8.17 5.23-16.44 6.56-24.16.68-3.9 1.08-7.75 1.46-11.46l.33-3.07c.63-5.76 1.04-11.73 1.24-18.24v-.1c.15-4.3.29-8.73.11-13.27z" style="fill:#fff" transform="translate(-330.38 -568.07)"/><path d="M420.67 761.4c.03-.27.03-.56-.28-.68-.32-.13-.5.1-.64.34-.53.95-1.07 1.9-1.11 3.01-.07 1.85-.06 3.69.17 5.53.47 3.66 1.74 7.07 3.3 10.38a11 11 0 0 0 2.16 3.24 11 11 0 0 0 5.08 2.66c-.03-.28 0-.4-.05-.45q-.35-.4-.74-.78c-2.27-2.22-4.26-4.64-5.48-7.62-.17-.41-.4-.8-.58-1.21-1.92-4.55-3.27-9.17-1.9-14.15q.05-.13.07-.26" style="fill:#27685d" transform="translate(-330.38 -568.07)"/><path d="M407.12 702.43c-.2 4.9-.37 9.81-.33 14.72.03 4-.14 8.02-.19 12.02-.1 7.07-.5 14.13-.2 21.2.23 5.31.31 10.62.58 15.93.2 3.96.35 7.91.54 11.87.2 4.32.67 8.62 1.23 12.9q1.56 11.65 3.75 23.2c.98 5.18 1.68 10.4 2.9 15.53 2.33 9.73 4.66 19.45 7.58 29.02 3.58 11.67 7.52 23.22 13.3 34.05 1.24 2.35 2.59 4.53 5.14 5.68.7.32 1.4.89 1.46 1.67.09 1.2.83 1.52 1.77 1.86 4.3 1.57 8.74 2.5 13.3 2.9 1.96.16 3.94.14 6.11.03-.19-.4-.25-.56-.34-.71-1.53-2.44-2.88-5-4.26-7.52-2.37-4.37-4.1-9.01-5.87-13.64-2.64-6.9-5.22-13.83-6.93-21.03a598 598 0 0 1-8.99-44.2c-.7-4.44-1.35-8.9-1.6-13.4-.08-1.17-.22-2.33-.2-3.5.01-.67-.28-1.02-.97-.98h-.54c-4.45.06-7.5-2.4-10.09-5.64a2.6 2.6 0 0 1-.59-1.35c-.02-.23 0-.46.21-.6.23-.14.45-.05.63.08.6.47 1.19.97 1.82 1.4 4.33 3.03 9.33 3.35 13.65-.01q1.06-.84 2.14-1.64.95-.72 1.28.42.13.54 0 1.07c-.2.94-.57 1.81-1.21 2.53-1.13 1.25-2.32 2.42-3.96 2.97-.8.27-1.01.78-.94 1.54.13 1.4.17 2.8.34 4.18q1.31 10.6 3.38 21.06c1.5 7.5 3.15 14.98 4.78 22.46 1.36 6.2 2.8 12.39 4.67 18.46 2.2 7.2 4.82 14.25 7.51 21.27 2.07 5.4 4.79 10.48 7.64 15.5.52.9 1.17 1.15 2.11.98q1.66-.3 3.34-.53c.9-.13 1.36-.59 1.6-1.52.87-3.4 1.7-6.8 2.21-10.29s1.66-6.82 2.82-10.14c.23-.65.32-1.24.02-1.94a85 85 0 0 1-4.82-15.46c-1.02-4.7-1.71-9.48-2.45-14.24-.53-3.38-1.04-6.76-1.33-10.17q-.46-5.45-.88-10.9a4.3 4.3 0 0 0-1.14-2.66 26 26 0 0 1-4.29-6.04 87 87 0 0 1-6.81-19.18c-.42-1.95-.65-3.89-.1-5.88 1.94-7.05 4.61-13.75 9.07-19.62q.74-.99.57-2.15c-.18-1.3-.2-2.6-.23-3.9-.14-7.26.04-14.51.37-21.75.1-2.39.12-4.77.27-7.16.22-3.72.53-7.45.69-11.18q.29-6.83 1.2-13.58c1.14-8.44 2.46-16.84 4.5-25.12a164 164 0 0 1 4.35-15.33c1.36-3.87 2.98-7.63 4.63-11.38 1.74-3.97 3.65-7.86 6.72-11.02.51-.53.43-1 .18-1.59a26 26 0 0 0-3.4-5.66 71 71 0 0 0-14.6-13.94 39 39 0 0 0-11.32-5.94c-2.07-.64-4.14-1.28-6.33-1.27-1.22 0-1.28.04-1.67 1.14q-1.26 3.42-2.45 6.88c-2.86 8.46-4.64 17.2-6.5 25.93-1.17 5.5-1.85 11.1-2.7 16.66-.81 5.3-1.61 10.59-2.25 15.91-.54 4.56-1.12 9.11-1.38 13.7-.28 5.03-.77 10.06-.94 15.1-.25 7.24-.4 14.49-.3 21.74q0 .81.06 1.62c.18 4.72.57 9.44.26 14.17-.08 1.18-.19 2.39.15 3.74 1.21-.9 2.1-1.9 2.95-2.95.62-.77 1.22-1.58 2.06-2.12 2.1-1.35 4.84-1.14 5.2 2.28l.04.4c.02 4.37.57 8.73.31 13.1a37 37 0 0 1-1.13 7.6 14.7 14.7 0 0 1-5.7 8.46 8 8 0 0 1-3.87 1.45c-1.89.16-3.78.15-5.65-.28-3.93-.91-7.3-2.72-9.28-6.38-2.35-4.32-3.85-8.9-3.94-13.9-.04-2.54.3-5.03.62-7.52a6 6 0 0 1 2.26-3.88c1.08-.88 2.08-.96 3.23-.22q.86.56 1.59 1.26c.92.86 1.78 1.78 2.7 2.64a6.1 6.1 0 0 0 5.36 1.64c1-.16 1.29-.45 1.3-1.4.01-3.86.09-7.74-.08-11.61-.12-2.74-.39-5.48-.43-8.23-.07-5.08-.03-10.18-.03-15.27 0-1.57-.01-3.15.08-4.72.3-5.17.68-10.33.96-15.5.23-4.23.7-8.44 1.2-12.63a625 625 0 0 1 2.88-19.92c1.26-8.05 2.6-16.09 4.58-24 1.88-7.52 3.76-15.04 6.9-22.16.32-.73 1.1-1.65.66-2.21-.54-.7-1.67-.26-2.54-.13a37 37 0 0 0-12.14 4.35c-8.88 4.92-16.2 11.5-21.47 20.25a5 5 0 0 0-.77 2q-.56 3.52-1.2 7.05c-1.42 7.98-2.7 15.99-3.28 24.08q-.7 9.56-1.1 19.14m33.54 38.28a8 8 0 0 1-2.49-3.31 18 18 0 0 1-1.5-6.4c-.02-3.79.52-6.23 1.62-8.54a8.4 8.4 0 0 1 2.17-2.9 4.75 4.75 0 0 1 6.3-.01 8 8 0 0 1 2.23 3 19.2 19.2 0 0 1 .33 14.36 8.5 8.5 0 0 1-2.25 3.48 4.8 4.8 0 0 1-6.41.32m-27.78-16.45a8.5 8.5 0 0 1 2.87-4.32c1.69-1.3 3.54-1.3 5.19.03a8 8 0 0 1 2.15 2.92c1.38 2.95 1.87 6.09 1.84 9.67.1 1.98-.3 4.23-1.13 6.4a8.3 8.3 0 0 1-2.29 3.46 3.93 3.93 0 0 1-5.4.09 8.7 8.7 0 0 1-2.66-3.7 21.7 21.7 0 0 1-.57-14.55" style="fill:#61b575" transform="translate(-330.38 -568.07)"/><path d="M479.15 838.75c.1-.94.28-1.87.44-2.8.1-.65-.1-1.02-.79-1.13q-1.55-.27-2.9-1.06a41 41 0 0 1-4.86-3.17c-.27-.2-.47-.57-.94-.48-.22.9.1 1.78.18 2.66.58 5.96 1.2 11.9 2.2 17.8.78 4.75 1.46 9.52 2.45 14.23.96 4.54 2.34 8.96 4.03 13.63.36-.74.7-1.2.63-1.75-.27-2.01.03-4.06-.4-6.06-.93-4.24-.95-8.57-1.08-12.88-.14-4.5.33-9 .54-13.48.1-1.84.3-3.68.5-5.51" style="fill:#61b575" transform="translate(-330.38 -568.07)"/><path d="M416.03 724.25a18 18 0 0 0-.76 9.93 42 42 0 0 1 .76-9.93" style="fill:#27685d" transform="translate(-330.38 -568.07)"/><path d="M384.22 793.5a53 53 0 0 0 6.77 14.95q.45.75.93 1.48c.35.5.66.5 1.1.06.26-.27.41-.58.35-1.14l-.1-.49a279 279 0 0 1-2.97-16.47 198 198 0 0 1-2.06-18.92c-.08-1.66-.2-3.32-.26-4.98-.01-.51-.07-1.04-.62-1.25q-2.4-.9-4.81-1.77c-.45-.16-.8 0-.94.5q-.12.44-.22.92c-.6 3.17-.48 6.39-.2 9.56q.78 8.9 3.02 17.54" style="fill:#61b575" transform="translate(-330.38 -568.07)"/><path d="M440.43 733.13c-.2-1.66-.23-3.32-.31-4.98-.08 1.67-.24 3.34.3 4.98" style="fill:#27685d" transform="translate(-330.38 -568.07)"/><path d="M495.8 898.35q-1.56 1.3-3.4 2.2a236 236 0 0 0-11.97 6.24c-1.91 1.08-3.9 1.81-6.05 1.01a5.4 5.4 0 0 0-3.03-.12 122 122 0 0 1-15.96 1.7q-8.55.44-16.92-1.34c-3.61-.76-7.25-1.43-10.71-2.78-.48-.2-1.33-.26-1.24-.82.13-.72.97-.38 1.5-.42 1.12-.09 2.23.3 3.6.1-1.06-.9-1.88-1.61-3.04-1.9-4.02-1.01-7.98-2.2-11.62-4.27l-.6-.3c-.75-.33-.9-.28-1.2.51a9 9 0 0 0-.57 3.04c-.03 1.97.62 3.4 2.59 4.26a48 48 0 0 0 8.73 2.8c9.56 2.14 19.27 3.2 29.03 3.75 7.84.43 15.65.06 23.39-1.56a52 52 0 0 0 19.5-8.29 26 26 0 0 0 4.81-4.31 4.4 4.4 0 0 0 .54-5.13 12.6 12.6 0 0 0-4.52-4.73c-1.1-.66-1.22-.66-2 .34a472 472 0 0 0-5.25 6.88c-.92 1.23-1.27 2.72-1.79 4.16.55.14.84-.11 1.17-.22l4.63-1.5c.21-.07.46-.12.6.12.13.25-.06.44-.22.58" style="fill:#6b4e2f" transform="translate(-330.38 -568.07)"/><path d="M504.74 890.66c.45-.17.23-.46.2-.68-.4-2.66-2.46-4.05-4.32-5.57-.43-.34-.8-.1-1.26.61-.35.55.03.7.4.89a11.5 11.5 0 0 1 4.98 4.75" style="fill:#ad2f2f" transform="translate(-330.38 -568.07)"/><path d="M490.77 794.83a68 68 0 0 0 2.37-11.61c.65-4.77.67-9.6 1.36-14.38.56-3.87.92-7.77 1.2-11.68.29-4.04.72-8.07.76-12.12.04-4.78-.23-9.55-.4-14.32a57 57 0 0 0-.66-7.25q-.77-4.53-1.43-9.07c-.75-5.35-1.43-10.7-2.19-16.06-.2-1.49-.36-3-.8-4.45-.36.03-.45.26-.57.44a39 39 0 0 0-2.9 5.03 68 68 0 0 0-6.37 26.75q-.18 6.88.01 13.78.09 2.7.34 5.39c.3 3.4.77 6.8 1.2 10.18.78 6.12 1.7 12.22 2.87 18.28 1.36 6.94 3.25 13.75 4.81 20.65.04.18.03.46.4.44" style="fill:#61b575" transform="translate(-330.38 -568.07)"/><path d="M453.12 603.53c-.8-.22-1.47.01-1.83.7a4 4 0 0 0-.44 1.78c.02.12.02.35.1.56.18.52.42 1.01 1.05 1.1.6.07.9-.32 1.17-.75a4 4 0 0 0 .74-2c.02-.6-.06-1.18-.79-1.39" style="fill:#fff12d" transform="translate(-330.38 -568.07)"/><path d="M452.47 610.6c-.8-.3-2.05.06-2.5.81a9 9 0 0 0-1.27 3.99c.04.24.06.56.14.86.29 1.06.65 1.2 1.65.7 1.6-.8 2.99-3.78 2.57-5.53-.08-.35-.19-.68-.59-.83m-1.77-9.79c1.47.2 1.93-.27 1.72-1.74l-.12-.8a8 8 0 0 0-2.08-4.01c-.44-.48-.74-.41-1.01.16-.3.63-.28 1.3-.3 2.18-.09 1.21.45 2.44 1.1 3.64.15.28.31.52.68.57m-3.01 3.74c.06-.2.16-.42-.02-.66-.1-.02-.26-.09-.36-.05q-2.46.95-4.7 2.34c-.68.43-.81 1.02-.55 1.78.28.8.8 1.4 1.65 1.65a9 9 0 0 0 3.74.21c.95-.1 1.07-.37.66-1.21a5.3 5.3 0 0 1-.42-4.06" style="fill:#fff" transform="translate(-330.38 -568.07)"/><path d="M483.92 662.76q-6.43 14.56-9.83 30.13a304 304 0 0 0-3.73 20.87q-1.25 8.55-1.7 17.19c-.2 3.55-.48 7.1-.61 10.65-.19 4.99-.52 9.97-.68 14.97s-.13 10-.07 15c.01.48-.07.98.17 1.54.51-.14.76-.48 1.09-.71 3.53-2.6 7.36-4.32 11.88-4.09.77.05.86-.07.71-.86-.61-3.32-1.06-6.67-1.63-10a140 140 0 0 1-1.97-19.32q-.23-7.7.27-15.39c.12-1.93.28-3.86.64-5.77a71 71 0 0 1 5.28-16.7c2.47-5.35 5.37-10.42 9.98-14.27.64-.54.86-1.19.86-2.02a90 90 0 0 0-.57-8.89 83 83 0 0 0-4.24-19.34q-.15-.46-.36-.88-.28-.57-.72-.1l-.58.75a38 38 0 0 0-4.2 7.24m-1.78 109.68c-.12-.57-.22-1.07-1-.99-2.29.24-4.51.67-6.64 1.65-3.96 1.83-6.75 4.86-9.04 8.45-.15.23-.49.44-.23.85q.38-.03.78-.1c3.92-.89 7.6-.14 11.1 1.7a41 41 0 0 1 8.9 6.3c.15.15.26.38.54.33.18-.28-.02-.53-.1-.77a168 168 0 0 1-2.62-9.78c-.6-2.54-1.14-5.1-1.7-7.65m-104.94 47.85a63 63 0 0 0 7.15 8.78q1.2 1.21 2.73 1.97c.83.42 1.54.43 2.39-.08a15 15 0 0 1 7.58-2.13c2.3-.05 2.3-.05 1.5-2.26a118 118 0 0 1-3.13-9.63c-.4-1.54-.52-1.83-1.91-.51q-.34.34-.63.71a19 19 0 0 0-2.76 4.63c-.49 1.16-.93 2.34-1.41 3.5-.14.32-.23.77-.67.76-.51-.01-.6-.5-.68-.88a6 6 0 0 1-.2-2.67c.63-3.25 1.55-6.4 3.3-9.23.44-.7.56-1.23 0-1.92-.6-.73-1.08-1.55-1.59-2.35-3.35-5.34-6-10.98-7.22-17.21q-.89-4.57-1.67-9.17a57 57 0 0 1-.82-11.56c.05-1.62.14-3.25.58-4.82.46-1.64.54-1.89-1.53-1.82-.27 0-.53.07-.8.1-1.9.3-3.61 1.07-5.33 1.87a11.7 11.7 0 0 0-6.13 6.69c-1.74 4.42-2.35 9.04-2.67 13.72-.1.96.05 1.88.29 2.8q1.16 4.6 2.74 9.05a90 90 0 0 0 10.88 21.66" style="fill:#61b575" transform="translate(-330.38 -568.07)"/><path d="M456.1 602.75c.97-.28 2.04-.1 3.04-.4.52-.15 1.04-.28 1.5-.57.37-.22.6-.52.6-.98.03-1.15-1.03-2.2-2.19-2.05a6.4 6.4 0 0 0-3.31 1.4c-.32.26-.6.56-.73.95-.27.77.3 1.65 1.1 1.65m-.95 7.54c1.22.92 2.56 1.65 3.73 1.75 2.25.06 2.88-.84 2.18-2.54a5 5 0 0 0-.6-1.05c-.97-1.28-2.36-1.9-3.82-2.38-.48-.16-.76.05-.95.49q-.37.94-.8 1.84c-.42.84-.43 1.36.26 1.89" style="fill:#fff" transform="translate(-330.38 -568.07)"/><path d="M488.63 863.13a4.8 4.8 0 0 0 1.27-2.89c.18-1.79.4-3.58.52-5.37q.12-1.96 0-3.92c-.07-1.03-.13-2.1-.82-3.07-.62 1.43-4.4 17.15-4.8 19.87 1.32-1.6 2.5-3.18 3.83-4.62" style="fill:#6fb253" transform="translate(-330.38 -568.07)"/><path d="M401.87 844.07c-.45-4.12-1.41-8.16-2.14-12.23-.22-1.24-.33-1.29-1.6-1.3-2.87-.03-5.56.64-7.92 2.29-1.2.85-2.38.88-3.69.3a12 12 0 0 1-3.76-2.57 64 64 0 0 1-9.07-11.56 87 87 0 0 1-9.6-21.22c-.11-.37-.12-.8-.47-1.12-.14.64.1 1.2.17 1.77a70 70 0 0 0 9.5 27.5c3.4 5.65 7.3 10.9 12.22 15.37a33.6 33.6 0 0 0 12.88 7.42c.99.3 1.98.58 3.03.63 1.35.08 1.43 0 1.2-1.3-.25-1.33-.6-2.64-.75-3.98" style="fill:#61b575" transform="translate(-330.38 -568.07)"/><path d="M503.69 879.68c-.33.43-.26.7.17.98 3.23 2.15 4.27 5.42 4.57 9.05a10 10 0 0 1-1.05 5.37c-1.77 3.54-4.45 6.32-7.5 8.74-4.63 3.65-9.98 5.97-15.57 7.6-8.42 2.43-17 3.98-25.79 3.76-3.73.07-7.4-.26-11.09-.52a128 128 0 0 1-19.18-3.04 58 58 0 0 1-10.57-3.24c-3.97-1.73-7.4-4.1-9.63-7.94-1.13-1.95-1.74-3.95-.94-6.18q.14-.39.23-.78c.21-.87.05-1.25-.67-1.7-.4-.25-.69-.2-.84.25-.8 2.3-1.53 4.6-1.07 7.12a76 76 0 0 0 3.66 13.4c1.24 3.28 2.56 6.54 4.84 9.3.4.49.79.99 1.36 1.29 1.07.57 2.12 1.21 3.23 1.7a114 114 0 0 0 21.22 6.65c3.21.7 6.5.91 9.78 1.2 3.86.36 7.74.35 11.6.09 3.54-.25 7.07-.7 10.59-1.24 8.5-1.3 16.76-3.35 24.58-7.03a15 15 0 0 0 3.88-2.64 40 40 0 0 0 4.8-5.65 36 36 0 0 0 6.03-13.46c.55-2.46.94-4.96 1.4-7.44q.64-3.53.1-7.11a15 15 0 0 0-2.96-6.73 8 8 0 0 0-2.89-2.4c-1.08-.55-1.57-.37-2.3.6m3.35 23.06c-2.2 2.8-4.36 5.6-7.29 7.74-2.87 2.09-6.07 3.51-9.3 4.9a68 68 0 0 1-19.39 5.08q-2.62.3-5.25.32c-4.64.06-9.28.1-13.9-.23-9.26-.67-18.5-1.54-27.41-4.31-4.88-1.52-9.58-3.46-13.53-6.84-.93-.8-1.83-1.61-2.63-2.53a6 6 0 0 1-.61-.88c-.12-.2-.14-.44.06-.62.2-.2.41-.1.6.04q.23.15.43.32c5.32 4.4 11.53 6.97 18.14 8.65a129 129 0 0 0 16.88 2.9c7.4.87 14.83.87 22.25.65 7.14-.21 14.1-1.6 20.84-4.08a80 80 0 0 0 14.14-7c1.83-1.11 3.22-2.73 4.74-4.2.5-.48.93-1.08 1.8-1.43.05.76-.28 1.15-.57 1.52" style="fill:#ea4747" transform="translate(-330.38 -568.07)"/><path d="M494.92 870.55a90 90 0 0 0-13.27 19.3c-2.3 4.52-3.98 9.27-5.87 13.94-.32.79-.1 1.1.79.95a8 8 0 0 0 3.7-1.54 44 44 0 0 0 7.4-7.26c5.82-7.28 11.25-14.85 17.08-22.13 2.85-3.55 3.83-7.77 4.07-12.22v-.94q0-.2-.04-.4c-.17-.94-.44-1.1-1.26-.64q-.75.42-1.48.94a70 70 0 0 0-11.12 10" style="fill:#6fb253" transform="translate(-330.38 -568.07)"/><path d="M487.63 848.43c-.49.04-.68.37-.93.61-2.43 2.38-3.74 5.35-4.47 8.6a37 37 0 0 0-.46 13.3c2.09-7.45 3.6-15.06 5.86-22.51" style="fill:#d7dd3f" transform="translate(-330.38 -568.07)"/><path d="M531.96 720.16a96 96 0 0 0-4.73-18.83A16 16 0 0 0 523 695c-2.47-2.3-5.4-4.05-8.38-5.66-.26-.15-.58-.41-.87-.2-.34.27-.15.68-.05 1.01q.67 2.34 1.4 4.66a106 106 0 0 1 5.02 25.91c.26 4.36.3 8.73.32 13.1.02 2.28-.12 4.58-.1 6.88.04 5.67-.26 11.34-.66 17-.41 5.79-.6 11.59-1.02 17.38q-.28 3.76-.68 7.53a173 173 0 0 1-2.01 13.2c-.9 4.92-1.68 9.86-3.18 14.65-.29.93-.51 1.9-.84 3.1.73-.4 1.06-.85 1.4-1.25l3.77-4.42a22 22 0 0 0 3.69-6.09c1.16-2.79 2.2-5.61 3.24-8.45a115 115 0 0 0 5.92-23.11c.57-4.02.93-8.05 1.4-12.07q.94-8.25 1.2-16.56c.13-4 .09-8.01.08-12.02-.01-3.15-.27-6.3-.69-9.42m-60.23 97c-.9-.66-1.8-1.39-2.51-2.24-2.9-3.5-5.86-6.95-8.2-10.88-.87-1.45-1.75-2.9-2.42-4.71-.27.73-.14 1.15-.06 1.58q.89 4.65 2.82 9c1.62 3.67 3.71 7.02 6.93 9.5a39 39 0 0 0 12.67 6.47c1.36.4 2.78.6 4.24.48q-1.47-.82-2.9-1.7c-3.67-2.3-7.07-4.97-10.57-7.5" style="fill:#61b575" transform="translate(-330.38 -568.07)"/><path d="M513.89 795.09a149 149 0 0 0 3.14-25.3q.08-2.56.26-5.13c.32-4.76.77-9.51.95-14.28.22-6.16.23-12.33.33-18.5.05-5.05-.1-10.1-.62-15.11a106 106 0 0 0-3.63-18.53c-.74-2.55-1.58-5.08-2.05-7.7-.48-2.68-.5-2.71-3.11-3.7-2.92-1.1-5.85-2.09-9.07-1.49a5 5 0 0 0-2.45 1c-1.62 1.44-3.26 2.84-4.7 4.47-.7.82-.83 1.59-.6 2.6.55 2.32 1.08 4.65 1.47 7 .74 4.5 1.23 9.02 2.08 13.48 1.6 8.4 2.3 16.85 2.5 25.37.15 6.04-.1 12.06-.57 18.08q-.29 3.44-.66 6.86c-.37 3.53-.89 7.06-1.13 10.6q-.54 7.76-2.02 15.39c-.45 2.38-.93 4.79-2.08 6.96a3.4 3.4 0 0 0-.36 2.72c.1.34.1.71.12 1.07 0 .18-.05.38-.27.4a.5.5 0 0 1-.35-.16 5 5 0 0 1-.46-.82q-1.07-2.4-2.1-4.83c-.22-.5-.42-.99-.81-1.39-1.79-1.84-3.55-3.7-5.83-4.98-1.14-.64-2.19-1.43-3.3-2.12a21 21 0 0 0-8-3.11c-1.96-.3-3.84.14-5.76.36-.83.1-1.29.45-1.64 1.16a60 60 0 0 0-2.85 6.86c-1.31 3.73-1.3 4.15.4 7.7q.33.66.7 1.31c2.37 4.22 5.36 8 8.53 11.64q.97 1.13 2.15 2.04c3.63 2.74 7.27 5.47 11.1 7.93a32 32 0 0 0 6 3.07c.7.26 1.37.33 2.11.15 6.37-1.5 12.24-3.96 17-8.64.47-.47.74-1 .9-1.63q.4-1.7.83-3.4c.66-2.58 1.4-5.13 1.97-7.73.7-3.2 1.22-6.46 1.88-9.67" style="fill:#61b575" transform="translate(-330.38 -568.07)"/><path d="M477.16 894.32a92 92 0 0 1 27.52-35.85c-2.55-.16-4.84.47-6.95 1.77a30 30 0 0 0-7.76 6.63c-3.37 4.18-6.5 8.5-8.44 13.57q-1.37 3.6-2.59 7.24a45 45 0 0 0-1.79 6.64m-79.35-21.45c3.27 2 6.38 4.22 9.5 6.44 3.85 2.75 7.78 5.37 11.46 8.33 3.62 2.9 7.23 5.82 11.13 8.33a54 54 0 0 0 8.27 4.55c.47.2 1.13.65 1.42.02.22-.49-.44-.92-.89-1.22-1.19-.8-2.37-1.64-3.6-2.37-5.25-3.12-9.83-7.14-14.56-10.94-4.78-3.83-9.53-7.67-14.72-10.95a28 28 0 0 0-6.64-2.94 3 3 0 0 0-2.07-.07c.02.55.42.65.7.82" style="fill:#d7dd3f" transform="translate(-330.38 -568.07)"/><path d="M415.26 893.33a74 74 0 0 0 16.82 6.9c.32.08.65.3 1 .04-.08-.28-.31-.35-.5-.46a82 82 0 0 1-10.43-7.44c-3.3-2.73-6.57-5.48-10.22-7.74-1.5-.92-2.94-1.92-4.4-2.9-3.21-2.16-6.24-4.58-9.34-6.9-.38-.29-.73-.67-1.29-.77-.2.5-.09.92 0 1.35.34 1.52.99 2.9 1.8 4.2a29 29 0 0 0 6.71 7.34c3.09 2.43 6.4 4.5 9.85 6.38m-.26-16.65c-.3-.49-.52-.86-.76-1.22a47 47 0 0 1-2.95-4.96c-.72-1.4-1.4-2.8-2.14-4.2-.2-.4-.36-.89-.87-1.13-.63 3.48 2.93 9.62 6.71 11.5" style="fill:#6fb253" transform="translate(-330.38 -568.07)"/><path d="M409.98 865.07c3 5.3 6.7 10.12 10.13 15.12 1.87 2.72 4.6 4.43 7.23 6.33q-1.06-1.61-2.08-3.26c-2.34-3.73-4.4-7.63-6.93-11.25a39 39 0 0 0-5.5-6.62 9 9 0 0 0-2.31-1.62c-.33-.15-.71-.37-1.01-.1-.36.33.06.64.2.94q.12.23.27.46" style="fill:#d7dd3f" transform="translate(-330.38 -568.07)"/><path d="M420.12 870.83c.62.76 1.13 1.62 1.64 2.47l8.32 14.08a24 24 0 0 0 2.55 3.65c.17-.38-.05-.6-.16-.82a130 130 0 0 1-5.79-13.24c-3.74-10.28-7.22-20.65-9.77-31.32-1.52-6.34-3.43-12.6-4.57-19.04-1.87-10.46-3.86-20.9-5.3-31.42-.8-5.76-1.53-11.51-1.77-17.33-.1-2.29-.16-4.59-.27-6.88-.22-4.8-.55-9.62-.68-14.43-.2-7.07-.17-14.14-.04-21.21.1-5.45.48-10.89.48-16.34 0-5.36.06-10.71.34-16.07.27-4.98.68-9.96.97-14.95q.32-5.19.95-10.35c.87-7.25 2.24-14.41 3.74-21.55.05-.27.22-.54.02-1-.4.8-.73 1.44-1.04 2.09q-.38.8-.71 1.6a329 329 0 0 0-9.9 29.3 196 196 0 0 0-5.35 26.87q-.84 6.43-1.43 12.88c-.44 4.8-.81 9.6-.92 14.41-.2 8.65-.16 17.29.41 25.93.3 4.62.58 9.25 1.1 13.86.9 8 2.18 15.96 3.7 23.88 1.42 7.34 3.18 14.6 5.16 21.81a156 156 0 0 0 9.42 25.86c1.44 3.01 2.98 5.97 4.36 9 1.31 2.86 2.52 5.77 4.54 8.25" style="fill:#61b575" transform="translate(-330.38 -568.07)"/><path d="M411.7 895.9a9.4 9.4 0 0 0 .76 4.37c.3-1.17.52-2.1.8-3.02.32-1.06.16-1.43-.84-1.8-.47-.18-.67 0-.71.46" style="fill:#ad2f2f" transform="translate(-330.38 -568.07)"/><path d="M497.82 926.65c-.75.32-1.47.69-2.22.98-8.63 3.36-17.44 6.03-26.63 7.34-3.56.5-7.12 1.06-10.71 1.34-2.49.19-4.95.08-7.42-.07a56 56 0 0 1-11.22-1.55 223 223 0 0 1-15.14-4.5c-1.57-.54-3.14-1.05-4.86-1.63.06.32.06.41.1.5 2.6 5.53 5.37 11 7.64 16.69a6.7 6.7 0 0 0 3.72 3.7c5.02 2.26 10.31 3.47 15.73 4.22q4.2.57 8.45.92c3.45.32 6.93.59 10.36.08 5.52-.8 11.01-1.8 16.14-4.2 3.54-1.67 7.17-3.13 10.38-5.46a7.4 7.4 0 0 0 3.03-4.29l2.66-9.9q.45-1.71.85-3.42c.08-.3.26-.64 0-.89-.3-.28-.6.02-.86.13" style="fill:#ea4747" transform="translate(-330.38 -568.07)"/><path d="M205.64 151.05c-.85-8.03-3.05-15.62-7.09-22.65a14 14 0 0 0-2.67-3.54 46 46 0 0 0-20.18-10.74 11.8 11.8 0 0 0-7.67.52c-1.2.5-1.27.45-1.34-.83l-.02-.54a137 137 0 0 0-.87-12.8 52 52 0 0 0-6.88-20.75c-.96-1.64-1.89-3.29-3.1-4.75-3.9-4.67-7.97-9.19-12.88-12.85-3.15-2.35-6.4-4.55-10.15-5.83a34 34 0 0 0-6.03-1.47c-1.14-.17-1.17-.2-.89-1.37.58-2.39.73-4.8.33-7.23-.04-.26-.13-.54.19-.78.33-.02.63.21.97.32 1.18.39 2.37.52 3.59.22a3.16 3.16 0 0 0 2.58-3.45 7.3 7.3 0 0 0-1.46-4.14c-.3-.4-.67-.73-1.02-1.08-.57-.58-.59-.62.16-1.04a6 6 0 0 0 1.52-1.1c.48-.5.87-1.07.92-1.77.25-3.54-2.37-5.72-4.82-5.67a8.4 8.4 0 0 0-3.63.94c-1.11.55-1.1.56-1.56-.55q-.28-.68-.63-1.34a9 9 0 0 0-1.81-2.34c-1.48-1.31-3.13-.99-4 .77q-.56 1.16-.63 2.47a8.5 8.5 0 0 0 1.02 4.28c.6 1.22.76 1.35-.73 1.61-2.2.38-4.15 1.5-6.04 2.63q-1.81 1.11-1.59 3.33a5.1 5.1 0 0 0 4.05 4.64c.89.2 1.78.2 2.68.21.98.02.98.04.76 1.03l-.25 1.33c-.2.96-.02 1.88.29 2.78.59 1.7 1.8 2.3 3.5 1.78a7 7 0 0 0 3.47-2.26c-.08 1.6-.25 3.15-.41 4.7-.08.71-.48 1-1.18 1-1.4 0-2.79.15-4.18.25q-5.25.37-10.07 2.41a59 59 0 0 0-16.95 10.68 55 55 0 0 0-12.77 17.25c-2.14 4.52-3.98 9.18-6.04 13.73-2.2 4.85-3.94 9.87-5.38 15-.79 2.8-1.33 5.7-2.19 8.5-2.49 8.07-3.91 16.36-5.06 24.71-.62 4.55-1 9.13-1.39 13.7a211 211 0 0 0-1 16.98c-.03 5.5-.22 10.99.22 16.48.01.21.05.45-.3.64l-2-.94a16.5 16.5 0 0 0-8.78-1.54c-2.52.27-4.75 1.34-6.98 2.41a14.4 14.4 0 0 0-7.1 7.48c-2.32 5.23-3.25 10.76-3.44 16.42-.14 3.91-.05 7.82.48 11.73.68 4.96 1.6 9.87 3.17 14.63a72 72 0 0 0 12.79 23.17 72 72 0 0 0 7.63 8 32 32 0 0 0 13.6 7.19c3.4.87 6.8 1.35 10.2-.07.53-.22.85-.05 1.06.45l.33.74a87 87 0 0 0 4.08 8.68c.13.24.4.49.2.88q-.63-.35-1.22-.65c-2.35-1.15-4.38-.4-5.4 2.03a8 8 0 0 0-.3 4.77c.17.83.53 1.6.87 2.52-.8-.13-1.3-.53-1.86-.77-2.02-.88-4-1.91-6.24-2.1-2.82-.24-4.3.99-4.84 2.57q-.5 1.35-.4 2.79.3 3.99 2.48 7.34a34 34 0 0 0 7.56 8.4c1 .79 1.04.86.51 2.03a38 38 0 0 0-1.53 4.18 7 7 0 0 0-.34 3.2c.92 6.26 2.44 12.36 5.12 18.13 1.48 3.19 3.27 6.19 6.13 8.28a7.7 7.7 0 0 1 2.99 4.13c.12.39.3.76.43 1.14a135 135 0 0 0 6.25 15.23 12.5 12.5 0 0 0 4.55 5.04 42 42 0 0 0 11.57 5.12c5.44 1.5 11.03 2.21 16.6 2.96 4.59.62 9.15.7 13.7-.3 4.08-.9 8.22-1.53 12.08-3.3 4.59-2.11 9.19-4.13 13.12-7.42 2.26-1.89 4.06-3.93 4.39-6.98.05-.53.22-1.06.32-1.59.86-4.46 1.8-8.92 2.25-13.45.09-.93.4-1.68 1.27-2.23a12 12 0 0 0 2.76-2.75c3.72-4.67 6.13-10 7.52-15.73 1.27-5.26 2.12-10.6 1.36-16.06-.33-2.42-.69-4.8-1.68-7.07a8 8 0 0 0-3.68-4.16c-.82-.42-1.61-.88-2.55-1.17.21-.31.3-.47.42-.6a24 24 0 0 0 5.5-14.25c.23-3.51-1.39-6.37-5.17-6.83q-2.41-.29-4.85.06a18 18 0 0 0-8.26 3.45c-.38.27-.72.65-1.37.7.32-1.94.58-3.8.68-5.69.12-2.13-.07-4.24-.9-6.22-.95-2.26-2.7-2.97-4.94-2.08q-.7.28-1.32.67a14 14 0 0 0-3.89 3.9l-1.05 1.56c-.22-.4-.15-.72-.13-1.02.17-3.24.26-6.48.54-9.71s.73-6.44 1.15-9.65c.15-1.18.21-1.22 1.37-1.01 1.75.31 3.49.24 5.25.08 2.54-.25 4.91-1.08 7.29-1.93a40 40 0 0 0 11.67-6.4 70 70 0 0 0 10.26-10.53c1.1-1.36 2.22-2.7 3.09-4.25 2.26-4.01 4.03-8.25 5.85-12.47 3.02-7.05 4.62-14.48 5.92-22 .8-4.61 1.19-9.28 1.7-13.93.64-5.82 1-11.66 1.2-17.51.13-4.23.27-8.46.1-12.69-.11-3.01-.21-6.02-.53-9.03m-88.57-109.3a9 9 0 0 1-3.75-.2 2.4 2.4 0 0 1-1.65-1.66c-.26-.76-.13-1.35.55-1.77a28 28 0 0 1 4.7-2.34c.1-.04.25.02.36.04.19.24.08.46.02.67a5.4 5.4 0 0 0 .42 4.05c.41.85.3 1.1-.65 1.21m1.47-13.22c0-.87 0-1.55.3-2.18.27-.57.56-.64 1-.16a8 8 0 0 1 2.09 4.01l.11.8c.21 1.47-.25 1.94-1.73 1.74-.36-.05-.53-.3-.68-.57-.65-1.2-1.18-2.43-1.1-3.64m1.57 20.37c-1 .5-1.36.35-1.65-.71q-.1-.47-.14-.86c.1-1.48.55-2.78 1.27-3.99.46-.75 1.7-1.1 2.5-.8.4.14.5.48.59.83.42 1.74-.97 4.72-2.57 5.53m3.42-12.05a4 4 0 0 1-.74 2c-.26.43-.58.83-1.16.75-.63-.08-.87-.58-1.06-1.1-.07-.2-.08-.43-.1-.55 0-.7.18-1.26.45-1.78.35-.7 1.02-.93 1.83-.7.72.2.8.78.78 1.38m35.5 49.96q.2.43.36.87a83 83 0 0 1 4.24 19.35c.3 2.95.56 5.91.57 8.89 0 .83-.22 1.47-.86 2-4.61 3.87-7.5 8.94-9.98 14.28a71 71 0 0 0-5.28 16.7 46 46 0 0 0-.63 5.77q-.5 7.7-.28 15.4.32 9.72 1.97 19.32c.57 3.33 1.02 6.68 1.64 10 .14.78.05.9-.72.86-4.51-.24-8.35 1.48-11.88 4.08-.32.24-.58.57-1.08.71-.25-.56-.17-1.06-.17-1.54-.06-5-.1-10 .06-15 .17-5 .5-9.98.68-14.97.13-3.56.42-7.1.61-10.65q.45-8.64 1.7-17.19c1.04-7 2.2-13.96 3.73-20.87a158 158 0 0 1 9.83-30.13 38 38 0 0 1 4.77-7.98c.28-.34.54-.27.72.1m-3.84 118.86a280 280 0 0 1-2.88-18.27c-.43-3.4-.9-6.78-1.2-10.2q-.25-2.68-.34-5.38-.19-6.9 0-13.78a68 68 0 0 1 6.37-26.75 39 39 0 0 1 2.9-5.03c.1-.18.2-.4.55-.44.45 1.45.6 2.96.82 4.46.75 5.34 1.43 10.7 2.18 16.05.43 3.03.94 6.05 1.43 9.07q.57 3.6.67 7.26c.16 4.77.43 9.53.39 14.3-.04 4.07-.47 8.1-.76 12.13-.28 3.9-.64 7.8-1.2 11.68-.68 4.78-.71 9.6-1.35 14.38a68 68 0 0 1-2.38 11.61c-.37.02-.35-.26-.4-.44-1.56-6.9-3.45-13.71-4.8-20.65m.97 16.89c-.28.05-.4-.18-.55-.32a41 41 0 0 0-8.9-6.3c-3.48-1.85-7.16-2.6-11.09-1.72q-.38.08-.78.11c-.25-.4.08-.62.23-.85 2.29-3.59 5.09-6.62 9.04-8.45a21 21 0 0 1 6.65-1.65c.77-.08.87.43.99.99q.81 3.83 1.7 7.64a169 169 0 0 0 2.62 9.78c.07.25.27.49.09.77M124.63 33.03q.23-.57.73-.95a6.4 6.4 0 0 1 3.31-1.4c1.16-.15 2.22.9 2.2 2.05-.01.46-.24.76-.6.98-.47.29-1 .42-1.5.58-1.01.3-2.08.11-3.04.4-.8 0-1.37-.89-1.1-1.66m-.11 7.3q.44-.9.8-1.84c.19-.44.48-.64.95-.48 1.46.48 2.85 1.1 3.81 2.38q.38.48.6 1.04c.71 1.7.08 2.6-2.16 2.55-1.18-.11-2.52-.84-3.74-1.76-.69-.52-.67-1.05-.26-1.89M82.32 84.1a5 5 0 0 1 .77-2c5.27-8.75 12.59-15.33 21.47-20.25a37 37 0 0 1 12.14-4.35c.87-.13 2-.57 2.54.13.44.56-.34 1.49-.66 2.2-3.14 7.14-5.02 14.65-6.9 22.17-1.98 7.92-3.32 15.95-4.58 24a625 625 0 0 0-2.87 19.92c-.52 4.2-.98 8.4-1.21 12.63-.28 5.17-.66 10.33-.96 15.5-.1 1.57-.08 3.15-.08 4.72 0 5.1-.04 10.19.03 15.28.04 2.74.31 5.48.43 8.22.17 3.87.1 7.75.08 11.62-.01.95-.3 1.23-1.3 1.4a6.1 6.1 0 0 1-5.35-1.65c-.93-.86-1.79-1.78-2.71-2.64q-.74-.7-1.59-1.26c-1.15-.74-2.15-.66-3.23.22a6 6 0 0 0-2.26 3.88c-.31 2.5-.66 4.99-.62 7.53.09 5 1.6 9.57 3.94 13.9 1.99 3.65 5.36 5.46 9.29 6.37 1.86.43 3.75.44 5.64.28a7.7 7.7 0 0 0 3.88-1.45c2.96-2.1 4.75-5 5.7-8.46.67-2.48.97-5.03 1.12-7.6.26-4.37-.3-8.73-.3-13.1l-.04-.4c-.37-3.42-3.1-3.63-5.2-2.28-.85.54-1.44 1.35-2.07 2.13a16 16 0 0 1-2.95 2.94c-.34-1.35-.23-2.56-.15-3.74.32-4.73-.08-9.45-.26-14.17l-.06-1.62c-.1-7.25.05-14.5.3-21.75.17-5.03.66-10.05.94-15.09.26-4.59.84-9.14 1.38-13.7.64-5.32 1.44-10.61 2.25-15.91.85-5.56 1.53-11.16 2.7-16.66 1.86-8.72 3.64-17.46 6.5-25.93q1.19-3.45 2.45-6.88c.4-1.1.45-1.13 1.67-1.14 2.2 0 4.26.63 6.33 1.27a39 39 0 0 1 11.31 5.94 71 71 0 0 1 14.62 13.94 26 26 0 0 1 3.4 5.67c.24.57.32 1.05-.19 1.58-3.07 3.16-4.98 7.05-6.72 11.02a164 164 0 0 0-4.63 11.38 165 165 0 0 0-4.34 15.34 235 235 0 0 0-4.5 25.11q-.91 6.75-1.21 13.58c-.16 3.73-.47 7.46-.7 11.19-.14 2.38-.15 4.76-.26 7.15-.33 7.24-.51 14.5-.37 21.75.03 1.3.05 2.6.23 3.9.11.8-.06 1.48-.57 2.15-4.46 5.87-7.13 12.58-9.07 19.62-.55 2-.32 3.94.1 5.88a87 87 0 0 0 6.82 19.18 26 26 0 0 0 4.29 6.04c.7.8 1.04 1.65 1.13 2.66q.42 5.45.88 10.9c.29 3.41.8 6.8 1.33 10.18.74 4.76 1.43 9.52 2.45 14.24a85 85 0 0 0 4.82 15.45c.3.7.2 1.3-.02 1.94-1.16 3.32-2.3 6.66-2.82 10.14a98 98 0 0 1-2.21 10.3c-.24.93-.7 1.38-1.6 1.51q-1.68.24-3.33.53c-.95.17-1.6-.08-2.11-.98-2.86-5.02-5.58-10.1-7.65-15.5a331 331 0 0 1-7.51-21.27 230 230 0 0 1-4.67-18.46c-1.63-7.47-3.29-14.95-4.78-22.46q-2.08-10.46-3.37-21.06c-.18-1.39-.22-2.78-.35-4.17-.07-.77.15-1.28.94-1.55 1.64-.55 2.83-1.72 3.96-2.97a5.4 5.4 0 0 0 1.21-2.53q.13-.53 0-1.07-.32-1.14-1.28-.42-1.08.8-2.14 1.64c-4.31 3.36-9.32 3.04-13.65.02-.63-.44-1.21-.94-1.82-1.4-.18-.14-.4-.22-.63-.08s-.23.37-.2.6c.05.5.28.96.58 1.34 2.6 3.24 5.64 5.7 10.09 5.64h.54c.7-.04.98.31.97.98-.02 1.17.12 2.33.2 3.5.25 4.5.9 8.96 1.6 13.4a597 597 0 0 0 8.99 44.2c1.71 7.2 4.29 14.13 6.93 21.03 1.77 4.63 3.5 9.28 5.87 13.64 1.38 2.53 2.73 5.08 4.26 7.52.1.15.15.32.34.71a46 46 0 0 1-6.12-.03 51 51 0 0 1-13.29-2.9c-.94-.34-1.68-.65-1.77-1.85-.06-.8-.75-1.35-1.46-1.68-2.55-1.15-3.9-3.33-5.15-5.68-5.77-10.83-9.71-22.37-13.28-34.05-2.93-9.56-5.26-19.3-7.58-29.01-1.23-5.13-1.93-10.36-2.9-15.54a421 421 0 0 1-3.76-23.2c-.56-4.28-1.02-8.57-1.23-12.9l-.54-11.87c-.27-5.3-.35-10.62-.58-15.92-.3-7.08.1-14.14.2-21.2.06-4.01.22-8.02.19-12.02-.04-4.92.13-9.82.33-14.73q.4-9.57 1.1-19.14c.58-8.09 1.86-16.1 3.29-24.07q.63-3.52 1.19-7.06m9.8 123.66c.17.41.41.8.58 1.22 1.22 2.98 3.21 5.4 5.48 7.61q.39.37.74.78c.05.06.02.17.05.46a11 11 0 0 1-5.08-2.67 11 11 0 0 1-2.16-3.24c-1.56-3.31-2.83-6.71-3.3-10.38a34 34 0 0 1-.17-5.52 7 7 0 0 1 1.11-3.01c.13-.24.32-.47.64-.35.3.12.31.41.28.7l-.06.25c-1.38 4.99-.03 9.6 1.89 14.15m55.61 81.92c.14 4.31.15 8.64 1.08 12.89.44 1.99.13 4.04.4 6.05.07.54-.27 1.02-.63 1.75-1.7-4.67-3.06-9.09-4.03-13.63-1-4.7-1.67-9.47-2.46-14.22-.98-5.9-1.6-11.85-2.19-17.8-.08-.89-.4-1.76-.17-2.67.46-.1.66.28.93.48a41 41 0 0 0 4.86 3.17c.91.5 1.87.89 2.9 1.06.7.11.9.48.79 1.13-.16.93-.34 1.86-.44 2.8-.2 1.83-.4 3.67-.5 5.5-.2 4.5-.68 8.99-.54 13.49m17.9 40.03c-.13-.24-.37-.2-.6-.12l-4.61 1.5c-.33.1-.63.36-1.17.22.51-1.44.87-2.93 1.79-4.16q2.59-3.46 5.25-6.88c.77-1 .89-1 1.99-.34a12.6 12.6 0 0 1 4.52 4.73 4.4 4.4 0 0 1-.53 5.13 26 26 0 0 1-4.82 4.31 52 52 0 0 1-19.5 8.29 89 89 0 0 1-23.38 1.56c-9.76-.54-19.48-1.6-29.03-3.76a48 48 0 0 1-8.74-2.79c-1.97-.86-2.62-2.29-2.59-4.26q.03-1.57.57-3.04c.3-.79.45-.83 1.2-.51q.3.13.6.3c3.64 2.07 7.6 3.26 11.63 4.27 1.15.29 1.97 1.01 3.03 1.9-1.37.2-2.47-.19-3.59-.1-.54.04-1.38-.3-1.5.41-.1.57.76.64 1.23.83 3.46 1.35 7.1 2.02 10.7 2.78a65 65 0 0 0 16.93 1.34 122 122 0 0 0 15.97-1.7 5.4 5.4 0 0 1 3.02.12c2.16.8 4.14.07 6.05-1.01 3.92-2.22 7.93-4.26 11.97-6.25q1.84-.89 3.4-2.2c.16-.13.36-.32.22-.57m3.36-12.75c.45-.7.82-.95 1.25-.6 1.87 1.51 3.92 2.9 4.32 5.56.04.22.26.52-.2.68a11.5 11.5 0 0 0-4.98-4.75c-.37-.2-.75-.34-.4-.89M51 198.32q.1-.46.23-.92c.13-.5.48-.65.93-.5q2.42.85 4.81 1.77c.55.22.61.74.63 1.25.05 1.66.17 3.32.25 4.99.32 6.34 1.14 12.63 2.06 18.91a278 278 0 0 0 3.07 16.97c.06.56-.08.87-.36 1.14-.43.43-.74.43-1.09-.06-.34-.48-.61-1-.93-1.5a53 53 0 0 1-6.77-14.94q-2.24-8.65-3.02-17.55c-.28-3.17-.4-6.39.2-9.56M32.88 218.7c.32-4.68.93-9.3 2.67-13.72 1.2-3.04 3.15-5.3 6.13-6.69 1.72-.8 3.44-1.57 5.33-1.86q.4-.08.8-.11c2.08-.07 1.99.18 1.53 1.82-.43 1.57-.53 3.2-.58 4.82q-.18 5.82.82 11.56.79 4.6 1.67 9.17c1.22 6.23 3.87 11.87 7.22 17.21.5.8.99 1.63 1.59 2.35.56.7.45 1.22.01 1.92-1.76 2.84-2.68 5.98-3.3 9.23-.18.9-.02 1.8.19 2.67.09.37.17.87.68.88.44 0 .53-.44.67-.76.48-1.16.92-2.34 1.42-3.5a19 19 0 0 1 2.75-4.63q.3-.38.63-.7c1.39-1.33 1.5-1.04 1.91.5.86 3.26 2 6.45 3.13 9.63.8 2.22.8 2.22-1.5 2.26-2.71.05-5.27.72-7.58 2.13-.85.52-1.56.5-2.4.08a10 10 0 0 1-2.72-1.97 63 63 0 0 1-7.15-8.78 90 90 0 0 1-10.9-21.66q-1.57-4.46-2.73-9.04a8 8 0 0 1-.3-2.8m38.16 62.59a13 13 0 0 1-3.03-.64 33.6 33.6 0 0 1-12.87-7.42c-4.92-4.47-8.83-9.72-12.23-15.37a70 70 0 0 1-9.5-27.5c-.07-.57-.3-1.13-.17-1.76.35.31.36.74.47 1.1a87 87 0 0 0 9.6 21.23 64 64 0 0 0 9.07 11.56 12 12 0 0 0 3.77 2.58c1.3.57 2.47.54 3.68-.3a13.2 13.2 0 0 1 7.91-2.3c1.28.02 1.39.07 1.61 1.3.73 4.08 1.7 8.1 2.14 12.23.15 1.34.5 2.66.75 3.98.23 1.3.15 1.38-1.2 1.3m9.8 4.22a156 156 0 0 1-9.41-25.86 288 288 0 0 1-5.16-21.82 305 305 0 0 1-3.71-23.88c-.51-4.61-.79-9.23-1.1-13.86a291 291 0 0 1-.41-25.92c.11-4.82.48-9.62.93-14.42q.58-6.46 1.42-12.88c1.21-9.07 2.9-18.04 5.36-26.87 2.77-9.94 6.2-19.66 9.89-29.3.2-.54.47-1.07.72-1.6.3-.64.64-1.28 1.04-2.08.2.46.03.73-.03.99-1.5 7.14-2.86 14.3-3.73 21.55q-.64 5.16-.95 10.35c-.3 4.99-.7 9.97-.97 14.96-.29 5.35-.35 10.7-.35 16.07 0 5.45-.38 10.88-.48 16.33a459 459 0 0 0 .04 21.21c.14 4.82.46 9.62.69 14.43.1 2.3.16 4.6.26 6.89.25 5.8.98 11.57 1.77 17.32 1.44 10.53 3.44 20.97 5.3 31.43 1.15 6.43 3.05 12.69 4.57 19.04 2.55 10.66 6.03 21.03 9.77 31.32 1.65 4.52 3.65 8.92 5.79 13.24.11.22.34.43.16.82-1-1.15-1.8-2.39-2.55-3.66q-4.15-7.05-8.32-14.07a19 19 0 0 0-1.64-2.48c-2.02-2.48-3.23-5.4-4.53-8.26-1.39-3.03-2.93-5.98-4.36-9m-1.7 10.1c.3-.28.68-.05 1 .1.87.39 1.6.98 2.3 1.62a39 39 0 0 1 5.52 6.61c2.52 3.63 4.58 7.52 6.92 11.26l2.08 3.26c-2.62-1.9-5.35-3.62-7.23-6.34-3.43-5-7.12-9.82-10.13-15.11-.08-.16-.2-.3-.27-.47-.14-.3-.56-.6-.2-.94m-1.24 1.5c.51.23.66.72.87 1.12l2.14 4.2a47 47 0 0 0 2.95 4.96c.24.36.45.73.75 1.22-3.78-1.89-7.34-8.03-6.7-11.5m-9.11 6.94a28 28 0 0 1 6.64 2.94c5.19 3.28 9.94 7.12 14.72 10.96 4.73 3.8 9.3 7.81 14.56 10.93 1.23.74 2.41 1.57 3.6 2.38.45.3 1.1.72.89 1.2-.29.64-.95.19-1.43-.01a54 54 0 0 1-8.26-4.55c-3.9-2.5-7.51-5.42-11.13-8.32-3.68-2.97-7.61-5.6-11.46-8.33-3.12-2.22-6.23-4.44-9.5-6.45-.28-.17-.68-.27-.7-.81.7-.26 1.39-.15 2.07.06m-.47 7.5a13 13 0 0 1-1.8-4.2c-.08-.44-.2-.87 0-1.36.57.1.9.49 1.3.77 3.1 2.32 6.12 4.74 9.33 6.9q2.17 1.5 4.4 2.9c3.65 2.26 6.93 5 10.22 7.74a83 83 0 0 0 10.43 7.44c.19.11.42.18.5.46-.34.25-.67.04-1-.04a74 74 0 0 1-16.82-6.9 70 70 0 0 1-9.85-6.38 29 29 0 0 1-6.7-7.34m14.56 17.63c-.27.91-.49 1.85-.8 3.02a9 9 0 0 1-.75-4.36c.04-.45.24-.64.71-.46 1 .37 1.16.74.84 1.8m85.43 30.16q-.41 1.7-.85 3.4c-.88 3.3-1.8 6.6-2.67 9.92a7.4 7.4 0 0 1-3.03 4.28c-3.2 2.33-6.83 3.79-10.38 5.45-5.12 2.41-10.61 3.4-16.13 4.21-3.44.5-6.91.24-10.37-.07a180 180 0 0 1-8.45-.93c-5.42-.75-10.7-1.96-15.73-4.22a6.7 6.7 0 0 1-3.72-3.7c-2.27-5.7-5.04-11.16-7.64-16.7-.04-.08-.04-.17-.1-.49l4.86 1.63a223 223 0 0 0 15.15 4.5c3.66.98 7.43 1.33 11.21 1.55 2.47.15 4.93.26 7.42.07 3.6-.27 7.15-.83 10.71-1.34 9.2-1.3 18-3.98 26.63-7.34.75-.3 1.48-.66 2.22-.98.27-.12.57-.42.86-.14.26.25.08.6 0 .9m10.18-45.92a15 15 0 0 1 2.96 6.72q.55 3.58-.1 7.12c-.46 2.48-.85 4.97-1.4 7.43a36 36 0 0 1-6.03 13.46c-1.46 2-2.98 3.94-4.8 5.66a15 15 0 0 1-3.88 2.64c-7.81 3.68-16.09 5.73-24.58 7.02-3.51.53-7.04 1-10.59 1.24q-5.8.42-11.6-.08c-3.27-.3-6.56-.51-9.78-1.2a113 113 0 0 1-21.22-6.66c-1.11-.48-2.15-1.13-3.23-1.7-.57-.3-.96-.8-1.36-1.29-2.28-2.75-3.6-6.01-4.84-9.3a76 76 0 0 1-3.66-13.4c-.45-2.51.28-4.81 1.07-7.12.16-.45.44-.5.84-.25.72.45.89.84.68 1.7q-.1.4-.23.78c-.8 2.23-.2 4.23.94 6.18 2.23 3.84 5.66 6.21 9.62 7.94a59 59 0 0 0 10.57 3.25c6.32 1.42 12.7 2.57 19.18 3.03 3.69.26 7.36.6 11.1.52 8.78.22 17.36-1.32 25.78-3.76 5.6-1.62 10.94-3.95 15.57-7.6 3.05-2.41 5.73-5.2 7.5-8.74a10 10 0 0 0 1.05-5.36c-.3-3.64-1.34-6.9-4.57-9.06-.43-.28-.5-.55-.17-.98.72-.96 1.22-1.14 2.3-.6a8 8 0 0 1 2.88 2.4m-2.82-20.93q.7-.53 1.48-.95c.8-.45 1.09-.3 1.26.64q.03.2.03.4v.94c-.23 4.45-1.22 8.67-4.07 12.22-5.82 7.28-11.26 14.85-17.08 22.14a44 44 0 0 1-7.4 7.25 8 8 0 0 1-3.7 1.54c-.89.16-1.11-.16-.79-.95 1.9-4.67 3.57-9.42 5.88-13.93a90 90 0 0 1 13.26-19.31 70 70 0 0 1 11.13-10m-16.45-12.68c.7.96.76 2.04.82 3.07q.13 1.96 0 3.92c-.11 1.8-.33 3.59-.51 5.38a4.8 4.8 0 0 1-1.27 2.88c-1.33 1.45-2.52 3.02-3.83 4.62.39-2.72 4.17-18.44 4.8-19.87m-7.37 9.77c.73-3.26 2.05-6.23 4.47-8.6.25-.25.45-.58.93-.62-2.25 7.45-3.77 15.06-5.86 22.52-.63-4.46-.53-8.9.46-13.3m-.7 22.8c1.94-5.07 5.07-9.4 8.44-13.58a30 30 0 0 1 7.76-6.62c2.12-1.3 4.4-1.94 6.95-1.78a92 92 0 0 0-27.52 35.85 45 45 0 0 1 1.78-6.63q1.21-3.65 2.6-7.25m-.57-54.56a39 39 0 0 1-12.67-6.47c-3.21-2.47-5.3-5.83-6.93-9.5a41 41 0 0 1-2.82-9c-.08-.42-.21-.85.07-1.58.66 1.82 1.54 3.26 2.41 4.72 2.34 3.92 5.3 7.37 8.2 10.87.7.86 1.6 1.59 2.51 2.24 3.5 2.53 6.9 5.2 10.56 7.51.95.6 1.94 1.13 2.9 1.7-1.44.12-2.86-.09-4.23-.49m28.25-10a3.3 3.3 0 0 1-.9 1.63c-4.75 4.68-10.62 7.15-17 8.64-.74.18-1.41.11-2.1-.15a32 32 0 0 1-6-3.07 179 179 0 0 1-11.1-7.93q-1.2-.92-2.16-2.04c-3.16-3.64-6.16-7.41-8.54-11.64q-.36-.65-.68-1.32c-1.7-3.54-1.72-3.95-.41-7.69a59 59 0 0 1 2.85-6.85c.36-.72.81-1.07 1.64-1.17 1.92-.22 3.8-.65 5.77-.36 2.91.43 5.52 1.59 8 3.12 1.1.69 2.15 1.47 3.29 2.11 2.28 1.28 4.04 3.14 5.83 4.98.39.4.59.9.8 1.4l2.11 4.83q.2.43.47.81c.06.1.23.17.34.16.22-.01.28-.21.27-.4-.02-.35-.01-.73-.11-1.07-.3-.97-.12-1.82.35-2.71 1.16-2.18 1.63-4.59 2.09-6.97q1.47-7.62 2.01-15.38c.24-3.55.76-7.07 1.13-10.6q.38-3.44.66-6.86c.46-6.02.72-12.04.57-18.09-.2-8.52-.9-16.97-2.5-25.36-.85-4.47-1.34-9-2.08-13.48-.39-2.35-.92-4.69-1.46-7-.24-1.02-.11-1.79.6-2.6 1.43-1.64 3.08-3.03 4.7-4.47a5 5 0 0 1 2.44-1c3.22-.6 6.15.4 9.07 1.49 2.62.98 2.63 1.01 3.11 3.7.47 2.62 1.3 5.14 2.05 7.7a105 105 0 0 1 3.64 18.52c.52 5.02.66 10.07.61 15.11-.1 6.17-.1 12.34-.33 18.5-.18 4.77-.63 9.53-.94 14.29q-.18 2.56-.27 5.12a149 149 0 0 1-3.14 25.3c-.66 3.22-1.18 6.47-1.88 9.68-.56 2.6-1.31 5.15-1.97 7.72zm23.36-74.28q-.26 8.3-1.2 16.55c-.47 4.02-.83 8.06-1.4 12.07-1.13 7.92-3.2 15.6-5.92 23.11a192 192 0 0 1-3.24 8.45 22 22 0 0 1-3.69 6.1c-1.28 1.45-2.5 2.95-3.77 4.41-.34.4-.67.84-1.4 1.26.33-1.21.55-2.17.85-3.11 1.5-4.78 2.27-9.73 3.17-14.64a171 171 0 0 0 2.69-20.74c.42-5.79.6-11.6 1.02-17.38.4-5.66.7-11.32.66-17-.02-2.3.12-4.6.1-6.88-.03-4.37-.06-8.73-.32-13.1a106 106 0 0 0-5.03-25.9c-.5-1.55-.93-3.11-1.39-4.67-.1-.33-.29-.74.05-1 .29-.22.6.04.87.19 2.98 1.61 5.91 3.35 8.38 5.66a16 16 0 0 1 4.23 6.35 96 96 0 0 1 4.73 18.82c.42 3.12.68 6.27.69 9.42 0 4.01.05 8.02-.08 12.03"/><path d="M118.94 168.85a19.2 19.2 0 0 0-.33-14.36 8 8 0 0 0-2.23-3 4.74 4.74 0 0 0-6.3 0 8.4 8.4 0 0 0-2.17 2.9c-1.1 2.31-1.63 4.75-1.62 8.55 0 1.47.54 4.2 1.5 6.4a8 8 0 0 0 2.49 3.3 4.8 4.8 0 0 0 6.4-.32 8.5 8.5 0 0 0 2.26-3.47m-9.2-8.77c.08 1.66.12 3.33.3 4.98-.54-1.64-.38-3.31-.3-4.98m-24.01 14.36a3.94 3.94 0 0 0 5.4-.09 8.3 8.3 0 0 0 2.3-3.45 16 16 0 0 0 1.12-6.41c.03-3.58-.46-6.72-1.84-9.67a8 8 0 0 0-2.15-2.91c-1.65-1.35-3.5-1.33-5.19-.03a8.5 8.5 0 0 0-2.87 4.32 21.7 21.7 0 0 0 .57 14.55 8.6 8.6 0 0 0 2.66 3.69m-.08-18.25a42 42 0 0 0-.76 9.92c-.63-3.38-.5-6.7.76-9.92m89.78 178.41c-1.52 1.45-2.9 3.07-4.74 4.19a80 80 0 0 1-14.14 7 66 66 0 0 1-20.84 4.07c-7.42.23-14.84.22-22.25-.65a129 129 0 0 1-16.88-2.9c-6.6-1.68-12.82-4.24-18.14-8.65l-.43-.32c-.19-.14-.4-.23-.6-.04-.2.18-.18.42-.06.62q.27.47.61.88 1.22 1.36 2.63 2.53c3.95 3.38 8.65 5.33 13.53 6.84 8.91 2.77 18.15 3.64 27.4 4.3 4.63.34 9.27.3 13.9.24q2.65-.03 5.26-.32a68 68 0 0 0 19.4-5.08c3.22-1.38 6.42-2.8 9.3-4.9 2.92-2.13 5.08-4.94 7.28-7.74.29-.36.62-.76.56-1.51-.86.34-1.28.95-1.8 1.43M73.36 116.57l-10.25-6.85c-1.57-1.04-3.03 1.48-1.47 2.52l10.25 6.84c1.56 1.05 3.02-1.47 1.47-2.51M93 109.6c-.6-.6-1.44-.49-2.06 0l-6.31 5.08c-.62.5-.52 1.55 0 2.06.6.6 1.44.5 2.06 0l6.31-5.07c.62-.5.52-1.55 0-2.06m5.64-18.15-1.98-2.57c-.48-.63-1.25-.96-2-.53-.6.36-1 1.37-.52 2l1.99 2.57c.48.62 1.25.96 1.99.52.61-.35 1-1.36.52-2m38.48-2.02a28 28 0 0 1-8.72 3.66c-1.83.42-1.06 3.24.77 2.81a30 30 0 0 0 9.42-3.96c1.58-1 .12-3.53-1.47-2.51m-9.65 42.46-4.02-5.68c-.46-.64-1.28-.94-2-.52-.63.37-.98 1.35-.52 2l4.02 5.67c.45.64 1.27.94 2 .52.63-.37.97-1.35.52-2m-.26-61.5c-.63-.37-1.66-.2-2 .52q-1.48 3.28-.97 6.83c.1.78 1.1 1.2 1.79 1.02.84-.23 1.13-1.01 1.02-1.8a8.4 8.4 0 0 1 .68-4.58c.33-.71.2-1.57-.52-2m-60.84 84.72c-3.8-.2-7.56.59-11 2.2-.72.32-.9 1.35-.53 1.99.43.73 1.28.85 2 .52a20 20 0 0 1 9.53-1.8c1.87.1 1.87-2.81 0-2.91m-29.84 58.53a30 30 0 0 1-10.41-7.97c-.5-.6-1.54-.52-2.06 0-.6.6-.51 1.46 0 2.06a32 32 0 0 0 11 8.43c.7.33 1.56.2 1.99-.52.37-.63.2-1.66-.52-2m11.2 18-3.42 5.7c-.97 1.61 1.55 3.08 2.51 1.47l3.42-5.7c.97-1.6-1.55-3.08-2.51-1.47m17.21 43.08c-5.1.13-10.2.79-15.18 1.95-1.82.42-1.05 3.23.78 2.8a72 72 0 0 1 14.4-1.83c1.87-.05 1.88-2.97 0-2.92m140.71-137-10.38 10.72c-1.3 1.34.76 3.4 2.07 2.06l10.37-10.72c1.3-1.35-.76-3.41-2.06-2.06m-12.73 44.76-9.74-13.07c-.47-.63-1.27-.95-2-.52-.62.36-1 1.36-.52 2l9.74 13.06c.47.63 1.26.96 2 .53.61-.37.99-1.36.52-2m-12.67 11.9-5.13 5.14c-1.32 1.33.74 3.39 2.07 2.06l5.12-5.14c1.32-1.33-.74-3.4-2.06-2.06m-4.85 50.08-5.7-4.56c-.62-.5-1.47-.6-2.07 0-.5.5-.62 1.56 0 2.06l5.7 4.56c.62.49 1.46.6 2.06 0 .51-.51.62-1.57 0-2.06m-51.29 18.53-2.86 5.7c-.83 1.67 1.68 3.15 2.52 1.47l2.85-5.7c.84-1.68-1.68-3.15-2.52-1.47m-27.58-12.02-6.23-4.05c-1.58-1.02-3.04 1.5-1.47 2.52l6.23 4.05c1.58 1.03 3.04-1.5 1.47-2.52m23.28 58.27-6.85-5.12c-.63-.47-1.63-.1-2 .53-.43.74-.1 1.52.53 1.99l6.84 5.12c.64.47 1.63.1 2-.53.43-.74.1-1.52-.52-1.99m19.13-16.92c-.53-.52-1.54-.59-2.06 0l-4 4.57c-.5.59-.57 1.47 0 2.06.54.53 1.55.6 2.07 0l3.99-4.56c.52-.6.58-1.48 0-2.06M142 322.8l-2.85-4.55c-1-1.6-3.52-.13-2.52 1.47l2.85 4.56c1 1.59 3.52.12 2.52-1.47m-45.71-37.2H88.3c-1.88 0-1.88 2.92 0 2.92h7.98c1.87 0 1.88-2.92 0-2.92"/></svg>