<svg xmlns="http://www.w3.org/2000/svg" xmlns:xlink="http://www.w3.org/1999/xlink" xml:space="preserve" viewBox="284 233.9 273.9 265.7"><defs><path id="a" d="M0 0h500v500H0z" transform="matrix(-1 0 0 -1 500 500)"/></defs><clipPath id="b"><use xlink:href="#a" style="overflow:visible"/></clipPath><g style="clip-path:url(#b)"><path d="m460.12 243.67 90.02 103.43-6.68 5.81a2.92 2.92 0 0 0-4.77-1.46 2.95 2.95 0 0 0 .79 4.92l-5.34 4.65a2.92 2.92 0 0 0-4.77-1.46 2.95 2.95 0 0 0 .8 4.92l-5.34 4.65a2.92 2.92 0 0 0-4.77-1.47 2.95 2.95 0 0 0 .79 4.93l-5.34 4.64a2.92 2.92 0 0 0-4.77-1.46 2.95 2.95 0 0 0 .8 4.92l-5.34 4.65a2.92 2.92 0 0 0-4.77-1.46 2.95 2.95 0 0 0 .79 4.92l-5.34 4.65a2.92 2.92 0 0 0-4.77-1.47 2.95 2.95 0 0 0 .8 4.93l-5.34 4.64a2.92 2.92 0 0 0-4.77-1.46 2.95 2.95 0 0 0 .79 4.93l-5.34 4.64a2.92 2.92 0 0 0-4.77-1.46 2.95 2.95 0 0 0 .8 4.92l-5.34 4.65a2.92 2.92 0 0 0-4.77-1.47 2.95 2.95 0 0 0 .79 4.93l-5.34 4.64a2.92 2.92 0 0 0-4.77-1.46 2.95 2.95 0 0 0 .8 4.93l-5.34 4.64a2.92 2.92 0 0 0-4.77-1.46 2.95 2.95 0 0 0 .79 4.92l-5.34 4.65a2.92 2.92 0 0 0-4.77-1.47 2.95 2.95 0 0 0 .8 4.93l-5.34 4.65a2.92 2.92 0 0 0-4.77-1.47 2.95 2.95 0 0 0 .79 4.93l-5.34 4.64a2.92 2.92 0 0 0-4.77-1.46 2.95 2.95 0 0 0 .8 4.92l-5.34 4.65a2.92 2.92 0 0 0-4.77-1.46 2.95 2.95 0 0 0 .79 4.92l-5.34 4.65a2.92 2.92 0 0 0-4.77-1.47 2.95 2.95 0 0 0 .8 4.93l-5.34 4.64a2.92 2.92 0 0 0-4.77-1.46 2.95 2.95 0 0 0 .79 4.93l-6.68 5.8-90.01-103.43z" style="opacity:.26;fill:#00609b"/><path d="m548.14 345.1-6.68 5.81a2.92 2.92 0 0 0-4.77-1.46 2.95 2.95 0 0 0 .79 4.93l-5.34 4.64a2.92 2.92 0 0 0-4.77-1.46 2.95 2.95 0 0 0 .8 4.92l-5.34 4.65a2.92 2.92 0 0 0-4.77-1.47 2.95 2.95 0 0 0 .79 4.93l-5.34 4.64a2.92 2.92 0 0 0-4.77-1.46 2.95 2.95 0 0 0 .8 4.93l-5.34 4.64a2.92 2.92 0 0 0-4.77-1.46 2.95 2.95 0 0 0 .79 4.92l-5.34 4.65a2.92 2.92 0 0 0-4.77-1.47 2.95 2.95 0 0 0 .8 4.93l-5.34 4.64a2.92 2.92 0 0 0-4.77-1.46 2.95 2.95 0 0 0 .79 4.93l-5.34 4.64a2.92 2.92 0 0 0-4.77-1.46 2.95 2.95 0 0 0 .8 4.92l-5.34 4.65a2.92 2.92 0 0 0-4.77-1.47 2.95 2.95 0 0 0 .79 4.93l-5.34 4.65a2.92 2.92 0 0 0-4.77-1.47 2.95 2.95 0 0 0 .8 4.93l-5.34 4.64a2.92 2.92 0 0 0-4.77-1.46 2.95 2.95 0 0 0 .79 4.92l-5.34 4.65a2.92 2.92 0 0 0-4.77-1.46 2.95 2.95 0 0 0 .8 4.92l-5.34 4.65a2.92 2.92 0 0 0-4.77-1.47 2.95 2.95 0 0 0 .79 4.93l-5.34 4.64a2.92 2.92 0 0 0-4.77-1.46 2.95 2.95 0 0 0 .8 4.93l-5.34 4.64a2.92 2.92 0 0 0-4.77-1.46 2.95 2.95 0 0 0 .79 4.92l-5.34 4.65a2.92 2.92 0 0 0-4.77-1.47 2.95 2.95 0 0 0 .8 4.93l-5.34 4.64a2.92 2.92 0 0 0-4.77-1.46 2.95 2.95 0 0 0 .79 4.93l-6.68 5.8-90.01-103.43 166.37-144.78z" style="fill:#e7ffe1"/><g style="opacity:.6"><path d="m526.17 346.88-69.18-79.49m59.21 88.17-69.18-79.5m59.21 88.18-69.18-79.5m59.21 88.18-69.19-79.5m59.22 88.18-69.19-79.5m59.21 88.18-69.18-79.5m59.21 88.17-69.18-79.49m59.21 88.17-69.19-79.49m59.21 88.17-69.18-79.5m59.21 88.18-69.18-79.5m59.21 88.18-69.18-79.5m59.21 88.18-69.19-79.5m59.21 88.18-69.18-79.5m59.21 88.18-69.18-79.5m59.21 88.17-69.18-79.49" style="fill:none;stroke:#b8d1b2;stroke-miterlimit:10"/></g></g></svg>