<svg xmlns="http://www.w3.org/2000/svg" viewBox="710.4 1619 636.3 837.8"><path d="M1177.23 1755.35c14.93-29.87-2.94-68.14-31.34-85.74s-63.8-19.1-97.13-16.81a514 514 0 0 0-112.5 20.42c-20.16 6.04-40.73 13.79-55.31 28.96s-21.45 39.64-8.42 60.36c-56.63 7.45-106.9 50.8-122.6 105.7s4 118.28 48.1 154.57c-21.78 21.13-32.66 52.9-28.47 82.96 4.2 30.04 23.39 57.63 49.36 68.92-29.02.33-54.5 23.6-63.38 51.2-8.9 27.62-3.52 58.2 8.3 84.7 17.93 40.16 50.8 73.47 90.73 91.95s86.6 22 129.32 10.24c68.66 22.66 148.7 6.58 203.34-40.78 23.57-20.43 42.96-47.33 48.07-78.11 5.07-30.79-6.66-65.38-41.61-90.47 45.75-19.75 67.43-81.6 43.98-125.59 21.84-.59 41.7-14.7 53.82-32.9 12.12-18.16 17.55-39.99 20.8-61.58 6.37-42.17 4.43-88.12-19.54-123.36-23.97-35.27-75.32-54.02-111.33-31.16 12.86-17.2 11.3-43.58-4.2-73.48" style="fill:#f2e9e1"/><path d="M1054.28 1868.8c-33.9-2.5-69.75 3.95-96.51 24.93s-41.99 58.4-30.66 90.47c6.22 17.6 19.5 32.01 34.74 42.84 32.74 23.27 77.23 31.13 114.38 15.87 37.17-15.23 64.11-55.1 59.94-95.07-4.16-39.96-42.34-76.14-81.9-79.05" style="fill:#ffdfa2"/><path d="M1006.63 1959.9a88 88 0 0 1 57.63-3.05 32.7 32.7 0 0 1-25.36 18.66c-10.88 1.32-22.33-3.4-32.27-15.6" style="fill:#f492ac"/><path d="M995.1 2363.87c-17.38-47.24-45.96-100.7-83.78-133.9-9.48-8.3-19.72-16.16-31.6-20.27-11.91-4.14-25.82-4.08-36.42 2.79-14.29 9.24-19.04 28.2-18.25 45.22 1.73 37.32 24.91 71.94 56.72 91.58 31.78 19.6 70.28 35.76 113.32 14.58m-.09 1.05c19.4-50.2 68.58-99.35 117.67-121.39 17.96-8.07 39.88-13.23 56.55-2.76 17.78 11.15 21.89 36.89 13.58 56.17s-25.97 32.89-44.4 42.93c-37.23 20.21-89.99 36.26-143.4 25.05" style="fill:#b6bc3b"/><path d="m1006.5 1954.59 3.03 9.24a76.8 76.8 0 0 1 53.96-5.4 44 44 0 0 0 .44-17.87c-18.1-.4-35.5 6.37-57.42 14.03m-14.71-44.25c-5.6-.15-10.88 4.52-11.4 10.1s3.84 11.14 9.35 12.02 11.39-3.1 12.62-8.56-2.14-13.33-10.56-13.56m80.11-8.92c-5.6-.15-10.9 4.52-11.42 10.1-.53 5.57 3.84 11.14 9.36 12.03s11.39-3.11 12.62-8.57-2.14-13.3-10.57-13.56" style="fill:#511239"/><path d="M959.68 1968.12c2.37 12.59 30.25 6.45 28.05-5.14-2.35-12.23-30.14-5.8-28.05 5.14m121.07-20.92c.44 12.82 28.9 11 28.49-.83-.44-12.4-28.87-10.3-28.5.83" style="fill:#f5a1a6"/><path d="M1232.27 1886.25c-25.11-23.77-64.76-30.72-96.48-16.9 12.42-29.05-.23-64.35-25.4-83.95-25.18-19.6-60.95-23.54-90.77-12.21-29.84 11.3-53.37 36.74-64.9 66.52-27.61-25.73-74.77-31.37-110.04-12.59-35.3 18.81-56.8 60.01-53.55 99.86 3.23 39.84 30.28 76.46 65.14 90.6-29.25 23.19-38.52 67.3-23.27 101.33s52.56 56.2 89.85 55.78c37.33-.41 73.1-22.07 89.94-54.55 14.52 31.31 45.36 55.02 79.64 58.98 34.3 3.96 70.63-13.03 87.9-42.9 17.3-29.87 13.21-71.16-10.97-95.77 40.62-2.59 73.13-26.33 85.13-58.78 12.03-32.45 2.9-71.65-22.22-95.42m-106.45 112.91c-12.06 26.94-37.62 47.42-66.52 53.35-20.04 4.1-40.97 1.52-60.6-4.29-25.03-7.36-49.47-20.86-63.4-42.9-18.6-29.49-13.91-70.54 8-97.65 21.92-27.11 58.52-40.32 93.26-37.59 42.25 3.32 69.92 18.4 84.74 43.93 14.85 25.53 16.58 58.21 4.52 85.15" style="fill:#f8b060"/><path d="M1102.29 2184.76q-5.25 0-10.45-.59c-32.25-3.7-62.44-24.32-79.31-53.43-19.17 29.7-53.35 48.65-89.62 49.06-40.02.35-78.87-23.77-94.6-58.8-15.4-34.37-7.28-76.74 18.63-102.06-33.21-16.9-57.83-53.44-60.94-91.58-3.44-42.23 19.69-85.33 56.25-104.81 34.65-18.46 80.75-14.5 110.45 8.65 13.17-29.02 37.09-52.23 65.08-62.85 32.3-12.24 69.9-7.16 95.74 12.97 25.24 19.63 37.04 51.64 30.4 79.6 31.52-9.27 67.93-1.05 91.88 21.6 26.55 25.15 36.24 66.64 23.5 100.91-11.97 32.28-42.66 55.5-79.72 61.04 19.54 26.23 22.12 65 5.19 94.28-16.23 28.05-49.1 46-82.48 46m-89.5-69.78h.12a5.1 5.1 0 0 1 4.54 2.96c14.09 30.37 43.75 52.35 75.56 56.02 32.9 3.78 66.93-12.82 82.9-40.38 16.43-28.43 12.05-66.96-10.19-89.61a5.13 5.13 0 0 1 3.32-8.72c37.38-2.37 69.04-24.12 80.63-55.43 11.33-30.54 2.73-67.49-20.95-89.87-23.68-22.4-61.03-28.94-90.9-15.94a5.14 5.14 0 0 1-6.78-6.72c10.83-25.4.59-58.89-23.83-77.87-23.09-17.96-56.75-22.48-85.8-11.48-27.4 10.4-50.55 34.16-61.91 63.56a5.2 5.2 0 0 1-3.64 3.17 5 5 0 0 1-4.63-1.26c-26.18-24.42-70.93-29.5-104.14-11.8-33.04 17.6-53.97 56.63-50.86 94.9 3.03 37.23 28.5 72.71 61.95 86.27 1.7.67 2.9 2.23 3.14 4.02a5.2 5.2 0 0 1-1.9 4.75c-27.12 21.48-36.48 62.41-21.78 95.19 13.96 31.16 48.5 52.76 84.18 52.76h.94c35.24-.38 69.57-21.19 85.42-51.8a5.2 5.2 0 0 1 4.6-2.72" style="fill:#511239"/><path d="M1038.87 2059.64c-13.05 0-27-2.17-41.63-6.49-21.22-6.25-49.92-19.16-66.29-45.1-19.16-30.37-15.64-73.94 8.36-103.64 22.1-27.35 59.54-42.46 97.66-39.46 42.96 3.37 72.83 19.01 88.79 46.48 15.67 26.96 17.49 61.38 4.72 89.84-12.73 28.47-39.64 50.03-70.19 56.28-6.83 1.38-14 2.09-21.42 2.09m-11.47-184.77c-31.66 0-61.77 13.38-80.08 36.03-21.33 26.38-24.56 64.93-7.68 91.7 14.67 23.23 40.99 34.97 60.5 40.72 21.33 6.28 40.9 7.7 58.1 4.17 27.38-5.6 51.47-24.91 62.88-50.41s9.8-56.31-4.22-80.49c-14.35-24.7-40.76-38.26-80.7-41.37q-4.45-.36-8.8-.36" style="fill:#511239"/><path d="M1034.27 1980.68q-2.33-.01-4.7-.24c-7.6-.73-13.96-3.02-18.9-6.87-6.24-4.84-9.88-12.23-9.5-19.36a5.1 5.1 0 0 1 2.96-4.4 172 172 0 0 1 57.51-15.4c2-.18 3.88.78 4.9 2.49 8.02 13.5 2.9 27.1-5.72 34.6-6.83 5.95-16.34 9.18-26.55 9.18m-22.57-22.98c.7 2.88 2.56 5.7 5.25 7.78 3.38 2.6 7.96 4.22 13.6 4.75 9.17.88 17.74-1.5 23.52-6.48 4.7-4.08 8.13-10.92 5.02-18.75a163 163 0 0 0-47.39 12.7m-58.3 417.05c-26.64 0-51.38-7.33-73.95-21.95-32.9-21.3-55.57-55.13-60.62-90.49-3.35-23.39 3.2-43.13 17.46-52.82 16.64-11.3 37.94-5.72 49.15-1.38 35.74 13.82 59.98 42.93 73.97 64.94 17.73 27.82 29.29 58.92 40.47 89a5 5 0 0 1-.27 4.13 5.2 5.2 0 0 1-3.23 2.62q-22.19 5.97-42.98 5.95m-93.78-161.62c-6.05 0-12.21 1.3-17.55 4.9-12.88 8.74-15.2 27.88-13.06 42.87 4.64 32.45 25.59 63.59 56.02 83.3 30.75 19.93 64.55 25.21 103.23 16.09-10.39-27.9-21.4-56.43-37.5-81.7-13.2-20.71-35.89-48.06-69.02-60.88-5.43-2.11-13.67-4.58-22.12-4.58" style="fill:#511239"/><path d="M1029.84 2372.5q-17.62 0-35.54-2.5a5.1 5.1 0 0 1-4.02-7.07c23.42-55.37 65.7-100.85 116-124.77 13.32-6.34 23.88-9.53 34.27-10.42 13.79-1.14 26.53 2.26 35.86 9.66 18.22 14.44 19.92 40.84 12.17 59.48-6.86 16.55-20.54 30.95-41.84 44.01-33.78 20.75-74.36 31.6-116.9 31.6m-27.35-11.83c50.5 5.66 99.59-4.37 138.88-28.55 19.37-11.92 31.72-24.74 37.74-39.2 6.1-14.7 4.98-36.33-9.07-47.48-7.16-5.7-17.58-8.42-28.61-7.48-9.1.76-18.57 3.66-30.72 9.44-46.19 21.98-85.3 63.03-108.22 113.27" style="fill:#511239"/><path d="m997.32 2361.6-.64-.02a5.1 5.1 0 0 1-4.46-5.73 1866 1866 0 0 0 14.02-231.8 5.14 5.14 0 0 1 10.27 0c.18 77.6-4.57 156.04-14.08 233.07a5.15 5.15 0 0 1-5.1 4.49" style="fill:#511239"/><path d="M930.57 1762.9c-2.79 0-5.58-.92-7.8-2.74a5.13 5.13 0 1 1 6.48-7.95 2.2 2.2 0 0 0 2.32.15c.64-.41 1.08-1.41.9-2.14-.38-1.8-3.13-3.47-5.78-5.11l-1.58-.97c-6.07-3.84-10.95-11.12-7.34-17.99 2.03-3.81 6.78-7.77 18.14-5.19a5.15 5.15 0 0 1-2.3 10.03c-4.6-1.05-6.56-.38-6.77 0-.23.47 1 2.76 3.76 4.52l1.43.91c4.08 2.5 9.16 5.6 10.45 11.68a12.5 12.5 0 0 1-5.57 13.09 12.5 12.5 0 0 1-6.34 1.7m36.73-17.13a5.1 5.1 0 0 1-4.86-3.53 167 167 0 0 1-6.23-25.32 5.14 5.14 0 0 1 8.25-4.84q.28-.62.56-1.17c1.5-3 4.58-6.64 8.74-7.9a9.5 9.5 0 0 1 7.57.8c2.5 1.4 3.85 3.6 4.93 5.78q.21.4.41.85 2.16-5.84 5.02-11.39a5.2 5.2 0 0 1 4.49-2.79c2.64 0 8.95 1.06 11.1 12.04l4.16 21.5a5.12 5.12 0 1 1-10.06 1.97l-4-20.51a91 91 0 0 0-5.13 17.49 5.15 5.15 0 0 1-4.99 4.2h-.06a5.1 5.1 0 0 1-5.02-4.12 60 60 0 0 0-5.07-14.64q-.44-.86-.65-1.2a6.5 6.5 0 0 0-2.23 2.52c-3.64 7.25-2.61 16.88-1.79 24.6a5.17 5.17 0 0 1-4.02 5.57 8 8 0 0 1-1.11.09m65.75-16.64a5.1 5.1 0 0 1-5.04-4.23c-1.35-7.45-1.5-24.94-.3-32.83a5.1 5.1 0 0 1 5.87-4.29 5.1 5.1 0 0 1 4.29 5.87c-1.06 6.84-.91 23.07.23 29.46a5.13 5.13 0 0 1-5.05 6.02m55.29.76q-.67 0-1.38-.18a50 50 0 0 0-21.57-1.11 5.15 5.15 0 0 1-5.84-6.34c.62-2.38 1.23-5.02 1.9-7.8 2.03-8.48 4.32-18.11 7.2-25.27a5.15 5.15 0 0 1 6.66-2.87 5.15 5.15 0 0 1 2.87 6.66c-2.58 6.45-4.78 15.7-6.71 23.82l-.21.85a61 61 0 0 1 18.46 2.12 5.13 5.13 0 0 1 3.58 6.3 5.1 5.1 0 0 1-4.96 3.82m43.05 3.87c-8.37 0-16.41-5.72-18.9-13.79-2.7-8.77 1.55-18.95 9.68-23.18 5.4-2.79 11.62-2.52 15.9.68a11.9 11.9 0 0 1 4.61 9.36 10.2 10.2 0 0 1-3.87 8.3c-4.55 3.52-9.66 2.08-13.38 1.03-1.2-.35-2.44-.68-3.47-.82q.08.78.33 1.58c1.26 4.02 5.8 7.01 10.03 6.51a5.14 5.14 0 0 1 1.23 10.21q-1.1.13-2.17.12m-4.5-27.84q.7.16 1.35.38c1.35.38 3.85 1.08 4.29.73-.03-.15-.2-1.03-.62-1.35-1.09-.82-3.2-.7-5.02.24" style="fill:#e35a26"/><path d="M841.22 1902.1q-.6 0-1.2-.18a4.4 4.4 0 0 1-3.06-5.43l1.2-4.22a4.4 4.4 0 1 1 8.48 2.38l-1.2 4.22a4.35 4.35 0 0 1-4.22 3.23m7.36 60.12a4.4 4.4 0 0 1-3.52-1.76c-12.9-17.28-11.7-32.28-11.65-32.9a4.4 4.4 0 0 1 8.78.77c-.03.23-.8 12.5 9.94 26.88a4.38 4.38 0 0 1-3.55 7m203.7 69.64a4.4 4.4 0 0 1-1.14-8.66c.15-.03 14.64-3.93 21.68-9.68a4.4 4.4 0 0 1 6.2.62 4.4 4.4 0 0 1-.62 6.19c-8.51 6.98-24.33 11.2-25 11.38q-.58.15-1.12.15m36.24-21.51a4.3 4.3 0 0 1-3.17-1.35 4.4 4.4 0 0 1 .12-6.22l2.88-2.76a4.4 4.4 0 0 1 6.22.12 4.4 4.4 0 0 1-.12 6.22l-2.88 2.76a4.4 4.4 0 0 1-3.05 1.23m77.65 73.59a4.4 4.4 0 0 1-4.4-4.4v-4.22a4.4 4.4 0 1 1 8.8 0v4.22a4.4 4.4 0 0 1-4.4 4.4m-17.87 56.64a4.4 4.4 0 0 1-3.52-7.04c8.1-10.86 11.35-24.83 11.38-24.98a4.41 4.41 0 0 1 8.6 1.97c-.15.65-3.73 15.9-12.92 28.26a4.4 4.4 0 0 1-3.54 1.79" style="fill:#fff7ed"/><path d="M989.84 2365.63q-.77 0-1.52-.27c-1.12-.4-27.7-10.5-71.69-46.56-43.95-36.07-81.22-93.17-82.78-95.6a4.4 4.4 0 1 1 7.37-4.81c.38.58 38.12 58.39 80.99 93.57 42.66 35 68.9 45.04 69.16 45.13a4.4 4.4 0 0 1 2.58 5.66 4.3 4.3 0 0 1-4.1 2.88" style="fill:#511239"/><path d="M884.06 2352.92h-1.88a4.4 4.4 0 0 1-4.31-4.49c.03-2.4 2-4.31 4.4-4.31h1.35c7.28 0 43.49-.56 60.1-11.15 3.25-34.04-.15-63.65-.21-63.97a4.41 4.41 0 0 1 8.74-1.05c.15 1.29 3.7 32 0 67.9a4.3 4.3 0 0 1-1.76 3.08c-17.8 13.2-57.24 14-66.43 14" style="fill:#511239"/><path d="M854.98 2314.83c-6.01 0-9.98-.14-10.48-.17a4.4 4.4 0 0 1-4.22-4.58 4.36 4.36 0 0 1 4.58-4.22c.32.02 32.8 1.26 57.1-3.7 10.3-29.7 5.93-68.6 5.9-69.02a4.37 4.37 0 0 1 3.87-4.87 4.4 4.4 0 0 1 4.87 3.85c.2 1.76 4.9 43.42-7.22 75.38a4.4 4.4 0 0 1-3.14 2.73c-17.3 3.93-38.73 4.6-51.26 4.6" style="fill:#511239"/><path d="M873.61 2275.96c-26.87 0-50.38-9.86-51.38-10.3a4.4 4.4 0 1 1 3.46-8.1c.24.08 21.87 9.15 46.25 9.56 2.23-23.91-2.23-55.22-2.26-55.54a4.4 4.4 0 0 1 8.72-1.27c.2 1.47 5.16 36.3 1.88 61.77a4.4 4.4 0 0 1-4.29 3.84c-.85.03-1.61.03-2.38.03m125.92 89.68a4.39 4.39 0 0 1-2.06-8.28c1.26-.67 127.06-68.07 174.27-115.29a4.4 4.4 0 0 1 6.22 0 4.4 4.4 0 0 1 0 6.22c-48.15 48.16-171.16 114.06-176.35 116.85q-1.02.49-2.09.5" style="fill:#511239"/><path d="M1120.74 2289.36a4.4 4.4 0 0 1-4.37-3.99c-1.94-20.18 8.83-47.39 9.3-48.53a4.43 4.43 0 0 1 5.72-2.46 4.43 4.43 0 0 1 2.47 5.72c-.12.26-10.42 26.38-8.72 44.42a4.4 4.4 0 0 1-3.96 4.82q-.22.03-.44.02m-40.4 27.35a4.4 4.4 0 0 1-4.35-3.67c-4.8-28.4 13.12-61.35 13.88-62.73a4.4 4.4 0 0 1 5.99-1.73 4.4 4.4 0 0 1 1.73 5.98c-.18.33-17.2 31.66-12.91 57.02a4.4 4.4 0 0 1-3.61 5.07q-.39.05-.73.06m-39.12 22.83a4.4 4.4 0 0 1-4.31-3.6c-4.6-25 4.66-46.43 5.05-47.34a4.41 4.41 0 0 1 8.06 3.55c-.11.27-8.53 19.99-4.46 42.2a4.4 4.4 0 0 1-3.52 5.13q-.42.05-.82.06" style="fill:#511239"/><path d="M1105.16 2357.62c-37.38 0-62.24-17.26-63.32-18.02a4.39 4.39 0 1 1 5.08-7.19c.23.18 25.47 17.55 62.11 16.35a4.36 4.36 0 0 1 4.55 4.25 4.4 4.4 0 0 1-4.25 4.55q-2.12.05-4.17.06m59.27-34.83c-37.59 0-73.77-9.07-75.35-9.48a4.37 4.37 0 0 1-3.17-5.34c.59-2.35 3-3.79 5.34-3.17.38.09 39 9.74 76.64 9.18a4.4 4.4 0 1 1 .12 8.8q-1.8-.02-3.58 0m-19.86-35.58c-9.54 0-14.94-1.6-15.4-1.74a4.4 4.4 0 0 1 2.55-8.42c.32.09 20.5 5.72 53.02-7.13a4.4 4.4 0 1 1 3.26 8.19c-18.43 7.3-33.28 9.1-43.43 9.1" style="fill:#511239"/></svg>