<svg xmlns="http://www.w3.org/2000/svg" xml:space="preserve" viewBox="1463.1 385.8 1069.5 1270.7"><circle cx="1983.22" cy="1018.57" r="278.96" style="fill-rule:evenodd;clip-rule:evenodd;fill:#6d586c" transform="rotate(-45 1983.22 1018.57)"/><circle cx="1983.22" cy="1018.57" r="240.93" style="fill-rule:evenodd;clip-rule:evenodd;fill:#473732" transform="rotate(-45 1983.22 1018.57)"/><path d="M1777.98 872.4c10.85 1.6 18.07 15.13 46.34 12.8 14.42-1.18 12.3 28.67 1.1 44.37-28.78 40.42-21.53-9.5-47.89-26.05-23.04-14.48 2.78-30.77.44-31.11m199.5-103.72c-11.07 25.4-20.64 34.98 1.98 48.47 4.8 2.87 20.62 34.88 31.43 12.36 7.01-14.6-16.38-18.81-13.55-54.65.7-8.87-15.86-16.63-18-6.99-.19-.15-1.44-.16-1.86.8m-60.91-2.65c-9.15 19.69-25.25 16.92-10.38 52.97.08.18 3.41 37.18 29.36 16.85.17-.14 16.72-25.89 15.66-28.33-1.91-4.42-23.14-66.23-34.64-41.49m-53.85 26.04c.1-.69.39-1.96 1.02-2.5 21.09-18.32 26.01 14.02 26.2 14.27 24.9 31.04 2.56 39.47-2.14 33.7-13.47-16.56-33.42 16.24-25.08-45.47m40.6 57.38c-.38.68.55.62 1.56-.14 26.19-19.7 39.39 27.64 19.42 27.07-36.04-1.04-13.53 10.8-26.71 12.43-19.71 2.43 3.3-35.16 5.74-39.36m-31.77 41.93c-.35.31-41.7 76.13 26.12 56.28 13.83-4.06-13.47-67.4-26.12-56.28m16.77 69.3c2.12-.8 13.58-8.08 19.64 11.04 7.41 23.43 15.51 10.97 18.84 27.29 4.33 21.24-23.55 9.95-26.56 9.7-45.58-3.66-12.12-47.95-11.92-48.03m56.06-62.67c-26.16-11.81-22.23 15.23-27.14 31.1-2.13 6.88 5.96 30.18 26.91 3.76 3.96-4.99 48.53 13.22 39.8-28.98-19-3.93-22.84 15.45-36.34-4.26-.9-1.3-.98-.6-3.23-1.62m21.18-62.24c14.2-2.32 13.2 23.7 29.14 22.95 51.31-2.4 34.89 50.38 11.4 31.55-13.31-10.66-32.71 7.6-34.28-10.36-2.74-31.43 3.97-3.12-16.85-28.25.94-4.58 6.06-15.15 10.6-15.9m45.9 64.44c2.3-.93 1.31.74 2.58.96 45.06 7.63 18.6 119.9.96 40.76-.47-2.11-38.13-27.57-3.53-41.72m41.05 20.75c-9.03 11.58-5.38 61.83 13.03 35.97 3.92-5.5-6.92-7.12 4.5-28.47 1.9-3.58-8.74-18.77-17.53-7.5m3.54-142.57c-4.44-6.3 21.27 2.89 25.89 17.43 19.35 60.96-34.97 21.91-36.93 21.41-54.23-13.96 8.57-42.33 11.04-38.84m5.74 58.7c-22.66-1.02-15.44 37.15-23.61 56.94-6.52 15.8 27.8 6.24 34.43 16.78 6.95 11.07 45.82 4.09 4.54-36.12-10.08-9.82 6.46-36.6-15.36-37.6m69.74-28.25c-59.52 37.18 27.42 39.5 28.47 37.75 11.34-18.83-15.92-45.59-28.47-37.75m-7.51 94.46c29.29-27.61-25.27-69.16-23.47-35.52.8 14.91 12.57.03 7.06 27.06-5.02 24.65 20.61 4.5 16.41 8.46m26.49-7.5c4.18-4.75 6.08.66 9.26 1.76 0 21.9 16.18 25.49 15.09 34.2-4.23 33.64-60.16 4.68-24.36-35.96m-26.05 57.38c-2.03 6.52-2.45 38.2-23.02 31.78-27.9-8.72-34.04-59.7-4.12-35.61 11.54 9.28 26.44-28.8 28.9 1.18.2 2.24-1.9 3.08-1.76 2.65m99.76 9.7c-12.72.58-68.44-8.39-65.4 26.5.88 10.2 10.51-4.3 15.89 27.43 4.29 25.35 19.85-12.39 32.89-11.62 13.11.77 25.72 6.5 28.17-24.72 1.23-15.7-9.46-17.68-11.55-17.58m-184.94 21.64c-20.5 30.82 25 32.58 29.27 38.63 11.63 16.5 33.54 11.22 12.88-19.65-4.78-7.15-17.87-42.2-40.25-19.73-.93.94-1.06-.52-1.9.75m154.04 50.76 2.5-.23c10.3-6.39 19.93 16 21.26 24.14 11.37 69.5-63.77 45.91-49.59 23.53 13.43-21.18 10.26-42.2 25.83-47.44m-80.78-23.4c1.94-2.86 20.93-19.3 36.42-7.27 44.81 34.78-19.2 79.53-19.2 36.85 0-17.48-33.89-4.85-17.22-29.58m-68.41 44.58c2.05-1.76 3.67-2.95 3.53-6.18-1-23.6 23.78-13.24 27.14-8.75 26.6 35.58-11.87 38.5-12.13 38.77-25.3 25.3-30.4-13.64-18.54-23.84m-82.54 14.57c-34.1 12.36 10.34 70.26 27.58 39.94 6.28-11.04-12.67-32.51 18.11-10.6 15.23 10.85 27.1-57.4-19.57-26.83-5.35 3.5-23.13-3.6-26.12-2.51m87.84 44.58c-.65.15-54.52-5.43-20.6 30.32 10.76 11.34 35.8 19.85 38.33-9.13.07-.8 18.45-35.67-5.37-32.74-3.5.43-7.3 10.34-12.36 11.55m48.1 2.2c-44.31 24.56 7.11 77.3 11.85 42.82 1.88-13.64 55.93-33.27 24.95-74.3-15.67-20.76-20.96 25.45-34.58 30.16-1.39.48-.97.64-2.21 1.33m-14.56 125.36c-9.91-9.27-5.7-43.06 23.03-48.92 2.66-.54 29.68-35.43 25.6 11.4-1.09 12.54-45.61 40.34-48.63 37.52m-52.08-63.12c.35-.24 27.38-15.3 31.78 0 5.05 17.57 25.93 36.81-16.12 40.53-34.48 3.06-30.08-30.6-15.66-40.53m-65.77-51.64c.15-.03 3-1.27 2.13-1.86 19.84-4.4 32.27 43.59 30.9 63.67-5.31 78.03-82.62 19.38-42.52-13.2 10.13-8.23-20.99-43 9.5-48.6m-57.38-16.33c12.22-6.43 26.85 20.3 27.89 26.4 12.35 73.02-64.75 36.42-38.92 1.85 15.64-20.94-4.92-19.87 11.03-28.25m-1.82 134.75c1.15 1.7 13.77-2.27 17.85-7.05 23.08-27.06 15.72-25.86-.58-40.23-21.75-19.18-18.04 3.5-26.26-4.72-15.5-15.5-18.52 5.7-16.11 13.4 6.8 21.78 15.3 24.12 25.1 38.6m-82.92-29.7c.4.34 16.61 22.42 36.05 12.13 38.1-20.17-11.92-44.87-12.43-45.9-18.5-37.28-37.2 22.35-23.62 33.77m21.62-103.29c-19.85 15.13 14.63 14.25-2.42 38.19-16.02 22.49 54.73 45.16 43.91 13.9-2.32-6.71-9.47-7.07-.22-24.95 7.92-15.32-22.7-41.28-41.27-27.14m42.38-74.59c19.43 39.57-8.46 48.46 14.78 54.95 19.49 5.44 1.45-7.19 25.17 9.7 10.71 7.64 13.08-17.8 4.41-34.42-3.55-6.82 25.12-46.84-30.24-49.21-11.5-.5-17 13.13-14.12 18.98m-148.31 36.2c26.49 8.88 34.24 21.2 75.92 30.45 22.88 5.08-2.88 26.36 12.66 44.8 13.86 16.43-56.31 28.65-54.15-21.85.87-20.25-28.9-51.55-34.43-53.4m47.67-59.6c-5.19 6.5-8.57 59.5-4.41 61.8 17.09 9.48 25.63-7.86 60.25 20 21.48 17.29 47.93-40.64 3.08-39.42-31.12.85-42.05-63.52-58.92-42.37m46.79-67.97c-52.91 23.94.73 77.23 13.54 60.1 5.17-6.9 28.3-41.15 12.94-45.1-17.44-4.48-2.4-25.9-26.48-15m-81.22-39.28c-13.02 18.12-31.3 46-20.96 71.06 23.2 56.24 37.59 10.11 50.32 1.19 28.8-20.18 9.2-42.17-.23-41.8-34.44 1.36-8.5-17.99-29.13-30.45" style="fill-rule:evenodd;clip-rule:evenodd;fill:#28130e"/><path d="M1983.22 749.39c148.66 0 269.18 120.51 269.18 269.18 0 148.66-120.52 269.18-269.18 269.18s-269.18-120.52-269.18-269.18 120.51-269.18 269.18-269.18m0 40.44c-126.33 0-228.74 102.41-228.74 228.74s102.41 228.73 228.74 228.73 228.73-102.4 228.73-228.73-102.4-228.74-228.73-228.74" style="fill-rule:evenodd;clip-rule:evenodd;fill:#927c9c"/><linearGradient id="a" x1="1766.69" x2="1896.64" y1="1608.3" y2="1223" gradientUnits="userSpaceOnUse"><stop offset="0" style="stop-color:#a9cf38"/><stop offset="1" style="stop-color:#8aac31"/></linearGradient><path d="M1796.52 1620.56c-19.84-143.22 3.05-280.21 96.22-406.96-33.84 305.15-64.15 271.3-96.22 406.96" style="fill-rule:evenodd;clip-rule:evenodd;fill:url(#a)"/><linearGradient id="b" x1="1958.78" x2="1973.03" y1="1492.68" y2="1189.03" gradientUnits="userSpaceOnUse"><stop offset="0" style="stop-color:#a9cf38"/><stop offset="1" style="stop-color:#8aac31"/></linearGradient><path d="M1976.6 1495.2c16.38-102.01 27.93-205.15-5.3-318.67-50.17 102.01-31.74 209.59 5.3 318.68" style="fill-rule:evenodd;clip-rule:evenodd;fill:url(#b)"/><linearGradient id="c" x1="2051.94" x2="1979.31" y1="1331.93" y2="1076.84" gradientUnits="userSpaceOnUse"><stop offset="0" style="stop-color:#cdde68"/><stop offset="1" style="stop-color:#a4cb38"/></linearGradient><path d="M2055.17 1331.01c1.14-90.69-25.38-175.55-68.97-256.83-8.76 90.73 4.73 177.87 68.97 256.83" style="fill-rule:evenodd;clip-rule:evenodd;fill:url(#c)"/><linearGradient id="d" x1="2284.91" x2="2118.91" y1="1492.46" y2="1169.02" gradientUnits="userSpaceOnUse"><stop offset="0" style="stop-color:#a9cf38"/><stop offset="1" style="stop-color:#8aac31"/></linearGradient><path d="M2092.24 1182.7c100.91 73.45 170.7 176.37 226.88 292.2-103.49-68.5-186.97-157.75-226.88-292.2" style="fill-rule:evenodd;clip-rule:evenodd;fill:url(#d)"/><linearGradient id="e" x1="2290.27" x2="2094.82" y1="1293.24" y2="1074.35" gradientUnits="userSpaceOnUse"><stop offset="0" style="stop-color:#cdde68"/><stop offset="1" style="stop-color:#a4cb38"/></linearGradient><path d="M2302.34 1282.46c-70.89-121.74-143.9-165.29-217.16-199.5 50.57 89.27 112.38 166.8 217.16 199.5" style="fill-rule:evenodd;clip-rule:evenodd;fill:url(#e)"/><linearGradient id="f" x1="2402.1" x2="2167.05" y1="1306.3" y2="1051.8" gradientUnits="userSpaceOnUse"><stop offset="0" style="stop-color:#a9cf38"/><stop offset="1" style="stop-color:#8aac31"/></linearGradient><path d="M2425.05 1285.1c-71-106.07-164.35-185.46-291.85-215.04 76.88 93.46 160.3 171.52 291.85 215.05" style="fill-rule:evenodd;clip-rule:evenodd;fill:url(#f)"/><linearGradient id="g" x1="2496.51" x2="2159.47" y1="966.52" y2="966.05" gradientUnits="userSpaceOnUse"><stop offset="0" style="stop-color:#a9cf38"/><stop offset="1" style="stop-color:#8aac31"/></linearGradient><path d="M2496.55 961.13c-84.74 25.01-225.99 45.61-346.92 27.37 263.94-80.63 189.8-47.38 346.92-27.37" style="fill-rule:evenodd;clip-rule:evenodd;fill:url(#g)"/><linearGradient id="h" x1="2343.11" x2="2099.28" y1="876.73" y2="973.36" gradientUnits="userSpaceOnUse"><stop offset="0" style="stop-color:#cdde68"/><stop offset="1" style="stop-color:#a4cb38"/></linearGradient><path d="M2344.72 880.8c-133.82 3.78-190.42 46.5-247.18 89.16 75.89 7.08 158.4-23.35 247.18-89.16" style="fill-rule:evenodd;clip-rule:evenodd;fill:url(#h)"/><linearGradient id="i" x1="2314.15" x2="2111.41" y1="767.73" y2="912.34" gradientUnits="userSpaceOnUse"><stop offset="0" style="stop-color:#a9cf38"/><stop offset="1" style="stop-color:#8aac31"/></linearGradient><path d="M2317.35 772.22c-123.15 27.16-184.73 88.73-227.75 160.66 82.95-28.4 161.28-73.38 227.75-160.66" style="fill-rule:evenodd;clip-rule:evenodd;fill:url(#i)"/><linearGradient id="j" x1="2293.36" x2="2098.03" y1="517.31" y2="820.43" gradientUnits="userSpaceOnUse"><stop offset="0" style="stop-color:#a9cf38"/><stop offset="1" style="stop-color:#8aac31"/></linearGradient><path d="M2110.83 814.17c73.49-77.9 140.72-166.42 183.57-296.2-70.42 84.99-125.91 95.95-183.57 296.2" style="fill-rule:evenodd;clip-rule:evenodd;fill:url(#j)"/><linearGradient id="k" x1="2038.71" x2="1986.97" y1="446.26" y2="825.9" gradientUnits="userSpaceOnUse"><stop offset="0" style="stop-color:#91b534"/><stop offset="1" style="stop-color:#7c9a2d"/></linearGradient><path d="M2000.44 826.07c-55.32-224.52 14.71-256.6 22.07-384.9 38 139.97 22.32 266.12-22.07 384.9" style="fill-rule:evenodd;clip-rule:evenodd;fill:url(#k)"/><linearGradient id="l" x1="1918.27" x2="2096.72" y1="719.33" y2="817.65" gradientUnits="userSpaceOnUse"><stop offset="0" style="stop-color:#718a26"/><stop offset="1" style="stop-color:#4a5b11"/></linearGradient><path d="M1986.3 1004.06c11.5-154.88 23.53-311.97 37.08-475.48.36 159.85-13.07 319.75-32.03 479.68z" style="fill-rule:evenodd;clip-rule:evenodd;fill:url(#l)"/><linearGradient id="m" x1="2088.64" x2="1996.35" y1="614.45" y2="864.87" gradientUnits="userSpaceOnUse"><stop offset="0" style="stop-color:#cdde68"/><stop offset="1" style="stop-color:#a4cb38"/></linearGradient><path d="M2080.77 611.55c-58.67 71.13-82.41 147.78-70.62 261.3 51.57-82.78 80.26-169.1 70.62-261.3" style="fill-rule:evenodd;clip-rule:evenodd;fill:url(#m)"/><linearGradient id="n" x1="1707.25" x2="1969.69" y1="504.76" y2="692.1" gradientUnits="userSpaceOnUse"><stop offset="0" style="stop-color:#a9cf38"/><stop offset="1" style="stop-color:#8aac31"/></linearGradient><path d="M1766.5 421.76c2.71 143.46 79.48 226.02 144.27 353.6-1.47-154.9-62.7-262.32-144.27-353.6" style="fill-rule:evenodd;clip-rule:evenodd;fill:url(#n)"/><linearGradient id="o" x1="1660.05" x2="1875.39" y1="549.65" y2="834.25" gradientUnits="userSpaceOnUse"><stop offset="0" style="stop-color:#a9cf38"/><stop offset="1" style="stop-color:#8aac31"/></linearGradient><path d="M1651.74 555.94C1703.4 662.5 1766 762.8 1867.14 841.07c-15.25-129.53-103.55-214.5-215.4-285.13" style="fill-rule:evenodd;clip-rule:evenodd;fill:url(#o)"/><linearGradient id="p" x1="1726.55" x2="1917.01" y1="730.94" y2="929.33" gradientUnits="userSpaceOnUse"><stop offset="0" style="stop-color:#cdde68"/><stop offset="1" style="stop-color:#a4cb38"/></linearGradient><path d="M1726.78 730.73c47.33 96.9 109.74 151.93 173.95 201.94-27.41-91.1-82.98-160.28-173.95-201.94" style="fill-rule:evenodd;clip-rule:evenodd;fill:url(#p)"/><linearGradient id="q" x1="1498.88" x2="1818.8" y1="782.29" y2="911.16" gradientUnits="userSpaceOnUse"><stop offset="0" style="stop-color:#a9cf38"/><stop offset="1" style="stop-color:#8aac31"/></linearGradient><path d="M1499.02 781.93c74.19 55.58 143.87 112.77 318.68 132.41-80.47-87.06-195.75-116.11-318.68-132.41" style="fill-rule:evenodd;clip-rule:evenodd;fill:url(#q)"/><linearGradient id="r" x1="1506.67" x2="1835.46" y1="1124.59" y2="1012.4" gradientUnits="userSpaceOnUse"><stop offset="0" style="stop-color:#a9cf38"/><stop offset="1" style="stop-color:#8aac31"/></linearGradient><path d="M1508.73 1130.62c83.64-77.78 191.8-116.73 331.92-105.05-128.3 64.84-241.27 103.77-331.92 105.05" style="fill-rule:evenodd;clip-rule:evenodd;fill:url(#r)"/><linearGradient id="s" x1="1639.7" x2="1897.83" y1="992.09" y2="1015.56" gradientUnits="userSpaceOnUse"><stop offset="0" style="stop-color:#cdde68"/><stop offset="1" style="stop-color:#a4cb38"/></linearGradient><path d="M1639.38 995.56c90.2-32.32 179.04-23.57 266.9 14.73-99 29.76-189.56 30.34-266.9-14.73" style="fill-rule:evenodd;clip-rule:evenodd;fill:url(#s)"/><linearGradient id="t" x1="1668.77" x2="1915.2" y1="1127.84" y2="1053.19" gradientUnits="userSpaceOnUse"><stop offset="0" style="stop-color:#a9cf38"/><stop offset="1" style="stop-color:#8aac31"/></linearGradient><path d="M1674.7 1147.4c67.78-61.8 143.49-105.36 234.81-113-96.27 73.47-174.87 111.8-234.82 113" style="fill-rule:evenodd;clip-rule:evenodd;fill:url(#t)"/><linearGradient id="u" x1="1583.55" x2="1863.15" y1="1339.67" y2="1114.18" gradientUnits="userSpaceOnUse"><stop offset="0" style="stop-color:#a9cf38"/><stop offset="1" style="stop-color:#8aac31"/></linearGradient><path d="M1594.36 1353.08c69.22-127.93 158.47-207.03 265.35-243.15-89.53 117.73-178.17 205.46-265.35 243.15" style="fill-rule:evenodd;clip-rule:evenodd;fill:url(#u)"/><linearGradient id="v" x1="1675.11" x2="1962.64" y1="1309.54" y2="1004.04" gradientUnits="userSpaceOnUse"><stop offset="0" style="stop-color:#718a26"/><stop offset="1" style="stop-color:#4a5b11"/></linearGradient><path d="M1983.22 1018.57c-113.85 82.14-225.55 173.35-333.26 281.55 106.1-115.66 217.6-211.33 331.94-296.4z" style="fill-rule:evenodd;clip-rule:evenodd;fill:url(#v)"/><linearGradient id="w" x1="1727.61" x2="1986.84" y1="1094.12" y2="1031.53" gradientUnits="userSpaceOnUse"><stop offset="0" style="stop-color:#718a26"/><stop offset="1" style="stop-color:#4a5b11"/></linearGradient><path d="M1982.56 1011.15c-82.35 30.57-166.09 65.66-253.15 111.54 77.3-48.6 163.42-85.7 252.49-118.97z" style="fill-rule:evenodd;clip-rule:evenodd;fill:url(#w)"/><linearGradient id="x" x1="1828" x2="1969.79" y1="1486.96" y2="1001.61" gradientUnits="userSpaceOnUse"><stop offset="0" style="stop-color:#718a26"/><stop offset="1" style="stop-color:#4a5b11"/></linearGradient><path d="M1981.9 1003.72c-75.75 157.94-142.44 319.1-165.1 495.91 28.3-182.24 95.1-344.3 173.91-495.24z" style="fill-rule:evenodd;clip-rule:evenodd;fill:url(#x)"/><linearGradient id="y" x1="1970.82" x2="1981.08" y1="1360.3" y2="1026.63" gradientUnits="userSpaceOnUse"><stop offset="0" style="stop-color:#718a26"/><stop offset="1" style="stop-color:#4a5b11"/></linearGradient><path d="M1981.9 1003.72c-20.11 120.36-15.1 244-7.96 367.9-1.9-115.33-2.68-231.72 16.77-367.23z" style="fill-rule:evenodd;clip-rule:evenodd;fill:url(#y)"/><linearGradient id="z" x1="2037.41" x2="1974.87" y1="1253.16" y2="1010.31" gradientUnits="userSpaceOnUse"><stop offset="0" style="stop-color:#9bc336"/><stop offset="1" style="stop-color:#82a02e"/></linearGradient><path d="M1981.9 1003.72c-3.41 103.1 14.6 185.42 50.04 250.85-31.69-77.4-44.85-161-41.23-250.18z" style="fill-rule:evenodd;clip-rule:evenodd;fill:url(#z)"/><linearGradient id="A" x1="1602.76" x2="1979.82" y1="1082.68" y2="1001.03" gradientUnits="userSpaceOnUse"><stop offset="0" style="stop-color:#718a26"/><stop offset="1" style="stop-color:#4a5b11"/></linearGradient><path d="M1981.9 1003.72c-141.43 12.86-271.73 38.71-384.9 84.54 128.8-40.25 257.59-63.91 386.38-77.08z" style="fill-rule:evenodd;clip-rule:evenodd;fill:url(#A)"/><linearGradient id="B" x1="1692.15" x2="1982.9" y1="984.74" y2="1014.95" gradientUnits="userSpaceOnUse"><stop offset="0" style="stop-color:#9bc336"/><stop offset="1" style="stop-color:#82a02e"/></linearGradient><path d="M1981.9 1003.72c-84.76 2.71-178.22 1.36-296.63-11.69 99.38 18.49 198.75 19.61 298.11 19.15z" style="fill-rule:evenodd;clip-rule:evenodd;fill:url(#B)"/><linearGradient id="C" x1="1590.64" x2="1982.13" y1="802.37" y2="1006.43" gradientUnits="userSpaceOnUse"><stop offset="0" style="stop-color:#718a26"/><stop offset="1" style="stop-color:#4a5b11"/></linearGradient><path d="M1974.28 1004.43c-124.23-74.15-252.13-133.66-394.06-196.01 141.87 53.7 279.53 114.85 406.09 195.64-.98 2.37-11.06-2-12.03.37" style="fill-rule:evenodd;clip-rule:evenodd;fill:url(#C)"/><linearGradient id="D" x1="1723.23" x2="1990.71" y1="824.59" y2="824.59" gradientUnits="userSpaceOnUse"><stop offset="0" style="stop-color:#718a26"/><stop offset="1" style="stop-color:#4a5b11"/></linearGradient><path d="M1982.56 1011.15c-85.6-128.28-170.16-251.92-259.33-373.1 92.4 114.34 180.97 240.24 267.48 366.34z" style="fill-rule:evenodd;clip-rule:evenodd;fill:url(#D)"/><linearGradient id="E" x1="1750.4" x2="2001.31" y1="793.25" y2="990.38" gradientUnits="userSpaceOnUse"><stop offset="0" style="stop-color:#9bc336"/><stop offset="1" style="stop-color:#82a02e"/></linearGradient><path d="M1982.56 1011.15c-68.49-60.25-141.4-135.64-220.48-244.22 78.64 95.85 154.7 173.4 228.63 237.46z" style="fill-rule:evenodd;clip-rule:evenodd;fill:url(#E)"/><linearGradient id="F" x1="1801.47" x2="1992.98" y1="489.98" y2="1004.44" gradientUnits="userSpaceOnUse"><stop offset="0" style="stop-color:#718a26"/><stop offset="1" style="stop-color:#4a5b11"/></linearGradient><path d="M1981.38 996.25c-50.8-167.62-109.77-328.27-184-504.75 81.94 173.98 145.53 344.8 193.33 512.9-1.95 1.07-7.37-9.23-9.33-8.15" style="fill-rule:evenodd;clip-rule:evenodd;fill:url(#F)"/><linearGradient id="G" x1="2064.16" x2="1983.01" y1="677.14" y2="1004.93" gradientUnits="userSpaceOnUse"><stop offset="0" style="stop-color:#9bc336"/><stop offset="1" style="stop-color:#82a02e"/></linearGradient><path d="M2063.1 676.88c-40.78 106.61-60.28 216.78-79.63 326.96l7.88 4.42c16.76-107.93 34.85-216.33 71.75-331.38" style="fill-rule:evenodd;clip-rule:evenodd;fill:url(#G)"/><linearGradient id="H" x1="2253.97" x2="1991.69" y1="584.87" y2="998.33" gradientUnits="userSpaceOnUse"><stop offset="0" style="stop-color:#718a26"/><stop offset="1" style="stop-color:#4a5b11"/></linearGradient><path d="M1985.98 1003.7c89.33-147.46 178.76-290.9 266.92-419.5l-261.55 424.06c-1.68-1.4-3.69-3.15-5.37-4.55" style="fill-rule:evenodd;clip-rule:evenodd;fill:url(#H)"/><linearGradient id="I" x1="2238.76" x2="1993.14" y1="816.43" y2="1005.41" gradientUnits="userSpaceOnUse"><stop offset="0" style="stop-color:#718a26"/><stop offset="1" style="stop-color:#4a5b11"/></linearGradient><path d="m1987.93 1001.5 253.5-181.6-249.14 194.09z" style="fill-rule:evenodd;clip-rule:evenodd;fill:url(#I)"/><linearGradient id="J" x1="2285.63" x2="1983.23" y1="915.14" y2="1010.71" gradientUnits="userSpaceOnUse"><stop offset="0" style="stop-color:#9bc336"/><stop offset="1" style="stop-color:#82a02e"/></linearGradient><path d="M1990.48 1011.04c86.12-36.68 177.16-77.37 291.55-107.28-94.98 32.38-192.7 72.63-292.16 119.1.8-2.96-.2-8.86.6-11.82" style="fill-rule:evenodd;clip-rule:evenodd;fill:url(#J)"/><linearGradient id="K" x1="2376.66" x2="1992.56" y1="975.73" y2="1007.33" gradientUnits="userSpaceOnUse"><stop offset="0" style="stop-color:#718a26"/><stop offset="1" style="stop-color:#4a5b11"/></linearGradient><path d="M1992.3 1013.99c132.65-26.8 261.24-45.48 383.3-51.09a4493 4493 0 0 0-382.09 58.47z" style="fill-rule:evenodd;clip-rule:evenodd;fill:url(#K)"/><linearGradient id="L" x1="2340.93" x2="1995.48" y1="1223.69" y2="998.75" gradientUnits="userSpaceOnUse"><stop offset="0" style="stop-color:#718a26"/><stop offset="1" style="stop-color:#4a5b11"/></linearGradient><path d="M1992.3 1013.99c158.41 44.41 267.05 118.8 348.87 209.33-95.8-88.58-213.05-158.63-357.95-204.75z" style="fill-rule:evenodd;clip-rule:evenodd;fill:url(#L)"/><linearGradient id="M" x1="2228.77" x2="1996.39" y1="1243.36" y2="1000.15" gradientUnits="userSpaceOnUse"><stop offset="0" style="stop-color:#9bc336"/><stop offset="1" style="stop-color:#82a02e"/></linearGradient><path d="M1990.23 1015.03c88.38 53.47 174.6 115.6 251.2 216.24-83.25-92.08-170.25-155.98-258.21-212.7z" style="fill-rule:evenodd;clip-rule:evenodd;fill:url(#M)"/><linearGradient id="N" x1="2255.25" x2="1978.44" y1="1395.04" y2="1009.74" gradientUnits="userSpaceOnUse"><stop offset="0" style="stop-color:#718a26"/><stop offset="1" style="stop-color:#4a5b11"/></linearGradient><path d="M1989.84 1007a3220 3220 0 0 0 264.82 388.46c-100.69-118.23-196.6-248.53-274.09-383.58-5.66-7.51 3.78-13.03 9.27-4.89" style="fill-rule:evenodd;clip-rule:evenodd;fill:url(#N)"/></svg>