<svg xmlns="http://www.w3.org/2000/svg" xml:space="preserve" viewBox="91.7 278.9 147.1 142.6"><path d="M98.67 378.17c4.34 23.63 24.5 43.1 49.32 35.68 1.72-.51 6.96-3.63 13.68-7.82 1.12 5.65 11.19 9.04 15.84 8.05 3.16-.67 5.83-2.7 8.38-4.67l7.7-5.95c1.28-1 2.65-2.11 3.02-3.7.56-2.41-1.41-4.61-3.22-6.31a40 40 0 0 0-4.93-4.16c10.56-6.44 19.3-11.31 20.35-10.14-20.88-23.61-46.53-43.08-72.52-62-3.96-2.87-28.93 21.57-31.96 26.42-6.36 10.2-7.8 22.93-5.66 34.6m67.8 24.87c4.94-3.11 10.36-6.54 15.62-9.82 1.61 1.07 3.27 2.23 3.72 4.07.72 3.01-2.23 5.53-4.83 7.22-2.14 1.4-4.47 2.84-7.02 2.75-1.96-.06-4.94-2.64-7.5-4.22" style="opacity:.26;fill:#00609b"/><circle cx="173.51" cy="341.84" r="48.91" style="fill:#f3f3e9"/><circle cx="173.51" cy="341.84" r="41.38" style="fill:#6b320b"/><circle cx="175.32" cy="341.59" r="40.09" style="fill:#451c00" transform="rotate(-45 175.32 341.59)"/><path d="M140.38 322.02a40 40 0 0 1 2.96-4.6 40.09 40.09 0 0 1 69.75 37.62c-20.66-16.95-46.23-28.27-72.7-33.03" style="fill:#5e2a06"/><circle cx="171.31" cy="313.95" r="1.8" style="fill:#6b320b"/><circle cx="165.34" cy="320.15" r="2.35" style="fill:#6b320b"/><circle cx="172.22" cy="322.1" r="1.02" style="fill:#6b320b"/><circle cx="184.26" cy="320.99" r="5.72" style="fill:#6b320b"/><circle cx="185.08" cy="336.54" r="1.33" style="fill:#6b320b"/><circle cx="174.13" cy="334.26" r="2.51" style="fill:#6b320b"/><circle cx="197.77" cy="331.2" r="4.31" style="fill:#6b320b"/><circle cx="194.07" cy="341.67" r="1.1" style="fill:#6b320b"/><circle cx="194.52" cy="319.11" r="2.12" style="fill:#6b320b"/><circle cx="178.52" cy="308.69" r="2.82" style="fill:#6b320b"/><circle cx="160.56" cy="311.52" r="1.49" style="fill:#6b320b"/><circle cx="206.11" cy="341.34" r="1.72" style="fill:#6b320b"/><circle cx="204.3" cy="356.47" r="3.29" style="fill:#6b320b"/><circle cx="200.71" cy="368.5" r="1.41" style="fill:#6b320b"/><circle cx="192.7" cy="372.86" r=".78" style="fill:#6b320b"/><circle cx="187.99" cy="375.97" r="1.57" style="fill:#6b320b"/><circle cx="189.03" cy="371.35" r="1.18" style="fill:#6b320b"/><circle cx="179.94" cy="377.65" r="2.12" style="fill:#6b320b"/><circle cx="178.52" cy="373.04" r=".7" style="fill:#6b320b"/><circle cx="172.66" cy="378.44" r="1.18" style="fill:#6b320b"/><circle cx="166.33" cy="377.98" r="1.02" style="fill:#6b320b"/><circle cx="149.53" cy="315.86" r="1.72" style="fill:#6b320b"/><circle cx="145.75" cy="320.07" r=".94" style="fill:#6b320b"/><circle cx="142.43" cy="325.13" r="1.33" style="fill:#6b320b"/><circle cx="166.9" cy="307.18" r="1.88" style="fill:#6b320b"/><circle cx="172.28" cy="304.86" r="1.02" style="fill:#6b320b"/><circle cx="185.97" cy="307.55" r="1.49" style="fill:#6b320b"/><circle cx="191.56" cy="310.69" r="2.35" style="fill:#6b320b"/><circle cx="198.92" cy="316.15" r="1.18" style="fill:#6b320b"/><circle cx="205.61" cy="321.6" r="2.43" style="fill:#6b320b"/><circle cx="209.99" cy="327.37" r=".94" style="fill:#6b320b"/><circle cx="210.95" cy="335.85" r="1.96" style="fill:#6b320b"/><circle cx="210.81" cy="346.17" r="1.49" style="fill:#6b320b"/><circle cx="210.45" cy="354.83" r="1.57" style="fill:#6b320b"/><circle cx="205.87" cy="348.42" r=".78" style="fill:#6b320b"/><circle cx="206.07" cy="364.39" r="1.33" style="fill:#6b320b"/><path d="m228 387.26 4.06-5.39a3.83 3.83 0 0 0-.74-5.37l-19.95-15.08-8.7 11.5 19.95 15.09a3.83 3.83 0 0 0 5.37-.75" style="fill:#f3f3e9"/></svg>