<svg xmlns="http://www.w3.org/2000/svg" xml:space="preserve" viewBox="25.2 78.1 115.8 162.6"><path d="m35.39 101.1 58.7-14.77a5.5 5.5 0 0 1 6.68 4l6.99 27.74 1.87-.47 3.22 12.81-1.87.47 20.7 82.18a5.5 5.5 0 0 1-4 6.68l-58.7 14.78a5.5 5.5 0 0 1-6.68-4l-15.85-62.96-.8.2-3.7-14.68.8-.2-1.14-4.53-1.07.27-4.97-19.75 1.07-.27-5.24-20.81a5.5 5.5 0 0 1 3.99-6.68" style="opacity:.26;fill:#00609b"/><path d="M41.44 125.89h3.03v20.36h-3.03z" style="fill:#7f8493" transform="rotate(165.87 42.95 136.07)"/><path d="M47.2 150.32h1.93v15.13H47.2z" style="fill:#7f8493" transform="rotate(165.87 48.16 157.89)"/><path d="M111.69 115.47h3.03v13.21h-3.03z" style="fill:#7f8493" transform="rotate(165.87 113.2 122.07)"/><path d="m73.54 231.94 56.44-14.21a6.67 6.67 0 0 0 4.84-8.1L104.48 89.15a6.67 6.67 0 0 0-8.09-4.84L39.95 98.54a6.67 6.67 0 0 0-4.84 8.09L65.44 227.1a6.67 6.67 0 0 0 8.1 4.84" style="fill:#3b323f"/><path d="M55.97 97.78H111v108.96H55.97z" style="fill:#445e79" transform="rotate(-14.13 83.5 152.28)"/><path d="m116.5 170.69 6.97 27.68-53.37 13.44-13.79-54.79c19.74 7.01 39.97 13.31 60.19 13.66" style="fill:#364a62"/><path d="M59.2 94.59h20.09v2.2H59.2z" style="fill:#7f8493" transform="rotate(165.87 69.25 95.69)"/><path d="m95.6 216.73 7.74-1.94a3.44 3.44 0 0 0-1.68-6.67l-7.73 1.94a3.44 3.44 0 1 0 1.68 6.67" style="fill:#7f8493"/><path d="m44.5 106.74 51.77-13.03 26.2 104.06L70.7 210.8zm-1-.6L70.1 211.8l53.37-13.43L96.87 92.7z" style="fill:#445e79"/></svg>