<svg xmlns="http://www.w3.org/2000/svg" xml:space="preserve" viewBox="26.1 50.2 517.6 277.4"><path d="M49.57 203.65s312.13-62.52 332.72-62.28 98.13 14 111.19 17.2c13.05 3.22 36.38 19.3 35.54 26.08-.83 6.77-33.57 6.47-39.98 3.67-6.41-2.81-70.32-36.06-98.7-34.75-21.19.99-212.38 49.38-226.15 53.38S57.48 230.9 57.48 230.9z" style="fill:#231f20"/><path d="M470.74 76.67c-57.9 22.31-286.05 110.47-301.13 120.27-17.26 11.23-75.41 64.31-84.72 74.01S64.47 306.73 68.79 312c4.34 5.28 31.83-12.5 35.75-18.3s40.12-68.07 64.8-82.14c18.43-10.51 205.86-71.9 219.62-75.9 10.44-3.02 64.2-22.64 89.62-31.95z" style="fill:#231f20"/><path d="M138.06 148.71C101 159.46 46.2 184.21 42.4 190.44s-1.04 19.8 9.08 39.35c25.12 48.54 66.44 94.55 131.12 75.8 88.21-25.59 75.14-124.26 89.43-128.4l-7.99-27.54c-21.16 6.14-72.2-16.53-126-.94M180.59 297c-54.42 13.91-77.4-15.23-84.36-22.8-6.95-7.6-34.82-51.48-29.97-69.06 4.17-15.07 54.13-31.24 83.4-39.73 29.39-8.52 87.2-19.69 100.6 9.39 13.41 29.07-15.24 108.28-69.67 122.2" style="fill:#231f20"/><path d="M66.26 205.14c4.17-15.07 54.13-31.24 83.4-39.73 29.39-8.52 87.2-19.69 100.6 9.39 13.41 29.07-15.24 108.28-69.67 122.2-54.42 13.91-77.4-15.23-84.36-22.8-6.95-7.6-34.82-51.48-29.97-69.06" style="opacity:.5;fill:#d7f0f9"/><path d="M473.14 65.54C466.6 62.31 407.07 70.7 370 81.45c-53.78 15.6-84.78 62.06-105.95 68.2l7.99 27.54c14.28-4.15 56.03 86.21 144.24 60.63 64.69-18.75 74.99-79.73 70.25-134.18-1.93-21.94-6.86-34.86-13.39-38.1m-.67 99.55c-1.82 10.13-5.64 47.04-59.07 64.4s-120-34.24-124.24-65.97c-4.23-31.74 50.59-53.23 79.99-61.76 29.26-8.48 80.12-21.55 91.7-11.04 13.5 12.26 13.44 64.24 11.62 74.37" style="fill:#231f20"/><path d="M460.86 90.72c-11.6-10.5-62.46 2.56-91.71 11.04-29.4 8.53-84.22 30.02-80 61.76 4.24 31.73 70.81 83.33 124.24 65.97 53.44-17.36 57.26-54.27 59.08-64.4s1.88-62.11-11.62-74.37" style="opacity:.5;fill:#d7f0f9"/></svg>