<svg xmlns="http://www.w3.org/2000/svg" viewBox="1568.2 792.5 772.1 819.3"><path d="M2266.44 1369.75c25.56 32.42 17.93 82.22-7.78 114.53-25.7 32.33-65.14 50.44-104.25 63.64-119.9 40.4-251.77 44.49-373.95 11.65-32.04-8.63-64.88-20.66-86.89-45.48s-28.99-65.73-7.3-90.82c-13.8 1.06-30.6-3.31-43.78-12.35s-22.9-22.4-29.9-36.74c-16.29-33.48-18.1-73.71-4.87-108.51s41.31-63.68 75.73-77.85c-17.64-32.6-21.07-65.7-13.62-96.27a139.6 139.6 0 0 1 50.77-77.41c-9.07-44.3-2.3-87.47 15.02-125.97 8.72-19.37 21.3-38.67 40.97-46.66 21.39-8.68 46.6-1.55 65.08 12.24s31.66 33.42 54.05 48.42c14.61-1.38 29.22-2.8 51.58-.47 16.4-24.95 34.22-50.36 60.13-65.2s62.09-16.02 83.04 5.25c12.09 12.26 17.25 29.66 20.66 46.57 8 39.84 8.62 81.19 3.08 122.83l55.04 27.87c22.95-19.72 56.96-25.58 85.19-14.7 28.23 10.89 49.5 38.06 53.28 68.08s-10.09 61.62-32.68 72.62c27.64 66.26 22.91 145.1-8.6 204.73" style="fill:#f2e9e1"/><path d="M2061.65 1039.23c56.58 16.76 108.1 52.32 140.44 101.64 32.33 49.36 44.28 112.5 28.29 169.31-16 56.78-60.9 105.52-117.44 122.4-11.44 3.4-23.68 5.57-35.3 2.72-11.62-2.84-22.35-11.65-24.5-23.38-30.69 13.55-62.88 15-92.98 7.63-6.67 14.5-17.93 27-31.55 33.77-13.61 6.78-29.31 8.42-44.48 7.4-57.54-3.94-108.6-46.25-130.84-99.45-22.27-53.23-18.14-115.08 3.05-168.75-20.3-23.71-24.65-51.85-16.79-76.38l-14.2 12.12a50 50 0 0 1 9.57-35.89l-15.52 15.5c4.84-37.95 23.82-67.73 41.2-93.4-4.52-47.01 9.38-102 39.78-138.15 36.95 14.61 67.32 45.13 83.3 79.31a171 171 0 0 1 73.92-1.35 182 182 0 0 1 66.17-62.09c12.12-6.63 28.64-11.32 38.56-1.73 5.99 5.78 7.19 14.82 7.83 23.12 3.08 41.23.03 82.93-8.5 125.65" style="fill:#f8b060"/><path d="M2155.58 1408.04c.35-32.16-26.38-62.35-58.36-65.84 13.96-49.42-6.37-106.6-48.39-136.13-12.7 22.19-26.73 25.94-39.11 27.82-10.3 1.56-21.16 2.64-30.84-1.2-9.69-3.85-17.55-14.18-15.2-24.3-27.38 8.01-47.8 35.71-54.23 64.62s-1.47 59 4.25 88.05c-23.97-6.16-52.17 3.17-67.13 23.4-14.97 20.2-15.64 49.9-2.44 65.48 21.6 6.37 44.02 12.8 66.29 9.63s44.48-18.75 47.74-41.02c30.2-1.38 60.39-2.79 90.88-11.95.29 11.1 9.41 20.46 19.83 24.33s21.86 3.4 32.95 2.52c20.07-1.58 41.73-5.07 53.76-25.4" style="fill:#fff7ed"/><path d="M1889.23 1400c-4.87 2.17-8.95 6.55-9.83 11.83-.88 5.25 1.94 11.15 6.96 13.03 5.43 2.02 11.35-.85 16.14-4.11 2.7-1.82 5.34-3.87 7.18-6.55 1.85-2.7 2.8-6.16 1.82-9.27-1.17-3.75-4.96-6.28-8.86-6.84s-8.15-.4-13.4 1.91m215.16-17.98c-4.43-3.7-9.85-7.66-15.46-6.28-3.58.88-6.37 3.9-7.48 7.42-1.11 3.5-.65 7.37.73 10.77 1.97 4.81 5.96 8.92 10.95 10.36s10.89-.15 14.03-4.29c3.1-4.16 4.22-12.17-2.76-17.98M1916.7 1426c-2.52 1.03-4 4.08-3.26 6.7s3.61 4.42 6.28 3.98a5.8 5.8 0 0 0 4.67-5.78c-.12-2.7-2.88-6.84-7.7-4.9m11.16-15.87a5.8 5.8 0 0 0-3.26 6.69 5.8 5.8 0 0 0 6.28 3.99 5.8 5.8 0 0 0 4.67-5.78c-.12-2.73-2.88-6.87-7.7-4.9m-28.81 21.51a5.8 5.8 0 0 0-3.25 6.68 5.8 5.8 0 0 0 6.28 4 5.8 5.8 0 0 0 4.66-5.78c-.14-2.7-2.9-6.87-7.69-4.9m165.03-41a5.8 5.8 0 0 0-3.26 6.7c.74 2.6 3.61 4.42 6.28 3.98s4.81-3.08 4.67-5.78c-.12-2.73-2.88-6.86-7.7-4.9m9.08 15.88a5.8 5.8 0 0 0-3.26 6.69c.73 2.61 3.6 4.43 6.28 3.99s4.81-3.08 4.67-5.78c-.12-2.7-2.88-6.84-7.7-4.9m18.32 5.63a5.8 5.8 0 0 0-3.26 6.7 5.8 5.8 0 0 0 6.28 3.98c2.67-.44 4.81-3.08 4.67-5.78s-2.91-6.86-7.7-4.9" style="fill:#f5a1a6"/><path d="M1771.77 1242.1c-1.67-4.69-9.18-3.13-9 1.83-.21 5.98-1.65 12.06-.89 18.01 1.06 2.62 1.7 2.2 2.26 2.8 1.06.6 2.41.64 3.52.17 2.82-.97 3.23-4.4 3.47-7.04.03-5.2 1.61-10.68.64-15.76m5.81 60.97-.03.2.06-.1c-.06.14-.06.05-.03-.1m0-.14q0 .08-.03.11l.03-.23c.2-.8.36-1.82.03-2.26-2.4-4.87-3.05-4.5-3.81-9.07.06-1.23 0-5.13-.38-5.7-1.65-4.6-9.01-3.07-8.84 1.8-.7 4.99 2.2 18.25 8.51 18.57 1.27.2 2.59.03 3.5-.94a4 4 0 0 0 .93-1.93l-.17.47zm15.62-29.38c-.98-3.31-.95-7.16-2.74-10.12-2.93-4.28-10.06-.67-8.5 4.26 1.58 4.52.87 12.26 5.98 14.32 5.31 1.11 6.54-4.38 5.25-8.46m219.14 9.92c-.68-.61-1.32-1.32-2-1.96.8-.88 1.59-1.82 2.44-2.67 1-1 1.55-2.38 1.55-3.76.15-4.58-5.95-7.1-9.1-3.76a98 98 0 0 0-2.31 2.59 52 52 0 0 0-6.6-5.87c-5.43-2.67-10.63 5.1-6.2 9.21l5.14 5.1q-2.5 2.8-5.05 5.58c-5.22 4.4-1.26 12.94 5.37 9.5a77 77 0 0 0 7.37-7.47q.95.93 1.9 1.9c2.88 2.82 7.25 6.75 11.04 3.11 3.75-4.07-.68-8.48-3.55-11.5m-259.54-88.79a5 5 0 0 1-3.85-1.73c-14.93-16.96-20-41.34-14.32-62.97l-2.96 2.02a5 5 0 0 1-5.02.44 5.2 5.2 0 0 1-2.99-4.07 44 44 0 0 1 .18-11.62 5.12 5.12 0 0 1-8.42-4.52c6.01-51.73 35.18-100.3 78.05-129.87a5.1 5.1 0 0 1 7.13 1.32 5.1 5.1 0 0 1-1.32 7.13c-35.68 24.62-61.33 63.14-70.78 105.4a62 62 0 0 1 9.36-6.43 5.1 5.1 0 0 1 6.6 1.4 5.1 5.1 0 0 1-.46 6.73 36 36 0 0 0-9.98 19.98l9.12-6.28a5.1 5.1 0 0 1 6.43.5 5.1 5.1 0 0 1 .88 6.37c-12.3 20.57-9.65 49.62 6.2 67.6a5.1 5.1 0 0 1-.48 7.25 4.7 4.7 0 0 1-3.37 1.35" style="fill:#511239"/><path d="M2062.8 1043.2a5.13 5.13 0 0 1-4.93-6.57c10.77-37.04 14.4-79.15 10.03-115.48-1.5-12.4-5.72-27.87-17.25-31.13-6.96-1.96-14.94 1.3-21.1 4.34a145.3 145.3 0 0 0-63.5 61.77 5.1 5.1 0 0 1-4.9 2.73c-27.81-1.9-52.11-.23-76.5 5.22a5.1 5.1 0 0 1-5.98-3.37c-8.92-26.67-26.76-50.47-50.3-67.05-10.53-7.42-19.36-9.95-26.2-7.45-8.07 2.93-12.56 12.38-15.84 21.24a289 289 0 0 0-18.37 104.93 5.1 5.1 0 0 1-5.08 5.2 5.2 5.2 0 0 1-5.2-5.08 300 300 0 0 1 19.02-108.66c3.88-10.38 9.9-22.89 21.95-27.29 10.18-3.7 22.16-.79 35.62 8.69 24 16.9 42.55 40.87 52.59 67.84 22.88-4.72 45.86-6.22 71.68-4.7a156 156 0 0 1 66.43-63.23c7.81-3.87 18.11-7.92 28.44-5.02 13.44 3.79 21.98 17.55 24.65 39.8 4.54 37.67.76 81.24-10.36 119.56a5.1 5.1 0 0 1-4.9 3.7" style="fill:#511239"/><path d="M1896.63 1464.12c-16.17 0-33.8-2.88-50.56-8.8-34.15-12.12-113.59-53.97-113.59-180.5 0-56.22 23.86-111.82 67.17-156.51 40.4-41.7 95.25-70.95 150.5-80.28 111.62-18.84 182.16 7.13 251.47 92.63 25.85 31.9 40.58 76.18 40.38 121.51-.15 35.24-9.16 87.6-51.24 136.92-25.67 30.1-67.02 51.03-100.4 50.76-15.5-.12-27.65-4.9-35.1-13.88-9.86-11.85-12.91-26.96-8.6-42.49 5.7-20.57 23.53-38.4 46.6-46.5a5.14 5.14 0 0 1 3.4 9.68c-19.92 7.01-35.27 22.15-40.08 39.55-3.38 12.21-1.03 24 6.6 33.22 6.9 8.3 18.63 10.12 27.26 10.18 30.22.12 69.07-19.63 92.55-47.15 40.05-46.98 48.65-96.78 48.8-130.29.17-43.01-13.71-84.92-38.1-115.02-66.6-82.13-134.38-107.1-241.78-88.97-53.14 8.95-105.93 37.15-144.84 77.3-41.43 42.77-64.26 95.82-64.26 149.38 0 39.96 10.39 136.62 106.75 170.83 40.94 14.53 82.66 8.07 94.52-6.8 4.75-6 6.3-15.56 4.22-26.24-3.64-18.75-17.1-36.33-35.97-46.98a5.11 5.11 0 1 1 5.04-8.92c21.48 12.12 36.8 32.31 41.03 53.96 2.64 13.65.35 26.24-6.28 34.57-9.9 12.27-31.05 18.8-55.5 18.84" style="fill:#511239"/><path d="M1974.45 1426.3q-9.2-.01-18.31-.68a5.13 5.13 0 1 1 .73-10.24 248 248 0 0 0 92.46-10.95c2.73-.85 5.6.62 6.45 3.35a5.1 5.1 0 0 1-3.31 6.45 259 259 0 0 1-78.02 12.07m-10.33-199.42a5.1 5.1 0 0 1-4.67-3.02c-6.75-14.82-3.6-33.45 7.63-45.25a5 5 0 0 1 4.14-1.58c1.55.11 2.96.93 3.81 2.23l1.8 2.6 12.96-26.87a5.2 5.2 0 0 1 4.31-2.9 5.1 5.1 0 0 1 4.64 2.34l5.81 9.01 4.81-11a5.16 5.16 0 0 1 5.6-3c15.24 2.76 28.85 13.77 34.72 28.09s3.87 31.74-5.05 44.36a5.13 5.13 0 1 1-8.39-5.93c6.96-9.83 8.48-23.41 3.93-34.56-4.05-9.92-12.9-17.81-23.15-20.92l-6.92 15.84a5.12 5.12 0 0 1-9.01.7l-6.05-9.36-12.85 26.62a5.1 5.1 0 0 1-4.25 2.87 5.1 5.1 0 0 1-4.64-2.23l-2.76-4.05c-4.99 8.54-5.87 19.72-1.79 28.67a5.14 5.14 0 0 1-2.55 6.81 4 4 0 0 1-2.08.53" style="fill:#511239"/><path d="M1736 1497.3c-3.52 0-5.8-1.37-7.24-2.84-2.09-2.11-4.82-6.93.52-15.2l.24-.35c-4.49 2.46-9.22 4.6-14.79 5.04a5.1 5.1 0 0 1-5.16-3.25c-2.41-6.17 2.49-11.71 4.13-13.53 5.87-6.6 12.21-13 18.87-18.96a5.1 5.1 0 0 1 7.25.38 5.1 5.1 0 0 1-.38 7.25 229 229 0 0 0-13.8 13.47l2.3-1.32c4.49-2.58 9.12-5.28 14.6-6.54 2.03-.47 4.18.35 5.38 2.05s1.23 4 .12 5.75l-10.07 15.58a13 13 0 0 0-1.14 2.12 12 12 0 0 0 2.34-.65 65 65 0 0 0 22.51-14.11 5.14 5.14 0 0 1 7.13 7.37 75 75 0 0 1-26.06 16.34 19 19 0 0 1-6.75 1.4m34.83 16.53a5.16 5.16 0 0 1-5.02-3.96c-.64-2.74-.67-2.85 11.42-20.25l3.14-4.52a5.15 5.15 0 0 1 8.57 5.69l-3.23 4.7c-2.84 4.07-8.57 12.35-9.89 14.67a5 5 0 0 1-.4 1.02 5.4 5.4 0 0 1-4.59 2.64m34.72 16.12c-3.9 0-7.6-1.33-10.07-4.58-1.47-1.94-3-5.4-1.9-10.83 1.35-6.75 5.9-13 12.47-17.14 7.13-4.49 15.52-5.92 23.03-4.02a5.13 5.13 0 1 1-2.55 9.95c-4.73-1.2-10.36-.18-15.03 2.76-4.22 2.64-7.07 6.45-7.89 10.44-.32 1.62-.12 2.44.03 2.64.56.77 3.76.77 6.98-.82a10 10 0 0 0 2.12-1.29 5.15 5.15 0 0 1 6.98-7.36l.15.11a24 24 0 0 0 11.85 4.2 5.15 5.15 0 0 1-.8 10.24 34 34 0 0 1-9.2-2c-1.82 2.76-4.61 4.35-6.6 5.32a22 22 0 0 1-9.57 2.38m69.15 12.67q-.91 0-1.81-.35a52 52 0 0 0-22.68-3.14 5.1 5.1 0 0 1-4.67-2.23 5.1 5.1 0 0 1-.35-5.17l13.67-27.73a5.12 5.12 0 1 1 9.22 4.52l-9.98 20.22a62 62 0 0 1 18.49 3.9c2.64 1 3.99 4 2.96 6.63a5.2 5.2 0 0 1-4.84 3.35m32.28 2.38c-3.44 0-6.93-.65-10.1-2.5a11.6 11.6 0 0 1-4.87-5.01c-1.67-3.58-.85-7.96 1.9-11.24-2.6-3.14-3.28-7.48-1.4-11 1.09-2.09 2.76-3.41 4.4-4.55a60 60 0 0 1 13.56-7.05 5.14 5.14 0 0 1 3.52 9.63c-4 1.47-7.78 3.4-11.21 5.8q-.6.41-.85.65c.7.53 2.11.74 3.64.6a5.14 5.14 0 0 1 1.76 10.09c-2 .5-4.02 1.08-5.2 2.08-.29.23-.5.53-.61.76q.15.14.5.32c4.1 2.38 10.56.6 16.28-1.26a5.12 5.12 0 1 1 3.14 9.77c-3.52 1.15-8.89 2.9-14.46 2.9m72.06-15.98-18.95-.03a5.14 5.14 0 0 1 0-10.27l18.92.03a5.14 5.14 0 0 1 .03 10.27m55.55-.18q-.37 0-.65-.03c-4.1-.35-6.13-3.76-6.78-4.87-3.2-5.43-7.42-17.87-8.65-22.86a5.14 5.14 0 0 1 9.98-2.5c.96 3.91 3.7 11.9 5.98 16.97l5.6-14.47a5.1 5.1 0 0 1 5.29-3.26 5.1 5.1 0 0 1 4.55 4.2 44 44 0 0 0 5.25 14.17c1.03 1.76 1.58 2.03 1.61 2.03.18-.24 1.3-2 1.76-4.87l3.11-19.6a5.14 5.14 0 0 1 10.15 1.61l-3.1 19.57c-1.41 8.92-6.58 14.17-13.12 13.47-5.52-.62-8.33-5.43-9.24-7.04a46 46 0 0 1-1.8-3.35l-1.52 3.94c-2.4 6-6.3 6.89-8.42 6.89m56.37-9.86a5.1 5.1 0 0 1-4.79-3.32 92 92 0 0 1-5.72-24.76 5.17 5.17 0 0 1 4.67-5.58 5.15 5.15 0 0 1 5.57 4.67 83 83 0 0 0 5.08 22 5.17 5.17 0 0 1-4.81 6.99m29.78-6.92c-3.52 0-7.07-1.59-9.62-4.44-2.82-3.16-3.79-7.04-4.32-10.09-.7-4.08-.94-8.22-.7-12.32.2-3.26.76-7.52 3.37-11.24 4.37-6.28 13.65-8.69 20.66-5.43a5.13 5.13 0 0 1 2.47 6.84 5.13 5.13 0 0 1-6.84 2.46c-2.52-1.17-6.37-.2-7.9 2-.87 1.26-1.34 3.1-1.52 5.98q-.29 5 .56 9.95c.29 1.7.79 3.81 1.87 5.05.68.76 1.76 1.11 2.26.94q.58-.22 1.65-1.44 1.98-2.3 2.2-3.82c.06-.53-.15-.94-.24-1a5.1 5.1 0 0 1-2.75-5.72 5.1 5.1 0 0 1 4.9-4.05 9.2 9.2 0 0 0 6.57-2.99 5.1 5.1 0 0 1 7.25-.5 5.1 5.1 0 0 1 .5 7.25 19 19 0 0 1-6.14 4.6c.2 1.18.27 2.41.09 3.67-.38 3.14-1.9 6.2-4.67 9.3-1.32 1.5-3.16 3.35-5.86 4.35a11 11 0 0 1-3.79.64m40.85-14.73h-.33a5.1 5.1 0 0 1-4.72-4.3 336 336 0 0 0-6.22-29.88 5.14 5.14 0 0 1 9.95-2.55q2.56 10 4.51 20.19a44 44 0 0 1 4.14-2.41l1.62-.82c3.28-1.64 6.36-3.23 8.03-5.43a5.14 5.14 0 0 1 8.22 6.16c-3.11 4.14-7.63 6.43-11.62 8.45l-1.52.8c-4.2 2.17-6.52 4.16-7.1 6.13a5.2 5.2 0 0 1-4.96 3.66m43.6-20.56a6 6 0 0 1-1.58-.2c-2.47-.65-3.61-2.56-4-3.18a149 149 0 0 1-12.76-26.85 5.17 5.17 0 0 1 3.11-6.57c2.67-.94 5.6.44 6.57 3.11a139 139 0 0 0 9.86 21.57l13.12-10a5.2 5.2 0 0 1 2.08-3.33 5.7 5.7 0 0 1 6.16-.2c2 1.2 3.08 3.43 2.8 5.7a6.6 6.6 0 0 1-2.83 4.45l-18.16 13.85a7 7 0 0 1-4.37 1.65" style="fill:#e35a26"/><path d="M2189.53 1449.5a5.14 5.14 0 0 1-3.64-8.75 86 86 0 0 1 16.96-13.14 5.16 5.16 0 0 1 7.04 1.82 5.16 5.16 0 0 1-1.82 7.04 74 74 0 0 0-14.9 11.57 5.2 5.2 0 0 1-3.64 1.47m12.41 10.62a5.15 5.15 0 0 1-2.79-9.45 67 67 0 0 0 10.45-8.34 5.14 5.14 0 0 1 7.19 7.34 78 78 0 0 1-12.06 9.65c-.88.53-1.85.8-2.79.8" style="fill:#e35a26"/><path d="M1709.71 1357.9c-1.4 0-2.79-.56-3.81-1.68-35.54-39.17-20.02-91.2-19.31-93.4a5.14 5.14 0 0 1 9.83 3.06c-.15.46-14.44 48.7 17.1 83.48a5.1 5.1 0 0 1-.35 7.25 5.3 5.3 0 0 1-3.46 1.29m-47.47-10.01a5 5 0 0 1-3.67-1.55c-8.8-9.04-13-29.58-13.44-31.9a5.14 5.14 0 0 1 4.05-6.02 5.1 5.1 0 0 1 6.01 4.05c1.06 5.46 5.08 20.87 10.71 26.68a5.14 5.14 0 0 1-.09 7.24c-1 1-2.28 1.5-3.58 1.5m576.63-222.39a5.2 5.2 0 0 1-5.05-4.14c-5.55-28.37-35.71-50.09-36-50.3a5.13 5.13 0 1 1 5.95-8.36c1.38.97 33.8 24.36 40.14 56.7a5.1 5.1 0 0 1-4.05 6.01c-.35.03-.67.09-1 .09" style="fill:#511239"/><path d="M2201.06 1235.89q-.36 0-.76-.06a5.14 5.14 0 0 1-4.34-5.84c4.66-31.7-6.17-46.04-6.28-46.16a5.13 5.13 0 1 1 7.95-6.48c.56.7 13.85 17.52 8.48 54.14a5.1 5.1 0 0 1-5.05 4.4m-6.1 35.21q-.46 0-.91-.09a5.17 5.17 0 0 1-4.17-5.96l1-5.51a5.16 5.16 0 0 1 5.96-4.17 5.17 5.17 0 0 1 4.16 5.96l-1 5.51a5.1 5.1 0 0 1-5.04 4.26" style="fill:#fff7ed"/><path d="M2249.36 1078.99a5.1 5.1 0 0 1-4.67-2.96 33 33 0 0 0-10.12-12.53 5.15 5.15 0 0 1-1.44-7.1 5.1 5.1 0 0 1 7.08-1.47c.35.23 8.62 5.72 13.79 16.75a5.15 5.15 0 0 1-4.64 7.31m-198.04-93.19h-.23a5.15 5.15 0 0 1-4.9-5.37l.61-13.7a5.04 5.04 0 0 1 5.37-4.9 5.15 5.15 0 0 1 4.9 5.36l-.61 13.7a5.15 5.15 0 0 1-5.14 4.9m-19.1 16.94q-.58 0-1.2-.15a5.15 5.15 0 0 1-3.82-6.19l2.32-9.77a5.15 5.15 0 0 1 10 2.37l-2.31 9.78a5.1 5.1 0 0 1-4.99 3.96m13.74 18.69q-.35.02-.68-.06a5.1 5.1 0 0 1-4.4-5.75l1.23-9.27a5.12 5.12 0 1 1 10.15 1.35l-1.23 9.27a5.14 5.14 0 0 1-5.08 4.46" style="fill:#511239"/></svg>