<svg xmlns="http://www.w3.org/2000/svg" viewBox="645.6 1704.2 645.9 851.7"><path d="M1190.86 2311.7c40.8 23.37 54.24 83.9 27.16 122.36-17.27 24.5-46 38.06-74.17 48.37-119.1 43.65-250.92 48.1-374.84 21.1-30.73-6.69-64.21-17.65-79.47-45.15-9.86-17.73-10.05-39.56-4.89-59.18 5.13-19.63 15.14-37.57 25.06-55.27-15.05-14.69-24.7-37.49-28.38-60.47-3.7-22.98-2.05-46.45-.4-69.65l10.53-146.84c2.75-38.15 5.7-77.25 21.55-112.08 15.84-34.82 47.55-65.01 85.64-71.82-20.97-22.5-22-59.09-7.08-85.98s43.07-44.56 72.74-52.7 60.95-7.8 91.62-5.75c22.22 1.47 46.24 4.61 62.11 20.21 14.01 13.74 18.68 34.86 16.82 54.39s-9.43 38-20.48 59.15c35.01-7.78 73.5 2.02 100.48 25.61 27.01 23.6 41.85 60.43 38.8 96.18 23.28-1.84 46.42 8.9 63 25.36 16.56 16.45 27.13 38.12 33.9 60.5 23.1 76.2 1.53 164.26-59.7 231.65" style="fill:#f2e9e1"/><path d="M1210.76 2123.52c-2.2-23.1-10.6-46.73-28.45-61.53-19.53-16.18-47.06-19.14-72.24-16.11 8.3-40.57-9.5-82.9-42.24-105.24-33.58-22.93-76.92-24.2-117.58-24-37.42.19-75.32 1.01-111.34 11.24-18.95 5.37-37.66 13.7-51.15 28.05-17.77 18.92-24.09 45.63-28.45 71.2a783 783 0 0 0-7.3 210c2.6 25.85 6.66 52.22 19.2 74.96 15.5 28.14 43.04 48.44 73.25 59.33s63 13.07 95.05 11c34.49-2.24 69.35-9.53 99.1-27.11 29.76-17.58 54-46.52 60.32-80.49 34.36-8.15 65.83-27.38 85.98-54.82 20.17-27.4 29.08-62.57 25.85-96.48m-75.3 50.89c-8.54 8.48-19.38 14.25-30.06 19.87.24-30.2 4.3-60.35 12.08-89.5 15.9 9.2 29.76 21.19 31.41 37.3 1.2 12-4.88 23.8-13.43 32.33" style="fill:#bcd6a6"/><path d="M896.44 2190.61c-14.8-7.54-34.21-4.64-46.18 6.84s-15.62 30.8-8.7 45.87c6.93 15.08 23.93 24.88 40.48 23.32 16.51-1.58 31.37-14.43 35.31-30.55s-2.38-36.08-20.9-45.48m103.77 18.65c-10.6-5.37-23.26-6.84-34.64-3.45-11.39 3.42-21.3 11.81-25.98 22.74-5.83 13.61-2.9 30.5 7.02 41.48 9.92 10.99 26.22 15.72 40.53 11.93 14.32-3.78 26.13-15.75 29.95-30.06 3.78-14.2.24-33.94-16.88-42.64" style="fill:#ec707a"/><path d="M1152.4 2199.43a27.8 27.8 0 0 1-12.03 16.15c-4.27 3.17-13.97 4.67-11.07 11.93 3.44 7.12 13.21 1.99 18.1-.97 8.6-5.96 16.6-15.57 17.33-26.28-.49-6.66-10.8-7.3-12.33-.83m-373.9-88.03c-3.56-3.8-10.55-.94-10.37 4.31-.3 11.6-.8 23.2-1.04 34.83.43 4.33-.73 10.47 2.75 13.64 4.4 3.27 8.82-.92 8.76-5.68 1.58-10.9.94-22 1.46-33-.45-4.6 1.77-10.3-1.55-14.1m1.09 75.46c-4.45-2.81-10.5 1.83-8.94 6.87.98 3.2 1.16 7.41 4.28 9.34 3.54 2.16 8.48-.65 8.36-4.8-.49-3.87.15-9.12-3.7-11.41" style="fill:#fff7ed"/><path d="M814.8 1998.45c-3.94 71.84 247.16 62.23 242.1.03s-238.56-64.74-242.1-.04m143.42 205.39.12-.03c3.79-.43 7.57-1.01 11.33-1.62.67-.12 1.3-.21 1.98-.3-1.86-1.93-4-3.7-5.43-5.8-1.35-1.5-8.06-9.74-6.08-7.3-11.01-13.64-18.1-28.38-24.2-42.06l9.19.92c4.64.06 9.58 1.89 14.07.67 3.63-1.28 4.51-6.41 1.8-9.04-3.94-2.96-9.7-1.7-14.38-2.71l-43.86-4.4c-7.3.03-7.32 11.17 0 11.2l15.57 1.56a29 29 0 0 1-3.39 3.2 176 176 0 0 0-29.76 40.24c2.26.97 4.49 1.92 6.78 2.86q2.66 1.1 5.3 2.26l.28.13c.61.27 1.25.51 1.9.82-1.2-.7-2.42-1.4-3.7-2.01a157 157 0 0 1 30.7-39.74 184 184 0 0 0 27.94 46.6c1.22 1.56 2.53 3.05 3.84 4.55m-111.47-382.47c-10-14.53-1.7-31.47 12.06-36.66 4.49-3.05.7-10.6-4.46-8.94-23.65 8.33-29.88 40.53-10.8 56.92 6.74 5.4 14.74 9.95 16.12 12.73 4.33 7.38 2.9 13.98-5.25 25 1.86-1.93-5.62 5.82-5.47 8.51-.67 3.36 2.93 6.38 6.17 5.43 3.23-1.25 5.3-4.36 7.38-6.99 4.67-6.04 8.61-13.06 9.34-20.81 3.18-20.79-20.5-26.98-25.09-35.2m62.18 7.21c-11.39-10.68-8.76-29.4 4.45-36.84 2.96-2.38 5.2-.73 8.52-4.55 2.2-3.5-1.44-8.27-5.4-7.02-23.78 5.9-32.42 36.23-15.54 53.9 6.44 6.63 12.45 8.21 16.85 13.8 1.86 2.14 2.65 8.6-3.36 13.83-1.5 2.77-12.3 5.46-8 12.66 4.46 5.31 10.26-1.52 13.74-4.7 4.73-4.64 8.42-10.86 8.18-17.67.1-12.33-14.59-18.56-19.44-23.41m71.45 8.12c-17-15.78-15.44-36.6 2.65-47.13 5.44-3.17.58-11.5-4.88-8.36-20.97 9.83-26.95 39-10.8 55.85 4.7 4.55 9.24 8.98 9.18 10.38 1.77 5.83-2.9 11.08-11.14 16.88-3.97 2.93-3.02 9.25 2.32 9.46 2.23-.09 4.18-1.5 5.86-2.87 4.61-3.84 8.85-8.45 10.93-14.19 2.8-6.87.91-14.71-4.12-20.02" style="fill:#511239"/><path d="M1006.08 1986.57a69 69 0 0 0-32.35-9.8c-2.78-.03-6.05-.64-8.18 1.6-3.51 3.29-.86 9.73 3.96 9.54 12.76.04 20.64 2.32 31.9 8.86 7.94 3.87 12.2-6.26 4.67-10.2m-60.5-8.94c-2.07-3.39-6.4-3.08-9.82-2.63-7.33.03-7.3 11.17 0 11.2 2.68-.33 5.8-.03 8-1.76l.05-.04q.1-.06.13-.12c.12-.12.27-.18.4-.3l-.1.06a5 5 0 0 0 1.34-6.41" style="fill:#fff7ed"/><path d="M931.33 2388.24c-70.84 0-140.5-26.25-161.46-64.46-38.46-70.02-43.52-326.1 14.86-375.33 61.02-51.46 233.44-51.49 297.53-.09 40.47 32.48 39.8 75.94 37.7 92.82 21.42-1.16 49.17.76 68.7 19.84 19.14 18.7 27.14 50.02 24.45 95.77-5.46 92.76-90.31 115.04-109.45 118.89-12.82 59.27-58.97 98.03-130.42 109.36a270 270 0 0 1-41.9 3.2m1.04-467.56c-56.35 0-112.32 11.96-140.77 35.95-23.44 19.78-38.67 86.13-39.7 173.18-.99 80.12 10.28 157.77 27.3 188.81 22.8 41.54 114.5 68.16 192.36 55.86 39.43-6.23 107.77-28.08 122.33-104.42.43-2.26 2.26-4 4.55-4.3 4.03-.55 98.4-14.44 104.02-109.6 2.47-41.88-4.7-71.3-21.25-87.51-14.1-13.8-35.46-18.99-67.17-16.36a5.2 5.2 0 0 1-4.5-1.87 5.4 5.4 0 0 1-1.12-4.73c.52-2.23 11.96-53.14-32.81-89.03-29.97-23.96-86.8-35.99-143.24-35.99" style="fill:#511239"/><path d="M930.45 2054.06c-38.28 0-75.7-6.38-97.83-19.45-20.14-11.9-23.71-26.4-23.16-36.47.91-16.76 14.65-30.55 39.74-39.9 20.87-7.78 49.2-12.26 79.75-12.69 62.05-.76 130.24 15.26 133.26 52.5.7 8.54-2.29 21.15-20.45 32.54-24.78 15.5-68.58 23.47-111.31 23.47m2.77-97.86q-2.08 0-4.15.03c-73.31.98-107.86 22.71-108.96 42.5-.58 10.34 5.46 19.31 17.94 26.67 43.4 25.6 154.45 23.4 198.03-3.91 10.93-6.84 16.15-14.44 15.48-22.59-2.2-27.04-61.17-42.7-118.34-42.7m-54.72 318.2c-15.88 0-31.84-8.61-39.96-22.29-9.49-15.96-7.87-38 3.91-52.37 11.78-14.38 33.03-20.36 50.58-14.2 24.81 8.7 32.96 32.27 30.03 50.46-2.96 18.34-18.34 34.18-36.6 37.66a44 44 0 0 1-7.96.74m-.12-80.64c-10.47 0-21.06 4.6-27.69 12.72-9.03 11.02-10.28 27.93-2.99 40.17 7.3 12.24 22.7 19.17 36.72 16.51 13.98-2.68 25.79-14.8 28.05-28.87 2.32-14.4-3.9-31.96-23.02-38.67a33 33 0 0 0-11.08-1.86m99.57 94.68c-15.87 0-31.84-8.61-39.99-22.29-9.49-15.96-7.87-38 3.91-52.37 11.75-14.38 33.03-20.36 50.58-14.2 24.81 8.7 32.96 32.27 30.03 50.46-2.96 18.34-18.34 34.18-36.6 37.66q-3.94.75-7.93.74m-.12-80.64c-10.47 0-21.06 4.6-27.69 12.72-9.03 11.02-10.28 27.9-2.99 40.17 7.3 12.24 22.7 19.2 36.72 16.51 13.98-2.68 25.79-14.8 28.05-28.87 2.32-14.4-3.9-31.96-23.01-38.67a34 34 0 0 0-11.08-1.86m125.9-9.1a5.37 5.37 0 0 1-5.34-5.62 518 518 0 0 1 12.09-89.55 5.3 5.3 0 0 1 4.57-4.12c16.24-1.89 32.27 9.52 37.94 27.23 4.83 15.02 1.56 32.87-8.54 46.57-9 12.21-23.02 21.22-39.44 25.3q-.62.2-1.28.19m16.27-88.76a511 511 0 0 0-10.53 76.06c10.95-4.03 20.14-10.65 26.4-19.1 8.09-11 10.77-25.15 6.96-36.97-3.12-9.7-11.9-19.25-22.83-19.99" style="fill:#511239"/><path d="M722.16 2468.27a21 21 0 0 1-10.47-2.68c-3.2-1.87-5.37-4.4-6.28-7.36-2.05-6.62 2.28-13.25 11.6-17.77a264 264 0 0 1 31.52-12.88c2.44-7.8 4-15.93 4.55-24.1a58 58 0 0 1-10.62 5c-7.36 2.62-13.55 1.62-16.97-2.75-4.37-5.58-1.68-13.43 3.45-17.8 7.72-6.59 19.78-7.1 28.05-1.18 1.1.8 1.77 1.98 1.89 3.23.3.06.61.19.92.3a4.6 4.6 0 0 1 2.68 4.07c.22 10.07-.98 20.17-3.48 29.94a268 268 0 0 1 22.99-5.56 8.3 8.3 0 0 1 5.3-.67 4.6 4.6 0 0 1 3.06 2.17q.75.16 1.43.6a16.4 16.4 0 0 1 7.12 10.78c.73 4.1-.13 8-2.45 11.05-2.77 3.66-7.75 5.46-12.66 4.64-4.61-.76-8.15-3.66-9.47-7.7-1.19-3.6-.45-7.2.37-9.97q-9.54 2.23-18.9 5.16a109 109 0 0 1-3.78 9.15c-2.65 5.71-7.08 13.95-14.56 19.26a26.5 26.5 0 0 1-15.29 5.07m22.13-29.48a260 260 0 0 0-23.29 9.92c-3.87 1.89-7.47 4.82-6.86 6.83.21.67 1 1.47 2.13 2.14 4.3 2.47 10.8 1.7 15.85-1.86 5.7-4.06 9.34-10.87 11.56-15.66zm41.3-11.36c-.46.55-1.13 1.65-1.68 3.39-.8 2.44-1.4 4.58-.92 6.01.37 1.1 1.83 1.44 2.3 1.5 1.55.24 3.14-.22 3.87-1.16 1-1.34.88-3.02.73-3.88a7 7 0 0 0-3-4.67c-.54-.3-.97-.73-1.3-1.19m-41.82-35.65c-3.23 0-6.47 1.07-8.88 3.11-1.98 1.68-2.87 4.3-2.2 5.2.77.97 3.57.88 6.69-.22a51 51 0 0 0 11.75-6.01 14 14 0 0 0-7.36-2.08m72.73 62.24q-1.6 0-3.23-.37c-4.3-.98-7.9-3.78-9.61-7.5-1.68-3.67-1.56-8 .33-11.91a14 14 0 0 1 9.31-7.72c1.5-.37 3.02.06 4.1 1 1.98 0 4.02.55 5.88 1.65a13.2 13.2 0 0 1 6.2 10.41c.37 4.49-1.31 8.79-4.52 11.45a13 13 0 0 1-8.45 2.99m-4.3-15.7a4.8 4.8 0 0 0-.21 4 4.7 4.7 0 0 0 3.3 2.39 4.5 4.5 0 0 0 3.84-.7c.92-.77 1.37-2.17 1.25-3.7-.12-1.46-.8-2.71-1.74-3.26a2.4 2.4 0 0 0-1.77-.28 4.4 4.4 0 0 1-4.67 1.56m65.55 29.51h-.21c-10.35-.49-17.4-9.98-18.74-19.44-6.35 6.71-14.01 10.87-21.8 11.69a4.6 4.6 0 0 1-4.72-2.8 18.6 18.6 0 0 1 2.8-18.75 18.6 18.6 0 0 1 17.89-6.32 4.6 4.6 0 0 1 3.66 4.28c3.33-4.86 6.02-10.32 8.61-15.63a4.57 4.57 0 0 1 6.04-2.14 4.6 4.6 0 0 1 2.26 6.02c-2.93 6.59-6.26 14.07-5.77 21.24.4 5.89 4.61 12.4 10.23 12.67a4.6 4.6 0 0 1 4.36 4.79 4.66 4.66 0 0 1-4.6 4.4m-28.35-26.8a9.6 9.6 0 0 0-7.26 3.33 9.6 9.6 0 0 0-2.08 5.74c4.55-1.46 9-4.52 12.88-8.88a5 5 0 0 1-1.83 0 8 8 0 0 0-1.71-.18m95.86 21.66q-.5.01-1-.13a4.6 4.6 0 0 1-3.52-3.66q-2.93-16.7-5.58-18.8c-2.69 1.19-6.72 12.2-8.27 16.42l-.92 2.5a4.56 4.56 0 0 1-8.42.34c-3.06-6.47-4.16-19.54-3.58-25.7a4.59 4.59 0 0 1 9.13.88c-.18 1.84-.15 4.34.03 7 2.96-5.96 6.65-10.5 11.97-10.66 6.44-.12 9.85 6.17 12 13.68 3.1-6.57 6.89-13.04 13.76-13.04h.12a9 9 0 0 1 6.65 2.87c4.46 4.67 4.18 13.58 3.94 20.76l-.06 2.1a4.5 4.5 0 0 1-4.7 4.46 4.57 4.57 0 0 1-4.46-4.7l.06-2.17c.1-3.17.43-12.79-1.43-14.16-2.05 0-5.16 6.75-6.8 10.35-1.56 3.39-3.18 6.93-5.2 9.7a4.6 4.6 0 0 1-3.72 1.96m46.67-1.65q-1.05 0-2.1-.16c-4.8-.67-8.77-3.54-10.63-7.69-3.72-8.3 1.04-16.78 5.65-23.26a4.6 4.6 0 0 1 5.25-1.67 8 8 0 0 1 2.53-.95c3.3-.58 7.17.88 9.68 3.7l.15.15c1-.68 2.26-1.74 3.94-3.18.97-.82 2-1.74 3.2-2.72 2.05-1.92 6.01-4.27 10.56.22l.37.36c.3-.12.85-.4 1.65-.97a4.58 4.58 0 0 1 7.2 4.33c-.8 5.77-.64 12.24.24 15.02 2.72-2.84 7.3-11.48 10.62-20.3a4.56 4.56 0 1 1 8.55 3.24c-7.39 19.56-14.62 28.53-21.46 26.76-6.8-1.8-7.93-11.17-7.66-18.8a9 9 0 0 1-4.97-2.17l-2.38 2.02a50 50 0 0 1-5.71 4.43c1.43 5.8.36 12.11-3.3 16.5a14.9 14.9 0 0 1-11.38 5.14m-1.59-22.86c-2.29 3.72-4.24 8.05-2.78 11.29.83 1.8 2.75 2.26 3.54 2.38a5.8 5.8 0 0 0 5.2-1.8c1.82-2.2 2.22-5.77 1.27-8.97a28 28 0 0 1-7.23-2.9" style="fill:#e35a26"/><path d="M1048.63 2451.79q-.38 0-.8-.06a4.6 4.6 0 0 1-3.63-3.27c-.6-2.14-1.34-6.6-2.14-11.3-.67-4.05-1.46-8.66-1.92-10.34a4.6 4.6 0 0 1 3.18-5.65 4.6 4.6 0 0 1 5.64 3.18c.46 1.59.98 4.45 1.56 7.75a99 99 0 0 1 2.9-6.93c2.14-4.36 6.17-7.87 10.29-8.94a10.2 10.2 0 0 1 8.54 1.43c3.88 2.7 4.95 7.15 5.83 10.72l.43 1.68a7 7 0 0 0 1.77 3.3c.18-.16.46-.4.91-.9 4.98-5.18 7.67-19.68 8.67-25.11a4.6 4.6 0 0 1 4.49-3.76 4.7 4.7 0 0 1 4.52 3.73c1.77 9.18 3.57 12.97 4.27 13.67.3.25 1.1.25 1.43.1a4.57 4.57 0 0 1 9.07 1.3 8.8 8.8 0 0 1-5.68 7.18c-3.6 1.43-7.81.82-10.71-1.59a10 10 0 0 1-2.29-2.72c-1.77 5.47-4.06 10.3-7.17 13.53-1.38 1.43-3.12 2.99-5.56 3.57-6.1 1.46-10.96-3.88-12.6-9.98q-.22-.93-.5-1.9c-.51-2.16-1.12-4.64-2.13-5.34-.15-.09-.4-.24-1-.09-1.53.4-3.42 2.17-4.37 4.12-.76 1.56-1.77 4.12-2.8 6.8-2.08 5.29-4.22 10.75-6.45 13.9a4.7 4.7 0 0 1-3.75 1.92m72.88-29.89a4.6 4.6 0 0 1-3.72-1.88 71 71 0 0 1-9.7-18.96c-.83-2.4.48-5 2.86-5.8 2.41-.79 5 .5 5.8 2.87a60 60 0 0 0 2.05 5.25 25 25 0 0 1 2.74-6.04 17.3 17.3 0 0 1 11.66-7.72c3.7-.55 7.27.4 9.95 2.71 1.62 1.38 2.87 3.15 4 4.67.64.89 1.68 2.35 2.32 2.84a4.59 4.59 0 0 1 2.17 8.91c-6.05 1.74-9.7-3.35-11.9-6.38a19 19 0 0 0-2.54-3.08c-.24-.21-1-.85-2.65-.6a8.2 8.2 0 0 0-5.28 3.6c-2.66 4.14-2.93 10.06-3.18 15.25a4.6 4.6 0 0 1-4.58 4.37m51.09 8.24h-.27a4.57 4.57 0 0 1 .06-9.16h.19c3.44 0 6.1-2.01 7.75-3.72 3.81-4 6.07-10.38 5.7-16.24-.3-4.94-1.76-9.55-4-14.22a21 21 0 0 1-2.62 5.74 16.6 16.6 0 0 1-14.1 7.17c-4.67-.18-8.6-2.47-10.74-6.35-3.42-6.14-1.34-13.5 2.26-18.1 3.45-4.43 8.33-7.08 12.24-9.19a4.7 4.7 0 0 1 4.42.03q.6-.62 1.38-1a4.6 4.6 0 0 1 5.77 1.58c6.1 9.1 13.7 20.42 14.52 33.76.52 8.4-2.62 17.25-8.2 23.1-4.07 4.3-9.04 6.6-14.35 6.6m.77-55.95c-3.45 1.86-7.05 3.82-9.3 6.72-2 2.53-2.6 5.98-1.47 8 .58 1.03 1.61 1.61 3.1 1.64a7.3 7.3 0 0 0 6.11-3.08c2.6-3.9 2.35-9.16 1.56-13.28m-91.15 19.32a4.58 4.58 0 0 1-3.2-7.87l8.73-8.46a4.58 4.58 0 0 1 6.38 6.56l-8.73 8.46a4.5 4.5 0 0 1-3.18 1.31" style="fill:#e35a26"/><path d="M869.52 2236.8c-.8-.77-1.03-.56-2.47-3.06-1.31-1.98.37-2.44-1.95-5.9-2.41-2.56-7.08-.63-7 2.9a16.5 16.5 0 0 0 7.73 13.53c2.63 1.83 6.65.06 6.6-3.27.15-1.95-1.32-3.35-2.9-4.2m101.85 19.43c-.22-2.99-3.33-3.78-5.47-5.25-.42-.48-1.4-1.43-1.77-1.77-1.74-2.29-.15-2.4-3.35-5.15-3.42-2.14-8.03 1.4-6.84 5.25 1.98 5.92 8.45 13.8 15.32 11.35 1.46-.92 2.44-2.69 2.1-4.43" style="fill:#fff7ed"/></svg>