<svg xmlns="http://www.w3.org/2000/svg" xml:space="preserve" viewBox="138.3 332.5 518.4 639.6"><path d="M156.86 415.46h369.52v25.74H156.86z" style="fill:#fbcf78" transform="rotate(-11.98 341.58 428.3)"/><path d="M156.41 445.6 262.3 944.8l361.48-76.66L517.9 368.93zm40.94 23c-6.33 1.35-12.5-2.49-13.8-8.55-1.28-6.06 2.81-12.07 9.14-13.4 6.33-1.35 12.5 2.47 13.79 8.54s-2.8 12.07-9.13 13.41m58.49-12.4c-6.33 1.34-12.5-2.5-13.79-8.56s2.8-12.06 9.13-13.4c6.34-1.35 12.5 2.48 13.8 8.54 1.28 6.07-2.8 12.08-9.14 13.42m58.5-12.4c-6.33 1.33-12.5-2.5-13.8-8.56-1.28-6.07 2.8-12.07 9.13-13.4 6.34-1.35 12.51 2.47 13.8 8.54 1.28 6.06-2.8 12.07-9.14 13.41m58.5-12.41c-6.34 1.34-12.52-2.5-13.8-8.56-1.3-6.06 2.8-12.06 9.13-13.4 6.33-1.35 12.5 2.48 13.79 8.54 1.29 6.07-2.8 12.07-9.13 13.42m58.48-12.4c-6.33 1.33-12.5-2.5-13.79-8.57-1.28-6.06 2.8-12.06 9.13-13.4s12.5 2.48 13.8 8.54c1.28 6.07-2.8 12.08-9.14 13.42m58.5-12.42c-6.34 1.35-12.52-2.48-13.8-8.55-1.29-6.06 2.8-12.06 9.14-13.4 6.32-1.35 12.5 2.47 13.79 8.54s-2.8 12.07-9.14 13.41" style="fill:#fbf3a7"/><path d="M188.57 486.84h332.02v5.21H188.57z" style="fill:#ffd742" transform="rotate(-11.98 354.52 489.38)"/><path d="M195.77 520.79h332.02v5.22H195.77z" style="fill:#ffd742" transform="rotate(-11.98 361.72 523.33)"/><path d="M202.97 554.76h332.02v5.21H202.97z" style="fill:#ffd742" transform="rotate(-11.98 368.92 557.29)"/><path d="M210.17 588.72h332.02v5.21H210.17z" style="fill:#ffd742" transform="rotate(-11.98 376.12 591.24)"/><path d="M217.38 622.68H549.4v5.21H217.38z" style="fill:#ffd742" transform="rotate(-11.98 383.32 625.2)"/><path d="M224.58 656.64h332.03v5.21H224.58z" style="fill:#ffd742" transform="rotate(-11.98 390.52 659.15)"/><path d="M231.78 690.6H563.8v5.21H231.78z" style="fill:#ffd742" transform="rotate(-11.98 397.72 693.1)"/><path d="M238.99 724.56h332.02v5.21H238.99z" style="fill:#ffd742" transform="rotate(-11.98 404.92 727.06)"/><path d="M246.19 758.53h332.02v5.2H246.19z" style="fill:#ffd742" transform="rotate(-11.98 412.12 761.01)"/><path d="M253.39 792.48h332.02v5.21H253.39z" style="fill:#ffd742" transform="rotate(-11.98 419.33 794.98)"/><path d="M260.59 826.45h332.02v5.21H260.59z" style="fill:#ffd742" transform="rotate(-11.98 426.53 828.93)"/><path d="M267.8 860.41h332.03v5.2H267.8z" style="fill:#ffd742" transform="rotate(-11.98 433.73 862.89)"/><path d="m277.11 954-14.82-9.19 361.48-76.67 14.82 9.19z" style="fill:#fbcf78"/><path d="m532.3 377.86-14.41-8.93 105.88 499.21 14.82 9.19z" style="fill:#fbe697"/><path d="M186.95 416.65c-1.48-2.08-3.11-3.2-4.92-2.81-5.6 1.19-3.89 15.13-1.45 26.63a109 109 0 0 0 3.57 13.22c2.25 6.46 5.12 11.25 8.56 10.52 1.81-.39 2.85-2.06 3.36-4.56.68-3.36.4-8.18-.3-13.25a135 135 0 0 0-1.6-8.82c-1.65-7.81-4.08-16.52-7.22-20.93m3.41 30.74c.49 3.67.64 6.6.63 8.72a63 63 0 0 1-2.74-7.53q-1.21-3.94-2.35-9.24c-1.68-7.92-2.18-13.84-2.16-17.4 1.5 3.24 3.44 8.85 5.12 16.77.59 2.78 1.28 5.7 2.05 8.47z" style="fill:#808285"/><path d="M198.8 446.93c.36 3.08.48 5.58.46 7.42a62 62 0 0 1-2.86-7.91 113 113 0 0 1-2.22-8.86c-1.68-7.91-2.2-13.83-2.16-17.4 1.48 3.24 3.41 8.86 5.1 16.78l5.31-1.13c-2.43-11.5-6.51-24.94-12.13-23.74-1.8.38-2.84 2.06-3.35 4.56-1.07 5.3.25 14.25 1.9 22.06.6 2.78 1.29 5.7 2.06 8.47 1.42 5.02 3.14 9.63 5.16 12.47 1.49 2.08 3.12 3.18 4.91 2.8 3.15-.66 4-5.33 3.67-11.35a11 11 0 0 0-5.85-4.17m46.07-42.53c-1.48-2.1-3.13-3.22-4.94-2.84-5.61 1.19-3.88 15.12-1.44 26.62 1 4.71 2.27 9.76 3.83 13.98 2.2 6.09 4.98 10.47 8.3 9.76 1.8-.38 2.85-2.07 3.35-4.6.69-3.39.4-8.24-.33-13.36a144 144 0 0 0-1.58-8.66c-1.66-7.8-4.05-16.5-7.2-20.9m3.42 30.86c.46 3.61.63 6.48.6 8.57a62 62 0 0 1-2.66-7.28c-.81-2.67-1.65-5.85-2.43-9.5-1.68-7.91-2.2-13.83-2.15-17.4 1.48 3.25 3.42 8.87 5.1 16.78.6 2.82 1.29 5.74 2.09 8.55q-.29.13-.55.28" style="fill:#808285"/><path d="M256.66 434.33c.4 3.22.53 5.82.51 7.74a65 65 0 0 1-2.93-8.07 120 120 0 0 1-2.18-8.7c-1.68-7.91-2.17-13.84-2.13-17.4 1.48 3.24 3.42 8.86 5.1 16.78l5.3-1.13c-2.43-11.5-6.5-24.94-12.12-23.75-1.8.39-2.86 2.08-3.34 4.6-1.1 5.3.22 14.24 1.88 22.03a127 127 0 0 0 2.1 8.56c1.4 4.97 3.1 9.52 5.12 12.34 1.47 2.1 3.12 3.23 4.92 2.84 3.32-.7 4.08-5.85 3.62-12.3a11.6 11.6 0 0 0-5.85-3.54m47.17-42.47c-1.47-2.08-3.12-3.2-4.92-2.81-5.62 1.2-3.89 15.13-1.45 26.63a107 107 0 0 0 3.6 13.35c2.25 6.41 5.1 11.11 8.53 10.39 1.8-.39 2.86-2.06 3.36-4.56.68-3.36.41-8.2-.31-13.28a135 135 0 0 0-1.6-8.79c-1.65-7.81-4.07-16.53-7.21-20.93m3.41 30.77c.49 3.66.64 6.6.63 8.69a60 60 0 0 1-2.74-7.48q-1.21-3.96-2.36-9.3c-1.68-7.9-2.2-13.83-2.15-17.39 1.49 3.24 3.43 8.86 5.11 16.77.6 2.78 1.29 5.7 2.06 8.49q-.28.09-.55.22" style="fill:#808285"/><path d="M315.66 422.07q.54 4.67.49 7.5a58 58 0 0 1-2.88-7.97q-1.14-3.78-2.22-8.8c-1.68-7.92-2.2-13.84-2.15-17.4 1.48 3.23 3.4 8.85 5.09 16.77l5.32-1.13c-2.44-11.5-6.51-24.94-12.13-23.75-1.8.39-2.84 2.07-3.35 4.57-1.08 5.3.25 14.25 1.9 22.06.6 2.78 1.29 5.7 2.06 8.49 1.42 5 3.13 9.6 5.16 12.45 1.48 2.08 3.12 3.18 4.92 2.8 3.17-.67 4-5.43 3.65-11.52a11.4 11.4 0 0 0-5.86-4.07m46.07-42.49c-1.47-2.08-3.12-3.2-4.9-2.81-5.62 1.19-3.88 15.12-1.44 26.62 1 4.75 2.3 9.85 3.87 14.1 2.2 6 4.95 10.34 8.25 9.64 1.79-.38 2.84-2.05 3.34-4.55.71-3.4.42-8.3-.32-13.42-.42-2.88-.98-5.85-1.57-8.65-1.66-7.81-4.08-16.53-7.23-20.93m3.43 30.9c.49 3.6.65 6.47.63 8.55a62 62 0 0 1-2.67-7.22c-.8-2.69-1.64-5.88-2.42-9.55-1.68-7.92-2.2-13.84-2.15-17.4 1.48 3.24 3.41 8.86 5.09 16.78.6 2.82 1.3 5.77 2.1 8.58z" style="fill:#808285"/><path d="M373.55 409.5q.56 4.87.52 7.78a63 63 0 0 1-2.94-8.1c-.73-2.5-1.48-5.4-2.17-8.67-1.68-7.91-2.18-13.84-2.14-17.4 1.48 3.24 3.42 8.86 5.1 16.77l5.32-1.12c-2.44-11.5-6.52-24.94-12.13-23.75-1.82.39-2.87 2.07-3.38 4.57-1.07 5.3.25 14.25 1.91 22.06.6 2.82 1.3 5.77 2.1 8.59 1.4 4.97 3.11 9.54 5.11 12.35 1.48 2.08 3.13 3.18 4.94 2.8 3.33-.7 4.08-5.9 3.6-12.41a11.4 11.4 0 0 0-5.84-3.47m47.12-42.38c-1.48-2.09-3.13-3.21-4.92-2.83-5.62 1.19-3.9 15.11-1.47 26.6v.02c.97 4.57 2.21 9.44 3.7 13.56 2.24 6.3 5.06 10.9 8.45 10.18 1.79-.38 2.84-2.07 3.35-4.57.69-3.37.4-8.22-.34-13.31a123 123 0 0 0-1.57-8.74v-.01c-1.66-7.82-4.07-16.52-7.2-20.9m3.41 30.77c.48 3.66.66 6.57.64 8.67a62 62 0 0 1-2.73-7.43q-1.24-3.94-2.4-9.34v-.02c-1.67-7.9-2.16-13.82-2.12-17.38 1.46 3.24 3.41 8.85 5.09 16.75v.02c.6 2.8 1.29 5.7 2.06 8.5q-.29.08-.54.23" style="fill:#808285"/><path d="M432.49 397.2a60 60 0 0 1 .48 7.6 62 62 0 0 1-2.88-8q-1.15-3.76-2.22-8.77v-.01c-1.67-7.9-2.2-13.82-2.15-17.38 1.49 3.23 3.44 8.85 5.11 16.75l5.32-1.13c-2.44-11.5-6.52-24.92-12.15-23.72-1.8.38-2.83 2.07-3.33 4.58-1.1 5.28.23 14.21 1.89 22.02v.02c.6 2.8 1.28 5.7 2.06 8.5 1.41 5 3.13 9.6 5.16 12.42 1.47 2.08 3.1 3.2 4.9 2.82 3.23-.68 4.03-5.55 3.67-11.78a11.3 11.3 0 0 0-5.86-3.92m43.97-41.96c-1.48-2.07-3.13-3.18-4.92-2.8-5.62 1.19-3.9 15.13-1.46 26.63 1.42 6.7 3.4 14.05 5.91 18.8 1.83 3.38 3.9 5.43 6.23 4.93 1.8-.38 2.85-2.06 3.36-4.55.69-3.45.37-8.43-.38-13.65-.41-2.8-.95-5.69-1.53-8.42-1.66-7.81-4.08-16.53-7.21-20.94m3.54 31.83c.38 3.19.51 5.75.5 7.63a62 62 0 0 1-2.24-5.88c-.95-2.93-1.95-6.57-2.86-10.88-1.68-7.92-2.18-13.84-2.15-17.4 1.47 3.24 3.42 8.85 5.1 16.77a130 130 0 0 0 2.3 9.29q-.33.2-.65.47" style="fill:#808285"/><path d="M488.77 392.95a62 62 0 0 1-3.02-8.43q-1.06-3.62-2.08-8.34c-1.68-7.92-2.19-13.84-2.15-17.4 1.48 3.24 3.43 8.86 5.11 16.77l5.32-1.12c-2.44-11.5-6.53-24.94-12.15-23.75-1.8.38-2.84 2.06-3.34 4.56-1.09 5.3.24 14.26 1.9 22.07a130 130 0 0 0 2.3 9.29c1.36 4.7 2.99 8.96 4.92 11.65 1.47 2.08 3.11 3.18 4.9 2.8 3.76-.8 4.23-7.3 3.4-14.98a11.6 11.6 0 0 0-5.71-1.7c.47 3.6.62 6.5.6 8.58" style="fill:#808285"/></svg>