<svg xmlns="http://www.w3.org/2000/svg" viewBox="1874.3 981.4 665.7 887.1"><path d="M1929.85 1739.07c-2.9 16.67 4.36 34.68 18.13 44.49-.06 27.55 23.04 50.63 51 47.54 26.17-12.08 404.87-4.82 432.92-13.16 22.03-6.54 38.61-20.45 39.06-47.22-3.77-44.2-2.5-33.5 19.68-68.9 23.02-127.66 29.9-274.4-96-283.69 3.67-138.22-22.5-380.45-175.6-403-145.44 26.7-214.47 291.59-209.42 427-95.87 23.9-91.23 17.98-101.98 159.11.84 40.69-2.2 105.75 22.2 137.83" style="fill:#f5ecdf"/><path d="M1972.57 1750.48c.74.5 1.24.83 4.05.83 1.88 0 4.8-.15 9.5-.5l3.5 34.99a4.8 4.8 0 0 0 9.56-.96l-3.48-34.82 11.9-1.05a4.8 4.8 0 0 0-.86-9.58c-4.53.41-9.24.82-13.6 1.18a4.8 4.8 0 0 0-6.23.5c-5.45.42-9.61.7-10.88.67a4.8 4.8 0 0 0-3.46 8.74m120.1-2.05c.74.5 1.24.84 4.05.84 1.88 0 4.8-.16 9.5-.51l3.5 35a4.8 4.8 0 0 0 9.56-.96l-3.48-34.82c3.4-.3 7.34-.64 11.91-1.06a4.81 4.81 0 0 0-.86-9.57c-4.55.4-9.26.81-13.62 1.17a4.76 4.76 0 0 0-6.2.5c-5.33.4-9.42.67-10.81.67h-.09a4.8 4.8 0 0 0-3.46 8.74m-49.38 37.37.84-.02c7.32-.23 12.92-3.67 15.77-9.68 4.61-9.75.8-22.95-5.36-30.95-5.42-7.06-12.66-10.34-19.87-9.02-10.42 1.92-15.33 15.33-14.05 27.18 1.47 13.75 10.33 22.49 22.67 22.49m-6.88-40.21c4.83-.9 8.66 3.01 10.5 5.42 4.86 6.3 6.79 15.72 4.3 20.98-1.28 2.7-3.7 4.07-7.39 4.18-10.92.31-13.18-9.6-13.64-13.88-.85-7.84 2.18-15.96 6.23-16.7m107.99 42.49h.3a4.8 4.8 0 0 0 4.5-5.11l-1.01-15.63 15.66-.95.66 15.75a4.8 4.8 0 1 0 9.6-.4l-1.91-46a4.8 4.8 0 0 0-9.6.4l.85 20.64-15.88.97-1.25-19.25a4.81 4.81 0 0 0-9.6.62l2.88 44.47a4.8 4.8 0 0 0 4.8 4.5m48.3-3.89c2.15.87 4.44 1.2 6.65 1.2 6.1 0 11.62-2.48 12.43-2.86a4.8 4.8 0 0 0-4.08-8.7c-2.27 1.06-8.03 2.81-11.4 1.45-1.27-.51-2.09-1.42-2.67-2.93a31 31 0 0 1-1.51-6.27l10.42-1.14a4.81 4.81 0 0 0-1.05-9.56l-10.12 1.11c-.12-4.85.06-9.67.31-13.32l13.6-.52a4.8 4.8 0 1 0-.36-9.6l-17.85.68a4.8 4.8 0 0 0-4.6 4.29c-.1 1.02-2.64 25.15 2.18 37.76 1.53 4 4.31 6.9 8.04 8.41m55.93 1.27a4.8 4.8 0 0 0 4.02-5.48c-2.3-14.94-3.6-32.68-2.38-39.1 3.54 3.07 9.84 12.25 14.83 21.86a4.8 4.8 0 0 0 9.03-1.6c1.51-11.56 5.57-21.66 8.26-23.2 2.85 4.26 4.76 24.03 4.15 43.9a4.8 4.8 0 0 0 4.65 4.95h.15a4.8 4.8 0 0 0 4.8-4.65c.32-10.03.7-43.39-7.36-51.5a8 8 0 0 0-6-2.52c-8.26.21-12.96 9.92-15.54 18.9-8-12.76-14.9-18.25-20.6-16.35-2.94.98-10.75 3.58-3.5 50.77a4.8 4.8 0 0 0 5.49 4.02m72.84-3.77h.22c12.5-.18 19.4-14.31 19.76-28.18.4-15.37-6.73-26.19-17.73-26.91-5.86-.38-11.12 2.54-14.72 8.25-6.34 10.05-6.84 27.87-1.09 38.14 3.15 5.62 7.96 8.7 13.56 8.7m-4.34-41.72c2.17-3.43 4.37-3.8 5.5-3.8l.46.02c6.3.41 8.96 9.14 8.75 17.07-.24 9.18-4.15 18.72-10.29 18.81-.77 0-3.1.04-5.25-3.79-4.04-7.2-3.63-21.23.83-28.3m48.04 41.71h.21c12.5-.18 19.41-14.31 19.77-28.18.4-15.37-6.73-26.19-17.73-26.91-5.88-.38-11.12 2.54-14.72 8.25-6.34 10.05-6.85 27.87-1.09 38.14 3.15 5.62 7.96 8.7 13.56 8.7m-4.34-41.72c2.17-3.43 4.37-3.8 5.5-3.8l.46.02c6.3.41 8.95 9.14 8.75 17.07-.24 9.18-4.15 18.72-10.3 18.81-.76 0-3.1.04-5.24-3.79-4.05-7.2-3.63-21.23.83-28.3m34.44 41.58q.45 0 .89-.08a4.8 4.8 0 0 0 3.84-5.6c-3.02-16.3-4.4-32.48-3.47-38.84 5.4 5.21 16.14 22.29 24.2 37.55a4.8 4.8 0 0 0 9.06-2.42l-1.54-43.12a4.8 4.8 0 0 0-9.6.34l.82 23.26c-17.56-29.31-23.9-27.15-26.51-26.25-3.07 1.05-11.22 3.83-2.41 51.23a4.8 4.8 0 0 0 4.72 3.93" style="fill:#e45825"/><path d="M2196.48 1374.68c-20.82 0-38.47-8.94-51.04-25.85-17.5-23.54-20.42-58.05-7.1-83.9 12.5-24.3 36.72-37.66 68.19-37.66l2.22.02c29.53.58 63.6 27.95 67.14 71.15 3.74 45.61-31.24 68.6-65.22 74.9a79 79 0 0 1-14.2 1.34m-32.64-57.23a2.03 2.03 0 0 0-1.93 2.15l.2 3.45a2.03 2.03 0 1 0 4.06-.23l-.2-3.45a2 2 0 0 0-2-1.92zm10.46-54.81c-.51 0-1 .18-1.37.53-.54.49-13.24 12.22-15.41 31.95a2.04 2.04 0 0 0 1.8 2.24h.02c1.25 0 2.11-.77 2.22-1.8 1.97-17.88 13.6-28.9 14.1-29.37.84-.77.9-2.06.14-2.89a2 2 0 0 0-1.5-.66" style="fill:#82ccd7"/><path d="M1969.17 1709.9c-.71 0-1.4-.27-1.93-.78-1.64-1.6-4.1-6-6.44-17.9q-.58-2.97-1.09-6.26a2.77 2.77 0 0 1 4.22-2.78l14.2 9c1.08.67 1.55 2 1.16 3.2-3.07 9.4-6.11 14.43-9.32 15.4q-.4.12-.8.12m12.69-31.8q-.79 0-1.48-.43l-21.58-13.6a2.8 2.8 0 0 1-1.28-2.13q-.34-4.34-.61-8.88a2.77 2.77 0 0 1 4.36-2.43l22.94 16.17.24.12a2.8 2.8 0 0 1 1.4 3q-.63 3.07-1.28 6a2.8 2.8 0 0 1-2.7 2.17" style="fill:#aedfd7"/><path d="M2234.75 1553.55c-1.5 0-2.74-1.2-2.77-2.7-.57-25.91-5.04-43.06-13.67-52.43-5.19-5.63-11.92-8.5-20-8.5l-.68.02c-18.64.38-29.5 20.36-33.2 61.09a2.77 2.77 0 0 1-2.76 2.52h-.02c-44.47-.36-92.87-14.7-102.12-17.57a2.8 2.8 0 0 1-1.95-2.56c-2.76-98.1 2.54-167.68 19.57-256.74 6.45-33.76 20.72-70.82 41.27-107.18a2.77 2.77 0 0 1 3.6-1.14c9.34 4.42 43.4 18.86 89.18 18.86 33.16 0 65.66-7.48 96.6-22.23a2.77 2.77 0 0 1 3.76 1.44c19.74 48 31.21 104.92 33.19 164.62 2.88 87.4 2.08 160.34.9 206.14a2.8 2.8 0 0 1-2.1 2.62c-48.4 12.21-95.5 13.6-108.77 13.75zm37.77-97.9c-10.3 0-18.98 5.7-18.98 12.46 0 6.75 8.69 12.46 18.98 12.46s18.98-5.7 18.98-12.46-8.7-12.47-18.98-12.47m-144.12-7.29c-10.3 0-18.98 5.7-18.98 12.47s8.69 12.46 18.98 12.46c10.28 0 18.98-5.7 18.98-12.47s-8.7-12.46-18.98-12.46m53.08-7.88c-1.03 0-1.91.92-1.94 2-.01.61-.25 15.11 7.2 22.15a13.7 13.7 0 0 0 9.7 3.74q.7 0 1.4-.05c18.09-1.46 21.46-23.98 21.6-24.94a2.04 2.04 0 0 0-4.04-.56c-.13.84-3.23 20.26-17.88 21.44q-.58.04-1.1.04c-2.75 0-5-.85-6.87-2.62-6.12-5.76-5.94-18.98-5.94-19.11a2.04 2.04 0 0 0-1.99-2.08l-.14-2.78zm64.43-34.61a16.08 16.08 0 1 0 .01 32.13 16.08 16.08 0 0 0-.01-32.13m-92.25-5.04a16.09 16.09 0 0 0 0 32.15 16.08 16.08 0 0 0 0-32.15m53.74-176.42c-33.04 0-58.4 13.9-71.38 39.12-14 27.17-10.92 63.43 7.48 88.18 12.95 17.43 31.14 26.64 52.58 26.64 4.81 0 9.82-.48 14.87-1.41 24.66-4.57 43.19-14.64 55.08-29.94 10.32-13.27 14.99-29.85 13.5-47.95-3.71-45.32-39.06-74.01-69.67-74.61z" style="fill:#fade2b"/><path d="M1984.62 1664.85c-.56 0-1.12-.17-1.6-.5l-25.4-17.92a2.8 2.8 0 0 1-1.18-2.14q-.27-6.19-.43-12.59a2.77 2.77 0 0 1 4.4-2.3l27.84 20.37a2.8 2.8 0 0 1 1.08 2.77s-1.4 7.16-2 10.08a2.8 2.8 0 0 1-2.7 2.23m3.45-17.5q-.89 0-1.63-.54l-29.47-21.58a2.8 2.8 0 0 1-1.14-2.2c-.63-47.23 3.22-103.79 11.6-115.57 12.07-16.97 56.84-18.8 75.53-18.8 2.6 0 5.03.03 7.18.1a2.77 2.77 0 0 1 2.68 2.76c.07 23.05.69 47.72 1.9 75.43a2.77 2.77 0 0 1-2.53 2.88c-7.6.66-26.97 3.93-42.88 19.85-8.6 8.6-13.87 32.1-18.52 55.44a2.8 2.8 0 0 1-2.72 2.23" style="fill:#aedfd7"/><path d="M2251.4 1654.88c-8.68 0-17.44-.2-26.03-.6a2.77 2.77 0 0 1-2.6-3.24 672 672 0 0 0 6.45-46.55c1.72-16.8 2.64-31.23 2.8-44.13a2.77 2.77 0 0 1 2.74-2.74c13.02-.13 59.26-1.48 107.19-13.2a2.7 2.7 0 0 1 2.4.53 2.8 2.8 0 0 1 1.03 2.24c-1.28 43.95-3.2 75.67-4.46 89.49-1.54 16.89-68.9 18.2-89.52 18.2m-40.4-471.74c-43.08 0-74.85-12.66-86.5-18.1a2.77 2.77 0 0 1-1.22-3.93c33.36-56.13 74.18-97.31 97.07-97.93l.7-.01c26.84 0 61.68 37.9 86.7 94.33.6 1.37.01 2.98-1.34 3.62-30.52 14.61-62.62 22.02-95.4 22.02m-46.1-44.12c-.54 0-1.05.21-1.43.6l-1.92 1.92a2 2 0 0 0 0 2.87 2.03 2.03 0 0 0 2.88 0l1.92-1.91a2 2 0 0 0 0-2.88c-.39-.39-.9-.6-1.44-.6m33.93-40.43c-.59 0-1.15.25-1.54.7l-17.25 19.73a2.04 2.04 0 0 0 3.07 2.68l17.25-19.74a2.04 2.04 0 0 0-1.53-3.37" style="fill:#f34d63"/><path d="M1979 1689.84q-.78 0-1.47-.43l-17.33-10.97a2.8 2.8 0 0 1-1.27-2.01q-.34-2.85-.64-5.83a2.77 2.77 0 0 1 4.23-2.62l19.17 12.08c1 .63 1.5 1.84 1.2 3q-.6 2.43-1.2 4.73a2.8 2.8 0 0 1-2.68 2.05" style="fill:#aedfd7"/><path d="M2165.58 1655.88c-10.75-.92-47.66-4.15-70.93-7.24-23.85-3.17-32.6-17.49-34.65-56.74-.9-17.2-1.6-33-2.1-48.31a2.77 2.77 0 0 1 3.57-2.75c16.22 4.9 58.4 16.3 99.52 16.77a2.77 2.77 0 0 1 2.74 2.94c-.5 8.37-.72 17.54-.67 27.26.1 20.19 2.06 43.23 5.5 64.88a2.77 2.77 0 0 1-2.98 3.2m-82.12-78.74c-1.05 0-1.92.78-2.03 1.82-.07.7-1.71 17.44 3.32 36a2.04 2.04 0 0 0 3.93-1.06 108 108 0 0 1-3.2-34.52 2.04 2.04 0 0 0-1.82-2.23z" style="fill:#f34d63"/><path d="M2446.9 1672.8q-.6 0-1.16-.26l-15.9-7.37a2.8 2.8 0 0 1-1.52-1.81c-.88-3.38-1.72-6.91-2.52-10.44a2.77 2.77 0 0 1 4.06-3.03l19.53 10.9a2.8 2.8 0 0 1 1.39 2.83q-.57 3.85-1.15 6.92a2.8 2.8 0 0 1-2.72 2.26m-5.11 15.91q-.23 0-.47-.04c-3.91-.68-7.05-5.6-10.49-16.46a2.77 2.77 0 0 1 3.81-3.35l11.9 5.5a2.8 2.8 0 0 1 1.51 3.23c-1.62 6.17-3.13 8.9-4.11 10.1a2.8 2.8 0 0 1-2.15 1.02m-245.77 30.35c-.53 0-1.07-.16-1.53-.47-4.15-2.75-11-16.37-16.9-40.62-6.59-27-10.3-59.04-10.47-90.19-.32-61.8 9.97-93.35 30.59-93.78h.68c6.93 0 12.46 2.35 16.92 7.18 16.46 17.87 13.5 67.28 9.85 102.89-5.06 49.18-17.66 108.33-27.67 114.57q-.69.42-1.47.42m252.95-60.41q-.7 0-1.35-.35l-22.43-12.53a2.8 2.8 0 0 1-1.36-1.84l-2.06-9.83a2.77 2.77 0 0 1 4.1-2.96l25.29 14.65a2.8 2.8 0 0 1 1.37 2.63l-.07.77c-.23 2.52-.48 4.82-.73 7a2.77 2.77 0 0 1-2.76 2.46m1.41-15.28q-.73 0-1.39-.37l-27.8-16.11a2.8 2.8 0 0 1-1.32-1.82c-3.22-15-6.93-30.53-12.21-42.44-12.82-28.96-42.48-32.09-54.63-32.09h-.84a2.77 2.77 0 0 1-2.77-2.84c.77-26.22 1.22-53.53 1.34-81.18a2.77 2.77 0 0 1 2.74-2.76l2.53-.01c18.43 0 63.27 2.13 81.49 21.93 14.02 15.24 19.91 95.9 15.62 155.12a2.77 2.77 0 0 1-2.76 2.57" style="fill:#aedfd7"/><path d="M2148.49 1404.5a6.08 6.08 0 1 0 0 12.16 6.08 6.08 0 0 0 0-12.16m92.24 5.04a6.08 6.08 0 1 0 0 12.16 6.08 6.08 0 0 0 0-12.16" style="fill:#fff"/><ellipse cx="2128.4" cy="1460.83" rx="21.75" ry="15.24" style="fill:#f34d63"/><ellipse cx="2272.52" cy="1468.11" rx="21.75" ry="15.24" style="fill:#f34d63"/><path d="M2088.24 1579.65a4.81 4.81 0 0 0-9.57-.97c-.07.73-1.76 17.97 3.4 37a4.8 4.8 0 1 0 9.28-2.5 105 105 0 0 1-3.11-33.53m106.96-482.19-17.24 19.74a4.8 4.8 0 0 0 7.24 6.32l17.25-19.74a4.8 4.8 0 0 0-7.24-6.32m-33.71 40.2-1.91 1.92a4.8 4.8 0 1 0 6.8 6.8l1.91-1.92a4.8 4.8 0 1 0-6.8-6.8m-2.49 162.46.53.02a4.8 4.8 0 0 0 4.78-4.28c1.86-16.98 13.08-27.51 13.22-27.64a4.8 4.8 0 0 0-6.48-7.1c-.57.52-14.02 12.96-16.3 33.7a4.8 4.8 0 0 0 4.25 5.3m4.67 14.57a4.8 4.8 0 0 0-4.53 5.06l.19 3.45a4.8 4.8 0 1 0 9.6-.53l-.2-3.45a4.8 4.8 0 0 0-5.06-4.53" style="fill:#fff"/><path d="M2442.22 1480.69c-21.47-23.34-73.68-24.4-89.03-24.17.07-37.96-.47-80.38-1.98-126.1-5.48-166.08-81.89-274.64-130.64-274.64h-.87c-24.35.67-58.91 37.08-83.13 70.93-33.27 46.5-57.59 100.55-66.7 148.26-13.75 71.87-20.07 132.27-20.37 206.56-16.48-.48-72.56-.44-88.24 21.61-15.85 22.29-17.92 171.75-2.85 205.04.9 1.99 3.65 8.05 9.38 8.64q.6.06 1.16.06c14.15 0 19.56-27.5 26.34-62.08 4.84-24.62 10.32-52.52 18.34-60.55 14.04-14.03 31.46-17.12 38.2-17.8q.34 7.64.76 15.52c1.94 36.88 9.2 59.05 40.63 63.23 26.7 3.54 71.57 7.3 73.76 7.49 5.31 28.87 13.15 52.96 22.14 60.54 2.43 2.05 4.68 2.6 6.42 2.6q.72 0 1.31-.1c5.31-.89 12.54-6.44 21.4-41.8a437 437 0 0 0 5.06-23.09c29.83 1.46 121.56 3.65 124.05-23.82 1.11-12.2 2.87-40.12 4.17-79.94 9.66-.32 37.58 1.22 49.45 28.04 6.17 13.92 10.28 33.71 14.25 52.86 6.65 32.01 11.92 57.4 26.55 57.4l.72-.02c5.99-.33 8.73-7.07 9.62-9.28 13.32-32.77 12.8-180.72-9.9-205.4m6.36 174.87-22.37-12.49-1.48-7.06-.56-2.68 25.2 14.6c-.25 2.76-.52 5.26-.8 7.63m-20.4-3.45 19.44 10.86q-.55 3.75-1.12 6.75l-15.84-7.34c-.86-3.32-1.7-6.8-2.48-10.27m-208.22-586.62.64-.01c22.96 0 57.7 33.07 84.13 92.66-87.24 41.75-162.25 11.95-179.51 3.9 32.66-54.96 73.2-95.97 94.74-96.55m-140.57 211.3c6.93-36.23 22.36-73.44 40.95-106.34 10.7 5.06 44.57 19.12 90.39 19.12 28.82 0 62.38-5.6 97.82-22.5 17.6 42.83 30.8 98.06 32.97 163.68 2.69 81.44 2.28 152.4.9 206.03-47.9 12.08-94.36 13.53-108.1 13.66-.58-26.96-5.3-44.36-14.4-54.25-5.92-6.43-13.6-9.58-22.82-9.4-20.25.42-32.1 21.33-35.95 63.64-43.73-.4-90.66-14.14-101.29-17.44-2.79-99.05 2.89-169.16 19.53-256.2m-118.23 399.05q-.33-2.78-.63-5.7l19.07 12.01q-.58 2.39-1.18 4.62zm-2-23.12 23.04 16.22c.1.08.22.1.33.17q-.62 3.01-1.26 5.9l-21.5-13.55q-.33-4.27-.6-8.75m26.62.21-1.75 8.83-25.33-17.85q-.26-6.13-.42-12.46l27.73 20.3zm-16.76 54.19c-.74-.73-3.19-4.01-5.64-16.63q-.52-2.7-.98-5.66l13.99 8.85c-3.7 11.31-6.55 13.15-7.37 13.44m37.76-119.72c-9.09 9.08-14.27 31.7-19.29 56.85l-29.37-21.51c-.65-49.54 3.54-103.42 11.05-113.97 11.48-16.16 58.97-18.17 80.32-17.53.07 23.46.7 48.37 1.89 75.49-7.83.7-28.02 4.08-44.6 20.67m87.72 58.18c-22.4-2.98-30.23-16.12-32.22-54.11-.9-16.89-1.6-32.9-2.1-48.23 15.17 4.57 58.41 16.4 100.25 16.88q-.75 12.6-.67 27.4c.1 20.66 2.12 43.87 5.52 65.3-10.1-.87-47.49-4.14-70.78-7.24m101.04 70.43c-7.87-4.62-25.7-57.32-26.08-128.53-.22-41.25 4.44-90.51 27.84-91 6.4-.14 11.47 1.93 15.48 6.28 15.7 17.04 12.73 65.66 9.12 100.74-6.52 63.5-19.9 108.47-26.36 112.5m29.55-64.8c2.6-14.9 4.84-30.9 6.46-46.72 1.73-16.84 2.66-31.52 2.81-44.36 13.89-.14 59.83-1.55 107.79-13.28-1.3 44.85-3.26 76.18-4.45 89.3-1.1 12.18-58.67 17.55-112.61 15.06m184.76-70.02c-13.8-31.16-45.88-33.89-58.02-33.76.69-23.57 1.2-50.83 1.34-81.2 13.96-.17 63.25.74 81.91 21.02 13.31 14.47 19.07 95.08 14.9 153.02l-27.74-16.07c-3.38-15.73-7.12-31.12-12.39-43m31.56 104.46c-2.9-.53-5.7-6.4-8.25-14.47l11.8 5.46c-1.6 6.08-3 8.32-3.55 9" style="fill:#360623"/><circle cx="2153.17" cy="1416.55" r="18.85" style="fill:#360623" transform="rotate(-10.9 2153.36 1416.65)"/><circle cx="2245.45" cy="1421.58" r="18.85" style="fill:#360623"/><path d="M2217.62 1437.95a4.85 4.85 0 0 0-5.47 4.13c-.03.18-2.68 18.01-15.34 19.03-2.45.2-4.29-.38-5.82-1.82-4.32-4.07-5.1-13.65-5.04-17a4.85 4.85 0 1 0-9.7-.23c-.04 1.67-.14 16.52 8.07 24.27a16.6 16.6 0 0 0 11.64 4.52q.8 0 1.63-.07c20.32-1.63 24.02-26.3 24.16-27.36a4.85 4.85 0 0 0-4.13-5.47m-129.86 141.41a4.85 4.85 0 0 0-9.65-.98 113 113 0 0 0 3.4 37.04 4.85 4.85 0 1 0 9.36-2.54 105 105 0 0 1-3.11-33.52m93.34-454.63c1.35 0 2.69-.56 3.65-1.66l17.25-19.75a4.85 4.85 0 0 0-7.3-6.38l-17.25 19.75a4.85 4.85 0 0 0 3.64 8.04m-22.02 21.2a4.84 4.84 0 0 0 6.86 0l1.92-1.91a4.85 4.85 0 1 0-6.86-6.86l-1.92 1.92a4.85 4.85 0 0 0 0 6.85m36.53 234.86q7.49 0 15.4-1.46c25.36-4.7 44.47-15.13 56.8-30.99 10.77-13.84 15.64-31.1 14.1-49.92-3.85-46.9-40.61-76.61-72.46-77.23-35.39-.7-62.57 13.73-76.42 40.63-14.48 28.1-11.3 65.6 7.72 91.18 13.54 18.21 32.66 27.79 54.86 27.79m-53.96-114.53c11.78-22.88 34.96-35.4 65.4-35.4l2.21.02c34.37.68 60.31 35.88 62.98 68.33 2.98 36.33-20.57 62.72-63 70.58-24.89 4.62-46.45-3.4-60.7-22.58-16.9-22.73-19.73-56.02-6.9-80.95" style="fill:#360623"/><path d="M2154.08 1410.22a6.08 6.08 0 1 1-12.17 0 6.08 6.08 0 0 1 12.17 0m92.28 5.04a6.08 6.08 0 1 1-12.17 0 6.08 6.08 0 0 1 12.17 0" style="fill:#fff"/></svg>