<svg xmlns="http://www.w3.org/2000/svg" viewBox="2767 1478.4 756 853.2"><path d="M3359.64 2148.7c77.01-42.67 141.45-160.54 134.65-248.32s-68.32-168.97-151-199.25c18.34-39.51 39.77-81.26 28.87-121.8-11.9-44.3-62.4-71.3-107.84-64.98s-83.76 40.1-105.02 80.74c12.39-36.83-11.72-67.84-42.18-78.1-30.45-10.25-64.83-2.53-92.3 14.15-26-20.4-74.57-20.62-103.8 5.09-29.23 25.7-35.2 73.9-9.03 109.08-18.84 77.53-26.6 157.75-27.35 244.87-31.79.33-70.12 4.56-83.9 33.2-6 12.44-5.65 26.89-4.42 40.63 10.18 112.84 75.93 219.34 172.25 279 96.33 59.66 220.96 71.08 326.53 29.92 25.17-9.82 50.07-23.1 66.42-44.6 16.35-21.51 22.11-52.85-1.88-79.64" style="fill:#f5ecdf"/><path d="M3316.16 1580.5c17.93 22.4-13.45 76.2-35.86 80.69-32.01 6.4-67.25-62.76-49.32-71.73s40.35 22.41 40.35 22.41 26.9-53.8 44.83-31.38" style="fill:#fa8690"/><path d="M3083.04 1567.05c45.42 0 41.38 60.87 1.93 70.42q-5.05 1.29-10.9 1.3c-4.03 0-7.61-.49-10.89-1.39-36.67-9.81-25.41-70.34 19.86-70.34" style="fill:#f3f3f3"/><path d="M3392.15 2033.64c-70.74 84.63-216.35 84.41-277.72 8.6-31.56-39-40.44-82.22-32.33-122.97 11.39-57.65 56.71-110.37 119.74-139.28 107.6-49.32 257.78 20.17 226.4 177.08-6.15 30.57-18.88 56.08-36.1 76.57" style="fill:#9ecdbe"/><path d="M3248.34 2058h-1.23c-40.86-.32-76.72-15.85-98.38-42.6-22.7-28.07-31.2-60.49-24.58-93.75 8.68-43.97 42.44-83.33 90.3-105.29 43.7-20.03 97.45-14.2 133.76 14.52 34.73 27.47 48.35 70.14 38.35 120.14-4.47 22.23-13.69 41.78-27.4 58.1-25.63 30.66-66.98 48.88-110.82 48.88m21.14-245.29c-17.6 0-35.35 3.65-51.6 11.1-44.8 20.55-77.64 58.65-85.7 99.43-6.13 30.8 1.8 60.89 22.92 87 19.82 24.48 54.23 39.26 92.07 39.56 41.86.23 81.39-16.85 105.7-45.94 12.83-15.26 21.46-33.58 25.65-54.45 9.37-46.82-3.2-86.64-35.4-112.1-20.47-16.2-46.9-24.6-73.64-24.6" style="fill:#e2f4f4"/><path d="M3251.26 2010.39h-.77c-25.47-.2-47.85-9.92-61.4-26.66-14.21-17.55-19.53-37.84-15.37-58.67 5.4-27.4 26.4-51.9 56.15-65.55 27.26-12.5 60.81-8.85 83.48 9.08 21.74 17.2 30.28 43.86 24.04 75.07-2.79 13.87-8.55 26.07-17.11 36.26-15.98 19.11-41.74 30.47-69.02 30.47m12.94-150.08a74 74 0 0 0-30.92 6.65c-26.95 12.36-46.7 35.24-51.53 59.7-3.66 18.37 1.08 36.32 13.7 51.92 11.83 14.6 32.43 23.43 55.1 23.61h.72c24.88 0 48.29-10.26 62.73-27.53v-.01c7.68-9.13 12.84-20.1 15.35-32.6 5.6-28.03-1.88-51.84-21.08-67.03-12.25-9.69-28.06-14.71-44.07-14.71" style="fill:#e2f4f4"/><path d="M2998.99 1628.64c-6.9 6.1-16.32 10.13-28.02 10.13-49.31 0-40.35-71.73 8.97-71.73 37.6 0 41.33 41.79 19.05 61.6" style="fill:#f3f3f3"/><path d="m3062.87 1638.77.31-1.39c3.28.9 6.86 1.4 10.9 1.4q5.85-.02 10.9-1.3l.3 1.3s-28.42 227.41-3.18 280.5c-8.11 40.74.76 83.96 32.33 122.96 61.37 75.8 206.97 76.03 277.72-8.6-89.8 169.94-327.08 147.48-403.25 44.47-76.2-103.11-17.93-439.34-17.93-439.34 11.7 0 21.11-4.03 28.02-10.13-.23 2.87-4.98 63.93 21.3 63.93 26.89 0 42.58-53.8 42.58-53.8" style="fill:#f9ceaf"/><path d="M3012.44 1598.43c3.86-20.09-34.75-33.63-39.23 2.24-4.48 35.86 33.62 26.91 39.22-2.24m103.38 4.63c-3.63 25.22-39.5 30.68-35-7.57s38.63-17.64 35 7.57m-100.85 137.34c-6.44 0-12.2-4.7-14.86-10.04-3.03-6.11-2.96-13.09-2.9-18.69a4.1 4.1 0 0 1 8.2.09c-.05 4.97-.12 10.6 2.04 14.96 1.68 3.38 5.72 6.29 9.06 5.25 1.61-.51 3.2-1.87 5.16-4.4a46 46 0 0 0 8.22-16.93 4.09 4.09 0 1 1 7.95 2 55 55 0 0 1-9.69 19.95c-2.04 2.65-4.94 5.86-9.19 7.2q-2.02.62-4 .61" style="fill:#360623"/><path d="m2977.84 1858.07-.29-.01a4.1 4.1 0 0 1-3.8-4.37l1.22-17.93a4.1 4.1 0 0 1 8.17.56l-1.22 17.93a4.1 4.1 0 0 1-4.08 3.82m1.43 52.51a4.1 4.1 0 0 1-3.89-2.8 72 72 0 0 1-3.63-20.02 4.1 4.1 0 0 1 8.19-.31 64 64 0 0 0 3.21 17.74 4.1 4.1 0 0 1-3.88 5.4m20.83-26.76a4.1 4.1 0 0 1-4.09-4.1v-16.8a4.1 4.1 0 1 1 8.2 0v16.8a4.1 4.1 0 0 1-4.1 4.1m64.07 223.65q-.71 0-1.42-.25a44.4 44.4 0 0 1-25.16-24.1 4.1 4.1 0 1 1 7.56-3.16 36 36 0 0 0 20.43 19.57 4.1 4.1 0 0 1-1.41 7.94m36.01 14.18c-5.5 0-10.97-1.38-15.8-4.04a4.1 4.1 0 0 1 3.96-7.18 24.7 24.7 0 0 0 15.38 2.77 4.1 4.1 0 1 1 1.2 8.1q-2.36.35-4.74.35m-5.92-37.28q-.67 0-1.34-.23l-25.78-8.95a4.1 4.1 0 0 1 2.68-7.74l25.79 8.95a4.1 4.1 0 0 1-1.35 7.97" style="fill:#fff"/><path d="M3254.29 1961.08h-.29c-9.54-.08-17.97-3.77-23.13-10.14-5.39-6.66-7.4-14.39-5.82-22.34 2.02-10.24 9.79-19.36 20.78-24.4 10.24-4.7 22.87-3.31 31.42 3.45 8.17 6.46 11.53 16.8 9.2 28.38a30 30 0 0 1-6.44 13.64c-5.98 7.15-15.58 11.4-25.73 11.4m4.45-51.48c-3.23 0-6.5.67-9.5 2.05-8.46 3.88-14.65 10.99-16.15 18.54-1.1 5.5.34 10.89 4.15 15.6 3.56 4.38 9.85 7.04 16.83 7.09h.22c7.74 0 15-3.16 19.44-8.48a22 22 0 0 0 4.7-9.98c1.7-8.57-.52-15.8-6.27-20.35a21.7 21.7 0 0 0-13.42-4.47" style="fill:#e2f4f4"/><path d="M3175.5 2162.52c-78.24 0-152.65-31.59-189.9-81.98-76.37-103.33-21.06-428.67-18.67-442.47a4.1 4.1 0 1 1 8.08 1.4c-.58 3.35-57.11 335.68 17.19 436.2 39.1 52.9 121.33 84.21 204.6 77.84 49.67-3.78 140.65-24.68 191.94-122.14a4.1 4.1 0 1 1 7.25 3.82c-38.8 73.73-111.18 119.84-198.57 126.5q-10.99.83-21.92.83" style="fill:#360623"/><path d="M2970.97 1642.87c-25.5 0-36.9-17.64-36.9-35.12a45.6 45.6 0 0 1 11.87-30.39c6.01-6.57 16.79-14.41 34-14.41 25.49 0 36.9 17.64 36.9 35.12 0 22.02-17.16 44.8-45.87 44.8m8.96-71.73c-14.22 0-23.04 6.39-27.94 11.75a37.3 37.3 0 0 0-9.73 24.86c0 13.01 7.54 26.93 28.7 26.93 14.23 0 23.05-6.4 27.95-11.75a37.3 37.3 0 0 0 9.73-24.86c0-13.02-7.54-26.93-28.7-26.93m94.14 71.73c-25.5 0-36.9-17.64-36.9-35.12a45.6 45.6 0 0 1 11.87-30.39c6.01-6.57 16.78-14.41 34-14.41 25.49 0 36.9 17.64 36.9 35.12 0 22.02-17.16 44.8-45.87 44.8m8.96-71.73c-14.22 0-23.04 6.39-27.94 11.75a37.3 37.3 0 0 0-9.73 24.86c0 13.01 7.54 26.93 28.7 26.93 14.23 0 23.05-6.4 27.95-11.75a37.3 37.3 0 0 0 9.73-24.86c0-13.02-7.54-26.93-28.7-26.93" style="fill:#360623"/><path d="M3020.28 1696.67c-5.56 0-10.36-2.16-14.26-6.42-14.93-16.3-11.27-60.2-11.1-62.07a4.1 4.1 0 1 1 8.16.72c-1.02 11.68-1.39 44.5 8.99 55.82 2.32 2.52 5 3.75 8.21 3.75 19.52 0 34.52-36.7 38.66-50.84a4.1 4.1 0 0 1 7.87 2.3c-.68 2.3-16.9 56.74-46.53 56.74m61.82 226.7a4.1 4.1 0 0 1-3.6-2.13c-27.22-49.91 1.49-273.5 2.72-283a4.09 4.09 0 1 1 8.13 1.06c-.3 2.3-29.6 230.42-3.65 278.01a4.1 4.1 0 0 1-3.6 6.06" style="fill:#360623"/><path d="M3245.29 2102.33c-53.98 0-104.26-20.72-134.05-57.51-31.92-39.43-43-84.96-32.06-131.67 13.4-57.14 58.62-108.31 120.95-136.89 58.98-27.02 131.5-19.16 180.47 19.58 46.8 37.02 65.15 94.56 51.65 162.03-14.01 70.05-63.42 120.42-135.57 138.2a215 215 0 0 1-51.4 6.26m29.1-333.84c-24.17 0-48.52 5-70.84 15.22-60.06 27.53-103.56 76.62-116.39 131.31-10.34 44.16.18 87.25 30.45 124.64 37.17 45.92 108.34 65.38 177.1 48.45 68.94-16.99 116.14-65.05 129.5-131.85 12.86-64.3-4.43-118.99-48.7-154-28.11-22.23-64.4-33.77-101.13-33.77m1.71-102.79c-22.1 0-43.4-27.96-51.02-50.17-5.16-15.02-3.66-25.86 4.09-29.74 16.03-8 33.74 9.51 41.52 18.65 6.01-10.63 19.75-31.92 33.95-33.42 3.86-.43 9.58.46 14.74 6.91 7.57 9.46 8.26 24.23 1.94 41.58-7.28 19.97-24.3 42.52-40.2 45.7q-2.52.5-5.03.5m-38.22-73.73c-1.75 0-3.44.35-5.04 1.16-3.46 1.73-3.47 9.66 0 19.74 7.18 20.96 28.37 47.96 46.67 44.3 11.32-2.26 26.94-20.8 34.1-40.46 5.23-14.35 5-26.62-.63-33.66-3.09-3.86-5.75-4.06-7.47-3.88-10.16 1.07-24.1 21.75-30.5 34.54a4.1 4.1 0 0 1-7 .55c-4.92-6.88-18.67-22.3-30.13-22.3" style="fill:#360623"/><path d="M2869.69 1997.56a24 24 0 0 1-16.87-6.8c-5.93-5.79-8.4-14.29-6.62-22.72a4.1 4.1 0 0 1 8.02 1.7c-1.21 5.75.36 11.29 4.33 15.16 3.94 3.86 9.46 5.32 15.14 4 7.09-1.67 8.09-7.31 8.89-16.42.52-5.96 1.02-11.58 5.6-14.2 3.4-1.92 7.45-1.69 11.41.67 6.53 3.87 11.94 12.93 11.83 19.8a4.1 4.1 0 0 1-8.2-.14c.07-3.92-3.87-10.28-7.8-12.61-.94-.56-2.26-1.11-3.18-.59-.87.67-1.28 5.3-1.5 7.8-.72 8.17-1.8 20.54-15.18 23.66q-2.95.69-5.87.69m280.18 260.31c-4.7 0-9.42-1.37-13.62-4.06a4.1 4.1 0 0 1 4.43-6.9c4.96 3.17 10.69 3.66 15.72 1.33 5-2.32 8.32-6.97 9.1-12.75.95-7.21-3.98-10.14-12.2-14.12-5.39-2.6-10.47-5.06-11.3-10.28-.6-3.85 1.06-7.56 4.67-10.43 5.93-4.73 16.33-6.58 22.7-4.04a4.1 4.1 0 0 1-3.03 7.62c-3.63-1.45-10.98-.03-14.56 2.83-.85.68-1.84 1.7-1.67 2.76.31 1.05 4.5 3.07 6.75 4.16 7.4 3.57 18.57 8.97 16.76 22.58-1.13 8.5-6.28 15.63-13.77 19.1a24 24 0 0 1-9.98 2.2m-288.34-215.57a4.1 4.1 0 0 1-3.91-2.86l-6.62-20.91a4.1 4.1 0 0 1 2.73-5.16l57.24-17.1a4.1 4.1 0 1 1 2.35 7.85l-53.25 15.9 5.36 16.94a4.1 4.1 0 0 1-3.9 5.34m49.31 38.32q-.95 0-1.86-.45c-.3-.15-4.42-2.3-8.34-6.06-7.07 1.64-14.17 2.34-19.58 1.92-10.52-.82-14.05-5.33-15.15-8.96-.96-3.15-1.05-8.1 3.93-13.88 8.6-9.96 29.97-18.65 41.61-16.92a4.1 4.1 0 0 1 3.22 2.57c3.24-.1 6.37.75 8.86 2.26 6.06 3.64 7.95 10.59 4.72 17.28-2.63 5.41-9.76 9.84-18.13 12.92 1.04.7 1.96 1.25 2.6 1.58a4.1 4.1 0 0 1-1.88 7.74m-10.85-35.15c-8.63 2.24-18.95 7.3-23.94 13.08q-3.07 3.57-2.3 6.13c.5 1.62 3.54 2.84 7.95 3.18a53 53 0 0 0 13.53-.97 18 18 0 0 1-1.32-3.66c-1.16-4.94.04-10.02 3.48-14.7q1.25-1.7 2.6-3.06m15.02 1.53c-3.54 0-7.72 1.9-11.01 6.38-2.03 2.75-2.72 5.35-2.12 7.95a11 11 0 0 0 1.6 3.54c8.42-2.58 15.61-6.4 17.4-10.06 1.87-3.88-.19-5.86-1.57-6.7a8.3 8.3 0 0 0-4.3-1.11m13.59 102.52c-3.12 0-5.56-.88-7.06-2.9-5-6.75 1.34-19.88 7.4-29.54-12.86 3.37-29.03 5.48-32.5-3.86-2.32-6.26 4.14-17.84 48.1-37.46a4.1 4.1 0 0 1 3.34 7.48c-22.51 10.05-42.73 22.7-43.68 27.28 1.37 2.09 14.58 1.9 33.5-4.68a4.09 4.09 0 0 1 4.6 6.34c-9.15 12.05-15.92 26-14.32 29.32 4.39 1.26 24.36-8.27 43.3-20.6a4.1 4.1 0 1 1 4.48 6.86c-16.37 10.66-36.07 21.76-47.16 21.76m46.47 48.93a4.09 4.09 0 0 1-3.37-6.43l31.97-46.3a4.1 4.1 0 0 1 6.74 4.66l-31.96 46.3a4.1 4.1 0 0 1-3.38 1.77" style="fill:#e45825"/><path d="M2996.09 2209.66q-.71 0-1.43-.07c-11.1-1-20.6-13.14-21.64-14.52a4.1 4.1 0 0 1 6.52-4.95c2.26 2.95 9.5 10.74 15.87 11.31a7 7 0 0 0 5.69-2.06c1.86-1.7 2.67-3.48 2.55-5.6-.38-6.79-9.68-15-13.23-17.58a4.1 4.1 0 0 1 3.96-7.11c.14.06 14.99 5.79 19.37-1.37.62-1.03 1-3.08.04-5.5-1.28-3.23-4.45-5.68-8.93-6.9a4.1 4.1 0 1 1 2.15-7.9c9.48 2.57 13.1 8.48 14.4 11.77 1.77 4.44 1.51 9.22-.67 12.8-3.54 5.8-9.48 7.47-15.1 7.5 3.18 3.98 5.91 8.8 6.2 13.82.26 4.57-1.54 8.76-5.2 12.12a15.4 15.4 0 0 1-10.55 4.24m36.4 21.11q-2.65 0-5.08-1.28a12.3 12.3 0 0 1-6-7.68c-4.55-15.7 13.6-48.25 15.68-51.91a4.1 4.1 0 0 1 7.12 4.06c-7.2 12.66-17.63 36.24-14.93 45.57.52 1.77 1.38 2.4 1.98 2.72.55.3 1.3.54 2.58.04 8.67-3.31 20.57-28.19 26.04-43.09a4.1 4.1 0 1 1 7.7 2.83c-1.59 4.3-15.85 42.2-30.8 47.92q-2.18.82-4.3.82m172.33 25.17h-.32a12.3 12.3 0 0 1-8.79-4.22c-11.06-12.03-9.29-49.26-9.05-53.46a4.1 4.1 0 0 1 8.19.46c-.83 14.55.32 40.3 6.9 47.46 1.25 1.36 2.3 1.54 2.98 1.56.6 0 1.4-.1 2.33-1.11 6.29-6.83 5.88-34.4 4.15-50.18a4.1 4.1 0 0 1 8.14-.9c.5 4.56 4.6 44.85-6.26 56.63a11 11 0 0 1-8.27 3.76m-96.95-59.06q-.55 0-1.09-.15l-24.81-6.84a4.1 4.1 0 0 1 2.17-7.9l24.82 6.84a4.1 4.1 0 0 1-1.09 8.05" style="fill:#e45825"/><path d="M3079.9 2242.3q-.64 0-1.29-.2a4.1 4.1 0 0 1-2.6-5.19l15.45-46.43a4.1 4.1 0 1 1 7.78 2.58l-15.44 46.44a4.1 4.1 0 0 1-3.9 2.8m157.66 9.93a4.1 4.1 0 0 1-4.09-3.82l-3.9-57.83a4.1 4.1 0 0 1 3.25-4.3c.49-.09 12.04-2.42 20.05 3.07q5.77 4 7.03 11.53c.8 4.95-.24 9.49-3.02 13.13-2.38 3.12-5.74 5.19-8.92 6.54l20.97 14.26a4.1 4.1 0 0 1-4.62 6.78l-24.2-16.46 1.54 22.72a4.1 4.1 0 0 1-4.1 4.38m.45-58.3 1.4 20.73c3.07-.6 8.4-2.26 10.97-5.65 1.4-1.85 1.87-4.08 1.43-6.8-.45-2.76-1.63-4.75-3.58-6.1-3.01-2.06-7.24-2.3-10.22-2.18m50.1 41.75a4.1 4.1 0 0 1-3.99-3.16l-11.97-51.31a4.1 4.1 0 0 1 2.69-4.82l22.25-7.44a4.1 4.1 0 0 1 2.6 7.77l-18.71 6.26 10.1 43.3 18.88-6.25a4.1 4.1 0 0 1 2.58 7.78l-23.14 7.66q-.64.21-1.29.21" style="fill:#e45825"/><path d="M3282.55 2211.88a4.1 4.1 0 0 1-1.5-7.92l14.18-5.57a4.1 4.1 0 0 1 3 7.63l-14.18 5.57q-.75.3-1.5.29" style="fill:#e45825"/></svg>