<svg xmlns="http://www.w3.org/2000/svg" xml:space="preserve" viewBox="415.8 251 3168.3 3498"><circle cx="1938.63" cy="1987.24" r="1396.01" style="fill:#a5704c"/><circle cx="1938.63" cy="1987.24" r="1268.79" style="fill:#111"/><path d="M621.92 2227.1c-188.74-809.53 486.42-1618.34 1316.71-1578-377.75 18.49-738.74 185.3-988.37 470.33-266.17 303.92-378.91 709.7-328.33 1107.67" style="opacity:.4;fill:#a5704c"/><path d="M2524.54 1808.97c-128.15 128.94-275.47 116.6-362.29 36.22-86.08-79.66-107.94-231.49 28.2-368.55 135.4-136.93 347.53-285.46 534.24-383.82 186.59-99.19 345.94-150.03 372.94-116.18 27.45 34.37-57 176.29-175.05 343.1-118.84 166.6-269.77 359.52-398.04 489.22" style="fill:#2a632a"/><path d="M2383.98 1499.46c-28.07 87.28-75.64 144.67-131.1 176.86-55.16 32.17-118.36 38.9-175.08 22.98-56.7-15.91-106.88-54.66-136-113.44-28.87-58.6-36.41-137.4-6.55-230.24 58.91-186.02 182.63-417.44 307.09-590.77 123.9-174.13 245.61-291.1 284.66-272.54 39.8 18.85 25.5 184.58-6.47 387.72-32.9 203.3-81.17 444.66-136.55 619.43" style="fill:#2a632a"/><path d="M2109.71 1406.92c26.47 186.84-73.78 298.87-190.35 317.9-115.95 18.94-248.8-58.37-276.23-251.92-27.66-193.14-22.06-455.17 5.55-667.94 27.15-213.01 74.82-376.56 118.14-379.7 43.74-3.17 113.54 150.84 181.5 350.16 67.56 199.62 134.59 444.35 161.4 631.5" style="fill:#2a632a"/><path d="M1685.53 1543.82c76.18 56.27 114.37 123.34 124 186.91 9.55 63.84-9.15 124.14-45.93 170.15a229.7 229.7 0 0 1-153.9 84.85c-62.67 7.11-133.06-10.39-204.48-63.12-142.32-106.07-316.13-269.36-456.41-411.75-139.43-142.78-243.86-266.47-222.65-305.05 20.8-37.91 183.8-16.63 380.93 48.92 197.1 64.57 426.53 175.85 578.44 289.1" style="fill:#2a632a"/><path d="M1441.82 1739.09c89.17 2.12 154.5 35.96 194.94 82.99 40.59 47.45 56.67 107.79 51.58 166.47s-31.04 115.75-74.51 156.68c-43.66 41.32-104.57 66.8-184 64.93-79.51-2.08-172-11.1-267.37-22.32a7998 7998 0 0 1-283.36-38.87c-179.25-28.5-326.1-58.34-334.65-101.7-8.44-42.18 118.72-128.95 301.12-197.52 90.9-34.4 195.06-64.1 299.2-83.69 104.08-19.72 208.01-29.3 297.05-26.97" style="fill:#2a632a"/><path d="M1466.1 1955.1c345.09-187.8 570.35 226.1 225.27 413.9-345.08 187.81-987.77 368.74-1029.5 292.06s459.15-518.14 804.24-705.95" style="fill:#2a632a"/><path d="M1679.84 2431.44c24-112.83 73.53-191.45 130.4-236.53 57.36-45.22 121.35-57.23 178.21-41.88s106.74 57.71 135.88 121.25c29.52 63.9 39.01 149.03 16.25 256-23.02 106.9-56.72 231.37-96.41 358.9-39.7 127.44-85.83 257.68-134.05 373.16-48.23 115.52-98.11 215.95-142.4 285.15-44.1 69.3-81.2 107.61-102.08 101.96-21.26-5.75-33.73-57.22-40.96-137.1-7-79.9-10.07-188.6-9.52-310.47.56-121.93 4.41-257.5 14.27-391.44 9.8-133.85 26.13-266.2 50.41-379" style="fill:#2a632a"/><path d="M2021.42 2618.77c-85.99-183.31-20.04-325.93 87.59-373.38 107.97-47.61 254.71-6.48 339.21 173.64 84.38 180.4 166.59 438.66 212.3 658.35 46.55 219.6 52.99 398.38 12.34 413.8-40.97 15.59-155.35-115.66-287.1-290.64-131.08-175.52-278.63-398.57-364.34-581.77" style="fill:#2a632a"/><path d="M2169.04 2483c-44.53-44.34-72.33-86.04-91.07-125.23-18.48-39.12-27.06-75.69-28.6-109.35a241 241 0 0 1 14.13-93.3c10.33-28.31 25.47-54.6 45.5-76.18s45.05-38.44 75.11-47.88c29.85-9.5 64.1-11.62 100.2-5.7 36.1 5.9 73.66 19.6 110.61 40.75 36.86 20.91 73.33 49.95 106.23 82.6a2146 2146 0 0 0 46.6 45.52c3.5 3.32 7.05 6.8 9.78 9.13 3.35 2.88 4.6 4.79 10.74 9.4l30.84 24.94c42.2 33.3 86.7 68.7 134.62 102.97 94.93 69.34 199.73 138.14 297.24 201.2 97.26 63.29 186.54 121.3 248.6 169.76 62.23 48.3 97.41 86.7 90.54 107.46-6.84 20.68-57.69 31.12-137.15 32.26-79.48.9-187.78-6.99-310.24-28.51-122.29-21.25-259.27-56.94-391.26-111.63-66.06-26.76-130.24-59.63-190.3-94.9l-44.07-27.36c-6.4-3.77-16.72-11.36-25.23-17.42a531 531 0 0 1-24.61-18.71 914 914 0 0 1-78.2-69.82" style="fill:#2a632a"/><path d="M2434.65 2107.7c-201.2 23.26-312.7-83.79-325.64-200.68-12.98-117.28 74.58-244.65 270.94-267.36 196.7-22.61 457.74-20.13 673.27-13.28 215.3 8.22 388.25 20.43 400.28 62.92 11.87 41.44-134.58 144.4-343.56 232.79-208.2 89.54-474.45 162.56-675.29 185.6" style="fill:#2a632a"/><path d="M2906.35 1710.2c-2.08-28.57 11.28-56.59 30.42-77.9 2.72-3.02 5.83-5.86 8.8-8.77-82.93-1.78-169.46-2.54-254.46-1.27 80.83-97.85 161.68-204.68 231.47-302.51q9.34-13.23 18.38-26.2a825 825 0 0 1-32.66 5.58c-57.88 8.5-119.54 8.36-171.76-18-15.81-7.98-31.04-18.9-39.01-34.7-10.98-21.77-6.1-47.97.9-71.32a581 581 0 0 1 33.66-86.14c-2.48 1.3-4.91 2.53-7.4 3.85-90.68 47.77-187.3 107.42-278.27 171.78 25.5-111.38 48.13-229.58 66.64-339.38-18.38 14.39-36.9 28.59-56.58 41-52.24 32.9-120.96 52.16-174.98 22.27-54.77-30.3-74.55-99.7-76.06-162.28-.07-2.75.17-5.5.15-8.26-57.52 85.47-113.54 181.13-161.56 276.9a4784 4784 0 0 0-95.71-319.43c-2.91-8.54-5.83-16.87-8.75-25.23-4.17 19.19-8.68 38.3-13.82 57.25-11.4 42.08-25.75 84.63-53.64 118.14-13.63 16.36-31 30.59-51.68 35.68-40.23 9.9-80.42-16.77-108.42-47.3a331 331 0 0 1-64.03-103.3c-26.97 211.76-32.27 470.81-4.85 662.25a430 430 0 0 0 9.7 47.45c-144.38-100.43-344.12-196.75-521.83-257.54a430 430 0 0 1-1.75 124.4c-3.57 22.05-9 44.12-19.94 63.59-23.54 41.88-70.57 66.69-118.13 73.46a267 267 0 0 1-26.75 2.34c74.65 75.26 157.72 155.4 240.13 229.35a1704 1704 0 0 0-59.8 10.1 1823 1823 0 0 0-243.25 63.8c17.51 14.34 34.63 29.1 50.24 45.5 30.84 32.4 55.95 72.64 60 117.18 4 43.87-13.38 88.3-42.67 121.21-14.24 16-27.26 30.72-41.84 42.52a8197 8197 0 0 0 195.84 26.7 3917 3917 0 0 0-91.13 71.59c18.33 5.35 36.43 11.5 53.96 19.08 15.76 6.83 31.47 14.77 43.45 27.08 15.11 15.53 23.01 36.76 27.47 57.97 12.83 61.03-.04 125.54-27.1 181.73a664 664 0 0 1-35.44 64.7c201.97-59.23 433.1-146.87 597.08-236.12 2.52-1.37 4.72-2.87 7.19-4.27a559 559 0 0 0-18.72 66.71c-24.28 112.8-40.6 245.15-50.41 379-.31 4.17-.56 8.35-.85 12.52 21.14-27.5 45.43-52.13 74.56-71.05 62.56-40.64 151.6-48.66 209.05-1.06 36.31 30.08 54.5 76.35 69.35 121.1 12.05 36.31 23.61 73 32.67 110.16a5002 5002 0 0 0 29.96-92.92 5206 5206 0 0 0 42.53-143.8c56.61 101.86 125.14 209.04 194.73 309.73-3.33-49.25-3.24-98.48 5.22-147.02 7.43-42.62 22.25-85.86 53.38-115.91 12.32-11.89 27.25-21.53 43.94-25.33 13.87-3.15 28.42-2.16 42.3.91 41.29 9.14 76.32 35.75 108.46 63.21a1607 1607 0 0 1 85.77 78.6 3636 3636 0 0 0-54.45-184.7c121.16 46.94 245.02 78.56 356.67 97.96 11.6 2.04 22.96 3.84 34.3 5.64-19.47-34.78-38.96-69.55-56.17-105.49-34.75-72.58-60.35-152.17-54.17-232.4a274 274 0 0 1 12.27-62.28c-42.6-28.88-84.86-58.16-125.22-87.63-47.92-34.27-92.42-69.68-134.62-102.98l-30.84-24.94c-6.13-4.6-7.39-6.52-10.74-9.4-2.73-2.32-6.29-5.81-9.78-9.12a2141 2141 0 0 1-46.6-45.53 591 591 0 0 0-48.72-43.27c198.6-25.16 455.34-96.4 657.51-183.35a1962 1962 0 0 0 71.5-31.95c-68.06-14.89-133.73-40.76-193.22-77.03-38.93-23.73-78.56-57.43-81.87-102.91m-797.34 368.74c-20.04 21.58-35.18 47.87-45.51 76.17-3.6 10-6.35 20.43-8.66 31.07-20.29-15.39-42.66-26.75-66.39-33.15-41.13-11.1-85.97-7.64-129.36 12.1 19.06-99.12-30.91-195.27-121.97-236.58a229 229 0 0 0 26.48-27.67c36.78-46.01 55.48-106.3 45.93-170.15-.94-6.17-2.38-12.4-3.86-18.61 36.92 14.7 76.17 18.83 113.69 12.7a220.4 220.4 0 0 0 105.68-48.52 217 217 0 0 0 52.76 23c5.28 1.48 10.67 2.56 16.05 3.65a217 217 0 0 0 31.71 97.2c-14.99 34.4-20.51 71.09-16.55 106.86 5.22 47.16 26.75 92.54 63.47 128.58a173 173 0 0 0-63.47 43.35" style="opacity:.4;fill:#2a632a"/><path d="M2307.3 1704.62c-117.38 170.2-238.25 215.51-304.74 172.76-65.63-42.17-75.1-175.28 46.2-351.23 120.72-175.9 308.88-389.7 476.28-548.84 167.01-159.82 311.18-266.4 332.99-247.68 22.36 19.16-61.47 176.12-175.54 372.18-114.8 195.84-257.97 432.02-375.19 602.8" style="fill:#387438"/><path d="M2365.45 1916.57c-77.37 41-143.8 56.74-196.98 53.56-52.9-2.9-92.54-25.08-112.82-58.71s-21.01-78.83 3.89-127.79c25-48.57 76-100.75 158.41-144.43 82.26-43.8 182.22-86.9 286.47-123.37 104.22-36.6 212.65-66.58 311.17-87.38 197.26-42 353.52-46.96 361.74-19.65 8.63 28.35-122.9 108.1-289.49 206.92l-266.23 155.98c-90.43 52.55-178.82 103.69-256.16 144.87m-452.65-486.74c130.83 339.75-162.33 452.64-293.16 112.9-32.7-84.94-65.02-186.05-94.24-290.26-28.84-103.63-56.68-212.52-73.7-314.56-17.27-101.75-22.3-195.08-16.16-261.76 5.84-66.86 20.43-106.46 34.57-107.67 14.81-1.33 34.39 34.5 62.07 90.25 27.48 55.97 64.82 131.39 109.98 215.79 44.81 84.33 97.54 179.27 145.88 276.82 48.21 96.9 92.06 193.56 124.77 278.5" style="fill:#387438"/><path d="M2149.32 1455.51c-44.62 410.92-356.28 371.37-312.06-36.22 44.23-407.55 216.06-1074.3 274.06-1069.26s82.61 694.53 38 1105.48m-667.16 208.99c163.75 54.38 218.93 157.62 192.99 231.5-26.1 74.32-131.63 119.88-291.92 66.66-160.42-53.48-367.25-144.36-533.95-226.52-166.48-82.4-292.5-157.03-284.83-185.25 7.59-27.94 154.74-28.98 341.5-7.31 186.71 21.34 412.7 66.4 576.2 120.91" style="fill:#387438"/><path d="M1747.09 1520.02c107.71 128.94 103.68 243.5 44.09 295-59.25 51.22-175.21 38.04-285.24-93.66-110.05-131.43-234.08-324.16-321.86-489.21-88.1-164.98-140.75-301.62-117.55-318.94 23.43-17.5 138.69 71.69 275.86 195.53 137.03 124.14 296.7 282.3 404.7 411.28" style="fill:#387438"/><path d="M1499.94 1861.64c200.64-68.53 325.56-24.03 348.81 50.53 23.53 75.38-51.93 180.02-247.13 246.7-195.6 66.44-461.45 138.56-680.96 193.08-219.53 53.9-393.28 88.43-405.15 61.54-11.66-26.34 131.12-133.08 330.08-247.7 198.52-115.08 453.89-236.08 654.35-304.15" style="fill:#387438"/><path d="M1533.14 2153.35c78.46-67.28 151.31-100.82 209.64-109.95 58.61-8.91 102.67 6.26 126.88 37.18 48.5 62.72 17.37 183.6-132.3 311.48-75.07 64.17-165 136.02-257.25 209.05a33405 33405 0 0 1-272.9 213.5c-171.95 132.48-309.19 234.63-331.7 215.42-21.78-18.5 56.6-172.87 186.95-354.49 64.98-90.8 142.78-188.2 224.64-279.25 81.76-91.12 167.52-175.83 246.04-242.94m375.91 236.67c-20.1-188.31 46.3-291.56 124.45-300.83 77.82-9.24 167.57 76.73 187.93 267.55 20.5 190.66 20.09 446.7 5.03 654.96-14.81 208.34-43.47 368.8-72.39 370.77-29.14 2-78.83-152.74-127.65-354.21-48.6-201.58-97.1-449.8-117.37-638.24" style="fill:#387438"/><path d="M2188.43 2451.2c-306.51-330.24-76.34-544.05 230.24-213.72 306.14 331.62 740.13 947.51 697 986.6-43.14 39.08-622.07-442.3-927.24-772.88" style="fill:#387438"/><path d="M2351.95 2144.23c-102.7.07-179.44-16.04-232.94-41.8-53.32-25.8-83.36-62.25-87.09-101.49-3.7-38.93 19.44-80.77 72.74-114 53.1-33.28 136.62-56.81 247.69-56.86 110.92.22 238.88 11.16 366.46 29.86 127.73 18.46 255.27 43.86 368.68 69.52 226.99 51.45 400.11 105.62 397.64 134.61s-182.26 53.1-414.68 65.4c-116.3 6.19-245.06 9.17-369.87 11.31-124.93 1.89-245.78 3.66-348.63 3.45" style="fill:#387438"/><path d="M2799.64 1432.1a2551 2551 0 0 0-295.22 83.73 2370 2370 0 0 0-96.25 36.12l-1.22 1.9q-.46-.5-.91-1.02c.72-.28 1.4-.59 2.13-.88a10613 10613 0 0 0 119.6-191.39c-63.15 19.07-127.35 33.73-193.05 34.78-30 .48-61.4-2.3-86.92-18.06-20.34-12.57-34.83-32.49-43.75-54.85a3535 3535 0 0 0-42.78 52.82c-1.43-.53-2.84-1.08-4.3-1.56 3.9-47.92 7.04-98.27 9.4-150.06-24 19.75-50.64 36.02-79.97 46.06-48.28 16.54-104.45 14.58-147.4-13-19.71-12.67-35.91-30.04-51.2-47.8q-9-10.42-17.12-21.03a4522 4522 0 0 0-16.58 102.52 3979 3979 0 0 0-53-112.5 214 214 0 0 1-17.01 19.97c-37.16 38.63-90.6 65.8-143.56 57.51-29.55-4.63-56.32-19.65-82.13-34.78-17.08-10-34.15-20.52-50.38-32 5.7 21.44 11.5 42.8 17.38 63.9q5.9 21 11.95 41.77a5499 5499 0 0 0-82.18-80.36c14.05 85.3 16.65 172.51 7.04 258.44-3.22 28.83-8.9 59.77-29.98 79.7-11.38 10.76-26.63 15.9-42.17 16.33a2561 2561 0 0 0 63.24 86.83 2198 2198 0 0 0-107.07-30.39c4.53 16.81 8.84 33.68 12.64 50.67 5.75 25.72 10.69 52.03 8.45 78.29-3.66 43.04-26.93 83.1-59.29 111.72-20.4 18.05-43.1 33.44-67.64 44.8a3452 3452 0 0 0 66.9 25.55 3773 3773 0 0 0-30.95 13.3c39.37 21.19 71.96 55.2 89.49 96.4 23.48 55.18 27.3 122.29 14.06 182.85a7068 7068 0 0 0 103.97-31.35 2544 2544 0 0 0-80.34 76.63l129.58-6.22c33.56-1.6 67.84-3.14 100.11 6.21 46.9 13.59 85.93 50.58 104.01 95.94a167 167 0 0 1 5.84 17.38c55.8-48.63 94.34-96.1 118.1-139.68a167 167 0 0 0 47.5 21.5c-4.17 35.42-4.46 75.78.4 121.23 2.53 23.57 5.5 48.08 8.87 73.31 17.49-8.93 37.03-14.3 56.6-16.01 38.76-3.41 77.64 5.99 114.01 19.81 53.37 20.29 103.16 52.27 146.4 91.36q-1.06-30.82-2.64-60.76a4563 4563 0 0 0 86.86 88.15 507 507 0 0 1 4.64-41.59c5.54-34.98 15.9-71.37 41.84-95.48 30.73-28.56 76-33.57 117.9-35.53 30.73-1.44 63.24-1.07 92.96 6.03-54.26-65.68-107.76-127.6-157.83-181.83-35.85-38.63-70.58-69.53-103.6-93.96q17.84.72 36.88.7c79.35.17 169.46-.85 263.85-2.19-49.14-26.75-86.07-76.93-92.3-132.83-7.1-63.58 26.07-128.85 78.98-164.03a2810 2810 0 0 0-93.21-8.57c24.4-13.96 49.2-28.27 74.32-42.83a77 77 0 0 1-9.16-20.17c-8.4-29.7-1.36-61.6 9.18-90.6 38.49-105.92 120.63-188.26 216.03-250.9" style="opacity:.4;fill:#387438"/><path d="M1707.28 2211.4a582 582 0 0 1 78.62-97.23c26.55-25.04 51.51-43.5 74.74-55.45 47.15-23.6 84.18-22.68 106.79-3.82 22.6 18.87 31.1 55.44 21.16 103.15-4.72 24.15-13.52 51.76-27.76 81.74-13.5 30.8-32.68 63.74-56.51 100.8l-164.03 249.08c-58.77 89.14-119.54 180.8-176.68 262.1-57.16 81.3-110.5 152.1-152.93 200.36-42.22 48.36-72.62 74.5-81.9 69.02-9.52-5.61-1.32-44.58 17.7-105.1 19.22-60.42 48.54-142.96 84.4-235.32 35.86-92.39 78.28-194.88 125.34-294.35 46.93-99.45 99-195.74 151.06-274.97m540.98 69.55c-45.97-17.87-84.2-39.27-115.6-59.69-31-21.74-55.17-42.77-72.3-63.64-34.19-42.12-41.73-79.01-27.91-105.02s48.71-41.33 99.41-40.32c25.48.35 55.57 3.8 89.12 12.56 34.29 7.6 71.92 20.72 114.73 37.32 85.05 34.11 184.92 74.04 288.26 113.92l305.47 117.94c191.78 74.81 338.16 142.57 332.3 163.91-5.73 20.75-165.07 10.49-370.74-18.35-102.82-14.74-217.38-35.12-329.47-61.87-112.07-26.59-221.58-60-313.27-96.76m-633.63-418.84c71.06-18.92 127.73-22.15 170.26-13.04 42.28 8.67 70.36 30.08 80.4 57.77s1.82 61.74-28.54 95.7c-30.4 33.41-83.33 66.4-160.9 87.1-77.42 20.9-169.72 37.12-264.17 45.46-94.45 8.5-190.92 9.14-276.75 3.33-172.1-11.2-299.63-48.02-298.6-69.03.9-22.5 128.62-45.02 287.58-81.11a7068 7068 0 0 0 252.14-61.24c85.05-22.23 167.53-45.75 238.58-64.94m317.74-255.24c32.24 35.41 47.6 70.68 50.14 103.74 2.72 32.7-7.72 63.25-27.48 85.08s-49.07 34.8-84.11 32.33c-34.68-2.65-75.07-21.16-112.33-62.05-37.33-40.69-75.23-93.1-107.74-149.78-32.63-56.63-59.8-117.43-78.94-173.6-38.74-112.64-44.65-204.89-25.1-213.14 20.5-8.84 79.95 57.62 154.77 136.65a9513 9513 0 0 0 118.72 124.23c40.24 41.47 79.65 81.2 112.07 116.54m314.43 208.54c-29.93 23.05-56.67 42.06-82.66 55.45a276 276 0 0 1-70.33 28.52c-42.36 10.8-77.6 4.15-98.72-16.37s-27.9-55.24-13.31-100.62c7.36-22.55 20.83-46.75 39.96-73.1 19.92-25.22 45.44-52.84 78.86-78.65 66.23-52.57 149.1-105.24 236.4-150.66 87.29-45.6 178.79-84.3 262-114.2 166.6-59.56 299.58-86.94 308.7-67.72 9.6 20.18-99.38 101.5-238.97 201.14-69.72 49.92-146.58 104.9-219.85 159.77-73.42 54.76-143 109.56-202.07 156.44" style="fill:#4a884a"/><g style="opacity:.4"><path d="M1988.6 2158.05c9.92-47.72 1.43-84.28-21.17-103.15-22.61-18.86-59.64-19.77-106.79 3.82-23.23 11.96-48.18 30.4-74.74 55.45a592 592 0 0 0-41.76 46.44c2.09-.53 4.14-1.2 6.24-1.7 53.2-12.29 112.28-6.68 157.2 24.34 21.24 14.66 40.4 34.4 53.2 56.65 14.29-30.1 23.09-57.7 27.81-81.85m232.4-133.2c-33.56-8.76-63.65-12.21-89.12-12.56-50.7-1-85.6 14.32-99.42 40.32s-6.27 62.9 27.9 105.02c17.14 20.87 41.31 41.9 72.32 63.64 5.64 3.67 11.77 7.39 17.86 11.1-7.64-21.48-11.76-44.07-10.87-66.9 2.12-54.8 34.66-109.2 85.18-130.52 4.86-2.05 9.99-3.74 15.23-5.25-6.43-1.73-12.88-3.48-19.08-4.85m-462.4-258.87c37.26 40.9 77.65 59.4 112.33 62.05 35.03 2.46 64.34-10.5 84.1-32.33 19.77-21.83 30.2-52.38 27.49-85.08-2.55-33.06-17.9-68.33-50.14-103.74a2160 2160 0 0 0-28.12-29.98c-.13 1.83-.18 3.67-.35 5.5-3.76 39.73-21.5 82.37-58.26 97.91-29.57 12.5-63.45 4.4-94.11-5.14a1157 1157 0 0 1-82.93-29.43c28.18 45.23 59.25 86.74 89.99 120.24m335.22 133.41a276 276 0 0 0 70.33-28.52c25.99-13.38 52.73-32.4 82.67-55.45 12.75-10.13 26.08-20.68 39.74-31.45-24.94-1.36-48.86-7.18-70.03-20.79-49.4-31.74-66.86-95.29-73.15-153.68-.37-3.45-.58-6.92-.9-10.38-14.5 10.48-28.6 21-41.87 31.53-33.42 25.8-58.94 53.43-78.86 78.65-19.13 26.35-32.6 50.55-39.97 73.1-14.57 45.38-7.8 80.1 13.32 100.62 21.11 20.52 56.36 27.16 98.72 16.37m-257.06 103.15c30.36-33.95 38.58-68 28.54-95.69s-38.13-49.1-80.4-57.77c-30.62-6.56-68.69-6.6-114.06.89 44.07 49.86 45.93 131.14 13.65 191-11.67 21.64-26.1 40.43-42.4 57.23 11.5-2.76 22.82-5.6 33.76-8.55 77.58-20.7 130.52-53.69 160.91-87.1" style="fill:#4a884a"/></g><path d="M2036.89 1992.31c-37.13-9.99-59.37-28.35-71.17-47.84-11.74-19.62-13.25-40.98-6.82-59.52 6.44-18.56 21.13-34.2 41.88-42.63 20.76-8.52 47.17-9.65 76.43-1.82 29.71 8.2 59.62 16.08 97.62 23.4 37.48 7.38 79.91 14.79 118.78 26.05 38.94 11.14 73.4 26.78 94.93 43.08 21.7 16.28 30.75 31.03 27.68 37.22-3.33 6.82-19.48 7.9-42.5 9.6-23.18 1.59-53.47 4.96-88.4 10.12-35.02 5.05-75.39 11.85-119.12 14.39-21.93 1.16-44.6 1.1-67.17-.94a386 386 0 0 1-62.14-11.11m-141.63-198.5c26.37 17.03 40.78 36.73 47.1 57.21 6.26 20.19 4.26 41.48-4.84 58.87s-25.49 30.83-48 35.32c-22.22 4.38-50.34-.63-79.05-19.18-58.12-37.15-119.9-96.96-170.04-143.54-25.16-23.42-47.73-44.49-64.32-60.56-16.46-16.25-26.53-28.55-24.13-35.6 2.28-6.71 18.08-10.58 43.04-9.7 25.01.65 58.65 7.2 95 18.61 73.13 22.97 152.84 65.25 205.24 98.57" style="fill:#62a062"/><path d="M2074.34 1844.47c-39.17 143.12-191.84 106.1-151.99-39.64 39.86-145.76 153.19-372.58 180.98-363.93 27.8 8.65 10.18 260.47-28.99 403.57" style="fill:#62a062"/><path d="M1919.41 2049.26c-23.59-69.33 5.48-115.27 43.03-125.53 38.18-10.47 84.08 11.62 105.61 74.74 21.36 63.55 43.42 150.67 61.44 223.78 17.51 73.07 29.77 132.47 17 139.87-12.37 7.2-59.19-33.29-107.33-96.11-48.43-62.4-96.55-147.67-119.75-216.75" style="fill:#62a062"/><path d="M1796.1 1959.25c52.37-65.22 108.65-74.9 139.99-50.96 31.08 23.73 36.46 82.1-17.55 149.35-53.8 67.24-137.02 146.86-210.41 205.2-73.3 58.55-136.17 96.3-146.68 86.39-10.67-10.05 23.34-74.45 71.6-153 48.5-78.5 110.7-171.56 163.05-236.98" style="fill:#62a062"/><path d="M1821.28 1932.4s101.06 16.31 101.07-127.57c0 0 2.76 194.66 154.86 35.67 0 0-94.05 76.93-9.16 157.97 0 0-121.02-111.03-149.5 59.17 0 0 23.4-125.48-97.27-125.24" style="opacity:.4;fill:#62a062"/><g style="opacity:.4"><path d="M1470.15 649.1c5.82 41.76 10.56 83.32 15.66 124.79 5.23 41.45 10.28 82.84 16.21 124.12 5.51 41.34 11.88 82.55 18.08 123.86 6.35 41.3 13.05 82.59 18.74 124.37-14.87-39.47-26.48-80-36.15-120.98-9.83-40.95-17.22-82.45-23.18-124.14-5.54-41.75-9.67-83.7-11.32-125.78-1.79-42.06-1.62-84.22 1.96-126.25m609.93-120.99c-9.38 51.74-20.93 102.87-33.24 153.8-12.17 50.97-25.63 101.58-39.33 152.12-14.1 50.44-28.48 100.58-41.34 151.03-12.71 50.5-23.42 101.4-30.54 153.49-2.35-52.6 3.6-105.5 13.2-157.27 9.48-51.9 23.06-102.77 36.77-153.29 14.14-50.42 28.53-100.78 44.2-150.78 15.53-50.04 31.83-99.87 50.28-149.1m226.56 764.11c30.95-41.16 63.57-80.8 96.77-119.93 33.1-39.22 67.17-77.54 101.45-115.7 34.58-37.86 69.38-75.53 105.16-112.32 35.67-36.88 71.94-73.22 109.89-108.04-30.93 41.18-63.54 80.84-96.74 119.96-33.1 39.21-67.18 77.54-101.48 115.67-34.6 37.85-69.4 75.52-105.18 112.3-35.68 36.88-71.95 73.22-109.87 108.06m-79.32 331.98c34.9-28.22 71.85-53.68 109.82-77.46 37.91-23.92 77.13-45.7 116.99-66.2 40.05-20.13 80.77-38.96 122.44-55.48 41.6-16.64 83.95-31.46 127.33-42.98-39.99 20.36-80.16 39.63-120.13 59.2-39.91 19.7-79.83 39.22-119.35 59.52-39.71 19.92-79.02 40.65-118.46 61.26-39.38 20.74-78.63 41.83-118.64 62.14m-163.69-62.24c-6.22 23.05-14.12 45.15-22.44 67.01a1547 1547 0 0 1-55.56 128.47c-10.24 21.04-20.94 41.91-33.52 62.22 3.7-23.6 9.85-46.4 17.05-68.83a718 718 0 0 1 56-129.32c11.42-20.58 23.82-40.68 38.47-59.55m-438.66 731.28c11.09-26.82 23.63-52.64 37-78.05 13.25-25.48 27.7-50.28 42.66-74.82 15.35-24.3 31.22-48.33 48.84-71.22 17.5-22.88 36.3-45.24 58.53-64.02l-43.82 73.95-21.9 36.76-22.34 36.52c-15.26 24.15-30.49 48.36-46.82 71.96-16.22 23.64-33.05 47.03-52.15 68.91m-544.65-232.52c40.37-15.43 81.12-29.1 121.95-42.41 40.78-13.45 81.79-26.03 122.75-38.77 41.08-12.33 82.12-24.8 123.46-36.44 41.3-11.77 82.74-23.18 124.86-32.9-39 18.65-78.97 34.8-119.34 49.76-40.33 15.11-81.23 28.56-122.34 41.32-41.24 12.35-82.68 24.04-124.57 34.04-41.85 10.12-84.01 19.07-126.77 25.4m-96 823.32c32.92-47.07 67.56-92.71 102.81-137.85 35.15-45.23 71.31-89.6 107.68-133.82 36.7-43.94 73.6-87.7 111.54-130.62 37.82-43 76.26-85.5 116.45-126.54-32.9 47.09-67.54 92.74-102.8 137.87-35.14 45.22-71.3 89.6-107.7 133.8-36.71 43.92-73.62 87.68-111.56 130.6-37.83 43-76.26 85.5-116.42 126.56m1012.47-343.44c14.46 54.98 26.71 110.36 38.19 165.87 11.61 55.49 21.92 111.2 31.97 166.97 9.63 55.83 18.98 111.72 27.03 167.83 8.19 56.1 15.58 112.32 20.74 168.95-14.49-54.98-26.75-110.35-38.22-165.87-11.6-55.49-21.91-111.2-31.93-166.97-9.6-55.84-18.96-111.73-27-167.85-8.18-56.09-15.59-112.32-20.78-168.93m352.33-307.06c53.77 7.5 106.8 18.83 159.56 30.7 52.8 11.8 105.23 24.98 157.61 38.2l78.38 20.56 78.2 21.2 156.43 42.79c-54.12-4.63-107.58-14.62-160.59-25.54-53.06-10.92-105.65-23.7-158.08-36.99-52.32-13.68-104.52-27.8-156.38-43.11a5526 5526 0 0 1-155.13-47.8M769.97 1625.26c40.24 14.24 79.95 28.8 119.92 42.47 40 13.53 80.04 26.66 120.5 38.41 40.34 12.16 81.08 22.96 122 33.4 40.95 10.3 82.18 19.73 123.69 29.73-42.7-.6-85.24-5.23-127.34-12.37-42.15-7-83.77-17.02-124.8-28.97-40.92-12.35-81.27-26.62-120.43-43.71-39.19-16.96-77.39-36.24-113.54-58.96m374.4-573.7c16.11 22.76 30.59 46.15 44.77 69.64 14.31 23.41 27.86 47.18 41.6 70.83 13.38 23.87 26.93 47.63 39.8 71.87 12.99 24.18 25.73 48.55 37.08 74.03-19.22-20.22-36.24-42.1-52.17-64.7-16.06-22.52-30.6-46.04-44.45-69.94-13.48-24.11-26.32-48.6-37.52-73.9-11.32-25.22-21.48-51-29.11-77.83m815.16 987.93c9.54 20.93 18.84 41.1 28.87 60.88 10.02 19.77 20.76 39.05 31.68 58.34l33.17 58.1c11.03 19.55 21.93 39.39 31.04 60.54-16.84-15.69-31.84-32.75-45.8-50.7-13.95-17.94-26.93-36.76-38.18-56.72a354 354 0 0 1-28.23-62.78c-7.28-21.82-12.2-44.61-12.55-67.66m-253.02 806.65c2.94 51.05 4.12 101.96 4.98 152.85 1.01 50.88 1.17 101.73 1.56 152.57-.05 50.85.1 101.7-.59 152.59-.55 50.88-1.42 101.8-4.07 152.87-6.81-50.69-10.88-101.56-13.67-152.49-2.92-50.92-4.05-101.9-4.4-152.9.07-50.99.88-101.98 3.5-152.92 2.48-50.94 6.22-101.84 12.69-152.57m616.18 141.53c21.86 17.99 41.84 37.75 60.97 58.25 19.25 20.41 37.22 41.91 54.73 63.78 17.18 22.12 33.86 44.64 49.2 68.13 15.45 23.4 29.97 47.46 42.31 72.95-20.05-20-38.48-41.02-56.5-62.31-18.15-21.2-35.49-42.97-52.86-64.71-17.04-22-34.14-43.96-50.5-66.57-16.46-22.53-32.6-45.36-47.36-69.52m86.93-468.67c41.72 34.64 82.08 70.57 122.15 106.79 40.17 36.1 79.67 72.88 119.25 109.57 39.3 37 78.66 73.92 117.4 111.55 38.85 37.52 77.41 75.38 114.79 114.67-43.64-32.2-85.57-66.42-126.71-101.54-41.24-35.01-81.35-71.3-121-108.08-39.35-37.09-78.26-74.65-115.98-113.43-37.81-38.68-74.8-78.2-109.9-119.54" style="fill:#62a062"/></g></svg>