<svg xmlns="http://www.w3.org/2000/svg" xml:space="preserve" viewBox="118.7 390.6 101.2 66.1"><path d="m138.45 450.75-4.33-3.34-1.74-17.93 47.6-25.71 4.62-1.34 1.87 6.43 16.23-6.23 6.99 4.76 4.16 13.49-.29 2.46-19.9 5.46.55 6.8z" style="opacity:.3;fill-rule:evenodd;clip-rule:evenodd;fill:#1c1b17"/><path d="m133.85 447.32-9.19-31.52 1.45-3.44 54.33-15.74 8.94 30.69.2 3.72z" style="fill-rule:evenodd;clip-rule:evenodd;fill:#7f8968"/><path d="M184.74 399.53h22.76v21.15h-22.76z" style="fill-rule:evenodd;clip-rule:evenodd;fill:#fff7dd" transform="rotate(-15.93 196.09 410.05)"/><path d="M194.13 412.81h6.16v2.24h-6.16z" style="fill-rule:evenodd;clip-rule:evenodd;fill:#777f77" transform="rotate(-15.82 197.19 413.89)"/><path d="M191.95 405.15h6.17v2.24h-6.17z" style="fill-rule:evenodd;clip-rule:evenodd;fill:#777f77" transform="rotate(-15.9 195.03 406.27)"/><path d="m180.44 396.62-54.11 15.68 8.6 29.87 54.45-14.86z" style="fill-rule:evenodd;clip-rule:evenodd;fill:#9da080"/><path d="M134.37 417.89h16.67v15.37h-16.67z" style="fill-rule:evenodd;clip-rule:evenodd;fill:#fff7dd" transform="rotate(-15.91 142.7 425.58)"/><path d="m188.08 423.39 21.89-6.24-.33 2.29-20.85 5.99z" style="fill-rule:evenodd;clip-rule:evenodd;fill:#d1ccb7"/></svg>