<svg xmlns="http://www.w3.org/2000/svg" xml:space="preserve" viewBox="455 235.9 362.4 217.8"><path d="m490.7 353.4 13 41.3c1.35 4.3 14.56 41.65 60.4 27.22a172 172 0 0 0 21.08-8.14c18.75-8.8 49.3-28.12 43.28-58.8-4.28-21.72-8.82-35.52-19.42-41.82-11-6.52-29.55-5.33-58.4 3.74a237 237 0 0 0-29.06 11.07c-27.31 12.8-30.52 23.5-30.88 25.43m198.8-78.62c-34.88 16.35-31.86 33.62-17.37 66.46 11.33 25.67 45.38 32.41 91.09 18.03a76 76 0 0 0 9.4-3.64c34.97-16.4 25.7-49.55 24.52-53.27l-12.99-41.29c-1.77-1.7-15.78-12.68-70.03 4.4-9.73 3.06-17.8 6.1-24.62 9.3m86.46 87.96a84 84 0 0 1-10.39 4.01c-49.9 15.7-87.52 7.36-100.61-22.34-4.14-9.39-7.66-18.1-9.53-26.23l-26.53 8.35c3.28 8.02 5.36 17.32 7.25 26.94 5.16 26.23-12.38 49.69-47.8 66.3-6.83 3.2-14.08 7.18-21.9 9.64-43.13 13.57-64.44-13.96-70.23-32.36l-13.39-43c-.07-1.66.3-16.71 35.42-33.18a244 244 0 0 1 30.03-11.44c31.56-9.94 51.54-10.86 64.77-3.01q1.44.86 2.76 1.85l39.82-12.53c3.43-10.36 12.54-19.62 30.54-28.06 7.15-3.36 15.52-6.53 25.6-9.7 64.63-20.34 77.91-2.95 79.22-.9l.27.44 7.42.4 4.28 17.86-4.25 5.05 5.91 19.17c6.24 19.82 2.47 48.14-28.66 62.74" style="opacity:.3;fill-rule:evenodd;clip-rule:evenodd;fill:#15130f"/><path d="M465.4 349.52a10572 10572 0 0 1 236.95-19.9c35.83-2.65 46.72 2.8 80.99 13.45 21.96 6.82 18.43 28.4-6.42 16.25-30.5-14.91-38.7-22.92-72.29-19.55-81.1 8.13-152.93 16.28-233.86 27.51-1.1-5.5-4.27-12.26-5.37-17.76" style="fill-rule:evenodd;clip-rule:evenodd;fill:#5b5b5b"/><path d="M791.2 251.25a10928 10928 0 0 0-210.53 115c-31.63 17.68-37.6 28.12-60.18 55.67-14.48 17.67 1.02 33.15 14.83 9.58 16.94-28.91 19.17-39.92 49.34-55.78 72.82-38.3 137.87-71.46 212.35-107.15-2.27-5.05-3.53-12.28-5.8-17.32" style="fill-rule:evenodd;clip-rule:evenodd;fill:#5b5b5b"/><path d="M491.29 374.83c0-.02-.58-13.63 33.16-29.45-33.73 15.81-33.17 29.43-33.16 29.45m65.78-41.66-.05.02zm-.16.05-.07.02zm-.13.04-.15.04zm-2.59.8-.05.01zm-.58.18-.06.02zm-.26.09q-.04 0-.07.02zm-28.89 11.04" style="fill-rule:evenodd;clip-rule:evenodd;fill:#ffa098"/><path d="m793.78 299.45-13.2-42s-11.11-17.48-74.74 2.54c-64.88 20.42-61.47 42.42-44.4 81.1 13.46 30.52 53.86 33.4 95.85 20.19 42-13.22 41.3-46.56 36.5-61.83m-300.93 94.7-13.21-42s-.92-20.69 62.71-40.72c64.88-20.4 74.7-.42 82.85 41.07 6.43 32.72-25.04 58.22-67.03 71.44-41.99 13.2-60.5-14.53-65.32-29.8" style="opacity:.5;fill-rule:evenodd;clip-rule:evenodd;fill:#fdf8c6"/><path d="M674.2 357.4a51 51 0 0 1-10.87-18.6l-12.14-38.6c1.68-11.75 10.09-21.58 29.53-30.7 6.92-3.25 15.23-6.4 25.12-9.51 36.47-11.47 55.68-10.63 65.44-7.82-33.21 34.28-65.4 69.51-97.07 105.23m-170.48 55.35a51 51 0 0 1-10.87-18.6l-13.21-42c0-.03-.57-13.64 33.17-29.46 7.7-3.61 17.17-7.33 28.83-11.03l.06-.02.2-.06.06-.02.4-.13.14-.04.04-.02.12-.03 2.32-.72.16-.05.05-.01.08-.03q.06 0 .1-.03l.06-.01.14-.05h.01c27.43-8.3 44.59-8.97 55.9-3.63-33.45 34.5-65.87 69.97-97.76 105.94" style="opacity:.5;fill-rule:evenodd;clip-rule:evenodd;fill:#fdf8c6"/><path d="m483.6 351.67 13 41.3c1.35 4.3 14.55 41.65 60.4 27.22a170 170 0 0 0 21.08-8.14c18.75-8.8 49.3-28.13 43.27-58.8-4.27-21.72-8.81-35.53-19.41-41.82-11-6.52-29.55-5.33-58.4 3.74a237 237 0 0 0-29.06 11.07c-27.31 12.8-30.52 23.5-30.88 25.43m276.23-105.5 31.85 2.8 6.41 20.35-6.11 11.32 5.54 17.63c6.24 19.82 2.47 48.13-28.66 62.73a84 84 0 0 1-10.4 4.02c-49.9 15.7-87.51 7.35-100.6-22.35-4.15-9.38-7.66-18.1-9.54-26.23l-26.52 8.35c3.28 8.02 5.36 17.33 7.25 26.95 5.16 26.22-12.21 50.8-47.64 67.4a178 178 0 0 1-22.06 8.53c-43.14 13.58-64.44-13.95-70.24-32.35l-4.8-15.43-13.3-8.31-5.78-22.54 24.11-17.56q.01.27-.25.87c5.13-4.12 12.24-8.61 22.06-13.22a244 244 0 0 1 30.02-11.44c31.57-9.93 51.55-10.86 64.77-3q1.44.86 2.76 1.84l39.82-12.52c3.44-10.36 12.55-19.63 30.54-28.06 7.15-3.36 15.53-6.53 25.6-9.7 25.9-8.15 43.55-10.24 55.5-9.69a3 3 0 0 1-.33-.4m-77.44 26.88c-34.87 16.35-31.86 33.61-17.36 66.46 11.33 25.67 45.38 32.4 91.09 18.02a76 76 0 0 0 9.4-3.63c34.97-16.4 25.7-49.55 24.52-53.27l-12.99-41.29c-1.78-1.7-15.78-12.68-70.03 4.4-9.74 3.05-17.8 6.1-24.62 9.3" style="fill-rule:evenodd;clip-rule:evenodd;fill:#666"/></svg>