<svg xmlns="http://www.w3.org/2000/svg" xml:space="preserve" viewBox="195.2 -31.8 300.8 286.3"><circle cx="358.31" cy="95.29" r="118.58" style="fill:#c0c3ce"/><circle cx="358.31" cy="95.29" r="116.14" style="fill:#7f8493"/><ellipse cx="415.04" cy="47.59" rx="27.08" ry="30.19" style="fill:#878b96" transform="rotate(-40.34 415.02 47.6)"/><path d="M277.3 8.71c65 43.04 95.93 126.14 101.98 203.27a118.5 118.5 0 0 1-111.35-39.93c-41.15-48.45-36.6-120.39 9.37-163.34" style="fill:#989ba5"/><circle cx="417.84" cy="46.65" r="27.82" style="fill:#dfe2ea"/><path d="m469.21 24.79-38.23 39.03-1.9-2.23 37.02-40.08zM452.07 4.61l-45 27.66-1.9-2.23 43.8-28.71z" style="fill:#c0c3ce"/><circle cx="417.84" cy="46.65" r="27.08" style="fill:#c0c3ce"/><circle cx="358.31" cy="95.29" r="118.58" style="fill:#c0c3ce"/><circle cx="358.31" cy="95.29" r="116.14" style="fill:#7f8493"/><ellipse cx="415.04" cy="47.59" rx="27.08" ry="30.19" style="fill:#676c7a" transform="rotate(-40.34 415.02 47.6)"/><path d="M277.3 8.71c65 43.04 95.93 126.14 101.98 203.27a118.5 118.5 0 0 1-111.35-39.93c-41.15-48.45-36.6-120.39 9.37-163.34" style="fill:#989ba5"/><circle cx="417.84" cy="46.65" r="27.82" style="fill:#dfe2ea"/><path d="m469.21 24.79-38.23 39.03-1.9-2.23 37.02-40.08zM452.07 4.61l-45 27.66-1.9-2.23 43.8-28.71z" style="fill:#c0c3ce"/><circle cx="417.84" cy="46.65" r="27.08" style="fill:#c0c3ce"/><path d="M419.21 19.63c9.52 12.25 16.7 26.39 21.85 40.92a27 27 0 0 1-5.69 6.75q-1.39 1.16-2.9 2.1c-4.62-17.18-10.22-34.95-20.61-49.14a27 27 0 0 1 7.35-.63m-16.99 4.92q1.69-1.2 3.5-2.11c9.1 15.4 13.48 33.45 13.66 51.21-3.84.22-7.7-.38-11.31-1.76 1.4-16.2-.3-32.23-5.86-47.34" style="fill:#dfe2ea"/><path d="M223.58 79.12c-30.2 25.65-25.4 80.9 10.71 123.43s89.87 56.2 120.07 30.55 47.7-99.86 11.6-142.38-112.19-37.24-142.38-11.6" style="fill:#3f414c"/><path d="M258.04 76.74a228 228 0 0 0-11.37-10.4c36.1-13.05 90.43-9.59 119.28 24.38 36.12 42.52 18.6 116.73-11.6 142.38a52 52 0 0 1-10.6 6.94c-9.57-61.12-46.1-120.08-85.7-163.3" style="fill:#32343d"/><path d="M406.55-25.84h20.5v149.32h-20.5z" style="fill:#989ba5" transform="rotate(229.66 416.8 48.82)"/><path d="M411.01-27.05h9.52v149.32h-9.52z" style="fill:#c0c3ce" transform="rotate(229.66 415.77 47.61)"/><path d="M471.44 4.07h8.05v24.89h-8.05z" style="fill:#c0c3ce" transform="rotate(229.66 475.46 16.52)"/><path d="M471.99 2.88h4.94v24.89h-4.94z" style="fill:#989ba5" transform="rotate(229.66 474.46 15.33)"/><path d="M454.07-16.39h8.05V8.5h-8.05z" style="fill:#c0c3ce" transform="rotate(49.66 458.1 -3.94)"/><path d="M456.63-15.2h4.94V9.69h-4.94z" style="fill:#989ba5" transform="rotate(49.66 459.11 -2.75)"/><path d="M427.7 176.54c-3.86 3.47-12.94 6.04-12.12-2.52.58-6.17 7.88-12.91 11.1-18a149 149 0 0 0 11.1-21.3c6.1-14.45 9.9-29.88 11.12-45.53.17-2.2.35-4.58 1.73-6.31 6.17-7.73 11.22 2.67 12.73 8.24 2.78 10.31-.66 22.28-3.35 32.28-5.45 20.28-16.69 39.06-32.32 53.14" style="fill:#c0c3ce"/><ellipse cx="314.8" cy="7.87" rx="14.7" ry="11.48" style="fill:#878b96" transform="rotate(-33.08 314.83 7.86)"/><ellipse cx="316.28" cy="7.4" rx="15.1" ry="10.58" style="fill:#dfe2ea" transform="rotate(-33.08 316.3 7.4)"/><ellipse cx="316.28" cy="7.4" rx="14.7" ry="10.3" style="fill:#c0c3ce" transform="rotate(-33.08 316.3 7.4)"/><path d="M322.35 5.47c-2.1 1.46-16.1 11.33-12.16 2 1-2.37 3.62-3.91 5.83-4.94 9.17-4.28 10.56 0 6.33 2.94" style="fill:#3f414c"/><path d="M319.02 6.06s6.02-14.4 4.28-16.44-15.23-4.36-8.2 15.6c0 0 2.13 3.64 3.92.84" style="fill:#3f414c"/><path d="M316.18-9.72a6 6 0 0 0-1.91 4.3 16 16 0 0 0 .7 4.78c.33 1.22.69 2.52.35 3.74-.6 2.17-3.1 3.24-4.22 5.2-.12.2-.22.43-.17.66.1.42.68.56 1.07.37s.63-.58.87-.94a12 12 0 0 1 5.34-4.45c.38-.15.84-.48.67-.85-.13-.29-.54-.28-.86-.32-.68-.09-1.25-.61-1.55-1.23s-.4-1.32-.44-2.01q-.18-2.8.38-5.55c.15-.75.35-1.5.78-2.13s1.14-1.11 1.9-1.1c.58.02 1.1.36 1.7.29.91-.12 1.16-1.27.1-1.41-1.56-.2-3.4-.45-4.7.65" style="fill:#32343d"/><path d="M366.47 39.78c13.13-6.1 28.72-3.94 41.18 10.72 12.45 14.67 12.07 30.4 3.92 42.38L368.5 157.7c-16.65 14.14-46.48 6.37-66.63-17.35s-23-54.42-6.34-68.56z" style="fill:#3f414c"/><path d="M373.34 44.08c11.13-5.18 24.34-3.34 34.89 9.08 10.54 12.42 10.22 25.75 3.31 35.9l-36.48 54.9c-14.1 11.98-39.37 5.4-56.44-14.7-17.07-20.09-19.47-46.1-5.37-58.07z" style="fill:#32343d"/><path d="M376.45 51.07c-6.77 5.76-5.34 18.58 3.2 28.65 8.56 10.07 20.98 13.56 27.76 7.8s-9.9-5.63-18.45-15.7-5.73-26.5-12.5-20.75" style="fill:#3f414c"/><path d="M414.35 69.2c.75 2.66 1.1 5.88-.8 7.9a6 6 0 0 1-4.87 1.59c-1.75-.17-3.4-.91-4.95-1.75a37.4 37.4 0 0 1-16.8-18.96c-.9-2.3-1.56-4.95-.49-7.17 1.23-2.57 4.46-3.66 7.29-3.29 10.74 1.43 17.88 12.01 20.62 21.67" style="fill:#3f414c"/><path d="M295.55 152.41c-12.34-22.85-31.84-42.64-56.36-51.2-4-1.39-8.62-2.42-12.3-.32-3.31 1.91-4.85 5.83-5.83 9.53-6.75 25.32 1.6 53.1 17.82 73.67s39.5 34.6 63.91 44.12c20.74 8.1 12.08-17.5 9.65-28.44-3.63-16.4-8.9-32.54-16.9-47.36" style="fill:#585b66"/><path d="M299.83 74.27c-2.47 4.75-3.45 10.15-3.65 15.5-.73 19.9 9.79 39.82 26.62 50.45-9.96-2.77-18.32-10.06-23.6-18.94s-7.67-19.27-8.19-29.59c-.33-6.6.15-13.5 3.38-19.28 1.43-2.55 12.63-13.54 15.12-7.97-4.1 2.5-7.43 5.51-9.68 9.83" style="fill:#32343d"/><path d="M223.58 79.12c-30.2 25.65-25.4 80.9 10.71 123.43s89.87 56.2 120.07 30.55 47.7-99.86 11.6-142.38-112.19-37.24-142.38-11.6" style="fill:#3f414c"/><path d="M258.04 76.74a228 228 0 0 0-11.37-10.4c36.1-13.05 90.43-9.59 119.28 24.38 36.12 42.52 18.6 116.73-11.6 142.38a52 52 0 0 1-10.6 6.94c-9.57-61.12-46.1-120.08-85.7-163.3" style="fill:#32343d"/><path d="M406.55-25.84h20.5v149.32h-20.5z" style="fill:#989ba5" transform="rotate(229.66 416.8 48.82)"/><path d="M411.01-27.05h9.52v149.32h-9.52z" style="fill:#c0c3ce" transform="rotate(229.66 415.77 47.61)"/><path d="M471.44 4.07h8.05v24.89h-8.05z" style="fill:#c0c3ce" transform="rotate(229.66 475.46 16.52)"/><path d="M471.99 2.88h4.94v24.89h-4.94z" style="fill:#989ba5" transform="rotate(229.66 474.46 15.33)"/><path d="M454.07-16.39h8.05V8.5h-8.05z" style="fill:#c0c3ce" transform="rotate(49.66 458.1 -3.94)"/><path d="M456.63-15.2h4.94V9.69h-4.94z" style="fill:#989ba5" transform="rotate(49.66 459.11 -2.75)"/><path d="M427.7 176.54c-3.86 3.47-12.94 6.04-12.12-2.52.58-6.17 7.88-12.91 11.1-18a149 149 0 0 0 11.1-21.3c6.1-14.45 9.9-29.88 11.12-45.53.17-2.2.35-4.58 1.73-6.31 6.17-7.73 11.22 2.67 12.73 8.24 2.78 10.31-.66 22.28-3.35 32.28-5.45 20.28-16.69 39.06-32.32 53.14" style="fill:#c0c3ce"/><ellipse cx="314.54" cy="8.65" rx="14.7" ry="11.48" style="fill:#676c7a" transform="rotate(-33.08 314.57 8.64)"/><ellipse cx="316.28" cy="7.4" rx="15.1" ry="10.58" style="fill:#dfe2ea" transform="rotate(-33.08 316.3 7.4)"/><ellipse cx="316.28" cy="7.4" rx="14.7" ry="10.3" style="fill:#c0c3ce" transform="rotate(-33.08 316.3 7.4)"/><path d="m310.64-1.21.02-.01c6.8-4.44 14.83-4.17 17.94.6 2.43 3.73 1.1 9.11-2.85 13.4-5.77-3.9-11.21-8.37-15.11-13.99" style="fill:#c0c3ce"/><path d="M310.64-1.21c3.9 5.62 9.34 10.08 15.1 13.99a20 20 0 0 1-3.84 3.25c-6.8 4.43-14.84 4.16-17.94-.6s-.11-12.2 6.68-16.64" style="fill:#dfe2ea"/><path d="M322.35 5.47c-2.1 1.46-16.1 11.33-12.16 2 1-2.37 3.62-3.91 5.83-4.94 9.17-4.28 10.56 0 6.33 2.94" style="fill:#3f414c"/><path d="M319.02 6.06s6.02-14.4 4.28-16.44-15.23-4.36-8.2 15.6c0 0 2.13 3.64 3.92.84" style="fill:#3f414c"/><path d="M316.18-9.72a6 6 0 0 0-1.91 4.3 16 16 0 0 0 .7 4.78c.33 1.22.69 2.52.35 3.74-.6 2.17-3.1 3.24-4.22 5.2-.12.2-.22.43-.17.66.1.42.68.56 1.07.37s.63-.58.87-.94a12 12 0 0 1 5.34-4.45c.38-.15.84-.48.67-.85-.13-.29-.54-.28-.86-.32-.68-.09-1.25-.61-1.55-1.23s-.4-1.32-.44-2.01q-.18-2.8.38-5.55c.15-.75.35-1.5.78-2.13s1.14-1.11 1.9-1.1c.58.02 1.1.36 1.7.29.91-.12 1.16-1.27.1-1.41-1.56-.2-3.4-.45-4.7.65" style="fill:#32343d"/><path d="M366.47 39.78c13.13-6.1 28.72-3.94 41.18 10.72 12.45 14.67 12.07 30.4 3.92 42.38L368.5 157.7c-16.65 14.14-46.48 6.37-66.63-17.35s-23-54.42-6.34-68.56z" style="fill:#3f414c"/><path d="M373.34 44.08c11.13-5.18 24.34-3.34 34.89 9.08 10.54 12.42 10.22 25.75 3.31 35.9l-36.48 54.9c-14.1 11.98-39.37 5.4-56.44-14.7-17.07-20.09-19.47-46.1-5.37-58.07z" style="fill:#32343d"/><path d="M376.45 51.07c-6.77 5.76-5.34 18.58 3.2 28.65 8.56 10.07 20.98 13.56 27.76 7.8s-9.9-5.63-18.45-15.7-5.73-26.5-12.5-20.75" style="fill:#3f414c"/><path d="M414.35 69.2c.75 2.66 1.1 5.88-.8 7.9a6 6 0 0 1-4.87 1.59c-1.75-.17-3.4-.91-4.95-1.75a37.4 37.4 0 0 1-16.8-18.96c-.9-2.3-1.56-4.95-.49-7.17 1.23-2.57 4.46-3.66 7.29-3.29 10.74 1.43 17.88 12.01 20.62 21.67" style="fill:#3f414c"/><path d="M295.55 152.41c-12.34-22.85-31.84-42.64-56.36-51.2-4-1.39-8.62-2.42-12.3-.32-3.31 1.91-4.85 5.83-5.83 9.53-6.75 25.32 1.6 53.1 17.82 73.67s39.5 34.6 63.91 44.12c20.74 8.1 12.08-17.5 9.65-28.44-3.63-16.4-8.9-32.54-16.9-47.36" style="fill:#585b66"/><path d="M299.83 74.27c-2.47 4.75-3.45 10.15-3.65 15.5-.73 19.9 9.79 39.82 26.62 50.45-9.96-2.77-18.32-10.06-23.6-18.94s-7.67-19.27-8.19-29.59c-.33-6.6.15-13.5 3.38-19.28 1.43-2.55 12.63-13.54 15.12-7.97-4.1 2.5-7.43 5.51-9.68 9.83" style="fill:#32343d"/></svg>