<svg xmlns="http://www.w3.org/2000/svg" xmlns:xlink="http://www.w3.org/1999/xlink" xml:space="preserve" viewBox="396.5 170.7 123.8 138.4"><defs><path id="a" d="M0 0h500v500H0z" transform="matrix(-1 0 0 -1 500 500)"/></defs><clipPath id="b"><use xlink:href="#a" style="overflow:visible"/></clipPath><g style="clip-path:url(#b)"><path d="m405.68 302.05.38-.57.12-.2-.1-.1 2.69-9.45.06-.22 31.02-38.62.16-.2 63.43-69.94 1.07-1.23.09-.1 1.44 1.26 2.83-3.25a2 2 0 0 1 .53-.42q.21-.12.46-.2h.01a2 2 0 0 1 .63-.06q.26 0 .5.08h.01a2 2 0 0 1 .72.4l.25.22 1.64 1.43a2 2 0 0 1 .4.5h.01l.02.04q.14.25.2.52l.02.07q.04.25.03.52v.07q-.03.27-.13.53l-.05.11q-.11.26-.3.5l-.3.34-2.53 2.9 1.45 1.26-1.16 1.33-60.67 72.54-.17.2-.01-.02-33.75 36.04-9.07 4-.15.06-.1-.09-.7.6-.22.16-.01.01h-.04l-.2.05h-.02a.6.6 0 0 1-.42-.15.65.65 0 0 1-.07-.92" style="opacity:.26;fill:#00609b"/><path d="m510.82 181.73-5.15 5.92-4.95-4.3 5.15-5.92a2 2 0 0 1 2.86-.2l1.89 1.65c.84.73.93 2.01.2 2.85" style="fill:#c1c0bf"/><path d="m508.97 177.45-.24-.22a2 2 0 0 0-2.86.2l-5.15 5.92 1.78 1.54z" style="fill:#c1c0bf"/><path d="M508.01 176.83a2 2 0 0 0-2.14.6l-5.15 5.92.92.8zm-4.41 9.03 2.06 1.79 5.15-5.92a2 2 0 0 0-.2-2.85l-.53-.47z" style="fill:#c1c0bf"/><path d="m504.63 186.75 1.03.9 5.15-5.92c.59-.67.65-1.62.22-2.35z" style="fill:#c1c0bf"/><path d="m500.44 180.75-63.43 69.94 10.59 9.42 60.68-72.54z" style="fill:#ffa61a"/><path d="m500.44 180.75-63.43 69.94 4.01 3.56 62.39-70.92z" style="opacity:.58;fill:#ffa61a"/><path d="m506.76 186.25-61.21 72.03 2.05 1.83 60.68-72.54z" style="fill:#ffa61a"/><path d="M495.17 189.05a.9.9 0 0 0 1.36 1.19l1.38-1.58-.78-1.87z" style="fill:#c1c0bf"/><path d="m501.87 181.35-35 40.23a1.58 1.58 0 1 0 2.4 2.08l34.99-40.23z" style="fill:#ffa61a"/><path d="m501.36 180.9-35 40.24a1.58 1.58 0 1 0 2.4 2.07l34.98-40.23z" style="fill:#c1c0bf"/><path d="m501.36 180.9-35 40.24a1.58 1.58 0 1 0 2.4 2.07l34.98-40.23z" style="fill:#c1c0bf"/><path d="m503.5 183-34.88 40.1a1.41 1.41 0 0 1-2.13-1.85l34.88-40.1zm-36.92 38.32a1.3 1.3 0 0 0 1.96 1.7l34.8-40-1.95-1.71z" style="fill:#c1c0bf"/><path d="m501.42 181.86-30.7 35.31.78 1.86 31.29-35.98zm-95.59 107.65 7.84 6.82 33.93-36.22-10.59-9.42z" style="fill:#c1c0bf"/><path d="m405.83 289.51 2.97 2.58 32.22-37.84-4.01-3.56zm6.34 5.51 1.5 1.31 33.93-36.22-2.02-1.8zm-7.55 5.05-.95.83a.65.65 0 1 1-.98-.85l.69-1.06z" style="fill:#c1c0bf"/><path d="m403.06 299.48.88.76-.77.88q.29 0 .5-.22l.95-.83-1.24-1.08z" style="fill:#c1c0bf"/><path d="m403.12 299.38 1.01.88-.7.81q.12-.05.23-.17l.96-.83-1.25-1.08z" style="fill:#c1c0bf"/><path d="m413.67 296.33-9.21 4.06-1.38-1.2 2.75-9.68z" style="fill:#c1c0bf"/><path d="m413.67 296.33-9.21 4.06-.36-.31 6.62-6.32z" style="fill:#c1c0bf"/><path d="m413.67 296.33-9.21 4.06-.16-.14 7.83-5.26zm-7.84-6.82-2.75 9.68.36.31 5.35-7.42z" style="fill:#c1c0bf"/><path d="m407.11 290.61-3.86 8.73.19.16 5.35-7.42z" style="fill:#c1c0bf"/><path d="m403.12 299.04-.04.15 1.38 1.2.15-.06zm2.65-9.31 7.69 6.7.21-.1-7.84-6.82zm-2.44 10.3c.15.13.15.37 0 .53s-.38.2-.53.07-.15-.37 0-.53.38-.2.53-.07" style="fill:#c1c0bf"/><path d="M403.04 300.07c.1.08.1.24 0 .35s-.25.13-.35.04-.1-.24 0-.35.25-.13.35-.04m33.8-49.18 10.6 9.41.16-.19-10.59-9.42z" style="fill:#c1c0bf"/><path d="M503.4 178.6h2.55v10.39h-2.55z" style="fill:#c1c0bf" transform="rotate(-48.97 504.65 183.8)"/><path d="M500.96 179.71h2.55v3.93h-2.55z" style="fill:#c1c0bf" transform="rotate(-48.96 502.26 181.67)"/><path d="M505.82 183.91h2.55v3.98h-2.55z" style="fill:#c1c0bf" transform="rotate(-48.97 507.07 185.9)"/><path d="M506.57 185.56h2.55v1.99h-2.55z" style="fill:#c1c0bf" transform="rotate(-48.97 507.83 186.56)"/><path d="M503.81 179.51h.13v10.39h-.13z" style="fill:#c1c0bf" transform="rotate(-48.97 503.85 184.71)"/><path d="M505.41 177.68h.13v10.39h-.13z" style="fill:#c1c0bf" transform="rotate(-48.97 505.44 182.88)"/><path d="m505.87 177.43-.3.35 4.94 4.3.3-.35a2 2 0 0 0-.2-2.85l-1.88-1.65a2 2 0 0 0-2.86.2" style="fill:#c1c0bf"/></g></svg>