<svg xmlns="http://www.w3.org/2000/svg" viewBox="820.7 446.9 337 335.2"><path d="M1144.37 626.04c-.17-1.95-.6-3.8-1.28-5.39q-.58-1.36-1.6-2.35a7.3 7.3 0 0 0-5.68-2.67 7.6 7.6 0 0 0-6.32 3.35 8 8 0 0 0-2.06 2.86c-2 4.64-4.5 8.3-7.62 11.21-1.54 1.43-3.45 2.7-5.48 4.06-2.72 1.81-5.54 3.69-8.1 6.31a30 30 0 0 0-7.45 13.48 121 121 0 0 0-4.46-13.07q1.63.23 3.24.23l.93-.02a19.4 19.4 0 0 0 10.86-3.67c3.1-2.32 5.45-5.67 6.95-9.96 1.1-3.13 1.82-6.6 2.26-10.93.38-3.6.69-7.78-.36-11.96-1.55-6.23-6.52-10.66-12.35-11.04a12 12 0 0 0-3.8.38 12 12 0 0 0-6.95-1.59c-1.82.15-3.56.66-5.12 1.5a11 11 0 0 0-4.82-.17 8.5 8.5 0 0 0-2.23-3.9 32 32 0 0 0 4.53-8.7c1.59-4.56 2.64-9.66 3.3-16.06.55-5.26 1-11.36-.47-17.25-2.03-8.13-8.42-13.91-15.9-14.4l-.95-.02q-2.68 0-5.2.95a14.8 14.8 0 0 0-9.93-2.8 16.4 16.4 0 0 0-7.76 2.62 13 13 0 0 0-4.7-.84q-2.1 0-4.1.6c1.6-6.83 2.95-13.5 4.02-19.9a7.97 7.97 0 0 0-7.82-9.3 7.8 7.8 0 0 0-7.44 5.5c-1.66 5.14-4.86 9.79-8.26 14.71l-1.98 2.9c-2.11-4.91-6.5-8.25-11.53-8.58a12 12 0 0 0-3.8.38 12 12 0 0 0-6.95-1.59 13 13 0 0 0-5.1 1.5q-1.36-.36-2.8-.36c-3.04 0-6.01 1.23-8.36 3.44q-1.09 1.06-1.94 2.23a10 10 0 0 0-1.3-.75v-.04c1.6-4.55 2.65-9.65 3.31-16.05.55-5.25 1-11.35-.47-17.25-2.03-8.13-8.42-13.9-15.9-14.39l-.95-.03q-2.68 0-5.2.96a14.8 14.8 0 0 0-9.93-2.8 16.4 16.4 0 0 0-7.76 2.61 13 13 0 0 0-4.7-.84c-3.81 0-7.54 1.55-10.5 4.35l-.31.31v-.4a7.7 7.7 0 0 0-10.9-7.05c-2.31-5.55-7.57-9.54-12.35-10.44q-1.15-.21-2.37-.21c-7.95 0-18.01 7.43-19.56 17.38a40 40 0 0 0-.28 10.25l-1.56-.62-.24-.09a15 15 0 0 0-5.08-1.17 12 12 0 0 0-2.4-.2c-1.9 0-3.6.3-5.11.57l-.5.08-.6.1-1.06.04-3.03.2c-1.61.12-3.13.24-4.56.24-2.63 0-4.34-.38-5.72-1.27a8 8 0 0 0-4.45-1.31 8.6 8.6 0 0 0-7.9 5.5 8.2 8.2 0 0 0 2.08 9.12 67 67 0 0 0 12.49 9.22c3 1.7 7.4 4.17 12.44 4.57q-.24 1.35-.18 2.7a12.7 12.7 0 0 0-3.77 7.02c-.36 2.05-.26 4.12.28 6.07-2.2 3.67-2.3 8.42.05 12.65 2.42 4.36 6.5 7.1 9.78 8.98a37 37 0 0 0 12.58 4.5 9 9 0 0 0 2.06.08 19 19 0 0 0 2.87.2q1.68 0 3.14-.27a18 18 0 0 0 7.43-2.6l.78-.39c3.45-1.8 6.52-4.65 9.41-8.7a29 29 0 0 0 4.83-10.71q.18-.84.3-1.67 4.96 3.04 10.04 5.85c-4.02 1.97-7.01 5.46-9.5 8.37a39 39 0 0 1-3.19 3.47c-4.23 3.77-10.51 4.89-17.15 6.07l-2.73.5a7.8 7.8 0 0 0-6.28 6.8 7.8 7.8 0 0 0 4.37 8.13 25 25 0 0 0 10.95 2.24c2.38 0 4.67-.23 6.81-.46 3.02-.33 6.37-.8 9.8-1.7-2.66 6.17-2.09 13 1.75 17.98a15 15 0 0 0 4.86 4.08c.3 3.52 1.85 6.89 4.5 9.45 2.05 2 4.53 3.41 7.21 4.14 1.9 5.05 6.72 8.7 12.82 9.26q.93.09 1.9.09c5.56 0 10.7-2.14 14.56-4q1.36-.68 2.67-1.4a8 8 0 0 0 0 5.77 8.45 8.45 0 0 0 7.82 5.53c1.57 0 3.1-.47 4.45-1.35a40 40 0 0 0 3.79-2.84 18 18 0 0 0 6.33-4.32 28 28 0 0 0 4.55-5.94q.72 1.19 1.69 2.18c.06 3.9 2.2 7.64 5.98 9.9 3.92 2.34 8.48 2.6 11.57 2.6h.17c4.03 0 7.99-.74 11.76-2.17q.9-.34 1.7-.88l.4-.17c.76-.33 2.6-1.22 4.22-2.6a16 16 0 0 0 3.31-3.32 9 9 0 0 0 .48 3.81c-5.03 2.4-8.6 6.86-9.36 12.13q-.4 2.8.3 5.52c-2 2.44-3.15 5.54-3.15 8.83 0 2.58.58 5 1.7 7.17-1.95 4.49-1.22 9.92 2.26 14.25 3.57 4.44 8.78 6.75 12.92 8.27a44 44 0 0 0 15.11 2.68h.35q1.17-.01 2.3-.32l.81-.03c1.04-.06 3.64-.3 6.1-1.23q4.31-1.23 7.92-4.42.46-.32.87-.63c3.2-2.44 5.9-5.81 8.23-10.26a115 115 0 0 1 3.6 22.84 23 23 0 0 0-13.27-4.07q-4.21 0-8.14 1.34a114 114 0 0 0-4.57 1.04 43 43 0 0 1-10.23 1.3q-1.65 0-3.28-.14a51 51 0 0 1-13.65-3.38 81 81 0 0 1-15.04-7.89 8 8 0 0 0-4.44-1.32 8.4 8.4 0 0 0-7.35 4.39 8.3 8.3 0 0 0 .18 8.37c5.42 8.69 14.05 15.37 26.39 20.42 6.56 2.68 12.58 4.14 18.4 4.45q1.04.05 2.06.05 4.27 0 8.29-.92c1.56-.35 2.96-.8 4.33-1.24q1.81-.62 3.4-1 .57-.1 1.1-.11c2.76 0 5.8 2.45 9 5.04l.17.14a9.3 9.3 0 0 0 5.08 2.07 138 138 0 0 1-13.09 39.84l-.07.14c-3.12 6.54-2.8 9.4-1.36 11.67a6.5 6.5 0 0 0 5.54 3.06c4.47 0 6.64-3.62 10.76-11.14a137 137 0 0 0 13.93-38.22l.21.03q1.34.47 2.77.48c1.73 0 3.42-.55 4.88-1.57 5.19-3.64 9.5-8.1 12.84-13.28 1.7-2.63 3.46-5.86 3.72-9.88.3-4.62-1.8-10.49-7.1-12.46q-1.52-.56-3.15-.56c-4.25 0-7.5 2.9-9.25 4.44l-.22.2q-1 .87-1.9 1.86a136 136 0 0 0-.25-5.8q.5.15 1.02.24a7.4 7.4 0 0 0 7.98-1.7 7 7 0 0 0 2.01-5.22c-.05-1.54.63-3.55 6.01-6.86q.91-.57 1.82-1.1c4.03-2.44 8.6-5.19 12.2-9.61a43 43 0 0 0 7.6-14.83 57 57 0 0 0 2.65-16.78q0-.75-.16-1.5M986.08 571.1l3.44 1.6q-1.25.84-2.34 1.84a50 50 0 0 0-1.1-3.44m55.23 32.1a160 160 0 0 1 5.81 4.8c-2.4.36-5.03 1.18-7.38 2.98l-.05.04a29 29 0 0 0 1.6-7.38l.02-.45m-140.2-122.5.15.24q.22.39.33.64c-.25.12-.56.23-.77.27q-1.2.02-2.23.27a7 7 0 0 1 2.51-1.42m-.24 16.3a14 14 0 0 0 2.47-.24q-1.38 4.03-1.15 8.4a33 33 0 0 1-2.59-3.59 26 26 0 0 1-2.48-5.25q1.62.66 3.75.67" style="opacity:.5;fill:#383838"/><path d="M1139.57 621.24a18 18 0 0 0-1.28-5.4q-.59-1.36-1.61-2.35a7.3 7.3 0 0 0-5.68-2.67 7.6 7.6 0 0 0-6.32 3.35 8 8 0 0 0-2.06 2.86c-2 4.64-4.49 8.31-7.62 11.21-1.54 1.44-3.45 2.71-5.48 4.06-2.72 1.81-5.54 3.69-8.1 6.31a30 30 0 0 0-7.45 13.48 121 121 0 0 0-4.46-13.07q1.65.23 3.24.23l.93-.02a19.4 19.4 0 0 0 10.87-3.67c3.1-2.31 5.44-5.67 6.95-9.96a48 48 0 0 0 2.26-10.93c.37-3.6.68-7.78-.36-11.96-1.56-6.23-6.53-10.66-12.36-11.03a12 12 0 0 0-3.8.37 12 12 0 0 0-6.95-1.59 13 13 0 0 0-5.11 1.5 11 11 0 0 0-4.83-.17 8.5 8.5 0 0 0-2.23-3.9 32 32 0 0 0 4.53-8.7c1.6-4.56 2.65-9.66 3.31-16.06.55-5.25 1-11.35-.47-17.25-2.03-8.13-8.43-13.91-15.91-14.4a15 15 0 0 0-6.14.94 14.8 14.8 0 0 0-9.94-2.8 16.4 16.4 0 0 0-7.75 2.61 13 13 0 0 0-4.7-.84q-2.1 0-4.1.6c1.6-6.83 2.94-13.5 4.02-19.9a7.97 7.97 0 0 0-7.83-9.3 7.8 7.8 0 0 0-7.44 5.5c-1.65 5.14-4.86 9.8-8.26 14.71l-1.98 2.9c-2.1-4.91-6.49-8.25-11.52-8.58a12 12 0 0 0-3.8.38 12 12 0 0 0-6.95-1.59c-1.82.15-3.56.66-5.11 1.5q-1.36-.36-2.8-.36c-3.04 0-6 1.23-8.35 3.44q-1.1 1.06-1.95 2.23a10 10 0 0 0-1.3-.75l.01-.04c1.6-4.55 2.65-9.65 3.31-16.05.54-5.25 1-11.35-.47-17.25-2.03-8.13-8.43-13.9-15.91-14.39l-.95-.03q-2.67 0-5.2.96a14.8 14.8 0 0 0-9.93-2.8 16.4 16.4 0 0 0-7.75 2.61 13 13 0 0 0-4.7-.84c-3.81 0-7.54 1.55-10.51 4.35l-.3.31v-.4a7.7 7.7 0 0 0-10.9-7.05c-2.32-5.55-7.57-9.54-12.35-10.44q-1.15-.21-2.37-.21c-7.96 0-18.02 7.43-19.57 17.38a40 40 0 0 0-.27 10.25l-1.57-.62-.24-.09a15 15 0 0 0-5.07-1.17 12 12 0 0 0-2.4-.2c-1.9 0-3.61.3-5.12.57l-.5.08-.6.1-1.06.04-3.02.2c-1.61.12-3.13.24-4.57.24-2.63 0-4.34-.38-5.72-1.27a8 8 0 0 0-4.44-1.31 8.6 8.6 0 0 0-7.91 5.5 8.2 8.2 0 0 0 2.08 9.12 67 67 0 0 0 12.5 9.22c2.99 1.7 7.39 4.17 12.43 4.57q-.23 1.35-.18 2.7a12.7 12.7 0 0 0-3.77 7.02 14 14 0 0 0 .29 6.07c-2.2 3.67-2.3 8.42.05 12.66 2.41 4.35 6.49 7.08 9.77 8.97a37 37 0 0 0 12.59 4.5 9 9 0 0 0 2.06.08 19 19 0 0 0 2.86.2q1.69 0 3.14-.27a18 18 0 0 0 7.44-2.6l.78-.39c3.44-1.8 6.52-4.65 9.41-8.7a29 29 0 0 0 4.83-10.71q.18-.84.3-1.67 4.95 3.04 10.04 5.85c-4.02 1.97-7.01 5.46-9.5 8.37a39 39 0 0 1-3.19 3.47c-4.24 3.78-10.51 4.9-17.16 6.07l-2.72.5a7.8 7.8 0 0 0-6.29 6.8 7.8 7.8 0 0 0 4.38 8.13 25 25 0 0 0 10.95 2.24c2.38 0 4.67-.23 6.81-.46 3.01-.33 6.37-.8 9.8-1.7-2.66 6.17-2.1 13 1.74 17.98a15 15 0 0 0 4.87 4.08c.3 3.52 1.85 6.89 4.5 9.45 2.05 2 4.53 3.41 7.21 4.14 1.9 5.05 6.72 8.7 12.82 9.26q.94.09 1.9.09c5.55 0 10.7-2.14 14.56-4q1.36-.67 2.67-1.4a8 8 0 0 0 0 5.77 8.45 8.45 0 0 0 7.82 5.53c1.57 0 3.1-.46 4.44-1.34a40 40 0 0 0 3.8-2.85c2.12-.8 4.2-2.22 6.33-4.31a28 28 0 0 0 4.55-5.95q.73 1.19 1.69 2.18c.06 3.9 2.2 7.64 5.98 9.9 3.92 2.34 8.48 2.6 11.57 2.6h.17c4.03 0 7.99-.74 11.76-2.17q.9-.35 1.69-.87l.41-.18c.76-.33 2.6-1.22 4.22-2.6a16 16 0 0 0 3.31-3.32 9 9 0 0 0 .48 3.82c-5.04 2.4-8.6 6.85-9.36 12.12q-.41 2.81.3 5.52a14 14 0 0 0-3.16 8.84c0 2.57.6 5 1.72 7.17-1.96 4.48-1.23 9.91 2.25 14.25 3.57 4.44 8.78 6.75 12.92 8.27a44 44 0 0 0 15.11 2.67h.35q1.17 0 2.3-.32l.81-.03c1.04-.06 3.64-.3 6.1-1.23a20 20 0 0 0 7.92-4.41l.87-.63c3.2-2.45 5.9-5.82 8.23-10.26a115 115 0 0 1 3.6 22.83 23 23 0 0 0-13.28-4.06c-2.78 0-5.52.45-8.13 1.34-1.52.3-2.98.65-4.58 1.04-3.62.88-6.96 1.3-10.22 1.3q-1.65 0-3.28-.15a51 51 0 0 1-13.66-3.37 81 81 0 0 1-15.03-7.9 8 8 0 0 0-4.44-1.32 8.4 8.4 0 0 0-7.35 4.4 8.3 8.3 0 0 0 .18 8.36c5.42 8.7 14.05 15.38 26.39 20.43 6.56 2.68 12.58 4.13 18.4 4.44q1.02.06 2.06.06 4.25 0 8.29-.92a53 53 0 0 0 4.33-1.25c1.2-.39 2.35-.76 3.4-.99q.57-.12 1.1-.12c2.76 0 5.8 2.45 9 5.05l.17.13a9.3 9.3 0 0 0 5.07 2.08 138 138 0 0 1-13.08 39.83l-.07.15c-3.12 6.53-2.8 9.39-1.36 11.66a6.5 6.5 0 0 0 5.53 3.06c4.47 0 6.65-3.61 10.76-11.13a137 137 0 0 0 13.94-38.23q.1 0 .2.03 1.35.48 2.78.48c1.73 0 3.41-.54 4.88-1.57 5.18-3.63 9.5-8.1 12.84-13.27 1.7-2.64 3.46-5.87 3.72-9.88.3-4.62-1.8-10.5-7.1-12.46q-1.52-.56-3.16-.56c-4.24 0-7.5 2.89-9.25 4.44l-.21.19q-1 .87-1.91 1.86-.07-2.92-.25-5.8.5.16 1.02.24a7.4 7.4 0 0 0 7.98-1.7 7 7 0 0 0 2.02-5.22c-.05-1.53.63-3.55 6-6.86l1.83-1.1c4.02-2.43 8.59-5.18 12.2-9.61a43 43 0 0 0 7.6-14.82 57 57 0 0 0 2.65-16.79q-.02-.75-.16-1.5m-158.3-54.95 3.44 1.6q-1.25.84-2.34 1.85a50 50 0 0 0-1.1-3.45m55.23 32.1a160 160 0 0 1 5.82 4.8c-2.4.36-5.03 1.18-7.4 2.98q0 .03-.04.04a29 29 0 0 0 1.6-7.38zm-140.2-122.5.15.24q.22.39.33.64c-.25.13-.56.24-.77.27q-1.2.03-2.22.28a7 7 0 0 1 2.5-1.43m-.24 16.3a14 14 0 0 0 2.48-.24q-1.38 4.03-1.15 8.4a33 33 0 0 1-2.6-3.59 26 26 0 0 1-2.47-5.25q1.6.66 3.74.68" style="fill:#fff"/><path d="M882.42 479.28c-1.3 8.33.8 16.23 3.52 21.47 4.17 8.01 11.09 14.18 18.03 18.96 28.1 19.35 60.58 31.1 91.22 46.1s60.76 34.49 78 63.93c21.56 36.84 18.95 84.74-.4 122.8-2.26 4.74-3.51 10.62 3.53-2.25 20.49-37.46 21.96-85.95.4-122.8-17.24-29.44-47.36-48.93-78-63.92s-63.13-26.75-91.23-46.1c-6.94-4.78-13.72-10.17-18.15-17.34s-6.31-16.41-2.75-24.06c1.28-3.2 10.7-11.13 15.38-3.2 4.4 7.45-2.87 10.52-5.77 10.57-3.19.06-3.1 2.87.96 2.25 2.97-.46 8.27-4.3 8.01-8.66-.3-5.05-4.86-8.96-8.33-9.6-5.13-.97-13.31 4.73-14.42 11.85" style="fill:#6fc194"/><path d="M970.3 490.4c-1.2-4.8-4.9-9.22-10.1-9.55-2.71-.18-5.04.99-6.92 2.74a8.5 8.5 0 0 0-8.24-4.63 9.9 9.9 0 0 0-7.51 4.35 9 9 0 0 0-.76-.77c-3.3-2.87-7.78-2.03-10.8.82-3.2 3.03-4.88 7.64-6.03 11.8a42 42 0 0 0-1.36 14.85q.09.78.49 1.31.02.87.14 1.73c.16 1.15.6 3.25 1.43 4.89a15.4 15.4 0 0 0 4.28 6.3q.39.5.82.98c2.97 3.29 7.12 5.5 11.2 7.07a31 31 0 0 0 12.15 2.14c3.99-.16 8.02-1.3 11.25-3.7 3.6-2.68 5.83-6.53 7.3-10.71 1.63-4.68 2.47-9.68 2.98-14.6.5-4.88.89-10.21-.32-15.03m-94.43 17.9c-3.67-.03-7.54 1.81-8.74 5.5a6.8 6.8 0 0 0 .7 5.48 6.3 6.3 0 0 0-4.86 5.06 7.3 7.3 0 0 0 1.73 6.21q-.36.18-.69.4c-2.68 1.85-2.9 5.22-1.41 7.91 1.59 2.87 4.6 4.94 7.37 6.53a31 31 0 0 0 10.42 3.73q.59.08 1.04-.1.63.14 1.27.21c.85.1 2.45.17 3.78-.12 1.94-.16 3.72-.87 5.33-1.91q.42-.19.85-.41c2.91-1.53 5.28-4.1 7.16-6.75a23 23 0 0 0 3.79-8.33 15 15 0 0 0-.58-8.78c-1.26-3.08-3.62-5.4-6.35-7.23a48 48 0 0 0-9.94-4.85c-3.43-1.27-7.19-2.53-10.87-2.55m44.75 62.29c-2.85 4.13-3.75 9.93-.5 14.13 1.68 2.2 4.14 3.2 6.74 3.45a8.6 8.6 0 0 0 2 9.4 10 10 0 0 0 8.36 2.83q-.07.54-.07 1.1c.02 4.45 3.67 7.3 7.87 7.69 4.47.4 9.13-1.4 13.08-3.31a43 43 0 0 0 12.25-8.94q.55-.6.68-1.25.66-.6 1.23-1.28a17 17 0 0 0 2.77-4.37 16 16 0 0 0 1.95-7.51q.12-.63.2-1.28c.52-4.48-.58-9.14-2.13-13.32a31 31 0 0 0-6.52-10.71c-2.8-2.94-6.38-5.26-10.39-6.11-4.46-.95-8.9-.07-13.08 1.61-4.68 1.9-9.06 4.61-13.16 7.53-4.08 2.9-8.4 6.18-11.28 10.34m89.45-40.66c-.78-3.11-3.18-5.98-6.55-6.2a6 6 0 0 0-4.49 1.79 5.5 5.5 0 0 0-5.34-3 6.4 6.4 0 0 0-4.87 2.8 5 5 0 0 0-.5-.49c-2.14-1.86-5.04-1.31-7 .53-2.07 1.97-3.16 4.96-3.9 7.66a27 27 0 0 0-.89 9.63q.05.5.32.85 0 .56.09 1.12c.1.74.39 2.1.93 3.17a10 10 0 0 0 2.77 4.09l.53.63c1.93 2.13 4.62 3.57 7.27 4.59 2.48.95 5.21 1.5 7.87 1.38 2.6-.1 5.21-.84 7.3-2.4 2.33-1.74 3.78-4.23 4.73-6.94a42 42 0 0 0 1.94-9.47c.33-3.17.57-6.62-.2-9.75m-12 54.86c-2.78 1.59-4.9 4.67-4.19 7.98a6 6 0 0 0 2.93 3.84 5.5 5.5 0 0 0-1.44 5.95 6.4 6.4 0 0 0 4.02 3.93q-.18.3-.34.61c-1.21 2.57.1 5.22 2.4 6.6 2.46 1.46 5.64 1.7 8.43 1.7a27 27 0 0 0 9.5-1.77q.49-.18.75-.53.53-.16 1.05-.4c.69-.3 1.92-.93 2.8-1.74a10 10 0 0 0 3.19-3.78l.46-.68c1.54-2.43 2.19-5.41 2.45-8.24a20 20 0 0 0-.8-7.95 13 13 0 0 0-4.28-6.38c-2.3-1.77-5.1-2.5-7.96-2.67-3.21-.2-6.48.15-9.64.7-3.14.53-6.53 1.23-9.33 2.83m81.19-37.34c-1.2-4.79-4.9-9.2-10.1-9.54-2.72-.18-5.05.99-6.93 2.75A8.5 8.5 0 0 0 1054 536a9.9 9.9 0 0 0-7.52 4.34 9 9 0 0 0-.76-.77c-3.3-2.87-7.78-2.03-10.79.82-3.2 3.03-4.89 7.65-6.04 11.8a42 42 0 0 0-1.35 14.85q.07.78.48 1.31.02.87.14 1.74c.16 1.14.6 3.24 1.43 4.88a15.4 15.4 0 0 0 4.28 6.3q.39.51.82.99c2.97 3.28 7.12 5.5 11.2 7.07a31 31 0 0 0 12.15 2.14c3.99-.17 8.02-1.3 11.25-3.7 3.6-2.69 5.83-6.54 7.3-10.72 1.64-4.67 2.47-9.67 2.98-14.59.5-4.89.89-10.22-.31-15.04m-41.22 73.72c-4.38.73-8.6 3.72-9.28 8.36-.35 2.42.52 4.59 1.96 6.4a7.6 7.6 0 0 0-4.74 7.04c0 2.98 1.32 5.4 3.34 7.05q-.38.29-.74.62c-2.81 2.75-2.38 6.82-.05 9.72 2.48 3.1 6.5 4.94 10.13 6.27a38 38 0 0 0 13.2 2.29q.72-.01 1.22-.34.77.04 1.56 0c1.03-.06 2.95-.3 4.48-.93 2.28-.6 4.25-1.8 5.96-3.38q.46-.3.93-.66c3.16-2.42 5.45-5.98 7.15-9.52a28 28 0 0 0 2.8-10.72c.14-3.59-.6-7.29-2.51-10.35-2.14-3.41-5.43-5.7-9.06-7.3a58 58 0 0 0-12.86-3.74c-4.34-.8-9.09-1.54-13.49-.8m69.14-16.88c-.78-3.11-3.18-5.98-6.55-6.2a6 6 0 0 0-4.5 1.79 5.5 5.5 0 0 0-5.33-3 6.4 6.4 0 0 0-4.88 2.8 5 5 0 0 0-.5-.49c-2.13-1.86-5.04-1.31-6.99.53-2.07 1.97-3.17 4.96-3.91 7.66a27 27 0 0 0-.88 9.63q.05.5.31.85.01.56.1 1.12c.1.74.38 2.1.92 3.17.56 1.6 1.54 2.96 2.78 4.09q.25.32.53.63c1.92 2.13 4.62 3.57 7.27 4.59 2.48.95 5.2 1.5 7.87 1.38 2.59-.1 5.2-.84 7.3-2.4 2.33-1.74 3.78-4.23 4.73-6.94a42 42 0 0 0 1.93-9.47c.33-3.17.58-6.62-.2-9.75" style="fill:#d85127"/><path d="M1051.03 553.44c-.1-.74-.15-1.46-.52-2.12a.97.97 0 0 0-1.66 0c-.38.66-.42 1.38-.53 2.12-.11.76-.34 1.61-.25 2.37a1.6 1.6 0 0 0 3.21 0c.09-.76-.14-1.61-.25-2.37m16.4 1.46a1.31 1.31 0 0 0-2.5 0c-.3.97-.6 2.15-.58 3.16.02.96.83 1.88 1.83 1.83a1.87 1.87 0 0 0 1.84-1.83c.02-1.02-.28-2.2-.59-3.16m1.24 12.57c-.94.75-1.67 1.72-2.67 2.42a14 14 0 0 1-3.2 1.7 16.4 16.4 0 0 1-7.09.93c-2.8-.22-5.6-1-8.17-2.14-2.3-1.01-4.56-2.26-5.85-4.51-.27-.48-.97-.06-.72.42 1.19 2.36 3.4 3.86 5.66 5.08a24 24 0 0 0 8.8 2.88c2.8.29 5.68-.02 8.31-1.04 2.24-.88 5.14-2.48 6.25-4.72.44-.9-.58-1.62-1.32-1.02m-128.85-67c-.07-.8-.07-1.47-.62-2.1-.28-.32-.89-.4-1.24-.16-.73.5-.9 1.2-1.09 2.02-.18.82-.4 1.71-.37 2.56.06 2.32 3.7 2.32 3.6 0-.03-.78-.21-1.54-.28-2.32m20.3.51c-.17-.74-.32-1.52-.87-2.08-.34-.35-.84-.21-1.1.15-.43.57-.49 1.38-.62 2.07-.16.82-.4 1.71-.16 2.53.47 1.5 2.34 1.31 2.87 0 .32-.79.07-1.86-.12-2.67m2.98 6.41c-.06-.69-.91-1.2-1.46-.61-.98 1.07-1.26 2.56-1.84 3.86a12 12 0 0 1-2.81 4.1c-2.5 2.26-6.13 2.84-9.38 2.75-6.72-.17-13.82-4.33-14.21-11.66-.03-.53-.84-.54-.85 0-.1 7.92 7.05 12.85 14.28 13.56 3.72.37 7.9-.1 11-2.34 1.56-1.1 2.71-2.6 3.58-4.3.78-1.53 1.87-3.6 1.7-5.37m-18.6 65.22c-1-.3-1.92.32-2.75.81a7 7 0 0 0-2.19 1.8c-.5.73.33 1.58 1.09 1.4.8-.17 1.6-.7 2.35-1.06.78-.38 1.7-.6 2.12-1.43.3-.6.05-1.32-.62-1.52m6.96 13.88c-1.19.56-2.29 1.28-3.51 1.78-1.25.51-.8 2.47.57 2.09 1.43-.4 2.97-.88 4.19-1.74 1.3-.92.2-2.8-1.25-2.13m13.59-6.01c-.01-3.2-.56-6.42-1.91-9.34-2.23-4.84-6.69-8.5-12.06-9-.57-.06-.7.88-.13 1 4.88 1 8.78 4.87 10.54 9.45a20 20 0 0 1 1.16 8.46c-.2 2.9-1.33 5.62-1.53 8.48-.08 1.19 1.63 1.56 2.18.59 1.56-2.68 1.77-6.6 1.75-9.64m83.15 53.61a7 7 0 0 0-4.13-1.04c-.86.03-1.35 1.3-.47 1.73 1.17.57 2.4 1.21 3.65 1.56 1.4.4 2.06-1.47.95-2.25m-3.02 17.57c-1.23-.85-2.97-1.02-4.4-1.35-.84-.2-1.47 1.05-.62 1.46 1.42.68 2.91 1.64 4.51 1.76 1.08.09 1.26-1.36.51-1.87m12.31-21c-.39-.4-1.16.14-.8.61 3.1 4.08 5.02 9.17 4.64 14.34a17 17 0 0 1-4.07 9.83c-.76.85-1.7 1.51-2.31 2.48-.95 1.5.85 2.84 2.22 2.22 2.22-1 3.9-4.17 4.84-6.3a20 20 0 0 0 1.77-7.98 21.6 21.6 0 0 0-6.29-15.2" style="fill:#27230f"/><path d="M936.63 542.75a4 4 0 0 0-.99-.57l-.1-.04c-1.5-1.33-4.14-1.42-5.97-1.21-1.54.18-3.35.64-4.9 1.42-5.28 1.43-8.96 8-12.88 11.5-6.3 5.6-15.03 6.6-22.97 8.08-1.27.24-1.55 2.28-.37 2.83 4.58 2.15 9.46 1.74 14.35 1.21 4.63-.5 9.3-1.27 13.6-3.11 4.44-1.9 7.53-4.87 10.43-8.63 1.42-1.85 2.9-3.72 4.98-4.87.91-.5 1.89-.94 2.67-1.55q.36-.12.68-.26c1.3-.54 3.1-1.29 3-2.98-.07-1.06-.67-1.6-1.53-1.82M884 501.11c-.69-1.28-2.08-2-3.26-2.76a60 60 0 0 0-4.1-2.37c-1.5-.8-3.08-1.46-4.67-2.07-1.22-.46-2.4-.96-3.6-.83q-.62-.15-1.27-.2c-1.7-.09-3.42.26-5.09.55l-1.1.18q-.68 0-1.34.04c-5.75.29-11.92 1.47-17.08-1.83-1.93-1.24-4.17 1.62-2.46 3.2a61 61 0 0 0 11.29 8.35c3.84 2.17 8.29 4.56 12.83 3.58 1.93-.42 3.58-1.56 5.3-2.45q.58-.3 1.17-.52 4.2.15 8.31.97c1.36.28 2.89.85 4.18.05 1.33-.83 1.61-2.56.9-3.89m-19.2 1.74.09-.28.65-.07q-.38.2-.75.35m167 7.4c-2.93 9.14-9.6 16.3-14.35 24.47-3.28 5.62-5.76 12-5.39 18.37a21 21 0 0 0-.01 7.16v.02l-.3 1.95c-.17 1.24.3 2.26 1.54 2.7 2.12.74 3.73-.54 4.94-2.21a10 10 0 0 0 2.3-2.7 14.4 14.4 0 0 0 3.42-5.26c1.78-4.51 2.98-9.34 4.22-14.03a330 330 0 0 0 6.47-29.69c.3-1.84-2.25-2.62-2.84-.78m-13.63 28.91-.03.08a95 95 0 0 0-1.7 3.66 46 46 0 0 1 1.73-3.74m11.26-16.71-.26-.24.49-.78zm-26.13 50.15c-.7-2.01-2.74-2.13-4.54-1.84a4.5 4.5 0 0 0-2.22-.28 12 12 0 0 0-3.86 1.16c-8.15.99-11.57 11.1-13.27 17.86q-.46 1.9-.9 3.86-.35 1-.66 2-.14.47 0 .91c-1.4 5.82-3.21 11.56-7.84 15.6-1.61 1.41.5 4.16 2.29 2.98a33 33 0 0 0 4.13-3.23c1.92-.36 3.7-1.84 5.02-3.14a23 23 0 0 0 4.35-6.19c2.56-5.18 4.09-10.85 5.37-16.46.32-1.4.64-2.86 1.55-4.01q.33-.4.7-.76c2.4-.92 4.61-2.29 6.83-3.56 1.73-.98 3.83-2.6 3.05-4.9m-6.58 1.3-.48.4-.13-.35zm-82.28-91.88q.43-1.6.43-3.34c-.02-1.9-2.64-1.78-2.87 0l-.24 1.82c-.99 4.42-4.73 8.03-6.58 12.08-2.06 4.49-1.69 9-.17 13.36q0 2.62.53 5.22c.28 1.3 2.15 2.18 3.27 1.33 4.9-3.7 4.74-9.2 4.65-14.8-.09-5.24.34-10.48.98-15.67m218.77 140.24a12 12 0 0 0-.83-3.92.7.7 0 0 0-.45-.4c-.37-1.18-2.02-.77-2.13.37l-.02.27a1.6 1.6 0 0 0-1.27.98 39 39 0 0 1-9.15 13.38c-4.1 3.82-9.43 6.13-13.35 10.15-7.41 7.59-7.7 18.84-6.26 28.7.1.78 1.04.9 1.6.55.23.94 1.72.75 1.69-.22-.19-5.92 4.49-9.71 9.06-12.52 4.46-2.75 9.03-5.17 12.4-9.3a36 36 0 0 0 6.44-12.63 51 51 0 0 0 2.37-14.88q0-.3-.1-.53m-54.34 64.84c-4.63-3.79-11.32-4.4-16.85-2.38-1.6.31-3.19.7-4.75 1.07a47 47 0 0 1-15.6 1.31 58 58 0 0 1-15.37-3.78 88 88 0 0 1-16.23-8.5c-1.64-1.06-3.7 1.05-2.67 2.68 5.37 8.62 14.15 14.1 23.37 17.88 5.2 2.12 10.68 3.68 16.31 3.97a31 31 0 0 0 8.58-.7c2.64-.61 5.15-1.68 7.8-2.26 6.23-1.35 11.12 2.68 15.66 6.34 1.56 1.26 3.42.72 4.17-1.1 2.12-5.14-.3-11.14-4.42-14.52M1057 611.27c-2.17-1.23-4.7-1.68-7.26-1.82-3.54-.2-7.95-.46-10.91 1.81-1.71 1.31-1.54 3.75.59 4.52 6 2.16 12.7 2.85 19.05 2.47 1.4-.09 2.55-1.11 2.57-2.58.04-2.62-1.89-3.81-4.05-4.4m15.54-19.53c-2.53-1.04-4.44 1.79-5.5 3.65-1.03 1.81-2.1 4.19-1.82 6.32.3 2.28 2.52 3.8 4.7 2.67 1.97-1.02 3.56-4.1 3.54-6.24v-.04q.63-2.03.74-4.19c.06-1.07-.76-1.8-1.66-2.17m-101.38-63.66c-2.5-1.45-3.97 2-4.48 3.85a15 15 0 0 0-.46 2.3 25 25 0 0 0-.63 4.87c-.17 2.18-.02 5 2.54 5.25 1.48.14 2.28-.8 2.75-2.04a2.6 2.6 0 0 0 .8-2.7c.37-1.4.56-2.86.71-4.08.25-2.04.92-6.2-1.23-7.45m139.82 156.39c-2.17-.8-4.67 1.57-6.15 2.87a23 23 0 0 0-4.24 5.04 21 21 0 0 0-2.28 5.1c-1.88 2.8-3.18 6.55-3.01 9.85a1.5 1.5 0 0 0 2.17 1.3c.66.64 1.63.88 2.6.2a42 42 0 0 0 11.13-11.5c1.33-2.07 2.56-4.32 2.72-6.82.14-2.15-.69-5.2-2.94-6.04" style="fill:#6fc194"/></svg>