<svg xmlns="http://www.w3.org/2000/svg" xmlns:xlink="http://www.w3.org/1999/xlink" xml:space="preserve" viewBox="294 202.3 138.5 191.6"><defs><path id="a" d="M0 0h500v500H0z" transform="matrix(-1 0 0 -1 500 500)"/></defs><clipPath id="b"><use xlink:href="#a" style="overflow:visible"/></clipPath><g style="clip-path:url(#b)"><path d="M303.83 214.58H426.5v173.33H303.83z" style="opacity:.26;fill:#00609b" transform="matrix(-1 0 0 -1 730.33 602.5)"/><path d="M300 208.33h122.67v173.33H300z" style="fill:#f3f3e9" transform="matrix(-1 0 0 -1 722.67 590)"/><path d="M315.33 225.67h95.33v2.67h-95.33z" style="opacity:.26;fill:#00609b" transform="matrix(-1 0 0 -1 726 454)"/><path d="M315.33 235.67h95.33v2.67h-95.33z" style="opacity:.26;fill:#00609b" transform="matrix(-1 0 0 -1 726 474)"/><path d="M315.33 245.67h95.33v2.67h-95.33z" style="opacity:.26;fill:#00609b" transform="matrix(-1 0 0 -1 726 494)"/><path d="M315.33 255.67h95.33v2.67h-95.33z" style="opacity:.26;fill:#00609b" transform="matrix(-1 0 0 -1 726 514)"/><path d="M315.33 265.67h95.33v2.67h-95.33z" style="opacity:.26;fill:#00609b" transform="matrix(-1 0 0 -1 726 534)"/><path d="M315.33 275.67h95.33v2.67h-95.33z" style="opacity:.26;fill:#00609b" transform="matrix(-1 0 0 -1 726 554)"/><path d="M315.33 285.67h95.33v2.67h-95.33z" style="opacity:.26;fill:#00609b" transform="matrix(-1 0 0 -1 726 574)"/><path d="M315.33 295.67h95.33v2.67h-95.33z" style="opacity:.26;fill:#00609b" transform="matrix(-1 0 0 -1 726 594)"/><path d="M315.33 305.67h95.33v2.67h-95.33z" style="opacity:.26;fill:#00609b" transform="matrix(-1 0 0 -1 726 614)"/><path d="M315.33 315.67h95.33v2.67h-95.33z" style="opacity:.26;fill:#00609b" transform="matrix(-1 0 0 -1 726 634)"/><path d="M315.33 325.67h95.33v2.67h-95.33z" style="opacity:.26;fill:#00609b" transform="matrix(-1 0 0 -1 726 654)"/></g></svg>