<svg xmlns="http://www.w3.org/2000/svg" xml:space="preserve" viewBox="2684.9 491.7 810.8 943.4"><circle cx="3094.7" cy="1021.61" r="278.95" style="fill-rule:evenodd;clip-rule:evenodd;fill:#927c9c"/><circle cx="3094.7" cy="1021.61" r="268.36" style="fill-rule:evenodd;clip-rule:evenodd;fill:#baa2d2"/><circle cx="3094.7" cy="1021.61" r="241.88" style="fill-rule:evenodd;clip-rule:evenodd;fill:#28130e" transform="rotate(-45 3094.7 1021.61)"/><path d="M2941.1 943.93c-99.03-79.37-177.57-168.99-229.52-271.9 98.5 76.44 210.37 186.35 284.25 201.28l144.78-37.08c20.32-94.12 45.57-178.38 84.74-234.82 26.43 104.94.1 192.29-44.14 273.66l-5.29 107.7c116.64-22.48 202.34-14.02 271.9 10.6-103.29 43.65-190.4 56.97-256.01 30 116.56 48.95 187 101.26 229.52 153.61-73.8-14.77-145.17-35.18-204.8-82.98l-42.38 58.26c146.6 83.92 96.67 150.2 185.39 233.05-105.87-31.84-173.68-101.74-213.63-199.5l-128.89-105.93c-121.8 65.57-217.78 76.27-301.9 61.79 94.75-38.26 157.72-90.63 284.25-114.76-87.86-.61-168.15-26.46-241.88-74.15 61.2-2.95 104.75-28.84 183.61-8.83" style="fill-rule:evenodd;clip-rule:evenodd;fill:#467e4f"/><path d="M3225.35 601.41c26.36 104.64.25 191.8-43.76 272.98l-33.57 13.22c48.76-88.73 72.36-184.76 77.33-286.2m-513.77 70.62c98.5 76.44 210.37 186.34 284.25 201.27l-24.05 27.16c-115.08-59.3-190.49-142.18-260.2-228.43m45.9 280.73c61.21-2.95 104.76-28.84 183.62-8.83l25.39 5.26 13.12 38.93c-66.2 9.84-141.08-4.24-222.13-35.37m-42.37 188.9c94.75-38.25 157.72-90.62 284.25-114.75l26.42 6.16c-125.33 71.03-227.72 105.36-310.67 108.6m644.42 243.65c-105.86-31.84-173.67-101.74-213.63-199.5l43.41 28.17c73.07 99.36 121.5 134.98 170.22 171.33m61.8-208.33c-73.8-14.77-145.17-35.18-204.8-82.98l-9.7 13.32-21.06-13 6.78-25.94c82.1 24.53 159.4 58.64 228.78 108.6m26.48-183.62c-103.28 43.66-190.38 56.98-256 30.02l34.21 32.8 30.92-2.76a984 984 0 0 0-65.13-30.04l-15.18-24.3c91.96 2.8 183.48 4.25 271.18-5.72" style="fill-rule:evenodd;clip-rule:evenodd;fill:#3e613d"/><path d="M3144.14 954.52c9.11-137.73 13.27-291.3-10.6-421.97-35.7 94.88-53.19 206.13-65.32 322.22-32.07-119.18-99.46-215.4-135.95-336.34-21.82 94.54 21.5 255.6 82.1 418.43-82.98-45.9-196.86-60.02-292.2-81.21 92.98 84.17 197.16 145.95 323.1 164.2-97.2 64.11-173.55 141.08-231.29 229.52 88.24-18.52 169.55-77.33 250.7-171.26 38 124.16 90.8 259.07 178.33 319.56-19.13-106.52-61.2-195.39-91.81-293.08 63.48 57.6 128.34 111.4 201.27 143.01-22.31-63.7-67.87-129.22-150.07-194.2l3.53-60.04C3320.6 950.56 3396.93 895 3469 838c-95.72 13.03-200.85 54-324.86 116.53" style="fill-rule:evenodd;clip-rule:evenodd;fill:#5aa965"/><path d="M3144.14 954.52c9.11-137.73 13.27-291.3-10.6-421.97-13.84 106.69-26.63 217.02-26.15 373.21zm-27.74-9.18c-4.6 19.82-51.66-9.4-56.26 10.42-63.66-145.17-101.06-313.42-127.87-437.33 36.5 120.94 152.06 307.73 184.13 426.9m-46.76 12.78c-82.98-45.9-252.13-81.28-347.47-102.47 99.03 52.26 208.15 97.79 332.61 133.1 30.7 9.4 28.33-13.34 14.86-30.63m-26.07 62.85c-96.4 63.9-172.18 140.48-229.59 228.4 84.57-56.09 156.3-125.02 226.67-195.3zm21.12 57.14c38 124.16 90.8 259.07 178.32 319.56-59.65-98.48-111.38-201.87-141.35-318.73zm86.51 26.48 18.69-31.46c72.66 53.73 132.51 112.27 182.58 174.47-72.93-31.62-137.79-85.42-201.27-143m53.36-87.91 1.37-23.32C3320.6 950.56 3396.93 895 3469 838c-98.72 50.38-197.45 99.67-296.17 132.97l-.83 50.27z" style="fill-rule:evenodd;clip-rule:evenodd;fill:#6dc277"/><path d="M2968.47 1362.36c59.69-60.8 93.95-179.72 118.29-321.33 54.56 152.87 118.41 166.37 179.56 215.84-44.67-79.88-80.25-162.07-154.84-251.15l5.3-28.24c93.04-50.92 151.8-132.68 197.73-226-87.45 43.48-166.12 101.76-208.77 220.7-66.61-115.18-141.93-182.9-218.05-246.3 26.56 92.27 29.32 189.29 179.2 256.89-79.85-7.23-126.21 15.1-165.95 43.25 44.85 23.79 96.96 27.16 167.72-22.06-131.38 135.35-66.8 238.93-100.19 358.4" style="fill-rule:evenodd;clip-rule:evenodd;fill:#84e38f"/><path d="M3314.52 751.48c-87.46 43.48-174.28 87.98-216.93 206.92-2.07-3.58 1.88 23.88-.2 20.39l3.18 3.7c74.3-64.8 145.3-143.6 213.94-231m-426.83-25.6c26.56 92.26 29.32 189.29 179.2 256.89-79.85-7.23-126.21 15.1-165.95 43.25 59.58-10.88 98.42.89 178.76-32.66l-12.8-10.6c5.37-4.65 21.99-5.92 27.36-10.58-93.67-47.17-155.7-148.48-206.57-246.3m80.78 636.48c39.66-86.66 57.3-241.97 113.38-357.61l4.91 36.28c-24.35 141.6-58.6 260.54-118.29 321.33m297.85-105.49c-44.67-79.88-80.25-162.07-154.84-251.15l-16.78 15.9c47.32 84.23 102.04 164.12 171.62 235.25" style="fill-rule:evenodd;clip-rule:evenodd;fill:#aafab3"/><path d="M3067.78 660.56c-23.03 90.66-18.65 192.69 26.48 311.62-76.27 22.52-103.52 74.96-113.87 137.71 50.49-17.12 94-46.12 120.93-103.28 84.02 75.25 148.16 89.53 196.86 56.5-29.33-42.82-95.57-68.72-181.4-85.63 6.34-122.36-10.62-227.52-49-316.92" style="fill-rule:evenodd;clip-rule:evenodd;fill:#affcb8"/><path d="M3094.26 972.18c-76.27 22.52-103.52 74.96-113.87 137.71 32.3-53.43 68.85-101.23 113.87-137.7m5.79-.39c40.93 122.36 157.5 130.56 198.14 91.3-118.25-14.26-138.16-62.23-198.14-91.3m15.6 2.32c13.27-118.38-2.38-227.88-47.87-313.56 8.36 108.55 15.97 217.48 47.87 313.56" style="fill-rule:evenodd;clip-rule:evenodd;fill:#98e8a2"/><path d="M3239.92 951c-46.92 55.31-91.97 69.44-134.18 21.18 45.37-36.62 89.98-38.6 134.18-21.18" style="fill-rule:evenodd;clip-rule:evenodd;fill:#affcb8"/><path d="M3039.59 1408.4c-33.76-159-14.68-293.62 61.74-401.8 8.92 153.19-5.69 291.01-61.74 401.8" style="fill-rule:evenodd;clip-rule:evenodd;fill:#5aa965"/><path d="M3101.33 1006.6c8.93 153.18-5.69 291.01-61.74 401.8 3.9-134.25 31.4-268.05 61.74-401.8" style="fill-rule:evenodd;clip-rule:evenodd;fill:#6dc277"/><path d="M3105.74 972.18c-49.53 49.57-43.06 115.15-26.48 183.62 34.57-44.05 55.55-97.15 26.48-183.62" style="fill-rule:evenodd;clip-rule:evenodd;fill:#98e8a2"/><path d="M3239.92 951c-46.92 55.31-91.97 69.44-134.18 21.18-3.66 59.28-10.22 119.65-26.48 183.62 34.57-44.05 55.55-97.15 26.48-183.62 45.5 1.47 90.09-7.12 134.18-21.18" style="fill-rule:evenodd;clip-rule:evenodd;fill:#c4fccb"/></svg>