<svg xmlns="http://www.w3.org/2000/svg" viewBox="521.7 817.4 842.4 833.8"><path d="M1288.65 1090.89c27.32 41.17 39.1 92.39 32.5 141.38-6.59 48.99-31.46 95.26-68.7 127.76 24.36 22 41.27 61.87 39.68 101.37 18.22 6.71 30.86 34 26.37 57.56s-22.7 42.7-43.86 54.03c-21.12 11.32-45.11 16.02-68.73 20.14-178.59 31.29-364.9 39.71-539.11-10.59-37.42-10.8-76.58-26.16-98.2-58.54-21.57-32.38-14.25-85.83 22.53-98.68-7.78-40.8 8.67-73.53 35.13-93.8-62.96-62.6-75.36-169.76-28.35-245.08-36.6-68.37-14.9-150.48 41.08-192.96 55.98-42.5 140.86-41.36 205.81-.83 57.78-21.33 122.88-22.22 189-.3 45.17-28.57 98.73-46.06 151.93-41.27 53.2 4.8 105.45 34.1 130.7 81.19 25.24 47.1 18.58 111.37-27.78 158.62" style="fill:#f2e9e1"/><path d="M1232.92 1454.32a233.5 233.5 0 0 0-60.9-106.31c39.53-25.95 70.82-71.42 82.11-121.66s2.44-104.72-24.17-148.83c33.3-27.13 44.28-70.84 29.51-105.3s-54.02-56.65-91.17-51.52c-33.85 4.67-61.59 28.6-85.4 53.1-90.62-32.65-185.08-34.54-272.32-10.07-20.66-30.43-50.7-45.38-81.18-45.63-21.16-.18-42.4 6.5-59.37 19.14-22.59 16.79-37.05 44.04-38.3 72.16-1.26 28.1 10.77 56.55 31.8 75.26-22.59 46.37-30.28 95.6-21.55 141.9a208.8 208.8 0 0 0 69.8 119.74c-22.55 23.07-44.62 47.64-67.11 86.28 189.93 52.23 391.44 62.06 588.25 21.74" style="fill:#d09b7c"/><path d="M999.79 1161.6a177.6 177.6 0 0 0-119.16.99c-12.2 4.51-24.11 10.53-33.42 19.62s-15.78 21.67-15.45 34.67c.34 13.19 7.57 25.52 17.5 34.25 9.91 8.73 22.24 14.16 34.79 18.25a199 199 0 0 0 95.35 6.69c20.08-3.51 40.75-10.96 53.3-27.01a53.7 53.7 0 0 0 8.96-47.74c-4.85-16.12-17.27-31.07-41.87-39.71m-303.05-119.74c-9.47-12.94-12.64-30.49-7.45-45.69 5.16-15.17 18.83-27.38 34.64-29.94 15.84-2.57 33.06 5.03 41.12 18.9-27.17 12.26-50.34 33.1-68.31 56.73m429.56-51.58c12.03-9.13 25.49-17.1 40.41-19.35 14.93-2.3 31.53 2.04 40.96 13.82 6.87 8.58 9.25 20.18 8.25 31.14-1.04 10.95-5.16 21.4-10.2 31.19-6.71-14.96-18.9-26.89-32.57-35.9-13.7-9-28.93-15.32-46.85-20.9" style="fill:#e9c4ae"/><path d="M927.79 1392.33c-10.6-14.56-32.93-25.98-50.73-28.79-5.31-.85-11.48-.76-15.1 3.18-2.6 2.8-3.21 6.86-3.64 10.65q-1.45 12.9-1.9 25.91c-.39 11.88-.02 28.72 11.42 31.8 25.76 6.9 49.75-18.83 58.45-23.95 23.05 22.92 48.8 28.23 60.56 21.58 10.38-5.86 13.18-36.02 11.32-50.82-2.44-19.3-9.49-23.9-23.28-18.07-14.63 6.22-31.6 15.26-47.1 28.5" style="fill:#faba3c"/><path d="M839.1 1107.4c-1.69-.98-3.58-.76-5.38-.3a142 142 0 0 0-17.4 6.07 148 148 0 0 0-30.95 17.3 5.4 5.4 0 0 0-2.5 3.24c-1.4 4.49 4 8.64 8 6.14 16.39-11.75 29.14-17.34 46.94-22.71 4.43-1.1 5.28-7.57 1.28-9.74" style="fill:#511239"/><path d="M838.15 1116.13c-2.02-1.19-4.3-.64-6.41 0a117 117 0 0 0-37.6 18.71c-2.33 1.92-5.78 3.54-5.68 7.02-.16 4.67 6.07 7.27 9.27 3.85 1.6-2.32 22.5-14.62 24.51-14.74 5.25-2.6 11.33-3.42 16.45-6.05 3.06-2.01 2.63-7.08-.55-8.79m258.62 48.41c-.25-2.26-1.95-3.97-3.36-5.62a111 111 0 0 0-27.32-22.34c-4.45-1.98-8.94-6.17-14-5.55-4.52 1.1-5.4 7.72-1.32 9.95 16.82 7.56 25.3 15.44 37.88 28.53 3.78 2.6 9.25-.18 8.12-4.97" style="fill:#511239"/><path d="M1098.5 1150.71a164 164 0 0 0-33.6-21.88c-1.78-1.04-4.31-1-5.9.43-2.99 2.04-2.62 7.02.55 8.72 11.32 5.5 23.44 13.74 30 19.23 2.17 1.77 4.7 4.1 7.73 3.2 4.6-1 4.64-7.2 1.22-9.7m-132.53 27.84c-8.24-3.75-17.7-4.67-26.61-3.33-1.96.43-4.16.76-6.3 1.28l-8.23.89c-4.12.33-8.58 1.86-10.75 5.64a9 9 0 0 0 2.14 11.2c3.6 3.18 8.52 3.73 13.1 4.04 11.13.82 22.46.67 33.5-1.16 10.08-1.96 12.73-13.74 3.15-18.56m182.53-185.24c-1.44-5.46-2.82-10.96-4.34-16.39a2.8 2.8 0 0 0-1.31-1.7c-2.1-1.35-4.98.85-4.25 3.26a464 464 0 0 0 4.19 14.13c.45 1.31.52 2.96 1.83 3.72 1.92 1.2 4.58-.82 3.87-3.02m10.2-3.23c-1.47-5.9-2.84-11.79-4.28-17.68a2.8 2.8 0 0 0-1.28-1.67c-2.04-1.29-4.82.82-4.09 3.14q3.67 14.05 7.2 28.11c.25 1.68 2.02 3 3.64 2.23a2.6 2.6 0 0 0 1.58-2.35c-.7-3.97-1.89-7.85-2.77-11.78m19.35 20.29c-1.4-4.64-9.74-32.53-11.2-37.14-.98-3.76-6.87-2.14-5.8 1.59 1.68 4.9 9.86 33.17 11.69 38.03.46 1.7 1.89 3.41 3.84 2.83 2.41-.7 2.23-3.41 1.47-5.3m-467.6 16.51c-1.31-1.78-4-1.5-5.95-2.11-4.98-.8-9.92-2.14-14.9-2.63-2.83.22-3.1 4.61-.36 5.25 6.38 1.04 12.73 2.35 19.14 3.15 1.76.06 3.02-2.14 2.07-3.66m4.95-11.57c-3.21-.8-26.4-7.24-29.7-7.42-3.18.24-3.48 5.13-.4 5.86 4.21.98 28.42 7.36 32.69 7.78a2.3 2.3 0 0 0 1.77-1.03c2.2-3.2-1.8-4.67-4.37-5.2m13.16-6.49c-4.73-1.8-9.64-3.12-14.34-4.98-8.22-2.9-14.14-5.92-22.26-9.3-3.3-.65-4.97 4.27-2.01 5.85a248 248 0 0 0 28.78 11.39c3.39.55 9.9 5 11.42-.03.24-1.25-.58-2.32-1.59-2.93m-46.21 240.48c-.73-2.93-1.92-5.7-3.11-8.49-1.8-3.26-2.35-7.6-5.1-10.16-4.36-3.78-11.05 2.14-7.97 6.99 2.23 4.91 4 10.04 6.69 14.71 3.02 7.17 11.96 4.61 9.49-3.05m14.74 26.7c-.12-.15-.18-.2-.24-.3l-.43-.58c-2.65-3.63-.27-2.65-4-5.77-4-2.5-9.37 1.65-8 6.14 2.6 6.13 7.67 13.61 14.93 13.88a4.6 4.6 0 0 0 4.61-4.6c-.12-4.19-4.6-5.83-6.87-8.76m12.06-17.13c-.73-2.71-2.05-5.22-3.11-7.81-1.47-2.63-1.9-6.2-4.28-8.15-4.4-3.78-11.08 2.14-8 7.02 1.99 4.3 3.55 8.82 5.86 12.97 2.97 5.16 11.15 1.71 9.53-4.03m531.45-113.38c-1.92-5.44-10.62-3.64-10.41 2.1.24 4.7.21 9.43 1.1 14.07.34 4.1 2.29 9.28 7.3 6.84 2.44-1.35 2.22-4.43 2.56-6.84.3-5.31.55-10.99-.55-16.18m-8.64 39.07c-.61 5.86-6.8 20.05 3.97 18.99 2.71-.77 4.12-3.64 4.4-6.26.48-4 1.89-8.03 1.86-12.06-.43-5.52-8.98-6.04-10.23-.67m-10.2-18.37c-2.1-3.88-8.39-3.05-9.43 1.22-1.22 6.01-4.33 12.03-3.78 18.19 1.56 5.28 8.76 4.27 9.92-.76 1.43-4.86 2.6-9.77 3.81-14.68a5 5 0 0 0-.52-3.97M668.2 1433.16c-2.5-3.87-4.61-8.15-7.45-11.75-2.29-1.98-5.74 1.1-4.15 3.63 2.72 3.45 5.25 9.65 8.64 11.94 2.16.7 4.15-1.9 2.96-3.82m8.58-6.31-10.23-16.3a2.8 2.8 0 0 0-1.62-1.25c-2.23-.7-4.3 1.98-3.05 3.96 6.26 8.95 11.3 19.2 18.22 27.5 1.56.77 3.48-.58 3.45-2.29-1.34-4.18-4.67-7.69-6.77-11.62m21.67 13.15c-8.28-14.16-16.82-28.2-25.34-42.21-1.77-3.15-6.74-.3-4.85 2.84a2620 2620 0 0 0 24.5 40.77c.92 1.29 1.47 3.18 3.15 3.67 3.09.73 4.46-2.9 2.54-5.07" style="fill:#511239"/><path d="M1001.04 1397.67a5.33 5.33 0 0 1-5.34-5.34 5.33 5.33 0 0 1 5.34-5.34c87.02 0 150.9-20.58 195.31-62.94 50.67-48.32 72.52-121.9 55.73-187.47-11.75-45.78-41.96-88.48-85.1-120.22-36.92-27.2-83.6-46.85-138.62-58.48-81.07-17.13-158.32-12.27-223.42 14.04-73.9 29.88-130.58 88.57-151.58 157-22.83 74.38.25 158.07 56.1 203.52 35.41 28.82 84.73 44.87 146.6 47.7a5.35 5.35 0 0 1-.49 10.68c-64.19-2.92-115.62-19.77-152.85-50.08-59.15-48.13-83.63-136.49-59.58-214.93 21.94-71.48 80.91-132.71 157.77-163.78 67.05-27.1 146.47-32.17 229.61-14.6 56.53 11.94 104.57 32.24 142.75 60.32 45.12 33.2 76.77 78.01 89.13 126.18 17.76 69.25-5.28 146.93-58.7 197.87-46.48 44.32-112.77 65.87-202.66 65.87" style="fill:#511239"/><path d="M876.73 1441.59c-3.36 0-6.78-.4-10.23-1.34-16.48-4.43-15.72-27.35-15.38-37.15.3-8.73.94-17.61 1.92-26.31.52-4.55 1.34-9.74 5-13.67 4.28-4.64 10.96-6.26 19.88-4.86 16.2 2.57 37.78 12.33 50.63 26.53 12.7-10.1 27.56-18.8 44.32-25.89 8.12-3.41 14.56-3.66 19.66-.73 5.95 3.42 9.43 10.74 10.98 23.04 1.47 11.54.86 47.77-13.98 56.13-13.12 7.42-39.46 2.94-63.73-19.35l-3.2 2.5c-9.8 7.76-26.77 21.1-45.87 21.1m-4.74-73.13c-2.44 0-4.79.46-6.13 1.89-1.47 1.59-1.9 4.64-2.23 7.63a341 341 0 0 0-1.86 25.49c-.37 10.4.03 24.48 7.48 26.46 17.97 4.82 35.98-9.34 46.73-17.8 3.1-2.44 5.55-4.36 7.63-5.58a5.35 5.35 0 0 1 6.47.82c22.43 22.35 45.6 25.58 54.17 20.73 6.66-3.76 10.66-29.64 8.64-45.48-1.34-10.56-3.84-14.07-5.7-15.14q-3-1.72-10.17 1.31c-17.61 7.45-33.02 16.76-45.75 27.62a5.2 5.2 0 0 1-4.1 1.26 5.4 5.4 0 0 1-3.69-2.17c-8.97-12.36-29.3-23.8-47.24-26.65-1.32-.24-2.78-.4-4.25-.4" style="fill:#511239"/><path d="M975.59 1484.84c-64.68 0-120.23-4.83-163.94-10.72-102.7-13.85-164.24-36.44-164.85-36.68a5.34 5.34 0 0 1-2.87-7.48c15.78-30.16 43.07-63.52 69.5-84.95a5.34 5.34 0 1 1 6.72 8.3c-23.81 19.33-48.32 48.69-63.8 76.13 38.65 12.76 264.7 79.9 570.46 20.42a217.6 217.6 0 0 0-55.36-93.61 5.35 5.35 0 1 1 7.56-7.57 228.3 228.3 0 0 1 59.68 103.96 5.3 5.3 0 0 1-.65 4.18 5.4 5.4 0 0 1-3.47 2.4 1330 1330 0 0 1-258.98 25.62m258-402.44a5.33 5.33 0 0 1-4.15-8.73c17.15-21 27.31-45.35 28.6-68.58 1.43-25.79-8.64-51.27-26.22-66.54-19.48-16.87-48.84-22.52-76.55-14.7-25.12 7.07-46.91 22.8-64.7 46.7a5.35 5.35 0 0 1-8.59-6.39c19.23-25.85 42.92-42.85 70.39-50.6 31.16-8.76 64.28-2.3 86.44 16.9 20.35 17.62 31.53 45.73 29.9 75.21-1.4 25.49-12.41 52.04-31 74.78a5.3 5.3 0 0 1-4.12 1.95m-569.36 10.23a5.3 5.3 0 0 1-3.66-1.46c-28.2-26.59-39.44-69.32-27.93-106.31s44.99-65.84 83.3-71.7 78.9 11.57 100.96 43.43a5.4 5.4 0 0 1-1.34 7.45 5.4 5.4 0 0 1-7.45-1.34c-19.8-28.57-56.22-44.23-90.56-38.95-34.37 5.28-64.4 31.13-74.72 64.31s-.24 71.52 25.06 95.35a5.32 5.32 0 0 1-3.66 9.22m279.95 191.07a233 233 0 0 1-60.28-7.94c-26.5-7.05-43.31-18.37-51.43-34.52-8.64-17.21-5.8-40.32 7.08-57.56 10.44-13.95 26.8-24.27 48.65-30.68 41.33-12.09 89.58-7.78 125.93 11.23 22.1 11.57 36.17 32.81 35.8 54.12-.3 17.92-11.23 36.1-28.5 47.52-13.37 8.82-29.88 14.04-51.95 16.42a227 227 0 0 1-25.3 1.4m-54.48-125.57 1.5 5.13c-19.6 5.74-34.1 14.74-43.1 26.83-10.5 14.07-12.95 32.69-6.08 46.36 6.66 13.28 21.28 22.77 44.62 29a223 223 0 0 0 81.68 6.25c20.33-2.2 35.35-6.86 47.22-14.7 14.38-9.5 23.47-24.37 23.68-38.8.34-19.66-14.86-36.5-30.06-44.47-33.97-17.8-79.17-21.83-117.97-10.44z" style="fill:#511239"/><path d="M945.5 1202.42c-3.24 0-5.84-.13-7.24-.22-12.15-.76-32.54-3.75-32.54-15.44 0-3.27 1.4-7.88 8.09-11.39 14.46-7.57 49.72-6.47 61.87 1.96 5.43 3.78 5.76 8.27 5.46 10.62-1.59 12.67-23.32 14.47-35.65 14.47m-28.91-16c3.38 2.96 20.63 6.78 38.88 4.86 10.47-1.1 14.2-3.57 14.96-4.52-3.12-4.06-27.75-8.42-45.82-3.97-5.4 1.31-7.44 2.93-8.02 3.63" style="fill:#511239"/><path d="M970.12 1237.03a35 35 0 0 1-14.8-3.24 36 36 0 0 1-17.37-18.19c-5 6.75-11.41 13.25-19.78 17.3-12.63 6.11-30.76 4.74-39.28-8.11a5.32 5.32 0 1 1 8.91-5.86c5.2 7.88 17.4 8.42 25.7 4.4 10.32-5.01 17.34-15.45 22.28-24a5.34 5.34 0 0 1 9.99 2.7c.03 9.15 5.83 18.27 14.1 22.15 8.27 3.9 19.01 2.53 26.06-3.3a5.33 5.33 0 1 1 6.78 8.25 35.7 35.7 0 0 1-22.59 7.9m-274.63-190.67a5.4 5.4 0 0 1-4.12-1.92 50.3 50.3 0 0 1-11.05-37.36c1.37-11.6 4.18-24 21.97-36.26 24.36-15.08 47.86-12.24 64.68 7.66a5.36 5.36 0 0 1-.64 7.54 5.36 5.36 0 0 1-7.54-.65c-16.97-20.05-36.9-14.13-50.67-5.61-13.95 9.64-16 18.28-17.21 28.6a39.4 39.4 0 0 0 8.67 29.3 5.33 5.33 0 0 1-.7 7.5c-.98.8-2.17 1.2-3.4 1.2m513.11-.7a5.35 5.35 0 0 1-4.85-7.57c4.91-10.72 9.8-23.32 8.7-35.71-1.13-12.55-6.84-19.75-19.7-24.85-23.77-9.46-45.29 3.36-56 11.84a5.37 5.37 0 0 1-7.5-.85 5.37 5.37 0 0 1 .85-7.51c21.3-16.88 45.57-21.76 66.57-13.37 16.48 6.56 24.87 17.3 26.37 33.82 1.34 14.9-4.1 29.15-9.62 41.14a5.3 5.3 0 0 1-4.82 3.06" style="fill:#511239"/><path d="M646.59 1529.3q-.62 0-1.25-.17a4.6 4.6 0 0 1-3.18-5.65 57 57 0 0 0 1.13-26.22 8 8 0 0 0-.52-1.74l-.76.64a159 159 0 0 0-23.93 26.52 4.6 4.6 0 0 1-5.7 1.47 4.56 4.56 0 0 1-2.45-5.34 328 328 0 0 1 18.5-50.3 4.58 4.58 0 0 1 8.3 3.85 308 308 0 0 0-10.96 26.7q4.87-5.09 10.14-9.76c1.34-1.2 4.18-3.7 8.02-3.3 1.99.21 6.75 1.53 8.3 9.52a66 66 0 0 1-1.3 30.43 4.46 4.46 0 0 1-4.34 3.36m68.03 48.19a4.58 4.58 0 0 1-4.4-5.86q1.19-4.06 2.6-8.09l6.96-21.67c-.03-1 .28-2.04.92-2.87l2.04-6.38c-1.5.95-3.05 1.84-4.64 2.57-7.48 3.45-14.8 3.14-19.62-.8a13.4 13.4 0 0 1-4.77-8.08 47 47 0 0 1-15.71 8.02q-8.8 2.52-13.86-1.64c-6.23-5.16-4.21-14.53.82-20.73a44 44 0 0 1 27.56-15.6 4.58 4.58 0 0 1 1.31 9.07 34.6 34.6 0 0 0-21.76 12.3c-2.35 2.9-3.38 6.8-2.1 7.9.82.7 2.87.68 5.5-.09 9.18-2.65 17.36-9 22.3-17.18q.59-1.1 1.26-2.23a4.6 4.6 0 0 1 6.16-1.68c2.17 1.2 3 3.9 1.83 6.1q-.54 1.05-1.13 2.05c-1.98 3.82-5.37 11.6-1.58 14.71 2.4 1.99 6.86 1 9.98-.42a31 31 0 0 0 16.2-18.2 4.59 4.59 0 0 1 8.7 2.84l-2.84 8.82q.79-1.02 1.62-2.04c1.04-1.28 3.45-4.3 7.36-4.52 3.08-.18 6.04 1.53 8.24 4.76 5.9 8.64 4 21.52-4.09 28.11-5.74 4.67-13.95 5.65-20.82 3.15q-4.08 8.12-7.1 16.7l-2.54 7.84a4.7 4.7 0 0 1-4.4 3.14m18.4-35.86c3.64.94 7.76.27 10.63-2.08 4.49-3.66 5.59-11.05 2.32-15.84q-.14-.23-.28-.36-.24.26-.58.7a140 140 0 0 0-12.08 17.58m29.94 40.07q-.61 0-1.22-.18a4.6 4.6 0 0 1-3.2-5.62q.6-2.2 1.24-4.39l11.85-41.36a4.56 4.56 0 0 1 8.33-1.07c3.14-4 7.97-8.11 13.22-8.85 3.3-.46 6.37.43 8.85 2.6 2.22 1.95 3.69 4.85 4.27 8.4a22.2 22.2 0 0 1-11.11 22.67 22.3 22.3 0 0 1-19.26.82 152 152 0 0 0-7.36 19.38l-1.22 4.28a4.6 4.6 0 0 1-4.4 3.32m17.1-35.19c3.47 1.28 7.56 1.16 10.76-.6a13.3 13.3 0 0 0 6.48-13.2c-.22-1.37-.68-2.46-1.25-2.95a1.7 1.7 0 0 0-1.56-.43c-2.41.34-5.98 3.3-8.3 6.9a135 135 0 0 0-6.14 10.28m38.65 44.26c-2.53 0-5.07-.43-7.45-1.28-5.37-1.96-9.18-5.95-10.43-11.02a4.54 4.54 0 0 1 3.35-5.53 4.54 4.54 0 0 1 5.53 3.36c.64 2.66 2.9 3.97 4.64 4.61 3.81 1.37 8.6.76 11.65-1.5 6.5-4.79 9-13.91 10.6-22.19l.48-2.5-1.3.98c-2.88 2.14-6.78 4.52-11.45 4.24a12 12 0 0 1-8.95-4.7c-4.36-5.55-4.6-14.77-3.35-21.58a4.57 4.57 0 1 1 9 1.62c-1.04 5.8-.4 11.78 1.56 14.28a2.9 2.9 0 0 0 2.29 1.23c1.7.09 3.93-1.38 5.43-2.48l2.07-1.5c4.28-3.1 6.48-4.82 7.2-7.07.1-1.38.1-2.78.07-4.34a4.58 4.58 0 0 1 9.1-.82c.4 2.6.33 4.85-.1 6.8-.33 4.28-1.13 8.1-2.04 12.55-.3 1.56-.67 3.2-1.01 5.04-1.92 10-5.13 21.15-14.13 27.8a22 22 0 0 1-12.76 4m84.7-22.43q-2.02.01-3.9-.61a9.3 9.3 0 0 1-5.68-5.38c-1.22-3.08-.52-6.13-.1-8a294 294 0 0 1 9.47-32.96 4.59 4.59 0 0 1 8.64 3.02 285 285 0 0 0-9.16 31.96c-.12.58-.49 2.17-.3 2.6.6.42 3.56.2 6.31-1.44a61.4 61.4 0 0 0 21.03-20.85 4.54 4.54 0 0 1 7.2-.79h.1q1.96.03 3.9.61c7.6 1.1 15.5.92 23.02-.52a4.54 4.54 0 0 1 5.34 3.63 4.55 4.55 0 0 1-3.63 5.34c-4.64.89-9.4 1.35-14.17 1.38a14.5 14.5 0 0 1 .98 6.1 15.8 15.8 0 0 1-5.55 10.93 15.7 15.7 0 0 1-11.63 3.9c-3.24-.3-5.98-1.67-7.72-3.84a10.7 10.7 0 0 1-2.17-7.11 70 70 0 0 1-12.06 9.06 20 20 0 0 1-9.92 2.96m33.54-23.17-1.92 8.6c-.7 3.09-.43 3.82-.3 4 .09.1.58.37 1.43.46a6.5 6.5 0 0 0 4.8-1.7 6.4 6.4 0 0 0 2.37-4.5 6.5 6.5 0 0 0-1.89-4.7 7 7 0 0 0-2.62-1.82q-.95-.2-1.87-.34" style="fill:#e35a26"/><path d="M885.15 1534.99a4.56 4.56 0 0 1-4.55-4.22 4.56 4.56 0 0 1 4.18-4.94c9.04-.76 26.4-3.9 35.13-6.38a4.56 4.56 0 1 1 2.5 8.79c-9.12 2.6-27.4 5.92-36.86 6.72l-.4.02m122.73 28.36q-1.15 0-2.26-.28a8 8 0 0 1-5.83-5.18 4.55 4.55 0 0 1 2.84-5.74l5.07-1.8c-.5-1.13-1.2-2.3-1.93-3.54q-.7-1.14-1.31-2.26c-3.45-6.26-4.18-12.58-2.01-17.77a14.2 14.2 0 0 1 8.82-7.87c3.45-1.04 6.9-.58 9.7 1.28a4.57 4.57 0 1 1-5.1 7.6c-.6-.4-1.4-.28-1.95-.12a5 5 0 0 0-3.02 2.62c-1.5 3.6.6 8.1 1.56 9.83q.55 1 1.16 1.95a35 35 0 0 1 2.71 5.22l18.31-6.47c-1.25-7.32 1.65-15.44 7.79-21.24a11 11 0 0 1 4.4-2.75 8.8 8.8 0 0 1 6.98.83 11.8 11.8 0 0 1 5.5 7.23c1.46 5.8-.98 12.45-6.26 17a27 27 0 0 1-5.19 3.48q.97.6 2.08.92c1.19.36 3.47.76 5.4-.58a4.6 4.6 0 0 1 6.38 1.12 4.6 4.6 0 0 1-1.13 6.38c-3.7 2.6-8.55 3.27-13.28 1.83a18.4 18.4 0 0 1-8.88-5.86l-21.7 7.67a10 10 0 0 1-2.5 3.96 9 9 0 0 1-6.35 2.54m41.57-37.66q-.2.12-.7.6c-3.27 3.09-5.16 7.2-5.2 11.02a19 19 0 0 0 3.61-2.38c2.17-1.86 4.06-5 3.33-7.78a2.8 2.8 0 0 0-1.04-1.46m42.82 27.86a21.2 21.2 0 0 1-13.89-5.07c-6.74-5.89-8.79-16.2-4.79-24.02 4.15-8.12 14.4-12.24 22.86-9.21q3.24 1.14 4.92 3.38c2.71 3.67 2.01 8.95-1.83 13.4a30 30 0 0 1-15.27 9.4q.09.06.16.13c3.6 3.14 9.43 3.72 13.8 1.34 2.22-1.22 5-.4 6.19 1.83 1.22 2.23.4 5-1.83 6.2a21 21 0 0 1-10.32 2.62m-1.65-30.12c-3.54 0-7.26 2.07-8.88 5.25a9.6 9.6 0 0 0-1.04 4.2 20.2 20.2 0 0 0 11.88-6.77 7 7 0 0 0 1.22-2.07l-.43-.19q-1.32-.43-2.75-.42m74.26 49.05a14 14 0 0 1-8.24-2.75 11.6 11.6 0 0 1-4.76-8.03 4.6 4.6 0 0 1 4.06-5.07 4.6 4.6 0 0 1 5.07 4.06c.09.8.76 1.4 1.13 1.71a4.5 4.5 0 0 0 3.38.86c2.41-.46 4.8-2.72 6.02-5.8 1.37-3.42 1.5-7.54 1.52-11.45q.03-4.5-.12-9.03c-4.06 2.8-9.03 4.12-13.73 3.26-10.17-1.86-14.66-9.61-14.5-25.15a4.6 4.6 0 0 1 4.58-4.54h.03a4.6 4.6 0 0 1 4.54 4.6c-.12 14.75 4.15 15.54 7 16.06 3.75.67 8.08-1.62 10.13-5.37q.69-1.27 1.06-2.72-.55-5.91-1.43-11.78a4.57 4.57 0 0 1 8.7-2.56 25.7 25.7 0 0 1 2.01 14.95q1 11.19.92 22.38c-.03 4.79-.22 9.88-2.2 14.8-2.41 6.01-7.36 10.4-12.88 11.41q-1.14.15-2.29.16m35.78-27.97c-4.34 0-8.49-1.98-10.75-5.64-1.83-2.96-2.04-6.32-2.04-8.58 0-6.9 2.04-13.91 5.77-19.71a4.6 4.6 0 0 1 2.2-1.8 4.56 4.56 0 0 1 4.36-7.11c8.7 1.12 19.26 1.61 23.71-4.61a4.58 4.58 0 0 1 8.18 3.69 21.6 21.6 0 0 0 3.67 17.55c1.19 1.59 2.07 1.98 2.23 1.98 0 0 .67-.21 1.89-2.28a41 41 0 0 0 5.28-14.41q.06-3.08.58-6.14a4.57 4.57 0 0 1 9.06.89q-.07 3.01-.52 5.98c0 2.93.4 5.9 1.2 8.7.88 3.2 2.56 4.82 3.01 4.82 1.16-.46 4.46-4.85 6.5-8.97a4.57 4.57 0 0 1 8.19 4.09c-2.02 4.06-7.45 13.55-14.08 14-4.11.31-7.8-2-10.31-6.25q-.53 1.01-1.16 2.02c-.89 1.5-3.63 6-8.6 6.62-3.89.52-7.7-1.5-10.75-5.62a31 31 0 0 1-5.77-14.53 33 33 0 0 1-10.53 2.2 26 26 0 0 1 4.12 16.55c-.61 6.31-3.76 11.78-8.36 14.58a13 13 0 0 1-7.09 1.99m1.4-31.06q-.1 1.07-.7 2.04a27.6 27.6 0 0 0-4.34 14.77q0 2.68.67 3.76c.86 1.37 3.67 1.7 5.44.64 2.13-1.28 3.66-4.21 4-7.63.48-4.91-1.53-10.04-5.07-13.58" style="fill:#e35a26"/><path d="M747.46 1199.82c-8.42 28.24 42.34 44.41 50.37 11.48 6.83-28.23-41.55-41.11-50.37-11.48m344.29 24.36c1.4 29.45 54.64 27.9 51.3-5.86-2.86-28.9-52.76-25.03-51.3 5.86" style="fill:#ce795c"/></svg>