<svg xmlns="http://www.w3.org/2000/svg" viewBox="580.6 777.8 870.2 784.5"><path d="M1308.54 1084.64a238 238 0 0 0 38.85-131.52c-.12-16.55-2.7-34.62-14.82-45.86-11-10.21-27.14-12.27-42.14-12.7a298 298 0 0 0-158.45 40.78c-24.3-8.83-53.43-16.75-82.37-15.82-18.48-28.37-36.68-59.5-63.88-81.83s-65.72-34.28-98.27-20.9c-31.19 12.83-49.8 45.37-59.5 77.68-9.72 32.3-13.03 66.52-25.7 97.83-17.3-15.17-40.68-15.67-60.13-6.93s-34.57 26.59-36.33 47.27c-30.52 4.31-58.86 22.16-75.97 47.77-11.82 17.7-18.37 39.91-13.26 60.57 5.1 20.65 23.85 38.44 41.67 35.1a210.6 210.6 0 0 0 13.93 128.07c17.87 39.85 48.6 73.77 89.7 97.9 4.05 24.4 28.32 43.69 53 42.13-15.73 9.68-19.84 32.48-11.91 49.18s25.14 27.44 43.04 32.01 36.68 3.82 55.14 3.02l265.5-11.35c19.13-.82 39-1.82 55.9-10.8s29.9-28.43 32.94-62.68c22.83 8.92 51.18.74 65.7-19.01s13.97-49.24-1.35-68.4a424 424 0 0 0 64.59-77.55c14.55-22.48 27.2-47.07 30.04-73.68 2.85-26.62-5.72-55.7-27-71.92-21.3-16.23-55.89-14.88-71.85 6.6 1.85-16.32.12-32.98-7.07-54.96" style="fill:#f2e9e1"/><path d="M1263.44 1092.5c25.4 48.33 24.64 109.48-1.94 157.16q-2.65-8.2-5.25-16.4a763 763 0 0 0-18.46 31.25c-1.38 2.4-2.88 4.96-5.37 6.19s-6.19.35-6.87-2.32c-12.05 4.5-22.91 11.77-33.74 19.02 49.88 28.87 81.54 70.68 93.22 117.78-159.89-2.44-321.22-6.16-482.51-9.89l2.93-19.34c-32.9-3.84-55.31-26.88-63.7-54.58q-1.77 6.74-3.5 13.44a52 52 0 0 1-17.9-42.9l-.58 18.28a266 266 0 0 1-22.5-165.31c-19.02 1.93-36.66-7.4-41.26-21.22-4.61-13.85 1.14-29.34 10.5-40.52 19.84-23.65 56.52-31.2 84.07-17.26 25.97 13.15 40.76 40.73 54.52 61.5.9-36.06 17.78-71.44 40.17-89.1a1060 1060 0 0 1 32.92-161.6c3.5-12.18 8.98-26.14 21.22-29.43 8.98-2.44 18.28 1.97 26.29 6.69 41.78 24.65 76.05 61.88 101.88 106.16 35.65-1.38 71.56 3.67 104.43 18.05a264.7 264.7 0 0 1 154.52-52.03c12.47-.11 27 1.85 33.33 12.6 6.28 10.67 1.09 24.17-4.2 35.4-17.72 37.63-35.41 75.3-52.22 118.38" style="fill:#7b98b6"/><path d="M846.97 1033.14a670 670 0 0 1 30.14-161.03c3.46-10.92 8.89-23.36 20.04-26 11.85-2.82 22.7 7.16 30.1 16.84a216 216 0 0 1 42.08 100.5c-38.88 8.25-75.24 27.96-122.36 69.7m327.5-36.78a302 302 0 0 1 117.75-53.25c8.6-1.82 19.57-2.3 24.06 5.28 3.2 5.4 1.3 12.26-.82 18.16-14.2 39.79-33.89 77.35-53.49 114.76-17.81-33.4-47.65-60.21-87.5-84.95" style="fill:#9abde1"/><path d="M966.07 1182c11.71-7.6 28.44-6.34 38.85 2.93-3.37 7.48-7.04 15.32-13.67 20.16s-17.22 5.34-22.21-1.17c-5.28-6.9-1.8-16.76-2.97-21.92" style="fill:#f5a1a6"/><path d="M995.24 1313.54c-13.44-.94-27.61.35-39.08 7.43-11.48 7.07-19.46 21.06-16.23 34.15 2.52 10.24 11.1 17.96 20.36 22.95 14.44 7.74 32.99 9.97 46.8 1.2 11.65-7.4 18-22.3 15.26-35.83-2.75-13.55-13.46-28.93-27.1-29.9" style="fill:#faba3c"/><path d="M942.57 1079.44c-9.27-5.8-22.89-3.05-29.2 5.9s-4.28 22.68 4.32 29.46 22.41 5.52 29.66-2.73c7.22-8.18 8.45-24.35-4.78-32.63m162.15 47.3c-9.27-5.8-22.89-3.05-29.2 5.9s-4.28 22.68 4.32 29.46 22.42 5.52 29.66-2.73c7.22-8.21 8.45-24.35-4.78-32.62" style="fill:#511239"/><path d="M851.78 1233.73a96.5 96.5 0 0 0 30.87 62.59c17.6 16.02 41.38 25.12 64.47 27.11a52.5 52.5 0 0 1 43.22-8.48c14.7 3.7 27.55 14.2 31.4 26.47 30.3 3.14 61.24 5.02 91.05-1.38s58.72-22.04 74-46c-101.2 13.93-231.13.23-335-60.31" style="fill:#ec707a"/><path d="M1027.17 1172.6c-.39.13-1.27.5-1.62.68l-.32.15c-12.12 4.31-23.12-1.26-25.7-13.97 0-.09-.04-.11-.04-.2q-.22-1.8-.14-3.61c3.7.38 7.45.17 11.06-.74 3.08-.85 6.34-1.96 8.8-4.07 1.56-2.09 1.12-1.38 1.44-2.62.73-2.49-1.58-4.87-4.08-4.57-3.4.52-4.4 1.81-5.37 2-6.72 3.1-20.5 2.34-27.08-5.94-3.67-3.63-9.25 1.94-5.6 5.6a31 31 0 0 0 13.02 8.58c-.44 1.05-.9 2.23-1.85 3.22-2.81 4.2-8.13 8.4-13.61 9.84-6.7 2.31-17.1-.48-21.13-3.9-3.02-3.15-7.8 1.43-4.75 4.57a28 28 0 0 0 15.9 6.95c-5.6 17.99-1.03 41.58 23.24 33.13 11.24-4.28 17.96-15.23 21.3-26.32 1.44.41 2.9.73 4.43.82 5.34.32 11.71-.38 15.8-4.08 2.14-2.46-.6-6.51-3.7-5.51m-41.94 30.23c-5.57 1.73-11.06.06-12.88-2.87-2.93-5.46-3.34-12.77-1.7-20.4a40.4 40.4 0 0 1 32.19 5.73l-.09.17c-2.37 6.43-10 15.9-17.51 17.37m-13.21 32.24c-.47-1.88-2.52-2.44-4.22-2.47-4.29-.29-1.62.42-6.17-1.02-.5-.27-1.52-.8-2.17-1.23l-.47-.42c-2.34-1.93-1.17-1.76-3.58-4.43-2.84-2.46-7.16 1.38-5.16 4.55 3.02 6.1 9.89 10.18 16.73 9.74 2.4-.11 5.8-1.79 5.04-4.72m385.1-60.71c-68.28-20.07-142.37-19.84-210.63.26-10 3.05-20.07 6.22-29.66 10.3-1.97 1.38-.35 4.75 2 4.02a371.3 371.3 0 0 1 235.91-10.1l8.45 2.41c.62.18 1.26.1 1.82-.23 4.67-4.4-5.22-5.46-7.9-6.66m-28.31 49.83c-1.29-1.62-3.7-1.89-5.42-2.88-55.17-22.19-116.26-29.32-175.12-21.48q-9.91 1.3-19.75 3.23c-.68.17-1.23.64-1.59 1.23-1.2 1.96.77 4.6 3.02 3.9 62.48-12 129.11-6.16 190.18 17.31 2.34.65 4.57 2.12 6.98 2.26 1.59-.11 2.58-2.17 1.7-3.58m-20.27 75.09c-42.2-37.3-95.1-62.09-150.3-72.65a338 338 0 0 0-23.65-3.55c-.7 0-1.35.3-1.85.76-1.61 1.56-.44 4.52 1.85 4.46 57.13 5.66 121.54 33.92 163.53 69.1 2.88 1.88 6.46 6.14 9.48 6.93 2.87-.06 3.26-3.73.94-5.05m-398.92-160.42c-31.78-59.06-88-105.78-153.08-123.18-2.2-.67-4.26 1.94-3.03 3.9 2.15 2.23 5.87 2.32 8.63 3.61a250.4 250.4 0 0 1 106.28 67.23 235 235 0 0 1 24.97 31.46c4.58 6.48 8.1 13.73 12.36 20.33 2.1 1.79 5.4-.97 3.87-3.35m-25.53 3.2c-47.39-41.25-108.22-68.1-171.19-71.8a2.56 2.56 0 0 0-2.43 3.2c1.14 3.08 6.63 1.85 9.33 2.64 36.27 3.99 76.14 15.9 109.04 34.1 12.4 6.57 28.43 17.2 37.35 24.23q7.18 5.55 13.97 11.54c.53.5 1.2.79 1.93.79 2.38.03 3.73-3.08 2-4.7m-34.57 12.97c-31.92-11.35-67.25-12.15-100.23-5.07a182 182 0 0 0-27.12 8.21c-.64.18-1.2.62-1.52 1.18-1.18 1.87.76 4.46 2.9 3.78 39.15-14.88 79.61-15.9 119.1-4.75 2.47.32 5.08 2.2 7.49 1.26 1.88-1.03 1.5-4.11-.62-4.6" style="fill:#511239"/><path d="M1044.54 1220c-6.4 14.14 32.07 24.82 36.06 11.68s-30.05-24.98-36.06-11.68m-161.98-47.5c-6.4 14.13 32.08 24.81 36.07 11.67 3.99-13.15-30.05-24.97-36.07-11.68" style="fill:#f9c7d5"/><path d="M983.24 1357.2c1.03-3.58-4.1-5.78-5.96-2.52a70 70 0 0 0-5.9 23.83c-.9 2.67 1.12 6.1 4.35 5.2 1.9-.5 3.02-2.56 2.64-4.44l-.06-.26q0-.36.03-.7a70 70 0 0 1 4.9-21.1" style="fill:#511239"/><path d="M962.61 1325.66c-3.81 1.2-7.07 4.29-7.98 8.25-1.06 3.28 2.14 6.6 5.2 4.34 2.96-3.6 1.84-3.93 4.54-5.34.1-.06.15-.06.2-.09 1.39-.44 2.62-1.58 2.68-3.08.53-2.52-2.2-4.81-4.64-4.08m-9.89 20.87c-2.14 4.16 2.8 7.62 5.17 3.31 2.81-4.43-3.11-8.1-5.17-3.31" style="fill:#fff7ed"/><path d="M742.98 1143.27c-8.51 0-15.44-6.34-18.6-12.89-3.3-6.72-3.7-14.05-4.05-20.54a5.12 5.12 0 1 1 10.24-.55c.32 5.78.64 11.73 3.02 16.6 1.82 3.76 5.8 7.37 9.89 7.1 3-.23 5.98-2.6 7.48-5.95 1.82-4.14 1.32-8.83.56-12.03a5.13 5.13 0 1 1 10-2.32c1.59 6.78 1.18 13.2-1.17 18.52-3 6.8-9.33 11.53-16.1 12.03z" style="fill:#511239"/><path d="M713.05 1150.19c-4.78 0-9.54-1.11-13.76-3.5-12.1-6.8-17.81-22.85-12.77-35.76a5.14 5.14 0 0 1 9.57 3.76c-3.2 8.18.56 18.77 8.24 23.09 7.66 4.31 18.67 2.05 24-4.93a5.14 5.14 0 0 1 8.16 6.22c-5.48 7.16-14.46 11.12-23.44 11.12" style="fill:#511239"/><path d="M682.3 1152.5c-5.75 0-11.62-1.7-16.52-5.24-9.4-6.75-15.06-19.08-15.17-32.93-.18-25.55 18.34-50.47 44.04-59.18 23.56-8.01 51.59-2.85 73.15 13.44 19.14 14.46 33.01 36.97 39.09 63.35a5.14 5.14 0 0 1-10 2.32c-5.52-24.06-18.05-44.46-35.28-57.46-18.9-14.26-43.28-18.83-63.64-11.91-21.66 7.34-37.24 28.11-37.06 49.38.09 10.6 4.13 19.81 10.88 24.68 6.46 4.64 17.35 4.81 22.3-1.88a5.15 5.15 0 0 1 8.28 6.1c-4.55 6.11-12.2 9.34-20.07 9.34" style="fill:#511239"/><path d="M805.33 1386.34q-.44 0-.94-.08c-25.32-4.64-47.8-21.54-60.38-43.9a5.13 5.13 0 0 1-7.69.23 69.5 69.5 0 0 1-16-27.87 5.1 5.1 0 0 1-5.01-2.59c-33.83-60.15-27.82-139.64-23.68-171a5.14 5.14 0 0 1 10.18 1.31c-3.67 27.76-8.86 94.34 14.94 149.45q.48-2.37 1.14-5.08a5.14 5.14 0 0 1 10.1 1.76 60 60 0 0 0 6.92 34.65l.23-5.04a5.14 5.14 0 0 1 10.15-.85c6.46 29.22 31.55 53.4 60.98 58.8a5.16 5.16 0 0 1-.94 10.21" style="fill:#511239"/><path d="M1286.32 1413.52q-.51 0-1.02-.12c-12.03-1.32-320.16-8.98-482-12.85a5.13 5.13 0 0 1-4.93-6.01 160 160 0 0 1 23.83-60.46 5.12 5.12 0 1 1 8.57 5.64 150 150 0 0 0-21.15 50.67c357.6 8.6 447.36 11.48 470.37 12.56-9.92-43.8-45.2-88.73-87.7-110.94a5.12 5.12 0 1 1 4.75-9.1c47.2 24.65 85.97 75.88 94.3 124.6a5.1 5.1 0 0 1-1.81 4.83 4.8 4.8 0 0 1-3.2 1.18" style="fill:#511239"/><path d="M1122.85 1305.44c-7.48 0-14.73-.23-21.56-.55a749 749 0 0 1-165.26-26.47c-24.21-6.72-52.17-15.82-76.03-32.1-21.19-14.47-36.56-33.07-44.46-53.47a5 5 0 0 1-4.7 1.53 5.1 5.1 0 0 1-4.13-4.34 130 130 0 0 1 .03-36.18q-.48.03-1-.03a5.1 5.1 0 0 1-4.28-3.7c-2.94-10.33-1.85-20.95-.59-29.05 7.84-49.73 40.29-97.33 86.8-127.32 41.43-26.7 93.2-40.46 150-39.73 53.02.68 102.76 13.91 143.84 38.3 45.45 26.96 79.52 67.19 95.92 113.26 17.58 49.38 13.44 104.4-11.12 147.18a5.15 5.15 0 0 1-9.18-.52l-2.12-4.9a130 130 0 0 1-25.82 36.2c-1.52 1.53-3.84 1.91-5.78 1s-3.14-2.93-2.93-5.07l.15-1.68c-13.77 10.95-31.2 18.9-51.18 23.24-15.55 3.4-31.54 4.4-46.6 4.4m-306.4-132.68c2.44 0 4.52 1.7 5.02 4.07 4.87 23.16 20.6 44.84 44.31 61 22.62 15.44 49.59 24.19 72.98 30.7a737 737 0 0 0 163 26.12c19.95.93 43.34 1.23 65.52-3.58 16.14-3.52 38.94-11.45 55.84-29.4a5.2 5.2 0 0 1 5.84-1.18c1.82.82 3 2.61 3.05 4.6 7.84-9.94 14-21 18.16-32.6a5.1 5.1 0 0 1 4.67-3.4 5.1 5.1 0 0 1 4.87 3.11l2.64 6.16c18.63-38.7 20.78-86.23 5.43-129.28-15.61-43.81-48.1-82.13-91.5-107.87-39.52-23.44-87.5-36.2-138.72-36.85-54.67-.7-104.58 12.47-144.31 38.09-44.08 28.43-74.83 73.38-82.22 120.27-.5 3.14-.97 6.7-1.12 10.42 1.09-1.64 2.2-3.35 3.44-5.05a5.15 5.15 0 0 1 6.54-1.61 5.1 5.1 0 0 1 2.5 6.25 120 120 0 0 0-6.67 40.05l.59-.06q.1.05.14.04m168.79 218.16a52 52 0 0 1-29.61-9.36c-9.5-6.63-16.14-16.17-18.22-26.14a39 39 0 0 1 3.84-26.06c10.42-19.9 35.71-24.39 55.28-18.55 20.48 6.1 34.48 23.1 33.28 40.44-1.12 16.14-12.5 30.95-28.32 36.82a47 47 0 0 1-16.25 2.85m-5.26-72.27c-12.06 0-24 4.63-29.66 15.46-3.14 5.99-4.2 13-2.9 19.2 1.55 7.45 6.68 14.66 14.05 19.83 10.85 7.6 24.8 9.62 36.41 5.31 11.91-4.43 20.84-15.9 21.66-27.9.85-12.39-10.3-25.24-25.97-29.9-4.29-1.3-8.95-2-13.59-2" style="fill:#511239"/><path d="M948.97 1330.21a6 6 0 0 1-1.56-.23c-21.98-7.02-46.89-14.94-66.99-30.11-22.8-17.22-35.65-42.49-33.5-65.96a5.13 5.13 0 0 1 10.2.94c-2.17 23.85 13.8 44.98 29.46 56.83 18.7 14.12 41.67 21.42 63.91 28.5a5.15 5.15 0 0 1-1.52 10.03m118.46 19.75c-15 0-29.5-1.18-42.85-2.58a5.14 5.14 0 0 1 1.06-10.22c26.23 2.76 57.01 4.67 86.56-2.02 29.14-6.6 60.95-27.85 69.49-46.42a5.14 5.14 0 0 1 9.33 4.28c-11.04 24-48.33 45.75-76.56 52.14-15.7 3.56-31.63 4.82-47.04 4.82m198.3-260.92a5.14 5.14 0 0 1-4.34-7.83 443 443 0 0 0 51.8-119.23c1.52-5.69 2.87-11.65.79-16.16-2.5-5.4-9.51-8.46-21.42-9.3a237.8 237.8 0 0 0-153.59 42.54 5.13 5.13 0 1 1-5.93-8.4 248 248 0 0 1 160.22-44.39c5.87.41 23.77 1.73 30.02 15.23 3.52 7.63 1.76 15.94-.18 23.15a454 454 0 0 1-53 121.98 5.2 5.2 0 0 1-4.37 2.4" style="fill:#511239"/><path d="M1176.85 999.57a5.14 5.14 0 0 1-3.35-9.07c33.72-28.58 104.4-58.92 135.71-52.31 7.6 1.58 12.8 5.22 15.52 10.8a5.14 5.14 0 0 1-9.24 4.48c-1.26-2.6-4.02-4.31-8.4-5.25-27.46-5.81-95.91 23.8-126.96 50.09a5 5 0 0 1-3.29 1.26m-328.23 37.53h-.08a5.16 5.16 0 0 1-5.05-5.22 495 495 0 0 1 33.83-170.8c3.35-8.57 7.6-17.05 16-20.84 10.47-4.72 21.59.15 30.13 4.9 44.22 24.7 81.3 63.15 104.46 108.19a5.15 5.15 0 0 1-9.16 4.7 252.5 252.5 0 0 0-100.32-103.94c-6.43-3.58-14.61-7.37-20.92-4.52-5.28 2.38-8.28 9.1-10.65 15.2a485 485 0 0 0-33.13 167.26 5.07 5.07 0 0 1-5.1 5.07" style="fill:#511239"/><path d="M970 968.41a5.2 5.2 0 0 1-4.98-3.87 304 304 0 0 0-38.3-88.8l-.88-1.37c-7.77-12.24-16.57-26.18-29.75-24.36a5.13 5.13 0 1 1-1.38-10.18c19.75-2.64 31.34 15.64 39.82 29.02l.88 1.38A315 315 0 0 1 974.99 962a5.1 5.1 0 0 1-3.72 6.22q-.6.18-1.26.18" style="fill:#511239"/><path d="M847.82 1493.56q-.47 0-.9-.08a5.14 5.14 0 0 1-4.2-5.61 91 91 0 0 1 6.13-24.27l4.66-18.37c.7-2.75 3.5-4.4 6.25-3.7q1.25.34 2.18 1.15a49 49 0 0 1 9.39-7.9c4.02-2.54 8.18-3.42 11.76-2.49 2.94.8 5.31 2.73 6.87 5.64 2.84 5.37 1.73 12.12.32 16.84a53 53 0 0 1-7.66 15.67l1.59.8c6.6 3.28 13.38 5.07 19.54 5.22a5.1 5.1 0 0 1 5.02 5.25 5.1 5.1 0 0 1-5.25 5.02c-7.81-.18-15.85-2.3-23.89-6.28l-1.82-.94q-1.28-.68-2.52-1.26c-4.46 3.64-9.48 5.98-14.73 6.69a5.1 5.1 0 0 1-5.6-3.64l-2.15 8.39a5.2 5.2 0 0 1-4.99 3.87m10.74-26.5-1.7 6.73a15.2 15.2 0 0 1 13.12-7.52q1.33.04 2.64.27a42 42 0 0 0 7.83-14.76c1.17-3.87 1.35-7.34.44-9.07-.03-.09-.26-.47-.41-.53-.44-.11-1.85.12-3.6 1.23-7.55 4.82-13.98 13.3-18.32 23.66m164.06 22.94a9 9 0 0 1-4.14-.97c-5.22-2.55-7.42-9-6.48-19.13l.06-.64a99 99 0 0 1-18.9 18.33 5.12 5.12 0 0 1-8.07-3.17c-3.11-16.01 2.05-32.1 7.51-45.71a5.13 5.13 0 0 1 9.54 3.81c-3.79 9.45-7.43 20.13-7.7 30.7a101 101 0 0 0 20.1-26.47 5.1 5.1 0 0 1 6.02-2.5 5.1 5.1 0 0 1 3.64 5.4l-1.96 21.22c-.5 5.4.23 7.98.67 8.77.2-.08.56-.2 1.03-.5 9.45-5.66 12.06-23.24 10.47-37.17a5.13 5.13 0 0 1 6.02-5.64 184 184 0 0 0 39.23 2.8 5.15 5.15 0 0 1 .38 10.27c-11.65.43-23.35-.21-34.95-1.89.44 15.26-3.4 33.02-15.87 40.47a13 13 0 0 1-6.6 2.02m68.48-.21a5.15 5.15 0 0 1-4.93-6.63l12-39.34a5.13 5.13 0 0 1 7.75-2.8c3.55-5.16 7.22-8.94 10.6-10a7.5 7.5 0 0 1 6.9 1.18c7.41 5.8 9.35 12.73 5.86 21.15a23 23 0 0 1-7.8 9.9l.4.52.6.73c3.04 3.93 6.33 6.37 9.2 6.84 2.76.44 5.46-1.17 7.1-4.25a5.17 5.17 0 0 1 6.96-2.12 5.17 5.17 0 0 1 2.11 6.96c-3.7 6.92-10.68 10.65-17.78 9.53-5.54-.88-10.97-4.58-15.7-10.68l-.58-.76c-.5-.68-1.2-1.56-1.97-2.5-1.23.33-2.58.44-3.64.53a8 8 0 0 1-4.52-1.52 176 176 0 0 0-7.66 19.66 5.2 5.2 0 0 1-4.9 3.6m19.1-36.2a12 12 0 0 1 4.17 2.05 13 13 0 0 0 5.43-6.19c1.3-3.11 1.44-5.22-1.23-7.86-2.11 1.82-5.1 6.19-8.36 12m82.49 13.73q-.96 0-1.86-.35a5.13 5.13 0 0 1-2.93-6.63l14.02-36.07a5.15 5.15 0 0 1 9.6 3.7l-14.03 36.06a5.2 5.2 0 0 1-4.8 3.29m-10.37 28.23a5.16 5.16 0 0 1-4.78-6.99l4.1-10.65a5.13 5.13 0 1 1 9.57 3.67l-4.1 10.65a5.1 5.1 0 0 1-4.79 3.32m-257.69-5.46a5.1 5.1 0 0 1-4.7-7.19c21.22-48.44 28-50.06 30.2-50.56a6.6 6.6 0 0 1 5.43 1.12c6.43 4.49 10.42 28.1 12.68 47.12a5.12 5.12 0 1 1-10.19 1.2c-1.64-13.9-4.6-30.01-7.1-37-5.04 7.16-14.38 25.85-21.6 42.29a5.2 5.2 0 0 1-4.72 3.02" style="fill:#e35a26"/><path d="M937.23 1471.06a5.14 5.14 0 0 1-.18-10.27l21.72-.77a5.1 5.1 0 0 1 5.3 4.96 5.13 5.13 0 0 1-4.95 5.31l-21.71.77z" style="fill:#e35a26"/><path d="M762.23 1312.99a5 5 0 0 1-3.82-1.7c-6.25-6.93-8.27-15.85-8.33-16.23a5.11 5.11 0 1 1 10-2.2c.03.14 1.59 6.74 5.93 11.56a5.12 5.12 0 0 1-3.78 8.56m27.2-.96c-.85 0-1.73-.2-2.52-.68-6.99-3.96-10.92-11.76-11.36-12.64a5.14 5.14 0 0 1 9.24-4.52c.8 1.58 3.64 6.19 7.2 8.21a5.14 5.14 0 0 1-2.56 9.63m-7.93 25.38q-1.37 0-2.66-.74c-5.6-3.4-9.13-9.36-9.51-10.03a5.14 5.14 0 0 1 8.92-5.14c.7 1.2 3.1 4.67 5.93 6.37a5.1 5.1 0 0 1 1.73 7.04 5.1 5.1 0 0 1-4.4 2.5m461.97-241.26a5.2 5.2 0 0 1-4.63-2.93 981 981 0 0 0-6.08-12.27l9.16-4.64s4.22 8.37 6.19 12.5a5.12 5.12 0 0 1-4.64 7.34m6.43 27.94a5.1 5.1 0 0 1-5.1-4.61c-.62-6.22-1.27-8.48-1.27-8.51-.76-2.7.8-5.55 3.5-6.34a5.1 5.1 0 0 1 6.33 3.4c.15.47.91 3.2 1.65 10.4a5.14 5.14 0 0 1-4.58 5.62q-.27.05-.53.04m-19.75-5.76a5.2 5.2 0 0 1-5.07-4.31 40 40 0 0 0-2.41-8.6 5.14 5.14 0 0 1 9.42-4.1c.09.2 2.11 4.87 3.14 11.06a5.14 5.14 0 0 1-4.23 5.9q-.45.06-.85.05" style="fill:#511239"/></svg>