<svg xmlns="http://www.w3.org/2000/svg" viewBox="2296 996 879.4 772.3"><path d="M2952.63 1531.64a127.5 127.5 0 0 0 46.7-79.3 127.6 127.6 0 0 0-19.6-89.93c-6.46-12.21 7.91-26.1 22.66-29.1s29.94.95 45 1.23c42.24.78 82.78-31.4 91.62-72.72 8.83-41.32-15-87.25-53.87-103.83 8.43-34.09 16.59-63.5 21.47-93.45 1.35-8.23 2.27-17.33-2.3-24.3-7.6-11.55-24.89-10.21-38.03-5.91a171.5 171.5 0 0 0-92.94 74.22c-80.61-1.19-159.58 49.84-191.62 123.83-80.94-1.96-159.38-4.86-234.75 12.69-75.38 17.54-148.63 58.34-188.4 124.73-39.77 66.4-37.55 160.42 14.72 225.63-29.01 14.1-29.45 58.95-8.26 83.27s54.94 32.82 86.71 38.38c161.76 28.3 335.05 11.59 477.93-69.36 20.46-11.6 41.22-25.54 51.17-46.84s4.13-51.54-28.21-69.24" style="fill:#f5ecdf"/><path d="M3056.02 1091.22c11.38 7.59-14.45 77.87-17.67 86.5a404 404 0 0 0-38.82-13.87c-4.16-1.3-8.23-2.26-12.27-2.99l.16-1.05s56.5-76.66 68.6-68.59" style="fill:#ffa307"/><path d="M3061.34 1189.15c41.76 24.49 37.9 50.75 22.92 83.64-8.31 18.32-30.38 27.68-53.42 32.4l-.24-3.6c-4.24-2.45-4.8-8.22-4.72-13.1a232 232 0 0 1 13.64-75.25c3.75-10.53 10.29-22.28 21.38-23.32z" style="fill:#f3f3f3"/><path d="M2921.13 1371.36c95.06 74.4-18.44 236.32-264.56 244.39s-314.72-76.66-254.2-209.81 318.76-145.26 395.7-121.73c44.75-38.1 104.75-138.6 189.2-123.35q6.03 1.08 12.26 2.99a404 404 0 0 1 38.82 13.88 188 188 0 0 1 23 11.42l-.45.76c-11.1 1.05-17.63 12.8-21.38 23.33a232 232 0 0 0-13.64 75.24c-.08 4.89.48 10.66 4.72 13.12l.24 3.59c-32.8 6.7-67.62 3.91-67.62 3.91s-28.81 23.57-42.09 62.26m-156.3 25.62c-33.3-43.7-157-59.27-205.1-3.15l-2.78-.4c-2.7 19.97 14.2 41.16 102.57 36.72 70.69-3.55 97.48-18.04 105.3-33.17" style="fill:#e3768c"/><path d="M3048.79 1131.95a4.3 4.3 0 0 1-3.3-1.54 89 89 0 0 1-13.2-21.5 4.27 4.27 0 0 1 7.83-3.4 81 81 0 0 0 11.94 19.44 4.27 4.27 0 0 1-3.28 7m-5.29 24.55c-.99 0-1.97-.33-2.78-1.02a107 107 0 0 1-23.95-29.34 4.27 4.27 0 1 1 7.46-4.14 99 99 0 0 0 22.05 27 4.27 4.27 0 0 1-2.78 7.5m-21.26 15.28c-.93 0-1.86-.3-2.64-.92a60 60 0 0 1-19.28-27.07 4.27 4.27 0 0 1 8.07-2.8 51 51 0 0 0 16.49 23.17 4.27 4.27 0 0 1-2.64 7.62" style="fill:#fff"/><path d="M2950.42 1262.7c1.78 22.22 41.4 14.58 44.43-3.55 3.01-18.13-46.21-18.66-44.43 3.56" style="fill:#d9486b"/><path d="M2471.05 1558.14a4 4 0 0 1-.88-.1 74 74 0 0 1-47.8-34.2 4.27 4.27 0 0 1 7.35-4.35 65.3 65.3 0 0 0 42.2 30.2 4.27 4.27 0 0 1-.87 8.44" style="fill:#fff"/><path d="M2414 1434.48a4.3 4.3 0 0 1-4.22-3.7c-.81-6-.97-12.1-.46-18.13a4.27 4.27 0 1 1 8.5.7c-.45 5.43-.3 10.9.42 16.29a4.27 4.27 0 0 1-4.24 4.84m10.73 36.18a4.3 4.3 0 0 1-3.88-2.47 69 69 0 0 1-5.73-19.25 4.27 4.27 0 0 1 8.45-1.22 60 60 0 0 0 5.02 16.87 4.27 4.27 0 0 1-3.87 6.07m29.21 30.14q-1.13 0-2.17-.6a57 57 0 0 1-15.17-13.04 4.27 4.27 0 1 1 6.6-5.4 49 49 0 0 0 12.92 11.1 4.27 4.27 0 0 1-2.18 7.94m34.16 15.5q-.37 0-.75-.06a39 39 0 0 1-14.7-5.91 4.27 4.27 0 0 1 4.76-7.1 30 30 0 0 0 11.43 4.6 4.27 4.27 0 0 1-.74 8.48m37.35 11.05h-.03a35.7 35.7 0 0 1-18.13-5.07 4.27 4.27 0 0 1 4.39-7.33 27 27 0 0 0 13.8 3.86 4.27 4.27 0 0 1-.03 8.54m42.36 8.99q-.49 0-.97-.12l-19.08-4.41a4.27 4.27 0 1 1 1.93-8.32l19.08 4.42a4.27 4.27 0 0 1-.96 8.42m41.76 8.18c-4.74 0-9.5-.79-13.94-2.35a4.27 4.27 0 1 1 2.82-8.05 34 34 0 0 0 18.84.96 4.27 4.27 0 1 1 1.98 8.3 42 42 0 0 1-9.7 1.14m44.21-.85q-3.92 0-7.8-.48a4.27 4.27 0 1 1 1.05-8.47c7.16.88 14.62.34 21.58-1.57a4.27 4.27 0 0 1 2.27 8.23 65 65 0 0 1-17.1 2.29m40.88-5.3h-.79a4.27 4.27 0 0 1 .03-8.54h.76c7.24 0 14.51-.7 21.62-2.07a4.26 4.26 0 1 1 1.62 8.38 123 123 0 0 1-23.24 2.22m41.6-9.12a4.27 4.27 0 0 1-.96-8.43c8.69-2.02 17.31-4.7 25.63-7.93a4.27 4.27 0 1 1 3.1 7.96 199 199 0 0 1-26.8 8.29q-.48.1-.97.1m52.58-18.84a4.27 4.27 0 0 1-1.49-8.27c8.07-3 15.88-6.8 23.23-11.27a4.26 4.26 0 1 1 4.44 7.3 144 144 0 0 1-24.7 11.97q-.73.27-1.48.27m46.43-23.34a4.26 4.26 0 0 1-2.69-7.59l16.16-13.09a4.26 4.26 0 1 1 5.37 6.64l-16.16 13.09c-.79.64-1.74.95-2.68.95m36.16-28.43a4.25 4.25 0 0 1-3.02-7.3l14.13-14.1a4.27 4.27 0 0 1 6.03 6.03l-14.13 14.12a4.3 4.3 0 0 1-3.01 1.25m28.25-28.24a4.25 4.25 0 0 1-3.28-7l5.04-6.05a4.27 4.27 0 1 1 6.56 5.46l-5.04 6.06a4.3 4.3 0 0 1-3.28 1.53" style="fill:#d9486b"/><path d="M2541.57 1651.88c-6-8.62-16.18-.72-23.84 8.02-1.08-7.15-4.67-12.4-14.47-9.9-4.07 2.08-7.6 5.1-10.82 8.46.8-3.43 1.45-6.87 1.73-10.37-.08-3.37-2.86-6.87-6.51-5.79-4.79 2.63-7.47 8.29-11.43 12.04-4.63 5.1-7.77 7.67-10.45 8.52-.28-6.54.5-9.47 2.92-17.03 3.28-5.22-3.71-10.74-7.78-5.97-7.7 7.18-12.58 11.87-18.95 14.46l-.05-.16c-.11-.64-.13-4.58.85-9.2.86-4.07 2.05-8.54.08-12.48-3.18-5.67-10.27-2.22-15.02-.85q-2.97 1.02-5.92 2.13c-1.83-3.67-3.37-5.95-2.79-6.67.4-2.46.03-2.57.85-3.52.42.32.87.6 1.4.75 6.25 3.08 12.13-5.86 7.1-10.54-9.5-12.36-23.02 2.13-22.2 13.64a27 27 0 0 0 4.04 11.94 43 43 0 0 0-4.12 2.8c-7.9 5.23-12.16 18.94-.8 22.78 12.72 3.56 20.6-9.24 19.93-20.58a97 97 0 0 1 7.46-3c-2.15 11.86-3.2 34.13 19.7 18.88 1.28-.94 2.47-2 3.71-3.01-.36 3.48-.35 6.98.2 10.45 1.1 5.09 6.83 6.2 11.24 5.08 5.29-1.35 9.5-4.68 13.23-8.56a134 134 0 0 0-3.22 13.47c-.05 3.98 4.76 6.58 8.02 4.24 3.55-2.1 5.65-5.83 8.2-8.94-1.05 1.06 8.76-9.8 11.82-12.3l.07-.07q.47-.33.99-.6l.23-.06h.14c.35 1.63.24 3.35.34 7.28-.43 5-.43 6.69-.8 8.7-.5 1.72-.67 3.63.33 5.22a5.57 5.57 0 0 0 7.54 1.98c.9-1.16 1.68-2.25 2.46-3.33l.07.04q0-.08.02-.15c5.89-8.2 8.92-14.11 15.84-18.52.77 4.63-1.14 11.42-1.82 20.53.31 4.98 7.15 7.15 10.5 3.56 3.2-4.36 1.67-7.58 2.54-9.72 1.08-7.83 2.24-16.78-2.56-23.65m56.8 17.4c-.07-6.25-5.37-13.22-12.15-11.63-2.88 1.28-5 3.55-6.8 6.15-.94-3.36-2.57-6.43-5.51-8.5-4.03-1.43-7.28-.79-9.97 1.02-2.9-2.26-7.91-1.06-8.86 2.87a333 333 0 0 0-3.66 21.79c-.66 2.93-.48 6.34 2.44 7.97 7.14 3.47 9.03-4.86 10.25-10.06 1.7-5.9 2.37-7.88 4-10.9.22-.39.49-.75.72-1.14.86 3.43.56 6.84.73 13.04 0 3.21-.47 7.2 2.87 9 2.88 1.77 6.68.34 8.3-2.47a66 66 0 0 0 1.81-4.8 90 90 0 0 1 4.64-9.02c-.13 4.33-.8 10.57.04 15.78 1.32 3.9 6.93 4.87 9.7 1.92 1.79-1.74 1.83-4.16 1.74-6.5q.24-7.27-.29-14.52m41.43 6.78c-1.97-2.92-6.8-2.53-8.47.52l-.75 1.03-.4.46a16 16 0 0 1-6.25 4.3l-.38.09c-2.46.16-2.88-.14-3.12-.1h-.01c-.54-.62-1.78-3.05-2.3-4.02l-.12-.38c6.4-1.3 14.83-5.13 16.39-11.18 3.05-13.16-11.32-18.8-21.2-12.22-10.1 8.48-7.13 25.48.15 34.94 3.98 3.95 10.96 4.14 15.9 1.98 4.9-2.32 14.73-9.3 10.56-15.42m-19.47-8.94c-1.77.65-3.17 1-4.2 1.2.12-2.09.76-3.95 1.95-6.08l.02-.02c2.12-1.2 1.07-.81 3.28-1.35.4.02 1.02.03 1.47.03q.84.15 1.64.45l.34.19.05.06c.43.82.41 1.45.3 2.35q-.32.37-.66.7a24 24 0 0 1-4.18 2.47m105.59-6.72c-.4-5.16 1.51-12.2.4-16.71-2.05-5.74-11.23-3.84-11 2.21-.7 8.65-2 17.8-.62 26.34 1.29 3.78 6.73 4.72 9.41 1.87 3.14-3.73 1.2-9.22 1.81-13.71m30.26-2.88c-5.88-4.87-8.73-4.36-13.24-6.87l.07-.28.13-.2.5-.5.36-.2c4.78 3.74 11.77-2.58 8.46-7.8-6.02-11.06-22.4-.52-21.5 9.8-.35 6.63 5.9 9.72 11.26 11.65 4.32 1.63 3.6 1 5.58 2.2.12.77-.03 1.65-2.16 5-.34.38-.86.85-1.2 1.16l-.4.24q-.75.27-1.55.42a5.6 5.6 0 0 0-5.7-1.73c-5.87 1.66-4.91 9.48-.19 11.98 3.77 1.92 8.4 1.14 12.13-.54 7.76-4.3 13.97-16.68 7.45-24.33m75.92-18.28c-.85-1.7-4.36-19.98-8.06-26.89-3.52-5.13-12.1-.8-10.23 5.1a175 175 0 0 1 2.74 9.88q-5.38 1.78-10.76 3.59c-.31-1.5-.66-3-.93-4.51v-.04c-.03-7.35-11.22-7.35-11.27 0 1.47 9.27 3.15 19.01 7.12 27.52 2.15 3.23 7.5 2.78 9.33-.58 1.95-3.4-.59-6.94-1.3-10.38 3.56-1.16 7.19-2.2 10.67-3.54l.52 2.3c1.46 10.98 16.47 7.67 12.18-2.45m21.32-15.57c-2.14-.1-3.61 1.59-5.34 2.56-.47.29-1.62.85-2.23 1.16l-.41.14h-.14c-.33-.1-.75-.22-1.1-.3l-.5-1.03.49-.25c4.8-3.6 11.64-7.26 11.93-13.96-.28-4.48-3.76-8.72-7.88-10.32-3.34-.86-6.97-.04-9.93 1.62-7.97 4.41-6.83 14.49-4.9 22.02.71 3.18 1.76 6.53 3.97 9a13 13 0 0 0 8.64 3.27c2.91-.19 5.6-1.52 8.05-3 1.7-1.18 3.8-2.23 4.3-4.41.95-3.17-1.66-6.53-4.95-6.5m-8.04-13.4q.25.23.47.46l.2.25c.25.32.43.69.63 1.04q-.42.5-.89.94c-2.85 2.27-3.39 2.9-4.67 3.8q-.12-1.53-.12-3.26l.22-.84q.18-.32.36-.6c1.85-1.94 2.95-1.72 3.8-1.78m52.53-7.86c-1.86-2.73-5.75-2.45-7.97-.32q-.2.13-.45.26-.66.24-1.34.4-.86.12-1.73.13-1.19-.02-2.68-.23a19 19 0 0 0 2.2-8.31c.3-5.92-4.11-12.12-10.56-10.12a22 22 0 0 0-8.6 5.86c-3.38-.33-7.03 2.2-6.9 6.02.9 7.47 2.39 19.28 2.78 21.58.32 2.54.97 5.35 3.4 6.66 3.33 2.05 7.98.11 8.97-3.64a29 29 0 0 0-.12-3.23l.07-.01v-.08.08h.05a6 6 0 0 0-.16-.82l-.2-1.54-.07-.49q-.2-1.6-.43-3.2l-.13-.83.16-.03c.34 0 .73.02 1.06.07-.25-.03 7.75 1.8 11.59 1.97 5.42.48 15.58-3.47 11.06-10.18m-22.02-7.35c-.57 2.7-.28 1.89-1.68 4.13-.24.24-.57.57-.9.87l-.58.36-.1-.7q.2-.7.46-1.4l.04-.09a17 17 0 0 1 2.76-3.17m-.82 23.07-.09-.67zm44.35-35.79c-3.82 3.33-1.8 2.73-4.92 5.53-1.88 1.22-2.35 2.08-5.8 2 5.43-5.34 11.33-14.98 5.61-21.8-7.43-6.64-17.64-1.35-20.22 7.35-4 16.02 9.2 32.17 25.4 22.27 3.37-2.44 7-5.8 8-9.95.88-4.31-4.4-7.7-8.07-5.4m-13.16-7.43.13.04a15 15 0 0 1-3.23 5.9q-.05-1.42.19-2.65c1.05-2.38 1.24-2.61 2.9-3.29M2676 1677.69c-2.95 1.77-2.05 2.2-8.7-3.78 6.7-7.03 8.33-22.23-3.94-21.34a12.4 12.4 0 0 0-6.18 2.38 5 5 0 0 0-1.07-1.62c-3.2-3.43-9.47-.85-9.31 3.85.07 9.59-1.07 19.14-1.76 28.69a4 4 0 0 0-.18 2.35c-.28 2.65.6 5.52 3.33 6.44 6.94 2.02 8.05-3.82 8.31-9.84l.05-.33c.34-2.35.71-4.5 1.1-6.57l.63.01.2.1.37.25c3.03 2.3 5.23 5.48 8.33 7.69 4.67 3.75 13.7 3.5 16.19-2.62 1.29-4.15-3.68-7.97-7.37-5.66m-12.2-15.77v.28c-.19.67-.54 2.03-.86 2.97l-.26.54c-.13.31-.44.79-.67 1.14q-.53.65-1.13 1.22l-.33.28-.68.4c1.15-3.61 2.46-6.01 3.93-6.83" style="fill:#e45825"/><path d="M3043.8 1175.42c11.58-31.22 26.94-79.51 14.58-87.75-5.55-3.7-14.78-2.4-44.43 32.04a729 729 0 0 0-29.12 36.44c-64.59-9.76-114.13 44.61-154.53 89-12.05 13.23-23.14 25.4-33.27 34.32-52.03-14.99-141.42-10.1-203.82 2.67-126.9 25.97-175.93 80.7-194.72 122.03-26.73 58.81-28.08 106.93-4 143 32.53 48.74 110.01 73.38 230.56 73.38q15.36 0 31.66-.54c171.54-5.62 274.26-83.53 297.1-153.53 12.06-36.92 1.94-71.88-27.65-96.44 11.55-31.05 33.13-51.73 38.52-56.56 14.33.92 103.6 4.8 123.47-38.93 8.61-18.95 15.4-39.1 6.87-58.08-6.99-15.52-23.29-28.72-51.22-41.05m9.94-80.54c4.08 4.75-4.1 39.89-17.82 77.2a433 433 0 0 0-35.13-12.31q-3.35-1.04-6.65-1.83c26.28-35.06 52.83-63.33 59.6-63.06m-90.18 209.97a4.3 4.3 0 0 0-3.05.95c-1.87 1.53-45.85 38.14-49.97 95.8a4.27 4.27 0 0 0 8.52.6c.59-8.27 2.1-16.1 4.23-23.44 25.15 22.28 33.13 52.25 22.41 85.07-11.81 36.2-44.32 70.8-91.53 97.45-53.8 30.36-122.17 47.72-197.74 50.2-135.55 4.46-221.3-18.79-254.84-69.05-22.33-33.46-20.75-78.79 4.67-134.73 58.37-128.4 301.66-140.46 382.48-121.56-4.36 3.13-8.52 5.49-12.47 6.8a4.27 4.27 0 1 0 2.7 8.1c6.94-2.31 14.14-7.07 21.68-13.46l.25-.2c11.07-9.43 22.87-22.37 35.7-36.48 42.06-46.2 94.37-103.68 161.68-82.97 13.63 4.2 25.6 8.43 36.05 12.75a4.2 4.2 0 0 0 3.7 2.2q.58-.01 1.11-.16 6.69 2.92 12.45 5.9c-6.57 3.94-11.97 11.67-16.1 23.16a236 236 0 0 0-13.89 76.65c-.05 4.15.3 9.57 3.22 13.56-30.14 5.17-60.72 2.9-61.26 2.86m116.82-33.83c-7.12 15.66-25.61 24.3-45.84 29a4.2 4.2 0 0 0-1.8-2.12c-1.82-1.06-2.67-4.12-2.6-9.35a227 227 0 0 1 13.39-73.88c3.2-8.9 8.87-19.67 17.78-20.5l.1-.02c13.18 8.11 21.69 16.63 25.82 25.82 7.15 15.88.93 33.92-6.85 51.05" style="fill:#360623"/><path d="M2757.01 1354.46a4.27 4.27 0 1 0-5.96 6.12c.16.15 13.86 13.77 11.98 27.96-19.52-19.6-57.48-33.36-98.42-35-41.36-1.65-76.98 8.92-99.9 29.22 4.85-10.05 12.64-18.07 12.77-18.21a4.27 4.27 0 0 0-6.08-6c-1.1 1.12-26.7 27.46-16.68 49.83 8 17.87 34.9 26.64 81.99 26.64q10.8 0 23.02-.61c58.67-2.95 94.64-13.87 107.14-32.5q.6-.2 1.15-.59a4.3 4.3 0 0 0 1.6-4.56l.36-.86c7.86-20.79-12.11-40.6-12.97-41.44m-97.71 71.42c-70.63 3.56-91.61-9.45-96.79-20.97a19 19 0 0 1-1.57-6.99 4 4 0 0 0 2.03-1.3c20.33-23.72 57.24-36.3 101.3-34.54 41 1.63 78.54 15.67 95.35 35.3-8.15 11.96-32.9 25.12-100.32 28.5m399.43-190.22a13 13 0 0 0-2.84 10.67 4.27 4.27 0 1 0 8.4-1.57 4.5 4.5 0 0 1 .95-3.58 4.27 4.27 0 1 0-6.5-5.52m-64.47-35.33a4.26 4.26 0 0 0-5.29 2.91c-1.49 5.17-3.18 11.02-6.92 14.7-2.84 2.79-8.18 4.08-10.8 1.56-1.51-1.44-2.28-4.19-2.1-7.54.1-1.7.38-3.44.67-5.3.33-2.03.67-4.15.77-6.37a4.27 4.27 0 0 0-8.52-.4 50 50 0 0 1-.68 5.43 59 59 0 0 0-.76 6.18c-.32 5.93 1.36 10.95 4.71 14.17a13.7 13.7 0 0 0 9.67 3.71c4.77 0 9.67-2.07 13.02-5.35 5.34-5.25 7.45-12.55 9.14-18.42a4.27 4.27 0 0 0-2.91-5.28" style="fill:#360623"/></svg>