<svg xmlns="http://www.w3.org/2000/svg" xml:space="preserve" viewBox="545.4 42.7 393.7 392.8"><radialGradient id="a" cx="738.92" cy="230.63" r="185.21" gradientTransform="rotate(20.74 717.35 242.57)" gradientUnits="userSpaceOnUse"><stop offset=".49" style="stop-color:#939598"/><stop offset=".57" style="stop-color:#989a9c"/><stop offset=".67" style="stop-color:#a5a7a9"/><stop offset=".78" style="stop-color:#bbbdbf"/><stop offset=".89" style="stop-color:#dadcdc"/><stop offset=".95" style="stop-color:#f1f2f2"/><stop offset=".97" style="stop-color:#eeefef"/><stop offset=".98" style="stop-color:#e6e7e7"/><stop offset=".99" style="stop-color:#d7d8d9"/><stop offset=".99" style="stop-color:#c2c3c5"/><stop offset="1" style="stop-color:#a7a9ac"/></radialGradient><path d="M914.97 304.67c-36.24 95.66-143.15 143.83-238.81 107.6S532.33 269.1 568.56 173.45 711.71 29.63 807.38 65.87c95.65 36.23 143.82 143.15 107.59 238.8" style="fill:url(#a)"/><path d="M926.2 300.69a25.3 25.3 0 0 1-32.57 14.83l-36.49-13.82a25.3 25.3 0 0 1-14.57-32.7 25.3 25.3 0 0 1 32.57-14.82l36.5 13.82a25.3 25.3 0 0 1 14.57 32.69" style="fill:#d1d3d4"/><path d="M925.7 300.5a24.95 24.95 0 0 1-32.2 14.41l-36.2-13.7a24.95 24.95 0 0 1-14.56-32.14 24.95 24.95 0 0 1 32.2-14.41l36.19 13.7a24.95 24.95 0 0 1 14.57 32.14" style="fill:#d2d4d5"/><path d="M925.2 300.3c-4.77 12.6-19.02 18.86-31.83 14l-35.9-13.59c-12.8-4.85-19.33-18.99-14.56-31.57s19.02-18.85 31.83-14l35.89 13.6c12.81 4.85 19.33 18.98 14.56 31.57" style="fill:#d3d5d6"/><path d="M924.69 300.12c-4.67 12.31-18.75 18.4-31.45 13.58l-35.6-13.48c-12.7-4.82-19.22-18.7-14.56-31.02 4.67-12.31 18.75-18.4 31.45-13.58l35.6 13.48c12.7 4.81 19.23 18.7 14.56 31.02" style="fill:#d5d7d7"/><path d="M924.19 299.93c-4.57 12.04-18.48 17.94-31.08 13.17l-35.3-13.38c-12.6-4.77-19.12-18.4-14.55-30.45 4.56-12.05 18.47-17.94 31.07-13.17l35.3 13.37c12.6 4.77 19.12 18.4 14.55 30.45" style="fill:#d6d8d9"/><path d="M923.68 299.73c-4.46 11.78-18.2 17.5-30.7 12.76l-35-13.26c-12.5-4.73-19.01-18.12-14.55-29.9s18.2-17.48 30.7-12.75l35 13.26c12.5 4.73 19.01 18.12 14.55 29.9" style="fill:#d7d9da"/><path d="M923.18 299.54c-4.36 11.51-17.94 17.04-30.33 12.35l-34.71-13.15c-12.39-4.7-18.9-17.83-14.54-29.34s17.94-17.03 30.32-12.34l34.72 13.15c12.39 4.69 18.9 17.82 14.54 29.33" style="fill:#d8dadb"/><path d="M922.67 299.35c-4.26 11.24-17.67 16.58-29.95 11.93l-34.42-13.04c-12.28-4.65-18.78-17.54-14.53-28.77 4.26-11.25 17.67-16.58 29.95-11.93l34.42 13.04c12.28 4.65 18.79 17.53 14.53 28.77" style="fill:#dadbdc"/><path d="M922.17 299.16c-4.16 10.97-17.4 16.13-29.58 11.51l-34.12-12.92c-12.18-4.61-18.68-17.25-14.52-28.22s17.4-16.12 29.57-11.51l34.12 12.93c12.18 4.6 18.68 17.24 14.53 28.21" style="fill:#dbdddd"/><path d="M921.66 298.97c-4.05 10.7-17.13 15.67-29.2 11.1l-33.83-12.82c-12.07-4.57-18.57-16.95-14.51-27.65 4.05-10.7 17.12-15.67 29.2-11.1l33.82 12.81c12.08 4.57 18.58 16.96 14.52 27.66" style="fill:#dcdede"/><path d="M921.16 298.78c-3.96 10.43-16.86 15.21-28.82 10.68l-33.54-12.7c-11.96-4.53-18.46-16.67-14.51-27.1s16.86-15.22 28.82-10.68l33.54 12.7c11.96 4.53 18.46 16.66 14.5 27.1" style="fill:#dddfe0"/><path d="M920.65 298.59c-3.85 10.16-16.59 14.76-28.44 10.27l-33.25-12.6c-11.85-4.49-18.35-16.37-14.5-26.53s16.59-14.76 28.45-10.27l33.24 12.59c11.86 4.49 18.35 16.37 14.5 26.54" style="fill:#dfe0e1"/><path d="M920.15 298.4c-3.75 9.89-16.32 14.3-28.07 9.85l-32.95-12.48c-11.75-4.45-18.24-16.09-14.5-25.98 3.75-9.9 16.32-14.3 28.07-9.85l32.95 12.48c11.75 4.45 18.25 16.08 14.5 25.97" style="fill:#e0e1e2"/><path d="M919.64 298.2c-3.64 9.63-16.05 13.86-27.69 9.45l-32.65-12.37c-11.65-4.41-18.14-15.8-14.5-25.42 3.66-9.63 16.06-13.85 27.7-9.44l32.65 12.37c11.65 4.4 18.14 15.79 14.5 25.41" style="fill:#e1e3e3"/><path d="M919.14 298.01c-3.55 9.36-15.78 13.4-27.32 9.03l-32.36-12.26c-11.54-4.37-18.02-15.5-14.48-24.86 3.55-9.36 15.78-13.4 27.32-9.02l32.36 12.26c11.54 4.36 18.02 15.5 14.48 24.85" style="fill:#e2e4e4"/><path d="M918.63 297.82c-3.44 9.09-15.5 12.95-26.94 8.62l-32.06-12.15c-11.44-4.33-17.92-15.22-14.48-24.3 3.45-9.1 15.51-12.95 26.94-8.61l32.07 12.14c11.43 4.33 17.92 15.21 14.47 24.3" style="fill:#e3e5e5"/><path d="M918.13 297.63c-3.34 8.82-15.24 12.49-26.57 8.2L859.8 293.8c-11.32-4.3-17.8-14.93-14.46-23.75s15.23-12.48 26.56-8.2l31.77 12.04c11.33 4.3 17.81 14.92 14.47 23.74" style="fill:#e5e6e6"/><path d="M917.62 297.44c-3.23 8.55-14.97 12.03-26.19 7.78l-31.47-11.92c-11.23-4.25-17.7-14.63-14.46-23.18s14.96-12.03 26.19-7.78l31.47 11.92c11.22 4.25 17.7 14.63 14.46 23.18" style="fill:#e6e7e8"/><path d="M917.12 297.25c-3.14 8.28-14.7 11.58-25.82 7.37l-31.18-11.81c-11.11-4.21-17.59-14.35-14.45-22.63s14.7-11.58 25.81-7.37l31.19 11.82c11.1 4.2 17.59 14.33 14.45 22.62" style="fill:#e7e8e9"/><path d="M916.61 297.06c-3.03 8-14.43 11.12-25.44 6.95l-30.88-11.7c-11.01-4.17-17.48-14.05-14.45-22.06 3.04-8.02 14.43-11.12 25.44-6.95l30.89 11.7c11 4.17 17.48 14.04 14.44 22.06" style="fill:#e8eaea"/><path d="M916.1 296.87c-2.92 7.74-14.15 10.67-25.06 6.54l-30.59-11.6c-10.9-4.12-17.37-13.76-14.44-21.5s14.16-10.67 25.07-6.54l30.59 11.6c10.9 4.12 17.37 13.75 14.44 21.5" style="fill:#eaebeb"/><path d="M915.6 296.67c-2.83 7.48-13.89 10.22-24.68 6.13l-30.3-11.48c-10.8-4.09-17.26-13.47-14.43-20.94s13.88-10.22 24.68-6.13l30.3 11.48c10.8 4.1 17.27 13.47 14.43 20.94" style="fill:#ebecec"/><path d="M915.1 296.48c-2.73 7.2-13.62 9.77-24.31 5.72l-30-11.37c-10.7-4.05-17.16-13.18-14.43-20.39 2.73-7.2 13.62-9.76 24.31-5.7l30 11.36c10.7 4.05 17.16 13.18 14.43 20.38" style="fill:#eceded"/><path d="M914.6 296.3c-2.63 6.93-13.36 9.3-23.94 5.29l-29.71-11.25c-10.59-4.01-17.05-12.9-14.42-19.83 2.63-6.94 13.35-9.3 23.94-5.3l29.7 11.26c10.59 4 17.05 12.88 14.43 19.82" style="fill:#edeeef"/><path d="M914.1 296.1c-2.53 6.67-13.1 8.85-23.57 4.88l-29.41-11.14c-10.49-3.97-16.94-12.6-14.42-19.27s13.08-8.85 23.56-4.87l29.42 11.14c10.48 3.97 16.94 12.6 14.41 19.26" style="fill:#eff0f0"/><path d="M913.59 295.91c-2.43 6.4-12.82 8.4-23.2 4.47l-29.1-11.03c-10.38-3.93-16.84-12.31-14.42-18.71 2.43-6.4 12.81-8.4 23.19-4.47l29.12 11.04c10.37 3.93 16.83 12.3 14.4 18.7" style="fill:#f0f1f1"/><path d="M913.08 295.72c-2.32 6.12-12.54 7.94-22.81 4.05l-28.82-10.91c-10.27-3.9-16.72-12.03-14.4-18.15 2.32-6.14 12.54-7.94 22.8-4.05l28.83 10.91c10.27 3.9 16.72 12.02 14.4 18.15" style="fill:#f1f2f2"/><radialGradient id="b" cx="738.92" cy="230.64" r="144.5" gradientTransform="rotate(20.74 717.35 242.57)" gradientUnits="userSpaceOnUse"><stop offset=".82" style="stop-color:#a3a5a8"/><stop offset=".84" style="stop-color:#bfc0c2"/><stop offset=".87" style="stop-color:#dbdbdd"/><stop offset=".9" style="stop-color:#efeff0"/><stop offset=".93" style="stop-color:#fbfbfb"/><stop offset=".96" style="stop-color:#fff"/><stop offset=".96" style="stop-color:#fafafa"/><stop offset=".97" style="stop-color:#ececed"/><stop offset=".98" style="stop-color:#d5d5d7"/><stop offset="1" style="stop-color:#b4b6b8"/><stop offset="1" style="stop-color:#a3a5a8"/></radialGradient><path d="M876.9 290.25c-28.27 74.64-111.69 112.22-186.32 83.95-74.64-28.27-112.22-111.7-83.95-186.33s111.7-112.2 186.33-83.94c74.63 28.28 112.21 111.7 83.94 186.32" style="fill:url(#b)"/><path d="M852.26 280.92c-23.12 61.02-91.33 91.75-152.34 68.63-61.03-23.11-91.76-91.32-68.65-152.34 23.12-61.02 91.33-91.74 152.35-68.63s91.75 91.32 68.63 152.34" style="fill:#2e1b09"/><linearGradient id="c" x1="657.53" x2="736.21" y1="110.35" y2="338.46" gradientTransform="rotate(20.74 717.35 242.57)" gradientUnits="userSpaceOnUse"><stop offset="0" style="stop-color:#9c7959"/><stop offset=".49" style="stop-color:#7f602c"/><stop offset="1" style="stop-color:#634700"/></linearGradient><path d="M783.62 128.58c-61.02-23.11-129.23 7.61-152.35 68.63-18.63 49.17-2.27 103.01 36.7 134.15 1.7-.56 2.72-2.38 2.41-6.23-.5-6.28-6.08-10.62-9.91-15.04-2.49-2.85-5.15-6.42-5.83-10.13-.76-4.22.77-8.33-.86-12.85-2.71-7.5-8.69-14.83-9.2-23-.26-4.47 3.4-8.45 4.12-12.84.87-5.11-1.04-8.03-2.95-12.62-3.28-7.86-7.52-15.64-4.34-24.04 1.9-5.02 4.76-6.74 7.51-10.61 3.04-4.27 2.84-8.4 6.93-11.92 3.64-3.14 6.94-4.43 9.9-8.18 3.29-4.18 6.75-7.46 10.35-11.2 1.96-2.05 1.67-3.82 4.38-5.66 1.96-1.33 4.77-1.29 6.68-2.9 3.55-3.02 4.86-7.86 9.35-10.26 3.76-2.03 5.57-2.53 8.67-5.32 3.6-3.26 5.48-4.2 10.68-4.6 8.95-.65 17.1-.97 25.2-4.3 9.84-4.05 16.89-3.2 27.3-2.9 6.36.2 16.61.12 19.42-6.5q-2.07-.88-4.16-1.68M647.49 292.05c.7.27 1.06 1.02.81 1.69s-1.02.98-1.72.72a1.3 1.3 0 0 1-.82-1.69 1.3 1.3 0 0 1 1.73-.72m-6.75-6.95c1.11.42 1.71 1.63 1.3 2.7-.4 1.05-1.64 1.57-2.76 1.14a2.1 2.1 0 0 1-1.3-2.69 2.1 2.1 0 0 1 2.76-1.15m-.06-11.69c1.04.4 1.59 1.52 1.21 2.5-.37.99-1.52 1.46-2.56 1.06-1.03-.39-1.58-1.5-1.2-2.49.36-.98 1.51-1.46 2.55-1.07m-6.31-8.76a.8.8 0 0 1-1.08.46.83.83 0 0 1-.5-1.06c.15-.41.64-.61 1.08-.45.42.17.65.64.5 1.05m.19-5.28a1.3 1.3 0 0 1 .8 1.67 1.3 1.3 0 0 1-1.7.72c-.72-.26-1.08-1.01-.82-1.67.24-.66 1.01-.99 1.72-.72m-1.18-11.84a2.46 2.46 0 0 1 1.45 3.16 2.46 2.46 0 0 1-3.18 1.4 2.45 2.45 0 0 1-1.45-3.15 2.46 2.46 0 0 1 3.18-1.4m14.84-59.16c-.3.8-1.24 1.2-2.1.87a1.6 1.6 0 0 1-.98-2.04 1.6 1.6 0 0 1 2.08-.88c.86.33 1.3 1.24 1 2.05m.3-8.72c.83.32 1.26 1.2.97 1.98a1.57 1.57 0 0 1-2.04.86 1.56 1.56 0 0 1-.96-2c.3-.77 1.2-1.15 2.03-.84m-15.33 21.36a2.2 2.2 0 0 1 2.9-1.21c1.19.45 1.81 1.71 1.39 2.83s-1.73 1.66-2.92 1.21a2.23 2.23 0 0 1-1.37-2.83m-3.07 32.88c-.85-.32-1.3-1.23-1-2.03s1.24-1.18 2.09-.86 1.27 1.22.97 2.02-1.22 1.19-2.06.87m1.7-10.56a4.05 4.05 0 0 1-2.49-5.16 4.05 4.05 0 0 1 5.28-2.2 4.06 4.06 0 0 1 2.5 5.15 4.05 4.05 0 0 1-5.29 2.2m23.78-47.1a2.3 2.3 0 0 1-1.43-2.95 2.33 2.33 0 0 1 3.03-1.27 2.33 2.33 0 0 1 1.43 2.96 2.3 2.3 0 0 1-3.02 1.26m7.94-15.57a.5.5 0 0 1-.3-.63.5.5 0 0 1 .64-.27c.28.1.42.39.32.64s-.39.37-.66.26m8.55-.58c.46.18.7.67.53 1.11s-.67.65-1.13.47c-.46-.17-.7-.67-.54-1.1s.67-.65 1.13-.48m-3.63 9.35a2.07 2.07 0 0 1-1.27-2.62c.39-1.04 1.6-1.54 2.7-1.12a2.06 2.06 0 0 1 1.27 2.62 2.07 2.07 0 0 1-2.7 1.13m8.85-11.51c-1.27-.49-1.94-1.86-1.49-3.07a2.4 2.4 0 0 1 3.16-1.32 2.4 2.4 0 0 1 1.48 3.08c-.45 1.2-1.87 1.8-3.15 1.3m10.3-7.92a1.87 1.87 0 0 1-1.15-2.37c.35-.92 1.44-1.37 2.43-1 .98.38 1.5 1.43 1.14 2.36a1.86 1.86 0 0 1-2.42 1.01m9.43-9.43c-.17-.07-.26-.26-.2-.42a.33.33 0 0 1 .44-.2c.18.08.27.27.2.44-.05.16-.25.25-.44.18m17.78-4.8c-.65-.25-.98-.94-.76-1.53.23-.6.94-.9 1.58-.66s.96.93.74 1.53c-.23.6-.93.9-1.56.65m13 2.41a4.73 4.73 0 0 1-2.92-6c.9-2.38 3.67-3.52 6.17-2.58a4.73 4.73 0 0 1 2.91 6.02c-.89 2.36-3.65 3.51-6.16 2.56m13.7-7.8a.84.84 0 0 1-.5-1.05.84.84 0 0 1 1.07-.45c.44.17.67.64.52 1.05s-.64.61-1.08.45m13.62.93c-.74-.28-1.13-1.07-.87-1.75.26-.7 1.08-1.03 1.81-.75.73.27 1.11 1.06.85 1.76a1.4 1.4 0 0 1-1.8.74m9.71 2.95c-.57-.22-.87-.82-.66-1.36s.82-.8 1.4-.57c.55.2.84.8.64 1.34s-.83.8-1.38.59m9.24-.37a1.53 1.53 0 0 1-.94-1.95 1.53 1.53 0 0 1 2-.84c.8.31 1.23 1.19.94 1.95-.29.77-1.2 1.14-2 .84" style="fill:url(#c)"/><linearGradient id="d" x1="794.65" x2="811.45" y1="115.29" y2="164" gradientTransform="rotate(20.74 717.35 242.57)" gradientUnits="userSpaceOnUse"><stop offset="0" style="stop-color:#b88e69"/><stop offset=".56" style="stop-color:#936e2c"/><stop offset="1" style="stop-color:#785600"/></linearGradient><path d="M819.99 150.49c-5.68 1.88-6.32 10.26-4.34 16.6 1.28 4.05 3.86 7.23 6.84 10.14 1.17 1.14 9.84 6.85 9.7 8.05-1 8.99 4.23 14.15 11.98 16.55 4.19 1.29 5.71 2.04 8.54-1.61q.2-.28.4-.61A118.4 118.4 0 0 0 820 150.49m.62 7.6a.9.9 0 0 1-.54-1.11.87.87 0 0 1 1.14-.47c.46.17.7.66.54 1.1a.87.87 0 0 1-1.14.47m4.39 7.06c-.67-.26-1-.97-.77-1.6.24-.63.97-.94 1.63-.68.68.25 1.02.96.78 1.59s-.97.94-1.64.69m2.61 11.34c-1.92-.73-2.92-2.8-2.23-4.6a3.6 3.6 0 0 1 4.72-1.97 3.6 3.6 0 0 1 2.23 4.6c-.68 1.81-2.8 2.7-4.72 1.97m8.38-1.33a.87.87 0 0 1-.53-1.1.9.9 0 0 1 1.13-.49c.48.19.71.68.55 1.12-.17.44-.67.65-1.15.47m-1.54 17.5a1.85 1.85 0 0 1-1.14-2.35 1.85 1.85 0 0 1 2.4-1c1 .37 1.5 1.42 1.15 2.34a1.84 1.84 0 0 1-2.41 1m5.75-6.27a2 2 0 0 1-1.24-2.56c.38-1 1.56-1.5 2.62-1.09 1.07.4 1.63 1.55 1.25 2.55a2 2 0 0 1-2.63 1.1m3.17 6.4a.7.7 0 0 1-.42-.87.7.7 0 0 1 .89-.37c.37.14.55.52.42.87s-.52.5-.89.37" style="fill:url(#d)"/><linearGradient id="e" x1="714.24" x2="831.4" y1="181.99" y2="310.39" gradientTransform="rotate(20.74 717.35 242.57)" gradientUnits="userSpaceOnUse"><stop offset="0" style="stop-color:#2e1b09"/><stop offset=".78" style="stop-color:#3d3735"/><stop offset="1" style="stop-color:#414042"/></linearGradient><path d="M852.26 280.92a117.6 117.6 0 0 0 3.98-71.08c-10.33-1.73-20.74-.83-31.24-3.75-17.07-4.75-31.72-14.78-48.2-20.08-14.45-4.64-35.72-2.19-44.52 10.84-9.02 13.4-13.97 28.9-19.16 44.17-4.19 12.32-8.27 26.8-16.76 36.17-2.95 3.23-6.88 5.76-9.15 9.85-2.97 5.38-5.14 13.29-4.73 19.3.74 10.95-.49 23.62 4.68 33.5.81 1.56 1.65 3.37 2.54 5.28q4.95 2.43 10.21 4.43c61.02 23.12 129.23-7.6 152.35-68.63" style="fill:url(#e)"/></svg>