<svg xmlns="http://www.w3.org/2000/svg" xml:space="preserve" viewBox="53.5 351.1 1293.2 1389.8"><circle cx="645.18" cy="1030.05" r="288.13" style="fill-rule:evenodd;clip-rule:evenodd;fill:#28130e" transform="rotate(-45 645.18 1030.05)"/><path d="M645.18 710.49c176.49 0 319.56 143.07 319.56 319.56s-143.07 319.56-319.56 319.56-319.56-143.07-319.56-319.56 143.07-319.56 319.56-319.56m0 47.66c-150.16 0-271.9 121.74-271.9 271.9s121.74 271.9 271.9 271.9 271.9-121.74 271.9-271.9-121.74-271.9-271.9-271.9" style="fill-rule:evenodd;clip-rule:evenodd;fill:#ee809d"/><path d="M645.18 1349.61c176.49 0 319.56-143.07 319.56-319.56S821.67 710.49 645.18 710.49s-319.56 143.07-319.56 319.56 143.07 319.56 319.56 319.56m307.2-319.56c0 169.66-137.54 307.2-307.2 307.2s-307.2-137.54-307.2-307.2 137.54-307.2 307.2-307.2 307.2 137.53 307.2 307.2" style="fill-rule:evenodd;clip-rule:evenodd;fill:#bb667a"/><path d="M830.11 1229.36a273 273 0 0 0 43.85-52.32c-18.87-5.28-32.79-9.62-36.49-11.86-58.32-35.31-49.93 17.37-78.13-12.36-50.2-52.9-76.6 14.14-85.91-18.26-12.7-44.17-41.95-4.03-53.57-26.33-33.56-64.36-34.62-34.97-77.08-60.18-7.66-48.46-35.34-35-39-72.84-4.25-44.13-14.3-42.1-27.64-80.76-8.02-23.24-16.9-40.2-26-53.83a273 273 0 0 0-42.14 56.4c31.07 27.22 50.03 15.79 50.03 78.64 0 27.52 28.66 6.6 21.04 43.99-5.23 25.63 17.39 6.65 16.04 40.76-.77 19.44 13.05-11.46 35.92 18.97 17.3 23.01 9.64-18.18 32.33 21.79 10.81 19.04 17.48-24.78 39.45 38.69 8.92 25.78 30.76-.07 44.59 27.8 15.9 32.01 39.2-23.73 94.88 23.55 22.76 19.32 42.26 7.64 87.83 38.15" style="fill-rule:evenodd;clip-rule:evenodd;fill:#301d18"/><path d="M538.8 992c16.47-54.99-28-79.21-45.46-139.93-2.28-7.92-15.4-3-27.98-25.97a274 274 0 0 0-15.23 14.52c9.1 13.64 18 30.6 26.01 53.83 13.34 38.67 23.39 36.63 27.64 80.76 2.57 26.6 17.02 27.85 28.03 43.09a368 368 0 0 1 6.98-26.3" style="fill-rule:evenodd;clip-rule:evenodd;fill:#3d2c27"/><path d="M597.73 1073c-25.87-82.93 48.1-109.73 12.6-159.59-7.94-11.14 25.5-27.05-26.94-51.9-25.81-12.24 24.9-14.24-38.85-41.52-9.6-4.1-16.08-18-20.73-33.31a272 272 0 0 0-34.89 20.83c41.55 50.06 104.54 67.75 93.15 110.5-25.63 96.23 35.01 20.97-7.06 122.97-2.28 5.54-2.89 12.22-2.45 19.2 9.8 2.3 16.48 3.16 25.17 12.82" style="fill-rule:evenodd;clip-rule:evenodd;fill:#301d18"/><path d="M659.3 894.45c0-62.84-54.3-89.39-89.38-125.74a270 270 0 0 0-46.1 17.97c4.64 15.31 11.13 29.2 20.72 33.31 63.76 27.28 13.04 29.28 38.85 41.52 52.44 24.85 19 40.76 26.93 51.9 35.51 49.86-38.46 76.67-12.6 159.59 5.92 6.58 12.76 17.24 22.14 35.23 8.7 16.69 27.26-1.59 41.38 6.66-3.5-10.92-5.83-20.7-5.01-22.7 24.07-58.36-8.16-68.6 1.77-82.53 27.8-39.05 1.3-85.06 1.3-115.21" style="fill-rule:evenodd;clip-rule:evenodd;fill:#473732"/><path d="M741.83 977.43c-28.36-68.77 31.62-42.76-14.12-153.6-6.71-16.27-9.68-35.8-10.83-56.12a272 272 0 0 0-71.7-9.56h-1.26c-2 76.14 64.69 104.61 55.54 125.7-13.4 30.88 32.97 62.09 6.35 106.09-41.24 68.16 6.54 45.64-8.12 87.97-15.65 45.2-13.14 54.01-6.13 62.67 10.29-5.06 24.46-13.46 43.1-5.9 5.61-16.9 13.77-38.11 2.94-57.53-40-71.68 14.66-74.43 4.23-99.73" style="fill-rule:evenodd;clip-rule:evenodd;fill:#301d18"/><path d="M772 919.32c14.35-36.37-2.34-27.98 17.5-76.08 2.4-5.8-3.01-25.26-8.65-48.87a270 270 0 0 0-63.97-26.66c1.15 20.32 4.12 39.85 10.83 56.11 45.74 110.85-14.25 84.84 14.12 153.6 10.43 25.3-44.24 28.05-4.24 99.73 10.84 19.42 2.68 40.63-2.94 57.54 7.5 3.04 15.71 8.67 24.69 18.13 10.05 10.6 15.46 10.73 20.9 8.1-14.27-31.08 11.24-65.2-12.08-116.7-23.2-51.26 46.46-59.56 3.84-124.9" style="fill-rule:evenodd;clip-rule:evenodd;fill:#382621"/><path d="M819.52 954.47c-26.28-63.7-12.21-81.97 2.09-131.31a273 273 0 0 0-40.76-28.8c5.64 23.62 11.04 43.09 8.65 48.89-19.84 48.1-3.15 39.7-17.5 76.07 42.62 65.35-27.05 73.63-3.84 124.9 23.32 51.5-2.19 85.63 12.07 116.7 8.34-4.04 16.75-14.55 42.13-3.66-3.7-18.74-2-36.79-6.38-47.42-47.02-114 18.97-117.94 3.53-155.37" style="fill-rule:evenodd;clip-rule:evenodd;fill:#473732"/><path d="M831.02 1023.33c28.42-68.9-5.76-93.98 6.15-146.24 2.86-12.54 5.35-22.97 7.52-31.77a274 274 0 0 0-23.08-22.16c-14.3 49.34-28.37 67.61-2.1 131.31 15.44 37.43-50.55 41.36-3.53 155.37 4.39 10.63 2.69 28.68 6.38 47.42a123 123 0 0 1 15.11 7.92c3.18 1.92 13.88 5.39 28.77 9.67 6.44-28.36 17.61-58.76.94-69.7-24.63-16.17-41.67-68.48-36.16-81.82" style="fill-rule:evenodd;clip-rule:evenodd;fill:#301d18"/><path d="M917.07 1030.05c0-48.54-12.72-94.1-35-133.55-18.14 37.35-34.33 66.15-10.3 100.2 19.07 27-6.55 52.62 22.96 107.84 1.85 3.48 4.47 8.5 7.47 14.43a272 272 0 0 0 14.87-88.92m-463.02 35.65c-27.82-85-34.3-92.02-67.48-119.84a270 270 0 0 0-10.95 48.38c25.49 11.17 40.8 32.25 57.7 94.57 1.64 6.06 24.5 15.99 41.76 42.37.68 1.04 65 42.34 70.78 56.35 15.2 36.86 13.33-17.77 52.81 42.52.9 1.36 25.28 17.2 40.05 32.8 31.91 33.66 39.66-38.57 94.13 18.86a31 31 0 0 0 5.04 4.02 271 271 0 0 0 55.9-27.96c-27.93-31.85-42.53-4.09-51.05-21.26-31.83-64.11-26.7 5.78-39.75-6-15.6-14.08-63.41 18.91-63.41-9.44 0-42.22-25.1-6.7-31.63-38.69-8.89-43.6-46.48-10.57-51.05-31.93-12.61-58.98-41.02 1.55-49.58-40.46-12.1-59.36-42.13-10.22-53.27-44.29" style="fill-rule:evenodd;clip-rule:evenodd;fill:#382621"/><path d="M433.32 1088.8c-16.9-62.31-32.21-83.4-57.7-94.56a274 274 0 0 0-1.91 51.14c13.13 5.35 23.31 14.56 27.37 27.38 27.34 86.37 34.66 35.93 54.03 70.47 40.6 72.43 55.22 29.02 62.95 51.36 17.64 50.97 43.14 26.65 59.42 49.89 25.67 36.63 64.28 35.06 70.93 44.14 18.23 24.89-40.25-9.5-40.46-9.59-22.72 14.82-23.7-16.25-40.45-15.59-69.18 2.73-26.99-29.16-49.44-31.93-43.5-5.35-7.24-16.22-31.63-21.19-52.14-10.62-17.53-8.6-39.45-23.96-12.71-8.9-25.95-17.26-39.51-24.23 46.43 83.4 135.48 139.81 237.7 139.81 32.57 0 63.79-5.72 92.72-16.21a30 30 0 0 1-5.04-4.03c-54.48-57.43-62.22 14.8-94.13-18.86-14.77-15.6-39.16-31.43-40.05-32.79-39.48-60.29-37.61-5.67-52.82-42.52-5.77-14-70.09-55.31-70.77-56.35-17.26-26.38-40.12-36.31-41.76-42.37" style="fill-rule:evenodd;clip-rule:evenodd;fill:#473732"/><path d="M518.06 1194.59c-7.73-22.34-22.36 21.08-62.95-51.35-19.37-34.55-26.7 15.89-54.03-70.48-4.06-12.82-14.24-22.03-27.37-27.38a270 270 0 0 0 33.76 116.75c13.56 6.97 26.8 15.32 39.52 24.23 21.92 15.37-12.7 13.34 39.44 23.97 24.39 4.97-11.87 15.83 31.63 21.18 22.45 2.77-19.74 34.66 49.44 31.94 16.75-.66 17.73 30.4 40.45 15.58.21.09 58.7 34.48 40.46 9.59-6.65-9.08-45.26-7.51-70.92-44.14-16.3-23.24-41.78 1.08-59.43-49.9" style="fill-rule:evenodd;clip-rule:evenodd;fill:#382621"/><linearGradient id="a" x1="589" x2="513.25" y1="1514.68" y2="1390.42" gradientUnits="userSpaceOnUse"><stop offset="0" style="stop-color:#6da852"/><stop offset="1" style="stop-color:#004a1c"/></linearGradient><path d="M561.32 1210.48c69.77 107.36-51.38 384.35-87.4 366.35-49.07-24.52-58.26-286.6 87.4-366.35" style="fill-rule:evenodd;clip-rule:evenodd;fill:url(#a)"/><linearGradient id="b" x1="-14.12" x2="282.75" y1="1408.65" y2="1242.94" gradientUnits="userSpaceOnUse"><stop offset="0" style="stop-color:#6da852"/><stop offset="1" style="stop-color:#004a1c"/></linearGradient><path d="M480.1 1091.3c15.9 106.82-288.97 376.47-371.65 305.44-55.32-47.53 161.26-355.46 371.65-305.44" style="fill-rule:evenodd;clip-rule:evenodd;fill:url(#b)"/><linearGradient id="c" x1="765.87" x2="680.45" y1="1509.53" y2="1320.6" gradientUnits="userSpaceOnUse"><stop offset="0" style="stop-color:#6da852"/><stop offset="1" style="stop-color:#0d5b28"/></linearGradient><path d="M656.66 1217.54c-62.3 128.05 62.52 315.18 105.93 301.9 52.5-16.05-14.83-237.51-105.93-301.9" style="fill-rule:evenodd;clip-rule:evenodd;fill:url(#c)"/><linearGradient id="d" x1="263.61" x2="429" y1="1675.07" y2="1328.83" gradientUnits="userSpaceOnUse"><stop offset="0" style="stop-color:#6da852"/><stop offset="1" style="stop-color:#0d5b28"/></linearGradient><path d="M496 1198.12c-242.77 63.56-310.56 454.2-230.41 497.89 92.24 50.27 277.19-252.48 230.4-497.9" style="fill-rule:evenodd;clip-rule:evenodd;fill:url(#d)"/><linearGradient id="e" x1="103.41" x2="426.55" y1="972.34" y2="999.22" gradientUnits="userSpaceOnUse"><stop offset="0" style="stop-color:#6da852"/><stop offset="1" style="stop-color:#0d5b28"/></linearGradient><path d="M503.94 1007.45c-30.15 71.5-412.58 40.37-402.55-45.9 7.12-61.18 346.83-34.53 402.55 45.9" style="fill-rule:evenodd;clip-rule:evenodd;fill:url(#e)"/><linearGradient id="f" x1="120.56" x2="325.4" y1="528.08" y2="889.99" gradientUnits="userSpaceOnUse"><stop offset="0" style="stop-color:#6da852"/><stop offset="1" style="stop-color:#004a1c"/></linearGradient><path d="M467.74 922.7C305.7 933.77 53.9 724.3 97.86 668.46 129.73 628 381.56 772.62 467.74 922.7" style="fill-rule:evenodd;clip-rule:evenodd;fill:url(#f)"/><linearGradient id="g" x1="126.98" x2="536.81" y1="440.56" y2="894.6" gradientUnits="userSpaceOnUse"><stop offset="0" style="stop-color:#6da852"/><stop offset="1" style="stop-color:#0d5b28"/></linearGradient><path d="M543.66 899.75C263.01 929.61 50.47 475.81 125.23 425.7c46.76-31.34 434.32 146.54 418.43 474.05" style="fill-rule:evenodd;clip-rule:evenodd;fill:url(#g)"/><linearGradient id="h" x1="785.01" x2="840.62" y1="338.59" y2="693.55" gradientUnits="userSpaceOnUse"><stop offset="0" style="stop-color:#6da852"/><stop offset="1" style="stop-color:#004a1c"/></linearGradient><path d="M716.69 845.9c135.83-42.54 276.28-432.48 217.16-451.09-32.96-10.37-284.25 198.33-217.16 451.1" style="fill-rule:evenodd;clip-rule:evenodd;fill:url(#h)"/><linearGradient id="i" x1="690.37" x2="646.45" y1="395.87" y2="806.68" gradientUnits="userSpaceOnUse"><stop offset="0" style="stop-color:#6da852"/><stop offset="1" style="stop-color:#0d5b28"/></linearGradient><path d="M642.53 909.46c118.3-75.91 145.4-518.72 74.16-519.06-48.04-.23-241.88 289.54-74.16 519.06" style="fill-rule:evenodd;clip-rule:evenodd;fill:url(#i)"/><linearGradient id="j" x1="1268.11" x2="873.8" y1="638.39" y2="815.94" gradientUnits="userSpaceOnUse"><stop offset="0" style="stop-color:#6da852"/><stop offset="1" style="stop-color:#0d5b28"/></linearGradient><path d="M778.29 896.65c105.4 69.6 540.56-207.62 496.3-273.2-52.94-78.46-401.63 42.62-496.3 273.2" style="fill-rule:evenodd;clip-rule:evenodd;fill:url(#j)"/><linearGradient id="k" x1="1279.73" x2="936" y1="1032.61" y2="998.55" gradientUnits="userSpaceOnUse"><stop offset="0" style="stop-color:#6da852"/><stop offset="1" style="stop-color:#0d5b28"/></linearGradient><path d="M789.96 1007.45c77.23 97.7 484.06 87.28 494.35 27.37 15.1-87.96-354.49-150.17-494.35-27.37" style="fill-rule:evenodd;clip-rule:evenodd;fill:url(#k)"/><linearGradient id="l" x1="1173.44" x2="1047.01" y1="1505.88" y2="1176.42" gradientUnits="userSpaceOnUse"><stop offset="0" style="stop-color:#6da852"/><stop offset="1" style="stop-color:#004a1c"/></linearGradient><path d="M831.45 1138.98c191.26 210.99 443.53 258.76 473.16 209.22 30.06-50.24-191.86-252.47-473.16-209.22" style="fill-rule:evenodd;clip-rule:evenodd;fill:url(#l)"/><linearGradient id="m" x1="1022.35" x2="842.4" y1="1425.79" y2="1165.13" gradientUnits="userSpaceOnUse"><stop offset="0" style="stop-color:#6da852"/><stop offset="1" style="stop-color:#0d5b28"/></linearGradient><path d="M759.94 1138.1c16.48 130.13 271.65 310.76 294.85 272.78 32-52.4-94.17-238.35-294.85-272.78" style="fill-rule:evenodd;clip-rule:evenodd;fill:url(#m)"/><linearGradient id="n" x1="502.08" x2="656.85" y1="1363.89" y2="1112.79" gradientUnits="userSpaceOnUse"><stop offset="0" style="stop-color:#002c03"/><stop offset="1" style="stop-color:#003309"/></linearGradient><path d="m639.91 1063.07-7.06-15c-61.58 103.73-112.82 228.15-130.65 419.31 26.77-169.57 76.4-297.56 137.71-404.31" style="fill-rule:evenodd;clip-rule:evenodd;fill:url(#n)"/><linearGradient id="o" x1="454.2" x2="515.48" y1="1477.73" y2="1106.19" gradientUnits="userSpaceOnUse"><stop offset="0" style="stop-color:#0d5b28"/><stop offset="1" style="stop-color:#003309"/></linearGradient><path d="M639.91 1063.07c-155.43 134.95-252.42 304.37-316.03 493.47 66.1-218.82 159.97-400.53 308.97-508.48z" style="fill-rule:evenodd;clip-rule:evenodd;fill:url(#o)"/><linearGradient id="p" x1="230.19" x2="530.28" y1="1144.01" y2="1181.06" gradientUnits="userSpaceOnUse"><stop offset="0" style="stop-color:#002c03"/><stop offset="1" style="stop-color:#003309"/></linearGradient><path d="M639.91 1063.07c-167.98 17.9-310.48 99.51-436.09 223.34 115.6-134.26 256.93-217.08 429.03-238.35z" style="fill-rule:evenodd;clip-rule:evenodd;fill:url(#p)"/><linearGradient id="q" x1="365.62" x2="462.47" y1="731.51" y2="1063.6" gradientUnits="userSpaceOnUse"><stop offset="0" style="stop-color:#004a1c"/><stop offset="1" style="stop-color:#003309"/></linearGradient><path d="M632.85 1048.06c-131.12-100.1-291.61-203.27-451.1-306.32 158.97 95.23 316.86 190.92 459.23 293.25z" style="fill-rule:evenodd;clip-rule:evenodd;fill:url(#q)"/><linearGradient id="r" x1="166.83" x2="459.88" y1="678.79" y2="1008.1" gradientUnits="userSpaceOnUse"><stop offset="0" style="stop-color:#0d5b28"/><stop offset="1" style="stop-color:#003309"/></linearGradient><path d="M632.85 1048.06c-109.26-47.32-248.75-58.88-391.07-67.09 137.03 1.45 271.58 6.89 381.36 52.09-96.98-156.55-232.12-301.17-367.24-445.8 149.87 140.64 294.4 283.41 385.08 447.73z" style="fill-rule:evenodd;clip-rule:evenodd;fill:url(#r)"/><linearGradient id="s" x1="763.89" x2="771.44" y1="554" y2="964.84" gradientUnits="userSpaceOnUse"><stop offset="0" style="stop-color:#004a1c"/><stop offset="1" style="stop-color:#003309"/></linearGradient><path d="M645.18 1030.05A2994 2994 0 0 1 889.74 466.3c-100.71 204.65-181.16 401.36-235.7 587.93z" style="fill-rule:evenodd;clip-rule:evenodd;fill:url(#s)"/><linearGradient id="t" x1="637" x2="704.77" y1="754.65" y2="785.96" gradientUnits="userSpaceOnUse"><stop offset="0" style="stop-color:#0d5b28"/><stop offset="1" style="stop-color:#003309"/></linearGradient><path d="M628.19 1044.9c-1.3-224.67 27.07-404.33 75.28-553.87-37.42 171.8-58.8 353.42-53.86 551.12z" style="fill-rule:evenodd;clip-rule:evenodd;fill:url(#t)"/><linearGradient id="u" x1="980.6" x2="895.05" y1="1355.29" y2="1060.54" gradientUnits="userSpaceOnUse"><stop offset="0" style="stop-color:#004a1c"/><stop offset="1" style="stop-color:#003309"/></linearGradient><path d="M649.6 1042.15c193 99.35 384.95 191.4 575.6 274.28-192.67-71.1-387.92-156.38-585.29-253.36z" style="fill-rule:evenodd;clip-rule:evenodd;fill:url(#u)"/><linearGradient id="v" x1="921.18" x2="685.18" y1="1340.89" y2="1035.32" gradientUnits="userSpaceOnUse"><stop offset="0" style="stop-color:#0d5b28"/><stop offset="1" style="stop-color:#003309"/></linearGradient><path d="M639.91 1063.07c122.47 76.91 237.41 166.73 343.4 271.9-103.54-118.12-216.03-212.38-333.7-292.82z" style="fill-rule:evenodd;clip-rule:evenodd;fill:url(#v)"/><linearGradient id="w" x1="762.05" x2="573.75" y1="1264.41" y2="1195.77" gradientUnits="userSpaceOnUse"><stop offset="0" style="stop-color:#0d5b28"/><stop offset="1" style="stop-color:#003309"/></linearGradient><path d="M651.01 1043.1c-6.34 148 29.88 275.83 85.12 396.92-58.13-91.43-101.61-209.49-107.94-395.12-.04-9.92 20.33-13 22.82-1.8" style="fill-rule:evenodd;clip-rule:evenodd;fill:url(#w)"/><linearGradient id="x" x1="1067.15" x2="704.54" y1="1064.12" y2="991.2" gradientUnits="userSpaceOnUse"><stop offset="0" style="stop-color:#0d5b28"/><stop offset="1" style="stop-color:#003309"/></linearGradient><path d="m649.6 1042.15 4.44 12.1c208.03-61.56 371.3-60.52 521.72-41.5-203.52-24.7-395.82-35.63-526.15 29.4" style="fill-rule:evenodd;clip-rule:evenodd;fill:url(#x)"/><linearGradient id="y" x1="1049.8" x2="773.22" y1="1058.46" y2="1041.43" gradientUnits="userSpaceOnUse"><stop offset="0" style="stop-color:#6da852"/><stop offset="1" style="stop-color:#0d5b28"/></linearGradient><path d="M704.33 1043.65c33.26 33.5 233.55 56.47 235.7 18.53 3.66-64.6-168.45-64.93-235.7-18.53" style="fill-rule:evenodd;clip-rule:evenodd;fill:url(#y)"/><linearGradient id="z" x1="810.92" x2="663.09" y1="1049.61" y2="1040.42" gradientUnits="userSpaceOnUse"><stop offset="0" style="stop-color:#0d5b28"/><stop offset="1" style="stop-color:#003309"/></linearGradient><path d="M649.6 1042.15c79.5-9.91 155.06-13.63 218.07 2.38-94.7-11.94-158.43-3.86-213.64 9.71z" style="fill-rule:evenodd;clip-rule:evenodd;fill:url(#z)"/><linearGradient id="A" x1="1037.9" x2="642.38" y1="832.75" y2="938.15" gradientUnits="userSpaceOnUse"><stop offset="0" style="stop-color:#0d5b28"/><stop offset="1" style="stop-color:#003309"/></linearGradient><path d="m635.8 1031.69 13.8 10.46C754.4 899.9 915.38 799.1 1094.55 711.72c-181.59 73.15-343.3 169.51-458.73 319.97" style="fill-rule:evenodd;clip-rule:evenodd;fill:url(#A)"/></svg>