<svg xmlns="http://www.w3.org/2000/svg" viewBox="1767.4 1896 879.4 850.9"><path d="M2522.94 2518.06c19.74 14.42 22.85 44.25 12.81 66.54s-30.12 38.33-50.62 51.63c-148.35 96.25-341.34 88.41-513.87 49.63-43.1-9.68-89.29-23.36-115.22-59.1-25.94-35.76-14.63-99.1 28.75-107.45-41.86-22.53-72.87-56.28-80.02-95.4s9.93-81.67 42.15-104.98c-34.15-41.02-29.45-108.74 10.04-144.64-7.07-38-15.04-74.24-12.31-110.62s17.78-73.6 47.6-94.63c28.31-19.98 66.02-22.62 99.82-14.96s64.7 24.54 95.37 37.64a474.4 474.4 0 0 1 241.76-3.3 230.3 230.3 0 0 1 137.09-54.1c22.5-1.07 46.23 1.6 64.83 14.3 27.69 18.9 37.65 56.35 32.96 89.54s-21.37 63.29-38.7 96.26c47.41 43.58 63.05 118.22 37.12 177.17 18.63-3.86 37.8 9.14 45.87 26.37 8.08 17.22 7.05 37.4 2.78 55.94-10.58 45.8-40.72 86.74-88.2 124.16" style="fill:#f5ecdf"/><path d="M2459.25 2164.66c14.37 18.13 52.7 95.18 23.95 185.84-15.38 48.5-55.48 73.66-114.37 86.53-51.17 11.24-116.53 13.19-192.28 13.19-73.5 0-122.66-2.77-157.06-10.83-41.83-9.75-61.96-27.34-77.72-57.16-7.86-14.87-11.4-35.76-12.46-58.38 14.28 12.1 34.16 21.53 60.37 26.65 162.91 31.73 206.04-176.78 62.3-203.97-47.54-8.98-88.31 6.8-115.53 33.13-16.34-43.97-26.83-134.58-13.85-150.98 14.38-18.14 124.58 22.66 148.54 54.39 62.29-9.07 206.03-22.67 273.11-9.07 38.33-27.2 114.42-62.28 134.16-54.39 24.87 9.93 4.8 113.32-19.16 145.05m-162.91 181.3c162.9 31.73 206.03-176.77 62.28-203.97s-225.2 172.25-62.28 203.98" style="fill:#facc6d"/><path d="M2369.4 2439.39s8.4 38.03-15.57 47.09c-11.74 4.44-85.57 6.7-160.13 6.8h-.14a69 69 0 0 0-12.41-.05c-73.26-.13-143.89-2.35-153.14-6.75-19.16-9.06-8.52-47.1-8.52-47.1 34.4 8.07 83.56 10.84 157.06 10.84 75.75 0 141.1-1.95 192.28-13.2z" style="fill:#47b391"/><path d="M2358.63 2142c143.74 27.19 100.62 235.7-62.3 203.97-162.9-31.73-81.45-231.17 62.3-203.98" style="fill:#fce0a4"/><path d="M2193.7 2493.28c69.81 6.8 59.51 92.92-12.36 92.92-67.32 0-58.98-87.48-.2-92.96q6.26.05 12.42.04z" style="fill:#ffa307"/><path d="M2193.56 2493.28q-6.17.01-12.41-.04c3.88-.37 8.05-.37 12.4.04" style="fill:#f9ceaf"/><path d="M2051.97 2146.53c143.75 27.2 100.62 235.7-62.29 203.97-26.2-5.12-46.1-14.55-60.37-26.65-49.55-45.67-28.1-128.13 7.14-144.19 27.21-26.34 67.99-42.1 115.52-33.13" style="fill:#fce0a4"/><path d="M2138.05 2076.68c-2.23 4.12-21.4 76.65 2.56 76.65s30.19-81.68 30.19-81.68zm55.27-.41s-28.75 81.59-4.8 77.05 38.34-81.58 38.34-81.58zm201.24 13.6s43.12-40.8 57.5-27.2c14.37 13.6-9.58 58.93-9.58 58.93zm-421.65 36.26s-14.37-40.8-9.58-49.86 57.5 13.6 57.5 13.6z" style="fill:#e37f03"/><path d="M2155.06 2547.4c-2.2 0-4.08-1.7-4.25-3.95-.9-11.96 6.85-24.04 18.43-28.71a4.26 4.26 0 1 1 3.2 7.92c-8.23 3.32-13.75 11.8-13.11 20.15a4.27 4.27 0 0 1-4.27 4.6m-175.44-229.76c-11.24 0-22.3-4.68-29.72-12.81a4.27 4.27 0 0 1 6.3-5.76c6.58 7.2 17.29 11.04 27.31 9.8a4.27 4.27 0 1 1 1.06 8.47q-2.48.3-4.95.3m38.01 3.12h-3.2a4.27 4.27 0 0 1 0-8.53h3.2a4.27 4.27 0 0 1 0 8.53m265.11-4.35q-.22 0-.44-.03c-13.16-1.35-25.54-8.33-33.12-18.65a4.27 4.27 0 1 1 6.88-5.05c6.18 8.4 16.31 14.1 27.12 15.21a4.27 4.27 0 0 1-.44 8.52m35.16 2.84h-1.6a4.27 4.27 0 0 1 0-8.54h1.6a4.27 4.27 0 0 1 0 8.54" style="fill:#fffaee"/><path d="M2293.94 2384.5c0 22.66 62.29 22.66 62.29 0s-62.29-22.67-62.29 0m-273.11-4.54c0 22.66 62.29 22.66 62.29 0s-62.3-22.66-62.3 0" style="fill:#f78b68"/><path d="M2165.23 2639.84c-1.9-1.65-4.39-1.34-6.18-.05-9.03 2.3-12.49 2.57-21.57 3.14-4.11.28-10.38-.14-10.45-.36-2.59-.6-5.07-2.47-7.78-2.15q-.98.09-1.73.49a5 5 0 0 0-3.9 6.15c.62 2.32 3.01 3.4 4.45 5.18l1.23 1.4c3.26 4.92 1.66 5.2-2.77 11.38-3.3 3.43-3.71 3.27-6.64 3.5l-.43-.12q-.21-.31-.38-.65c-1.69-3.4-.24-9.27.58-11.46l.17-.2c.07-.05.2-.07.16-.18a5.6 5.6 0 0 0 1.38-2.78c.52-2.6-1.84-5.2-4.45-5.13a7 7 0 0 0-3.98 2.34l-.02.03c-6.14 5.14-8.5 7.28-15.99 11.93-3.83 2.43-5.47 1.92-9.48 1.23-3.05-3.36-4.06-10.64-3.31-18.11a37 37 0 0 0 8.78-10.2c2.07-4.42 5.88-9.83 3.88-14.77-1.85-2.99-5.16-4.16-8.04-1.79-7.78 4.88-11.26 13.48-12.66 22.48-4.12 2.87-8.87 5.26-13.57 7.61-8.31 4.73-19.23 7.63-21.84 5.6-.98-.97-.76-.81-1.07-1.42-2.06-5.83-.68-13 2.53-20.25 6.16-4.06 11.88-8.8 17.05-14.12 6.07-4.57 5.86-14.55-2.76-15.34-7.33 1.21-10.9 9.5-14.98 14.93a82 82 0 0 0-4.93 7.93c-17.12 10.46-37.93 16.49-48.63 13.6-1.64-.35-2.48-2.08-2.76-4.42 7.9-3.98 14.54-10.14 16.87-17.57 1.56-7.3-7.46-11.98-13.64-9.8-6.73 2.52-9.46 10.27-11 16.72-.44 1.75-.7 3.33-.9 4.86-6.8 2.22-13.86 2.97-15.01 1.54l-.05-.04q-.16-.3-.3-.61c-.27-1.06-1.1-4.13-1.08-4.96-.4-4.81-.47-16.03-11.85-15.95-2.05.1-3.95.66-5.76 1.47 3.54-6.76 7.16-13.49 10.62-20.29 14.95-4.23 31.67-13.54 20.33-25.44-3.18-3.01-8.2-2.96-11.8-.7-7.13 3.7-10.7 10.74-14.1 17.71-.22.07-.4.14-.64.2-7.24 1.75-20.8 1.22-22.91-2.44a17 17 0 0 1-4.04-7.07l.01-.1-.01.1-.03-.08c.14-1.16.35-3.07.27-3.75.05-6.42-9.92-6.5-9.92 0-1.24 7.54 3.07 15 8.81 19.65 5.23 3.99 12.2 4.45 18.55 4.39 1.24.05 2.8-.03 4.57-.23-5.36 10.1-12.23 20.5-15.2 30.9 2.05 7.85 9.62 1.5 13.41-1.33 1.64-1.33 5.84-3.6 6.45-3.94l.76-.21a9 9 0 0 1 1.45-.02l.78.2.39.23.08.07.05.08c.32.95.6 1.91.71 2.9.14 1.35.3 15.72 8.05 17.54 5.26 1.35 11.55.94 17.7-.78 4.13 16.16 29.51 10.54 45.37 4.37q4.84-1.82 9.46-4.13a32 32 0 0 0-.26 14.22c.55 4.67 4.1 9.02 8.82 9.87 9.86 1.47 19.32-3.13 27.84-7.53q3.7-1.76 7.28-3.8-.04 2.29.03 4.47c1.12 6.98 2.28 9.43 5.55 13.93 3.65 3.53 9.38 3.56 14.12 3 5.23-1.36 9.68-4.45 13.95-7.78.25 4.7 1.68 9.02 4.35 10.98 12.25 8.53 27.62-7.06 27.85-19.47a13 13 0 0 0-.7-3.53c7 .64 14.27-.34 21.19-1.15 4.5-.91 9.54-.86 13.45-3.48 2.85-1.89 3.05-6.68.17-8.64m-184.82-23.26.63-.35q.28-.09.57-.15l.26.01q.29.06.82.2l.68.2-.21.6c-.87 1.22-4.48 6.42-6.27 7.16l-.55.4c1.04-3.61 2.54-6.8 4.07-8.07m-25.52-43.74c.49-.31 1.28-.75 1.66-.97l.54-.19.2.06q.18.25.3.47l.13.5a29 29 0 0 1-7.82 5.09c1.53-2.32 3.07-4 5-4.97m532.95-27.89c-4.8-3.1-8.84 2.08-12.42 4.71-5.8 4.77-5.9 3.76-11.3 8.3-3.25 3.49-.76 8.5 3 9.8 1.26 3.7 3.45 11.91 2.8 13.82l-.05.33-.1.37-.09.13q-.29.3-.6.54-.19.11-.45.22c-.87.14-3 .57-4.09.8-5.06.14-6.87-.82-8.37-2.7-1-4.04-3.5-6.88-8.38-5.14-3.48 2.24-3.09 5.82-1.26 9.02l.05.36c.68 5.6-4.6 11.58-6.04 12.77-2.93 1.31-3.14.61-4.91-1.36-1.7-2.97-1.08-2.22-1.64-3.53a28 28 0 0 1-1.28-5.21c.75-4.96-4.99-8.98-8.6-4.75-4.27 12.07-4.08 28.68-10.21 36.26-2.85 2.17-2.36 4.6-7.92-1.45-1.79-2.3-2.84-4.23-3.84-8.57-.2-4.18-5.95-6.17-8.33-2.34l-.05.13a5 5 0 0 0-1.66-.32c-10.63-1.99-22.93 8.62-26.28 19.76-2.33 1.31-2.55 4.03-3.34 6.34-.95 3.23-2.35 4.75-2.89 5.47-8.47 8.5-11.53 8.4-13.83 5.16-2.6-4.26-2.33-6.53-4.04-13.1-1.83-3.69-7.75-3.14-8.86.83a98 98 0 0 1-12.73 24.5c-5.12-1.5-6.95-6.44-12.26-15.01a4.76 4.76 0 0 0-7.38-1.23c-2.82 3.05-1.4 2.18-2.88 4.67q-3.26 7.19-6.22 14.53c-2.59-7-6.07-17.2-15.29-17.9-8.9.24-12.92 9.21-15.82 17.72-.7-4.55-1.2-9-1.29-10.58-.35-2.77.57-6.11-1.46-8.36-2.69-3.12-8.3-1.05-8.3 3.08.7 11.43 1.23 23.79 5.6 34.38 3.62 3.8 9.52-.2 10.95-4.24 3.2-10.04 7-20.58 9.84-22.18q.48.11.93.29l.2.13.48.53q.29.43.55.86c4.9 7.7 3.55 11.27 8.8 18.36a7.34 7.34 0 0 0 9.88.18c2.85-3.55 3.49-8.42 5.44-12.5.71-1.77 1.5-3.52 2.23-5.29a42 42 0 0 0 5.12 7.2c4.78 4.72 9.22 5.71 13.02 5.63 4.78-.55 7.02-5.7 9.39-9.28a327 327 0 0 0 4.98-9.41c.26.53.48 1.07.79 1.58 8.44 13.2 24.56 4.82 31.96-6.23l.1.1c8.4 5.53 22.03-7.34 28.72-19.88a27 27 0 0 0 4.7 5.27c5.17 5.16 13.63 3.42 17.92-2 5.21-6.18 7.03-14.11 8.52-21.96 7.93 8.56 20.84 3.67 26.02-10.6q.24-.56.44-1.23c6.67 2.46 14.81 1.81 20.47-2.42 6.5-5.85 3.62-15.8 1.7-23.15-.43-1.06-.73-2.24-1.09-3.39 3.69-2.62 7.3-5.36 10.73-8.31 3.8-2.32 4.1-8.1.22-10.5m-112.04 87.83c-.34-1.89.38-3.83 4.24-9.06q.23-.27.51-.56c5.12-4.65 3.38-3.71 7.57-5.07a10 10 0 0 1 1.63.02 47 47 0 0 1-13.95 14.67" style="fill:#e45825"/><path d="M2346.11 2601.04c-4.57-1.1-8.61 2.52-12.87 3.75-2.75 1.64-4.63.8-10.26 3.47-6.04 3.82-1.44 13.8 5.4 11.92 5.58-1.06 10.74-3.5 15.84-5.9 6.9-1.79 9.21-10.29 1.9-13.24" style="fill:#e45825"/><ellipse cx="2329.88" cy="2250.78" rx="26.35" ry="24.93" style="fill:#360623"/><path d="M2032.96 2252.07a224 224 0 0 1-23.2 10.1 4.27 4.27 0 1 0 2.95 8.02 231 231 0 0 0 32.65-15.04 4.27 4.27 0 0 0-.79-7.8 81 81 0 0 1-33.88-21.02 4.27 4.27 0 0 0-6.18 5.9 89 89 0 0 0 28.45 19.84m155.56 47.84c-4.28 3.77-8.72 7.67-13.84 9.93-5.17 2.3-10.56 2.5-14.41.53-3.08-1.57-5.48-4.58-7.8-7.5a4.27 4.27 0 0 0-6.68 5.32c2.62 3.29 5.88 7.38 10.6 9.79q2.34 1.17 4.97 1.72l-3.94 38c-6.38-2.64-11.47-8.29-12.55-14.71a4.26 4.26 0 1 0-8.42 1.4c2.13 12.75 14.39 23.03 27.9 23.41l.8.01c13.2 0 25.64-9.42 28.51-21.76a4.27 4.27 0 1 0-8.31-1.94c-1.92 8.25-10.46 14.86-19.5 15.14l4.07-39.28a30 30 0 0 0 8.22-2.32c6.32-2.8 11.47-7.33 16.02-11.32a4.27 4.27 0 0 0-5.64-6.42" style="fill:#360623"/><path d="M2487.27 2351.79c28.48-89.8-8.21-166.34-22.75-187.18 19.02-28.28 36.23-100.68 27.12-133.33-2.29-8.2-6.2-13.46-11.65-15.63-23.42-9.36-101.82 29.54-136.7 53.81-64.72-12.4-198.57-1.23-270.35 9.04-23.02-27.13-99.54-58.14-134.8-58.56-9.32-.12-15.55 1.88-18.88 6.09-10.55 13.3-6.23 58.95-3.89 77.96 3.5 28.3 9.45 55.39 16.11 74.4-17.72 17.78-29.73 39.98-34.13 62.9-4.87 25.35.12 50.02 14.05 69.46a89 89 0 0 0 13.72 15.07c.96 18.1 3.58 35.12 8.71 48.94a454 454 0 0 0-63.89 7.18 4.27 4.27 0 1 0 1.55 8.4 445 445 0 0 1 66-7.17l.5 1.06c4.9 9.25 10.17 17.34 16.26 24.42a270 270 0 0 0-43.87 26.13 4.27 4.27 0 1 0 5.06 6.87 262 262 0 0 1 45-26.45 96 96 0 0 0 24.88 17.23 795 795 0 0 0-38.13 33.11 4.27 4.27 0 1 0 5.8 6.26 788 788 0 0 1 41.1-35.5 164 164 0 0 0 20.21 6.42c-2.3 11.06-6.15 39.09 11.89 47.62 8.74 4.14 65.12 6.53 128.93 7.17a54 54 0 0 0-16.1 15.78c-10.9 16.34-12.46 37.16-3.95 53.05 8.32 15.56 24.75 24.13 46.27 24.13 40.3 0 62.63-25.79 63.87-51.27.75-15.5-6.41-31.86-23.11-41.66 64.36-.57 122.3-2.92 133.24-7.06 24.28-9.2 20-42.28 18.57-50.3 14.77-3.45 28.42-7.74 40.82-13.04a342 342 0 0 1 47.78 31.37 4.25 4.25 0 0 0 6-.72 4.27 4.27 0 0 0-.73-6 351 351 0 0 0-43.45-29.06 139 139 0 0 0 28.55-18.68c24.13 7.49 47.66 16.93 70.74 26.21a4.26 4.26 0 1 0 3.19-7.92c-21.78-8.75-43.95-17.65-66.72-24.97a109 109 0 0 0 19.4-26.82 380 380 0 0 1 77.17 12.52 4.3 4.3 0 0 0 5.24-3 4.27 4.27 0 0 0-3-5.24 389 389 0 0 0-75.52-12.59c1.41-3.37 2.74-6.83 3.9-10.45m-541.33-159.05c.21-.98.07-2-.4-2.88a94 94 0 0 1-4.15-9.22c21.22-19.48 50.26-32.39 83.97-32.39q12.51-.02 25.82 2.47c39.3 7.44 67.18 29.49 78.53 62.1 11.46 32.94 3.46 71.99-20.37 99.48-15.83 18.27-52.31 46.96-118.84 34.01-24.95-4.86-43.54-13.55-56.99-24.47-2.26-58.48 12.23-128.14 12.43-129.1m-40.2 50.17c3.86-20.17 14.06-39.72 29.11-55.78q1.2 2.87 2.43 5.33c-2.14 10.48-13.33 68.12-12.56 121.16-19.19-20.72-23.53-47.07-18.99-70.71m330.94 295.88c-.96 19.82-17.6 39.84-47.74 42.74a4 4 0 0 0-1.33-1.2 95 95 0 0 1 .77-25.84 4.27 4.27 0 0 0-8.42-1.41 103 103 0 0 0-.76 28.8c-17.15-.53-30.1-7.42-36.61-19.57-7.03-13.15-5.65-30.53 3.53-44.28 7.7-11.54 19.67-18.61 33.9-20.36l10.31.01h4.06c32.45 3.62 43.1 24.3 42.29 41.1m115.64-56.3c-11.42 4.32-83.66 6.56-156.99 6.7-.42-.04-.8-.12-1.23-.16a69 69 0 0 0-15.11.17c-71.72-.17-140.21-2.35-149.15-6.58-11.46-5.42-9.66-26.46-7.24-37.98 34.72 7.4 83.2 9.85 153.95 9.85 72.13 0 136.96-1.62 189-12.45 1.18 7.07 4.35 33.8-13.23 40.45m98.3-88.05c-18.65-5.57-37.72-9.94-57.34-12.14a4.27 4.27 0 1 0-.95 8.48c17.18 1.93 34 5.58 50.53 10.28a141 141 0 0 1-27.88 16.55c-8.1-4.28-16.36-8.3-24.81-11.96a4.27 4.27 0 1 0-3.4 7.83 350 350 0 0 1 17.98 8.44c-55.52 21.44-135.73 24.03-228.2 24.03-72.63 0-121.14-2.55-155.11-10.35a4 4 0 0 0-1.95-.46 169 169 0 0 1-17.54-5.16q7.15-5.64 14.41-11.1a4.27 4.27 0 0 0-5.12-6.83 800 800 0 0 0-18.41 14.27 93 93 0 0 1-23.73-14.98 266 266 0 0 1 31.94-11.17 4.27 4.27 0 0 0-2.28-8.22 275 275 0 0 0-36.27 12.92c-5.85-6.33-10.86-13.58-15.45-21.86 19.69-.24 39.4.74 59.05 3.12a4.27 4.27 0 1 0 1.02-8.47 455 455 0 0 0-64.25-3.18c-4.77-11.5-7.45-25.93-8.7-41.61 14.67 10.2 33.12 17.61 54.7 21.82a177 177 0 0 0 33.9 3.43c49.72 0 78.94-23.97 93.03-40.23 25.8-29.76 34.42-72.1 21.98-107.88-12.4-35.61-42.58-59.65-85-67.68-46.17-8.74-86.3 5.15-114.49 29.68-14.8-45.03-23.25-126.91-12.33-140.68.69-.87 3.17-2.86 11.46-2.86h.64c39.63.47 113.33 35.51 129.68 57.17a4.3 4.3 0 0 0 4.02 1.65c71.24-10.37 208-22 271.65-9.1a4.3 4.3 0 0 0 3.32-.7c46.1-32.71 115.8-59.64 130.11-53.91 3.53 1.4 5.53 6.21 6.59 10 8.06 28.87-7.67 102.13-27.58 128.5a4.3 4.3 0 0 0 .06 5.23c12.21 15.4 51.93 91.4 23.24 181.9a111 111 0 0 1-4.9 12.51 390 390 0 0 0-81.98 4.96 4.27 4.27 0 1 0 1.41 8.42 382 382 0 0 1 76.3-4.99 102 102 0 0 1-19.34 24.33" style="fill:#360623"/><path d="M2422.44 2313.36c25.8-29.76 34.43-72.1 21.98-107.88-12.39-35.62-42.58-59.65-85-67.68-81.32-15.4-143.98 39.4-155.42 98.96-4.86 25.35.13 50.01 14.06 69.46 15.7 21.93 42.5 37.13 77.46 43.94a177 177 0 0 0 33.9 3.42c49.71 0 78.93-23.96 93.02-40.22m-125.29 28.42c-74.35-14.49-92.54-62.91-84.77-103.4 9.43-49.1 56.3-94.66 119.63-94.66q12.52-.02 25.82 2.47c39.3 7.43 67.18 29.48 78.53 62.1 11.46 32.93 3.46 71.99-20.37 99.48-15.82 18.26-52.31 46.95-118.84 34" style="fill:#360623"/></svg>