<svg xmlns="http://www.w3.org/2000/svg" xml:space="preserve" viewBox="340.5 420.8 94.9 40"><path d="m400.86 454.24-39.2.48c-6.9.2-11.5-2.29-13.68-5.72a9 9 0 0 1-1.45-4.86 10 10 0 0 1 1.34-5.03c2.32-4.11 7.73-7.57 16.34-7.99h.01l53.5-1.92c5.13-.25 8.5 2.03 10.1 5.05a9.1 9.1 0 0 1 .35 7.76c-1.29 3.08-4.33 5.54-9.12 5.69l-43.47 1.62h-.01c-4 .12-6.53-1.29-7.72-3.21a5.3 5.3 0 0 1-.8-2.76c-.01-.94.22-1.9.68-2.79 1.15-2.24 3.79-4.11 7.65-4.28l25.38-1.08.1 2.5-25.37 1.09c-2.86.12-4.75 1.4-5.53 2.92q-.4.8-.4 1.6t.42 1.48c.76 1.22 2.54 2.11 5.5 2.02l43.47-1.62h.01c3.67-.1 5.96-1.9 6.9-4.15a6.6 6.6 0 0 0-.25-5.62c-1.18-2.23-3.77-3.91-7.8-3.72l-53.5 1.93c-7.61.37-12.31 3.28-14.26 6.72a7.5 7.5 0 0 0-1.01 3.76 6.7 6.7 0 0 0 1.06 3.54c1.74 2.75 5.6 4.74 11.5 4.57h.03l39.2-.49z" style="opacity:.3;fill-rule:evenodd;clip-rule:evenodd;fill:#1c1b17"/><path d="m401.38 451.84-39.2.49c-6.9.2-11.51-2.3-13.69-5.73a9 9 0 0 1-1.44-4.86 10 10 0 0 1 1.34-5.03c2.32-4.1 7.73-7.57 16.33-7.98h.02l53.49-1.93c5.13-.24 8.51 2.03 10.1 5.06a9.1 9.1 0 0 1 .36 7.75c-1.3 3.08-4.34 5.54-9.13 5.7l-43.47 1.61h-.01c-4 .13-6.53-1.28-7.72-3.21a5.3 5.3 0 0 1-.8-2.76 6 6 0 0 1 .68-2.78c1.16-2.25 3.8-4.12 7.65-4.28l25.38-1.08.1 2.5-25.37 1.08c-2.85.12-4.74 1.4-5.53 2.92q-.4.8-.4 1.61 0 .79.43 1.47c.75 1.23 2.53 2.12 5.5 2.03l43.47-1.62c3.67-.12 5.96-1.91 6.9-4.15a6.6 6.6 0 0 0-.24-5.62c-1.18-2.24-3.78-3.92-7.8-3.73h-.01l-53.5 1.93c-7.6.37-12.3 3.28-14.25 6.72a7.5 7.5 0 0 0-1.01 3.76 6.7 6.7 0 0 0 1.05 3.55c1.74 2.74 5.6 4.74 11.5 4.56h.03l39.2-.49z" style="fill-rule:evenodd;clip-rule:evenodd;fill:#5c8aff"/><path d="m400.31 452.2-1.23.02-.02-1.7-39.03.48H360c-5.89.18-9.73-1.8-11.46-4.54a6.7 6.7 0 0 1-1.05-3.53 7.5 7.5 0 0 1 1-3.74 11 11 0 0 1 4.1-4.01 10.5 10.5 0 0 0-2.88 3.2 7.5 7.5 0 0 0-1 3.74 6.7 6.7 0 0 0 1.05 3.53c1.73 2.74 5.57 4.72 11.45 4.54h.02l39.04-.48zm-48.43-18.4c2.82-1.7 5.93-3.56 10.72-3.8h.01l53.26-1.92c5.11-.24 8.48 2.03 10.07 5.04a9 9 0 0 1 .35 7.72 9 9 0 0 1-2.66 3.5 8.8 8.8 0 0 0 4.56-8.2 9 9 0 0 0-1.04-3.83c-1.58-3.01-4.95-5.28-10.07-5.04l-53.25 1.92h-.02c-5.5.27-9.02 2.48-11.93 4.62m17.3 2.53a10 10 0 0 1 4.54-1.19l25.27-1.07.07 1.73 1.25-.06-.1-2.49-25.27 1.08a9.7 9.7 0 0 0-5.76 2m1.4 2.09a5 5 0 0 0-2.26 2.12q-.4.8-.4 1.6.01.79.43 1.47c.75 1.22 2.52 2.1 5.47 2.02L417.1 444h.01a8.2 8.2 0 0 0 5.12-1.75 9 9 0 0 1-3.9.94h-.01l-43.28 1.62c-2.95.08-4.72-.8-5.48-2.02a3 3 0 0 1-.42-1.47q0-.8.4-1.6.37-.72 1.04-1.31" style="fill-rule:evenodd;clip-rule:evenodd;fill:#90b6ff"/></svg>