<svg xmlns="http://www.w3.org/2000/svg" viewBox="740.88 567.84 732.24 868.32"><path d="M1344.93 1225.5c13.65 19.48 5.21 48.02-12.19 64.2s-41.27 23.07-64.2 29.45c-18.03 5.01-36.6 10.08-55.23 8.15-18.63-1.94-37.57-12.53-43.87-30.17-1.25 29.77-8.23 45.18-18.94 55.89-10.7 10.7-24.72 17.43-38.76 23.04a364 364 0 0 1-171.42 24.07c-28.97-2.96-59.27-10.31-79.78-30.99s-26.23-58.02-5.36-78.3c-49.64-52.27-78.33-111.85-84.1-173.86-5.79-62.01 11.3-125.87 47.33-176.66-25.49-49.99-20.68-109.69 4.65-159.34 6.75-13.27 15.4-26.29 28.3-33.72 23.7-13.64 53.47-4.7 79.22 4.53 4.82-22.99 18.2-33.7 31.99-40.76s28.91-11.77 41.39-20.97c12.87-9.48 21.98-23.04 31.81-35.6s21.3-24.9 36.4-30.14 34.53-1.02 41.99 13.1c16.75-32.32 62.06-45.8 93.71-27.85 31.65 17.92 43.4 63.69 30.96 98.67 52.33 10.88 96.33 54.51 107.7 106.72 8.77 40.28.94 87.22 27.71 118.55 15.41 18 39.5 26.75 54.97 44.72 16.87 19.6 20.68 49.42 9.3 72.63-11.4 23.22-37.32 38.43-63.16 37.06 24.41 43.33 17.32 102.14-30.42 137.58" style="fill:#f2e9e1"/><path d="M1315.08 1191.18c-17.72 21.64-43.92 39.9-71.8 42.12-27.9 2.22-55.8-3.99-83.75-3.07-73.11 2.42-142.3 53.26-214 38.7-59.58-12.07-102.65-68.95-113.81-128.71-11.17-59.76 4.15-121.43 26.26-178.05-8.32-46.43-4.84-90.32.2-133.42 2-17.06 6.26-36.97 21.99-43.86 12.33-5.42 27.48.25 36.23 10.5s12.19 24.02 8.97 36.83c26.4-39.87 60.07-75.65 101.31-99.86s90.5-36.29 137.7-28.68 91.71 36.2 113.98 78.53c19.23 36.57 21.03 79.55 22.5 129.03-3.98 27.28 10.46 56.37 34.64 69.64 9.37 5.16 19.86 8.03 29.26 13.16 9.4 5.1 18.11 13.3 19.68 23.87 2 13.44-8.49 26.2-21.05 31.41-12.53 5.22-26.63 4.68-38.43 2.68 23.45 47.14 19.12 103.77-9.88 139.17" style="fill:#faba3c"/><path d="M1073.74 855.27c2.76-11.17 12.9-20.11 24.35-21.45s23.36 5.04 28.6 15.3c3.28 6.4 3.4 15.55-2.56 19.62-4.02 2.77-9.35 2.3-14.16 1.54-11.8-1.9-23.36-5.07-36.23-15.01m117.84-142.57c-43.5-15.74-93.2-13.5-135.61 4.85 2.5-11.05 5.04-22.3 10.6-32.19s14.58-18.4 25.71-20.56 24.04 3.62 27.58 14.38c6.12-12.7 15.3-24.58 28.02-30.67 12.74-6.1 29.46-5.1 39.4 4.92 6.8 6.87 9.62 16.92 9.62 26.6.06 9.7-2.42 19.18-5.32 32.68" style="fill:#f58259"/><path d="M991.08 837.7c-8.35 19.5 35.95 34.2 43.84 12.02 7.86-22.2-35.38-31.8-43.84-12.02m183.41 36.43c-6.04 20.33 39.68 29.79 44.94 6.86 5.24-22.93-38.82-27.46-44.94-6.87" style="fill:#ef8b6a"/><path d="M934.68 1148.14c-.17-4.16-.4-8.46-2.33-12.1-1.94-3.68-6.15-6.48-10.17-5.45-3.36.88-5.58 4.1-6.98 7.3-5.1 11.56-3.19 25.83 4.5 35.88s20.74 15.61 33.33 14.56c12.59-1.06 24.4-8.6 30.99-19.4 3.53-5.78 5.26-14.19.25-18.77-2.76-2.54-6.86-3.1-10.54-2.37-3.67.72-7 2.57-10.28 4.36.46-5.1.85-10.37-.94-15.15-1.82-4.79-6.58-8.83-11.62-8.12-4.07.6-7.18 4.05-9.14 7.66-1.97 3.65-3.25 7.67-7.07 11.6m269.92 86.84a116 116 0 0 0 18.25 32.59c2.68 3.33 6.04 6.8 10.34 6.86 4.05.09 7.58-3.07 9.26-6.75 1.68-3.67 1.82-7.86 1.96-11.9 3.88 6.26 12.17 10.02 19.03 7.29 6.87-2.7 10.08-12.68 5.1-18.12 3.59 1.63 7.24 3.28 11.17 3.7 3.9.46 8.17-.45 10.9-3.27 3.85-3.99 3.5-10.68.72-15.47-2.8-4.78-7.44-8.14-11.97-11.33-23.3 12.7-50.64 17.77-74.77 16.4" style="fill:#f58259"/><path d="M1077.84 795.34c-1.14-1.94-3.7-2.88-5.75-1.88-3.88 2.34-3.1 4.81-5.1 5.95-3.42 3.82-9.77 4.56-12.9 2.85-5.19-3.13-7.18-6.12-6.9-12.73 0-5.27-8.06-5.3-8.09 0-1.7 14.21 13.76 26.57 27.18 21.05 5.72-2.2 13.98-8.35 11.56-15.24m119.98 24.18c-3.6 3.2-1.91 3.42-4.82 5.67-2.56 2.7-9.26 3.3-11.25 2.22-6.52-3.05-7-6.2-8.23-11.02-1.51-4.24-8.32-2.85-8.15 1.65.89 13.08 15.7 22.82 27.92 17.43 4.92-2.02 10.08-5.92 11.5-11.25.8-3.76-3.78-6.7-6.97-4.7" style="fill:#511239"/><path d="M1312.2 1099.49a4.4 4.4 0 0 0-2.02-2.62c-3.22-2.02-7.6 1.3-6.46 4.98 5.12 13.02 3.27 25.21-1.6 35.32-1.34 4.47-9.08 10.28-4.1 14.47 6.24 4.42 12.02-9.09 14.04-13.53 4.79-12.25 5.02-26.4.14-38.62m-27.51 66.14c-2.36 2.44-5.16 4.7-6.32 7.97-1.03 3.28 2.13 7 5.55 6.3 2.68-.35 4.67-2.57 6.58-4.34 1.7-1.67 3.85-3.38 3.73-6.03.14-4.76-6.27-7.4-9.54-3.9" style="fill:#fff7ed"/><path d="M973.65 1276.63c-7.4 0-14.84-.55-22.3-1.77-60.08-9.77-111-64.97-123.9-134.21-12.65-67.97 9.45-136.53 27.54-182.7a315 315 0 0 1-5.05-136.15c1.68-9.08 3.9-18.66 8.75-27.11 5.67-9.86 14.33-16.7 23.75-18.72 16.35-3.5 31.73 7.66 39.08 19.54a63 63 0 0 1 8.12 21.02c29.34-45.34 69.39-80.7 114.08-100.37 54.23-23.9 116.24-24.36 165.88-1.26 54.04 25.15 91.4 77.6 95.17 133.6.82 12.07.11 24.23-.57 35.97-.57 10.08-1.2 20.5-.8 30.62.57 14.5 4.24 41.04 22.7 55.94 6.01 4.84 13.1 8.17 20.62 11.68a166 166 0 0 1 14.9 7.57c12.62 7.52 25.3 21.45 22.93 37.91-2.05 14.25-14.92 23.93-26.8 27.2-7.44 2.06-14.81 2.31-22.62 2.57q-2.9.1-5.9.23c18.23 31.1 21.62 70.18 8.58 103.93-14.07 36.4-46.4 64.55-84.43 73.4-21.39 4.99-43.43 3.94-64.77 2.91-13.84-.65-28.17-1.37-41.98-.34-27.1 2-54.18 10.65-80.38 19.03-30.05 9.62-61.01 19.5-92.6 19.5M888.7 785.28q-2.06 0-4.16.43c-6.66 1.43-12.93 6.5-17.2 13.93-4.1 7.18-6.1 15.78-7.6 23.98a305 305 0 0 0 5.3 133.36 5 5 0 0 1-.18 3.14c-17.74 45.03-39.93 112.53-27.63 178.73 12.14 65.2 59.7 117.1 115.7 126.21 36.97 6.01 72.6-5.35 110.38-17.4 26.74-8.55 54.43-17.38 82.68-19.46 14.42-1.05 29.06-.34 43.19.34 21.59 1.06 41.98 2.03 62-2.64 34.84-8.15 64.5-33.93 77.4-67.31 12.9-33.35 8.28-72.4-12.03-101.83a5.02 5.02 0 0 1 3.53-7.8c5.16-.6 10.06-.74 14.79-.91 7.2-.23 13.98-.46 20.28-2.2 8.74-2.42 18.17-9.25 19.6-19.02 1.65-11.62-8.75-22.3-18.18-27.95a161 161 0 0 0-14.01-7.12c-7.72-3.59-15.7-7.32-22.64-12.93-20.45-16.52-25.64-43.55-26.4-63.32-.4-10.6.2-21.27.79-31.59.65-11.45 1.34-23.27.57-34.75-3.48-51.6-39.42-101.94-89.44-125.21-47.08-21.93-106.01-21.42-157.65 1.34-47.12 20.76-88.9 59.7-117.7 109.69a4.97 4.97 0 0 1-9.29-2.88c.63-7.66-1-20.48-7.71-31.3-4.93-7.98-14.28-15.52-24.39-15.52" style="fill:#511239"/><path d="M1235.01 1279.9c-4.44 0-8.94-2.22-13.67-6.72a74.5 74.5 0 0 1-20.6-35.38 5 5 0 0 1 3.62-6.03 5 5 0 0 1 6.04 3.61 64 64 0 0 0 17.8 30.56c3.08 2.94 5.7 4.28 7.5 3.9 1.53-.3 3.07-2.1 3.73-4.32.82-2.82.54-6.27.25-9.57a4.98 4.98 0 0 1 8.8-3.6c2.06 2.49 5.36 5.6 9.43 6.48 3.22.7 6.64-.4 8.12-2.6a4.6 4.6 0 0 0 .46-3.67c-.12-.43-.49-1.51-1.37-1.9a4.99 4.99 0 0 1 4.04-9.12c4.02 1.65 8.15 3.36 12.14 3.27 2.76-.08 6.12-1.5 6.9-4.01.53-1.8-.3-4.33-2.06-6.33-2.1-2.39-5.33-4.16-8.43-5.9a5 5 0 0 1 4.84-8.72c3.68 2.03 7.8 4.34 11.05 8.02 4.1 4.64 5.7 10.7 4.13 15.83-1.9 6.33-8.57 10.88-16.18 11.08q-2.53.08-4.9-.37a14 14 0 0 1-2.33 7.38c-3.79 5.64-11.2 8.35-18.49 6.78a23 23 0 0 1-6.32-2.42c-.14.7-.28 1.42-.51 2.13-1.71 5.96-6.07 10.29-11.34 11.34q-1.32.27-2.65.28m-286.54-84.17c-13.13 0-26.03-5.98-34-16.29-10.15-13.1-11.23-31.93-2.69-45.77 1.26-2.05 3.34-4.93 6.67-6.44 6.55-2.93 13.78 1 16.97 6.5q.74 1.26 1.26 2.62a44 44 0 0 1 8.71-9.06c5.73-4.42 10.12-3.88 12.82-2.62 3.96 1.82 5.53 5.95 6.13 7.52a75 75 0 0 1 3.36 12.56c1.4-.88 2.87-1.65 4.5-2.25 6.06-2.22 12.47-1 16.35 3.13 3.87 4.1 4.75 10.4 2.53 17.75-4.73 15.55-17.83 27.88-33.38 31.36a44 44 0 0 1-9.23 1m-25.3-59.56q-.33 0-.6.12c-.96.42-1.96 2.05-2.27 2.59-6.32 10.23-5.44 24.72 2.08 34.44 7.4 9.57 21.05 14.38 33.15 11.65 11.94-2.68 22.4-12.54 26.04-24.53 1.1-3.67 1.02-6.66-.23-8-1.05-1.14-3.5-1.4-5.7-.6-2.84 1.03-5.47 3.42-8 5.73a4.99 4.99 0 0 1-8.26-2.85l-.14-.86c-1.14-6.9-2.14-12.82-4.16-18.17-.63-1.62-1-2-1.06-2.05.03.08-.9.34-2.45 1.5a33.6 33.6 0 0 0-11.68 17.3 4.98 4.98 0 0 1-9.66-.23c-.5-2.2-.87-4.13-1.22-5.9-.65-3.38-1.1-5.83-2.13-7.63-.88-1.42-2.54-2.5-3.7-2.5m173.95 43.91q-.7 0-1.37-.2a5 5 0 0 1-3.45-6.16 130 130 0 0 0-1.48-75.08 130.4 130.4 0 0 0-43.04-61.52 5 5 0 0 1-.85-7.01 5 5 0 0 1 7-.85 140.6 140.6 0 0 1 46.38 66.28 140.7 140.7 0 0 1 1.59 80.89 5 5 0 0 1-4.79 3.64m21.25-304.79c-2.16 0-4.13-.38-5.58-.63a266 266 0 0 1-31.76-7.9c-3.59-1.13-7.66-2.64-10.37-6.26-3.9-5.21-3.36-13.19 1.29-18.54 12.44-14.39 31.18-18.2 46.6-9.54 8.45 4.75 14.1 14.72 14.38 25.37.14 5.9-1.97 13.28-8.4 16.24a14 14 0 0 1-6.16 1.25m-17.09-37.43c-7.89 0-15.8 3.67-21.81 10.65-1.54 1.76-1.91 4.58-.83 6.04.94 1.25 3.16 2.02 5.38 2.73a262 262 0 0 0 30.57 7.6c2.19.4 4.44.75 5.75.15 1.88-.88 2.68-4.19 2.62-6.92-.17-7.12-3.93-13.93-9.29-16.95a25 25 0 0 0-12.39-3.3m-44.8-116.89q-.59-.01-1.17-.14a4.97 4.97 0 0 1-3.67-6.01 95 95 0 0 1 21.9-41.5c5.64-6.24 10.94-10.34 16.66-12.88 7.64-3.39 15.9-3.62 22.6-.68a22.5 22.5 0 0 1 10.33 9.37c5.47-7.98 11.8-15.9 20.1-21.73 11.06-7.78 28.24-11.91 41.65-3.68 9.94 6.13 16.15 18.12 16.58 32.1.37 11.85-3.2 23.42-6.32 33.61a5 5 0 0 1-9.54-2.93c3.04-9.91 6.2-20.17 5.89-30.36-.26-8.2-3.5-18.78-11.82-23.9-9.54-5.87-22.3-2.54-30.68 3.33-9.85 6.92-16.69 17.55-23.3 27.86a4.97 4.97 0 0 1-9.17-2.4c-.34-5.46-3.36-10.22-7.75-12.13-4.1-1.8-9.54-1.57-14.55.66-4.42 1.96-8.66 5.26-13.33 10.45a85.4 85.4 0 0 0-19.63 37.14 4.9 4.9 0 0 1-4.78 3.82" style="fill:#511239"/><path d="M1123.84 869.08a5 5 0 0 1-4.53-2.87 27.4 27.4 0 0 0-18.31-14.82 27.4 27.4 0 0 0-22.93 5.3 4.98 4.98 0 1 1-6.27-7.75 37 37 0 0 1 31.45-7.26 37 37 0 0 1 25.1 20.31 5 5 0 0 1-4.5 7.1" style="fill:#511239"/><path d="M891.42 1357.8c-2.96 0-6.87-1.25-10.71-6.18a8.2 8.2 0 0 1-1.74-7.2c1.05-4.59 5.87-7.9 10.9-10.57-1.07-1.54-2.16-3-2.98-4.1l-.83-1.11c-.54-.74-1.17-1.48-1.77-2.23-2.5-3.04-5.64-6.8-5.52-11.87 0-2.8 1.22-5.16 3.47-6.64 5.73-3.76 15.87.34 17.86 1.2a4.26 4.26 0 1 1-3.39 7.83c-3.9-1.68-7.8-2.25-9.34-2 .2 1.97 1.82 3.96 3.56 6.04q1.07 1.29 2.05 2.57l.8 1.08q2.07 2.73 3.87 5.38.08-.05.15-.05c4.21-2.25 8.29-4.1 12.22-5.9 6.32-2.88 12.3-5.61 18.25-9.63q.34-.24.72-.48a4.27 4.27 0 0 1 4.76 7.1l-.5.3c-2.7 2.05-3.55 6.73-2.67 14.64.12.97.32 1.69.49 2.2l.17-.12a68 68 0 0 0 12.1-11.82 4.25 4.25 0 0 1 7.55 1.94l1.6 9.37c.34 1.97.68 3.99 1.56 5.3.52.74 1.26 1.02 1.48 1.02.12-.02.49-.25 1.4-1.42a37.3 37.3 0 0 0 7.52-19.48 4.24 4.24 0 0 1 4.61-3.9c2.37.2 4.1 2.24 3.9 4.6a46 46 0 0 1-9.28 24c-1.28 1.64-2.9 3.44-5.38 4.3-4 1.36-8.63-.38-11.28-4.25-1.97-2.85-2.5-6.1-2.96-8.69l-.12-.68a79 79 0 0 1-7.55 6.55c-.96.74-2.96 2.25-5.6 2.3-4.62.15-7.98-3.81-8.7-10.25-.22-2-.6-5.33-.3-8.97-2.77 1.37-5.5 2.62-8.21 3.84-3.79 1.71-7.69 3.5-11.62 5.59q.63 1.45.97 2.87c1.6 6.78-1.4 13.87-6.92 16.52-.89.38-2.51 1-4.6 1m-4.08-11.56.12.14c.85 1.11 3.02 3.56 4.76 2.73 1.65-.8 2.99-3.9 2.3-6.86a5 5 0 0 0-.31-.97c-3.02 1.57-6.33 3.6-6.87 4.96m96.83 2.42q-1.67 0-3.3-.4a4.2 4.2 0 0 1-2.9-2.48c-2.66-6.18-1.23-14.01 3.5-19.45 4.01-4.64 10.25-7.58 17.08-8.06a4.33 4.33 0 0 1 4.59 3.96 4.2 4.2 0 0 1-2.02 3.93 4.3 4.3 0 0 1 3.33 3.56 6.3 6.3 0 0 0 4.9 5.04c2.4.43 5.18-.88 6.35-3.02a4.27 4.27 0 0 1 5.81-1.68 4.27 4.27 0 0 1 1.68 5.81 15 15 0 0 1-15.35 7.3 14.5 14.5 0 0 1-7.75-4.2 29 29 0 0 1-3.96 4.65c-3.53 3.25-7.8 5.04-11.96 5.04m13.42-21.7c-3.96.6-7.44 2.36-9.69 4.98-2 2.28-2.96 5.36-2.67 8.09a10.3 10.3 0 0 0 5.1-2.68c2.53-2.36 4.35-5.75 6.15-9.06.25-.5.65-.96 1.1-1.33m40.31 44.94c-3 0-5.95-.65-8.66-2.02a4.3 4.3 0 0 1-1.88-5.75 4.3 4.3 0 0 1 5.75-1.88c4.93 2.5 12.22.4 16.21-4.67 3.76-4.79 5.19-11.94 3.93-19.66-.8-4.98-2.59-9.85-4.64-14.61a48 48 0 0 1-2.05 3.56c-3.56 5.58-8.49 8.52-13.53 8.03a4.3 4.3 0 0 1-2.9-1.54c-4.62-5.58-5.42-13.92-1.97-20.28s10.85-10.25 18.06-9.45a4.3 4.3 0 0 1 3.07 6.66q.4 0 .8.06a4.4 4.4 0 0 1 3.13 2.4c3.48 7.45 7.07 15.17 8.46 23.75 1.63 10.05-.42 19.62-5.64 26.29a23.2 23.2 0 0 1-18.14 9.11m6.4-59.76c-3.47 0-7 2.03-8.62 5.07a10 10 0 0 0-.14 8.9c1.48-.72 2.87-2.32 3.81-3.77.66-1.02 1.23-2.1 1.83-3.19 1.22-2.25 2.56-4.76 4.58-6.95q-.2 0-.45-.03-.55-.04-1-.03m36.23 16.36a4.26 4.26 0 0 1-4.16-3.34 4.25 4.25 0 0 1 3.22-5.1l4.16-.94a4.27 4.27 0 0 1 1.88 8.32l-4.16.94q-.47.1-.94.11m33.07-10.96a4.26 4.26 0 0 1-1.28-8.35l2.76-.85a4.27 4.27 0 1 1 2.56 8.14l-2.76.86q-.64.2-1.28.2" style="fill:#e35a26"/></svg>