<svg xmlns="http://www.w3.org/2000/svg" viewBox="42.5 54.5 379.5 359"><path d="M407.88 203.27c-2.4-19.32-14.33-38.32-32.72-52.14-15.48-11.63-34.44-18.04-53.38-18.04q-1.08 0-2.15.03a90 90 0 0 0-11.7 1.07 17 17 0 0 0-3.52.63 92 92 0 0 0-15.1 4.35 65 65 0 0 0-1.55-13.9c-4.76-21.16-19.2-38.5-38.65-46.38a60 60 0 0 0-22.57-4.4 59 59 0 0 0-35.03 11.42c-14.46 10.6-25.23 27.45-29.56 46.25-2.71 11.78-3.29 24.56-1.73 38.77-10.65-2.73-19.47-4-27.63-4q-2.36 0-4.65.14a71 71 0 0 0-16.36 2.73 78 78 0 0 0-7.89 2.2c-19.69 6.69-34.37 21.5-39.26 39.64a47 47 0 0 0-1.63 14.2l-.05.7c-.22 4.01.34 8.24 1.62 12.23a40 40 0 0 0 5.2 10.85c1.96 2.78 4.4 6 7.58 8.7 2.62 2.23 6.16 5.05 10.36 7.04l.98.45a71 71 0 0 0 19.47 7.95 83 83 0 0 0-13.8 13.16 79 79 0 0 0-17.2 36.52 25 25 0 0 0-1.39 5.42l-.13.85c-.28 1.76-.6 3.76-.66 5.88-.06 2.2.28 4.39.56 6.14l.16 1.04a42 42 0 0 0 2.05 8.33 58 58 0 0 0 6.71 16.75q-.29 2.88-.43 5.76a15.6 15.6 0 0 0 4.43 11.47 16 16 0 0 0 12.05 5.06q1.2-.05 2.32-.26a15.3 15.3 0 0 0 9.17 3.07l.56-.02a71 71 0 0 0 3.5 1.2 14.5 14.5 0 0 0 6.48 3.38 16 16 0 0 0 6.3.2q1.2.5 2.5.8 1.85.42 3.78.42c3.71 0 7.15-1.12 9.91-3.07q2.3-.34 4.76-.82c6.3-1.22 11.98-3.53 16.81-5.6a73 73 0 0 0 12.43-6.82 102 102 0 0 0 18.5-16.16 94 94 0 0 0 10.68-12.5c2.81 8.44 7.08 15.28 12.9 20.71a56 56 0 0 0 10.35 7.57 15 15 0 0 0 5.74 2.98c4.14 1.95 8.68 3.71 14.61 5.66 10.85 3.57 21.24 5.37 30.9 5.37q2.16 0 4.27-.11a67 67 0 0 0 29.3-8.54 73 73 0 0 0 22.76-20 78.5 78.5 0 0 0 15.04-56.2c-1.9-15.67-8.05-30.98-17.83-44.32l-.05-.12c14.92-.97 29.98-3.69 43.45-11.56 9.08-5.31 16.53-12.38 21.55-20.45a48.8 48.8 0 0 0 6.88-31.67" style="opacity:.5;fill:#383838"/><path d="M402.4 197.8c-2.4-19.32-14.32-38.32-32.71-52.14-15.48-11.63-34.44-18.04-53.38-18.04q-1.08 0-2.15.03a90 90 0 0 0-11.7 1.07 17 17 0 0 0-3.52.63 92 92 0 0 0-15.1 4.35 65 65 0 0 0-1.55-13.9c-4.76-21.16-19.2-38.5-38.65-46.38a60 60 0 0 0-22.57-4.4 59 59 0 0 0-35.04 11.41c-14.45 10.6-25.22 27.46-29.55 46.26-2.71 11.78-3.29 24.56-1.73 38.77-10.65-2.73-19.47-4.01-27.63-4.01q-2.37 0-4.65.15a71 71 0 0 0-16.36 2.73 78 78 0 0 0-7.9 2.2c-19.68 6.67-34.36 21.49-39.26 39.63a47 47 0 0 0-1.63 14.2l-.04.7c-.22 4.01.34 8.24 1.61 12.23a40 40 0 0 0 5.2 10.85c1.97 2.78 4.4 6 7.59 8.7 2.62 2.23 6.16 5.05 10.36 7.04l.98.45a71 71 0 0 0 19.47 7.95 83 83 0 0 0-13.8 13.16 79 79 0 0 0-17.2 36.52 25 25 0 0 0-1.4 5.42l-.13.85c-.28 1.76-.6 3.76-.65 5.88-.06 2.2.28 4.39.56 6.14l.16 1.04a42 42 0 0 0 2.05 8.33 58 58 0 0 0 6.71 16.75q-.3 2.88-.44 5.76a15.7 15.7 0 0 0 4.44 11.47 16 16 0 0 0 12.05 5.06q1.19-.05 2.32-.26a15.3 15.3 0 0 0 9.17 3.07l.55-.02a71 71 0 0 0 3.51 1.2 14.5 14.5 0 0 0 6.48 3.38 16 16 0 0 0 6.3.2q1.2.5 2.5.8 1.86.42 3.77.42c3.72 0 7.16-1.12 9.92-3.07q2.29-.35 4.76-.81c6.3-1.23 11.98-3.54 16.81-5.6a73 73 0 0 0 12.43-6.83 102 102 0 0 0 18.5-16.16 94 94 0 0 0 10.68-12.49c2.81 8.43 7.08 15.27 12.9 20.7a56 56 0 0 0 10.35 7.57 15 15 0 0 0 5.74 2.99 127 127 0 0 0 14.61 5.65c10.85 3.57 21.24 5.38 30.9 5.38q2.16 0 4.27-.12a67 67 0 0 0 29.3-8.54 73 73 0 0 0 22.76-20 78.5 78.5 0 0 0 15.04-56.2c-1.9-15.67-8.05-30.98-17.83-44.32l-.05-.12c14.92-.97 29.98-3.69 43.45-11.56 9.08-5.31 16.53-12.38 21.55-20.45a48.8 48.8 0 0 0 6.88-31.67" style="fill:#f3f5ff"/><path d="M395.17 198.7c-2.37-19.03-14.84-35.92-29.86-47.21-14.56-10.94-32.73-17.01-50.97-16.55q-5.57.15-11.07 1.04-1.14.05-2.2.35l-.36.1a85 85 0 0 0-25.58 9.42c2.1-8.01 1.68-17.17.04-24.45-4.13-18.39-16.72-34.1-34.27-41.22a52.3 52.3 0 0 0-50.55 6.14c-13.69 10.03-22.98 25.57-26.76 42-3.85 16.74-2.66 34.04.67 50.8a37 37 0 0 0-3.25-2.17 13 13 0 0 0-6.24-3.94c-10.3-2.76-21.13-4.81-31.84-4.13-5 .31-10.13 1-14.95 2.5q-3.76.84-7.42 2.06c-16.22 5.5-30 17.73-34.56 34.62a40 40 0 0 0-1.36 12.41l-.07 1c-.18 3.18.3 6.56 1.28 9.6.98 3.07 2.33 6.2 4.2 8.85s3.9 5.26 6.36 7.37c2.69 2.28 5.54 4.47 8.75 5.99l1.28.59c11.45 7.02 24.88 9.49 38.28 10.3a72 72 0 0 0-11.91 5.9 48 48 0 0 0-5.28 3.55 75 75 0 0 0-13.22 12.48c-8.13 9.8-13.73 21.55-15.78 33.94-.66 1.4-.98 2.92-1.22 4.45-.3 1.9-.65 3.88-.7 5.82-.06 1.91.37 4.1.64 5.93a35 35 0 0 0 1.84 7.3 49 49 0 0 0 8.48 18.83 34 34 0 0 0 7.1 9.3c4.8 4.4 9.97 7.25 16.08 9.43 4.95 1.76 10.4 2.47 15.61 2.75 5.46.28 11.02-.41 16.37-1.45s10.33-3 15.33-5.15a66 66 0 0 0 11.18-6.13 95 95 0 0 0 17.34-15.18 83 83 0 0 0 19.17-28.27q-.09 3.13.91 6.12c1.56 11.28 5.23 22.1 13.76 30.07a50 50 0 0 0 9.62 6.92 8 8 0 0 0 3.95 2.05 119 119 0 0 0 14.43 5.64c10.42 3.42 21.5 5.52 32.49 4.9 18.82-1.05 35.37-10.71 46.64-25.65a70.7 70.7 0 0 0 13.62-50.92c-1.82-15.08-7.9-29.41-16.95-41.54a71 71 0 0 0-5.47-10.58l-.02-.02c17.78-.37 36.01-1.95 51.57-11.04 7.59-4.44 14.37-10.5 19.03-18 5-8.05 7-17.53 5.84-26.92" style="fill:#a6cdd4"/><path d="M206.56 234.08a13.2 13.2 0 0 0-14.76-4.9c-2.78-7.45-9.64-13.44-17.55-14.65a23.4 23.4 0 0 0-19.86 6.69 16.7 16.7 0 0 0-15.99-8.7c-7.86.81-13.69 6.84-16.83 13.78q-.67.13-1.33.33a21.5 21.5 0 0 0-10.05 2.63c-4.56 2.45-9.48 7.4-7.53 13.03 1.64 4.76 6.82 7.84 11.57 8.68q3.06.54 6.1.18l.12.04a15 15 0 0 0 6.52.09c2 4.58 5.98 8.3 10.92 9.55 6.1 1.55 12.7-.73 16.76-5.4a54.4 54.4 0 0 0 35.37 3.18c5.54-1.39 11.65-3.66 15.43-8.16 3.9-4.63 4.67-11.27 1.11-16.37" style="fill:#f3f5ff"/><path d="M293.4 201.86a24.2 24.2 0 0 0-6.22-15.94 28 28 0 0 0-13.04-7.93 27.6 27.6 0 0 0-15.63.16c-18.9 3.46-34.9 21.12-32.11 41.2a26.7 26.7 0 0 0 7.63 15.32 23.6 23.6 0 0 0 10.7 8.03c5 1.9 10.2 1.8 15.08.31a35.5 35.5 0 0 0 18.74-8.78c8.86-7.85 15.1-20.42 14.84-32.37m-60.92 7.78a25 25 0 0 0-.62 2.47 27 27 0 0 1 .9-5.07q-.2 1.3-.28 2.6m-18.39-10.84c-1.69-2.37-5.5-2.94-8.21-3.63-2.67-.68-5.7-1.63-8.47-1.5-1.24.06-2.17 1.71-1.1 2.64 2.08 1.79 4.9 2.9 7.4 4q1.95.84 3.93 1.6c1.6.63 3.08 1.39 4.83.87 1.54-.46 2.67-2.51 1.62-3.99m102.13 23.18c-2.61-.67-5.6-.47-8.28-.66l-4.05-.33c-1.2-.09-2.54-.3-3.55.47-.58.45-.9 1.15-.49 1.85 1.2 2.06 5.04 2.33 7.15 2.8 2.63.59 5.78 1.52 8.48 1.34 3-.21 3.94-4.66.74-5.47m-14.7-66.17c-.18-.98-1.25-1.63-2.18-1.66-2.04-.05-2.91 1.53-4 2.98l-3.2 4.25-3.01 4.01c-1.02 1.36-2.14 2.65-2.72 4.26-.43 1.19 1.04 2.1 2.02 1.56 1.41-.78 2.49-2.06 3.6-3.2l3.71-3.85 3.51-3.63c1.4-1.45 2.67-2.55 2.27-4.72m-61.97 94.8c-2.89 3.12-4.66 7.12-7.66 10.2-.81.83-1.16 2.42-.44 3.44.48.68.93 1.01 1.7 1.3 1.15.43 2.62-.28 3.2-1.3 2.17-3.77 5.2-7.67 5.95-12.05.26-1.49-1.53-2.9-2.75-1.6m-27.14-19.66c-1.33-.13-2.22.47-3.33 1.08-.92.52-1.94.92-2.92 1.32l-6.2 2.48c-1.79.72-1.14 3.53.83 2.98l6.66-1.85c2.18-.59 4.9-.5 6.59-2.08 1.58-1.48.23-3.75-1.63-3.94m107.2-43.49c-2.7.07-5.49 1.07-8.04 1.91-2.7.9-5.54 1.9-7.79 3.67-2.1 1.67.19 5.19 2.58 4.43 2.5-.8 4.82-2.32 7.15-3.5 2.27-1.14 4.83-1.94 6.99-3.26 1.43-.88.9-3.3-.88-3.25m-78.38-19.68q-.98-1.4-1.9-2.82a173 173 0 0 1-3.73-6.01c-.7-1.19-1.87-3.08-3.55-2.08-1.23.72-.74 2.3.33 2.83a91 91 0 0 0 1.37 2.95 106 106 0 0 0 3.88 6.9c.77 1.27 1.35 2.52 2.85 2.96 1.11.33 2.03-.55 2.12-1.6.1-1.32-.65-2.1-1.37-3.13m43.9 88.15c-.5-1.96-2-3.72-3.04-5.44-.94-1.56-1.88-3.75-3.5-4.69-.77-.44-2.13-.1-2.27.92-.28 2.02.84 4.04 1.69 5.84.88 1.86 1.7 4.22 3.25 5.63 1.7 1.55 4.45.04 3.87-2.26m-58.72-78.22c-1.64-1.38-4.1-1.5-6.12-2.14a45 45 0 0 1-6.03-2.41c-1.8-.88-3.07 1.45-1.54 2.62a32 32 0 0 0 5.96 3.63c2 .92 4.56 2.35 6.8 1.8 1.46-.35 2.14-2.48.93-3.5m39.79-17.58-.23-3.15c-.15-2.02-.07-4.26-.7-6.2a.8.8 0 0 0-1.54 0c-.62 1.94-.55 4.19-.7 6.2l-.23 3.14c-.09 1.13-.32 2.23.06 3.3a1.72 1.72 0 0 0 3.28 0c.39-1.07.15-2.17.07-3.3m-5.85 95.47q-.2-2.55-.46-5.1a1.4 1.4 0 0 0-2.78 0q-.26 2.55-.46 5.1c-.13 1.68-.49 3.43-.44 5.1.08 2.94 4.5 2.95 4.58 0 .05-1.67-.3-3.42-.44-5.1m46.72-16.95c-.98-1.8-3.7-2.4-5.6-2.72-1.97-.34-3.96-.45-5.82.34-1.02.44-.63 1.98.3 2.24 1.57.45 3.2.54 4.75 1.15 1.63.66 2.78 1.98 4.56 2.14 1.66.16 2.5-1.87 1.81-3.15m-82.71 4.45c-2.1.74-3.77 2.36-5.51 3.7-1.65 1.26-3.42 2.47-4.45 4.3-.47.85.3 1.6 1.14 1.49 2.04-.28 3.81-1.48 5.56-2.52 1.77-1.06 3.87-1.98 5.25-3.55 1.24-1.4.08-4.17-2-3.42m87.02-73.95c-1.31-.04-2 .63-2.99 1.4q-1.3.99-2.63 1.94l-5.5 4.08c-1.65 1.22-.18 3.96 1.64 2.82l6.02-3.78c1.81-1.13 4.45-2.08 5.2-4.18.4-1.15-.65-2.24-1.74-2.28m-99.65 41.51c-2.5-.55-5.26-.14-7.78.1q-3.83.38-7.6 1.05c-1.75.3-1.35 3.2.41 3.09q3.6-.23 7.18-.18c2.36.04 4.88.53 7.21.21 1.09-.14 1.98-.71 2.14-1.88.14-1.02-.5-2.16-1.56-2.4m110.47-4.83c-1.12-1.2-2.27-.94-3.7-.64q-2.12.45-4.25.83L306 207.4c-1.87.32-1.46 3.51.46 3.34l8.33-.76q2.01-.15 4.03-.26c1.55-.1 2.86-.05 3.69-1.59a2 2 0 0 0-.3-2.34" style="fill:#ffcf4a"/><path d="M360.8 179.21c-1.87-2.69-4.57-4-7.5-5.22-3.22-1.32-6.43-2.58-9.89-3.06-4.92-.69-9.89.5-13.35 3.64l-.06-.16c-3.03-6.26-10.5-9.56-17.21-7.81-5.47 1.42-9.65 5.92-11.18 11.23a25.7 25.7 0 0 0-22.45 6.73c-3.8 3.62-6.61 8.75-6.84 14.06-.27 6.4 4.37 10.7 10.2 12.23a35 35 0 0 0 17.35-.07c2.71 7.33 11.3 11.72 19.12 10.47 8.7-1.38 14.37-8.8 16.84-16.82 8.9 3.7 19.68.77 24.68-8.32 2.74-4.98 3.7-11.98.29-16.9" style="fill:#f3f5ff"/><path d="M246.11 309.38c-5.62-11.29-18.31-16.12-30.28-16.36-12.42-.25-24.43 3.84-35.54 9.06a111.6 111.6 0 0 0-46.24 40.68c-6.2 9.71-10.94 20.7-13.06 32.05-.87 4.63 1.28 9.96 6.3 11.1 4.58 1.05 10.02-1.37 11.11-6.3 1-4.5 2.29-8.96 3.89-13.28.34-.92.74-1.82 1.08-2.74l.1-.26a99 99 0 0 1 3.94-7.83 95 95 0 0 1 6.83-10.45c2.8-3.42 5.66-6.75 8.81-9.87a113 113 0 0 1 7.76-7l1.26-1 .06-.06.08-.06a107 107 0 0 1 21.41-12.55l1.3-.53a98 98 0 0 1 15.98-4.9l2.31-.43.15-.02a46 46 0 0 1 5.84-.36c.52 0 3.93-.2 4.2.25l1.76.27 1.13.2c2.69.5 5.25 1.4 7.8 2.36l.32.13.61.29q.89.42 1.73.92a39 39 0 0 1 3.68 2.38c1.46 1.07 3.83.55 5.03-.65 1.36-1.37 1.48-3.37.65-5.04" style="fill:#7f73b4"/><path d="M184.33 303.57c-.08.11.15.1.66-.35l-.01.01q-.26.2-.65.34" style="fill:#60af7e"/><path d="M252 305.83a59.7 59.7 0 0 0-28.9-19.28c-11.77-3.5-24.65-3.4-36.48-.21-24.85 6.68-44.78 24.86-57.53 46.74-7.53 12.91-12.74 27.15-16.4 41.6-1.07 4.22 1.36 9.22 5.8 10.23 4.34.99 9.05-1.3 10.22-5.8a184 184 0 0 1 7.06-21.67l.54-1.3.08-.2.64-1.45q1.85-4.19 3.96-8.25a118 118 0 0 1 9.45-15.26c.39-.52.77-1.13 1.2-1.62-.28.35-.83 1.06-.01.05l.54-.67a98 98 0 0 1 8.63-9.34 108 108 0 0 1 7.27-6.35c-.91.74.82-.6 1.03-.75a87 87 0 0 1 10.76-6.67q1.65-.85 3.35-1.63c.3-.14.72-.27 1.12-.43q.06-.1.43-.25l.22-.09.06-.05-.05.04.84-.32a81 81 0 0 1 11.82-3.47c1.24-.26 2.79-.26 3.98-.68l.64-.06a63 63 0 0 1 6.13-.32 90 90 0 0 1 10.24.55l.11.02.89.14q2.2.36 4.36.87 4.29 1.02 8.46 2.44a40 40 0 0 1 14.61 8.37c3.42 2.99 7.78-1.5 4.93-4.93" style="fill:#60af7e"/><path d="M256.67 301a68 68 0 0 0-13.08-15.38c-5.44-4.72-11.73-8.06-18.38-10.72-13.48-5.38-29.31-5.64-43.32-2.3-29.18 6.99-53.76 28.1-68.54 53.76a128 128 0 0 0-10.2 22.65 114 114 0 0 0-4.25 16.6c-.64 3.58-1.59 7.32.5 10.63 2.87 4.57 8.77 5.2 12.7 1.64 3.18-2.87 3.1-8.1 3.95-12.06a114 114 0 0 1 5.84-18.86l.27-.65v-.01l.96-2.12a116 116 0 0 1 13.1-21.79 106 106 0 0 1 4.69-5.54 112 112 0 0 1 12.26-11.69l.96-.76.2-.16.03-.03q4.16-3.2 8.58-5.98a98 98 0 0 1 11.35-6.08c.5-.23 2.65-1.34.86-.4 1.5-.78 3.27-1.28 4.87-1.83a96 96 0 0 1 14.74-3.73l1.01-.16q1.35-.15 2.69-.27 4.83-.4 9.68-.14c1.43.09 3.04.06 4.43.4-1.8-.44.33.06.85.15q1.38.24 2.75.51a76 76 0 0 1 10.27 2.54q1.18.4 2.35.83c.2.08 1.71.7 1.65.65 1.6.71 3.16 1.5 4.75 2.25a47 47 0 0 1 16 12.27c2.58 3.04 7.55-.9 5.48-4.23" style="fill:#f2c766"/><path d="M254.7 294.92a48.5 48.5 0 0 0-15.22-14.6c-6.36-3.87-13.6-6.43-20.55-8.98-8.74-3.21-17.69-5.86-26.98-6.82-9.16-.94-18.54.25-27.39 2.72-27.93 7.79-51.86 28.95-65.54 54.2a110.4 110.4 0 0 0-13.38 47.06c-.23 4.64 4.25 9.08 8.88 8.87 5.03-.22 8.58-3.9 8.87-8.87q.14-2.4.39-4.78c.07-.7.2-1.4.24-2.11-.17 2.93.03-.06.15-.8q.78-4.85 2-9.6a103 103 0 0 1 4.4-13.18l.43-.98q.55-1.22 1.12-2.42a108 108 0 0 1 11.01-18.18l.57-.74v-.01a109 109 0 0 1 9.68-10.62q3.54-3.42 7.4-6.48c.26-.2 1.23-.9.16-.14-1.23.88.21-.16.38-.29a111 111 0 0 1 5.89-4.1 99 99 0 0 1 12.32-6.78c.72-.33 1.52-.6 2.23-.97l1.1-.44c3.74-1.46 7.5-2.8 11.4-3.81a72 72 0 0 1 5.59-1.22l1-.2q.16 0 .49-.05 1.68-.19 3.36-.3a70 70 0 0 1 12.45.46q1.54.19 3.1.34l.42.06 1.4.2q3.12.5 6.24 1.1c8 1.54 16.12 2.74 23.92 5.1 3.32 1 6.7 2.07 9.83 3.58a30 30 0 0 1 8.94 6.64c1.8 1.94 5.17-.6 3.7-2.86" style="fill:#df3d00"/><path d="M321.12 311.96c-.05-4.99-.66-10.14-4.05-14.04-3.6-4.14-9.49-5.07-14.66-4.32-4.8.7-9.07 3.01-13.43 5.04.08-3.67-.42-7.37-2.44-10.35a6 6 0 0 0-1.38-2.1 7 7 0 0 0-2.7-1.62c-4.1-2.33-9.18-2.4-13.75-1.57-5.66 1.02-11.3 3.65-14.62 8.52-3.03 4.46-3.33 9.92-3.03 15.18-1.73-.8-3.34-2.14-4.88-3.04-2.72-1.6-5.84-2.57-8.87-1.2a10 10 0 0 0-4.43 4.3 9 9 0 0 0-2.43 3.37c-.92 2.34-.95 4.95-1.12 7.44-.16 2.23-.38 4.57.72 6.51l.04.33c.09.54.48.85.94.94q.46.47.99.8a8.6 8.6 0 0 0 3.83 3.37c3.62 2.84 8.3 3.79 12.81 3.22q.83-.11 1.64-.27a51 51 0 0 0 10.31-2.03l4.7-1.34c3.59 2.24 7.43 4.01 11.48 4.79l.03.02c1.9.83 3.9 1.06 5.86.8q2.5.72 5.13.83c5.83.23 11.6-2.1 15.26-6.7a17 17 0 0 0 2.98-5.4q3-.48 5.97-1.15c2.54-.6 5.46-1.15 7.31-3.14 1.83-1.96 1.8-4.68 1.79-7.2m-78.39-4.74q-.16-.23-.34-.45.56.3 1.08.65zm16.35-12.53q-.57.4-1.11.87l.03-.07a11 11 0 0 1 2.09-2.75q-.55.94-1 1.95" style="fill:#f3f5ff"/></svg>