<svg xmlns="http://www.w3.org/2000/svg" viewBox="2681.7 1903.1 858 879.4"><path d="M3327.72 2481.62c39.2 39.87 37.87 107.99 7.9 155.2-29.95 47.23-82.19 76.14-135.58 92.78-129.6 40.38-277.71 15.9-387.43-64.04-39.72-28.94-75.76-66.76-88.84-114.13s2.86-105.07 46-128.61c-29.1-78.45-7.36-168.83 52.58-217.83-14.48-39.43-29.11-79.56-31.63-121.5s8.76-86.69 39.35-115.5c39-36.72 101.52-39.14 150.7-17.89 49.18 21.26 87.18 62 114.36 106.4 35.03-28.9 88.74-32.52 127.33-8.57 60-40.6 136.79-55.5 207.62-40.3 31.86 6.83 66.2 23.48 74.89 54.89 6.72 24.32-4.22 49.9-17.18 71.55a361 361 0 0 1-147.07 136.43c32.7 68.68 28.73 153.57-13 211.12" style="fill:#f5ecdf"/><path d="M3088.78 2232.09c70.71-101.23 207.75-190.6 350.74-178.68-11.8 82.76-82.28 159.67-176.54 189.94-44.2-61.31-133.4-44.39-174.2-11.26" style="fill:#47b391"/><path d="M3078.53 2584.56c-30.03 26.21-72.93 27.28-127.56-6.86-95.33-59.57-166.82-268.1-53.62-339.6 15.43-9.77 30.08-16.86 43.9-21.8 87.47-31.52 140.8 21.8 140.8 21.8a83 83 0 0 1 6.72-6.01c40.82-33.13 130-50.05 174.21 11.26 6.2 8.58 11.5 18.7 15.67 30.5 35.75 101.28-29.79 256.19-95.32 303.85-63.87 46.42-102.84 8.82-104.8 6.86" style="fill:#fa8690"/><path d="M2873.52 2005.75c190.65 0 208.52 232.35 208.52 232.35s-53.32-53.32-140.78-21.8c-33.49-21.8-91.58-115.23-67.74-210.55" style="fill:#47b391"/><path d="M3210.75 2207.75a4.26 4.26 0 0 1-2.04-8.02 1625 1625 0 0 0 209.56-135.84 4.27 4.27 0 0 1 5.18 6.78 1634 1634 0 0 1-210.66 136.56q-.99.52-2.04.52m-193.52.63a4.3 4.3 0 0 1-3.37-1.65 2086 2086 0 0 1-133.64-193.66 4.27 4.27 0 0 1 7.29-4.45 2077 2077 0 0 0 133.09 192.87 4.27 4.27 0 0 1-3.37 6.89" style="fill:#297061"/><path d="M2900.93 2358.3a4.3 4.3 0 0 1-3.92-2.6c-9.57-22.35-5.09-49.54 11.14-67.64a4.27 4.27 0 0 1 6.36 5.7c-13.84 15.43-17.81 39.53-9.66 58.59a4.27 4.27 0 0 1-3.92 5.95m17.27 44.94h-2.98a4.27 4.27 0 0 1 0-8.54h2.98a4.27 4.27 0 0 1 0 8.54" style="fill:#fffaee"/><path d="M2954.55 2424.48c-10.2 50.96 91.73 50.96 91.73 0s-81.54-50.97-91.73 0m215.31-11.1c-10.2 50.97 91.73 50.97 91.73 0s-81.54-50.96-91.73 0" style="fill:#fcb9be"/><path d="M2917.4 2652.24c-4.58-1.13-3.59.47-8.78.7-2.53.21-7.32-1.1-8.75-2.46-1.9-1.58-1.59-2.87-1.25-4.58.61-2.02 3.26-4.82 6.35-7.9 2.09 1.25 4.22 2.33 6.52 2.75 6.51.53 8.69-9.28 2.7-11.74l-.53-.27c.27-.36.59-.72.84-1.07q.3-.33.33-.63c.1-.17.26-.32.36-.5 2.22-5.22-4.77-8.35-7.66-4.45l-.05.04.14-.24-.4.48-.27.24c-.52.48-1.08.86-1.62 1.3a20 20 0 0 0-5.65-2.11c-4.6-.38-6.94 4.48-5.73 8.15-17.57 5.32-37.7-3.1-32.7-15.4a12 12 0 0 1 2.28-3.31c.1.7.33 1.41.82 2.04 3.97 5.46 11.28 10.58 18.28 8.61 7.4-2.23 8.59-11.95 4-17.42-4.48-5.85-12.88-8.22-19.92-6.6-5 1.7-9.53 5.3-12.48 9.78-1.87-1.19-2.43-.37-4.87-1.83l-.11-.07c-4.2-3.53-3.61-2.6-4.9-5.63-.03-.37-.07-.8-.12-1.13.1-1.46.3-2.91.7-4.33 4.1 3.7 9.07 5.76 13.92 3.98 7.42-2.61 12.84-14.03 5.99-19.9-4.2-3.55-10-2.7-14.81-1.08q-2.06.68-3.95 1.82c-.39-1.25-.64-2.72-1.27-5.2-1.88-3.95-7.52-2.82-8.85.67-6.67.97-11.82 2.41-15.87-.66 1.26-1.58 4.26-5.04 9.87-8.94.41-.26.58-.36.65-.42l.13-.07c2.9-1.17 6.12-3.73 4.69-7.22-1.98-4.72-7.55-2.31-11.41-2.23-8.22 1.03-11.6.4-13.3-.74 3.4-3.86 7.16-6.91 10.18-8.38 1.74.4 3.51.6 5.22 0 4.87-2.24 3.06-7.65-.3-8.77-2.05-.71-4.26-.52-6.35.04-5.17-1.33-9.74-2.99-14.38-4.48 1.03-4.3.88-9.07.47-13.31-1.42-9.69-1.47-7.95 3.42-10.8q.95-.37 1.95-.63c.37-.07.85-.15 1.3-.2l.32.05c.38.6-.1.55 1.65 2.8 3.57 4.27 10.76-.37 8.58-5.4-3.96-12.04-20.47-8.14-26.14.39-4.74 8.86.73 18.1-1.04 24.6a62 62 0 0 0-14.6-1.15c-8.97 1.22-13.14 11.24.29 16.8 5.9 1.9 12.3-.58 17.46-3.5q1.34-.9 2.38-1.98 4.25 1.16 8.58 2.44a69 69 0 0 0-5.61 5.23c-1.64 1.98-3.55 4.2-3.32 6.94 1.51 6.98 8.2 9.29 14.85 9.67q-.6.59-1.23 1.14c-2.2 2.13-4.12 4.9-4.58 7.98-.32 7.05 7.85 10.89 13.81 11.93 4.53.33 9.75.3 14.1-1.4q.43.98.97 1.94c-3.99 5.95-5.35 13.57-1.68 19.87 3.05 4.63 8.29 8.87 13.92 9.62a16.6 16.6 0 0 0 1.43 9.58c6.6 13.98 23.33 17.63 38.16 15-.35.59-.74 1.2-1 1.78-4.43 11.27 5.62 19.6 16.14 20.5 4.33.25 9.45-.04 13.06-2.6 2.65-2.17 1.78-6.83-1.33-8.13m-37.3-39.68-.16.19q-.04 0-.08.03l-.11.03-.14.03q-.25-.02-.5-.07-.83-.29-1.63-.65c-2.47-1.35-.49-.04-3.02-1.96-1.92-1.19-1.43-2.38-3.33-3.57 5.11 0 9.56 3.15 8.96 5.97m-20.9-27.02a5.4 5.4 0 0 1-3.76 4.38l-.3-.05c-2.29-.95-1.45-.43-3.81-2.6l-.08-.1c3.43-1.97 7-2.5 7.96-1.63m152.99 86.69c.37.29.44.34 0 0" style="fill:#e45825"/><path d="M3048.23 2675.95c-2.3-9.48-13.1-.42-20.17 1.71-.9.56-3.12 1.37-5.78 2.48-2.53-3.25-6.74-5.13-10.1-7.9l-.3-.23-.18-.15.49.37c2.64-2.83 4.71-6.5 1.56-9.79-3.79-4.17-15.24-.65-15.63 8.07.02.46.18.87.27 1.3-4.8 4.58-9.45 8.67-10.58 8.63-1.51.54-2.35.84-2.91 1-.02-.48-.03-1.06-.01-1.57.11-.62.35-1.91.54-2.47.33-1.14.74-2.26 1.13-3.38 2.03-2.87 2.36-5.7-.53-7.89a4.7 4.7 0 0 0-2.5-4.2c-11.14-6.56-34.37-.27-32.26 15.3 1.59 6.41 8.08 11.15 14.69 9.27 1.95-.08 5.33-1.33 8.86-3.2.58 4.54 3.07 8.43 8.54 8.63 8.74-.13 15.14-6.08 21.08-12.08 2.18 1.62 5.68 4.05 7.86 5.68-3.83 2.96-6.3 6.78-4.19 11.72 5 9.05 13.66-.51 15.85-7.06 4.89-2.48 10.96-4.51 17.08-7.23 3.24-1.19 8.02-2.64 7.2-7.01m-84.54.16c-.35.03-.7 0-1.05 0l-.15-.14-.33-.4-.37-.56q.1-.46.26-.91l.03-.06.18-.27q.37-.4.8-.77c.7-1 6.9-3.12 8.43-2.97 3.29-.21 4.02-.14 4.79.18-4.53 3.53-10.66 5.86-12.59 5.9m181.8-6.97c-.62-2.55-3.76-4.17-6.14-3-2.34.93-3.11 3.74-4.41 5.69-2.88 5.41-4.93 8.88-7.53 11.82-.32-1.2-.64-2.53-.61-3.08-.66-2.65-.33-3.9-.57-6.17q.01-1.02-.32-1.98-.18-.84-.49-1.88a4.7 4.7 0 0 0-5.44-2.08c-14.33-3.54-35.22 6.72-26.94 23.44 2.9 6.68 11.4 6.52 17.23 4.25 3.54-1.35 6.37-3.98 8.76-6.94 1.4 3.9 5.82 6.71 9.92 5.38 3.76-1.26 6.2-4.67 8.47-7.72 3.17-4.4 5.3-9.41 7.58-14.3.61-.96.9-2.14.49-3.43m-37.95 17.58c-.68.15-2.15.54-2.72.72-.82.06-1.86.06-2.43.07-.92-1.82-.77-2.59-.62-4.07.26-1.5 5.11-5.53 13.1-5.23a18 18 0 0 1-7.33 8.51m103.22-3.15c-.12-.36-.3-.7-.43-1.05-2.58-7.46-6.03-14.08-9.04-19.78q.6-.45 1.11-.89c5.96-4.98 8.47-13.05 7-20.6-2.95-15.27-16.64-12.65-22.9-1.68-.86-1.3-1.69-2.63-2.62-3.87-4.34-3.76-10.98 2.12-7.91 6.94 8.01 14.1 16.26 28.08 23.64 42.51.43 1.88.85 3.85 2.58 4.95 4.24 3.6 10.7-1.46 8.57-6.53m-12.95-42.32c.27-.2.8-.48 1.28-.74l.37.61c.12.4.4 1.3.56 2.05.03.5.22 2.7.1 3.43-.26 1.95-.1 2.07-1.28 4.27-1.23 1.53-1.34 2.04-2.17 2.72-2.54-5.78-3.07-9.97 1.14-12.34m120.3-105.71c.86-7.24-7.62-11.66-11.98-5.17-1.43 2.18-.54 4.72-.68 7.14l-.15.48q-.36.6-.76 1.17-.33.35-.64.63-.6.45-1.23.8-.6.18-1.22.3h-.07c-1.48-.48-1.49-.54-3.4-1.47-6.65-3.97-12.69-3.37-16.42 3.92-1.55 2.2-1.97 4.8-1.85 7.45a47 47 0 0 0-6.86-9.26c-1.26-1.27-2.95-2.48-4.83-2.04-11.58 3.82 1.33 20.12 6.6 25.11 2.16 9.95-.63 18.31-4.14 20.28-1.27-6.6-3.84-12.64-7.68-14.32a4.76 4.76 0 0 0-5.82 3.3c-1.4 5.2 1.4 11.36 4.26 15.96.4 3.34.36 6.13-.18 8.14-1.34-.84-1.65-1.15-2.02-1.41-.42-.25-1.14-1-1.63-1.51q-.41-.94-.84-1.87l.1.25a6 6 0 0 0-2.48-3.22c-3.16-2.01-7.84.47-7.7 4.29-.01.26.06.49.1.74-7.52 5.31-9.81 18.7-5.03 26.36-.9-.08-1.8.06-2.59.56-1.45.8-1.96 2.3-2.49 3.77l-.1.22c-.17.4-.72 1.22-1.1 1.76-3.71 4.06-6.15 5.54-8.2 5.58 3.65-4 5.59-9.92 4.8-15.03-1.35-9.2-10.07-12.99-15.26-4.04-2.19 4.54-2.83 10.12-2.09 15.15q-.2.13-.42.3c-3.03 2.83-.75 8.36 3.4 8.22l.14-.02c3.44 5.03 9.4 7.13 17.68 2.15 5.1-3.13 10.17-8.53 10.35-14.77q-.05-.4-.17-.78c7.47 2.68 13.6-7.9 14.68-16.18 3.94.45 8.2-1.68 9.82-5.35.86-1.9 1.31-4.81 1.37-8.13 3.08-.4 6.1-2.02 8.16-4.6 3.94-4.71 5.72-10.82 5.95-16.98q.57.26 1.18.44c5.36.78 7.18-5.75 6.43-9.99.1-2.38-2.38-11.43-2.74-12.2q-.1-.84-.06-1.7.08-.28.18-.54l.08-.16q.16-.35.47-.85c.78.4 1.6.83 1.94 1.09 10.27 7.75 26.18-1.3 25.14-13.98" style="fill:#e45825"/><path d="M3044.93 2314.4c-2.34.3-4 2.44-3.7 4.78.77 6.07-1.23 12.62-5.48 17.96s-10.19 8.75-16.28 9.36c-6.1.63-12.6-1.55-17.82-5.94-5.23-4.38-8.49-10.4-8.94-16.51a4.27 4.27 0 0 0-8.51.63c.62 8.4 4.98 16.56 11.96 22.42 6.18 5.19 13.8 8.04 21.28 8.04q1.44 0 2.88-.14c8.37-.84 16.43-5.41 22.1-12.54s8.33-16 7.28-24.35a4.26 4.26 0 0 0-4.77-3.7m154.16-23.66a4.27 4.27 0 0 0-3.43 4.97c.92 5.03-.41 10.6-3.67 15.28s-8 7.87-13.04 8.76c-5.04.9-10.6-.48-15.25-3.77s-7.82-8.06-8.67-13.1a4.26 4.26 0 1 0-8.42 1.42c1.23 7.27 5.66 14.07 12.16 18.65a30 30 0 0 0 17.14 5.6q2.29 0 4.52-.39c7.26-1.28 14.03-5.76 18.57-12.3 4.55-6.53 6.39-14.44 5.06-21.69a4.3 4.3 0 0 0-4.97-3.43m-51.39 73.85a4.25 4.25 0 0 0-4.4 4.15c-.35 11.21-3.12 31.44-17.88 40.93-9.52 6.12-22.68 5.9-31.99-.53s-14.18-18.66-11.83-29.73a4.27 4.27 0 1 0-8.34-1.77c-3.06 14.35 3.25 30.2 15.32 38.53a37.6 37.6 0 0 0 21.28 6.44c7.1 0 14.2-1.91 20.18-5.76 18.05-11.6 21.4-34.96 21.79-47.86a4.27 4.27 0 0 0-4.14-4.4" style="fill:#360623"/><path d="M3442.85 2050.75a4.3 4.3 0 0 0-2.98-1.6c-145.1-12.1-278.02 76.59-348.69 172.33a321.6 321.6 0 0 1 89.53-136.22 4.27 4.27 0 0 0-5.71-6.35 330 330 0 0 0-91.4 138.39c-3.7-22.21-12.1-59.51-30.49-97.24-37.8-77.58-99.9-118.58-179.6-118.58a4.3 4.3 0 0 0-4.14 3.23c-22.64 90.57 26.48 180.4 63.2 210.43a236 236 0 0 0-37.5 19.36c-39.35 24.85-60.08 67.37-59.95 122.95.2 84.43 51.15 184.86 113.59 223.87 28.6 17.88 54.75 26.84 78.18 26.84a82 82 0 0 0 33.62-6.98 82 82 0 0 0 17.95-10.98 68 68 0 0 0 26.9 12.94c17.3 4.09 45.31 3.6 80.48-21.98 33.3-24.22 66.7-75.52 87.16-133.86 22.94-65.44 26.38-127.54 9.67-174.87a128 128 0 0 0-12.97-26.82c92.58-31.78 162.08-107.9 174.04-191.6a4.3 4.3 0 0 0-.89-3.26m-565.98-40.71c75.55 1.1 132.2 39.28 168.46 113.54 20.7 42.4 28.56 85.27 31.23 104.45a134 134 0 0 0-43.27-20.85c-32.78-9.14-64.22-4.92-91.26 4.42-33.92-23.76-85.44-113.26-65.16-201.56m303.95 564.21c-51.64 37.56-85.44 18.32-95.87 10.23 20.75-20.07 35.42-52.43 43-95.4a4.27 4.27 0 0 0-8.4-1.49c-7.6 43.05-22.36 74.75-43.2 93.23a4 4 0 0 0-1.22 1.06 75 75 0 0 1-18.09 11.5c-28.26 12.58-63.19 6.1-103.81-19.3-60.22-37.63-109.38-134.83-109.57-216.65-.09-36.6 9.55-86.4 55.97-115.72 15-9.47 29.2-16.36 42.56-21.25q.5-.12.97-.35c19.46-7 37.13-9.74 52.8-9.74 51.24 0 81.2 28.9 83.06 30.75l.07.04a4.23 4.23 0 0 0 5.89.01l.08-.05q3.02-3 6.61-5.89l.07-.05c25.56-20.51 71.5-35.01 112.07-25.81 16.53 3.75 36.9 12.64 53.06 33.02a4.23 4.23 0 0 0 3.9 5.94c.14 0 .28-.05.41-.06a117 117 0 0 1 13.45 27c35.77 101.36-31.18 253.43-93.81 298.98m83.76-335.94c-17.72-23.12-40.49-33.1-58.89-37.26-35-7.95-71.92.16-99.21 14.47 35.18-44.32 81.54-83.39 132.62-111.46 63.69-35 131.16-51.12 195.49-46.74-13.45 79.5-80.9 151.29-170.01 181" style="fill:#360623"/></svg>