<svg xmlns="http://www.w3.org/2000/svg" xml:space="preserve" viewBox="296.2 373.9 90.9 55.3"><path d="m357.81 411.59-37.74 10.61c-6.61 1.98-11.7.76-14.7-1.99a9 9 0 0 1-2.65-4.32 10 10 0 0 1 0-5.2c1.17-4.57 5.5-9.31 13.7-11.95h.02l51.17-15.7c4.9-1.57 8.75-.25 11.07 2.26a9.1 9.1 0 0 1 2.35 7.4c-.45 3.31-2.75 6.48-7.34 7.86l-41.57 12.82h-.01c-3.83 1.15-6.64.45-8.3-1.1a5.3 5.3 0 0 1-1.47-2.46 6 6 0 0 1-.07-2.87c.53-2.47 2.6-4.95 6.28-6.11l24.23-7.62.75 2.4-24.23 7.6c-2.72.86-4.22 2.58-4.58 4.26q-.2.88.03 1.66.2.76.79 1.31c1.04.99 3 1.39 5.83.53l41.57-12.81h.01c3.51-1.06 5.26-3.39 5.6-5.8a6.6 6.6 0 0 0-1.7-5.36c-1.72-1.86-4.66-2.81-8.5-1.58l-51.18 15.7c-7.26 2.34-11.04 6.36-12.03 10.19a7.5 7.5 0 0 0 0 3.9 6.6 6.6 0 0 0 1.93 3.14c2.4 2.2 6.63 3.13 12.3 1.43h.02l37.74-10.62z" style="opacity:.3;fill-rule:evenodd;clip-rule:evenodd;fill:#1c1b17"/><path d="m357.69 409.14-37.75 10.61c-6.6 1.98-11.7.76-14.69-1.99a9 9 0 0 1-2.65-4.31 10 10 0 0 1-.01-5.21c1.18-4.57 5.5-9.31 13.7-11.94l.02-.01 51.17-15.7c4.9-1.57 8.75-.25 11.08 2.26a9.1 9.1 0 0 1 2.34 7.4c-.45 3.31-2.75 6.48-7.34 7.86L332 410.93h-.01c-3.83 1.16-6.64.45-8.29-1.1a5.3 5.3 0 0 1-1.48-2.46 6 6 0 0 1-.07-2.87c.54-2.47 2.6-4.95 6.29-6.11l24.23-7.61.75 2.38-24.23 7.62c-2.72.85-4.22 2.57-4.59 4.25q-.18.88.03 1.66.2.76.8 1.31c1.04.99 2.99 1.39 5.83.53l41.57-12.81h.01c3.51-1.06 5.26-3.39 5.59-5.8a6.6 6.6 0 0 0-1.7-5.36c-1.72-1.86-4.66-2.81-8.5-1.58l-51.17 15.71c-7.26 2.33-11.05 6.35-12.04 10.18a7.5 7.5 0 0 0 0 3.9 7 7 0 0 0 1.94 3.15c2.39 2.2 6.63 3.13 12.3 1.42h.01l37.75-10.62z" style="fill-rule:evenodd;clip-rule:evenodd;fill:#e76a1f"/><path d="m356.75 409.77-1.18.33-.46-1.64-37.58 10.57h-.02c-5.64 1.7-9.86.78-12.24-1.41a6.7 6.7 0 0 1-1.93-3.14 7.4 7.4 0 0 1 0-3.88 11 11 0 0 1 2.93-4.93 10.5 10.5 0 0 0-1.96 3.83 7.4 7.4 0 0 0 0 3.88 6.7 6.7 0 0 0 1.93 3.14c2.38 2.2 6.6 3.11 12.23 1.42h.03l37.57-10.58zm-51.54-5.24c2.26-2.82 5.08-5.86 10.33-7.55h.01l50.95-15.64c4.88-1.56 8.72-.24 11.03 2.26a9 9 0 0 1 2.33 7.37 8.8 8.8 0 0 1-2.62 5.17 9 9 0 0 0 1.66-4.07 9 9 0 0 0-2.33-7.37c-2.32-2.5-6.16-3.82-11.03-2.26l-50.95 15.63-.01.01c-4.56 1.46-7.08 4.07-9.37 6.45m17.37-2.04a10 10 0 0 1 4.07-2.32l24.13-7.58.52 1.65 1.19-.37-.75-2.38-24.12 7.58a9.7 9.7 0 0 0-5.04 3.42m1.89 1.65a5 5 0 0 0-1.63 2.64q-.2.88.03 1.65.21.75.78 1.3c1.05.99 2.99 1.39 5.81.54l41.4-12.76a8.2 8.2 0 0 0 4.48-3.03 9 9 0 0 1-3.51 1.93h-.01l-41.4 12.76c-2.82.85-4.76.45-5.8-.53a3 3 0 0 1-.8-1.3 3.4 3.4 0 0 1-.02-1.66q.16-.79.67-1.54" style="fill-rule:evenodd;clip-rule:evenodd;fill:#f3942f"/></svg>