<svg xmlns="http://www.w3.org/2000/svg" viewBox="881.7 1038.9 879.4 793.7"><path d="M939.88 1430.31c93.05 16.57 3.6 148.42 97.12 256.92 102.02 145.52 376.9 133.48 500.54 34.3 37.4-29.84 62-66.38 72.24-106.88 29.74-15 53.15-16.94 53.55-46.2 1.02-75.1 42.54-77.58 33.93-161.63 37.98-45.16 39.7-120.37-29.58-120.83-22.1-1.43-53.97 16.89-79.8 3.05-14.23-23.47-55.1-68.28-90.2-89.46 27.38-40.1 27.33-88.15-18.54-101-52.66-13.25-253.96-61.44-246.58 30.15-53.53-68.6-212.92 63.9-242.08 118.19-10.53 20.6-32 38.51-32.71 64.17-31.43 28.56-60.25 82.34-17.89 119.22" style="fill:#f5ecdf"/><path d="M1005.5 1410.83c-.3 4.48 2.57 5.57 3.81 5.83q.5.1.98.1a4.9 4.9 0 0 0 4.87-5.1l.01-.2c.96-14.68-1.95-24.3-8.67-28.58-5.6-3.56-13-2.87-21.98 2.07-11.07 6.08-13.53 4.61-13.55 4.6s-2.15-2.04.75-14.17a4.85 4.85 0 1 0-9.43-2.26c-2.07 8.67-3.62 19.24 2.8 24.14 6.38 4.86 16.23.52 24.1-3.8 5.49-3.02 9.79-3.87 12.1-2.4 1.24.8 5.2 4.55 4.2 19.77m-24.89-56.2 44.07 21.65a4.85 4.85 0 0 0 6.74-2.8l8.25-24.5a4.85 4.85 0 1 0-9.2-3.09l-6.48 19.24-39.11-19.21a4.85 4.85 0 0 0-4.28 8.7m57.21-19.09h.42c13.23 0 19.62-12.53 21.16-19.23a4.84 4.84 0 0 0-9.45-2.19c-.11.49-3 11.84-11.94 11.72-2.73-.05-6.03-1.12-9.47-2.7l8.14-13.69a4.85 4.85 0 0 0-8.35-4.95l-8.29 13.97c-3.76-2.36-7.25-4.9-9.87-6.93l5.84-12.28a4.85 4.85 0 1 0-8.77-4.16l-7.47 15.72a4.85 4.85 0 0 0 1.24 5.78c2.24 1.9 22.36 18.66 36.81 18.94m23.06-37.86q1.36.17 2.65.17c11.8 0 18.8-10.77 20.94-16.87a4.85 4.85 0 0 0-9.15-3.22c-.04.12-4.15 11.5-13.17 10.3-2.7-.36-5.87-1.79-9.1-3.74l9.6-12.7a4.85 4.85 0 0 0-7.73-5.85l-9.8 12.95a124 124 0 0 1-9.04-7.99l7.17-11.55a4.85 4.85 0 0 0-8.24-5.12l-9.19 14.8a4.85 4.85 0 0 0 .59 5.88c2.02 2.14 20.13 21.04 34.47 22.94m30.36-29.26a4.84 4.84 0 1 0 6.79-6.93l-10.26-10.03.16-.19c6.45-10.38 7.68-20.38 3.4-27.44a14.9 14.9 0 0 0-14.15-7.16c-5.95.47-11.35 4.08-15.24 9.91a4.83 4.83 0 0 0-5.5 7.81zm-13.3-42.08a5.3 5.3 0 0 1 5.1 2.54c2.1 3.46 1.17 9.21-2.4 15.6l-11.45-11.2c2.3-4.13 5.44-6.68 8.74-6.94m43.59 15.34a4.84 4.84 0 0 0 6.81.77 4.85 4.85 0 0 0 .77-6.82l-30.42-38.15a4.85 4.85 0 1 0-7.58 6.05zm20.55-10.03a4.84 4.84 0 0 0 3.84-7.8c-10.02-13.06-18.68-27.24-20.51-33.3 7.2 2.38 24.89 14.03 39.22 25.13a4.84 4.84 0 0 0 7.51-5.53l-15.98-42.8a4.85 4.85 0 1 0-9.09 3.4l10.22 27.36c-32.86-23.4-37.95-17.58-40-15.24-1.99 2.27-8.04 9.18 20.94 46.88a4.9 4.9 0 0 0 3.85 1.9m54.48-29.68q1.99 0 3.9-.56c2.63-.78 7.46-3.22 9.79-10.5a4.83 4.83 0 0 0 7.83-5.65l-7.59-11.72q-.14-.19-.29-.36l-.27-.34a5 5 0 0 0-.53-.47l-.19-.16-.03-.01a5 5 0 0 0-.86-.49l-.17-.05q-.37-.15-.76-.23l-.37-.04q-.3-.05-.6-.05-.2 0-.4.03-.3.02-.59.07l-.14.02-11.49 2.76a4.85 4.85 0 0 0 2.27 9.43l5.8-1.39c-.18 6.31-2.19 9.27-4.18 9.86-3.03.89-9.45-2.14-14.28-11.7-4.91-9.7-2.08-16.88 1.83-20.08 1.76-1.44 4.5-2.58 6.46-1.03a4.85 4.85 0 0 0 6-7.62c-5.23-4.14-12.7-3.68-18.6 1.14-7.22 5.9-11.37 18.09-4.35 31.97 5.38 10.64 13.91 17.18 21.81 17.17m82.74-26.23a4.85 4.85 0 0 0 9.65-1l-1.64-15.68 20.84 16.85a4.8 4.8 0 0 0 6.82-.72 4.85 4.85 0 0 0-.72-6.82l-24.08-19.47 19.48-18.62a4.85 4.85 0 0 0-6.7-7.01l-17.62 16.83-1.8-17.18a4.85 4.85 0 0 0-9.65 1zm49.93-2.61h.02a4.85 4.85 0 0 0 4.85-4.83l.24-47.43a4.85 4.85 0 0 0-4.83-4.88 4.93 4.93 0 0 0-4.87 4.83l-.24 47.44a4.85 4.85 0 0 0 4.83 4.87m33.45-.02a4.86 4.86 0 0 0 5.3-4.36l3.86-39.25 10.2 1.05.5.02a4.85 4.85 0 0 0 .49-9.67l-30.03-3.07a4.85 4.85 0 0 0-.98 9.64l10.17 1.04-3.87 39.3a4.85 4.85 0 0 0 4.36 5.3m35.4-40.46 10 2.1-7.97 38.67a4.85 4.85 0 1 0 9.5 1.96l7.96-38.63 10.04 2.1q.5.12 1 .11a4.85 4.85 0 0 0 1-9.6l-29.54-6.2a4.85 4.85 0 1 0-2 9.49m36.8 46.76a4.85 4.85 0 0 0 .07 9.7h.07c30.62-.46 39.28-29.62 39.58-44.97a4.85 4.85 0 0 0-9.34-1.93c-3.46 8.43-10.76 19.3-15.44 17.83-.6-.18-1.1-.5-1.52-1.38-2.05-4.23.24-14.6 2.52-20.63a4.85 4.85 0 0 0-9.06-3.45c-.72 1.88-6.86 18.64-2.2 28.3a12 12 0 0 0 7.33 6.41c3.7 1.17 7.15.58 10.26-1.04-4.42 6.1-11.37 11-22.27 11.16" style="fill:#e45825"/><path d="M1648.85 1388.94c-1-.11-1.87-.75-2.26-1.68a101 101 0 0 0-9.92-18.06 80 80 0 0 0-18.78-19.13 2.77 2.77 0 0 1 .84-4.89l1.05-.32c9.59-2.89 35.06-10.58 48.14-10.58 2.81 0 4.96.34 6.56 1.06a2.8 2.8 0 0 1 1.32 1.22c4.9 9.14-23.2 49.5-24.39 51.2a2.8 2.8 0 0 1-2.56 1.18" style="fill:#66758d"/><path d="M1295.63 1747.23c-23.36 0-47-1.8-70.26-5.35-65.94-10.06-116.16-38.08-149.25-83.3-22.13-30.24-56.67-97.51-39.26-208.21 13.27-84.44 66.05-229.04 270.38-248.84 9.2-.9 18.44-1.34 27.44-1.34 76.11 0 130.02 31.98 161.84 58.8 30.84 26 49.3 53.82 55.81 64.58a2.77 2.77 0 0 1-2.6 4.2 215 215 0 0 0-34.09-.03c-1.4 0-2.6-1.05-2.75-2.46-1.69-15.13-5.93-33.36-16.57-34.3q-.66-.07-1.37-.06c-9.72 0-26.24 8.22-49.13 24.45a537 537 0 0 0-33 25.59 2.06 2.06 0 0 0-.24 2.93 2.07 2.07 0 0 0 2.92.23c16.01-13.64 61.45-49.06 79.26-49.06q.62 0 1.2.05c12.72 1.14 16.09 45.52 12.8 86.7a2.07 2.07 0 0 0 1.9 2.24h.02c1.24 0 2.14-.83 2.23-1.9.77-9.73 1.91-28.81.79-47.33a2.77 2.77 0 0 1 2.55-2.93c3.3-.25 8.65-.56 15.35-.56 27.6 0 77.52 5.23 101.65 40.23 11.83 17.16 34.65 63.57-8.87 123.67-13.4 18.52-13.02 46.73-9.63 60.16.3 1.22-.24 2.5-1.34 3.1-7.75 4.3-22.44 12.11-33.66 16.04-2.97 1.04-7.02 1.61-11.42 1.61-5.52 0-16.37-.92-26.88-7.08-10.85-6.36-17.47-15.95-19.68-28.5a2.07 2.07 0 0 0-2.4-1.7 2.1 2.1 0 0 0-1.7 2.42 45 45 0 0 0 10 21.67 2.77 2.77 0 0 1-.98 4.33c-5.6 2.46-12.76 3.82-20.18 3.82q-.35 0-.7-.09a2 2 0 0 0-.94-.01 3 3 0 0 1-.57.06h-.1c-14.83-.55-36.78-6.51-57.1-31.83-4.55-5.67-9.34-12.17-14.42-19.05-26.66-36.11-63.14-85.54-116.87-85.54-12 0-24.49 2.54-37.12 7.54a2.08 2.08 0 0 0 1.54 3.86c12.08-4.79 24.05-7.21 35.57-7.21 51.66 0 87.42 48.45 113.53 83.82a619 619 0 0 0 14.53 19.18c19.5 24.3 40.63 31.45 54.92 33.17a2.78 2.78 0 0 1 2.23 3.81c-7.44 17.86-23.43 34.1-45.03 45.73-17.9 9.63-37.83 14.94-56.11 14.94-8.7 0-16.92-1.18-24.41-3.49a2.07 2.07 0 0 0-1.23 3.97 87 87 0 0 0 25.57 3.65c19.03 0 39.68-5.47 58.15-15.41 23.51-12.65 41.06-31.22 48.14-50.95a2.8 2.8 0 0 1 2.52-1.83c8.8-.28 17.22-2.46 23.07-6a2.8 2.8 0 0 1 3.1.16 48 48 0 0 0 4.57 3.07 58 58 0 0 0 24.24 7.46 2.8 2.8 0 0 1 2.53 3.02c-3.52 37.85-23.86 72.6-58.82 100.48-50.67 40.43-127.83 63.61-211.65 63.61zm-132.36-221.35c-3.37 0-6.46 1.91-9.17 5.7-5 6.96-2.12 24.26 7 42.06 9.64 18.78 22.42 31.4 31.82 31.4q.86 0 1.7-.15c13.7-2.36 22.6-14.6 27.67-24.45 9.35-18.17 12.12-41.55 8.27-49.53-2.9-6-8.81-10.04-14.72-10.04-10.39 0-19.5 11.57-24.97 31.73a2.77 2.77 0 0 1-5.4-.22c-2.23-12-12.63-26.5-22.2-26.5m276.53-24.98a.7.7 0 0 0-.24 1.35l35.32 13.4.17.01q.57 0 .72-.4a.7.7 0 0 0-.01-.54.7.7 0 0 0-.39-.36l-35.32-13.4zm9.54-50.26a.69.69 0 0 0-.5 1.17l45.63 47.7a.7.7 0 1 0 1-.97l-45.63-47.69a.7.7 0 0 0-.5-.21m101.58-.87a2.1 2.1 0 0 0-1.95 1.34c-5.66 14.78.66 35.62 12.76 42.08a18.6 18.6 0 0 0 8.82 2.23c9.66 0 20.13-7.61 30.27-22.01a2.06 2.06 0 0 0-.5-2.9 2.1 2.1 0 0 0-2.9.5c-9.29 13.2-18.65 20.17-27.05 20.17q-3.56 0-6.68-1.66c-10.47-5.59-15.83-23.87-10.83-36.93a2.08 2.08 0 0 0-1.94-2.82m-68.58-24.65a.7.7 0 0 0-.66.89c2.47 8.43 21.3 38.11 32.05 54.32a.7.7 0 0 0 .96.2c.2-.14.27-.32.3-.44a.7.7 0 0 0-.1-.52c-.3-.44-28.85-43.6-31.88-53.95a.7.7 0 0 0-.67-.5m-337.71-112.5c-.55 0-1.07.21-1.46.6-34.09 33.31-46.1 87.68-46.6 89.98a2.08 2.08 0 0 0 4.07.88c.12-.56 12.31-55.52 45.44-87.9a2.07 2.07 0 0 0 .03-2.93q-.62-.62-1.48-.63m34.8-33.64c-.34 0-.84.08-1.31.46l-6.19 5.03a2.08 2.08 0 0 0 2.62 3.22l6.2-5.02a2.1 2.1 0 0 0 .3-2.92c-.4-.5-1-.77-1.62-.77" style="fill:#66758d"/><path d="M1148.1 1311.3a4.85 4.85 0 0 0-6.86-.07c-34.68 33.89-46.87 89.06-47.37 91.39a4.85 4.85 0 0 0 9.48 2.04c.12-.54 12.11-54.68 44.67-86.5a4.85 4.85 0 0 0 .08-6.85m25.14-20.38c1.08 0 2.16-.35 3.06-1.08l6.19-5.03a4.85 4.85 0 0 0-6.12-7.53l-6.19 5.03a4.85 4.85 0 0 0 3.06 8.61" style="fill:#fff"/><path d="M1188.2 1551.87c-3.36-18.04-23.2-40.21-36.35-21.91s20.04 81.72 43.24 77.66c32.49-5.6 45.18-62.97 37.96-77.92s-32.74-22.43-44.86 22.17" style="fill:#fb9678"/><path d="M1224.33 1748.73a473 473 0 0 0 71.14 5.4c84.6 0 163.53-23.13 216.15-65.1 36.82-29.38 58.03-66.06 61.49-106.16 3.33-.3 6.38-.9 8.93-1.8 15.72-5.5 37.42-18.02 38.33-18.55 1.18-.69 2.08-1.73 2.37-3.06s.08-2.62-.7-3.73c-2.3-4.5-6.37-36.66 7.95-56.44 9.89-13.65 36.12-55.79 23.08-101.95l.11-.12c7.9-10.82 33.38-47.22 29.62-61.63a9.3 9.3 0 0 0-5.22-6.36c-10.48-4.79-34.94 1.5-59.8 9-2.46.74-4.98 1.5-6.07 1.78a5 5 0 0 0-2.9 1.02c-14.97-8.18-31.64-12.5-46.91-14.7-1.09-2.1-19.99-38.03-60.6-72.38-37.85-32-102.34-68.28-194.73-59.32-208.98 20.26-262.97 168.25-276.56 254.66-17.8 113.17 17.75 182.27 40.52 213.39 34.22 46.75 85.96 75.7 153.8 86.05m396.25-401.21c10.97-3.32 44.37-13.4 52.78-9.65 2.32 4.35-8.73 26.16-24.22 48.31a103 103 0 0 0-10.19-18.55 83 83 0 0 0-19.43-19.8zM1039.6 1450.8c13.15-83.64 65.44-226.89 267.9-246.51 88.82-8.6 150.85 26.15 187.24 56.82 30.16 25.43 48.23 52.34 55.22 63.9a213 213 0 0 0-34.32-.04c-2.15-19.28-7.42-35.72-19.07-36.76-10.3-.91-27.43 7.23-52.35 24.9a537 537 0 0 0-33.21 25.74 4.85 4.85 0 1 0 6.3 7.38c22.72-19.37 64.12-49.68 78.4-48.35 8.14.72 14.21 34.54 10.29 83.72a4.85 4.85 0 0 0 9.67.77c.77-9.62 1.93-29.01.8-47.71 16.22-1.27 85.25-3.95 114.5 38.48 11.5 16.67 33.65 61.8-8.83 120.46-14.5 20.03-13.23 50-10.08 62.47-6.73 3.74-21.92 11.9-33.23 15.85-7.02 2.46-22.84 2.45-35.99-5.25-10.1-5.93-16.28-14.87-18.34-26.6a4.84 4.84 0 1 0-9.55 1.69 47.6 47.6 0 0 0 10.62 22.99c-4.52 1.99-11.16 3.58-19.06 3.58q-1.13-.29-2.21-.04c-16-.59-36.57-7.78-55.04-30.8a615 615 0 0 1-14.35-18.95c-32.13-43.52-80.66-109.28-157.24-78.94a4.85 4.85 0 1 0 3.57 9.02c69.62-27.6 113.7 32.1 145.86 75.68 5.14 6.96 10 13.53 14.6 19.27 18.13 22.6 38.87 32.03 56.74 34.18-7.11 17.1-22.71 33.01-43.77 44.35-26.21 14.1-55.52 18.3-78.4 11.24a4.86 4.86 0 0 0-2.86 9.27 90 90 0 0 0 26.39 3.77c19.34 0 40.23-5.4 59.46-15.74 24.31-13.08 42.1-32.03 49.43-52.45 10-.32 18.56-2.86 24.42-6.39a51 51 0 0 0 4.83 3.24 61 61 0 0 0 25.41 7.84c-3.44 37.06-23.35 71.1-57.78 98.56-65.14 51.97-172.35 74.08-279.78 57.7-65.2-9.94-114.8-37.6-147.43-82.2-21.88-29.9-56.01-96.43-38.76-206.14" style="fill:#360623"/><path d="M1560.43 1495.63a21.4 21.4 0 0 0 10.12 2.56c8.34 0 19.63-4.87 32.54-23.18a4.85 4.85 0 1 0-7.93-5.6c-10.98 15.6-21.98 22.02-30.17 17.66-9.2-4.9-14.02-21.8-9.54-33.49a4.85 4.85 0 0 0-9.06-3.47c-6.22 16.24.6 38.36 14.04 45.52m-49.01-13.77a3.46 3.46 0 1 0 5.78-3.83c-7.95-12-29.12-44.94-31.53-53.2a3.47 3.47 0 0 0-6.65 1.95c3.15 10.76 29.42 50.58 32.4 55.08m-18.95 19.56a3.46 3.46 0 1 0 5-4.8l-45.62-47.68a3.47 3.47 0 0 0-5.01 4.78zm-53.89 3.42 35.32 13.4a3.45 3.45 0 0 0 4.46-2 3.46 3.46 0 0 0-2-4.47l-35.32-13.4a3.46 3.46 0 1 0-2.46 6.47" style="fill:#360623"/></svg>