<svg xmlns="http://www.w3.org/2000/svg" viewBox="888.2 44.8 255 364.7"><path d="M1119.82 237.98c5.15-5.2 5.57-13.12.94-18.05a13 13 0 0 0-9.2-4.05q.44-1.14.75-2.39c1.12-4.55.16-9.35-2.57-12.83a12.3 12.3 0 0 0-13.06-4.35c-1.3-5.17-5.8-8.57-11.82-8.57-3.26 0-6.82.98-9.76 2.68a32 32 0 0 0-8.46 7.42 12.5 12.5 0 0 0-9.9-4.91 120 120 0 0 0 8.62-9.88c4.5-5.14 8.26-9.86 11.5-14.4 6.52-9.15 10.15-17.23 11.44-25.43.63-4.06 1.24-10.11-.82-15.69-2.37-6.4-7.84-10.37-14.28-10.37q-1.3 0-2.6.22-1.93.33-3.64 1l3.76-10.4c1.02-2.75 2.18-5.88 2.65-9.35.67-5-.5-9.96-3.32-13.97a18.3 18.3 0 0 0-12.7-7.7q-1.4-.2-2.81-.2c-5.33 0-10.61 2.09-15.27 6.03a76 76 0 0 0-10.15 10.73c.31-5.46.24-13.47-3.6-20.89-4.06-7.85-12.52-13.13-21.05-13.13a19.5 19.5 0 0 0-15.6 7.65c-2.6 3.32-4.25 7.04-5.5 10.73a26 26 0 0 0-4.48-7.05c-3.54-3.9-7.98-5.97-12.84-5.97-9.85 0-18.97 8.66-22.89 17.2-5.17 11.28-4.7 23.56-3.57 34.09a26 26 0 0 0-7.08-5.12 24.5 24.5 0 0 0-10.54-2.47c-3.57 0-6.89.84-9.85 2.52-10.44 5.9-12.61 18.6-5.66 33.12 2 4.2 4.45 8.01 6.8 11.7l1.85 2.9c1.78 2.84 3.7 5.83 6.02 9.37l5.6 10.64c2.35 4.47 4.78 9.1 7.66 13.54q1.49 2.3 3.07 4.4c-1.4 8.88 2.9 17.97 12.3 25.82.67.56 1.37 1.13 2.2 1.77l.23.27c2.66 3 5.4 6.08 9.06 8.7a33 33 0 0 0 6.38 3.58q1.3.9 2.84 1.38 2.55.81 5.18 1.41a245 245 0 0 0-5.9 34.36 270 270 0 0 0 2.16 70.23 177 177 0 0 0 3.9 19.04l.27.96c.75 2.75 1.53 5.6 2.52 8.43a79 79 0 0 0 2.02 5.12l.13.3c1.27 3.01 3.18 5.22 4.71 7l.23.26a12.8 12.8 0 0 0 9.78 4.28 14 14 0 0 0 7.05-1.94 10.2 10.2 0 0 0 7.23-8.7l.47-4.98c.57-6.16 1.1-11.97 2-17.4a129 129 0 0 1 5.6-21.55 158 158 0 0 1 2.83-7.6l.35-.83a122 122 0 0 1 5.47-11.13 125 125 0 0 1 9.82-15.04l2.04-2.53a160 160 0 0 1 8.22-9.37q.86-.9 1.76-1.78.6 0 1.16-.06c9.65-.84 18.35-1.75 27.09-4.32 10.8-3.19 18.9-8.01 24.07-14.33q1.11-1.38 1.92-2.8a32 32 0 0 0 8.65-5.85c1.68-1.64 4.07-4.2 5.3-7.55 1.4-3.77.88-7.59-1.17-10.42l.23-.14c1.25-.85 2.81-1.9 4.26-3.36m-78.53-31.94 1.26-.94q-.3.84-.54 1.74c-.65 2.37-1 4.62-1.35 6.8l-.25 1.58q-.26 1.54-.52 3.28a20 20 0 0 0-2.88 1.79l.05-.13a12.4 12.4 0 0 0-1.22-10.47 84 84 0 0 0 5.45-3.65m-12.37 62.65-.08.08c-3.1 3.01-6.03 6.14-8.7 9.32a131 131 0 0 0-14.86 22.02 141 141 0 0 0-6 12.47l-.08-1.02c-.68-10.9-.77-21.58-.25-31.74a257 257 0 0 1 1.75-19.67l.03-.29.01-.06.5-3.69.1-.7.1-.84.16-1.13q.27-1.99.58-3.93c.5-3.18 1.1-6.3 1.75-9.55a70 70 0 0 0 26.2-11.15c-3.59 7.24-4.12 15.65-4.4 19.91a44 44 0 0 0 3.2 19.97" style="opacity:.5;fill:#383838"/><path d="M1125.33 243.5c5.15-5.2 5.57-13.13.95-18.06a13 13 0 0 0-9.21-4.05q.45-1.14.76-2.39c1.11-4.54.15-9.34-2.58-12.83a12.3 12.3 0 0 0-13.06-4.34c-1.3-5.17-5.8-8.57-11.81-8.57-3.27 0-6.83.97-9.77 2.68a32 32 0 0 0-8.46 7.41 12.5 12.5 0 0 0-9.9-4.9 120 120 0 0 0 8.63-9.89c4.49-5.14 8.25-9.85 11.5-14.4 6.51-9.15 10.15-17.23 11.43-25.42.64-4.07 1.25-10.11-.82-15.7-2.37-6.39-7.84-10.37-14.28-10.37q-1.3 0-2.6.22-1.92.33-3.63 1.01l3.76-10.4c1.02-2.76 2.17-5.88 2.64-9.35.67-5-.5-9.96-3.31-13.98a18.3 18.3 0 0 0-12.71-7.7q-1.4-.19-2.8-.19c-5.34 0-10.62 2.08-15.28 6.02a76 76 0 0 0-10.14 10.74c.3-5.46.23-13.47-3.6-20.89-4.06-7.86-12.52-13.14-21.06-13.14a19.5 19.5 0 0 0-15.6 7.66c-2.6 3.31-4.25 7.04-5.5 10.73a26 26 0 0 0-4.47-7.06c-3.55-3.9-7.99-5.96-12.85-5.96-9.84 0-18.96 8.65-22.89 17.2-5.17 11.28-4.7 23.56-3.56 34.08a26 26 0 0 0-7.1-5.11 24.5 24.5 0 0 0-10.53-2.48c-3.57 0-6.88.85-9.84 2.52-10.45 5.9-12.62 18.6-5.67 33.13 2 4.2 4.45 8.01 6.8 11.7l1.85 2.9c1.78 2.84 3.7 5.82 6.02 9.36 1.38 2.66 2.87 5.48 4.53 8.63l1.07 2.02c2.35 4.47 4.78 9.1 7.66 13.54q1.49 2.3 3.07 4.4c-1.39 8.88 2.9 17.97 12.3 25.82.67.55 1.37 1.12 2.2 1.76l.24.28c2.65 2.99 5.39 6.08 9.05 8.7a33 33 0 0 0 6.38 3.57q1.3.9 2.84 1.39 2.55.81 5.18 1.4a245 245 0 0 0-5.9 34.37 270 270 0 0 0 2.16 70.22c.9 5.68 2.07 12.38 3.9 19.04l.27.97a126 126 0 0 0 2.52 8.43c.62 1.8 1.34 3.48 2.02 5.11l.13.3c1.27 3.02 3.18 5.22 4.71 7l.23.26a12.8 12.8 0 0 0 9.78 4.29 14 14 0 0 0 7.05-1.95 10.2 10.2 0 0 0 7.23-8.7q.25-2.5.47-4.97c.57-6.16 1.11-11.98 2-17.4 1.13-6.9 2.96-13.95 5.6-21.56a158 158 0 0 1 2.83-7.59l.35-.83a122 122 0 0 1 5.48-11.14 125 125 0 0 1 9.81-15.03c.8-1 1.44-1.81 2.04-2.53 2.98-3.62 5.52-6.59 8.22-9.37q.86-.9 1.77-1.79.57 0 1.16-.06c9.65-.84 18.34-1.75 27.08-4.32 10.8-3.19 18.9-8 24.07-14.33q1.11-1.37 1.92-2.8a32 32 0 0 0 8.65-5.85c1.68-1.64 4.07-4.2 5.3-7.55 1.4-3.77.88-7.58-1.16-10.41l.22-.15c1.25-.85 2.81-1.9 4.26-3.36m-78.53-31.95 1.27-.94q-.3.86-.54 1.74c-.66 2.37-1.01 4.62-1.35 6.8l-.26 1.58-.52 3.29a20 20 0 0 0-2.87 1.78l.04-.13a12.4 12.4 0 0 0-1.22-10.46 84 84 0 0 0 5.45-3.66m-12.36 62.65-.09.09c-3.1 3-6.02 6.14-8.7 9.31a131 131 0 0 0-14.85 22.02 141 141 0 0 0-6.02 12.48l-.06-1.02c-.68-10.9-.77-21.59-.26-31.75a257 257 0 0 1 1.75-19.66l.04-.3v-.05q.27-1.84.5-3.7l.1-.69.1-.84.16-1.13.59-3.94c.5-3.17 1.1-6.3 1.74-9.55a70 70 0 0 0 24.35-9.9q.87-.55 1.85-1.25c-3.58 7.24-4.12 15.66-4.39 19.91-.45 7.2.64 14 3.19 19.97" style="opacity:.5;fill:#383838"/><path d="M1119.82 237.98c5.15-5.2 5.57-13.12.94-18.05a13 13 0 0 0-9.2-4.05q.44-1.14.75-2.39c1.12-4.55.16-9.35-2.57-12.83a12.3 12.3 0 0 0-13.06-4.35c-1.3-5.17-5.8-8.57-11.82-8.57-3.26 0-6.82.98-9.76 2.68a32 32 0 0 0-8.46 7.42 12.5 12.5 0 0 0-9.9-4.91 120 120 0 0 0 8.62-9.88c4.5-5.14 8.26-9.86 11.5-14.4 6.52-9.15 10.15-17.23 11.44-25.43.63-4.06 1.24-10.11-.82-15.69-2.37-6.4-7.84-10.37-14.28-10.37q-1.3 0-2.6.22-1.93.33-3.64 1l3.76-10.4c1.02-2.75 2.18-5.88 2.65-9.35.67-5-.5-9.96-3.32-13.97a18.3 18.3 0 0 0-12.7-7.7q-1.4-.2-2.81-.2c-5.33 0-10.61 2.09-15.27 6.03a76 76 0 0 0-10.15 10.73c.31-5.46.24-13.47-3.6-20.89-4.06-7.85-12.52-13.13-21.05-13.13a19.5 19.5 0 0 0-15.6 7.65c-2.6 3.32-4.25 7.04-5.5 10.73a26 26 0 0 0-4.48-7.05c-3.54-3.9-7.98-5.97-12.84-5.97-9.85 0-18.97 8.66-22.89 17.2-5.17 11.28-4.7 23.56-3.57 34.09a26 26 0 0 0-7.08-5.12 24.5 24.5 0 0 0-10.54-2.47c-3.57 0-6.89.84-9.85 2.52-10.44 5.9-12.61 18.6-5.66 33.12 2 4.2 4.45 8.01 6.8 11.7l1.85 2.9c1.78 2.84 3.7 5.83 6.02 9.37l5.6 10.64c2.35 4.47 4.78 9.1 7.66 13.54q1.49 2.3 3.07 4.4c-1.4 8.88 2.9 17.97 12.3 25.82.67.56 1.37 1.13 2.2 1.77l.23.27c2.66 3 5.4 6.08 9.06 8.7a33 33 0 0 0 6.38 3.58q1.3.9 2.84 1.38 2.55.81 5.18 1.41a245 245 0 0 0-5.9 34.36 270 270 0 0 0 2.16 70.23 177 177 0 0 0 3.9 19.04l.27.96c.75 2.75 1.53 5.6 2.52 8.43a79 79 0 0 0 2.02 5.12l.13.3c1.27 3.01 3.18 5.22 4.71 7l.23.26a12.8 12.8 0 0 0 9.78 4.28 14 14 0 0 0 7.05-1.94 10.2 10.2 0 0 0 7.23-8.7l.47-4.98c.57-6.16 1.1-11.97 2-17.4a129 129 0 0 1 5.6-21.55 158 158 0 0 1 2.83-7.6l.35-.83a122 122 0 0 1 5.47-11.13 125 125 0 0 1 9.82-15.04l2.04-2.53a160 160 0 0 1 8.22-9.37q.86-.9 1.76-1.78.6 0 1.16-.06c9.65-.84 18.35-1.75 27.09-4.32 10.8-3.19 18.9-8.01 24.07-14.33q1.11-1.38 1.92-2.8a32 32 0 0 0 8.65-5.85c1.68-1.64 4.07-4.2 5.3-7.55 1.4-3.77.88-7.59-1.17-10.42l.23-.14c1.25-.85 2.81-1.9 4.26-3.36m-78.53-31.94 1.26-.94q-.3.84-.54 1.74c-.65 2.37-1 4.62-1.35 6.8l-.25 1.58q-.26 1.54-.52 3.28a20 20 0 0 0-2.88 1.79l.05-.13a12.4 12.4 0 0 0-1.22-10.47 84 84 0 0 0 5.45-3.65m-12.37 62.65-.08.08c-3.1 3.01-6.03 6.14-8.7 9.32a131 131 0 0 0-14.86 22.02 141 141 0 0 0-6 12.47l-.08-1.02c-.68-10.9-.77-21.58-.25-31.74a257 257 0 0 1 1.75-19.67l.03-.29.01-.06.5-3.69.1-.7.1-.84.16-1.13q.27-1.99.58-3.93c.5-3.18 1.1-6.3 1.75-9.55a70 70 0 0 0 26.2-11.15c-3.59 7.24-4.12 15.65-4.4 19.91a44 44 0 0 0 3.2 19.97" style="fill:#fff"/><path d="M1109.6 249.35c.69-1.84.3-3.65-1.31-4.48-1.8-.92-4.36-.4-6.4-.19a88 88 0 0 0-6.79.97q-.12.01-.23.04 6.35-3.44 12.33-7.55l3.6-2.47c1.3-.88 2.68-1.74 3.8-2.87 2.26-2.28 2.79-5.72.8-7.84-1.4-1.5-3.39-1.9-5.5-1.69-2.93.31-5.9 1.25-8.76 2.22-2.7.9-5.38 2.02-8.04 3.14q-1.48.63-2.94 1.3a151 151 0 0 0 10.65-10.69c1.92-2.2 3.67-4.69 4.36-7.5 1.16-4.72-1.94-9.8-6.98-8.21-2.61.82-4.99 2.84-7.19 4.56q-3.89 3.06-7.57 6.41l-.64.6-.48.36-2.1 1.63.02-.04 1.76-2.52a137 137 0 0 0 5.61-8.63c1.15-1.97 2.12-4.25 2.1-6.45-.02-5.75-7.1-4.87-10.92-2.66-4.35 2.52-7.57 6.82-10.28 11.04a337 337 0 0 0-3.15 5.01 79 79 0 0 0-3.02 4.43q-1.35 2.1-2.6 4.23l.5-2.23c.61-2.76 1.3-5.53 1.82-8.3.43-2.34.64-4.88-.25-6.96-.81-1.92-2.41-3.5-4.57-3.7-4.5-.41-7.07 4.66-8.13 8.5-.7 2.5-1.02 5.09-1.44 7.62q-.44 2.69-.83 5.37l-1.13 4.74c-.64 2.7-1.33 5.4-1.74 8.11q-.27 1.74-.34 3.48l-.04.13q-.29 1.44-.18 2.8-.06.82-.07 1.63c-.12 6.04 2.8 10.94 6.66 14.74 1.89 1.84 4.41 3.19 6.82 4.24 2.08.92 4.3 1.52 6.55 2 3.1 1.1 6.49 1.48 9.9 1.37q2.34-.07 4.69-.39l.77-.06c3-.25 6-1.04 8.97-1.96q4.09-1.03 8.09-2.47c3.65-1.33 7.36-3.15 10.3-6 1.39-1.34 2.85-2.98 3.53-4.8m-29.03-119.27c-1.4-3.77-4.68-6.15-8.77-5.46-4.6.77-8.46 4.77-11.89 7.65a190 190 0 0 0-10.93 9.95l-.35.36a258 258 0 0 0 11.62-27.29l3.02-8.37c1.09-3.02 2.37-6.09 2.8-9.27.86-6.42-3.09-12.53-9.71-13.42-4.66-.62-8.85 1.2-12.36 4.17-4.89 4.13-8.93 9.3-12.75 14.39a227 227 0 0 0-10.1 14.97q-1.8 2.84-3.5 5.72 1.01-5.21 1.83-10.45c1-6.53 1.9-13.13 2.28-19.73.35-5.87-.02-11.98-2.77-17.3-4.6-8.9-17.46-13.1-24.35-4.32-3.56 4.55-5 10.7-6.54 16.16a235 235 0 0 0-4.6 19.56l-.34 1.74-.35 1.17q-.78 2.59-1.5 5.18l-.02-.09q-.16-3.07-.39-6.16c-.5-6.88-1-13.84-2.1-20.65-.72-4.55-2.21-9.36-5.36-12.83-8.23-9.08-19.83 1.13-23.6 9.36-4.3 9.39-4.03 20.22-2.94 30.26q.64 5.93 1.42 11.85.2 5.4.81 10.77.55 4.97 1.32 9.91l-2.27-4.14c-2.83-5.13-5.51-10.37-8.52-15.4-2.54-4.25-5.78-8.53-10.35-10.72-4.21-2.03-9.38-2.55-13.58-.18-8.73 4.93-6.17 16.17-2.65 23.55 2.32 4.84 5.41 9.34 8.25 13.87q3.01 4.8 6.14 9.54 2.33 4.47 4.68 8.91c2.68 5.07 5.28 10.2 8.4 15a64 64 0 0 0 4.33 5.94l.13.26a21 21 0 0 0 3.63 4.65q1.08 1.38 2.21 2.68c8.37 9.7 20.63 13.85 33.06 15.06 6.05.58 12.54-.43 18.41-1.75a84 84 0 0 0 14.72-4.97c7.18-2.12 13.87-5.73 19.91-10.13q4.14-3.01 7.95-6.45l1.32-1.06c5.1-4.12 9.42-9.1 13.48-14.24a179 179 0 0 0 11.17-13.96c4.73-6.65 8.88-14.14 10.16-22.3.6-3.85.92-8.26-.46-12" style="fill:#f4b5a6"/><path d="M1096.86 256.17c-1.13-2.8-2.72-5.22-5.58-6.49-2.24-1-4.58-1.54-7.05-1.4-4.47.26-9.04 1.32-13.35 2.51l-.7.2q.6-.95 1.16-1.91c2-3.34 3.8-7.1 4.12-11.03.4-5.1-3.4-10.06-8.8-9.69-3.94.27-7.43 3.18-10.29 5.7q-1.5 1.34-2.87 2.84-.2-3.46-.64-6.94c-.24-1.95-.75-3.45-2.35-4.7a5.8 5.8 0 0 0-5.22-1.07c-9.89 3.24-11.65 16.04-12.22 25-.47 7.43 1 14.88 4.96 21.06a123 123 0 0 0-12.29 12.58 124 124 0 0 0-14 20.79 132 132 0 0 0-14.84 45q-.58-2.79-1.12-5.58a259 259 0 0 1-2.03-12.04l-.22-1.62-.1-.83q-1.05-8.24-1.56-16.53a289 289 0 0 1-.27-32.57 263 263 0 0 1 1.8-20.25l.04-.26.02-.16.5-3.6q.08-.8.2-1.6v-.01l.16-1.16.6-4.05c.79-4.98 1.82-9.9 2.8-14.85a62 62 0 0 0 26.54-9.61c2.34-1.53 4.9-3.24 5.81-6.03a5.2 5.2 0 0 0-3.55-6.66c-2.84-.86-6.19.01-9.08.72l-.25-.04q.8-.85 1.56-1.73c2.9-3.42 6.24-7.48 6.9-12.06.29-2.07-.01-4.28-1.5-5.87-1.72-1.84-4.28-2.03-6.65-1.75a30 30 0 0 0-12.68 4.48q.3-.8.56-1.62c1.57-4.87 2.72-11.14.96-16.13-.83-2.34-3.03-3.74-5.5-3.17-2.34.55-4.06 2.37-5.41 4.24a60 60 0 0 0-7.37 14.28 118 118 0 0 0-3.23 10.28l-2.8-8.53c-1.43-4.35-2.37-10.1-6.27-13.02-3.71-2.77-9.06-1.85-10.7 2.73-1.45 4.1.32 9.36 1.56 13.3a60 60 0 0 0 2.24 6c-6.51-4.42-13.52-7.97-21.56-8.66-1-.09-2 .79-2.26 1.72-2.21 8.24 3.46 15.56 9.44 20.56q1.25 1.03 2.52 2.01c2.66 3 5.26 6.05 8.53 8.4a26 26 0 0 0 5.84 3.11q.5.53 1.33.8a57 57 0 0 0 12.17 2.45q-1.02 3.55-1.93 7.14a238 238 0 0 0-5.87 33.96c-2.38 22.81-1.5 45.66 2.1 68.3a166 166 0 0 0 3.73 18.24c.82 2.99 1.62 6 2.64 8.93.59 1.69 1.3 3.34 1.99 4.98.86 2.05 2.29 3.65 3.73 5.32 1.58 1.83 4.57 2.14 6.65 1.26q.97-.42 1.67-1.05c1.3.03 2.7-.94 2.86-2.5.76-7.83 1.34-15.65 2.52-22.84a138 138 0 0 1 5.91-22.77 166 166 0 0 1 3-8c.01-.06.3-.73.37-.9l.66-1.5a132 132 0 0 1 14.67-25.08l.9-1.2.02-.02q1.07-1.36 2.17-2.7a171 171 0 0 1 8.6-9.8q2.2-2.26 4.5-4.42 1.45.5 3.08.36c8.59-.75 17.33-1.6 25.64-4.05 7.36-2.17 15.5-5.87 20.46-11.93 1.58-1.94 2.95-4.7 1.92-7.27m-29.98-13.39.32-.26c.29-.16.25.09-.36.3zm.8-.6q.53-.34 1.02-.69c1.2-.86.64.56-1.01.69m16.01 19.74h.05c.2.07.54.1.66.13l.1.01c-.09.07-.5.09-.8-.14" style="fill:#61b281"/><path d="M984 135.23c-.33-2.01-3.19-2.04-4.11-.53-1.2 1.94-1.66 4.38-2.34 6.54-.58 1.82.82 3.7 2.62 3.94 1.99.27 3.4-1.2 3.57-3.1.2-2.27.61-4.58.25-6.85m39.7 7.85c-.54-1.45-2.5-1.88-3.37-.44-.56.92-.8 1.97-1.15 2.98-.33.96-.8 1.81-1.2 2.74-.7 1.59-.36 3.39 1.38 4.13 1.64.69 3.4-.22 3.93-1.89.67-2.09 1.2-5.41.41-7.52m-19.54 6.47a1.1 1.1 0 0 0-1.8-.47c-2.07 2.07-1.94 6.18-5.14 7.34-1.81.67-1.74-1.23-1.74-2.54 0-2.02.4-3.92.86-5.87.12-.5-.47-.84-.85-.5-3.16 2.86-6.1 12.4.58 12.91 2.57.2 4.83-1.4 6.2-3.46 1.22-1.86 2.56-5.17 1.89-7.41"/></svg>