<svg xmlns="http://www.w3.org/2000/svg" xml:space="preserve" viewBox="294.4 16.4 528.4 300.7"><path d="M310.97 302.18 394.12 34.6l413.76 127.95zM433.5 100.43 396.55 218.7l224.75-60.2z" style="opacity:.3;fill-rule:evenodd;clip-rule:evenodd;fill:#1f1b20"/><path d="M309.35 298.93 392.5 31.35 806.26 159.3zM431.88 97.18l-36.95 118.29 224.74-60.21z" style="fill-rule:evenodd;clip-rule:evenodd;fill:#c65f55"/><path d="m407.73 41.39-.65-.2 1.42-4.56.65.2zm-12.07 5.34c-.48 1.54-1.31 2.21-2.31 1.9-.89-.28-1.23-1.29-.78-2.8.47-1.5 1.39-2.15 2.31-1.86.95.3 1.23 1.32.78 2.76m-2.48-.7c-.36 1.18-.2 1.96.35 2.14.63.19 1.15-.44 1.52-1.6.34-1.12.28-1.94-.35-2.13-.54-.17-1.13.36-1.52 1.6m14.22 2.54-.92.18.02-.5 1.16-.23.52.17-1.4 4.53-.6-.18zm10.08 7.48.12-.38.62-.32c1.5-.74 2.2-1.16 2.43-1.84.14-.46.05-.96-.63-1.17a1.6 1.6 0 0 0-1.08.09l-.06-.5c.4-.17.9-.22 1.43-.06.97.3 1.17 1.1.97 1.75-.26.84-1.08 1.32-2.31 1.95l-.47.22v.01l2.03.64-.16.5zm14.14 3.62c.14.16.5.46.91.6.8.24 1.2-.18 1.3-.56.2-.64-.3-1.09-.89-1.27l-.34-.1.14-.47.34.1c.45.15 1.09.1 1.25-.44.12-.37-.02-.76-.58-.94a2 2 0 0 0-1 .02l-.02-.5c.3-.1.8-.13 1.29.03.9.27 1.13.93.96 1.48-.14.47-.54.78-1.17.8v.02c.52.28.85.85.65 1.48-.22.72-.99 1.18-2.07.84-.51-.16-.9-.46-1.09-.67zm14.3 5.22.4-1.23-2.1-.66.12-.4 2.92-2.27.66.2-.88 2.83.64.2-.15.47-.64-.2-.38 1.24zm.54-1.72.47-1.5.25-.71h-.03q-.3.3-.58.54L445 62.7v.01zm14.37 1.95-1.73-.54-.53 1.1.38.1c.34.1.67.29.9.54.29.32.46.8.29 1.37-.28.88-1.19 1.33-2.17 1.02a2.3 2.3 0 0 1-1.04-.63l.3-.42c.15.17.48.42.88.55.59.18 1.2-.04 1.38-.64s-.08-1.13-.99-1.41q-.39-.11-.64-.15l.97-2.08 2.17.67zm13.13 3.98a2 2 0 0 0-.47-.11 1.9 1.9 0 0 0-2.07 1.12h.02c.3-.21.75-.33 1.25-.17.8.25 1.19 1 .91 1.88-.26.83-1.06 1.42-2 1.13-.97-.3-1.37-1.25-1-2.43a3 3 0 0 1 1.4-1.8q.76-.39 1.65-.22.3.05.46.1zm-1 2.56c.21-.65-.04-1.15-.6-1.32-.37-.12-.79 0-1.05.28a1 1 0 0 0-.16.25c-.21.75-.04 1.4.6 1.6.53.17 1.02-.16 1.22-.81m14.33 1.12-.12.4-3.26 3.51-.64-.2 3.21-3.39v-.01l-2.2-.7.15-.5zm8.8 6.43c.18-.57.65-.86 1.27-.93v-.02c-.42-.4-.52-.85-.4-1.24.22-.72.98-1.02 1.78-.77.88.27 1.14.96.97 1.52-.12.38-.44.74-1.08.83v.02c.49.4.71.9.54 1.45-.24.79-1.08 1.1-1.94.84-.95-.3-1.35-1.03-1.14-1.7m2.45.73c.17-.55-.13-.93-.7-1.3q-.87.02-1.1.69c-.16.45.06.96.64 1.14.55.17 1.01-.06 1.16-.53m-.99-2.78c-.14.45.13.8.6 1.1.44 0 .83-.2.96-.6.1-.37 0-.82-.54-.99-.51-.16-.9.1-1.02.49m11.76 6.95q.18.06.5.13.57.1 1.08-.14.6-.26.98-1.02h-.02c-.35.22-.77.3-1.22.15-.82-.25-1.15-1.03-.9-1.8.26-.86 1.11-1.42 2.04-1.14.93.3 1.27 1.23.9 2.38-.3 1-.86 1.6-1.44 1.88-.45.23-1 .3-1.5.2q-.36-.06-.58-.14zm1.03-2.54c-.18.57.04 1.07.57 1.23.42.13.8.03 1.04-.2a.4.4 0 0 0 .13-.2c.24-.77.14-1.45-.5-1.65-.53-.17-1.04.18-1.24.82m17.2 6.14c-.48 1.54-1.32 2.21-2.32 1.9-.89-.28-1.23-1.29-.78-2.8.47-1.5 1.4-2.14 2.31-1.86.95.3 1.23 1.32.79 2.76m-2.49-.7c-.36 1.18-.2 1.96.35 2.13.63.2 1.15-.43 1.52-1.6.34-1.1.28-1.93-.35-2.13-.54-.16-1.13.37-1.52 1.6m-2.25-2.58-.92.18.02-.5 1.16-.22.52.16-1.41 4.53-.6-.18zm16.35 5.08-.93.18.03-.5 1.15-.22.53.16-1.41 4.53-.6-.18zm-3.57-1.1-.01-.01-.92.18.02-.5 1.16-.22.52.16-1.4 4.53-.6-.18zm13.91 8.66.12-.38.63-.31c1.5-.75 2.2-1.17 2.42-1.85.15-.46.05-.95-.62-1.16a1.6 1.6 0 0 0-1.08.08l-.07-.49c.4-.17.9-.23 1.43-.06.97.3 1.18 1.1.98 1.75-.26.83-1.08 1.32-2.32 1.94l-.47.22v.02l2.04.63-.16.51zm-1-4.65-.02-.01-.92.18.03-.5 1.15-.22.53.16-1.41 4.53-.6-.18zm14.34 8.02c.14.17.5.47.91.6.79.24 1.19-.18 1.3-.56.19-.64-.3-1.08-.89-1.27l-.34-.1.14-.47.34.11c.45.14 1.09.09 1.25-.45.12-.36-.02-.76-.58-.93a1.7 1.7 0 0 0-1 .02l-.02-.5c.3-.1.8-.13 1.3.02.88.28 1.12.94.95 1.49-.14.46-.54.77-1.16.8v.01c.52.29.84.85.64 1.48-.23.73-.99 1.18-2.07.85a2.5 2.5 0 0 1-1.09-.68zm-1.38-4h-.01l-.92.18.03-.5 1.15-.22.52.16-1.4 4.53-.6-.18zm16.06 9.34.39-1.23-2.1-.66.12-.4 2.92-2.27.66.2-.88 2.83.64.2-.15.47-.64-.2-.38 1.24zm.53-1.72.47-1.5.25-.71h-.02l-.59.54-1.58 1.2v.01zm-3.43-3.53h-.01l-.92.18.02-.5 1.15-.23.53.17-1.41 4.53-.6-.18zm17.18 5.28-1.72-.53-.54 1.1q.14.02.38.1.54.15.9.54c.29.32.46.8.29 1.37-.28.88-1.2 1.32-2.17 1.02a2.3 2.3 0 0 1-1.05-.63l.3-.42c.15.17.48.42.9.55.57.18 1.18-.04 1.37-.65.18-.59-.09-1.13-1-1.4q-.37-.12-.63-.15l.97-2.09 2.16.68zm-4.95-1.48h-.02l-.92.18.02-.5 1.16-.23.52.17-1.4 4.53-.6-.18zm18.51 5.6a2 2 0 0 0-.46-.11 1.94 1.94 0 0 0-2.08 1.12h.02c.3-.21.75-.33 1.25-.17.8.25 1.2 1 .92 1.88-.26.83-1.06 1.42-2 1.13-.97-.3-1.37-1.25-1-2.43a3 3 0 0 1 1.4-1.8 2.5 2.5 0 0 1 1.65-.22l.46.1zm-.98 2.56c.2-.64-.05-1.15-.62-1.32-.37-.12-.78.01-1.05.28a1 1 0 0 0-.15.25c-.22.75-.05 1.4.6 1.6.52.17 1.02-.16 1.22-.8m-3.89-3.92-.93.18.03-.5 1.15-.22.52.16-1.4 4.53-.6-.18zm18.33 5.08-.12.4-3.26 3.52-.64-.2 3.21-3.4v-.02l-2.2-.68.15-.51zm-5.36-1.05h-.01l-.92.18.02-.5 1.16-.22.52.16-1.4 4.53-.6-.18zm14.22 7.5c.18-.57.64-.86 1.28-.93v-.03c-.43-.4-.53-.84-.4-1.24.22-.7.98-1.01 1.77-.77.87.28 1.15.97.97 1.53-.12.38-.44.74-1.08.83v.02c.49.4.72.9.55 1.45-.25.79-1.09 1.1-1.95.84-.95-.3-1.35-1.03-1.14-1.7m2.45.73c.17-.55-.13-.93-.69-1.3q-.89.01-1.1.69c-.17.45.05.96.63 1.14.55.17 1.02-.06 1.16-.53m-.98-2.78c-.15.45.12.8.6 1.1.43 0 .82-.2.95-.6.11-.37.01-.82-.54-.99-.51-.16-.9.1-1.01.49m-2.78-1.44h-.02l-.92.18.03-.5 1.15-.22.53.16-1.4 4.53-.6-.18zm14.4 8.34q.2.08.5.14.58.1 1.09-.14.58-.27.97-1.02l-.02-.01q-.52.36-1.21.16c-.82-.25-1.15-1.03-.91-1.8.27-.86 1.12-1.42 2.05-1.14.92.3 1.26 1.22.9 2.38-.3 1-.86 1.59-1.44 1.88-.45.24-1 .3-1.5.2a3 3 0 0 1-.58-.14zm1.03-2.53c-.17.57.05 1.07.58 1.23.41.13.8.03 1.04-.2q.08-.05.12-.2c.24-.77.15-1.45-.5-1.65-.52-.17-1.03.18-1.24.83m-2.52-1.8h-.02l-.92.18.03-.5 1.15-.22.53.16-1.41 4.53-.6-.18zm17.45 7.24c-.47 1.54-1.3 2.2-2.31 1.9-.89-.28-1.23-1.3-.78-2.8.47-1.51 1.39-2.15 2.31-1.86.95.3 1.23 1.31.78 2.76m-2.48-.7c-.36 1.18-.2 1.96.35 2.13.63.2 1.15-.43 1.51-1.6.35-1.11.3-1.93-.34-2.13-.54-.17-1.13.37-1.52 1.6m-4.82.97 2.9.9.16-.51-2.04-.64v-.01l.47-.23c1.24-.62 2.06-1.1 2.32-1.94.2-.65 0-1.45-.98-1.75a2 2 0 0 0-1.42.06l.06.5c.26-.11.67-.22 1.07-.09.68.21.77.7.63 1.17-.22.68-.92 1.1-2.42 1.84l-.63.32zm19.35 1.66h-.01l-.92.18.03-.5 1.15-.22.52.16-1.4 4.53-.6-.18zm-6.13 2.44.12-.38.63-.31c1.5-.75 2.2-1.17 2.42-1.85.14-.46.05-.95-.63-1.16a1.6 1.6 0 0 0-1.08.08l-.06-.49c.4-.17.9-.22 1.43-.06.98.3 1.18 1.1.98 1.75-.26.83-1.08 1.32-2.32 1.94l-.46.23-.01.01 2.03.63-.16.51zm16.98 5.28.11-.38.63-.32c1.5-.74 2.2-1.16 2.42-1.84.14-.46.05-.96-.63-1.17-.4-.12-.81-.02-1.07.09l-.07-.5c.4-.17.9-.22 1.43-.06.98.3 1.18 1.1.97 1.75-.26.84-1.07 1.33-2.31 1.95l-.47.22v.01l2.03.64-.16.5zm-3.58-1.11 2.9.9.15-.51-2.03-.63v-.02l.47-.22c1.24-.62 2.06-1.11 2.32-1.95.2-.64 0-1.44-.98-1.75a2 2 0 0 0-1.43.07l.06.49a1.6 1.6 0 0 1 1.08-.09c.68.21.77.7.63 1.17-.22.68-.92 1.1-2.42 1.84l-.63.32zm16.6 4.38c.14.16.49.46.91.6.8.24 1.19-.18 1.3-.56.2-.64-.3-1.08-.9-1.27l-.33-.1.14-.47.34.1c.45.15 1.08.1 1.25-.44.11-.37-.02-.76-.58-.93a1.7 1.7 0 0 0-1 .02l-.02-.5c.29-.1.8-.13 1.3.02.89.28 1.12.94.95 1.49-.14.46-.55.77-1.16.8v.01c.51.28.84.85.64 1.48-.22.73-.99 1.18-2.08.85-.5-.16-.9-.46-1.08-.68zm-3.94-.45 2.9.9.15-.5-2.03-.64v-.02l.47-.22c1.24-.62 2.06-1.1 2.32-1.94.2-.65 0-1.45-.98-1.75a2 2 0 0 0-1.43.06l.06.5c.27-.12.67-.22 1.09-.1.67.22.76.71.62 1.17-.22.68-.93 1.1-2.42 1.85l-.63.32zm18.43 5.73.39-1.23-2.1-.66.12-.4 2.92-2.26.67.2-.88 2.82.63.2-.15.48-.63-.2-.38 1.23zm.54-1.72.47-1.5q.1-.37.24-.71h-.02l-.58.54-1.59 1.2v.02zm-6 .03 2.9.9.15-.52-2.03-.63v-.01l.47-.23c1.24-.62 2.06-1.1 2.32-1.94.2-.65 0-1.45-.98-1.75a2 2 0 0 0-1.43.06l.07.5c.26-.12.66-.22 1.07-.1.68.22.77.71.63 1.17-.22.68-.93 1.1-2.42 1.85l-.63.32zm20.06 1.82-1.73-.54-.54 1.11q.15.02.38.1a2 2 0 0 1 .9.54c.3.31.46.79.29 1.36-.28.89-1.19 1.33-2.17 1.02a2.3 2.3 0 0 1-1.04-.62l.3-.42c.15.17.48.42.89.55.58.18 1.18-.05 1.37-.65.18-.59-.08-1.13-.99-1.41q-.37-.11-.64-.15l.97-2.08 2.17.67zm-7.52 2.07 2.89.9.16-.51-2.04-.64V148l.47-.22c1.24-.63 2.06-1.11 2.32-1.95.2-.65 0-1.45-.98-1.75a2 2 0 0 0-1.42.06l.06.5a1.6 1.6 0 0 1 1.08-.09c.68.21.77.7.62 1.17-.22.68-.92 1.1-2.42 1.84l-.63.32zm20.64 1.92a2 2 0 0 0-.46-.12 1.94 1.94 0 0 0-2.08 1.12h.02c.3-.2.75-.32 1.25-.17.8.25 1.2 1 .92 1.89-.26.83-1.06 1.42-2 1.12-.98-.3-1.37-1.25-1-2.42.27-.9.8-1.5 1.4-1.8q.75-.4 1.65-.23l.45.1zm-.99 2.56c.2-.65-.04-1.15-.6-1.33-.38-.11-.8.01-1.06.28a1 1 0 0 0-.15.25c-.21.75-.05 1.4.6 1.6.53.17 1.01-.16 1.21-.8m-6.44-.37 2.9.9.15-.52-2.03-.63v-.01l.47-.23c1.24-.62 2.06-1.1 2.32-1.94.2-.65 0-1.45-.98-1.75a2 2 0 0 0-1.42.06l.06.5c.26-.11.66-.22 1.07-.1.68.22.77.71.63 1.17-.22.68-.93 1.1-2.42 1.85l-.63.32zm20.95 1.54-.12.4-3.26 3.52-.63-.2 3.2-3.4.01-.01-2.22-.7.16-.5zm-7.92 2.5 2.9.9.16-.5-2.04-.64v-.01l.47-.23c1.25-.62 2.06-1.1 2.32-1.94.2-.65 0-1.45-.98-1.75a2 2 0 0 0-1.42.06l.06.5c.26-.12.67-.22 1.08-.1.67.22.77.71.62 1.17-.22.68-.92 1.1-2.42 1.85l-.63.31zm17.15 4.07c.18-.57.65-.87 1.28-.93v-.03c-.42-.4-.52-.84-.4-1.24.22-.71.98-1.01 1.77-.77.88.28 1.15.97.97 1.53-.11.38-.43.74-1.07.83v.02c.48.4.71.9.54 1.45-.24.79-1.08 1.1-1.95.84-.94-.3-1.34-1.04-1.14-1.7m2.45.73c.18-.55-.13-.93-.69-1.3-.57-.01-.97.25-1.1.68-.17.46.06.97.64 1.15.55.17 1-.06 1.15-.53m-.98-2.79c-.14.46.12.8.6 1.1.44 0 .82-.19.95-.6.11-.36.01-.8-.54-.98-.5-.16-.89.09-1.01.48m-5.34 2.12 2.9.9.15-.51-2.03-.63v-.02l.47-.22c1.24-.62 2.06-1.11 2.32-1.95.2-.64 0-1.44-.98-1.75a2 2 0 0 0-1.42.07l.05.49c.27-.1.67-.21 1.08-.08.68.2.77.7.63 1.16-.22.68-.93 1.1-2.43 1.84l-.62.32zm16.53 4.66q.2.08.5.14.58.1 1.1-.15.58-.25.96-1.02h-.02q-.52.35-1.21.16c-.82-.26-1.15-1.03-.9-1.81.26-.85 1.11-1.42 2.03-1.13.93.29 1.27 1.22.91 2.38-.3 1-.86 1.59-1.44 1.88-.45.23-1 .3-1.5.2a3 3 0 0 1-.58-.14zm1.04-2.53c-.18.56.04 1.06.57 1.23.41.13.8.03 1.04-.2q.08-.06.12-.2c.24-.78.14-1.46-.5-1.66-.52-.16-1.03.19-1.23.83m-5.1 1.75 2.9.9.16-.51-2.04-.64v-.01l.47-.22c1.25-.62 2.06-1.11 2.32-1.95.2-.65 0-1.45-.98-1.75a2 2 0 0 0-1.42.06l.06.5a1.6 1.6 0 0 1 1.08-.09c.68.21.77.7.62 1.17-.22.67-.92 1.1-2.42 1.84l-.63.32zm14.99 1.73-.34-.1-.13.43.98-.28q-.26.03-.51-.05m.94-1.84c.9.28 1.13.94.96 1.49l-.02.02-.98.27q.24-.11.35-.39c.11-.36-.02-.75-.59-.93a1.7 1.7 0 0 0-.99.02l-.02-.5c.29-.1.8-.13 1.29.02m6.69-4.5-.66-.2 1.42-4.56.66.2zm2.73.85-.65-.2 1.41-4.56.66.2zm2.73.85-.65-.2 1.42-4.57.65.2zm4.14-3.71-.65-.2-1.34 4.33.77-.2zM396.17 41.68l-.97-.3 2.51-8.1.98.3zm12.98 4.04 2.52-8.1-.98-.31-2.52 8.1zm12.98 4.03-.97-.3 2.52-8.1.96.3zm12.97 4.03-.97-.3 2.52-8.1.97.3zm12.98 4.04-.97-.3 2.52-8.11.97.3zm12.98 4.03-.97-.3 2.52-8.11.97.3zm12.98 4.03-.98-.3 2.52-8.1.98.3zm12.97 4.03-.97-.3 2.52-8.1.97.3zM500 73.95l-.98-.3 2.52-8.11.97.3zm12.98 4.03-.98-.3 2.52-8.11.98.3zm12.97 4.03-.98-.3 2.52-8.1.98.3zm12.98 4.04-.97-.3 2.52-8.11.97.3zm12.98 4.03-.98-.3 2.52-8.11.98.3zm12.97 4.03-.98-.3 2.52-8.1.98.3zm12.98 4.03-.97-.3 2.51-8.1.98.3zm12.97 4.04-.97-.3 2.52-8.11.97.3zm12.98 4.03-.96-.3 2.51-8.1.97.3zm12.98 4.03-.97-.3 2.51-8.1.98.3zm12.98 4.04-.97-.3 2.52-8.11.97.3zm12.98 4.03-.98-.3 2.52-8.11.98.3zm12.98 4.03-.98-.3 2.52-8.1.98.3zm12.97 4.03-.97-.3 2.52-8.1.97.3zm12.98 4.04-.98-.3 2.52-8.11.98.3zm12.97 4.03-.97-.3 2.52-8.1.97.3zm12.98 4.03-.97-.3 2.52-8.1.97.3zm12.98 4.03-.97-.3 2.52-8.1.97.3zm12.98 4.04-.97-.3 2.52-8.11.97.3zm12.98 4.03-.98-.3 2.52-8.1.98.3zm12.98 4.03-.98-.3 2.52-8.1.98.3zm12.97 4.04-.97-.3 2.52-8.11.97.3zm12.98 4.03-.97-.3 2.52-8.11.97.3zm-9.82-6.94 1.41-4.56-.65-.2-1.42 4.56zm2.73.85-.65-.2 1.42-4.56.65.2zm2.72.85-.64-.2 1.42-4.57.64.2zm2.74.85 1.42-4.57-.66-.2-1.41 4.56zm-21-6.53-.66-.2 1.42-4.57.65.2zm2.73.85-.66-.2 1.42-4.57.65.2zm2.72.84-.65-.2 1.42-4.56.65.2zm2.73.85 1.42-4.56-.65-.2-1.42 4.56zm-21.17-6.58-.65-.2 1.42-4.56.65.2zm2.73.85-.65-.2 1.42-4.56.65.2zm2.73.85-.64-.2 1.41-4.56.65.2zm2.74.85 1.41-4.56-.64-.2-1.42 4.56zm-21.17-6.58-.65-.2 1.42-4.56.65.2zm2.73.85-.66-.2 1.42-4.57.66.2zm2.73.85-.65-.2 1.41-4.57.66.2zm2.73.85 1.42-4.56-.65-.2-1.42 4.56zm-21.17-6.58-.65-.2 1.42-4.56.64.2zm2.73.85-.65-.2 1.42-4.57.65.2zm2.73.85-.65-.2 1.42-4.57.65.2zm2.73.84 1.42-4.56-.65-.2-1.42 4.56zm-21.17-6.57-.65-.2 1.42-4.57.65.2zm2.73.84-.65-.2 1.42-4.56.65.2zm2.74.85-.66-.2 1.42-4.56.65.2zm2.72.85 1.42-4.56-.65-.2-1.42 4.56zm-21-6.53-.65-.2 1.42-4.56.64.2zm2.72.85-.64-.2 1.42-4.56.64.2zm2.74.85-.65-.2 1.41-4.56.66.2zm2.73.85 1.41-4.56-.64-.2-1.42 4.56zm-21.17-6.58-.65-.2 1.42-4.56.65.2zm2.73.85-.65-.2 1.42-4.56.65.2zm2.73.85-.65-.2 1.41-4.57.66.2zm2.73.85 1.42-4.57-.65-.2-1.42 4.57zm-21.33-6.63-.65-.2 1.42-4.57.65.2zm2.73.85-.65-.2 1.42-4.57.65.2zm2.73.84-.65-.2 1.42-4.56.65.2zm2.73.85 1.42-4.56-.65-.2-1.42 4.56zm-21-6.52-.66-.2 1.42-4.57.65.2zm2.72.84-.64-.2 1.41-4.56.65.2zm2.74.85-.65-.2 1.41-4.56.65.2zm2.72.85 1.42-4.56-.64-.2-1.42 4.56zm-21.44-6.66-.65-.2 1.42-4.57.65.2zm2.73.84-.65-.2 1.42-4.56.65.2zm2.73.85-.65-.2 1.42-4.56.65.2zm2.73.85 1.42-4.56-.65-.2-1.42 4.56zm-21.17-6.58-.65-.2 1.42-4.56.65.2zm2.73.85-.65-.2 1.42-4.56.65.2zm2.74.85-.66-.2 1.42-4.56.66.2zm2.72.85 1.42-4.56-.64-.2-1.42 4.56zm-20.68-6.43-.64-.2 1.41-4.56.65.2zm2.73.85-.65-.2 1.42-4.56.65.2zm2.73.85-.64-.2 1.41-4.56.65.2zm2.73.85 1.42-4.56-.65-.2-1.42 4.56zm-21.5-6.68-.64-.2 1.42-4.57.64.2zm2.74.85-.65-.2 1.42-4.57.65.2zm2.73.85-.65-.2 1.42-4.57.65.2zm2.73.84 1.42-4.56-.65-.2-1.42 4.56zm-21.17-6.57-.65-.2 1.42-4.57.65.2zm2.73.84-.64-.2 1.41-4.56.65.2zm2.73.85-.65-.2 1.42-4.56.65.2zm2.74.85 1.41-4.56-.65-.2-1.42 4.56zm-21.01-6.53-.65-.2 1.42-4.56.64.2zm2.72.85-.64-.2 1.42-4.56.64.2zm2.74.85-.65-.2 1.41-4.56.66.2zm2.73.85 1.41-4.57-.64-.2-1.42 4.57zm-21.5-6.68-.64-.2 1.42-4.56.64.2zm2.73.85-.64-.2 1.42-4.57.64.2zm2.74.85-.66-.2 1.42-4.57.65.2zm2.73.85 1.42-4.57-.66-.2-1.41 4.56zm-21.01-6.53-.65-.2 1.42-4.57.65.2zm2.73.85-.65-.2 1.42-4.57.65.2zm2.73.84-.65-.2 1.42-4.56.65.2zm2.73.85 1.42-4.56-.65-.2-1.42 4.56zm-21.33-6.63-.65-.2 1.42-4.56.65.2zm2.73.85-.65-.2 1.42-4.56.65.2zm2.73.85-.65-.2 1.42-4.56.65.2zm2.74.85 1.41-4.56-.65-.2-1.42 4.56zm-20.86-6.48-.64-.2 1.42-4.56.64.2zm2.73.85-.64-.2 1.41-4.56.65.2zm2.74.85-.65-.2 1.42-4.56.64.2zm2.73.85 1.42-4.56-.65-.2-1.42 4.55zm-21.34-6.63-.64-.2 1.41-4.56.65.2zm2.74.85-.66-.2 1.42-4.57.65.2zm2.73.84-.65-.2 1.42-4.56.64.2zm2.73.86 1.42-4.57-.66-.2-1.41 4.56zm-21.33-6.63-.65-.2 1.42-4.57.65.2zm2.73.84-.65-.2 1.42-4.56.64.2zm2.73.85-.65-.2 1.42-4.56.65.2zm2.73.85 1.42-4.56-.65-.2-1.42 4.56zm-21-6.53-.65-.2 1.42-4.56.64.2zm2.72.85-.65-.2 1.42-4.56.65.2zm2.74.85-.66-.2 1.42-4.56.65.2zm2.72.85 1.42-4.56-.64-.2-1.42 4.56zm-21.33-6.63-.65-.2 1.42-4.56.65.2zm2.73.85-.64-.2 1.42-4.56.64.2zm2.73.85-.65-.2 1.42-4.57.65.2zm2.74.85 1.42-4.57-.66-.2-1.41 4.57zm-20.85-6.48-.65-.2 1.42-4.57.65.2zm2.73.85-.65-.2 1.42-4.57.65.2zm2.73.85-.65-.2 1.42-4.57.65.2zm2.73.84 1.42-4.56-.64-.2-1.42 4.56zm-21.17-6.57-.65-.2 1.42-4.57.65.2zm2.73.84-.65-.2 1.42-4.56.65.2zm2.73.85-.65-.2 1.42-4.56.65.2zm2.73.85 1.42-4.56-.65-.2-1.41 4.56zm-21.49-6.68-.65-.2 1.42-4.56.65.2zm2.73.85-.65-.2 1.42-4.56.65.2zm2.73.85-.65-.2 1.42-4.57.65.2zm2.74.85 1.41-4.56-.65-.2-1.42 4.56zm-21.18-6.58-.65-.2 1.42-4.57.65.2zm2.73.85-.65-.2 1.42-4.57.65.2zm2.73.85-.64-.2 1.42-4.57.64.2zm2.74.84 1.41-4.56-.65-.2-1.42 4.56zm-21.18-6.57-.65-.2 1.42-4.57.65.2zm2.74.85-.65-.2 1.42-4.57.65.2zm2.72.84-.64-.2 1.42-4.56.64.2zm2.74.85 1.41-4.56-.65-.2-1.42 4.56zm-21.01-6.53-.65-.2 1.42-4.56.64.2zm2.73.85-.65-.2 1.42-4.56.65.2zm2.73.85-.64-.2 1.41-4.56.65.2z" style="fill-rule:evenodd;clip-rule:evenodd;fill:#ca8278"/></svg>