<svg xmlns="http://www.w3.org/2000/svg" xmlns:xlink="http://www.w3.org/1999/xlink" xml:space="preserve" viewBox="-115.8 141.3 174.1 247"><defs><path id="a" d="M0 0h500v500H0z" transform="matrix(-1 0 0 -1 500 500)"/></defs><clipPath id="b"><use xlink:href="#a" style="overflow:visible"/></clipPath><g style="clip-path:url(#b)"><path d="m-106 161.24 136.5-12.96.83 8.82q-.61-.24-1.3-.19a2.95 2.95 0 1 0 1.8 5.43l.67 7.05q-.61-.24-1.31-.19a2.95 2.95 0 1 0 1.81 5.44l.67 7.04q-.61-.24-1.31-.18a2.95 2.95 0 1 0 1.81 5.43l.67 7.04q-.61-.24-1.31-.18a2.95 2.95 0 1 0 1.8 5.43l.68 7.05q-.61-.24-1.32-.19a2.95 2.95 0 1 0 1.82 5.44l.66 7.04q-.61-.24-1.3-.18a2.95 2.95 0 1 0 1.8 5.43l.67 7.04q-.61-.24-1.31-.18a2.95 2.95 0 1 0 1.81 5.43l.67 7.05q-.61-.25-1.31-.19a2.95 2.95 0 1 0 1.8 5.44l.67 7.04q-.61-.24-1.31-.19a2.95 2.95 0 1 0 1.8 5.44l.68 7.04q-.62-.24-1.32-.18a2.95 2.95 0 1 0 1.82 5.43l.66 7.05q-.61-.25-1.3-.19a2.95 2.95 0 1 0 1.8 5.44l.67 7.04q-.61-.24-1.31-.19a2.95 2.95 0 1 0 1.81 5.44l.67 7.04q-.61-.24-1.31-.18a2.95 2.95 0 1 0 1.81 5.43l.67 7.05q-.61-.24-1.31-.2a2.95 2.95 0 1 0 1.8 5.44l.68 7.05q-.61-.25-1.32-.19a2.95 2.95 0 1 0 1.82 5.44l.66 7.04q-.61-.24-1.3-.18a2.95 2.95 0 1 0 1.8 5.43l.67 7.04q-.61-.24-1.31-.18a2.95 2.95 0 1 0 1.81 5.43l.84 8.82-136.5 12.96z" style="opacity:.26;fill:#00609b"/><path d="m27.7 148.74.84 8.82q-.61-.25-1.3-.19a2.95 2.95 0 1 0 1.8 5.44l.67 7.04q-.61-.24-1.31-.18a2.95 2.95 0 1 0 1.81 5.43l.67 7.04q-.61-.24-1.31-.18a2.95 2.95 0 1 0 1.8 5.43l.68 7.05q-.6-.25-1.32-.19a2.95 2.95 0 1 0 1.82 5.44l.67 7.04q-.61-.24-1.32-.19a2.95 2.95 0 1 0 1.81 5.44l.67 7.04q-.61-.24-1.3-.18a2.95 2.95 0 1 0 1.8 5.43l.67 7.05q-.61-.25-1.31-.19a2.95 2.95 0 1 0 1.81 5.44l.67 7.04q-.61-.24-1.31-.19a2.95 2.95 0 1 0 1.8 5.44l.68 7.04q-.6-.24-1.32-.18a2.95 2.95 0 1 0 1.82 5.43l.67 7.05q-.62-.24-1.32-.2a2.95 2.95 0 1 0 1.81 5.44l.67 7.05q-.61-.25-1.3-.19a2.95 2.95 0 1 0 1.8 5.44l.67 7.04q-.61-.24-1.31-.18a2.95 2.95 0 1 0 1.81 5.43l.67 7.04q-.61-.24-1.31-.18a2.95 2.95 0 1 0 1.8 5.43l.68 7.05q-.6-.25-1.32-.19a2.95 2.95 0 1 0 1.82 5.44l.67 7.04q-.61-.24-1.32-.19a2.95 2.95 0 1 0 1.81 5.44l.67 7.04q-.61-.24-1.3-.18a2.95 2.95 0 1 0 1.8 5.43l.67 7.05q-.61-.25-1.31-.19a2.95 2.95 0 1 0 1.81 5.44l.84 8.8-136.5 12.97-20.85-219.57z" style="fill:#e7ffe1"/><g style="opacity:.6"><path d="m16.37 167.64-104.91 9.96m106.16 3.2-104.91 9.96m106.16 3.2-104.91 9.96m106.16 3.2-104.91 9.96m106.16 3.2-104.92 9.96m106.17 3.2L-82.3 243.4m106.17 3.2-104.92 9.96m106.17 3.2-104.92 9.97m106.17 3.19-104.92 9.97m106.17 3.19-104.92 9.97m106.17 3.2-104.92 9.96m106.17 3.2-104.92 9.96m106.17 3.2-104.92 9.96m106.17 3.2-104.92 9.96m106.17 3.2-104.92 9.96" style="fill:none;stroke:#b8d1b2;stroke-miterlimit:10"/></g></g></svg>