<svg xmlns="http://www.w3.org/2000/svg" viewBox="3578.8 1639.2 842.4 561.6"><path d="M4280.97 1883c19.59 20.86 31.38 48.87 32.6 77.45s-8.14 57.49-25.87 79.93c7.64 32.6 16.3 73.79-7.16 100.85-19.57 22.58-53.14 25-83 25.77l-388.14 9.94c-13.54.34-27.63.58-39.9-5.13-24.1-11.22-32.97-41.2-33.37-67.77-.4-26.58 4.86-53.8-2.37-79.37-24.88 5.5-49.1 3.7-70.72-5.7s-40.41-27.32-46.58-50.08c-6.16-22.76 2.67-49.94 23.3-61.37-19.76-12.09-31.58-36.03-29.16-59.07s18.95-44 40.8-51.73c-10.5-21.67-2.88-49.64 15.28-65.46 18.15-15.82 44.75-20 68-13.75 23.26 6.26 43.22 21.97 62.7 36.19 23.08 9.21 49.38-3.4 67.66-20.23 18.27-16.85 32.49-38.2 53.01-52.22 26.8-18.3 63.17-21.57 92.8-8.36 29.64 13.22 51.5 42.48 55.79 74.64a234.5 234.5 0 0 1 94.12-75.08c18.73-8.2 39.6-13.95 59.52-9.37 19.91 4.59 37.92 22.26 36.99 42.67 14.22-37.2 68.07-48.57 100.3-25.19s40.64 71.15 24.98 107.76-50.95 62.19-101.58 94.69" style="fill:#f5ecdf"/><path d="M4218.52 1891.8c25.48 10.92 32.54 39.18 29.3 68.16-2.36 5.18-13.35 21-61.7 29.07-18.87 3.14-45.2 3.92-74.56 4.18v-.94s12.97-61.58 25.93-81.03c0 0 28.36-30.95 66.7-23.79h.04a66 66 0 0 1 14.3 4.34" style="fill:#fffaee"/><path d="M3860.63 2017.52c21.2-2.43 44.14-6.29 66.18-12.28 48.27-13.16 123.24-11.48 184.75-12.03 29.37-.26 55.69-1.04 74.55-4.18 48.36-8.07 59.35-23.89 61.72-29.07-2.57 22.68-11.45 45.83-22.82 61.48-22.7 22.69-136.13 29.17-200.96 22.69-64.82-6.48-210.68 16.2-233.37 9.72s-16.2-32.4-16.2-32.4 38.7 1.55 86.15-3.93" style="fill:#fffaee"/><path d="M4195.83 1713.53c9.73 0 10.73 46.15-2.75 73.31a468 468 0 0 0-10.21 7.72c-58.34 45.37-93.48 103.72-93.48 103.72a128 128 0 0 1-16.3-6.3c2-.48 4.02-.6 6.06-.19 0 0-3.99-6.67-10.27-9.72 0 0 16.75-58.34 45.92-97.24s71.31-71.3 81.03-71.3" style="fill:#8fd2b2"/><path d="m4137.5 1911.24-16.21-3.24-.07-.45c1.98-.26 3.05.32 3.28.42-.23-.68-3.83-9.7-19.42-9.7-2.46 0-4.96.69-7.36 1.89h-.03a56 56 0 0 1-8.3-1.88s35.14-58.35 93.48-103.72q5.06-3.93 10.2-7.72c55.95-41 118.12-67.22 125.93-63.6 13.9 6.5-48.59 126.38-114.77 164.2h-.03c-38.35-7.15-66.7 23.8-66.7 23.8" style="fill:#47b391"/><path d="M4076.91 1925.34a53 53 0 0 1 5.64-10.73c4.02-5.96 9.37-11.64 15.14-14.46h.03c2.4-1.2 4.9-1.88 7.36-1.88 15.59 0 19.19 9.02 19.42 9.7-.23-.1-1.3-.69-3.28-.43-4.34.52-12.96 4.9-25.86 26.39-6.48 9.72-16.2 6.48-19.45 0-.84-1.65-.39-4.83 1-8.59" style="fill:#fffaee"/><path d="M4089.4 1898.28c2.81.84 5.66 1.52 8.3 1.88-5.78 2.82-11.13 8.49-15.15 14.45l-.16-.13c-5.02.2-32.38-.97-32.38-.97l-.87-.68c6.48-8.52 15.04-18.64 23.95-20.84 1.78.84 8.91 4.08 16.3 6.29" style="fill:#f9dd8c"/><path d="M4075.9 1933.93c3.25 6.48 12.97 9.72 19.46 0 3.24 16.2-22.7 16.2-25.93 6.48-3.12-9.37 6.74-14.68 7.48-15.07-1.39 3.76-1.84 6.94-1 8.59" style="fill:#ffa307"/><path d="M4026.94 1913.87q.55-1.01 1.23-2.08c6.7-11.02 19.67-25.4 28.3-29.72q.74-.37 1.48-.65c4.06-1.52 7.78-.9 10.93.65 6.28 3.05 10.27 9.72 10.27 9.72a14 14 0 0 0-6.06.2c-8.91 2.2-17.47 12.31-23.95 20.84-3.73 4.93-6.8 9.3-8.88 11.38-6.49 6.48-12.97 6.48-16.2 0-.95-1.88.31-5.7 2.88-10.34" style="fill:#fffaee"/><path d="M4057.95 1881.42q-.74.28-1.49.65c-8.62 4.31-21.59 18.7-28.3 29.72l-.87-.55c-33.1 1.17-44.44-9.66-44.44-9.66 11.06-9.5 27.68-22.5 41.2-29.24 13.13-6.54 20.32-5.73 23.66-4.53 2.72 5.41 6.16 11.57 10.24 13.61" style="fill:#f9dd8c"/><path d="M4047.71 1867.8c-3.34-1.2-10.53-2-23.66 4.55-13.52 6.74-30.14 19.74-41.2 29.23a205 205 0 0 0-10.66 9.66c-6.48 6.48-16.2 0-12.97-9.72.43-1.27 1.56-2.95 3.25-4.96a61 61 0 0 1 3.85-4.18c14.23-14.26 45.64-36.92 60.97-39.48 8.3-1.2 13.55.65 16.89 3.5l.03.03c5.77 4.86 5.77 12.67 5.77 12.67s-.68-.68-2.27-1.3m-11.05-25.14c-10.6-15.4-64.76-2.53-90.4 13.48-25.93 16.2-35.65 19.45-38.9 6.48 0 0 1.17-3.47 9.05-9.76 5.28-4.2 13.61-9.65 26.6-16.17q48.63-24.3 77.8-19.45c2.2.36 4.08.98 5.74 1.79a17.3 17.3 0 0 1 8.45 8.94c3.15 7.2 2.01 15.2 2.01 15.2q-.15-.28-.35-.51" style="fill:#fffaee"/><path d="M4036.66 1842.66c.13 2.69 1.49 7.32 7.52 13.74-3.34-2.85-8.6-4.7-16.89-3.5-15.33 2.56-46.74 25.21-60.97 39.48l-.61-.59c-16.2-9.72-19.45-35.65-19.45-35.65 25.64-16.01 79.8-28.88 90.4-13.48" style="fill:#f9dd8c"/><path d="M4026.55 1819.03c-6.13-11.7-8.37-28.65-9.05-44.21l1.56-.07s21.2-2.88 24.44.36-10.5 27.94-8.5 52.86a17.4 17.4 0 0 0-8.45-8.94m-2.5 105.17c3.24 6.49 9.72 6.49 16.2 0 3.25 16.21-19.44 16.21-22.68 3.25-3.11-12.52 8.52-13.52 9.36-13.59-2.56 4.64-3.82 8.47-2.88 10.35" style="fill:#ffa307"/><path d="M4017.5 1774.82c.68 15.56 2.92 32.5 9.05 44.2a20 20 0 0 0-5.74-1.77q-29.18-4.87-77.79 19.44s0-51.86-6.48-61.58c-2.56-3.83-14.1-3.14-29.17-.71 0 0-6.48-28.46 6.48-34.94 12.96-6.49 35.65-19.45 68.07-19.45 32.4 0 35.65 6.48 35.65 19.45 0 6.28-.75 20.16-.07 35.36" style="fill:#f9dd8c"/><path d="M3959.23 1901.52c-3.24 9.72 6.48 16.2 12.96 9.72-3.24 12.97-22.69 9.72-22.69-3.24s12.97-11.44 12.97-11.44c-1.69 2-2.82 3.7-3.24 4.96" style="fill:#ffa307"/><path d="M3946.26 1856.14s3.24 25.93 19.45 35.65l.61.59a61 61 0 0 0-3.85 4.18s-12.97-1.53-12.97 11.44 19.45 16.2 22.69 3.24a205 205 0 0 1 10.66-9.66s11.35 10.83 44.44 9.66l.88.55q-.67 1.07-1.24 2.07c-.84.07-12.47 1.07-9.36 13.59 3.24 12.96 25.93 12.96 22.69-3.25 2.07-2.07 5.15-6.45 8.88-11.37l.87.68s27.36 1.17 32.38.97l.16.13a53 53 0 0 0-5.64 10.73c-.74.39-10.6 5.7-7.48 15.07 3.24 9.73 29.17 9.73 25.93-6.48 12.9-21.49 21.52-25.87 25.86-26.38l.07.45 16.2 3.24c-12.96 19.45-25.93 81.03-25.93 81.03v.94c-61.52.55-136.49-1.13-184.75 12.03-22.04 6-44.99 9.85-66.18 12.28-11.87-64.27-52.93-87.35-98.02-86.57 5.16-37.18 18.12-78.28 24.83-100.74a356 356 0 0 1 4.34-13.78c7.2-20.64 13.88-25.63 41.04-28.36 19.67-1.94 51.3-9.88 74.55-13.67 15.07-2.44 26.6-3.12 29.17.7 6.48 9.73 6.48 61.6 6.48 61.6-13 6.5-21.33 11.95-26.61 16.16-7.88 6.3-9.04 9.76-9.04 9.76 3.24 12.97 12.96 9.73 38.9-6.48m-103.72 61.58c16.2-6.48 29.17-55.1 16.2-61.58s-22.68 25.93-22.68 25.93-12.97-19.45-25.93-9.72c-12.97 9.72 16.2 51.86 32.41 45.37" style="fill:#ffa307"/><path d="M3858.75 1856.14c12.96 6.48 0 55.1-16.2 61.58s-45.39-35.65-32.42-45.37c12.97-9.73 25.93 9.72 25.93 9.72s9.72-32.41 22.69-25.93" style="fill:#eb5445"/><path d="M3860.63 2017.52c-47.45 5.48-86.15 3.92-86.15 3.92s-5.8-2.88-11.9-38.83a412 412 0 0 1-1.07-6.54c-1.98-12.94-1.23-28.66 1.1-45.12 45.09-.78 86.15 22.3 98.02 86.57" style="fill:#f9dd8c"/><path d="M3762.61 1930.95c-2.33 16.46-3.08 32.18-1.1 45.11q.54 3.45 1.07 6.55s-85.34 9.66-98.3-32.48c-12.97-42.13 38.89-42.13 38.89-42.13s-48.62-16.2-45.38-51.86c3.18-35.07 44.02-16.82 45.35-16.24-.88-1.04-19.35-23.27-16.18-48.58 3.24-25.93 35.66-38.9 48.62-16.21s12.97 51.86 12.97 51.86 12.96-19.45 25.93-22.69 17.3 12.15 17.3 12.15a355 355 0 0 0-4.34 13.78c-6.7 22.46-19.67 63.56-24.83 100.74" style="fill:#47b391"/><path d="M3798.04 2057.79a4.1 4.1 0 0 1-4-3.25c-1.87-8.77-3.3-21.99-2.45-30.26a4.1 4.1 0 0 1 8.15.84c-.76 7.35.62 19.77 2.31 27.72a4.1 4.1 0 0 1-4.01 4.95m26.5-4.68a4.1 4.1 0 0 1-4.07-3.62l-3.03-25.96a4.1 4.1 0 0 1 8.15-.95l3.02 25.96a4.1 4.1 0 0 1-4.08 4.57m27.74 1.6a4.1 4.1 0 0 1-4.1-4.1v-29.17a4.1 4.1 0 1 1 8.2 0v29.17a4.1 4.1 0 0 1-4.1 4.1m30.23-.84a4.1 4.1 0 0 1-3.95-2.99c-3.43-12.19-3.88-22.7-1.5-35.14a4.1 4.1 0 0 1 8.05 1.54c-2.15 11.26-1.76 20.35 1.34 31.38a4.1 4.1 0 0 1-3.95 5.2m32.21-4.01a4.1 4.1 0 0 1-4.09-4.08l-.15-37.28a4.1 4.1 0 0 1 4.08-4.11h.02a4.1 4.1 0 0 1 4.1 4.08l.15 37.28a4.1 4.1 0 0 1-4.09 4.11zm33.13-3.5-.25-.01a4.1 4.1 0 0 1-3.85-4.33c.65-11.23.39-26.9-.65-38.1a4.1 4.1 0 0 1 8.17-.76 297 297 0 0 1 .66 39.34 4.1 4.1 0 0 1-4.09 3.86m27.56-.64a4.1 4.1 0 0 1-4.07-3.74l-3.77-43.22a4.1 4.1 0 1 1 8.17-.71l3.76 43.22a4.1 4.1 0 0 1-4.09 4.45m32.47-.47a4.1 4.1 0 0 1-4.08-3.8l-3.16-44.02a4.1 4.1 0 1 1 8.17-.59l3.16 44.02a4.1 4.1 0 0 1-4.09 4.4m32.52 2.97a4.1 4.1 0 0 1-4.07-3.75c-.63-7.3-1.26-15.96-1.88-24.61-.63-8.62-1.25-17.23-1.87-24.5a4.1 4.1 0 1 1 8.16-.7c.63 7.3 1.26 15.95 1.88 24.6.62 8.62 1.25 17.24 1.87 24.51a4.1 4.1 0 0 1-4.09 4.45m35.64-3.24a4.1 4.1 0 0 1-4.08-3.8l-3.3-43.74a4.1 4.1 0 0 1 8.18-.62l3.3 43.76a4.1 4.1 0 0 1-4.1 4.4m32.73 3.24a4.1 4.1 0 0 1-4.09-3.85l-2.97-49.11a4.1 4.1 0 0 1 8.18-.5l2.97 49.11a4.1 4.1 0 0 1-4.1 4.35m38.49-6.47a4.1 4.1 0 0 1-4.1-4.1v-40.52a4.1 4.1 0 1 1 8.2 0v40.52a4.1 4.1 0 0 1-4.1 4.1m34.03-2.39a4.1 4.1 0 0 1-4.1-4.1v-44.72a4.1 4.1 0 0 1 8.2 0v44.73a4.1 4.1 0 0 1-4.1 4.1m34.25-7.32-.5-.03a4.1 4.1 0 0 1-3.57-4.57l5.97-48.24a4.1 4.1 0 1 1 8.14 1.01l-5.98 48.23a4.1 4.1 0 0 1-4.06 3.6" style="fill:#d5cfc7"/><path d="M3806.98 1818.44a4.1 4.1 0 0 1-1.08-8.05l12.88-3.54a4.1 4.1 0 1 1 2.17 7.91l-12.89 3.53q-.54.15-1.08.15m33.97-6.62a4.1 4.1 0 0 1-.7-8.14l11.28-1.98a4.1 4.1 0 1 1 1.41 8.08l-11.27 1.97q-.36.07-.72.07m38.87-5.06h-9.73a4.1 4.1 0 0 1 0-8.2h9.73a4.1 4.1 0 0 1 0 8.2m27.55-3.24h-8.1a4.1 4.1 0 0 1 0-8.2h8.1a4.1 4.1 0 0 1 0 8.2m29.17-1.62h-9.73a4.1 4.1 0 0 1 0-8.2h9.73a4.1 4.1 0 0 1 0 8.2" style="fill:#f9dd8c"/><path d="M4081.09 1895.23q-.76 0-1.5-.29a4.1 4.1 0 0 1-2.31-5.31c24.21-61.57 61.28-121.52 104.39-168.8a4.1 4.1 0 0 1 6.06 5.51c-42.45 46.57-78.97 105.62-102.83 166.29a4.1 4.1 0 0 1-3.81 2.6" style="fill:#47b391"/><path d="M4112.33 1869.96a4.1 4.1 0 0 1-3.35-6.46c25.12-35.56 53.9-89.98 77.01-145.56a4.1 4.1 0 1 1 7.57 3.14c-23.32 56.11-52.44 111.12-77.88 147.15a4.1 4.1 0 0 1-3.35 1.73" style="fill:#47b391"/><path d="M4171.74 1805.23q-.82 0-1.61-.33a4.1 4.1 0 0 1-2.15-5.38 389 389 0 0 0 24.52-80.15 4.1 4.1 0 1 1 8.05 1.54 397 397 0 0 1-25.04 81.84 4.1 4.1 0 0 1-3.77 2.48" style="fill:#47b391"/><path d="M4109.88 1902.32a4.09 4.09 0 0 1-3.03-6.86 1300 1300 0 0 1 171.7-156.87c5.57-4.24 13.2-10.05 22.27-11.2a4.1 4.1 0 0 1 1.03 8.14c-6.37.8-12.07 4.82-18.34 9.59a1292 1292 0 0 0-170.6 155.87 4 4 0 0 1-3.03 1.33" style="fill:#8fd2b2"/><path d="M4120.03 1906.55a4.1 4.1 0 0 1-2.51-7.33c64.2-49.8 128.97-109.83 187.29-173.58a4.1 4.1 0 0 1 6.04 5.53c-58.63 64.1-123.74 124.44-188.3 174.52-.76.58-1.64.86-2.52.86" style="fill:#8fd2b2"/><path d="M4130.36 1913.91a4.09 4.09 0 0 1-2.22-7.55c70.6-45.33 136.66-109.43 186.02-180.49a4.1 4.1 0 1 1 6.73 4.68c-49.96 71.92-116.85 136.8-188.32 182.71q-1.05.66-2.21.65m-370.48 9.63h-.21c-1.43-.07-4.02-.76-5.32-4.62l-39.3-116.39a4.1 4.1 0 1 1 7.76-2.62l38.55 114.15q1.08.31 1.92 1.13a5 5 0 0 1 .9 5.5 4.7 4.7 0 0 1-4.3 2.85" style="fill:#8fd2b2"/><path d="M3742.46 1877.23a4 4 0 0 1-2.1-.58l-33.1-19.78a4.1 4.1 0 1 1 4.21-7.04l28.36 16.96a212 212 0 0 1 13.4-36.58 4.1 4.1 0 0 1 7.4 3.52 203 203 0 0 0-14.18 40.35 4.1 4.1 0 0 1-3.99 3.15" style="fill:#8fd2b2"/><path d="M3758.82 1914.82h-.05c-22.86-.28-45.8-10.43-61.39-27.15a4.1 4.1 0 0 1 6-5.6c13.42 14.42 32.9 23.43 52.58 24.46a1148 1148 0 0 1 19.39-50.41 4.1 4.1 0 1 1 7.57 3.12 1140 1140 0 0 0-20.24 52.85 4.1 4.1 0 0 1-3.86 2.73m-10.98 39.81c-19.3 0-38.5-5.2-55.15-15.08a4.1 4.1 0 0 1 4.19-7.05c18.7 11.1 40.9 15.8 62.5 13.25a4.1 4.1 0 0 1 .95 8.14q-6.24.74-12.5.73" style="fill:#8fd2b2"/><path d="M3915.46 1874.71a12 12 0 0 1-4.5-.83c-3.75-1.5-6.22-4.86-7.57-10.26a4 4 0 0 1 .09-2.3c.63-1.89 5.41-12.15 37.7-28.3 33.06-16.52 60.07-23.18 80.3-19.82 18.5 3.09 20.9 21.33 19.6 30.55a4.1 4.1 0 0 1-7.58 1.53q-1.83-3.04-7.64-4.44c-18.97-4.56-57.86 6.55-77.43 18.77-15.48 9.69-25.66 15.1-32.97 15.1m-3.67-11.57q.9 2.6 2.23 3.14c4.98 2.02 21.94-8.53 30.07-13.61 21.33-13.33 62.52-24.89 83.68-19.8q2.77.66 5.02 1.68c-.92-5.43-3.92-11.8-12.66-13.26-18.47-3.08-43.8 3.33-75.28 19.07-23.88 11.94-31.15 20.1-33.06 22.78" style="fill:#360623"/><path d="M3912.13 1883.46c-5.52 0-10.9-3.2-14.66-8.84-4.94-7.41-1.65-17.18 3.95-22.61 5.36-5.2 12.18-6.19 17.38-2.49a4.1 4.1 0 1 1-4.75 6.68c-2.7-1.92-5.74.54-6.93 1.69-3.26 3.17-5.22 8.6-2.83 12.18 2.4 3.59 5.58 5.5 8.56 5.15 2.63-.32 4.78-2.44 6.06-5.99a4.1 4.1 0 1 1 7.7 2.78c-2.34 6.51-7 10.65-12.77 11.35q-.86.1-1.71.1m54.17 34.47a11.3 11.3 0 0 1-5.97-1.7c-4.26-2.64-7.46-8.61-5-16.01 4.06-12.15 51.57-48.08 71.29-51.37 8.66-1.23 15.49.3 20.4 4.55 6.98 6.06 7.06 15.31 7.06 15.7a4.1 4.1 0 0 1-6.85 3.04c-.36-.26-5.94-3.84-21.35 3.87-19.26 9.63-45.18 32.51-50.8 38.13a12.4 12.4 0 0 1-8.77 3.8m65.84-61.3q-2 0-4.27.32c-18.88 3.15-62.19 38.15-64.76 45.86-1.12 3.37.13 5.58 1.53 6.44 1.47.91 3.16.58 4.65-.9 6.77-6.77 32.94-29.68 52.93-39.67 10.02-5 17.14-6.08 22.03-5.7a11 11 0 0 0-2.66-3.43q-3.42-2.91-9.45-2.92" style="fill:#360623"/><path d="M3961.57 1923.59q-1.03 0-2.05-.12c-7.01-.87-14.12-6.46-14.12-15.47 0-6.26 2.57-9.86 4.71-11.77 5.07-4.5 12.06-3.84 12.84-3.75a4.1 4.1 0 0 1-.93 8.14c-1.13-.1-4.52-.02-6.49 1.76-1.3 1.17-1.93 3.01-1.93 5.62 0 4.48 3.48 6.9 6.92 7.33 3.03.37 6.61-.77 7.7-5.08a4.1 4.1 0 1 1 7.94 1.98c-2 8-8.45 11.36-14.59 11.36m175.93-8.25q-.4 0-.81-.08l-16.2-3.24a4.1 4.1 0 1 1 1.6-8.04l16.2 3.24a4.1 4.1 0 0 1-.8 8.12" style="fill:#360623"/><path d="M3805.1 2059.12c-6.99 0-12.29-.4-15.54-1.33-19.55-5.58-21.45-24.27-19.53-35.12-4.5-6.12-8.89-22.07-12.57-45.98-6.26-40.7 13.63-106.5 24.3-141.86l1.76-5.8c9.84-32.8 13.86-41.53 48.9-45.03 11.36-1.14 27.22-4.4 42.57-7.55 41.2-8.45 59.8-11.35 64.96-3.61 6.82 10.23 7.17 54.99 7.17 63.85a4.1 4.1 0 0 1-8.2 0c0-19.57-1.57-52.98-5.8-59.3-4.23-3.63-36.94 3.08-56.48 7.1-15.55 3.19-31.63 6.49-43.41 7.67-29.88 2.98-32.25 7.2-41.86 39.23l-1.76 5.82c-10.49 34.73-30.03 99.38-24.05 138.24 5.41 35.16 10.65 41.94 11.32 42.67a4.1 4.1 0 0 1 1.57 4.32c-.21.9-5.2 22.18 13.36 27.48 9.6 2.74 47.12-.5 86.84-3.93 51.62-4.45 110.12-9.51 145.8-5.93 62.78 6.26 175.48-.06 197.44-21.3 16.22-22.5 28.08-63.31 19.91-92.99-4.04-14.7-12.42-24.86-24.89-30.2-40.5-17.37-73.32 15.25-76.2 18.23-12.31 18.9-25 78.71-25.14 79.32a4.1 4.1 0 0 1-8.02-1.69c.54-2.55 13.28-62.58 26.53-82.46q.18-.26.4-.5c.37-.4 38.16-40.8 85.66-20.44 14.67 6.29 24.9 18.59 29.56 35.57 9.2 33.39-4.16 76.58-21.38 100.26q-.19.25-.42.48c-24.2 24.21-138.97 30.41-204.26 23.87-34.93-3.49-93.02 1.53-144.28 5.95-31.05 2.68-57.5 4.96-74.26 4.96m-28.79-41.34" style="fill:#360623"/><path d="M4026.55 1823.13a4.1 4.1 0 0 1-3.56-2.07c-11.56-20.24-10.37-55.1-9.72-73.83.1-3.18.2-5.83.2-7.77 0-9.57 0-15.35-31.56-15.35-28.87 0-49.38 10.44-62.96 17.36l-3.27 1.65c-8.2 4.1-5.8 23.8-4.32 30.38a4.1 4.1 0 0 1-7.99 1.82c-.74-3.23-6.75-31.83 8.64-39.53l3.22-1.63c13.4-6.82 35.84-18.25 66.68-18.25 33.8 0 39.75 7.6 39.75 23.55 0 2.01-.09 4.76-.2 8.05-.62 17.92-1.76 51.27 8.64 69.49a4.1 4.1 0 0 1-3.55 6.13m-60.85 72.77c-.71 0-1.44-.2-2.1-.6-17.71-10.62-21.26-37.51-21.4-38.65a4.1 4.1 0 0 1 8.13-1.02c.03.24 3.22 24.08 17.49 32.65a4.1 4.1 0 0 1-2.11 7.61m65.21 37.27q-.9 0-1.77-.14c-3.7-.6-6.81-3.08-8.77-6.98-5.14-10.3 22.14-41.58 34.25-47.64 12.94-6.47 24 4.55 28.03 11.28a4.1 4.1 0 0 1-4.31 6.13c-9.95-1.98-21.83 13.94-28.93 23.47-2.55 3.42-4.57 6.12-6.27 7.82-3.95 3.96-8.23 6.06-12.24 6.06m-3.1-10.57q1.13 2.1 2.64 2.34c1.78.28 4.34-1.07 6.9-3.62 1.28-1.28 3.23-3.9 5.49-6.93 6.98-9.36 16.8-22.53 28.07-26.05-3.17-2.79-7.66-5.08-12.63-2.6-11.99 6-30.76 31.18-30.46 36.86" style="fill:#360623"/><path d="M4030.47 1940.89c-7.18 0-14.87-4.4-16.88-12.45-1.3-5.2-.68-9.55 1.84-12.94 3.87-5.23 10.58-5.7 11.33-5.74a4.1 4.1 0 0 1 .44 8.18c-1 .07-3.88.64-5.2 2.47q-1.47 2-.46 6.04c1.19 4.72 6.6 6.98 10.76 6.05q5.19-1.19 3.94-7.49a4.1 4.1 0 1 1 8.03-1.6c1.96 9.78-3.7 15.63-10.18 17.08q-1.77.4-3.62.4m15.66-78.39a4 4 0 0 1-2.86-1.16c-13.8-13.4-10.69-21.7-9.92-23.24l7.33 3.67.12-.28c-.01.05-1.32 4.75 8.18 13.97a4.1 4.1 0 0 1-2.85 7.04" style="fill:#360623"/><path d="M4058.93 1885.2q-.4 0-.81-.09c-7.09-1.42-11.04-9.37-14.53-16.38l-.52-1.03a4.1 4.1 0 0 1 7.34-3.67l.52 1.05c2.38 4.8 5.65 11.36 8.8 12a4.1 4.1 0 0 1-.8 8.11m-36.48 30.24c-30.66 0-41.94-10.4-42.43-10.87a4.1 4.1 0 0 1 5.62-5.97c.25.22 11.2 9.64 41.5 8.55a4.16 4.16 0 0 1 4.25 3.96 4.1 4.1 0 0 1-3.95 4.24q-2.57.09-5 .09m63.03 28.73q-.44 0-.84-.02c-5.14-.32-10-3.61-12.39-8.38-3.16-6.33 3.48-17.96 5.59-21.37 2.93-4.75 13.55-20.21 27.25-20.21 18.94 0 23.17 12.01 23.34 12.52a4.1 4.1 0 0 1-5.82 4.91c-.63-.1-8.54-.9-23.73 24.43-4.6 6.9-10.08 8.12-13.4 8.12m19.61-41.79c-5.18 0-11.43 4.3-17.16 11.8-6.3 8.23-8.78 16.25-8.3 18.05a7 7 0 0 0 5.52 3.74c2.54.19 4.83-1.34 6.8-4.3 8.7-14.5 16.83-23.54 24.18-26.86-2.36-1.33-5.88-2.43-11.04-2.43m17.18 9.05h.01m0-.01" style="fill:#360623"/><path d="M4097.72 1904.24q-.27 0-.53-.03c-11.14-1.45-25.7-8.43-26.3-8.73a4.1 4.1 0 1 1 3.56-7.38c.14.07 13.98 6.7 23.79 7.98a4.1 4.1 0 0 1-.52 8.16m-16.8 14.36c-7.6 0-30.05-.94-31.08-.99a4.1 4.1 0 0 1 .34-8.19c9.4.4 28.2 1.11 32.06.97a4.1 4.1 0 0 1 .3 8.2zm1.44 32.54c-7.28 0-14.74-3.2-16.82-9.43-3.45-10.37 4.75-17.65 9.57-20.05a4.1 4.1 0 0 1 3.68 7.32c-.78.4-7.5 4.05-5.48 10.14.91 2.7 7.3 4.83 12.86 3.35 6.38-1.7 5.47-6.24 5.17-7.74a4.1 4.1 0 1 1 8.04-1.6c1.67 8.38-2.58 15-11.1 17.26-1.88.5-3.9.75-5.92.75m-294.76 74.58c-8.24 0-13.1-.18-13.29-.18a4.1 4.1 0 0 1-3.93-4.26 4.16 4.16 0 0 1 4.26-3.93c.8.03 81.24 2.98 151.1-16.07 42.37-11.56 105.23-11.8 160.7-12.03 38.68-.15 75.22-.3 99-4.26 53.65-8.94 58.5-27.35 58.54-27.53a4.15 4.15 0 0 1 4.81-3.16 4.05 4.05 0 0 1 3.25 4.64c-.41 2.45-5.75 24.21-65.26 34.13-24.42 4.07-61.28 4.22-100.31 4.38-54.96.22-117.25.47-158.58 11.74-54.03 14.73-114.17 16.53-140.28 16.53m51.36-103.23c-10.85 0-23.24-11.75-30.51-24.7-7.26-12.91-7.55-23.65-.79-28.72a16.5 16.5 0 0 1 12.94-3.3c5.68.97 10.59 4.78 13.97 8.19 2.99-7.47 8.5-18.53 16.02-21.77a11.5 11.5 0 0 1 9.98.29c3.72 1.86 8.05 6.78 7.51 19.67-.7 16.89-10.18 43.84-24.03 49.38q-2.47.97-5.1.96m3.57-4.77h.03zm-24.72-44q-2.7 0-5.23 1.9c-2.98 2.24-1.74 9.7 3.01 18.16 7.28 12.95 19.39 22.56 25.42 20.14 8.47-3.39 18.18-25.03 18.88-42.11.32-7.6-1.41-11.22-2.99-12a3.3 3.3 0 0 0-3.06-.1c-5.68 2.45-11.52 15.74-13.87 23.54a4.1 4.1 0 0 1-7.33 1.1c-1.73-2.58-7.53-9.5-13.44-10.5a8 8 0 0 0-1.39-.13" style="fill:#360623"/><path d="M3860.62 2021.62a4.1 4.1 0 0 1-4.02-3.37c-12.68-69.9-58.1-83.83-93.95-83.2h-.08a4.1 4.1 0 0 1-.07-8.19c31.83-.53 87.73 10.37 102.16 89.93a4.1 4.1 0 0 1-4.04 4.83M4035 1832.06a4.1 4.1 0 0 1-4.09-3.76c-1.27-15.74 3.4-31.28 6.5-41.56a98 98 0 0 0 2.38-8.78c-3.41-.6-12.02-.26-20.2.84a4.1 4.1 0 0 1-1.1-8.12c15.41-2.09 24.8-1.57 27.9 1.53 3.03 3.03 1.64 7.66-1.13 16.89-3.1 10.27-7.32 24.34-6.17 38.53a4.1 4.1 0 0 1-4.1 4.43m54.4 70.31a4.08 4.08 0 0 1-3.51-6.2c.35-.6 36.2-59.53 94.47-104.85 56.88-44.24 129.09-77.03 140.38-71.78 1.85.86 4.1 2.9 4.31 7.74 1.03 24.8-57.13 128.5-118.82 163.72a4.1 4.1 0 0 1-4.06-7.12c26.75-15.26 57.05-47.32 83.15-87.95 23.9-37.2 32.84-63.56 31.52-69.02l-.36-.01c-10.51 0-74.18 26.63-131.08 70.9-57.03 44.35-92.14 102.02-92.5 102.6a4.1 4.1 0 0 1-3.5 1.97" style="fill:#360623"/><path d="M4068.88 1886.17a4.1 4.1 0 0 1-3.94-5.23c.69-2.41 17.3-59.52 46.58-98.57 27.67-36.88 71.66-72.94 84.31-72.94 1.95 0 4.75.77 7.02 4.44 7.37 11.87 5.7 51.02-6.08 74.8a4.1 4.1 0 1 1-7.35-3.65c12.22-24.64 10.94-63.1 6.1-67.38-8.17.8-48.2 30.67-77.44 69.65-28.36 37.82-45.1 95.33-45.27 95.91a4.1 4.1 0 0 1-3.93 2.97m-326.92 101.55c-27.17 0-71.93-4.94-81.6-36.38-3.87-12.58-2.79-23.08 3.22-31.22 6.12-8.28 16.17-12.33 24.62-14.32a98 98 0 0 1-11.34-7.04c-16.6-12.03-24.61-26.9-23.15-43 .94-10.35 5-17.67 12.03-21.74 8.3-4.8 19-3.8 27.12-1.84-5.58-9.57-12.04-24.73-9.96-41.37 1.91-15.32 13.35-28.04 27.8-30.93 11.76-2.35 22.38 2.58 28.44 13.2 8.45 14.79 11.62 31.95 12.8 42.88 5.37-6.14 13.31-13.6 21.54-15.66 13.3-3.32 20.38 8.37 22.26 15.02a4.1 4.1 0 1 1-7.88 2.23c-.35-1.17-3.63-11.47-12.4-9.3-9.37 2.35-20.14 15.95-23.5 21a4.1 4.1 0 0 1-7.51-2.28c0-.28-.18-28.39-12.43-49.83-4.29-7.5-11.46-10.87-19.71-9.23-9.04 1.81-19.55 10.06-21.28 23.91-2.97 23.77 15.07 45.24 15.25 45.45a4.1 4.1 0 0 1-4.83 6.39c-5.58-2.57-22.15-8.02-31.62-2.54-4.66 2.7-7.26 7.73-7.96 15.39-2.91 32.05 42.14 47.45 42.6 47.6a4.1 4.1 0 0 1-1.3 7.99c-.23 0-23.64.2-33 12.91-4.38 5.93-5.04 13.98-1.98 23.92 11.82 38.4 93.1 29.72 93.93 29.62a4.1 4.1 0 0 1 .92 8.15 203 203 0 0 1-21.08 1.02" style="fill:#360623"/><path d="M3788.9 2144.44c-3.73 0-6.76-1.66-8.48-4.79a7 7 0 0 1-.36-5.78c1.84-5.05 10.91-11.07 21.35-16.55-1.45-.85-3.08-1.67-4.57-2.42-6.74-3.4-15.14-7.63-14-16.51.65-5.16 3.9-9.44 9.15-12.06 6.7-3.35 16.34-3.68 21.5-.75a4.1 4.1 0 0 1-4.04 7.13c-2.22-1.26-8.85-1.52-13.8.95q-4.21 2.11-4.69 5.76c-.37 2.92 3.55 5.12 9.57 8.16 3.19 1.6 6.6 3.32 9.18 5.6 9.97-4.73 19.8-8.67 24.8-10.6a4.1 4.1 0 0 1 2.96 7.65 357 357 0 0 0-23.66 10.13v.05c1.06 9.25-11.5 20.47-20.15 23.23q-2.52.8-4.75.8m-.86-8.35c.79.38 2.23.03 3.13-.26 5.24-1.67 10.89-6.79 13.3-10.83-8.8 4.63-14.96 8.69-16.43 11.1m281.53-5.58c-3.73 0-6.76-1.66-8.49-4.8a7 7 0 0 1-.4-5.74c1.72-5.07 10.3-11.37 20.27-17.22a120 120 0 0 0-3.45-1.79c-6.74-3.4-15.13-7.63-14-16.5.65-5.16 3.9-9.44 9.15-12.07 6.7-3.34 16.34-3.67 21.5-.74a4.1 4.1 0 1 1-4.04 7.12c-2.22-1.25-8.85-1.51-13.8.96q-4.22 2.11-4.68 5.76c-.37 2.91 3.54 5.12 9.56 8.16 2.69 1.35 5.53 2.78 7.9 4.57a382 382 0 0 1 24.82-11.96 4.1 4.1 0 0 1 3.3 7.51c-8.2 3.6-16.1 7.42-23.06 11.1q.23.76.32 1.6c1.06 9.26-11.5 20.48-20.15 23.24q-2.51.8-4.75.8m-.94-8.39c.77.44 2.28.08 3.2-.22 6.02-1.91 12.6-8.4 14.16-12.55-9.47 5.45-16.05 10.17-17.36 12.77" style="fill:#e45825"/><path d="M3831.87 2139.57a4.1 4.1 0 0 1-4.02-4.9l8.27-41.66a4.1 4.1 0 0 1 8.04 1.6l-1.48 7.46c2.74-3.47 5.75-5.9 8.9-6.32a7.4 7.4 0 0 1 6.35 2.16c2.61 2.62 3.81 7.84 4.24 13.67 7.31-14.94 11.5-14.94 13.16-14.94 7.97 0 7.97 11.98 7.98 25.85 0 1.28 0 2.75.02 4.12a265 265 0 0 0 13.38-10.49 4.1 4.1 0 0 1 5.24 6.3c-18.04 15.04-20.57 14.88-22.05 14.81-4.78-.27-4.78-4.5-4.79-14.74 0-4.14 0-11.8-.71-15.93-3.6 5.04-9.46 18.44-13.6 30.27a4.1 4.1 0 0 1-7.93-1.91c1.88-13.76 1.61-28.13-.52-30.97-3.92 1.32-11.66 16.54-16.56 32.71a4.1 4.1 0 0 1-3.92 2.91m47.44-10.4" style="fill:#e45825"/><path d="M3929.13 2135.77h-.2c-2.17-.15-5.86-.39-8.53-16.76-4 7.11-9.32 14.29-14.87 15.21-2.94.49-5.71-.6-7.84-3.07-6.37-7.38-1.62-20.33 6.37-29.3 6.94-7.79 14.47-10.44 19.67-6.9a4.1 4.1 0 0 1 1.09 5.68l-.11.16a4.1 4.1 0 0 1 2.19 3.29c.69 8.27 2.15 18 3.54 22.35 3.46-2.73 9.87-9.4 15.78-17.87a98 98 0 0 1-1.56-14.6c-.5-14.14 5.49-26.02 11.57-29.33 2.63-1.44 5.4-1.39 7.58.14 3.48 2.42 4.56 7.75 3.3 16.29-1.4 9.51-6.25 19.96-12.14 29.15 2.5 10.3 6.5 15.26 8.56 15.74 2.13-.83 6.8-5.9 11.6-13.19a92 92 0 0 1-.7-29.67c1.37-9.2 6.22-17.13 11.77-19.27a7.4 7.4 0 0 1 7.54 1.04c3.46 2.84 4.44 8.75 2.92 17.55-1.74 10.06-6.83 21.93-12.8 31.77 1.65 6.47 4.06 11.02 6.63 11.8 8.8 2.7 18.48-9.17 18.58-9.3a4.1 4.1 0 0 1 6.44 5.07c-.53.67-13.07 16.47-27.42 12.08-4.41-1.35-7.7-5.5-10.04-11.09-5.4 7.04-10.91 11.66-14.79 11.42-5.9-.35-10.96-6.11-14.32-15.41-7.74 10-15.85 17.02-19.81 17.02m-10.59-34.18c-1.39 0-4.54 1.43-8.36 5.71-6.01 6.76-8.95 15.4-6.28 18.5.25.29.4.36.4.36 2.75-.2 9.96-11.5 14.71-23.27q.2-.51.52-.92l-.4-.25a1 1 0 0 0-.59-.13m70.18-29.93c-1.7 1.02-5.08 5.26-6.19 12.64a80 80 0 0 0-.65 16.57c3.02-6.25 5.54-13.1 6.7-19.86 1-5.74.49-8.36.14-9.35m-29.48.82c-2.52 2.39-6.78 10.26-6.4 21.19q.07 1.87.2 3.63c2.88-5.64 5.1-11.59 5.96-17.43.58-3.94.45-6.19.24-7.4m162.45 51.06c-2.26 0-4.35-.9-5.97-2.57-8.2-8.5-2.4-39.56-.41-48.87a4.1 4.1 0 1 1 8.01 1.7c-3.63 17.12-5.18 37.87-1.7 41.48 2.43.4 10.47-8.04 17.1-19.3a4.1 4.1 0 0 1 7.06 4.16c-3.05 5.2-13.73 22.23-23.06 23.34q-.53.06-1.03.06" style="fill:#e45825"/><path d="M4101.9 2088.1a4.1 4.1 0 0 1-.75-8.13l30.66-5.72a4.1 4.1 0 1 1 1.5 8.05l-30.66 5.73a4 4 0 0 1-.75.07m75.93 57.67q-.3 0-.6-.04a4.1 4.1 0 0 1-3.46-4.65l6.15-42.11c-6.74 8.38-15.08 17.45-20.63 18.93-4.83 1.3-10.15-.22-14.23-4.02-5.87-5.48-8.24-14.66-6.32-24.56 1.6-8.2 6.58-11.07 9.4-12.05 6-2.06 12.44.29 16.16 3.53 3.17 2.75 4.6 6.25 3.95 9.6-2.05 10.53-19.24 10.84-21.22 10.84h-.12a13.6 13.6 0 0 0 3.75 6.65c2 1.87 4.44 2.65 6.52 2.1 4.24-1.14 16.68-15.78 25.77-28.68a4.1 4.1 0 0 1 7.4 2.95l-8.47 58a4.1 4.1 0 0 1-4.05 3.51m-24.97-61.07q-1.06 0-2.04.33-3.1 1.06-4.03 5.86-.22 1.1-.34 2.2.28-.05.58-.05c5.16 0 12.67-1.62 13.18-4.2.03-.18-.21-.93-1.28-1.86a10 10 0 0 0-6.07-2.28" style="fill:#e45825"/><path d="M4187.55 2115.79q-2.23.01-4.5-.8a4.1 4.1 0 0 1 2.77-7.71c4.4 1.58 9.48-3.31 12.34-8.5 2.96-5.38 2.84-9.44 2.13-9.99-1.36-1.06-7.2.76-11.79 3.67a4.1 4.1 0 0 1-4.4-6.9c2.32-1.5 14.28-8.64 21.24-3.23 4.77 3.73 4.77 11.73 0 20.4-3.85 7-10.5 13.06-17.8 13.06" style="fill:#e45825"/><path d="M4225.33 2125.1a6 6 0 0 1-4.18-1.5 5.5 5.5 0 0 1-1.42-5.45c.76-3.07 4.38-7.51 9.87-12.02-1.55-2.71-4-5.3-6.7-6.74-3.26-1.73-4.6-4.12-5.13-6.13l-14.52 12.54a4.1 4.1 0 0 1-5.35-6.2l28.25-24.42a4.1 4.1 0 0 1 5.5 6.07c-2.71 2.6-6.3 7.43-5.99 9.77.03.2.09.6 1.1 1.14 3.56 1.9 7.07 5.2 9.5 9.11a81 81 0 0 1 22.42-10.21 4.1 4.1 0 1 1 2.16 7.9 72 72 0 0 0-21.55 10.17q.3 1.87.13 3.75c-.3 3.18-2 8.92-10.15 11.5-.73.23-2.27.72-3.94.72" style="fill:#e45825"/></svg>