<svg xmlns="http://www.w3.org/2000/svg" xml:space="preserve" viewBox="-461 64 2841 953"><path d="M-400.08 74.35h2718.1c27.04 0 51.27 19.86 51.27 47.1v838.78c0 27.25-24.23 47.1-51.27 47.1h-2718.1c-27.05 0-51.27-19.86-51.27-47.1V121.44c0-27.16 24.13-47.1 51.27-47.1" style="fill-rule:evenodd;clip-rule:evenodd;fill:#58595b"/><path d="M-400.08 105.83c-9.1 0-18.92 6-18.92 15.63v838.76c0 9.64 9.81 15.63 18.92 15.63h2718.1c9.1 0 18.92-5.99 18.92-15.62V121.46c0-9.64-9.82-15.63-18.92-15.63z" style="fill-rule:evenodd;clip-rule:evenodd;fill:#6d6e70"/><path d="M-393.9 115.99h133.29c8.76 0 15.87 7.1 15.87 15.87v133.3c0 8.75-7.1 15.86-15.87 15.86h-133.3c-8.76 0-15.86-7.1-15.86-15.87v-133.3c0-8.76 7.1-15.86 15.86-15.86" style="fill-rule:evenodd;clip-rule:evenodd;fill:#8bbba8"/><path d="M-393.9 115.99h133.29c8.76 0 15.87 7.1 15.87 15.87v133.3c0 8.75-7.1 15.86-15.87 15.86h-133.3c-8.76 0-15.86-7.1-15.86-15.87v-133.3c0-8.76 7.1-15.86 15.86-15.86" style="fill-rule:evenodd;clip-rule:evenodd;fill:#8bbba8"/><path d="M-374.87 125.5h95.22a15.9 15.9 0 0 1 15.87 15.88v95.2c0 8.77-7.11 15.88-15.87 15.88h-95.22c-8.76 0-15.86-7.1-15.86-15.87v-95.21c0-8.77 7.1-15.87 15.87-15.87" style="fill-rule:evenodd;clip-rule:evenodd;fill:#b4dfce"/><path d="M-374.87 125.5h95.22a15.9 15.9 0 0 1 15.87 15.88v95.2c0 8.77-7.11 15.88-15.87 15.88h-95.22c-8.76 0-15.86-7.1-15.86-15.87v-95.21c0-8.77 7.1-15.87 15.87-15.87" style="fill-rule:evenodd;clip-rule:evenodd;fill:#b4dfce"/><path d="M-222.53 115.99h133.3c8.76 0 15.87 7.1 15.87 15.87v133.3c0 8.75-7.1 15.86-15.87 15.86h-133.3c-8.76 0-15.86-7.1-15.86-15.87v-133.3c0-8.76 7.1-15.86 15.86-15.86" style="fill-rule:evenodd;clip-rule:evenodd;fill:#cccccb"/><path d="M-222.53 115.99h133.3c8.76 0 15.87 7.1 15.87 15.87v133.3c0 8.75-7.1 15.86-15.87 15.86h-133.3c-8.76 0-15.86-7.1-15.86-15.87v-133.3c0-8.76 7.1-15.86 15.86-15.86" style="fill-rule:evenodd;clip-rule:evenodd;fill:#cccccb"/><path d="M-203.49 125.5h95.22a15.9 15.9 0 0 1 15.87 15.88v95.2c0 8.77-7.11 15.88-15.87 15.88h-95.21c-8.76 0-15.87-7.1-15.87-15.87v-95.21c0-8.77 7.1-15.87 15.87-15.87" style="fill-rule:evenodd;clip-rule:evenodd;fill:#fdfefe"/><path d="M-203.49 125.5h95.22a15.9 15.9 0 0 1 15.87 15.88v95.2c0 8.77-7.11 15.88-15.87 15.88h-95.21c-8.76 0-15.87-7.1-15.87-15.87v-95.21c0-8.77 7.1-15.87 15.87-15.87" style="fill-rule:evenodd;clip-rule:evenodd;fill:#fdfefe"/><path d="M-51.15 115.99h133.3c8.76 0 15.87 7.1 15.87 15.87v133.3c0 8.75-7.1 15.86-15.87 15.86h-133.3c-8.76 0-15.86-7.1-15.86-15.87v-133.3c0-8.76 7.1-15.86 15.87-15.86" style="fill-rule:evenodd;clip-rule:evenodd;fill:#cccccb"/><path d="M-51.15 115.99h133.3c8.76 0 15.87 7.1 15.87 15.87v133.3c0 8.75-7.1 15.86-15.87 15.86h-133.3c-8.76 0-15.86-7.1-15.86-15.87v-133.3c0-8.76 7.1-15.86 15.87-15.86" style="fill-rule:evenodd;clip-rule:evenodd;fill:#cccccb"/><path d="M-32.1 125.5h95.2a15.9 15.9 0 0 1 15.88 15.88v95.2c0 8.77-7.11 15.88-15.87 15.88H-32.1c-8.76 0-15.87-7.1-15.87-15.87v-95.21c0-8.77 7.1-15.87 15.87-15.87" style="fill-rule:evenodd;clip-rule:evenodd;fill:#fdfefe"/><path d="M-32.1 125.5h95.2a15.9 15.9 0 0 1 15.88 15.88v95.2c0 8.77-7.11 15.88-15.87 15.88H-32.1c-8.76 0-15.87-7.1-15.87-15.87v-95.21c0-8.77 7.1-15.87 15.87-15.87" style="fill-rule:evenodd;clip-rule:evenodd;fill:#fdfefe"/><path d="M120.23 115.99h133.3c8.76 0 15.87 7.1 15.87 15.87v133.3c0 8.75-7.1 15.86-15.87 15.86h-133.3c-8.76 0-15.87-7.1-15.87-15.87v-133.3c0-8.76 7.11-15.86 15.87-15.86" style="fill-rule:evenodd;clip-rule:evenodd;fill:#cccccb"/><path d="M120.23 115.99h133.3c8.76 0 15.87 7.1 15.87 15.87v133.3c0 8.75-7.1 15.86-15.87 15.86h-133.3c-8.76 0-15.87-7.1-15.87-15.87v-133.3c0-8.76 7.11-15.86 15.87-15.86" style="fill-rule:evenodd;clip-rule:evenodd;fill:#cccccb"/><path d="M139.27 125.5h95.21a15.9 15.9 0 0 1 15.87 15.88v95.2c0 8.77-7.1 15.88-15.86 15.88h-95.22c-8.76 0-15.86-7.1-15.86-15.87v-95.21c0-8.77 7.1-15.87 15.87-15.87" style="fill-rule:evenodd;clip-rule:evenodd;fill:#fdfefe"/><path d="M139.27 125.5h95.21a15.9 15.9 0 0 1 15.87 15.88v95.2c0 8.77-7.1 15.88-15.86 15.88h-95.22c-8.76 0-15.86-7.1-15.86-15.87v-95.21c0-8.77 7.1-15.87 15.87-15.87" style="fill-rule:evenodd;clip-rule:evenodd;fill:#fdfefe"/><path d="M291.61 115.99h133.3c8.76 0 15.87 7.1 15.87 15.87v133.3c0 8.75-7.1 15.86-15.87 15.86H291.6c-8.76 0-15.87-7.1-15.87-15.87v-133.3c0-8.76 7.11-15.86 15.87-15.86" style="fill-rule:evenodd;clip-rule:evenodd;fill:#cccccb"/><path d="M291.61 115.99h133.3c8.76 0 15.87 7.1 15.87 15.87v133.3c0 8.75-7.1 15.86-15.87 15.86H291.6c-8.76 0-15.87-7.1-15.87-15.87v-133.3c0-8.76 7.11-15.86 15.87-15.86" style="fill-rule:evenodd;clip-rule:evenodd;fill:#cccccb"/><path d="M310.65 125.5h95.21a15.9 15.9 0 0 1 15.88 15.88v95.2c0 8.77-7.11 15.88-15.87 15.88h-95.22c-8.76 0-15.86-7.1-15.86-15.87v-95.21c0-8.77 7.1-15.87 15.87-15.87" style="fill-rule:evenodd;clip-rule:evenodd;fill:#fdfefe"/><path d="M310.65 125.5h95.21a15.9 15.9 0 0 1 15.88 15.88v95.2c0 8.77-7.11 15.88-15.87 15.88h-95.22c-8.76 0-15.86-7.1-15.86-15.87v-95.21c0-8.77 7.1-15.87 15.87-15.87" style="fill-rule:evenodd;clip-rule:evenodd;fill:#fdfefe"/><path d="M463 115.99h133.29c8.76 0 15.87 7.1 15.87 15.87v133.3c0 8.75-7.1 15.86-15.87 15.86h-133.3c-8.76 0-15.86-7.1-15.86-15.87v-133.3c0-8.76 7.1-15.86 15.86-15.86" style="fill-rule:evenodd;clip-rule:evenodd;fill:#cccccb"/><path d="M463 115.99h133.29c8.76 0 15.87 7.1 15.87 15.87v133.3c0 8.75-7.1 15.86-15.87 15.86h-133.3c-8.76 0-15.86-7.1-15.86-15.87v-133.3c0-8.76 7.1-15.86 15.86-15.86" style="fill-rule:evenodd;clip-rule:evenodd;fill:#cccccb"/><path d="M482.03 125.5h95.21a15.9 15.9 0 0 1 15.88 15.88v95.2c0 8.77-7.11 15.88-15.87 15.88h-95.22c-8.76 0-15.86-7.1-15.86-15.87v-95.21c0-8.77 7.1-15.87 15.87-15.87" style="fill-rule:evenodd;clip-rule:evenodd;fill:#fdfefe"/><path d="M482.03 125.5h95.21a15.9 15.9 0 0 1 15.88 15.88v95.2c0 8.77-7.11 15.88-15.87 15.88h-95.22c-8.76 0-15.86-7.1-15.86-15.87v-95.21c0-8.77 7.1-15.87 15.87-15.87" style="fill-rule:evenodd;clip-rule:evenodd;fill:#fdfefe"/><path d="M634.37 115.99h133.3c8.76 0 15.87 7.1 15.87 15.87v133.3c0 8.75-7.1 15.86-15.87 15.86h-133.3c-8.76 0-15.87-7.1-15.87-15.87v-133.3c0-8.76 7.11-15.86 15.87-15.86" style="fill-rule:evenodd;clip-rule:evenodd;fill:#cccccb"/><path d="M634.37 115.99h133.3c8.76 0 15.87 7.1 15.87 15.87v133.3c0 8.75-7.1 15.86-15.87 15.86h-133.3c-8.76 0-15.87-7.1-15.87-15.87v-133.3c0-8.76 7.11-15.86 15.87-15.86" style="fill-rule:evenodd;clip-rule:evenodd;fill:#cccccb"/><path d="M653.41 125.5h95.21a15.9 15.9 0 0 1 15.88 15.88v95.2c0 8.77-7.11 15.88-15.87 15.88H653.4c-8.76 0-15.86-7.1-15.86-15.87v-95.21c0-8.77 7.1-15.87 15.87-15.87" style="fill-rule:evenodd;clip-rule:evenodd;fill:#fdfefe"/><path d="M653.41 125.5h95.21a15.9 15.9 0 0 1 15.88 15.88v95.2c0 8.77-7.11 15.88-15.87 15.88H653.4c-8.76 0-15.86-7.1-15.86-15.87v-95.21c0-8.77 7.1-15.87 15.87-15.87" style="fill-rule:evenodd;clip-rule:evenodd;fill:#fdfefe"/><path d="M805.75 115.99h133.3c8.76 0 15.87 7.1 15.87 15.87v133.3c0 8.75-7.11 15.86-15.87 15.86h-133.3c-8.76 0-15.87-7.1-15.87-15.87v-133.3c0-8.76 7.11-15.86 15.87-15.86" style="fill-rule:evenodd;clip-rule:evenodd;fill:#cccccb"/><path d="M805.75 115.99h133.3c8.76 0 15.87 7.1 15.87 15.87v133.3c0 8.75-7.11 15.86-15.87 15.86h-133.3c-8.76 0-15.87-7.1-15.87-15.87v-133.3c0-8.76 7.11-15.86 15.87-15.86" style="fill-rule:evenodd;clip-rule:evenodd;fill:#cccccb"/><path d="M824.8 125.5H920a15.9 15.9 0 0 1 15.87 15.88v95.2c0 8.77-7.1 15.88-15.87 15.88h-95.2c-8.77 0-15.87-7.1-15.87-15.87v-95.21c0-8.77 7.1-15.87 15.87-15.87" style="fill-rule:evenodd;clip-rule:evenodd;fill:#fdfefe"/><path d="M824.8 125.5H920a15.9 15.9 0 0 1 15.87 15.88v95.2c0 8.77-7.1 15.88-15.87 15.88h-95.2c-8.77 0-15.87-7.1-15.87-15.87v-95.21c0-8.77 7.1-15.87 15.87-15.87" style="fill-rule:evenodd;clip-rule:evenodd;fill:#fdfefe"/><path d="M977.13 115.99h133.3c8.76 0 15.86 7.1 15.86 15.87v133.3c0 8.75-7.1 15.86-15.87 15.86H977.14c-8.76 0-15.87-7.1-15.87-15.87v-133.3c0-8.76 7.1-15.86 15.87-15.86" style="fill-rule:evenodd;clip-rule:evenodd;fill:#cccccb"/><path d="M977.13 115.99h133.3c8.76 0 15.86 7.1 15.86 15.87v133.3c0 8.75-7.1 15.86-15.87 15.86H977.14c-8.76 0-15.87-7.1-15.87-15.87v-133.3c0-8.76 7.1-15.86 15.87-15.86" style="fill-rule:evenodd;clip-rule:evenodd;fill:#cccccb"/><path d="M996.17 125.5h95.21a15.9 15.9 0 0 1 15.87 15.88v95.2c0 8.77-7.1 15.88-15.87 15.88h-95.2c-8.77 0-15.88-7.1-15.88-15.87v-95.21c0-8.76 7.11-15.87 15.87-15.87" style="fill-rule:evenodd;clip-rule:evenodd;fill:#fdfefe"/><path d="M996.17 125.5h95.21a15.9 15.9 0 0 1 15.87 15.88v95.2c0 8.77-7.1 15.88-15.87 15.88h-95.2c-8.77 0-15.88-7.1-15.88-15.87v-95.21c0-8.76 7.11-15.87 15.87-15.87" style="fill-rule:evenodd;clip-rule:evenodd;fill:#fdfefe"/><path d="M1148.5 115.99h133.3c8.77 0 15.87 7.1 15.87 15.87v133.3c0 8.75-7.1 15.86-15.87 15.86h-133.3c-8.75 0-15.86-7.1-15.86-15.87v-133.3c0-8.76 7.1-15.86 15.87-15.86" style="fill-rule:evenodd;clip-rule:evenodd;fill:#cccccb"/><path d="M1148.5 115.99h133.3c8.77 0 15.87 7.1 15.87 15.87v133.3c0 8.75-7.1 15.86-15.87 15.86h-133.3c-8.75 0-15.86-7.1-15.86-15.87v-133.3c0-8.76 7.1-15.86 15.87-15.86" style="fill-rule:evenodd;clip-rule:evenodd;fill:#cccccb"/><path d="M1167.55 125.5h95.21a15.9 15.9 0 0 1 15.87 15.88v95.2c0 8.77-7.1 15.88-15.87 15.88h-95.2c-8.77 0-15.88-7.1-15.88-15.87v-95.21c0-8.76 7.1-15.87 15.87-15.87" style="fill-rule:evenodd;clip-rule:evenodd;fill:#fdfefe"/><path d="M1167.55 125.5h95.21a15.9 15.9 0 0 1 15.87 15.88v95.2c0 8.77-7.1 15.88-15.87 15.88h-95.2c-8.77 0-15.88-7.1-15.88-15.87v-95.21c0-8.76 7.1-15.87 15.87-15.87" style="fill-rule:evenodd;clip-rule:evenodd;fill:#fdfefe"/><path d="M1319.89 115.99h133.3c8.76 0 15.86 7.1 15.86 15.87v133.3c0 8.75-7.1 15.86-15.87 15.86h-133.3c-8.75 0-15.86-7.1-15.86-15.87v-133.3c0-8.76 7.1-15.86 15.87-15.86" style="fill-rule:evenodd;clip-rule:evenodd;fill:#cccccb"/><path d="M1319.89 115.99h133.3c8.76 0 15.86 7.1 15.86 15.87v133.3c0 8.75-7.1 15.86-15.87 15.86h-133.3c-8.75 0-15.86-7.1-15.86-15.87v-133.3c0-8.76 7.1-15.86 15.87-15.86" style="fill-rule:evenodd;clip-rule:evenodd;fill:#cccccb"/><path d="M1338.93 125.5h95.21a15.9 15.9 0 0 1 15.87 15.88v95.2c0 8.77-7.1 15.88-15.87 15.88h-95.2c-8.77 0-15.88-7.1-15.88-15.87v-95.21c0-8.76 7.1-15.87 15.87-15.87" style="fill-rule:evenodd;clip-rule:evenodd;fill:#fdfefe"/><path d="M1338.93 125.5h95.21a15.9 15.9 0 0 1 15.87 15.88v95.2c0 8.77-7.1 15.88-15.87 15.88h-95.2c-8.77 0-15.88-7.1-15.88-15.87v-95.21c0-8.76 7.1-15.87 15.87-15.87" style="fill-rule:evenodd;clip-rule:evenodd;fill:#fdfefe"/><path d="M1491.27 115.99h133.3c8.76 0 15.86 7.1 15.86 15.87v133.3c0 8.75-7.1 15.86-15.87 15.86h-133.3c-8.75 0-15.86-7.1-15.86-15.87v-133.3c0-8.76 7.1-15.86 15.87-15.86" style="fill-rule:evenodd;clip-rule:evenodd;fill:#cccccb"/><path d="M1491.27 115.99h133.3c8.76 0 15.86 7.1 15.86 15.87v133.3c0 8.75-7.1 15.86-15.87 15.86h-133.3c-8.75 0-15.86-7.1-15.86-15.87v-133.3c0-8.76 7.1-15.86 15.87-15.86" style="fill-rule:evenodd;clip-rule:evenodd;fill:#cccccb"/><path d="M1510.31 125.5h95.21a15.9 15.9 0 0 1 15.87 15.88v95.2c0 8.77-7.1 15.88-15.87 15.88h-95.2c-8.77 0-15.88-7.1-15.88-15.87v-95.21c0-8.76 7.1-15.87 15.87-15.87" style="fill-rule:evenodd;clip-rule:evenodd;fill:#fdfefe"/><path d="M1510.31 125.5h95.21a15.9 15.9 0 0 1 15.87 15.88v95.2c0 8.77-7.1 15.88-15.87 15.88h-95.2c-8.77 0-15.88-7.1-15.88-15.87v-95.21c0-8.76 7.1-15.87 15.87-15.87" style="fill-rule:evenodd;clip-rule:evenodd;fill:#fdfefe"/><path d="M1662.65 115.99h133.3c8.76 0 15.86 7.1 15.86 15.87v133.3c0 8.75-7.1 15.86-15.87 15.86h-133.3c-8.75 0-15.86-7.1-15.86-15.87v-133.3c0-8.76 7.1-15.86 15.87-15.86" style="fill-rule:evenodd;clip-rule:evenodd;fill:#cccccb"/><path d="M1662.65 115.99h133.3c8.76 0 15.86 7.1 15.86 15.87v133.3c0 8.75-7.1 15.86-15.87 15.86h-133.3c-8.75 0-15.86-7.1-15.86-15.87v-133.3c0-8.76 7.1-15.86 15.87-15.86" style="fill-rule:evenodd;clip-rule:evenodd;fill:#cccccb"/><path d="M1681.7 125.5h95.2a15.9 15.9 0 0 1 15.87 15.88v95.2c0 8.77-7.1 15.88-15.87 15.88h-95.2c-8.77 0-15.88-7.1-15.88-15.87v-95.21c0-8.76 7.1-15.87 15.87-15.87" style="fill-rule:evenodd;clip-rule:evenodd;fill:#fdfefe"/><path d="M1681.7 125.5h95.2a15.9 15.9 0 0 1 15.87 15.88v95.2c0 8.77-7.1 15.88-15.87 15.88h-95.2c-8.77 0-15.88-7.1-15.88-15.87v-95.21c0-8.76 7.1-15.87 15.87-15.87" style="fill-rule:evenodd;clip-rule:evenodd;fill:#fdfefe"/><path d="M1834.03 115.99h304.67c8.77 0 15.87 7.1 15.87 15.87v133.3c0 8.75-7.1 15.86-15.87 15.86h-304.67c-8.76 0-15.87-7.1-15.87-15.87v-133.3c0-8.76 7.1-15.86 15.87-15.86" style="fill-rule:evenodd;clip-rule:evenodd;fill:#99938e"/><path d="M1834.03 115.99h304.67c8.77 0 15.87 7.1 15.87 15.87v133.3c0 8.75-7.1 15.86-15.87 15.86h-304.67c-8.76 0-15.87-7.1-15.87-15.87v-133.3c0-8.76 7.1-15.86 15.87-15.86" style="fill-rule:evenodd;clip-rule:evenodd;fill:#99938e"/><path d="M1853.07 125.5h266.6a15.9 15.9 0 0 1 15.86 15.88v95.2c0 8.77-7.1 15.88-15.87 15.88h-266.59c-8.76 0-15.87-7.1-15.87-15.87v-95.21c0-8.76 7.1-15.87 15.87-15.87" style="fill-rule:evenodd;clip-rule:evenodd;fill:#bbb5b0"/><path d="M1853.07 125.5h266.6a15.9 15.9 0 0 1 15.86 15.88v95.2c0 8.77-7.1 15.88-15.87 15.88h-266.59c-8.76 0-15.87-7.1-15.87-15.87v-95.21c0-8.76 7.1-15.87 15.87-15.87" style="fill-rule:evenodd;clip-rule:evenodd;fill:#bbb5b0"/><path d="M2176.79 115.99h133.3c8.75 0 15.86 7.1 15.86 15.87v133.3c0 8.75-7.1 15.86-15.87 15.86h-133.3c-8.76 0-15.86-7.1-15.86-15.87v-133.3c0-8.76 7.1-15.86 15.87-15.86" style="fill-rule:evenodd;clip-rule:evenodd;fill:#99938e"/><path d="M2176.79 115.99h133.3c8.75 0 15.86 7.1 15.86 15.87v133.3c0 8.75-7.1 15.86-15.87 15.86h-133.3c-8.76 0-15.86-7.1-15.86-15.87v-133.3c0-8.76 7.1-15.86 15.87-15.86" style="fill-rule:evenodd;clip-rule:evenodd;fill:#99938e"/><path d="M2195.83 125.5h95.21a15.9 15.9 0 0 1 15.87 15.88v95.2c0 8.77-7.1 15.88-15.87 15.88h-95.21c-8.76 0-15.87-7.1-15.87-15.87v-95.21c0-8.76 7.1-15.87 15.87-15.87" style="fill-rule:evenodd;clip-rule:evenodd;fill:#bbb5b0"/><path d="M2195.83 125.5h95.21a15.9 15.9 0 0 1 15.87 15.88v95.2c0 8.77-7.1 15.88-15.87 15.88h-95.21c-8.76 0-15.87-7.1-15.87-15.87v-95.21c0-8.76 7.1-15.87 15.87-15.87" style="fill-rule:evenodd;clip-rule:evenodd;fill:#bbb5b0"/><path d="M-393.9 287.37h218.98c8.76 0 15.87 7.1 15.87 15.87v133.3c0 8.75-7.1 15.86-15.87 15.86h-218.99c-8.76 0-15.86-7.1-15.86-15.87v-133.3c0-8.76 7.1-15.86 15.86-15.86" style="fill-rule:evenodd;clip-rule:evenodd;fill:#99938e"/><path d="M-393.9 287.37h218.98c8.76 0 15.87 7.1 15.87 15.87v133.3c0 8.75-7.1 15.86-15.87 15.86h-218.99c-8.76 0-15.86-7.1-15.86-15.87v-133.3c0-8.76 7.1-15.86 15.86-15.86" style="fill-rule:evenodd;clip-rule:evenodd;fill:#99938e"/><path d="M-374.87 296.89h180.9c8.77 0 15.88 7.1 15.88 15.87v95.2c0 8.77-7.11 15.88-15.87 15.88h-180.9c-8.77 0-15.87-7.1-15.87-15.87v-95.21c0-8.76 7.1-15.87 15.87-15.87" style="fill-rule:evenodd;clip-rule:evenodd;fill:#bbb5b0"/><path d="M-374.87 296.89h180.9c8.77 0 15.88 7.1 15.88 15.87v95.2c0 8.77-7.11 15.88-15.87 15.88h-180.9c-8.77 0-15.87-7.1-15.87-15.87v-95.21c0-8.76 7.1-15.87 15.87-15.87" style="fill-rule:evenodd;clip-rule:evenodd;fill:#bbb5b0"/><path d="M-136.84 287.37h133.3c8.76 0 15.87 7.1 15.87 15.87v133.3c0 8.75-7.1 15.86-15.87 15.86h-133.3c-8.76 0-15.86-7.1-15.86-15.87v-133.3c0-8.76 7.1-15.86 15.87-15.86" style="fill-rule:evenodd;clip-rule:evenodd;fill:#cccccb"/><path d="M-136.84 287.37h133.3c8.76 0 15.87 7.1 15.87 15.87v133.3c0 8.75-7.1 15.86-15.87 15.86h-133.3c-8.76 0-15.86-7.1-15.86-15.87v-133.3c0-8.76 7.1-15.86 15.87-15.86" style="fill-rule:evenodd;clip-rule:evenodd;fill:#cccccb"/><path d="M-117.8 296.89h95.21c8.77 0 15.87 7.1 15.87 15.87v95.2c0 8.77-7.1 15.88-15.86 15.88h-95.22c-8.76 0-15.86-7.1-15.86-15.87v-95.21c0-8.76 7.1-15.87 15.87-15.87" style="fill-rule:evenodd;clip-rule:evenodd;fill:#fdfefe"/><path d="M-117.8 296.89h95.21c8.77 0 15.87 7.1 15.87 15.87v95.2c0 8.77-7.1 15.88-15.86 15.88h-95.22c-8.76 0-15.86-7.1-15.86-15.87v-95.21c0-8.76 7.1-15.87 15.87-15.87" style="fill-rule:evenodd;clip-rule:evenodd;fill:#fdfefe"/><path d="M34.54 287.37h133.3c8.76 0 15.87 7.1 15.87 15.87v133.3c0 8.75-7.1 15.86-15.87 15.86H34.54c-8.76 0-15.87-7.1-15.87-15.87v-133.3c0-8.76 7.11-15.86 15.87-15.86" style="fill-rule:evenodd;clip-rule:evenodd;fill:#cccccb"/><path d="M34.54 287.37h133.3c8.76 0 15.87 7.1 15.87 15.87v133.3c0 8.75-7.1 15.86-15.87 15.86H34.54c-8.76 0-15.87-7.1-15.87-15.87v-133.3c0-8.76 7.11-15.86 15.87-15.86" style="fill-rule:evenodd;clip-rule:evenodd;fill:#cccccb"/><path d="M53.58 296.89h95.21c8.77 0 15.87 7.1 15.87 15.87v95.2c0 8.77-7.1 15.88-15.86 15.88H53.58c-8.76 0-15.86-7.1-15.86-15.87v-95.21c0-8.76 7.1-15.87 15.86-15.87" style="fill-rule:evenodd;clip-rule:evenodd;fill:#fdfefe"/><path d="M53.58 296.89h95.21c8.77 0 15.87 7.1 15.87 15.87v95.2c0 8.77-7.1 15.88-15.86 15.88H53.58c-8.76 0-15.86-7.1-15.86-15.87v-95.21c0-8.76 7.1-15.87 15.86-15.87" style="fill-rule:evenodd;clip-rule:evenodd;fill:#fdfefe"/><path d="M205.92 287.37h133.3c8.76 0 15.87 7.1 15.87 15.87v133.3c0 8.75-7.11 15.86-15.87 15.86h-133.3c-8.76 0-15.86-7.1-15.86-15.87v-133.3c0-8.76 7.1-15.86 15.86-15.86" style="fill-rule:evenodd;clip-rule:evenodd;fill:#cccccb"/><path d="M205.92 287.37h133.3c8.76 0 15.87 7.1 15.87 15.87v133.3c0 8.75-7.11 15.86-15.87 15.86h-133.3c-8.76 0-15.86-7.1-15.86-15.87v-133.3c0-8.76 7.1-15.86 15.86-15.86" style="fill-rule:evenodd;clip-rule:evenodd;fill:#cccccb"/><path d="M224.96 296.89h95.21c8.77 0 15.87 7.1 15.87 15.87v95.2c0 8.77-7.1 15.88-15.86 15.88h-95.22c-8.76 0-15.86-7.1-15.86-15.87v-95.21c0-8.76 7.1-15.87 15.87-15.87" style="fill-rule:evenodd;clip-rule:evenodd;fill:#fdfefe"/><path d="M224.96 296.89h95.21c8.77 0 15.87 7.1 15.87 15.87v95.2c0 8.77-7.1 15.88-15.86 15.88h-95.22c-8.76 0-15.86-7.1-15.86-15.87v-95.21c0-8.76 7.1-15.87 15.87-15.87" style="fill-rule:evenodd;clip-rule:evenodd;fill:#fdfefe"/><path d="M377.3 287.37h133.3c8.76 0 15.87 7.1 15.87 15.87v133.3c0 8.75-7.1 15.86-15.87 15.86H377.3c-8.76 0-15.86-7.1-15.86-15.87v-133.3c0-8.76 7.1-15.86 15.86-15.86" style="fill-rule:evenodd;clip-rule:evenodd;fill:#cccccb"/><path d="M377.3 287.37h133.3c8.76 0 15.87 7.1 15.87 15.87v133.3c0 8.75-7.1 15.86-15.87 15.86H377.3c-8.76 0-15.86-7.1-15.86-15.87v-133.3c0-8.76 7.1-15.86 15.86-15.86" style="fill-rule:evenodd;clip-rule:evenodd;fill:#cccccb"/><path d="M396.34 296.89h95.22c8.76 0 15.86 7.1 15.86 15.87v95.2c0 8.77-7.1 15.88-15.86 15.88h-95.22c-8.76 0-15.86-7.1-15.86-15.87v-95.21c0-8.76 7.1-15.87 15.87-15.87" style="fill-rule:evenodd;clip-rule:evenodd;fill:#fdfefe"/><path d="M396.34 296.89h95.22c8.76 0 15.86 7.1 15.86 15.87v95.2c0 8.77-7.1 15.88-15.86 15.88h-95.22c-8.76 0-15.86-7.1-15.86-15.87v-95.21c0-8.76 7.1-15.87 15.87-15.87" style="fill-rule:evenodd;clip-rule:evenodd;fill:#fdfefe"/><path d="M548.68 287.37h133.3c8.76 0 15.87 7.1 15.87 15.87v133.3c0 8.75-7.11 15.86-15.87 15.86h-133.3c-8.76 0-15.87-7.1-15.87-15.87v-133.3c0-8.76 7.11-15.86 15.87-15.86" style="fill-rule:evenodd;clip-rule:evenodd;fill:#cccccb"/><path d="M548.68 287.37h133.3c8.76 0 15.87 7.1 15.87 15.87v133.3c0 8.75-7.11 15.86-15.87 15.86h-133.3c-8.76 0-15.87-7.1-15.87-15.87v-133.3c0-8.76 7.11-15.86 15.87-15.86" style="fill-rule:evenodd;clip-rule:evenodd;fill:#cccccb"/><path d="M567.72 296.89h95.21c8.77 0 15.87 7.1 15.87 15.87v95.2c0 8.77-7.1 15.88-15.86 15.88h-95.22c-8.76 0-15.86-7.1-15.86-15.87v-95.21c0-8.76 7.1-15.87 15.87-15.87" style="fill-rule:evenodd;clip-rule:evenodd;fill:#fdfefe"/><path d="M567.72 296.89h95.21c8.77 0 15.87 7.1 15.87 15.87v95.2c0 8.77-7.1 15.88-15.86 15.88h-95.22c-8.76 0-15.86-7.1-15.86-15.87v-95.21c0-8.76 7.1-15.87 15.87-15.87" style="fill-rule:evenodd;clip-rule:evenodd;fill:#fdfefe"/><path d="M720.06 287.37h133.3c8.76 0 15.87 7.1 15.87 15.87v133.3c0 8.75-7.11 15.86-15.87 15.86h-133.3c-8.76 0-15.87-7.1-15.87-15.87v-133.3c0-8.76 7.11-15.86 15.87-15.86" style="fill-rule:evenodd;clip-rule:evenodd;fill:#cccccb"/><path d="M720.06 287.37h133.3c8.76 0 15.87 7.1 15.87 15.87v133.3c0 8.75-7.11 15.86-15.87 15.86h-133.3c-8.76 0-15.87-7.1-15.87-15.87v-133.3c0-8.76 7.11-15.86 15.87-15.86" style="fill-rule:evenodd;clip-rule:evenodd;fill:#cccccb"/><path d="M739.1 296.89h95.21c8.77 0 15.87 7.1 15.87 15.87v95.2c0 8.77-7.1 15.88-15.86 15.88H739.1c-8.76 0-15.86-7.1-15.86-15.87v-95.21c0-8.76 7.1-15.87 15.86-15.87" style="fill-rule:evenodd;clip-rule:evenodd;fill:#fdfefe"/><path d="M739.1 296.89h95.21c8.77 0 15.87 7.1 15.87 15.87v95.2c0 8.77-7.1 15.88-15.86 15.88H739.1c-8.76 0-15.86-7.1-15.86-15.87v-95.21c0-8.76 7.1-15.87 15.86-15.87" style="fill-rule:evenodd;clip-rule:evenodd;fill:#fdfefe"/><path d="M891.44 287.37h133.3c8.76 0 15.86 7.1 15.86 15.87v133.3c0 8.75-7.1 15.86-15.87 15.86H891.44c-8.76 0-15.87-7.1-15.87-15.87v-133.3c0-8.76 7.1-15.86 15.87-15.86" style="fill-rule:evenodd;clip-rule:evenodd;fill:#cccccb"/><path d="M891.44 287.37h133.3c8.76 0 15.86 7.1 15.86 15.87v133.3c0 8.75-7.1 15.86-15.87 15.86H891.44c-8.76 0-15.87-7.1-15.87-15.87v-133.3c0-8.76 7.1-15.86 15.87-15.86" style="fill-rule:evenodd;clip-rule:evenodd;fill:#cccccb"/><path d="M910.48 296.89h95.21c8.76 0 15.87 7.1 15.87 15.87v95.2c0 8.77-7.1 15.88-15.87 15.88h-95.2c-8.77 0-15.87-7.1-15.87-15.87v-95.21c0-8.76 7.1-15.87 15.86-15.87" style="fill-rule:evenodd;clip-rule:evenodd;fill:#fdfefe"/><path d="M910.48 296.89h95.21c8.76 0 15.87 7.1 15.87 15.87v95.2c0 8.77-7.1 15.88-15.87 15.88h-95.2c-8.77 0-15.87-7.1-15.87-15.87v-95.21c0-8.76 7.1-15.87 15.86-15.87" style="fill-rule:evenodd;clip-rule:evenodd;fill:#fdfefe"/><path d="M1062.82 287.37h133.3c8.76 0 15.86 7.1 15.86 15.87v133.3c0 8.75-7.1 15.86-15.87 15.86h-133.29c-8.76 0-15.87-7.1-15.87-15.87v-133.3c0-8.76 7.1-15.86 15.87-15.86" style="fill-rule:evenodd;clip-rule:evenodd;fill:#cccccb"/><path d="M1062.82 287.37h133.3c8.76 0 15.86 7.1 15.86 15.87v133.3c0 8.75-7.1 15.86-15.87 15.86h-133.29c-8.76 0-15.87-7.1-15.87-15.87v-133.3c0-8.76 7.1-15.86 15.87-15.86" style="fill-rule:evenodd;clip-rule:evenodd;fill:#cccccb"/><path d="M1081.86 296.89h95.21c8.76 0 15.87 7.1 15.87 15.87v95.2c0 8.77-7.1 15.88-15.87 15.88h-95.2c-8.77 0-15.88-7.1-15.88-15.87v-95.21c0-8.76 7.1-15.87 15.87-15.87" style="fill-rule:evenodd;clip-rule:evenodd;fill:#fdfefe"/><path d="M1081.86 296.89h95.21c8.76 0 15.87 7.1 15.87 15.87v95.2c0 8.77-7.1 15.88-15.87 15.88h-95.2c-8.77 0-15.88-7.1-15.88-15.87v-95.21c0-8.76 7.1-15.87 15.87-15.87" style="fill-rule:evenodd;clip-rule:evenodd;fill:#fdfefe"/><path d="M1234.2 287.37h133.3c8.76 0 15.86 7.1 15.86 15.87v133.3c0 8.75-7.1 15.86-15.86 15.86h-133.3c-8.76 0-15.87-7.1-15.87-15.87v-133.3c0-8.76 7.1-15.86 15.87-15.86" style="fill-rule:evenodd;clip-rule:evenodd;fill:#cccccb"/><path d="M1234.2 287.37h133.3c8.76 0 15.86 7.1 15.86 15.87v133.3c0 8.75-7.1 15.86-15.86 15.86h-133.3c-8.76 0-15.87-7.1-15.87-15.87v-133.3c0-8.76 7.1-15.86 15.87-15.86" style="fill-rule:evenodd;clip-rule:evenodd;fill:#cccccb"/><path d="M1253.24 296.89h95.21c8.76 0 15.87 7.1 15.87 15.87v95.2c0 8.77-7.1 15.88-15.87 15.88h-95.2c-8.77 0-15.88-7.1-15.88-15.87v-95.21c0-8.76 7.1-15.87 15.87-15.87" style="fill-rule:evenodd;clip-rule:evenodd;fill:#fdfefe"/><path d="M1253.24 296.89h95.21c8.76 0 15.87 7.1 15.87 15.87v95.2c0 8.77-7.1 15.88-15.87 15.88h-95.2c-8.77 0-15.88-7.1-15.88-15.87v-95.21c0-8.76 7.1-15.87 15.87-15.87" style="fill-rule:evenodd;clip-rule:evenodd;fill:#fdfefe"/><path d="M1405.58 287.37h133.3c8.76 0 15.86 7.1 15.86 15.87v133.3c0 8.75-7.1 15.86-15.87 15.86h-133.29c-8.76 0-15.87-7.1-15.87-15.87v-133.3c0-8.76 7.1-15.86 15.87-15.86" style="fill-rule:evenodd;clip-rule:evenodd;fill:#cccccb"/><path d="M1405.58 287.37h133.3c8.76 0 15.86 7.1 15.86 15.87v133.3c0 8.75-7.1 15.86-15.87 15.86h-133.29c-8.76 0-15.87-7.1-15.87-15.87v-133.3c0-8.76 7.1-15.86 15.87-15.86" style="fill-rule:evenodd;clip-rule:evenodd;fill:#cccccb"/><path d="M1424.62 296.89h95.21c8.76 0 15.87 7.1 15.87 15.87v95.2c0 8.77-7.1 15.88-15.87 15.88h-95.2c-8.77 0-15.88-7.1-15.88-15.87v-95.21c0-8.76 7.1-15.87 15.87-15.87" style="fill-rule:evenodd;clip-rule:evenodd;fill:#fdfefe"/><path d="M1424.62 296.89h95.21c8.76 0 15.87 7.1 15.87 15.87v95.2c0 8.77-7.1 15.88-15.87 15.88h-95.2c-8.77 0-15.88-7.1-15.88-15.87v-95.21c0-8.76 7.1-15.87 15.87-15.87" style="fill-rule:evenodd;clip-rule:evenodd;fill:#fdfefe"/><path d="M1576.96 287.37h133.3c8.76 0 15.86 7.1 15.86 15.87v133.3c0 8.75-7.1 15.86-15.87 15.86h-133.3c-8.75 0-15.86-7.1-15.86-15.87v-133.3c0-8.76 7.1-15.86 15.87-15.86" style="fill-rule:evenodd;clip-rule:evenodd;fill:#cccccb"/><path d="M1576.96 287.37h133.3c8.76 0 15.86 7.1 15.86 15.87v133.3c0 8.75-7.1 15.86-15.87 15.86h-133.3c-8.75 0-15.86-7.1-15.86-15.87v-133.3c0-8.76 7.1-15.86 15.87-15.86" style="fill-rule:evenodd;clip-rule:evenodd;fill:#cccccb"/><path d="M1596 296.89h95.21c8.76 0 15.87 7.1 15.87 15.87v95.2c0 8.77-7.1 15.88-15.87 15.88h-95.2c-8.77 0-15.88-7.1-15.88-15.87v-95.21c0-8.76 7.1-15.87 15.87-15.87" style="fill-rule:evenodd;clip-rule:evenodd;fill:#fdfefe"/><path d="M1596 296.89h95.21c8.76 0 15.87 7.1 15.87 15.87v95.2c0 8.77-7.1 15.88-15.87 15.88h-95.2c-8.77 0-15.88-7.1-15.88-15.87v-95.21c0-8.76 7.1-15.87 15.87-15.87" style="fill-rule:evenodd;clip-rule:evenodd;fill:#fdfefe"/><path d="M1748.34 287.37h133.3c8.76 0 15.86 7.1 15.86 15.87v133.3c0 8.75-7.1 15.86-15.87 15.86h-133.3c-8.76 0-15.86-7.1-15.86-15.87v-133.3c0-8.76 7.1-15.86 15.87-15.86" style="fill-rule:evenodd;clip-rule:evenodd;fill:#cccccb"/><path d="M1748.34 287.37h133.3c8.76 0 15.86 7.1 15.86 15.87v133.3c0 8.75-7.1 15.86-15.87 15.86h-133.3c-8.76 0-15.86-7.1-15.86-15.87v-133.3c0-8.76 7.1-15.86 15.87-15.86" style="fill-rule:evenodd;clip-rule:evenodd;fill:#cccccb"/><path d="M1767.38 296.89h95.21c8.76 0 15.87 7.1 15.87 15.87v95.2c0 8.77-7.1 15.88-15.87 15.88h-95.2c-8.77 0-15.88-7.1-15.88-15.87v-95.21c0-8.76 7.1-15.87 15.87-15.87" style="fill-rule:evenodd;clip-rule:evenodd;fill:#fdfefe"/><path d="M1767.38 296.89h95.21c8.76 0 15.87 7.1 15.87 15.87v95.2c0 8.77-7.1 15.88-15.87 15.88h-95.2c-8.77 0-15.88-7.1-15.88-15.87v-95.21c0-8.76 7.1-15.87 15.87-15.87" style="fill-rule:evenodd;clip-rule:evenodd;fill:#fdfefe"/><path d="M1919.72 287.37h218.98c8.77 0 15.87 7.1 15.87 15.87v133.3c0 8.75-7.1 15.86-15.87 15.86h-218.98c-8.76 0-15.87-7.1-15.87-15.87v-133.3c0-8.76 7.1-15.86 15.87-15.86" style="fill-rule:evenodd;clip-rule:evenodd;fill:#cccccb"/><path d="M1919.72 287.37h218.98c8.77 0 15.87 7.1 15.87 15.87v133.3c0 8.75-7.1 15.86-15.87 15.86h-218.98c-8.76 0-15.87-7.1-15.87-15.87v-133.3c0-8.76 7.1-15.86 15.87-15.86" style="fill-rule:evenodd;clip-rule:evenodd;fill:#cccccb"/><path d="M1938.76 296.89h180.9c8.76 0 15.87 7.1 15.87 15.87v95.2c0 8.77-7.1 15.88-15.87 15.88h-180.9c-8.76 0-15.87-7.1-15.87-15.87v-95.21c0-8.76 7.1-15.87 15.87-15.87" style="fill-rule:evenodd;clip-rule:evenodd;fill:#fdfefe"/><path d="M1938.76 296.89h180.9c8.76 0 15.87 7.1 15.87 15.87v95.2c0 8.77-7.1 15.88-15.87 15.88h-180.9c-8.76 0-15.87-7.1-15.87-15.87v-95.21c0-8.76 7.1-15.87 15.87-15.87" style="fill-rule:evenodd;clip-rule:evenodd;fill:#fdfefe"/><path d="M2176.79 287.37h133.3c8.75 0 15.86 7.1 15.86 15.87v133.3c0 8.75-7.1 15.86-15.87 15.86h-133.3c-8.76 0-15.86-7.1-15.86-15.87v-133.3c0-8.76 7.1-15.86 15.87-15.86" style="fill-rule:evenodd;clip-rule:evenodd;fill:#99938e"/><path d="M2176.79 287.37h133.3c8.75 0 15.86 7.1 15.86 15.87v133.3c0 8.75-7.1 15.86-15.87 15.86h-133.3c-8.76 0-15.86-7.1-15.86-15.87v-133.3c0-8.76 7.1-15.86 15.87-15.86" style="fill-rule:evenodd;clip-rule:evenodd;fill:#99938e"/><path d="M2195.83 296.89h95.21c8.76 0 15.87 7.1 15.87 15.87v95.2c0 8.77-7.1 15.88-15.87 15.88h-95.21c-8.76 0-15.87-7.1-15.87-15.87v-95.21c0-8.76 7.1-15.87 15.87-15.87" style="fill-rule:evenodd;clip-rule:evenodd;fill:#bbb5b0"/><path d="M2195.83 296.89h95.21c8.76 0 15.87 7.1 15.87 15.87v95.2c0 8.77-7.1 15.88-15.87 15.88h-95.21c-8.76 0-15.87-7.1-15.87-15.87v-95.21c0-8.76 7.1-15.87 15.87-15.87" style="fill-rule:evenodd;clip-rule:evenodd;fill:#bbb5b0"/><path d="M-393.9 458.75h261.82c8.77 0 15.87 7.1 15.87 15.86v133.3c0 8.76-7.1 15.87-15.87 15.87H-393.9a15.87 15.87 0 0 1-15.86-15.87V474.6c0-8.76 7.1-15.87 15.86-15.87" style="fill-rule:evenodd;clip-rule:evenodd;fill:#99938e"/><path d="M-393.9 458.75h261.82c8.77 0 15.87 7.1 15.87 15.86v133.3c0 8.76-7.1 15.87-15.87 15.87H-393.9a15.87 15.87 0 0 1-15.86-15.87V474.6c0-8.76 7.1-15.87 15.86-15.87" style="fill-rule:evenodd;clip-rule:evenodd;fill:#99938e"/><path d="M-374.87 468.27h223.75c8.77 0 15.87 7.1 15.87 15.87v95.2c0 8.77-7.1 15.87-15.87 15.87h-223.74c-8.76 0-15.87-7.1-15.87-15.86v-95.21c0-8.77 7.1-15.87 15.87-15.87" style="fill-rule:evenodd;clip-rule:evenodd;fill:#bbb5b0"/><path d="M-374.87 468.27h223.75c8.77 0 15.87 7.1 15.87 15.87v95.2c0 8.77-7.1 15.87-15.87 15.87h-223.74c-8.76 0-15.87-7.1-15.87-15.86v-95.21c0-8.77 7.1-15.87 15.87-15.87" style="fill-rule:evenodd;clip-rule:evenodd;fill:#bbb5b0"/><path d="M-94 458.75H39.3c8.77 0 15.87 7.1 15.87 15.86v133.3c0 8.76-7.1 15.87-15.87 15.87H-94a15.87 15.87 0 0 1-15.86-15.87V474.6c0-8.76 7.1-15.87 15.87-15.87" style="fill-rule:evenodd;clip-rule:evenodd;fill:#cccccb"/><path d="M-94 458.75H39.3c8.77 0 15.87 7.1 15.87 15.86v133.3c0 8.76-7.1 15.87-15.87 15.87H-94a15.87 15.87 0 0 1-15.86-15.87V474.6c0-8.76 7.1-15.87 15.87-15.87" style="fill-rule:evenodd;clip-rule:evenodd;fill:#cccccb"/><path d="M-74.95 468.27h95.2c8.77 0 15.88 7.1 15.88 15.87v95.2c0 8.77-7.1 15.87-15.87 15.87h-95.21c-8.76 0-15.87-7.1-15.87-15.86v-95.21c0-8.77 7.1-15.87 15.87-15.87" style="fill-rule:evenodd;clip-rule:evenodd;fill:#fdfefe"/><path d="M-74.95 468.27h95.2c8.77 0 15.88 7.1 15.88 15.87v95.2c0 8.77-7.1 15.87-15.87 15.87h-95.21c-8.76 0-15.87-7.1-15.87-15.86v-95.21c0-8.77 7.1-15.87 15.87-15.87" style="fill-rule:evenodd;clip-rule:evenodd;fill:#fdfefe"/><path d="M77.39 458.75h133.3c8.76 0 15.86 7.1 15.86 15.86v133.3c0 8.76-7.1 15.87-15.87 15.87H77.38c-8.75 0-15.86-7.1-15.86-15.87V474.6c0-8.76 7.1-15.86 15.87-15.86" style="fill-rule:evenodd;clip-rule:evenodd;fill:#cccccb"/><path d="M77.39 458.75h133.3c8.76 0 15.86 7.1 15.86 15.86v133.3c0 8.76-7.1 15.87-15.87 15.87H77.38c-8.75 0-15.86-7.1-15.86-15.87V474.6c0-8.76 7.1-15.86 15.87-15.86" style="fill-rule:evenodd;clip-rule:evenodd;fill:#cccccb"/><path d="M96.43 468.27h95.2c8.77 0 15.88 7.1 15.88 15.87v95.2c0 8.77-7.1 15.87-15.87 15.87H96.43c-8.76 0-15.87-7.1-15.87-15.86v-95.21c0-8.77 7.1-15.87 15.87-15.87" style="fill-rule:evenodd;clip-rule:evenodd;fill:#fdfefe"/><path d="M96.43 468.27h95.2c8.77 0 15.88 7.1 15.88 15.87v95.2c0 8.77-7.1 15.87-15.87 15.87H96.43c-8.76 0-15.87-7.1-15.87-15.86v-95.21c0-8.77 7.1-15.87 15.87-15.87" style="fill-rule:evenodd;clip-rule:evenodd;fill:#fdfefe"/><path d="M248.77 458.75h133.3c8.76 0 15.86 7.1 15.86 15.86v133.3c0 8.76-7.1 15.87-15.87 15.87h-133.3a15.87 15.87 0 0 1-15.86-15.87V474.6c0-8.76 7.1-15.87 15.87-15.87" style="fill-rule:evenodd;clip-rule:evenodd;fill:#cccccb"/><path d="M248.77 458.75h133.3c8.76 0 15.86 7.1 15.86 15.86v133.3c0 8.76-7.1 15.87-15.87 15.87h-133.3a15.87 15.87 0 0 1-15.86-15.87V474.6c0-8.76 7.1-15.87 15.87-15.87" style="fill-rule:evenodd;clip-rule:evenodd;fill:#cccccb"/><path d="M267.8 468.27h95.22c8.76 0 15.87 7.1 15.87 15.87v95.2c0 8.77-7.1 15.87-15.87 15.87h-95.21c-8.76 0-15.87-7.1-15.87-15.86v-95.21c0-8.77 7.11-15.87 15.87-15.87" style="fill-rule:evenodd;clip-rule:evenodd;fill:#fdfefe"/><path d="M267.8 468.27h95.22c8.76 0 15.87 7.1 15.87 15.87v95.2c0 8.77-7.1 15.87-15.87 15.87h-95.21c-8.76 0-15.87-7.1-15.87-15.86v-95.21c0-8.77 7.11-15.87 15.87-15.87" style="fill-rule:evenodd;clip-rule:evenodd;fill:#fdfefe"/><path d="M420.15 458.75h133.3c8.76 0 15.86 7.1 15.86 15.86v133.3c0 8.76-7.1 15.87-15.87 15.87h-133.3a15.87 15.87 0 0 1-15.86-15.87V474.6c0-8.76 7.1-15.87 15.87-15.87" style="fill-rule:evenodd;clip-rule:evenodd;fill:#cccccb"/><path d="M420.15 458.75h133.3c8.76 0 15.86 7.1 15.86 15.86v133.3c0 8.76-7.1 15.87-15.87 15.87h-133.3a15.87 15.87 0 0 1-15.86-15.87V474.6c0-8.76 7.1-15.87 15.87-15.87" style="fill-rule:evenodd;clip-rule:evenodd;fill:#cccccb"/><path d="M439.19 468.27h95.2c8.77 0 15.88 7.1 15.88 15.87v95.2c0 8.77-7.1 15.87-15.87 15.87h-95.2c-8.76 0-15.87-7.1-15.87-15.86v-95.21c0-8.77 7.1-15.87 15.87-15.87" style="fill-rule:evenodd;clip-rule:evenodd;fill:#fdfefe"/><path d="M439.19 468.27h95.2c8.77 0 15.88 7.1 15.88 15.87v95.2c0 8.77-7.1 15.87-15.87 15.87h-95.2c-8.76 0-15.87-7.1-15.87-15.86v-95.21c0-8.77 7.1-15.87 15.87-15.87" style="fill-rule:evenodd;clip-rule:evenodd;fill:#fdfefe"/><path d="M591.53 458.75h133.3c8.76 0 15.86 7.1 15.86 15.86v133.3c0 8.76-7.1 15.87-15.87 15.87h-133.3a15.87 15.87 0 0 1-15.86-15.87V474.6c0-8.76 7.1-15.87 15.87-15.87" style="fill-rule:evenodd;clip-rule:evenodd;fill:#cccccb"/><path d="M591.53 458.75h133.3c8.76 0 15.86 7.1 15.86 15.86v133.3c0 8.76-7.1 15.87-15.87 15.87h-133.3a15.87 15.87 0 0 1-15.86-15.87V474.6c0-8.76 7.1-15.87 15.87-15.87" style="fill-rule:evenodd;clip-rule:evenodd;fill:#cccccb"/><path d="M610.57 468.27h95.2c8.77 0 15.88 7.1 15.88 15.87v95.2c0 8.77-7.1 15.87-15.87 15.87h-95.21c-8.76 0-15.87-7.1-15.87-15.86v-95.21c0-8.77 7.1-15.87 15.87-15.87" style="fill-rule:evenodd;clip-rule:evenodd;fill:#fdfefe"/><path d="M610.57 468.27h95.2c8.77 0 15.88 7.1 15.88 15.87v95.2c0 8.77-7.1 15.87-15.87 15.87h-95.21c-8.76 0-15.87-7.1-15.87-15.86v-95.21c0-8.77 7.1-15.87 15.87-15.87" style="fill-rule:evenodd;clip-rule:evenodd;fill:#fdfefe"/><path d="M762.9 458.75h133.3c8.77 0 15.87 7.1 15.87 15.86v133.3c0 8.76-7.1 15.87-15.87 15.87H762.9a15.87 15.87 0 0 1-15.86-15.87V474.6c0-8.76 7.1-15.87 15.87-15.87" style="fill-rule:evenodd;clip-rule:evenodd;fill:#cccccb"/><path d="M762.9 458.75h133.3c8.77 0 15.87 7.1 15.87 15.86v133.3c0 8.76-7.1 15.87-15.87 15.87H762.9a15.87 15.87 0 0 1-15.86-15.87V474.6c0-8.76 7.1-15.87 15.87-15.87" style="fill-rule:evenodd;clip-rule:evenodd;fill:#cccccb"/><path d="M781.95 468.27h95.2c8.77 0 15.88 7.1 15.88 15.87v95.2c0 8.77-7.1 15.87-15.87 15.87h-95.21c-8.76 0-15.87-7.1-15.87-15.86v-95.21c0-8.77 7.1-15.87 15.87-15.87" style="fill-rule:evenodd;clip-rule:evenodd;fill:#fdfefe"/><path d="M781.95 468.27h95.2c8.77 0 15.88 7.1 15.88 15.87v95.2c0 8.77-7.1 15.87-15.87 15.87h-95.21c-8.76 0-15.87-7.1-15.87-15.86v-95.21c0-8.77 7.1-15.87 15.87-15.87" style="fill-rule:evenodd;clip-rule:evenodd;fill:#fdfefe"/><path d="M934.29 458.75h133.29c8.76 0 15.87 7.1 15.87 15.86v133.3c0 8.76-7.1 15.87-15.87 15.87h-133.3a15.87 15.87 0 0 1-15.86-15.87V474.6c0-8.76 7.1-15.87 15.87-15.87" style="fill-rule:evenodd;clip-rule:evenodd;fill:#cccccb"/><path d="M934.29 458.75h133.29c8.76 0 15.87 7.1 15.87 15.86v133.3c0 8.76-7.1 15.87-15.87 15.87h-133.3a15.87 15.87 0 0 1-15.86-15.87V474.6c0-8.76 7.1-15.87 15.87-15.87" style="fill-rule:evenodd;clip-rule:evenodd;fill:#cccccb"/><path d="M953.33 468.27h95.2c8.77 0 15.88 7.1 15.88 15.87v95.2c0 8.77-7.1 15.87-15.87 15.87h-95.21c-8.76 0-15.87-7.1-15.87-15.86v-95.21c0-8.77 7.1-15.87 15.87-15.87" style="fill-rule:evenodd;clip-rule:evenodd;fill:#fdfefe"/><path d="M953.33 468.27h95.2c8.77 0 15.88 7.1 15.88 15.87v95.2c0 8.77-7.1 15.87-15.87 15.87h-95.21c-8.76 0-15.87-7.1-15.87-15.86v-95.21c0-8.77 7.1-15.87 15.87-15.87" style="fill-rule:evenodd;clip-rule:evenodd;fill:#fdfefe"/><path d="M1105.66 458.75h133.3c8.76 0 15.87 7.1 15.87 15.86v133.3c0 8.76-7.1 15.87-15.87 15.87h-133.3a15.87 15.87 0 0 1-15.86-15.87V474.6c0-8.76 7.1-15.86 15.86-15.86" style="fill-rule:evenodd;clip-rule:evenodd;fill:#cccccb"/><path d="M1105.66 458.75h133.3c8.76 0 15.87 7.1 15.87 15.86v133.3c0 8.76-7.1 15.87-15.87 15.87h-133.3a15.87 15.87 0 0 1-15.86-15.87V474.6c0-8.76 7.1-15.86 15.86-15.86" style="fill-rule:evenodd;clip-rule:evenodd;fill:#cccccb"/><path d="M1124.7 468.27h95.22c8.76 0 15.87 7.1 15.87 15.87v95.2c0 8.77-7.11 15.87-15.87 15.87h-95.21c-8.76 0-15.87-7.1-15.87-15.86v-95.21c0-8.77 7.1-15.87 15.87-15.87" style="fill-rule:evenodd;clip-rule:evenodd;fill:#fdfefe"/><path d="M1124.7 468.27h95.22c8.76 0 15.87 7.1 15.87 15.87v95.2c0 8.77-7.11 15.87-15.87 15.87h-95.21c-8.76 0-15.87-7.1-15.87-15.86v-95.21c0-8.77 7.1-15.87 15.87-15.87" style="fill-rule:evenodd;clip-rule:evenodd;fill:#fdfefe"/><path d="M1277.04 458.75h133.3c8.76 0 15.87 7.1 15.87 15.86v133.3c0 8.76-7.1 15.87-15.87 15.87h-133.3a15.87 15.87 0 0 1-15.86-15.87V474.6c0-8.76 7.1-15.86 15.86-15.86" style="fill-rule:evenodd;clip-rule:evenodd;fill:#cccccb"/><path d="M1277.04 458.75h133.3c8.76 0 15.87 7.1 15.87 15.86v133.3c0 8.76-7.1 15.87-15.87 15.87h-133.3a15.87 15.87 0 0 1-15.86-15.87V474.6c0-8.76 7.1-15.86 15.86-15.86" style="fill-rule:evenodd;clip-rule:evenodd;fill:#cccccb"/><path d="M1296.09 468.27h95.2c8.77 0 15.88 7.1 15.88 15.87v95.2c0 8.77-7.1 15.87-15.87 15.87h-95.21c-8.77 0-15.87-7.1-15.87-15.86v-95.21c0-8.77 7.1-15.87 15.87-15.87" style="fill-rule:evenodd;clip-rule:evenodd;fill:#fdfefe"/><path d="M1296.09 468.27h95.2c8.77 0 15.88 7.1 15.88 15.87v95.2c0 8.77-7.1 15.87-15.87 15.87h-95.21c-8.77 0-15.87-7.1-15.87-15.86v-95.21c0-8.77 7.1-15.87 15.87-15.87" style="fill-rule:evenodd;clip-rule:evenodd;fill:#fdfefe"/><path d="M1448.42 458.75h133.3c8.76 0 15.87 7.1 15.87 15.86v133.3c0 8.76-7.1 15.87-15.87 15.87h-133.3a15.9 15.9 0 0 1-15.87-15.87V474.6c0-8.76 7.11-15.86 15.87-15.86" style="fill-rule:evenodd;clip-rule:evenodd;fill:#cccccb"/><path d="M1448.42 458.75h133.3c8.76 0 15.87 7.1 15.87 15.86v133.3c0 8.76-7.1 15.87-15.87 15.87h-133.3a15.9 15.9 0 0 1-15.87-15.87V474.6c0-8.76 7.11-15.86 15.87-15.86" style="fill-rule:evenodd;clip-rule:evenodd;fill:#cccccb"/><path d="M1467.47 468.27h95.2c8.77 0 15.87 7.1 15.87 15.87v95.2c0 8.77-7.1 15.87-15.86 15.87h-95.21c-8.77 0-15.87-7.1-15.87-15.86v-95.21c0-8.77 7.1-15.87 15.87-15.87" style="fill-rule:evenodd;clip-rule:evenodd;fill:#fdfefe"/><path d="M1467.47 468.27h95.2c8.77 0 15.87 7.1 15.87 15.87v95.2c0 8.77-7.1 15.87-15.86 15.87h-95.21c-8.77 0-15.87-7.1-15.87-15.86v-95.21c0-8.77 7.1-15.87 15.87-15.87" style="fill-rule:evenodd;clip-rule:evenodd;fill:#fdfefe"/><path d="M1619.8 458.75h133.3c8.76 0 15.87 7.1 15.87 15.86v133.3c0 8.76-7.1 15.87-15.87 15.87h-133.3a15.87 15.87 0 0 1-15.86-15.87V474.6c0-8.76 7.1-15.86 15.86-15.86" style="fill-rule:evenodd;clip-rule:evenodd;fill:#cccccb"/><path d="M1619.8 458.75h133.3c8.76 0 15.87 7.1 15.87 15.86v133.3c0 8.76-7.1 15.87-15.87 15.87h-133.3a15.87 15.87 0 0 1-15.86-15.87V474.6c0-8.76 7.1-15.86 15.86-15.86" style="fill-rule:evenodd;clip-rule:evenodd;fill:#cccccb"/><path d="M1638.85 468.27h95.2c8.77 0 15.88 7.1 15.88 15.87v95.2c0 8.77-7.11 15.87-15.87 15.87h-95.21c-8.77 0-15.87-7.1-15.87-15.86v-95.21c0-8.77 7.1-15.87 15.87-15.87" style="fill-rule:evenodd;clip-rule:evenodd;fill:#fdfefe"/><path d="M1638.85 468.27h95.2c8.77 0 15.88 7.1 15.88 15.87v95.2c0 8.77-7.11 15.87-15.87 15.87h-95.21c-8.77 0-15.87-7.1-15.87-15.86v-95.21c0-8.77 7.1-15.87 15.87-15.87" style="fill-rule:evenodd;clip-rule:evenodd;fill:#fdfefe"/><path d="M1791.18 458.75h347.52c8.77 0 15.87 7.1 15.87 15.86v133.3c0 8.76-7.1 15.87-15.87 15.87h-347.52a15.87 15.87 0 0 1-15.86-15.87V474.6c0-8.76 7.1-15.86 15.86-15.86" style="fill-rule:evenodd;clip-rule:evenodd;fill:#c38992"/><path d="M1791.18 458.75h347.52c8.77 0 15.87 7.1 15.87 15.86v133.3c0 8.76-7.1 15.87-15.87 15.87h-347.52a15.87 15.87 0 0 1-15.86-15.87V474.6c0-8.76 7.1-15.86 15.86-15.86" style="fill-rule:evenodd;clip-rule:evenodd;fill:#c38992"/><path d="M1810.23 468.27h309.43c8.76 0 15.87 7.1 15.87 15.87v95.2c0 8.77-7.1 15.87-15.87 15.87h-309.43c-8.77 0-15.87-7.1-15.87-15.86v-95.21c0-8.77 7.1-15.87 15.87-15.87" style="fill-rule:evenodd;clip-rule:evenodd;fill:#e9acb5"/><path d="M1810.23 468.27h309.43c8.76 0 15.87 7.1 15.87 15.87v95.2c0 8.77-7.1 15.87-15.87 15.87h-309.43c-8.77 0-15.87-7.1-15.87-15.86v-95.21c0-8.77 7.1-15.87 15.87-15.87" style="fill-rule:evenodd;clip-rule:evenodd;fill:#e9acb5"/><path d="M2176.79 458.75h133.3c8.75 0 15.86 7.1 15.86 15.86v133.3c0 8.76-7.1 15.87-15.87 15.87h-133.3a15.87 15.87 0 0 1-15.86-15.87V474.6c0-8.76 7.1-15.87 15.87-15.87" style="fill-rule:evenodd;clip-rule:evenodd;fill:#99938e"/><path d="M2176.79 458.75h133.3c8.75 0 15.86 7.1 15.86 15.86v133.3c0 8.76-7.1 15.87-15.87 15.87h-133.3a15.87 15.87 0 0 1-15.86-15.87V474.6c0-8.76 7.1-15.87 15.87-15.87" style="fill-rule:evenodd;clip-rule:evenodd;fill:#99938e"/><path d="M2195.83 468.27h95.21c8.76 0 15.87 7.1 15.87 15.87v95.2c0 8.77-7.1 15.87-15.87 15.87h-95.21c-8.76 0-15.87-7.1-15.87-15.86v-95.21c0-8.77 7.1-15.87 15.87-15.87" style="fill-rule:evenodd;clip-rule:evenodd;fill:#bbb5b0"/><path d="M2195.83 468.27h95.21c8.76 0 15.87 7.1 15.87 15.87v95.2c0 8.77-7.1 15.87-15.87 15.87h-95.21c-8.76 0-15.87-7.1-15.87-15.86v-95.21c0-8.77 7.1-15.87 15.87-15.87" style="fill-rule:evenodd;clip-rule:evenodd;fill:#bbb5b0"/><path d="M-393.9 630.13h347.5c8.77 0 15.87 7.1 15.87 15.86v133.3c0 8.76-7.1 15.87-15.87 15.87h-347.5c-8.76 0-15.86-7.1-15.86-15.87v-133.3c0-8.76 7.1-15.87 15.86-15.87" style="fill-rule:evenodd;clip-rule:evenodd;fill:#99938e"/><path d="M-393.9 630.13h347.5c8.77 0 15.87 7.1 15.87 15.86v133.3c0 8.76-7.1 15.87-15.87 15.87h-347.5c-8.76 0-15.86-7.1-15.86-15.87v-133.3c0-8.76 7.1-15.87 15.86-15.87" style="fill-rule:evenodd;clip-rule:evenodd;fill:#99938e"/><path d="M-374.87 639.65h309.44c8.76 0 15.87 7.1 15.87 15.86v95.22c0 8.76-7.1 15.86-15.87 15.86h-309.44c-8.76 0-15.86-7.1-15.86-15.87v-95.2c0-8.77 7.1-15.87 15.87-15.87" style="fill-rule:evenodd;clip-rule:evenodd;fill:#bbb5b0"/><path d="M-374.87 639.65h309.44c8.76 0 15.87 7.1 15.87 15.86v95.22c0 8.76-7.1 15.86-15.87 15.86h-309.44c-8.76 0-15.86-7.1-15.86-15.87v-95.2c0-8.77 7.1-15.87 15.87-15.87" style="fill-rule:evenodd;clip-rule:evenodd;fill:#bbb5b0"/><path d="M-8.3 630.13H125c8.75 0 15.86 7.1 15.86 15.86v133.3c0 8.76-7.1 15.87-15.87 15.87H-8.3c-8.75 0-15.86-7.1-15.86-15.87v-133.3c0-8.76 7.1-15.87 15.87-15.87" style="fill-rule:evenodd;clip-rule:evenodd;fill:#cccccb"/><path d="M-8.3 630.13H125c8.75 0 15.86 7.1 15.86 15.86v133.3c0 8.76-7.1 15.87-15.87 15.87H-8.3c-8.75 0-15.86-7.1-15.86-15.87v-133.3c0-8.76 7.1-15.87 15.87-15.87" style="fill-rule:evenodd;clip-rule:evenodd;fill:#cccccb"/><path d="M10.74 639.65h95.21c8.76 0 15.87 7.1 15.87 15.86v95.22c0 8.76-7.1 15.86-15.87 15.86H10.74c-8.76 0-15.87-7.1-15.87-15.87v-95.2c0-8.77 7.1-15.87 15.87-15.87" style="fill-rule:evenodd;clip-rule:evenodd;fill:#fdfefe"/><path d="M10.74 639.65h95.21c8.76 0 15.87 7.1 15.87 15.86v95.22c0 8.76-7.1 15.86-15.87 15.86H10.74c-8.76 0-15.87-7.1-15.87-15.87v-95.2c0-8.77 7.1-15.87 15.87-15.87" style="fill-rule:evenodd;clip-rule:evenodd;fill:#fdfefe"/><path d="M163.08 630.13h133.3c8.75 0 15.86 7.1 15.86 15.86v133.3c0 8.76-7.1 15.87-15.87 15.87h-133.3c-8.75 0-15.86-7.1-15.86-15.87v-133.3c0-8.76 7.1-15.87 15.87-15.87" style="fill-rule:evenodd;clip-rule:evenodd;fill:#cccccb"/><path d="M163.08 630.13h133.3c8.75 0 15.86 7.1 15.86 15.86v133.3c0 8.76-7.1 15.87-15.87 15.87h-133.3c-8.75 0-15.86-7.1-15.86-15.87v-133.3c0-8.76 7.1-15.87 15.87-15.87" style="fill-rule:evenodd;clip-rule:evenodd;fill:#cccccb"/><path d="M182.12 639.65h95.21c8.76 0 15.87 7.1 15.87 15.86v95.22c0 8.76-7.1 15.86-15.87 15.86h-95.21c-8.76 0-15.87-7.1-15.87-15.87v-95.2c0-8.77 7.1-15.87 15.87-15.87" style="fill-rule:evenodd;clip-rule:evenodd;fill:#fdfefe"/><path d="M182.12 639.65h95.21c8.76 0 15.87 7.1 15.87 15.86v95.22c0 8.76-7.1 15.86-15.87 15.86h-95.21c-8.76 0-15.87-7.1-15.87-15.87v-95.2c0-8.77 7.1-15.87 15.87-15.87" style="fill-rule:evenodd;clip-rule:evenodd;fill:#fdfefe"/><path d="M334.46 630.13h133.3c8.75 0 15.86 7.1 15.86 15.86v133.3c0 8.76-7.1 15.87-15.87 15.87h-133.3c-8.76 0-15.86-7.1-15.86-15.87v-133.3c0-8.76 7.1-15.87 15.87-15.87" style="fill-rule:evenodd;clip-rule:evenodd;fill:#cccccb"/><path d="M334.46 630.13h133.3c8.75 0 15.86 7.1 15.86 15.86v133.3c0 8.76-7.1 15.87-15.87 15.87h-133.3c-8.76 0-15.86-7.1-15.86-15.87v-133.3c0-8.76 7.1-15.87 15.87-15.87" style="fill-rule:evenodd;clip-rule:evenodd;fill:#cccccb"/><path d="M353.5 639.65h95.21c8.76 0 15.87 7.1 15.87 15.86v95.22c0 8.76-7.1 15.86-15.87 15.86H353.5c-8.76 0-15.87-7.1-15.87-15.87v-95.2c0-8.77 7.1-15.87 15.87-15.87" style="fill-rule:evenodd;clip-rule:evenodd;fill:#fdfefe"/><path d="M353.5 639.65h95.21c8.76 0 15.87 7.1 15.87 15.86v95.22c0 8.76-7.1 15.86-15.87 15.86H353.5c-8.76 0-15.87-7.1-15.87-15.87v-95.2c0-8.77 7.1-15.87 15.87-15.87" style="fill-rule:evenodd;clip-rule:evenodd;fill:#fdfefe"/><path d="M505.84 630.13h133.3c8.75 0 15.86 7.1 15.86 15.86v133.3c0 8.76-7.1 15.87-15.87 15.87h-133.3c-8.75 0-15.86-7.1-15.86-15.87v-133.3c0-8.76 7.1-15.87 15.87-15.87" style="fill-rule:evenodd;clip-rule:evenodd;fill:#cccccb"/><path d="M505.84 630.13h133.3c8.75 0 15.86 7.1 15.86 15.86v133.3c0 8.76-7.1 15.87-15.87 15.87h-133.3c-8.75 0-15.86-7.1-15.86-15.87v-133.3c0-8.76 7.1-15.87 15.87-15.87" style="fill-rule:evenodd;clip-rule:evenodd;fill:#cccccb"/><path d="M524.88 639.65h95.2c8.77 0 15.88 7.1 15.88 15.86v95.22c0 8.76-7.1 15.86-15.87 15.86h-95.21c-8.76 0-15.87-7.1-15.87-15.87v-95.2c0-8.77 7.1-15.87 15.87-15.87" style="fill-rule:evenodd;clip-rule:evenodd;fill:#fdfefe"/><path d="M524.88 639.65h95.2c8.77 0 15.88 7.1 15.88 15.86v95.22c0 8.76-7.1 15.86-15.87 15.86h-95.21c-8.76 0-15.87-7.1-15.87-15.87v-95.2c0-8.77 7.1-15.87 15.87-15.87" style="fill-rule:evenodd;clip-rule:evenodd;fill:#fdfefe"/><path d="M677.22 630.13h133.3c8.75 0 15.86 7.1 15.86 15.86v133.3c0 8.76-7.1 15.87-15.87 15.87h-133.3c-8.76 0-15.86-7.1-15.86-15.87v-133.3c0-8.76 7.1-15.87 15.87-15.87" style="fill-rule:evenodd;clip-rule:evenodd;fill:#cccccb"/><path d="M677.22 630.13h133.3c8.75 0 15.86 7.1 15.86 15.86v133.3c0 8.76-7.1 15.87-15.87 15.87h-133.3c-8.76 0-15.86-7.1-15.86-15.87v-133.3c0-8.76 7.1-15.87 15.87-15.87" style="fill-rule:evenodd;clip-rule:evenodd;fill:#cccccb"/><path d="M696.26 639.65h95.2c8.77 0 15.88 7.1 15.88 15.86v95.22c0 8.76-7.1 15.86-15.87 15.86h-95.21c-8.76 0-15.87-7.1-15.87-15.87v-95.2c0-8.77 7.1-15.87 15.87-15.87" style="fill-rule:evenodd;clip-rule:evenodd;fill:#fdfefe"/><path d="M696.26 639.65h95.2c8.77 0 15.88 7.1 15.88 15.86v95.22c0 8.76-7.1 15.86-15.87 15.86h-95.21c-8.76 0-15.87-7.1-15.87-15.87v-95.2c0-8.77 7.1-15.87 15.87-15.87" style="fill-rule:evenodd;clip-rule:evenodd;fill:#fdfefe"/><path d="M848.6 630.13h133.29c8.76 0 15.87 7.1 15.87 15.86v133.3c0 8.76-7.1 15.87-15.87 15.87h-133.3c-8.76 0-15.86-7.1-15.86-15.87v-133.3c0-8.76 7.1-15.87 15.87-15.87" style="fill-rule:evenodd;clip-rule:evenodd;fill:#cccccb"/><path d="M848.6 630.13h133.29c8.76 0 15.87 7.1 15.87 15.86v133.3c0 8.76-7.1 15.87-15.87 15.87h-133.3c-8.76 0-15.86-7.1-15.86-15.87v-133.3c0-8.76 7.1-15.87 15.87-15.87" style="fill-rule:evenodd;clip-rule:evenodd;fill:#cccccb"/><path d="M867.64 639.65h95.2c8.77 0 15.88 7.1 15.88 15.86v95.22c0 8.76-7.1 15.86-15.87 15.86h-95.21c-8.76 0-15.87-7.1-15.87-15.87v-95.2c0-8.77 7.1-15.87 15.87-15.87" style="fill-rule:evenodd;clip-rule:evenodd;fill:#fdfefe"/><path d="M867.64 639.65h95.2c8.77 0 15.88 7.1 15.88 15.86v95.22c0 8.76-7.1 15.86-15.87 15.86h-95.21c-8.76 0-15.87-7.1-15.87-15.87v-95.2c0-8.77 7.1-15.87 15.87-15.87" style="fill-rule:evenodd;clip-rule:evenodd;fill:#fdfefe"/><path d="M1019.98 630.13h133.29c8.76 0 15.87 7.1 15.87 15.86v133.3c0 8.76-7.1 15.87-15.87 15.87h-133.3c-8.76 0-15.86-7.1-15.86-15.87v-133.3c0-8.76 7.1-15.87 15.86-15.87" style="fill-rule:evenodd;clip-rule:evenodd;fill:#cccccb"/><path d="M1019.98 630.13h133.29c8.76 0 15.87 7.1 15.87 15.86v133.3c0 8.76-7.1 15.87-15.87 15.87h-133.3c-8.76 0-15.86-7.1-15.86-15.87v-133.3c0-8.76 7.1-15.87 15.86-15.87" style="fill-rule:evenodd;clip-rule:evenodd;fill:#cccccb"/><path d="M1039.02 639.65h95.2c8.77 0 15.88 7.1 15.88 15.86v95.22c0 8.76-7.11 15.86-15.87 15.86h-95.21c-8.77 0-15.87-7.1-15.87-15.87v-95.2c0-8.77 7.1-15.87 15.87-15.87" style="fill-rule:evenodd;clip-rule:evenodd;fill:#fdfefe"/><path d="M1039.02 639.65h95.2c8.77 0 15.88 7.1 15.88 15.86v95.22c0 8.76-7.11 15.86-15.87 15.86h-95.21c-8.77 0-15.87-7.1-15.87-15.87v-95.2c0-8.77 7.1-15.87 15.87-15.87" style="fill-rule:evenodd;clip-rule:evenodd;fill:#fdfefe"/><path d="M1191.36 630.13h133.29c8.76 0 15.87 7.1 15.87 15.86v133.3c0 8.76-7.1 15.87-15.87 15.87h-133.3c-8.76 0-15.87-7.1-15.87-15.87v-133.3c0-8.76 7.11-15.87 15.87-15.87" style="fill-rule:evenodd;clip-rule:evenodd;fill:#cccccb"/><path d="M1191.36 630.13h133.29c8.76 0 15.87 7.1 15.87 15.86v133.3c0 8.76-7.1 15.87-15.87 15.87h-133.3c-8.76 0-15.87-7.1-15.87-15.87v-133.3c0-8.76 7.11-15.87 15.87-15.87" style="fill-rule:evenodd;clip-rule:evenodd;fill:#cccccb"/><path d="M1210.4 639.65h95.2c8.77 0 15.88 7.1 15.88 15.86v95.22c0 8.76-7.11 15.86-15.87 15.86h-95.21c-8.77 0-15.87-7.1-15.87-15.87v-95.2c0-8.77 7.1-15.87 15.87-15.87" style="fill-rule:evenodd;clip-rule:evenodd;fill:#fdfefe"/><path d="M1210.4 639.65h95.2c8.77 0 15.88 7.1 15.88 15.86v95.22c0 8.76-7.11 15.86-15.87 15.86h-95.21c-8.77 0-15.87-7.1-15.87-15.87v-95.2c0-8.77 7.1-15.87 15.87-15.87" style="fill-rule:evenodd;clip-rule:evenodd;fill:#fdfefe"/><path d="M1362.74 630.13h133.29c8.76 0 15.87 7.1 15.87 15.86v133.3c0 8.76-7.1 15.87-15.87 15.87h-133.3c-8.76 0-15.86-7.1-15.86-15.87v-133.3c0-8.76 7.1-15.87 15.86-15.87" style="fill-rule:evenodd;clip-rule:evenodd;fill:#cccccb"/><path d="M1362.74 630.13h133.29c8.76 0 15.87 7.1 15.87 15.86v133.3c0 8.76-7.1 15.87-15.87 15.87h-133.3c-8.76 0-15.86-7.1-15.86-15.87v-133.3c0-8.76 7.1-15.87 15.86-15.87" style="fill-rule:evenodd;clip-rule:evenodd;fill:#cccccb"/><path d="M1381.78 639.65h95.2c8.77 0 15.88 7.1 15.88 15.86v95.22c0 8.76-7.11 15.86-15.87 15.86h-95.21c-8.77 0-15.87-7.1-15.87-15.87v-95.2c0-8.77 7.1-15.87 15.87-15.87" style="fill-rule:evenodd;clip-rule:evenodd;fill:#fdfefe"/><path d="M1381.78 639.65h95.2c8.77 0 15.88 7.1 15.88 15.86v95.22c0 8.76-7.11 15.86-15.87 15.86h-95.21c-8.77 0-15.87-7.1-15.87-15.87v-95.2c0-8.77 7.1-15.87 15.87-15.87" style="fill-rule:evenodd;clip-rule:evenodd;fill:#fdfefe"/><path d="M1534.11 630.13h133.3c8.76 0 15.87 7.1 15.87 15.86v133.3c0 8.76-7.11 15.87-15.87 15.87h-133.3c-8.76 0-15.87-7.1-15.87-15.87v-133.3c0-8.76 7.11-15.87 15.87-15.87" style="fill-rule:evenodd;clip-rule:evenodd;fill:#cccccb"/><path d="M1534.11 630.13h133.3c8.76 0 15.87 7.1 15.87 15.86v133.3c0 8.76-7.11 15.87-15.87 15.87h-133.3c-8.76 0-15.87-7.1-15.87-15.87v-133.3c0-8.76 7.11-15.87 15.87-15.87" style="fill-rule:evenodd;clip-rule:evenodd;fill:#cccccb"/><path d="M1553.16 639.65h95.2c8.77 0 15.87 7.1 15.87 15.86v95.22c0 8.76-7.1 15.86-15.86 15.86h-95.21c-8.77 0-15.87-7.1-15.87-15.87v-95.2c0-8.77 7.1-15.87 15.87-15.87" style="fill-rule:evenodd;clip-rule:evenodd;fill:#fdfefe"/><path d="M1553.16 639.65h95.2c8.77 0 15.87 7.1 15.87 15.86v95.22c0 8.76-7.1 15.86-15.86 15.86h-95.21c-8.77 0-15.87-7.1-15.87-15.87v-95.2c0-8.77 7.1-15.87 15.87-15.87" style="fill-rule:evenodd;clip-rule:evenodd;fill:#fdfefe"/><path d="M1705.5 630.13h261.82c8.77 0 15.87 7.1 15.87 15.86v133.3c0 8.76-7.1 15.87-15.87 15.87H1705.5c-8.76 0-15.87-7.1-15.87-15.87v-133.3c0-8.76 7.1-15.87 15.87-15.87" style="fill-rule:evenodd;clip-rule:evenodd;fill:#99938e"/><path d="M1705.5 630.13h261.82c8.77 0 15.87 7.1 15.87 15.86v133.3c0 8.76-7.1 15.87-15.87 15.87H1705.5c-8.76 0-15.87-7.1-15.87-15.87v-133.3c0-8.76 7.1-15.87 15.87-15.87" style="fill-rule:evenodd;clip-rule:evenodd;fill:#99938e"/><path d="M1724.54 639.65h223.74c8.76 0 15.87 7.1 15.87 15.86v95.22c0 8.76-7.1 15.86-15.87 15.86h-223.74c-8.77 0-15.87-7.1-15.87-15.87v-95.2c0-8.77 7.1-15.87 15.86-15.87" style="fill-rule:evenodd;clip-rule:evenodd;fill:#bbb5b0"/><path d="M1724.54 639.65h223.74c8.76 0 15.87 7.1 15.87 15.86v95.22c0 8.76-7.1 15.86-15.87 15.86h-223.74c-8.77 0-15.87-7.1-15.87-15.87v-95.2c0-8.77 7.1-15.87 15.86-15.87" style="fill-rule:evenodd;clip-rule:evenodd;fill:#bbb5b0"/><path d="M2005.4 630.13h133.3c8.76 0 15.87 7.1 15.87 15.86v133.3c0 8.76-7.1 15.87-15.87 15.87h-133.3c-8.75 0-15.86-7.1-15.86-15.87v-133.3c0-8.76 7.1-15.87 15.87-15.87" style="fill-rule:evenodd;clip-rule:evenodd;fill:#99938e"/><path d="M2005.4 630.13h133.3c8.76 0 15.87 7.1 15.87 15.86v133.3c0 8.76-7.1 15.87-15.87 15.87h-133.3c-8.75 0-15.86-7.1-15.86-15.87v-133.3c0-8.76 7.1-15.87 15.87-15.87" style="fill-rule:evenodd;clip-rule:evenodd;fill:#99938e"/><path d="M2024.45 639.65h95.21c8.76 0 15.87 7.1 15.87 15.86v95.22c0 8.76-7.1 15.86-15.87 15.86h-95.21c-8.76 0-15.87-7.1-15.87-15.87v-95.2c0-8.77 7.1-15.87 15.87-15.87" style="fill-rule:evenodd;clip-rule:evenodd;fill:#bbb5b0"/><path d="M2024.45 639.65h95.21c8.76 0 15.87 7.1 15.87 15.86v95.22c0 8.76-7.1 15.86-15.87 15.86h-95.21c-8.76 0-15.87-7.1-15.87-15.87v-95.2c0-8.77 7.1-15.87 15.87-15.87" style="fill-rule:evenodd;clip-rule:evenodd;fill:#bbb5b0"/><path d="M2176.79 630.13h133.3c8.75 0 15.86 7.1 15.86 15.86v133.3c0 8.76-7.1 15.87-15.87 15.87h-133.3c-8.76 0-15.86-7.1-15.86-15.87v-133.3c0-8.76 7.1-15.87 15.87-15.87" style="fill-rule:evenodd;clip-rule:evenodd;fill:#99938e"/><path d="M2176.79 630.13h133.3c8.75 0 15.86 7.1 15.86 15.86v133.3c0 8.76-7.1 15.87-15.87 15.87h-133.3c-8.76 0-15.86-7.1-15.86-15.87v-133.3c0-8.76 7.1-15.87 15.87-15.87" style="fill-rule:evenodd;clip-rule:evenodd;fill:#99938e"/><path d="M2195.83 639.65h95.21c8.76 0 15.87 7.1 15.87 15.86v95.22c0 8.76-7.1 15.86-15.87 15.86h-95.21c-8.76 0-15.87-7.1-15.87-15.87v-95.2c0-8.77 7.1-15.87 15.87-15.87" style="fill-rule:evenodd;clip-rule:evenodd;fill:#bbb5b0"/><path d="M2195.83 639.65h95.21c8.76 0 15.87 7.1 15.87 15.86v95.22c0 8.76-7.1 15.86-15.87 15.86h-95.21c-8.76 0-15.87-7.1-15.87-15.87v-95.2c0-8.77 7.1-15.87 15.87-15.87" style="fill-rule:evenodd;clip-rule:evenodd;fill:#bbb5b0"/><path d="M-393.9 801.5h176.13c8.77 0 15.87 7.11 15.87 15.87v133.3c0 8.76-7.1 15.87-15.87 15.87H-393.9c-8.76 0-15.86-7.1-15.86-15.87v-133.3c0-8.76 7.1-15.87 15.86-15.87" style="fill-rule:evenodd;clip-rule:evenodd;fill:#99938e"/><path d="M-393.9 801.5h176.13c8.77 0 15.87 7.11 15.87 15.87v133.3c0 8.76-7.1 15.87-15.87 15.87H-393.9c-8.76 0-15.86-7.1-15.86-15.87v-133.3c0-8.76 7.1-15.87 15.86-15.87" style="fill-rule:evenodd;clip-rule:evenodd;fill:#99938e"/><path d="M-374.87 811.03h138.06c8.76 0 15.87 7.1 15.87 15.87v95.2c0 8.77-7.1 15.87-15.87 15.87h-138.06c-8.76 0-15.86-7.1-15.86-15.87v-95.2c0-8.77 7.1-15.87 15.87-15.87" style="fill-rule:evenodd;clip-rule:evenodd;fill:#bbb5b0"/><path d="M-374.87 811.03h138.06c8.76 0 15.87 7.1 15.87 15.87v95.2c0 8.77-7.1 15.87-15.87 15.87h-138.06c-8.76 0-15.86-7.1-15.86-15.87v-95.2c0-8.77 7.1-15.87 15.87-15.87" style="fill-rule:evenodd;clip-rule:evenodd;fill:#bbb5b0"/><path d="M-179.68 801.5H-3.54c8.76 0 15.87 7.11 15.87 15.87v133.3c0 8.76-7.1 15.87-15.87 15.87h-176.14c-8.76 0-15.87-7.1-15.87-15.87v-133.3c0-8.76 7.1-15.87 15.87-15.87" style="fill-rule:evenodd;clip-rule:evenodd;fill:#99938e"/><path d="M-179.68 801.5H-3.54c8.76 0 15.87 7.11 15.87 15.87v133.3c0 8.76-7.1 15.87-15.87 15.87h-176.14c-8.76 0-15.87-7.1-15.87-15.87v-133.3c0-8.76 7.1-15.87 15.87-15.87" style="fill-rule:evenodd;clip-rule:evenodd;fill:#99938e"/><path d="M-160.64 811.03h138.06c8.76 0 15.87 7.1 15.87 15.87v95.2c0 8.77-7.11 15.87-15.87 15.87h-138.06c-8.76 0-15.87-7.1-15.87-15.87v-95.2c0-8.77 7.1-15.87 15.87-15.87" style="fill-rule:evenodd;clip-rule:evenodd;fill:#bbb5b0"/><path d="M-160.64 811.03h138.06c8.76 0 15.87 7.1 15.87 15.87v95.2c0 8.77-7.11 15.87-15.87 15.87h-138.06c-8.76 0-15.87-7.1-15.87-15.87v-95.2c0-8.77 7.1-15.87 15.87-15.87" style="fill-rule:evenodd;clip-rule:evenodd;fill:#bbb5b0"/><path d="M34.54 801.5h176.14c8.77 0 15.87 7.11 15.87 15.87v133.3c0 8.76-7.1 15.87-15.87 15.87H34.54c-8.76 0-15.86-7.1-15.86-15.87v-133.3c0-8.76 7.1-15.87 15.86-15.87" style="fill-rule:evenodd;clip-rule:evenodd;fill:#99938e"/><path d="M34.54 801.5h176.14c8.77 0 15.87 7.11 15.87 15.87v133.3c0 8.76-7.1 15.87-15.87 15.87H34.54c-8.76 0-15.86-7.1-15.86-15.87v-133.3c0-8.76 7.1-15.87 15.86-15.87" style="fill-rule:evenodd;clip-rule:evenodd;fill:#99938e"/><path d="M53.58 811.03h138.06c8.76 0 15.87 7.1 15.87 15.87v95.2c0 8.77-7.1 15.87-15.87 15.87H53.58c-8.76 0-15.86-7.1-15.86-15.87v-95.2c0-8.77 7.1-15.87 15.87-15.87" style="fill-rule:evenodd;clip-rule:evenodd;fill:#bbb5b0"/><path d="M53.58 811.03h138.06c8.76 0 15.87 7.1 15.87 15.87v95.2c0 8.77-7.1 15.87-15.87 15.87H53.58c-8.76 0-15.86-7.1-15.86-15.87v-95.2c0-8.77 7.1-15.87 15.87-15.87" style="fill-rule:evenodd;clip-rule:evenodd;fill:#bbb5b0"/><path d="M248.77 801.5H1281.8c8.76 0 15.86 7.11 15.86 15.87v133.3c0 8.76-7.1 15.87-15.86 15.87H248.77c-8.76 0-15.87-7.1-15.87-15.87v-133.3c0-8.76 7.1-15.87 15.87-15.87" style="fill-rule:evenodd;clip-rule:evenodd;fill:#8bbba8"/><path d="M248.77 801.5H1281.8c8.76 0 15.86 7.11 15.86 15.87v133.3c0 8.76-7.1 15.87-15.86 15.87H248.77c-8.76 0-15.87-7.1-15.87-15.87v-133.3c0-8.76 7.1-15.87 15.87-15.87" style="fill-rule:evenodd;clip-rule:evenodd;fill:#8bbba8"/><path d="M267.8 811.03h994.96c8.76 0 15.87 7.1 15.87 15.87v95.2c0 8.77-7.1 15.87-15.87 15.87H267.81c-8.76 0-15.87-7.1-15.87-15.87v-95.2c0-8.77 7.1-15.87 15.87-15.87" style="fill-rule:evenodd;clip-rule:evenodd;fill:#b4dfce"/><path d="M267.8 811.03h994.96c8.76 0 15.87 7.1 15.87 15.87v95.2c0 8.77-7.1 15.87-15.87 15.87H267.81c-8.76 0-15.87-7.1-15.87-15.87v-95.2c0-8.77 7.1-15.87 15.87-15.87" style="fill-rule:evenodd;clip-rule:evenodd;fill:#b4dfce"/><path d="M1319.89 801.5h133.3c8.76 0 15.86 7.11 15.86 15.87v133.3c0 8.76-7.1 15.87-15.87 15.87h-133.3c-8.75 0-15.86-7.1-15.86-15.87v-133.3c0-8.76 7.1-15.87 15.87-15.87" style="fill-rule:evenodd;clip-rule:evenodd;fill:#99938e"/><path d="M1319.89 801.5h133.3c8.76 0 15.86 7.11 15.86 15.87v133.3c0 8.76-7.1 15.87-15.87 15.87h-133.3c-8.75 0-15.86-7.1-15.86-15.87v-133.3c0-8.76 7.1-15.87 15.87-15.87" style="fill-rule:evenodd;clip-rule:evenodd;fill:#99938e"/><path d="M1338.93 811.03h95.21c8.76 0 15.87 7.1 15.87 15.87v95.2c0 8.77-7.1 15.87-15.87 15.87h-95.2c-8.77 0-15.88-7.1-15.88-15.87v-95.2c0-8.77 7.1-15.87 15.87-15.87" style="fill-rule:evenodd;clip-rule:evenodd;fill:#bbb5b0"/><path d="M1338.93 811.03h95.21c8.76 0 15.87 7.1 15.87 15.87v95.2c0 8.77-7.1 15.87-15.87 15.87h-95.2c-8.77 0-15.88-7.1-15.88-15.87v-95.2c0-8.77 7.1-15.87 15.87-15.87" style="fill-rule:evenodd;clip-rule:evenodd;fill:#bbb5b0"/><path d="M1491.27 801.5h133.3c8.76 0 15.86 7.11 15.86 15.87v133.3c0 8.76-7.1 15.87-15.87 15.87h-133.3c-8.75 0-15.86-7.1-15.86-15.87v-133.3c0-8.76 7.1-15.87 15.87-15.87" style="fill-rule:evenodd;clip-rule:evenodd;fill:#99938e"/><path d="M1491.27 801.5h133.3c8.76 0 15.86 7.11 15.86 15.87v133.3c0 8.76-7.1 15.87-15.87 15.87h-133.3c-8.75 0-15.86-7.1-15.86-15.87v-133.3c0-8.76 7.1-15.87 15.87-15.87" style="fill-rule:evenodd;clip-rule:evenodd;fill:#99938e"/><path d="M1510.31 811.03h95.21c8.76 0 15.87 7.1 15.87 15.87v95.2c0 8.77-7.1 15.87-15.87 15.87h-95.2c-8.77 0-15.88-7.1-15.88-15.87v-95.2c0-8.77 7.1-15.87 15.87-15.87" style="fill-rule:evenodd;clip-rule:evenodd;fill:#bbb5b0"/><path d="M1510.31 811.03h95.21c8.76 0 15.87 7.1 15.87 15.87v95.2c0 8.77-7.1 15.87-15.87 15.87h-95.2c-8.77 0-15.88-7.1-15.88-15.87v-95.2c0-8.77 7.1-15.87 15.87-15.87" style="fill-rule:evenodd;clip-rule:evenodd;fill:#bbb5b0"/><path d="M1662.65 801.5h133.3c8.76 0 15.86 7.11 15.86 15.87v133.3c0 8.76-7.1 15.87-15.87 15.87h-133.3c-8.75 0-15.86-7.1-15.86-15.87v-133.3c0-8.76 7.1-15.87 15.87-15.87" style="fill-rule:evenodd;clip-rule:evenodd;fill:#99938e"/><path d="M1662.65 801.5h133.3c8.76 0 15.86 7.11 15.86 15.87v133.3c0 8.76-7.1 15.87-15.87 15.87h-133.3c-8.75 0-15.86-7.1-15.86-15.87v-133.3c0-8.76 7.1-15.87 15.87-15.87" style="fill-rule:evenodd;clip-rule:evenodd;fill:#99938e"/><path d="M1681.7 811.03h95.2c8.76 0 15.87 7.1 15.87 15.87v95.2c0 8.77-7.1 15.87-15.87 15.87h-95.2c-8.77 0-15.88-7.1-15.88-15.87v-95.2c0-8.77 7.1-15.87 15.87-15.87" style="fill-rule:evenodd;clip-rule:evenodd;fill:#bbb5b0"/><path d="M1681.7 811.03h95.2c8.76 0 15.87 7.1 15.87 15.87v95.2c0 8.77-7.1 15.87-15.87 15.87h-95.2c-8.77 0-15.88-7.1-15.88-15.87v-95.2c0-8.77 7.1-15.87 15.87-15.87" style="fill-rule:evenodd;clip-rule:evenodd;fill:#bbb5b0"/><path d="M1834.03 801.5h133.3c8.76 0 15.86 7.11 15.86 15.87v133.3c0 8.76-7.1 15.87-15.87 15.87h-133.3c-8.75 0-15.86-7.1-15.86-15.87v-133.3c0-8.76 7.1-15.87 15.87-15.87" style="fill-rule:evenodd;clip-rule:evenodd;fill:#99938e"/><path d="M1834.03 801.5h133.3c8.76 0 15.86 7.11 15.86 15.87v133.3c0 8.76-7.1 15.87-15.87 15.87h-133.3c-8.75 0-15.86-7.1-15.86-15.87v-133.3c0-8.76 7.1-15.87 15.87-15.87" style="fill-rule:evenodd;clip-rule:evenodd;fill:#99938e"/><path d="M1853.07 811.03h95.21c8.76 0 15.87 7.1 15.87 15.87v95.2c0 8.77-7.1 15.87-15.87 15.87h-95.2c-8.77 0-15.88-7.1-15.88-15.87v-95.2c0-8.77 7.1-15.87 15.87-15.87" style="fill-rule:evenodd;clip-rule:evenodd;fill:#bbb5b0"/><path d="M1853.07 811.03h95.21c8.76 0 15.87 7.1 15.87 15.87v95.2c0 8.77-7.1 15.87-15.87 15.87h-95.2c-8.77 0-15.88-7.1-15.88-15.87v-95.2c0-8.77 7.1-15.87 15.87-15.87" style="fill-rule:evenodd;clip-rule:evenodd;fill:#bbb5b0"/><path d="M2005.4 801.5h133.3c8.76 0 15.87 7.11 15.87 15.87v133.3c0 8.76-7.1 15.87-15.87 15.87h-133.3c-8.75 0-15.86-7.1-15.86-15.87v-133.3c0-8.76 7.1-15.87 15.87-15.87" style="fill-rule:evenodd;clip-rule:evenodd;fill:#99938e"/><path d="M2005.4 801.5h133.3c8.76 0 15.87 7.11 15.87 15.87v133.3c0 8.76-7.1 15.87-15.87 15.87h-133.3c-8.75 0-15.86-7.1-15.86-15.87v-133.3c0-8.76 7.1-15.87 15.87-15.87" style="fill-rule:evenodd;clip-rule:evenodd;fill:#99938e"/><path d="M2024.45 811.03h95.21c8.76 0 15.87 7.1 15.87 15.87v95.2c0 8.77-7.1 15.87-15.87 15.87h-95.21c-8.76 0-15.87-7.1-15.87-15.87v-95.2c0-8.77 7.1-15.87 15.87-15.87" style="fill-rule:evenodd;clip-rule:evenodd;fill:#bbb5b0"/><path d="M2024.45 811.03h95.21c8.76 0 15.87 7.1 15.87 15.87v95.2c0 8.77-7.1 15.87-15.87 15.87h-95.21c-8.76 0-15.87-7.1-15.87-15.87v-95.2c0-8.77 7.1-15.87 15.87-15.87" style="fill-rule:evenodd;clip-rule:evenodd;fill:#bbb5b0"/><path d="M2176.79 801.5h133.3c8.75 0 15.86 7.11 15.86 15.87v133.3c0 8.76-7.1 15.87-15.87 15.87h-133.3c-8.76 0-15.86-7.1-15.86-15.87v-133.3c0-8.76 7.1-15.87 15.87-15.87" style="fill-rule:evenodd;clip-rule:evenodd;fill:#99938e"/><path d="M2176.79 801.5h133.3c8.75 0 15.86 7.11 15.86 15.87v133.3c0 8.76-7.1 15.87-15.87 15.87h-133.3c-8.76 0-15.86-7.1-15.86-15.87v-133.3c0-8.76 7.1-15.87 15.87-15.87" style="fill-rule:evenodd;clip-rule:evenodd;fill:#99938e"/><path d="M2195.83 811.03h95.21c8.76 0 15.87 7.1 15.87 15.87v95.2c0 8.77-7.1 15.87-15.87 15.87h-95.21c-8.76 0-15.87-7.1-15.87-15.87v-95.2c0-8.77 7.1-15.87 15.87-15.87" style="fill-rule:evenodd;clip-rule:evenodd;fill:#bbb5b0"/><path d="M2195.83 811.03h95.21c8.76 0 15.87 7.1 15.87 15.87v95.2c0 8.77-7.1 15.87-15.87 15.87h-95.21c-8.76 0-15.87-7.1-15.87-15.87v-95.2c0-8.77 7.1-15.87 15.87-15.87" style="fill-rule:evenodd;clip-rule:evenodd;fill:#bbb5b0"/><path d="m-47.55 553.32 16.56-43.16h6.28l17.57 43.16h-6.5l-5-13.08H-36.8l-4.68 13.08zm12.42-17.72h14.7l-4.5-11.96a154 154 0 0 1-3.09-9.01 61 61 0 0 1-2.38 8.3zM-56.52 376a35 35 0 0 0 7.37 4l-1.7 3.98a34 34 0 0 1-9.28-5.29 21.4 21.4 0 0 1-10.58 2.66q-5.85 0-10.61-2.82a19 19 0 0 1-7.33-7.94 25 25 0 0 1-2.57-11.53q0-6.37 2.59-11.61a18 18 0 0 1 7.36-7.97 21 21 0 0 1 10.69-2.73q5.97 0 10.76 2.83t7.31 7.95a25.6 25.6 0 0 1 2.51 11.5q0 5.33-1.63 9.57a20 20 0 0 1-4.89 7.4m-12.54-7.3q4.94 1.39 8.13 4.13 5.02-4.59 5.02-13.78 0-5.23-1.77-9.13a13.6 13.6 0 0 0-5.2-6.07 14 14 0 0 0-7.67-2.16q-6.38 0-10.57 4.36-4.2 4.38-4.2 13.03 0 8.4 4.15 12.9t10.62 4.5q3.04 0 5.75-1.16a19 19 0 0 0-5.63-2.47zM84.8 381.94l-11.37-43.15h5.93l6.47 28.3q1.06 4.44 1.86 8.81 1.7-6.9 1.99-7.95l8.15-29.17h6.88l6.2 21.85a129 129 0 0 1 3.36 15.27q.85-4.08 2.2-9.37l6.74-27.74h5.73l-11.8 43.15h-5.56l-9.06-32.88-1.4-5.06q-.73 2.95-1.3 5.05l-9.06 32.9zm171.68 0v-43.15h31.16v5.06H262.2v13.26h23.81v5.06H262.2v14.71h26.46v5.06zm168.49 0v-43.15h19.12q5.78 0 8.78 1.16t4.79 4.1a12 12 0 0 1 1.78 6.5q0 4.59-2.97 7.74-2.96 3.15-9.17 4 2.28 1.1 3.44 2.15a29 29 0 0 1 4.73 5.75l7.46 11.75h-7.13l-5.7-8.98a80 80 0 0 0-4.12-5.96 13 13 0 0 0-2.9-2.88 9 9 0 0 0-2.6-1.15q-.97-.2-3.18-.2h-6.6v19.17zm5.72-24.1h12.26q3.91 0 6.1-.82a6.4 6.4 0 0 0 3.34-2.6 7 7 0 0 0 1.15-3.86q0-3.07-2.21-5.04-2.22-1.97-7-1.97H430.7zm181.78 24.1v-38.09h-14.23v-5.06h34.18v5.06h-14.23v38.09zm171.07 0v-18.28l-16.63-24.88h6.87l8.53 13.07q2.39 3.63 4.4 7.26 1.99-3.4 4.78-7.6l8.36-12.72h6.66l-17.24 24.87v18.28zm185.76-43.52h5.73v24.92q0 6.53-1.47 10.34a12.7 12.7 0 0 1-5.3 6.22q-3.84 2.4-10.07 2.4-6.05 0-9.9-2.09t-5.5-6.04q-1.64-3.97-1.64-10.82v-24.93h5.73v24.92q0 5.63 1.04 8.29a8 8 0 0 0 3.58 4.1q2.53 1.45 6.2 1.45 6.26 0 8.94-2.85 2.66-2.86 2.66-11zm157.31 43.52v-43.15h5.72v43.15zm153.59-21q0-10.74 5.78-16.81 5.77-6.07 14.9-6.07 5.97 0 10.78 2.86 4.79 2.85 7.3 7.95a26 26 0 0 1 2.53 11.57q0 6.56-2.65 11.73a18 18 0 0 1-7.5 7.83 21.5 21.5 0 0 1-10.5 2.67q-6.09 0-10.9-2.95a19 19 0 0 1-7.26-8.02 24 24 0 0 1-2.48-10.76m5.9.1q0 7.79 4.2 12.26a13.8 13.8 0 0 0 10.52 4.48q6.44 0 10.6-4.52 4.17-4.52 4.16-12.84 0-5.26-1.77-9.18a13.7 13.7 0 0 0-5.2-6.08 14 14 0 0 0-7.7-2.16 14.6 14.6 0 0 0-10.43 4.16q-4.37 4.16-4.37 13.88m169.63 20.9v-43.15h16.3q4.29 0 6.57.4 3.18.54 5.33 2.02 2.16 1.5 3.47 4.15 1.3 2.67 1.3 5.88a13.2 13.2 0 0 1-3.5 9.3q-3.5 3.8-12.67 3.8h-11.07v17.6zm5.73-22.66h11.15q5.54 0 7.86-2.06t2.32-5.8a7.8 7.8 0 0 0-1.36-4.64 6.4 6.4 0 0 0-3.6-2.55q-1.46-.38-5.33-.38h-11.04zM126.89 539.46l5.36-.49q.38 3.25 1.78 5.35a10 10 0 0 0 4.34 3.38q2.94 1.28 6.62 1.28 3.27 0 5.77-.97 2.5-.98 3.71-2.69c1.21-1.7 1.23-2.37 1.23-3.7q0-2-1.18-3.53-1.17-1.5-3.89-2.54a79 79 0 0 0-7.68-2.1q-5.95-1.42-8.33-2.7a11.7 11.7 0 0 1-4.59-4.02 10 10 0 0 1-1.52-5.37q0-3.3 1.86-6.12a11.5 11.5 0 0 1 5.42-4.32 21 21 0 0 1 7.91-1.48q4.8 0 8.46 1.55a12 12 0 0 1 5.64 4.55q1.96 3 2.12 6.8l-5.49.42q-.43-4.08-2.98-6.17-2.55-2.1-7.53-2.09-5.18 0-7.55 1.9a5.7 5.7 0 0 0-2.37 4.58q0 2.33 1.68 3.83 1.65 1.5 8.6 3.08 6.97 1.57 9.56 2.75 3.76 1.72 5.55 4.39 1.8 2.65 1.8 6.12 0 3.44-1.98 6.48a13 13 0 0 1-5.65 4.73 20 20 0 0 1-8.3 1.68q-5.85 0-9.8-1.7a13.6 13.6 0 0 1-6.2-5.14 14.5 14.5 0 0 1-2.37-7.74m170.68 13.86v-43.16h14.87q5.04 0 7.69.62 3.7.85 6.33 3.1a17.5 17.5 0 0 1 5.1 7.37q1.7 4.5 1.7 10.26 0 4.92-1.15 8.71a21 21 0 0 1-2.94 6.3 16 16 0 0 1-3.94 3.9 16 16 0 0 1-5.14 2.17q-3.03.74-6.94.73zm5.73-5.06h9.2q4.27 0 6.7-.8c2.42-.8 2.9-1.27 3.86-2.24a14 14 0 0 0 3.15-5.47 27 27 0 0 0 1.14-8.33q0-6.78-2.22-10.43t-5.4-4.88q-2.28-.89-7.38-.88h-9.05zm168.94 5.06v-43.15h29.11v5.06h-23.39v13.44h20.26v5.06h-20.26v19.59zm187.62-16.94v-5.06h18.26v16a32 32 0 0 1-8.68 5.03 26 26 0 0 1-9.18 1.7q-6.35 0-11.55-2.73a18 18 0 0 1-7.84-7.87 25 25 0 0 1-2.65-11.5q0-6.3 2.63-11.76a17.5 17.5 0 0 1 7.58-8.1q4.95-2.65 11.39-2.65 4.67 0 8.46 1.52a14 14 0 0 1 5.93 4.22 19 19 0 0 1 3.26 7.07l-5.15 1.4a16 16 0 0 0-2.41-5.18 10 10 0 0 0-4.12-3.01 15 15 0 0 0-5.94-1.14q-3.9 0-6.76 1.2a13 13 0 0 0-4.6 3.14 15 15 0 0 0-2.71 4.27 23 23 0 0 0-1.65 8.7q0 5.78 1.98 9.69a12.8 12.8 0 0 0 5.77 5.77 18 18 0 0 0 8.06 1.89q3.7 0 7.23-1.44a19 19 0 0 0 5.35-3.07v-8.09zm152.82 16.94v-43.15h5.72v17.78h22.3v-17.78h5.73v43.15h-5.73v-20.31h-22.3v20.31zm176.45-12.62 5.12-.7q.21 4.95 1.85 6.8a5.8 5.8 0 0 0 4.56 1.82 7 7 0 0 0 3.7-.98 5 5 0 0 0 2.15-2.69q.58-1.69.58-5.4V509.8h5.73v29.4q0 5.4-1.31 8.4a9.3 9.3 0 0 1-4.15 4.53 14 14 0 0 1-6.65 1.55q-5.68 0-8.69-3.26-3-3.27-2.9-9.72m165.35 12.62v-43.15h5.73v21.39l21.43-21.39h7.74l-18.1 17.49 18.88 25.66h-7.53l-15.36-21.78-7.06 6.83v14.95zm175.75 9.52v-43.15h5.73v38.09h21.21v5.06zM-147.92 210.65h-5.3v-33.77a27 27 0 0 1-5.03 3.66 35 35 0 0 1-5.58 2.73v-5.13a32 32 0 0 0 7.77-5.06q3.34-2.97 4.72-5.77h3.42zm177.72-5.06v5.06H1.25q-.06-1.9.62-3.69 1.09-2.9 3.53-5.73a57 57 0 0 1 6.93-6.51q7-5.78 9.5-9.14t2.5-6.4q0-3.14-2.26-5.3a8.2 8.2 0 0 0-5.9-2.16q-3.83 0-6.14 2.29-2.3 2.27-2.33 6.32l-5.43-.54q.56-6.09 4.21-9.28 3.65-3.2 9.82-3.2 6.2 0 9.83 3.45a11.3 11.3 0 0 1 3.63 8.55q0 2.6-1.07 5.1a20 20 0 0 1-3.51 5.28 89 89 0 0 1-8.17 7.6 93 93 0 0 0-6.14 5.43q-1.35 1.42-2.24 2.87zm142.95-6.75 5.3-.73q.91 4.53 3.1 6.51a7.7 7.7 0 0 0 5.36 2q3.77 0 6.34-2.6a8.8 8.8 0 0 0 2.56-6.42 8.14 8.14 0 0 0-8.46-8.4q-1.5 0-3.74.6l.59-4.64q.53.06.85.06a11 11 0 0 0 6.12-1.77q2.7-1.77 2.71-5.43 0-2.9-1.98-4.82a7 7 0 0 0-5.1-1.9q-3.09 0-5.16 1.95-2.06 1.96-2.65 5.88l-5.3-.97q.97-5.33 4.42-8.28 3.44-2.93 8.57-2.93 3.53 0 6.5 1.52a10.9 10.9 0 0 1 6.12 9.67 9 9 0 0 1-1.5 5.08q-1.5 2.29-4.44 3.64a10 10 0 0 1 5.94 3.67q2.11 2.78 2.11 6.96 0 5.66-4.11 9.6-4.13 3.93-10.43 3.92-5.68 0-9.43-3.4a13 13 0 0 1-4.3-8.77m189.32 11.72v-10.3H343.3v-4.89l19.71-27.96h4.34v27.96h5.85v4.89h-5.85v10.3zm0-15.19v-19.42l-13.53 19.42zm153.29 3.23 5.55-.42q.62 4.05 2.85 6.1a7.8 7.8 0 0 0 5.45 2.03q3.87 0 6.5-2.88 2.62-2.9 2.62-7.65 0-4.53-2.51-7.16-2.52-2.62-6.66-2.62a9.1 9.1 0 0 0-7.83 4.22l-5-.72 4.16-22.18h21.4v5.06H524.7l-2.3 11.64a14 14 0 0 1 8.12-2.72q5.64 0 9.52 3.92t3.88 10.06q0 5.87-3.41 10.13-4.14 5.25-11.32 5.24-5.87 0-9.6-3.3t-4.25-8.75m199.21-20.92-5.24.42q-.72-3.12-2.02-4.54a7 7 0 0 0-5.33-2.27q-2.55 0-4.5 1.42a12 12 0 0 0-3.95 5.32q-1.44 3.5-1.5 9.97a12 12 0 0 1 4.69-4.32 12.6 12.6 0 0 1 5.8-1.42q5.31 0 9.05 3.91 3.72 3.9 3.73 10.09 0 4.06-1.75 7.55a12.7 12.7 0 0 1-4.83 5.35 13 13 0 0 1-6.95 1.85 13.6 13.6 0 0 1-10.8-4.87q-4.18-4.87-4.18-16.05 0-12.5 4.63-18.2 4.04-4.94 10.89-4.94 5.1 0 8.36 2.86t3.9 7.87m-21.7 18.63q0 2.73 1.17 5.24a8.7 8.7 0 0 0 3.23 3.8 8 8 0 0 0 4.41 1.32q3.39 0 5.79-2.7 2.4-2.73 2.4-7.37 0-4.49-2.37-7.05a7.8 7.8 0 0 0-6.03-2.59 8.2 8.2 0 0 0-6.1 2.59q-2.5 2.56-2.5 6.76m165.6-23.57v-5.06h27.9v4.1q-4.12 4.38-8.16 11.66a71 71 0 0 0-6.26 14.98 56 56 0 0 0-2.03 11.87h-5.43q.1-5.1 2-12.31a65 65 0 0 1 5.48-13.94 60 60 0 0 1 7.6-11.3zm179.36 14.16q-3.3-1.2-4.9-3.45a9 9 0 0 1-1.58-5.36q0-4.72 3.38-7.92t9-3.21q5.64 0 9.08 3.28a10.6 10.6 0 0 1 3.43 8q0 3-1.56 5.22a10 10 0 0 1-4.77 3.44q3.96 1.29 6.01 4.18a11.5 11.5 0 0 1 2.07 6.88q0 5.52-3.9 9.29-3.92 3.76-10.3 3.77-6.36 0-10.28-3.78a12.6 12.6 0 0 1-3.9-9.43q0-4.2 2.13-7.05a10.7 10.7 0 0 1 6.1-3.86m-1.05-9q0 3.06 1.95 5a7 7 0 0 0 5.13 1.96q3.09 0 5.02-1.93a6.4 6.4 0 0 0 1.94-4.73q0-2.93-2-4.92a6.8 6.8 0 0 0-5.02-1.99q-3.06 0-5.04 1.95a6.3 6.3 0 0 0-1.98 4.65m-1.75 19.94q0 2.27 1.05 4.4 1.05 2.1 3.2 3.27a9.4 9.4 0 0 0 4.56 1.16q3.82 0 6.28-2.44a8.4 8.4 0 0 0 2.45-6.2 8.56 8.56 0 0 0-8.9-8.84q-3.76 0-6.2 2.47a8.4 8.4 0 0 0-2.44 6.18m166.76 2.46 5.06-.43q.65 3.59 2.47 5.2a6.8 6.8 0 0 0 4.68 1.61q2.44 0 4.3-1.12a9 9 0 0 0 3-3 18 18 0 0 0 1.96-5.05 27 27 0 0 0 .77-7.54 12 12 0 0 1-4.33 4.1 11.7 11.7 0 0 1-5.95 1.58q-5.34 0-9.05-3.88-3.7-3.88-3.7-10.24 0-6.57 3.87-10.57 3.85-4 9.69-4 4.18 0 7.68 2.28a14 14 0 0 1 5.28 6.45q1.81 4.2 1.81 12.14 0 8.27-1.78 13.17-1.8 4.9-5.35 7.46a13.8 13.8 0 0 1-8.3 2.56q-5.05 0-8.26-2.8-3.2-2.83-3.85-7.93m21.63-19.04q0-4.56-2.4-7.22a7.6 7.6 0 0 0-5.84-2.68 8 8 0 0 0-6.15 2.88q-2.6 2.87-2.6 7.46 0 4.11 2.46 6.68a8.2 8.2 0 0 0 6.14 2.57q3.68 0 6.03-2.57 2.37-2.56 2.37-7.12M1372.5 189q0-7.66 1.56-12.33 1.58-4.7 4.68-7.2 3.09-2.52 7.8-2.52 3.45 0 6.1 1.4 2.62 1.4 4.31 4.04 1.69 2.63 2.66 6.4.97 3.8.97 10.2 0 7.6-1.56 12.28-1.55 4.68-4.66 7.21-3.1 2.53-7.82 2.53-6.23 0-9.79-4.44-4.26-5.41-4.26-17.58m5.42.01q0 10.66 2.48 14.16 2.49 3.5 6.14 3.5t6.14-3.51q2.48-3.53 2.48-14.15 0-10.65-2.48-14.15t-6.2-3.5a6.8 6.8 0 0 0-5.84 3.09q-2.72 3.94-2.72 14.56m171.81 2.64v-5.31h16.39v5.31zm177.11 11.66v-11.81h-11.76v-4.95h11.76v-11.75h5v11.75h11.75v4.95h-11.75v11.81zm-2085.51-.29v-28.5h20.58v3.35h-16.8v8.76h15.72v3.34h-15.72v9.71h17.47v3.34zm24.63-6.16 3.47-.56q.29 2.07 1.62 3.19 1.35 1.1 3.73 1.1 2.41 0 3.59-.98a3 3 0 0 0 1.17-2.3q0-1.19-1.05-1.86-.75-.46-3.58-1.19a33 33 0 0 1-5.33-1.67 5.2 5.2 0 0 1-3.02-4.72q0-1.39.63-2.56t1.72-1.95q.81-.6 2.22-1.01a11 11 0 0 1 3.02-.42q2.43 0 4.26.7a6 6 0 0 1 2.71 1.9q.87 1.2 1.2 3.21l-3.42.48q-.23-1.62-1.35-2.52c-1.12-.9-1.79-.9-3.15-.9q-2.4 0-3.43.8c-1.03.8-1.03 1.15-1.03 1.86q0 .68.43 1.22.42.56 1.34.93.52.2 3.08.9 3.7.98 5.18 1.62a5.3 5.3 0 0 1 2.3 1.83q.85 1.2.85 2.99 0 1.74-1.02 3.28a6.6 6.6 0 0 1-2.95 2.4q-1.93.83-4.36.83-4.02 0-6.13-1.66-2.1-1.68-2.7-4.94m34.8-1.4 3.42.48q-.57 3.53-2.88 5.52c-2.31 2-3.45 2-5.7 2q-4.23 0-6.8-2.76-2.58-2.78-2.58-7.92 0-3.34 1.11-5.85a7.7 7.7 0 0 1 3.37-3.75 10 10 0 0 1 4.93-1.25q3.35 0 5.49 1.7a7.8 7.8 0 0 1 2.74 4.83l-3.39.52a5.7 5.7 0 0 0-1.72-3.14 4.5 4.5 0 0 0-2.99-1.04q-2.64 0-4.3 1.89-1.65 1.88-1.65 5.99 0 4.15 1.59 6.03a5.2 5.2 0 0 0 4.16 1.89q2.07 0 3.44-1.26t1.75-3.88M41.29 724.7v-5.27l22.1-27.67a89 89 0 0 1 4.49-5.15H43.82v-5.07h30.86v5.07l-24.24 29.93-2.6 3.1H75.4v5.06zm168.67 0 16.67-22.4-14.69-20.76h6.8l7.87 11.04a54 54 0 0 1 3.43 5.26q1.46-2.26 3.43-4.82l8.62-11.48h6.26l-14.99 20.52 16.13 22.64h-7l-10.9-15.4a64 64 0 0 1-1.76-2.6 96 96 0 0 1-2.07 3.03l-10.94 14.97zm204.47-15.14 5.72 1.45q-1.8 7.03-6.45 10.72t-11.39 3.7q-6.96 0-11.33-2.85a17.7 17.7 0 0 1-6.64-8.22 29 29 0 0 1-2.28-11.56q0-6.73 2.57-11.75a17.7 17.7 0 0 1 7.32-7.63 21.4 21.4 0 0 1 10.45-2.6q6.48 0 10.88 3.3 4.42 3.3 6.15 9.26l-5.6 1.32q-1.5-4.7-4.36-6.85-2.85-2.15-7.17-2.15-4.96 0-8.3 2.38a12.6 12.6 0 0 0-4.68 6.4 26 26 0 0 0-1.36 8.29q0 5.5 1.6 9.6a12 12 0 0 0 4.97 6.14 14 14 0 0 0 7.3 2.03q4.8 0 8.1-2.76 3.31-2.77 4.5-8.22m155.01 15.14-16.67-43.16h6.18l11.21 31.37q1.36 3.75 2.26 7.06a87 87 0 0 1 2.32-7.06l11.64-31.37h5.82l-16.82 43.16zm158.12 0v-43.16h16.2q4.93 0 7.93 1.31 2.99 1.3 4.67 4.04 1.7 2.7 1.7 5.7 0 2.75-1.5 5.2-1.5 2.44-4.52 3.95 3.92 1.15 6.02 3.91a10.5 10.5 0 0 1 2.1 6.53q0 3.04-1.28 5.65a11 11 0 0 1-3.16 4.02 13 13 0 0 1-4.73 2.13q-2.85.72-6.97.72zm5.73-25.01h9.33q3.8 0 5.44-.5 2.2-.66 3.29-2.16c1.09-1.5 1.1-2.27 1.1-3.78q0-2.16-1.03-3.79a5.2 5.2 0 0 0-2.94-2.25q-1.92-.6-6.56-.6h-8.63zm0 19.95h10.74q2.77 0 3.9-.21a9 9 0 0 0 3.3-1.18 6.3 6.3 0 0 0 2.18-2.4q.85-1.59.85-3.66 0-2.41-1.25-4.2a6.5 6.5 0 0 0-3.43-2.52q-2.2-.72-6.3-.72h-10zm164.96 5.06v-43.16h5.86l22.64 33.88v-33.88h5.49v43.16h-5.87l-22.64-33.87v33.87zm167.79 0v-43.16h8.56l10.2 30.55q1.42 4.27 2.06 6.4.75-2.37 2.32-6.93l10.38-30.02h7.65v43.16h-5.49v-36.1l-12.6 36.1h-5.14l-12.45-36.77v36.77zm189.13-13.32v-6.03h6.03v6.03q0 3.33-1.19 5.38a7.7 7.7 0 0 1-3.76 3.18l-1.44-2.3a5 5 0 0 0 2.47-2.16 9 9 0 0 0 .9-4.1zm171.2 4.28v-6.03h6.03v6.03zm165.99 19.28 12.54-44.6h4.26l-12.53 44.6zm-80.12-217.09v-6.03h6.03v6.03zm0 25.25v-6.02h6.03v6.02q0 3.34-1.19 5.39a7.7 7.7 0 0 1-3.76 3.17l-1.44-2.27a5 5 0 0 0 2.47-2.17q.8-1.43.9-4.12zm176.8-10.45v6.14h-5.66v-4.88q-.01-3.92.94-5.67a8 8 0 0 1 3.94-3.55l1.27 2.06a4.7 4.7 0 0 0-2.4 2q-.76 1.35-.85 3.9zm131.79-144.71h-11.69v-4.4h6.39v-46.35h-6.39v-4.4h11.69zm-183.07 0h11.69v-4.4h-6.39v-46.35h6.39v-4.4h-11.69zm395.57-5.28-12.48-44.6h4.24l12.48 44.6zM-347.3 374.4v-25.16h-9.4v-3.35h22.57v3.35h-9.4v25.15zm25.7-2.6a13 13 0 0 1-3.74 2.35q-1.8.69-3.87.68-3.4 0-5.24-1.66a5.5 5.5 0 0 1-1.83-4.23 5.7 5.7 0 0 1 2.5-4.77q1.13-.75 2.52-1.15 1.04-.27 3.12-.52a32 32 0 0 0 6.25-1.2l.02-.9q0-2.14-1-3.01-1.34-1.19-3.99-1.18-2.48 0-3.65.87-1.19.86-1.75 3.07l-3.42-.48a8.5 8.5 0 0 1 1.54-3.56q1.08-1.35 3.1-2.08a14 14 0 0 1 4.7-.73q2.64 0 4.31.62a6 6 0 0 1 2.44 1.57 5.6 5.6 0 0 1 1.1 2.39q.15.9.16 3.22v4.64q0 4.87.22 6.16.21 1.3.86 2.5h-3.66a8 8 0 0 1-.68-2.6m-.27-7.76q-1.9.78-5.73 1.32-2.17.3-3.07.7-.9.38-1.38 1.12-.49.75-.49 1.66 0 1.39 1.06 2.32 1.07.92 3.1.92t3.61-.88a5.4 5.4 0 0 0 2.32-2.4q.56-1.2.56-3.48zm12.15 10.35H-313v-28.5h3.5v10.17a7 7 0 0 1 5.66-2.76q1.91 0 3.61.76a7.4 7.4 0 0 1 2.8 2.16q1.1 1.38 1.72 3.35.63 1.95.62 4.18 0 5.3-2.62 8.19a8.2 8.2 0 0 1-6.3 2.89 6.6 6.6 0 0 1-5.72-3.04zm-.04-10.48q0 3.7 1 5.35 1.66 2.7 4.47 2.7a5 5 0 0 0 3.96-1.99q1.67-1.98 1.67-5.93 0-4.03-1.6-5.95a4.9 4.9 0 0 0-7.83.06q-1.68 2-1.67 5.76m-26.2 168.36 3.78.96q-1.2 4.64-4.26 7.08a11.7 11.7 0 0 1-7.52 2.44q-4.6 0-7.49-1.88a11.7 11.7 0 0 1-4.38-5.43q-1.5-3.55-1.5-7.63 0-4.46 1.7-7.76 1.7-3.32 4.83-5.04c3.13-1.72 4.39-1.72 6.9-1.72q4.27 0 7.18 2.18a11.3 11.3 0 0 1 4.06 6.12l-3.7.87q-1-3.1-2.87-4.52a7.6 7.6 0 0 0-4.74-1.42 9.2 9.2 0 0 0-5.48 1.57 8.3 8.3 0 0 0-3.09 4.22q-.9 2.66-.9 5.48 0 3.63 1.06 6.34a8 8 0 0 0 3.28 4.05q2.24 1.34 4.82 1.34 3.17 0 5.35-1.82 2.19-1.83 2.97-5.43m21.5 7.41a13 13 0 0 1-3.76 2.34q-1.8.69-3.87.69-3.4 0-5.23-1.66a5.5 5.5 0 0 1-1.83-4.23 5.7 5.7 0 0 1 2.5-4.77q1.12-.76 2.52-1.15 1.04-.27 3.12-.52 4.24-.51 6.25-1.2l.02-.91q0-2.13-1-3-1.35-1.2-4-1.19-2.48 0-3.65.87-1.19.87-1.74 3.07l-3.43-.48A8.5 8.5 0 0 1-327 524a7 7 0 0 1 3.1-2.09 14 14 0 0 1 4.7-.72q2.65 0 4.31.62 1.66.63 2.44 1.57a5.6 5.6 0 0 1 1.1 2.38q.16.9.17 3.22v4.64q0 4.87.21 6.17a8 8 0 0 0 .86 2.5h-3.66a8 8 0 0 1-.68-2.6m-.28-7.76q-1.92.78-5.73 1.32-2.17.3-3.07.7-.9.38-1.38 1.12t-.49 1.66q0 1.39 1.06 2.31 1.07.93 3.1.93t3.6-.88a5.4 5.4 0 0 0 2.32-2.4q.57-1.18.57-3.48zm8.92 18.27v-28.58h3.18v2.72a8 8 0 0 1 2.55-2.37 7 7 0 0 1 3.44-.79q2.64 0 4.66 1.36a8.4 8.4 0 0 1 3.05 3.83 14 14 0 0 1 1.03 5.43q0 3.15-1.13 5.69a8.6 8.6 0 0 1-7.86 5.23 6.6 6.6 0 0 1-3.14-.74 7 7 0 0 1-2.28-1.86v10.08zm3.18-18.12q0 3.96 1.6 5.87a4.95 4.95 0 0 0 7.89-.07q1.66-1.96 1.66-6.1 0-3.93-1.62-5.9a4.9 4.9 0 0 0-3.87-1.95q-2.23 0-3.94 2.08-1.72 2.09-1.72 6.07m17.56 4.03 3.47-.56q.29 2.09 1.62 3.2 1.34 1.1 3.73 1.1 2.41 0 3.59-.98a3 3 0 0 0 1.17-2.3q0-1.2-1.05-1.86-.75-.47-3.58-1.2a33 33 0 0 1-5.33-1.67 5.2 5.2 0 0 1-3.02-4.72q0-1.38.63-2.55.63-1.18 1.72-1.95.81-.6 2.22-1.02a11 11 0 0 1 3.02-.42q2.43 0 4.26.7a6 6 0 0 1 2.7 1.9q.89 1.2 1.21 3.21l-3.42.48a3.8 3.8 0 0 0-1.35-2.52q-1.11-.9-3.15-.9-2.4 0-3.43.8-1.02.8-1.03 1.86 0 .68.43 1.23.42.55 1.34.93.52.2 3.08.9 3.7.99 5.18 1.61a5.3 5.3 0 0 1 2.3 1.83q.85 1.2.85 3 0 1.73-1.02 3.28a6.6 6.6 0 0 1-2.95 2.38q-1.93.85-4.36.85-4.03 0-6.13-1.67t-2.7-4.94m32.63 6.17v-28.5h3.78v25.16h14.01v3.34zm20.55-10.33q0-5.72 3.19-8.48a9.6 9.6 0 0 1 6.5-2.29q4.25 0 6.95 2.79 2.7 2.78 2.7 7.69 0 3.97-1.2 6.25a8.5 8.5 0 0 1-3.47 3.55 10 10 0 0 1-4.98 1.26q-4.34 0-7.02-2.78t-2.67-7.99m3.58 0q0 3.97 1.73 5.93a5.6 5.6 0 0 0 4.37 1.97q2.61 0 4.35-1.97 1.73-1.99 1.73-6.04 0-3.81-1.75-5.78a5.6 5.6 0 0 0-4.33-1.97 5.6 5.6 0 0 0-4.37 1.96q-1.73 1.95-1.73 5.9m33.36 2.77 3.42.48a9 9 0 0 1-2.87 5.52 8.4 8.4 0 0 1-5.7 2q-4.23 0-6.8-2.77-2.58-2.76-2.58-7.92 0-3.34 1.11-5.84a7.7 7.7 0 0 1 3.37-3.75 10 10 0 0 1 4.92-1.26q3.37 0 5.5 1.7a7.8 7.8 0 0 1 2.74 4.83l-3.39.52a5.6 5.6 0 0 0-1.72-3.13 4.5 4.5 0 0 0-2.99-1.05q-2.64 0-4.3 1.9-1.65 1.89-1.65 5.98 0 4.15 1.59 6.04a5.2 5.2 0 0 0 4.16 1.88q2.07 0 3.44-1.26 1.38-1.25 1.75-3.87m6.42 7.56v-28.5h3.5V530l8.28-8.39h4.53l-7.88 7.68 8.68 12.98h-4.32l-6.86-10.56-2.42 2.37v8.19zm-169.05 165.94 3.55-.32q.24 2.14 1.17 3.53a6.5 6.5 0 0 0 2.86 2.23q1.95.84 4.38.85 2.15 0 3.8-.65a5.3 5.3 0 0 0 2.46-1.77q.8-1.12.8-2.44a3.7 3.7 0 0 0-.77-2.34 6 6 0 0 0-2.56-1.67 53 53 0 0 0-5.08-1.39q-3.93-.94-5.5-1.78a7.7 7.7 0 0 1-3.03-2.66 6.5 6.5 0 0 1-1-3.55q0-2.16 1.23-4.04 1.22-1.87 3.57-2.85a14 14 0 0 1 5.23-.97q3.16 0 5.59 1.02a8 8 0 0 1 3.72 3 8.6 8.6 0 0 1 1.4 4.5l-3.63.27q-.28-2.7-1.97-4.07-1.68-1.38-4.96-1.38-3.43 0-5 1.25a3.8 3.8 0 0 0-1.56 3.03q0 1.53 1.1 2.52 1.1 1 5.7 2.03 4.59 1.04 6.3 1.82a8.6 8.6 0 0 1 3.67 2.9 7 7 0 0 1 1.18 4.04 7.7 7.7 0 0 1-1.3 4.28 8.5 8.5 0 0 1-3.73 3.12 13 13 0 0 1-5.49 1.12q-3.86 0-6.47-1.13a9 9 0 0 1-4.09-3.4q-1.49-2.25-1.57-5.1m27.35 9.15v-28.5h3.5v10.26a7.8 7.8 0 0 1 6.16-2.86q2.28 0 3.96.9a5.3 5.3 0 0 1 2.41 2.5q.73 1.59.73 4.62v13.08h-3.5v-13.06q0-2.62-1.13-3.82a4.2 4.2 0 0 0-3.2-1.2q-1.55 0-2.9.81a4.6 4.6 0 0 0-1.95 2.2q-.57 1.35-.58 3.8v11.27zm22.13-24.52v-3.98h3.5v3.98zm0 24.52v-20.66h3.5v20.66zm9.68 0v-17.95h-3.1v-2.7h3.1v-2.2q0-2.07.37-3.08.5-1.35 1.77-2.2a6.4 6.4 0 0 1 3.56-.85q1.47 0 3.27.36l-.53 3.06q-1.09-.19-2.06-.2-1.59 0-2.26.68-.65.69-.65 2.53v1.9h4.02v2.7h-3.98v17.95zm17.83-3.12.48 3.09q-1.48.3-2.64.3-1.89 0-2.95-.6-1.05-.6-1.47-1.58-.43-.99-.43-4.14v-11.9h-2.58v-2.7h2.58v-5.12l3.5-2.1v7.21h3.5v2.7h-3.5v12.1q0 1.52.2 1.94.17.42.59.68t1.2.26q.57 0 1.52-.14m-54.37 164.5 3.78.96q-1.2 4.64-4.26 7.08a11.7 11.7 0 0 1-7.52 2.44q-4.6 0-7.49-1.88a11.7 11.7 0 0 1-4.38-5.43q-1.5-3.55-1.5-7.63 0-4.45 1.7-7.76c1.7-3.31 2.74-3.9 4.83-5.04a14 14 0 0 1 6.9-1.72q4.27 0 7.18 2.18a11.3 11.3 0 0 1 4.06 6.12l-3.7.87q-.99-3.1-2.88-4.52a7.6 7.6 0 0 0-4.73-1.42q-3.28 0-5.48 1.57a8.3 8.3 0 0 0-3.1 4.23q-.89 2.66-.89 5.47 0 3.63 1.05 6.34a8 8 0 0 0 3.29 4.06q2.24 1.35 4.82 1.34 3.16 0 5.35-1.83 2.19-1.82 2.97-5.43m15.6 6.88.48 3.09q-1.47.3-2.63.3-1.9 0-2.95-.6t-1.48-1.58-.42-4.14v-11.9h-2.59v-2.7h2.59v-5.11l3.5-2.1v7.2h3.5v2.71h-3.5v12.1q0 1.5.19 1.93.18.43.6.69.4.24 1.19.25.58 0 1.52-.14m3.42 3.12V868.1h3.15v3.17q1.2-2.2 2.22-2.9t2.25-.7q1.77 0 3.6 1.1l-1.24 3.23a5 5 0 0 0-2.55-.71 3.3 3.3 0 0 0-2.05.69q-.9.7-1.3 1.9-.57 1.87-.58 4.09v10.8zm13.21 0v-28.5h3.5v28.5zm166.85 0-7.5-28.5h3.92l4.27 18.69q.69 2.94 1.23 5.82 1.12-4.55 1.31-5.25l5.39-19.26h4.54l4.09 14.43a85 85 0 0 1 2.22 10.08q.57-2.7 1.45-6.19l4.45-18.32h3.8l-7.81 28.5h-3.67l-5.98-21.71-.92-3.34q-.49 1.95-.87 3.33l-5.97 21.72zm32.22-24.52v-3.98h3.5v3.98zm0 24.52V868.1h3.5v20.66zm8.84 0V868.1h3.15v2.94a7.4 7.4 0 0 1 6.56-3.37q1.86 0 3.43.67a5.4 5.4 0 0 1 2.34 1.75q.78 1.1 1.09 2.58.19.98.19 3.4v12.7h-3.5V876.2q0-2.15-.4-3.2a3.4 3.4 0 0 0-1.45-1.69 5.6 5.6 0 0 0-6.28.79q-1.63 1.41-1.63 5.38v11.27zm166.3 0 10.94-28.5h4.14l11.6 28.5h-4.29l-3.3-8.64h-12l-3.09 8.64zm8.2-11.7h9.71l-2.97-7.9q-1.34-3.6-2.04-5.95-.6 2.78-1.57 5.48zm20.96 11.7v-28.5h3.5v28.5zm16.52-3.12.48 3.09q-1.47.3-2.63.3-1.9 0-2.95-.6t-1.48-1.58-.42-4.14v-11.9h-2.59v-2.7h2.59v-5.11l3.5-2.1v7.2h3.5v2.71h-3.5v12.1q0 1.5.19 1.93.18.43.6.69.4.24 1.19.25.58 0 1.52-.14m1246.3 3.12 10.93-28.5h4.15l11.6 28.5h-4.3l-3.29-8.64h-12l-3.1 8.64zm8.2-11.7h9.71l-2.97-7.9q-1.35-3.6-2.05-5.95-.58 2.78-1.57 5.48zm20.95 11.7v-28.5h3.5v28.5zm16.53-3.12.48 3.09q-1.48.3-2.64.3-1.9 0-2.95-.6t-1.47-1.58-.43-4.14v-11.9h-2.58v-2.7h2.58v-5.11l3.5-2.1v7.2h3.5v2.71h-3.5v12.1q0 1.5.2 1.93.17.43.59.69.42.24 1.2.25.57 0 1.52-.14m133.09 3.12v-28.5h19.22v3.34h-15.44v8.88h13.37v3.34h-13.37v12.94zm23.68 0V868.1h3.14v2.94a7.4 7.4 0 0 1 6.56-3.37q1.87 0 3.43.67a5.4 5.4 0 0 1 2.34 1.75 7 7 0 0 1 1.09 2.58q.2.98.2 3.4v12.7h-3.51V876.2a9 9 0 0 0-.4-3.2 3.4 3.4 0 0 0-1.45-1.69 5.6 5.6 0 0 0-6.28.79q-1.62 1.41-1.62 5.38v11.27zm156.2-10 3.78.96q-1.18 4.64-4.26 7.08a11.7 11.7 0 0 1-7.52 2.44q-4.6 0-7.48-1.88a11.7 11.7 0 0 1-4.39-5.43q-1.5-3.55-1.5-7.63 0-4.45 1.7-7.76a11.7 11.7 0 0 1 4.83-5.04 14 14 0 0 1 6.9-1.72q4.28 0 7.19 2.18a11.3 11.3 0 0 1 4.06 6.12l-3.7.87q-.99-3.1-2.88-4.52a7.6 7.6 0 0 0-4.73-1.42q-3.29 0-5.48 1.57a8.3 8.3 0 0 0-3.1 4.23 17 17 0 0 0-.89 5.47q0 3.63 1.06 6.34a8 8 0 0 0 3.28 4.06q2.22 1.35 4.82 1.34 3.16 0 5.35-1.83 2.19-1.82 2.96-5.43m15.61 6.88.48 3.09q-1.47.3-2.63.3-1.9 0-2.96-.6-1.04-.6-1.47-1.58t-.42-4.14v-11.9h-2.6v-2.7h2.6v-5.11l3.5-2.1v7.2h3.5v2.71h-3.5v12.1q0 1.5.19 1.93.16.43.6.69.4.24 1.19.25.58 0 1.52-.14m3.42 3.12V868.1h3.14v3.17q1.2-2.2 2.23-2.9 1.02-.7 2.25-.7 1.77 0 3.6 1.1l-1.24 3.23a5 5 0 0 0-2.55-.71 3.3 3.3 0 0 0-2.05.69q-.9.7-1.3 1.9-.58 1.87-.58 4.09v10.8zm13.21 0v-28.5h3.5v28.5zm43.33-171.01 3.54-.32q.25 2.14 1.17 3.53a6.5 6.5 0 0 0 2.87 2.23q1.94.84 4.37.85 2.16 0 3.8-.65a5.3 5.3 0 0 0 2.46-1.77q.81-1.12.81-2.44a3.7 3.7 0 0 0-.77-2.33 6 6 0 0 0-2.57-1.68q-1.14-.45-5.08-1.39-3.93-.94-5.5-1.78a7.7 7.7 0 0 1-3.03-2.66 6.5 6.5 0 0 1-1-3.55q0-2.16 1.23-4.04 1.22-1.88 3.57-2.85a14 14 0 0 1 5.23-.97q3.17 0 5.59 1.02a8 8 0 0 1 3.72 3 8.6 8.6 0 0 1 1.4 4.5l-3.62.27q-.3-2.7-1.97-4.07-1.69-1.38-4.97-1.38-3.42 0-5 1.25a3.8 3.8 0 0 0-1.56 3.03q0 1.53 1.11 2.52 1.09 1 5.69 2.03a38 38 0 0 1 6.3 1.82 8.6 8.6 0 0 1 3.67 2.9 7 7 0 0 1 1.18 4.04 7.7 7.7 0 0 1-1.3 4.28 8.5 8.5 0 0 1-3.73 3.12 13 13 0 0 1-5.49 1.12q-3.86 0-6.46-1.13a9 9 0 0 1-4.1-3.39 9.5 9.5 0 0 1-1.56-5.11m27.34 9.15v-28.5h3.5v10.26a7.8 7.8 0 0 1 6.16-2.85q2.28 0 3.97.9a5.3 5.3 0 0 1 2.4 2.5q.73 1.58.73 4.62v13.07h-3.5v-13.06q0-2.62-1.13-3.81a4.2 4.2 0 0 0-3.2-1.2q-1.55 0-2.9.8a4.6 4.6 0 0 0-1.95 2.2 10 10 0 0 0-.58 3.8v11.27zm22.14-24.52v-3.98h3.5v3.98zm0 24.52v-20.65h3.5v20.65zm9.68 0v-17.95h-3.1v-2.7h3.1v-2.2q0-2.07.36-3.08.5-1.36 1.77-2.2a6.4 6.4 0 0 1 3.56-.84q1.48 0 3.27.35l-.52 3.06q-1.1-.18-2.07-.19-1.58 0-2.25.68t-.66 2.52v1.9h4.02v2.7h-3.98v17.95zm17.82-3.12.48 3.09q-1.47.3-2.63.31-1.9 0-2.96-.6-1.04-.6-1.47-1.59-.42-.98-.42-4.14v-11.9h-2.59v-2.7h2.59v-5.11l3.5-2.1v7.2h3.5v2.71h-3.5v12.1q0 1.5.19 1.93.17.43.6.68.4.26 1.19.26.58 0 1.52-.14M1927.53 546v-28.5h20.57v3.34h-16.8v8.75h15.73v3.35h-15.72v9.7h17.47V546zm26.03 0v-20.67h3.14v2.94a7.4 7.4 0 0 1 6.56-3.37q1.88 0 3.43.67a5.4 5.4 0 0 1 2.34 1.75q.78 1.1 1.1 2.59.18.97.18 3.4v12.68h-3.5v-12.55q0-2.15-.4-3.2c-.4-1.05-.76-1.26-1.45-1.69a5.6 5.6 0 0 0-6.28.79q-1.62 1.42-1.62 5.38V546zm29.74-3.13.47 3.09q-1.47.3-2.63.31-1.9 0-2.95-.6t-1.47-1.59-.43-4.14v-11.9h-2.58v-2.7h2.58v-5.11l3.5-2.1v7.2h3.5v2.71h-3.5v12.1q0 1.5.19 1.93.18.43.6.69.41.25 1.2.25.57 0 1.52-.14m17.54-3.57 3.62.48a8.8 8.8 0 0 1-3.15 4.9 9.5 9.5 0 0 1-5.9 1.75q-4.52 0-7.17-2.79-2.64-2.78-2.64-7.8 0-5.2 2.67-8.07a9 9 0 0 1 6.95-2.87q4.13 0 6.74 2.81t2.62 7.92l-.02.93h-15.38q.2 3.4 1.93 5.2a5.7 5.7 0 0 0 4.3 1.8 5.3 5.3 0 0 0 3.28-1.01 6.7 6.7 0 0 0 2.15-3.25m-11.46-5.6h11.5q-.23-2.62-1.32-3.92a5.3 5.3 0 0 0-4.32-2.02q-2.4 0-4.05 1.61a6.4 6.4 0 0 0-1.81 4.32m19.47 12.3v-20.67h3.14v3.17q1.2-2.2 2.23-2.9t2.25-.7q1.77 0 3.6 1.1l-1.24 3.23a5 5 0 0 0-2.55-.71 3.3 3.3 0 0 0-2.05.69q-.9.7-1.3 1.91-.58 1.86-.58 4.08V546zM1891.3 199.27v-28.5h10.7q3.26 0 5.24.87a6.7 6.7 0 0 1 3.09 2.66 7 7 0 0 1 1.12 3.76 6.5 6.5 0 0 1-.99 3.44 7 7 0 0 1-2.99 2.6 6.9 6.9 0 0 1 5.37 6.9q0 2.02-.85 3.74a7 7 0 0 1-2.09 2.65 9 9 0 0 1-3.11 1.4 19 19 0 0 1-4.6.49zm3.79-16.52h6.16q2.5 0 3.6-.33a4 4 0 0 0 2.17-1.42q.72-1 .73-2.5 0-1.42-.69-2.5a3.4 3.4 0 0 0-1.94-1.48q-1.26-.4-4.33-.4h-5.7zm0 13.18h7.1q1.83 0 2.57-.14 1.3-.22 2.18-.78.87-.55 1.44-1.59.56-1.05.56-2.4 0-1.6-.82-2.79a4.3 4.3 0 0 0-2.27-1.65 14 14 0 0 0-4.17-.48h-6.6zm35.98.76a13 13 0 0 1-3.75 2.34q-1.8.68-3.87.68-3.41 0-5.23-1.66a5.5 5.5 0 0 1-1.84-4.23 5.7 5.7 0 0 1 2.5-4.77q1.13-.75 2.53-1.15 1.04-.27 3.11-.52 4.25-.5 6.25-1.2l.02-.91q0-2.13-1-3-1.34-1.2-3.99-1.19-2.48 0-3.65.87-1.18.87-1.74 3.07l-3.43-.47a8.5 8.5 0 0 1 1.54-3.56 7 7 0 0 1 3.1-2.08 14 14 0 0 1 4.7-.73q2.65 0 4.31.62a6 6 0 0 1 2.44 1.57 5.6 5.6 0 0 1 1.1 2.38q.16.9.17 3.22v4.65q0 4.86.22 6.16.2 1.3.85 2.5h-3.66a8 8 0 0 1-.68-2.6m-.28-7.77a26 26 0 0 1-5.73 1.32q-2.18.3-3.06.7-.9.38-1.38 1.12-.5.75-.5 1.66 0 1.38 1.07 2.32 1.06.92 3.1.92 2.02 0 3.6-.88a5.4 5.4 0 0 0 2.32-2.4q.57-1.19.56-3.48zm22.42 2.79 3.42.48a9 9 0 0 1-2.88 5.52 8.4 8.4 0 0 1-5.7 2q-4.22 0-6.8-2.76-2.57-2.78-2.57-7.92 0-3.34 1.1-5.85a7.7 7.7 0 0 1 3.38-3.75 10 10 0 0 1 4.92-1.25q3.36 0 5.5 1.7a7.8 7.8 0 0 1 2.73 4.83l-3.38.51a5.6 5.6 0 0 0-1.73-3.13 4.5 4.5 0 0 0-2.98-1.04q-2.65 0-4.3 1.89t-1.66 5.99q0 4.16 1.6 6.03a5.2 5.2 0 0 0 4.15 1.89q2.07 0 3.45-1.26t1.75-3.88m6.42 7.56v-28.5h3.5V187l8.28-8.4h4.52l-7.88 7.68 8.68 12.98h-4.31l-6.86-10.55-2.43 2.36v8.2zm18.5-6.17 3.46-.55q.29 2.07 1.62 3.19 1.34 1.1 3.73 1.1 2.41 0 3.59-.98a3 3 0 0 0 1.17-2.3q0-1.19-1.05-1.86-.75-.46-3.58-1.2a33 33 0 0 1-5.33-1.66 5.2 5.2 0 0 1-2.39-7.28q.64-1.17 1.72-1.95.82-.6 2.22-1.01t3.02-.42q2.43 0 4.26.7a6 6 0 0 1 2.71 1.9q.87 1.2 1.2 3.2l-3.42.49q-.22-1.62-1.35-2.52c-1.13-.9-1.79-.9-3.15-.9q-2.4 0-3.43.79-1.03.8-1.03 1.86 0 .69.43 1.23.42.56 1.34.93.52.2 3.08.9 3.7.98 5.18 1.62a5.3 5.3 0 0 1 2.3 1.83q.85 1.2.85 2.99 0 1.74-1.02 3.28a6.7 6.7 0 0 1-2.95 2.39q-1.92.84-4.36.84-4.02 0-6.13-1.66-2.1-1.67-2.7-4.95m21.29 14.1v-28.58h3.18v2.7a8 8 0 0 1 2.55-2.35 7 7 0 0 1 3.43-.8q2.65 0 4.67 1.37a8.4 8.4 0 0 1 3.05 3.83 14 14 0 0 1 1.03 5.42q0 3.15-1.13 5.7a8.6 8.6 0 0 1-7.86 5.22 6.6 6.6 0 0 1-3.14-.73 7 7 0 0 1-2.28-1.86v10.07zm3.18-18.13q0 3.97 1.6 5.87a4.95 4.95 0 0 0 7.89-.06q1.66-1.98 1.66-6.1 0-3.95-1.62-5.9a4.9 4.9 0 0 0-3.87-1.96q-2.23 0-3.94 2.09-1.72 2.08-1.72 6.06m32.45 7.62a13 13 0 0 1-3.76 2.34q-1.8.68-3.86.68-3.4 0-5.24-1.66a5.5 5.5 0 0 1-1.83-4.23 5.7 5.7 0 0 1 2.5-4.77q1.13-.75 2.52-1.15 1.04-.27 3.12-.52 4.25-.5 6.25-1.2l.02-.91q0-2.13-1-3-1.34-1.2-3.99-1.19-2.48 0-3.65.87-1.19.87-1.75 3.07l-3.42-.47a8.5 8.5 0 0 1 1.54-3.56q1.07-1.35 3.1-2.08a14 14 0 0 1 4.7-.73q2.64 0 4.31.62a6 6 0 0 1 2.44 1.57 5.6 5.6 0 0 1 1.09 2.38q.17.9.17 3.22v4.65q0 4.86.22 6.16.21 1.3.86 2.5h-3.67a8 8 0 0 1-.67-2.6m-.28-7.77a26 26 0 0 1-5.73 1.32q-2.17.3-3.07.7-.9.38-1.38 1.12-.49.75-.49 1.66 0 1.38 1.06 2.32 1.07.92 3.1.92t3.61-.88a5.4 5.4 0 0 0 2.32-2.4q.56-1.19.56-3.48zm22.41 2.79 3.43.48a9 9 0 0 1-2.88 5.52 8.4 8.4 0 0 1-5.7 2q-4.23 0-6.8-2.76-2.58-2.78-2.57-7.92 0-3.34 1.1-5.85a7.7 7.7 0 0 1 3.37-3.75 10 10 0 0 1 4.93-1.25q3.35 0 5.49 1.7a7.8 7.8 0 0 1 2.74 4.83l-3.38.51a5.6 5.6 0 0 0-1.73-3.13 4.5 4.5 0 0 0-2.99-1.04q-2.64 0-4.3 1.89t-1.65 5.99q0 4.16 1.59 6.03a5.2 5.2 0 0 0 4.16 1.89 5 5 0 0 0 3.44-1.26q1.38-1.26 1.75-3.88m20.5.88 3.62.47a8.8 8.8 0 0 1-3.15 4.9 9.5 9.5 0 0 1-5.9 1.75q-4.52 0-7.17-2.79-2.64-2.78-2.64-7.8 0-5.2 2.67-8.07a9 9 0 0 1 6.95-2.87q4.13 0 6.74 2.81t2.62 7.92l-.02.93h-15.38q.2 3.4 1.93 5.2a5.7 5.7 0 0 0 4.3 1.8q1.93 0 3.28-1.01a6.7 6.7 0 0 0 2.15-3.24m-11.46-5.62h11.5q-.23-2.6-1.32-3.9a5.3 5.3 0 0 0-4.32-2.03q-2.4 0-4.05 1.62a6.4 6.4 0 0 0-1.81 4.31m-1.27 527.96h-5.42l10.37-23.57h4.28l10.42 23.57h-5.3l-7.27-17.54zm14.23 147.81h5.42l-10.36 23.56h-4.28l-10.43-23.56h5.3l7.28 17.54zm-166.71 18.89v5.43l-23.57-10.37v-4.28l23.57-10.43v5.31l-17.54 7.27zm319.19 0v5.43l23.57-10.37v-4.28l-23.57-10.43v5.31l17.54 7.27zM2216.5 374.4v-28.5h9.82q3.31 0 5.07.4a10 10 0 0 1 4.18 2.04q2.26 1.92 3.37 4.87a19 19 0 0 1 1.12 6.78q0 3.24-.75 5.75a14 14 0 0 1-1.94 4.15 10 10 0 0 1-2.6 2.59 11 11 0 0 1-3.4 1.43q-2 .48-4.59.48zm3.78-3.35h6.08q2.82 0 4.42-.53a6 6 0 0 0 2.55-1.47q1.35-1.34 2.08-3.62.76-2.26.76-5.5 0-4.47-1.47-6.89a7.4 7.4 0 0 0-3.56-3.22q-1.52-.59-4.88-.58h-5.98zm38.62-3.34 3.62.47a8.8 8.8 0 0 1-3.16 4.9 9.5 9.5 0 0 1-5.9 1.75q-4.51 0-7.16-2.79-2.64-2.78-2.65-7.8 0-5.2 2.68-8.07a9 9 0 0 1 6.94-2.87q4.13 0 6.75 2.81t2.62 7.92l-.02.93h-15.38q.2 3.4 1.92 5.2a5.7 5.7 0 0 0 4.3 1.8 5.3 5.3 0 0 0 3.28-1 7 7 0 0 0 2.16-3.25m-11.47-5.62h11.5q-.22-2.6-1.31-3.9a5.3 5.3 0 0 0-4.33-2.03q-2.4 0-4.04 1.61a6.4 6.4 0 0 0-1.82 4.32m19.43 12.3v-28.5h3.5v28.5zm-67.57 167.42v-28.5h10.76q2.83 0 4.34.28 2.1.35 3.52 1.32a7 7 0 0 1 2.29 2.75q.86 1.76.86 3.88 0 3.63-2.32 6.14t-8.36 2.51h-7.31v11.62zm3.78-14.96h7.36q3.66 0 5.2-1.36a4.9 4.9 0 0 0 1.53-3.84q0-1.77-.9-3.06a4.2 4.2 0 0 0-2.39-1.68q-.95-.25-3.51-.25h-7.3zm21.68 16.67 3.39.48q.2 1.57 1.18 2.3 1.3.96 3.57.96 2.43 0 3.75-.96a4.8 4.8 0 0 0 1.8-2.72q.26-1.06.24-4.47a7.2 7.2 0 0 1-5.71 2.7q-4.26 0-6.6-3.07a11.8 11.8 0 0 1-2.33-7.36q0-2.95 1.07-5.45a8.5 8.5 0 0 1 3.1-3.85 8.4 8.4 0 0 1 4.77-1.36q3.65 0 6.02 2.98v-2.54h3.23v17.83q0 4.83-.98 6.84a7 7 0 0 1-3.1 3.17 11 11 0 0 1-5.24 1.17q-3.7 0-5.96-1.66-2.28-1.65-2.2-4.99m2.87-12.39q0 4.05 1.61 5.91a5.2 5.2 0 0 0 4.05 1.87 5.2 5.2 0 0 0 4.05-1.85q1.63-1.86 1.63-5.82 0-3.78-1.68-5.7a5.2 5.2 0 0 0-8.03-.03q-1.63 1.89-1.63 5.62m33.4 10.68v-3.07a7.5 7.5 0 0 1-6.53 3.51 8 8 0 0 1-3.4-.7 6 6 0 0 1-2.35-1.75 7 7 0 0 1-1.07-2.6q-.21-1.04-.22-3.26v-12.78h3.5v11.43q0 2.73.22 3.68a3.6 3.6 0 0 0 1.4 2.17 4.3 4.3 0 0 0 2.63.79q1.57 0 2.95-.8a4.5 4.5 0 0 0 1.95-2.2q.57-1.38.57-4.03v-11.04h3.5v20.65zm8.65 7.92v-28.58h3.18v2.72a8 8 0 0 1 2.55-2.37 7 7 0 0 1 3.44-.79q2.65 0 4.66 1.36a8.4 8.4 0 0 1 3.06 3.83 14 14 0 0 1 1.02 5.43q0 3.15-1.13 5.7a8.6 8.6 0 0 1-7.86 5.22 6.6 6.6 0 0 1-3.13-.74 7 7 0 0 1-2.29-1.86v10.08zm3.18-18.12q0 3.97 1.61 5.87a4.95 4.95 0 0 0 7.88-.07q1.65-1.96 1.66-6.1 0-3.93-1.62-5.89c-1.62-1.96-2.37-1.96-3.87-1.96q-2.23 0-3.94 2.09-1.72 2.08-1.72 6.06m-73.56 181.59v-28.5h10.76q2.83 0 4.34.26 2.1.36 3.52 1.33a7 7 0 0 1 2.29 2.75q.86 1.75.86 3.88 0 3.62-2.32 6.13-2.31 2.52-8.36 2.52h-7.31v11.62zm3.78-14.97h7.36q3.66 0 5.2-1.36a4.9 4.9 0 0 0 1.53-3.84q0-1.78-.9-3.06a4.2 4.2 0 0 0-2.39-1.68q-.95-.25-3.51-.25h-7.3zm21.68 16.67 3.39.48q.2 1.57 1.18 2.3 1.3.96 3.57.96 2.43 0 3.75-.96a4.8 4.8 0 0 0 1.8-2.72q.26-1.06.24-4.48a7.2 7.2 0 0 1-5.71 2.71q-4.26 0-6.6-3.07a11.8 11.8 0 0 1-2.33-7.36q0-2.95 1.07-5.45a8.5 8.5 0 0 1 3.1-3.85 8.4 8.4 0 0 1 4.77-1.36q3.65 0 6.02 2.98v-2.54h3.23v17.83q0 4.83-.98 6.84a7 7 0 0 1-3.1 3.17 11 11 0 0 1-5.24 1.17q-3.7 0-5.96-1.66-2.28-1.65-2.2-4.99m2.87-12.39q0 4.05 1.61 5.91a5.2 5.2 0 0 0 4.05 1.87 5.2 5.2 0 0 0 4.05-1.86q1.63-1.85 1.63-5.8 0-3.8-1.68-5.71a5.2 5.2 0 0 0-8.03-.03q-1.63 1.89-1.63 5.62m33.25 10.68v-2.62a6.4 6.4 0 0 1-5.77 3.06 8 8 0 0 1-4.53-1.36 9 9 0 0 1-3.21-3.79 13 13 0 0 1-1.14-5.6q0-3.08 1.03-5.6a8.1 8.1 0 0 1 7.69-5.18 6.9 6.9 0 0 1 5.7 2.84V684.7h3.5v28.5zm-11.07-10.3q0 3.96 1.68 5.92a4.98 4.98 0 0 0 7.86.09q1.6-1.88 1.6-5.72.01-4.22-1.63-6.2a5.03 5.03 0 0 0-7.94-.08q-1.57 1.9-1.57 5.99m19.87 10.3v-20.66h3.15v2.94a7.4 7.4 0 0 1 6.56-3.37q1.86 0 3.43.67a5.4 5.4 0 0 1 3.43 4.33q.18.98.19 3.4v12.69h-3.5v-12.55q0-2.15-.4-3.2a3.4 3.4 0 0 0-1.46-1.69 5.6 5.6 0 0 0-6.28.79q-1.62 1.41-1.62 5.38v11.27zm-36.19-521.04v-3.98a6.9 6.9 0 0 1 5.41-2.31q1.17 0 2.46.34 1.28.35 3.65 1.36 1.35.57 2.02.75t1.34.18q1.27 0 2.63-.76a10 10 0 0 0 2.4-1.91v4.14a8 8 0 0 1-2.52 1.67q-1.28.51-2.87.52-1.18 0-2.23-.27-1.06-.28-3.36-1.32a10 10 0 0 0-3.85-1.04q-1.24 0-2.34.53t-2.74 2.1" style="fill:#6d6e70"/><path d="M-1308.75-734.75h4535.43v2551.18h-4535.43z" style="fill:none;stroke:#000;stroke-width:.5;stroke-miterlimit:2.6131"/><path d="M111.5 1338.9v-216.85h96.12q29 .01 44.07 5.85t24.08 20.6c9.02 14.75 8.98 20.75 8.98 32.66q-.01 23.1-14.94 38.92c-9.94 10.55-25.29 17.21-46.09 20.09 7.63 3.63 13.38 7.27 17.32 10.8q12.58 11.52 23.72 28.88l37.5 59.06h-35.83l-28.67-45.13c-8.33-13.07-15.25-23.02-20.65-29.93-5.45-6.92-10.3-11.72-14.59-14.5a44 44 0 0 0-13.07-5.75q-4.83-.99-15.95-1h-33.22v96.3zm28.78-121.14h61.59c13.12 0 23.32-1.36 30.69-4.1q11.06-4 16.76-13.01a35 35 0 0 0 5.75-19.44c0-10.25-3.68-18.73-11.1-25.34q-11.14-9.9-35.14-9.9h-68.55zm293.23 70.26 27.56 3.64c-4.29 16-12.31 28.47-24.02 37.3q-17.56 13.27-44.88 13.28-34.38 0-54.52-21.2-20.13-21.15-20.14-59.42c0-26.35 6.77-46.84 20.34-61.38q20.37-21.87 52.86-21.86 31.42-.01 51.33 21.4c19.91 21.42 19.94 34.38 19.94 60.28q0 2.36-.15 7.07H344.77c1.01 17.2 5.86 30.43 14.64 39.57 8.73 9.14 19.69 13.73 32.76 13.73q14.62 0 24.94-7.72 10.36-7.73 16.4-24.69m-87.22-42.7h87.53c-1.16-13.23-4.55-23.12-10.05-29.73-8.43-10.25-19.43-15.4-32.91-15.4-12.22 0-22.46 4.09-30.8 12.27q-12.41 12.26-13.77 32.86m206.3 69.81 3.64 23.52c-7.47 1.57-14.19 2.38-20.04 2.38q-14.46.01-22.47-4.6c-5.3-3.08-9.03-7.06-11.2-12.06q-3.24-7.5-3.23-31.5v-90.56h-19.7v-20.6h19.7v-38.86l26.65-16v54.87h26.65v20.6h-26.65v92.07q-.01 11.43 1.41 14.69 1.37 3.24 4.55 5.2 3.18 1.9 9.08 1.91 4.41 0 11.61-1.06m26 23.78v-157.2h23.93v24.08q9.15-16.74 16.96-22.06a29.5 29.5 0 0 1 17.11-5.35q13.48.01 27.41 8.43l-9.49 24.59q-9.69-5.46-19.38-5.45-8.7 0-15.6 5.25-6.9 5.22-9.85 14.53-4.45 14.17-4.44 31.05v82.13zm91.16-78.6q-.01-43.53 24.28-64.51c13.48-11.61 29.99-17.42 49.42-17.42q32.35 0 52.96 21.2 20.53 21.15 20.54 58.51 0 30.28-9.09 47.6a64.4 64.4 0 0 1-26.5 26.96c-11.56 6.4-24.23 9.59-37.9 9.59q-33 .01-53.36-21.1-20.36-21.14-20.35-60.83m27.26.05q0 30.16 13.18 45.08 13.23 15 33.26 15 19.83.01 33.07-15.05 13.17-15.06 13.17-45.89-.01-29.08-13.27-44.01-13.27-15-32.97-15c-13.37 0-24.43 4.95-33.26 14.9Q697 1230.3 697 1260.36m393.13 2.48 28.78 7.26c-6.01 23.58-16.81 41.5-32.41 53.87q-23.4 18.56-57.24 18.57-34.98.01-56.94-14.28-21.95-14.25-33.37-41.3c-7.62-18.07-11.46-37.4-11.46-58.1q0-33.84 12.92-59.06 12.95-25.2 36.8-38.31 23.86-13.09 52.5-13.08 32.56-.01 54.67 16.56 22.18 16.57 30.9 46.54l-28.18 6.67c-5-15.75-12.31-27.26-21.85-34.43q-14.31-10.82-36.04-10.8c-16.61 0-30.54 3.98-41.7 11.96-11.15 7.98-19.03 18.73-23.52 32.15a130 130 0 0 0-6.82 41.65q0 27.65 8.03 48.26c5.35 13.78 13.68 24.03 24.99 30.84a70 70 0 0 0 36.7 10.2c16.05 0 29.58-4.65 40.68-13.89 11.1-9.28 18.63-23.01 22.56-41.28m50.94-2.53q-.02-43.53 24.28-64.51 20.24-17.42 49.42-17.42 32.34 0 52.95 21.2 20.53 21.15 20.54 58.51c0 20.2-3.02 36.04-9.08 47.6a64.4 64.4 0 0 1-26.5 26.96c-11.56 6.4-24.23 9.59-37.91 9.59q-33 .01-53.36-21.1-20.36-21.14-20.34-60.83m27.26.05q0 30.16 13.17 45.08c8.83 10 19.89 15 33.27 15q19.82.01 33.06-15.05 13.17-15.06 13.18-45.89-.01-29.08-13.28-44.01-13.26-15-32.96-15c-13.38 0-24.43 4.95-33.27 14.9q-13.17 14.91-13.17 44.97m150.58 78.55v-216.86h26.65v216.86zm57.9-78.6q-.02-43.53 24.27-64.51c13.48-11.61 29.99-17.42 49.42-17.42q32.35 0 52.96 21.2 20.53 21.15 20.54 58.51c0 20.2-3.03 36.04-9.08 47.6a64.4 64.4 0 0 1-26.5 26.96c-11.57 6.4-24.24 9.59-37.92 9.59q-32.99.01-53.35-21.1-20.36-21.14-20.35-60.83m27.25.05q0 30.16 13.18 45.08 13.23 15 33.26 15 19.83.01 33.07-15.05 13.17-15.06 13.17-45.89-.01-29.08-13.27-44.01-13.27-15-32.97-15-20.03-.01-33.26 14.9-13.18 14.91-13.18 44.97m253.86 78.55v-23.38q-18.3 26.72-49.72 26.7a63.5 63.5 0 0 1-25.9-5.3q-12.04-5.36-17.86-13.37-5.85-8.09-8.18-19.74-1.6-7.88-1.62-24.83v-97.28h26.65v86.98c0 13.88.56 23.27 1.62 28.07 1.67 7.01 5.2 12.46 10.65 16.45q8.1 6 20.04 6 11.97.02 22.41-6.1c6.97-4.09 11.92-9.69 14.85-16.7 2.87-7.02 4.34-17.27 4.34-30.65v-84.04h26.65v157.19zm65.47 0v-157.2h23.93v24.08q9.15-16.74 16.96-22.06a29.5 29.5 0 0 1 17.11-5.35q13.49.01 27.41 8.43l-9.48 24.59q-9.7-5.46-19.39-5.45-8.7 0-15.6 5.25-6.9 5.22-9.84 14.53-4.46 14.17-4.44 31.05v82.13z" style="fill:#6d6e70"/></svg>