<svg xmlns="http://www.w3.org/2000/svg" viewBox="1518 1766.6 902.6 649.7"><path d="M2241.69 1916.1c46.77-.73 90.79 28.79 115.2 68.7 24.42 39.9 31.16 88.67 27.26 135.27-3.81 45.95-18.57 92.84-51.2 125.38-30.52 30.43-72.98 45.1-114.09 57.98-104.78 32.84-211.68 60.36-320.8 72.66-39.91 4.49-80.7 6.9-119.87-1.8s-77.06-29.78-98.57-63.7-23.15-81.57 2.09-112.8c-26.09-15.34-48.54-11.17-70.6-14.58-22.07-3.4-44.05-15.87-52.7-36.44-6.9-16.37-4.5-35-1.56-52.52 7.05-41.96 17.32-85.28 44.46-118.02 27.14-32.75 75.7-51.38 121.36-36.71.41-24.85 16-47.54 35.92-62.38s43.9-23.13 67.6-30.6c89.56-28.3 182.84-48.98 276.65-44.96 33.89 1.47 68.87 6.57 97.5 24.8 28.64 18.24 49.36 52.31 41.35 89.72" style="fill:#f2e9e1"/><path d="M2026.17 1971.03c-43.35 4.93-116.94 10.92-171.7 31.14s-104.98 48.41-120.68 117.7c-7.04 31.13-6.28 63.7 1.56 94.65 7.3 28.85 20.6 57.99 45.27 74.62 19.4 13.06 43.46 16.85 66.73 18.9 119.51 10.56 239.73-15.96 352.38-57.22 29.6-10.86 60.33-23.8 79.52-48.8 21.45-27.93 29.72-80.52 26.94-115.64-3.5-44.34-22.33-76.7-57.75-103.64-30.58-23.24-71.72-27.11-110-24.35-38.33 2.76-84.22 9.47-112.28 12.64" style="fill:#b6d396"/><path d="m1837.75 2124.82-4.05-27.08a144 144 0 0 0-40.2 4.4 61 61 0 0 0 .77 29.25c-6.2-3.02-14.12-.67-18.75 4.43s-6.28 12.39-5.81 19.25c.47 6.87 2.87 13.47 5.48 19.84 7.72-1.38 15.47-2.73 24.77-3.43l1.7 17.28 27.55.59c3.15.06 6.49.08 9.22-1.47 3.46-1.97 5.2-6.13 5.34-10.1.15-3.99-1.09-7.86-.03-12.03 3.55-2.1 7.95-1.84 12.09-2.1 4.14-.27 8.77-1.62 10.5-5.38 1.09-2.4.68-5.2.24-7.77q-2.15-12.71-4.28-25.47c-6.64-2.35-13.97-2.67-24.54-.2" style="fill:#faba3c"/><path d="M2218.66 2020.45c-11.6-5.43-27.09.09-32.6 11.65s-.12 27.08 11.38 32.69 27.09.35 32.78-11.13c5.72-11.44.76-27.43-11.56-33.21" style="fill:#ec707a"/><path d="M2198.56 2095.24c-10.98-4.9-25.36.06-30.9 10.71-5.55 10.65-1.2 25.36 9.27 31.22s25.35 1.8 31.28-8.68 2.93-27.61-9.65-33.25" style="fill:#19b5ea"/><path d="m2017.74 2032.04-84.24 14.32c-9.1 1.55-18.87 3.43-25.2 10.15-7.49 7.95-7.78 20.04-7.66 30.96l.94 80.63c.11 9.04.79 19.34 7.86 24.97 6.37 5.08 15.46 4.29 23.56 3.23q80.95-10.48 161.86-20.92c10.56-1.35 22.07-3.23 29.1-11.18 7.23-8.16 7.49-20.13 7.1-31.02a664 664 0 0 0-7.65-79.99c-1.5-9.56-4.08-20.33-12.56-24.97-5.37-2.93-11.85-2.64-17.96-2.26-21.8 1.35-43.9.77-75.15 6.08" style="fill:#9ab559"/><path d="M1935.4 2075.55c-10.23 4.23-6.39 88.33 2.15 93.64 8.54 5.3 150.06-12.8 157.98-19.75 7.9-6.95.15-80.93-7.48-89.4-7.63-8.49-138.59 9.73-152.64 15.51" style="fill:#511239"/><path d="M1882.33 2270.16c-58.57 0-99.65-12.53-125.27-38.12-22.15-22.12-32.22-53.93-30.78-97.3 2.2-66.05 48.36-114.64 130.02-136.8 64.17-17.4 180.02-37.44 277.26-42.05 94.57-4.49 142.84 18.99 166.61 81.02 23.3 60.74-6.04 131.4-65.4 157.51-63.33 27.85-205.4 70.95-337.3 75.44q-7.75.3-15.14.3m-23.36-262.27c-44.54 12.09-119.72 44.69-122.45 127.2-1.35 40.35 7.75 69.7 27.76 89.67 25.3 25.27 69.98 37 132.83 34.86 130.46-4.46 270.93-47.03 333.52-74.59 47.44-20.86 83.86-82.04 59.94-144.42-22.18-57.87-66.1-78.73-156.54-74.45-96.48 4.58-211.42 24.45-275.06 41.73m-1.32-4.96" style="fill:#511239"/><path d="M1889.78 2313.09c-42.37 0-81.7-4.73-106.87-18.43-47.8-26-56.98-132.43-57.33-136.95a5.15 5.15 0 0 1 4.7-5.54 5.15 5.15 0 0 1 5.54 4.7c.09 1.05 9.1 105.4 52.02 128.75 40.53 22.04 130.84 23.07 254.38 2.9 116.23-18.95 196.19-45.36 225.12-74.3 30.45-30.45 41.75-103.25 30.78-143.18a5.1 5.1 0 0 1 3.58-6.31 5.15 5.15 0 0 1 6.3 3.58c11.69 42.57-.64 120.4-33.44 153.2-39.03 39.02-147.01 63.52-230.76 77.17-40.82 6.66-99.88 14.4-154.02 14.4" style="fill:#511239"/><path d="M1922.44 2202.73c-8.28 0-14.26-.68-16.55-2.3-12.56-8.88-15.06-90.57-12.2-122.56 2.04-23.1 6.24-28.05 10.08-29.84 11.1-5.2 64.65-14.7 107.9-20.54 95.78-12.91 102.2-4.84 104.6-1.82 8.78 11.03 13.5 65.93 14.03 72.16 1.91 23.27 3.9 63.52-4.3 71.71-8.64 8.66-85.9 20.3-109.34 23.65-27.85 4.05-70.46 9.54-94.22 9.54m-10.6-10.74c16.73 5.46 194.37-20.01 207.02-29.79 7.6-9.62-.91-116.7-10.42-129.87-3.9-2.2-29.08-3.72-98.3 5.75-50.85 6.99-93.28 15.47-101.7 19.14-3.02 3.46-6.63 26.32-5.37 67.25 1.23 39.9 5.87 63.5 8.77 67.52m-5.86-139.29" style="fill:#511239"/><path d="M1947.9 2175.17c-6.54 0-11.23-.47-13.08-1.61-10.89-6.78-11.38-63.2-10.03-79.37 1.2-14.56 3.72-21.3 8.65-23.36 8.28-3.43 48-9.65 80.08-13.47 71.36-8.48 76.08-3.26 78.34-.76 7.7 8.54 13.2 57.51 11.92 80.05-.53 9.12-1.97 14.11-4.85 16.63-6.48 5.73-59.15 12.91-81.48 15.73-24.47 3.08-52.96 6.16-69.54 6.16m-7.51-10.41c15.03 3.1 138.71-12.5 151.62-19.2 4.67-8.7-1.23-72.47-7.51-81.71-12.44-4.61-129.02 9.71-146.6 16.25-5.96 8.6-3.96 74.5 2.5 84.66m-125.66 33.01c-7.4 0-15.64-2-18.31-10.71-.35-1.18-.88-3.43-1.76-10.15-5.99.55-10.48.96-12.18 1.14-14.44 1.64-16-11.62-17.49-24.44-2.23-19.2 4.43-24.53 15.08-26.65q3.1-.61 9.22-1.46l-.27-2.85a978 978 0 0 0-1.29-13.3c-1.52-13.2 8.84-14.87 24.5-17.4 20.16-3.25 25.12 2.3 26.85 13.04.12.64.2 1.32.36 1.96q.78 3.89 1.96 12.53c4.73-.47 10.83-1.05 12.77-1.11 12.17-.36 15.05 16.75 16.02 22.39 1.14 6.72 4.16 24.59-9.69 28.78-1.35.41-4.1 1.03-13.08 2.11.35 3.73.73 7.6.76 9.07.41 12.12-16.96 15.03-22.68 15.96-2.47.41-6.46 1.09-10.77 1.09m-15.58-31.57c2.58 0 4.78 1.9 5.1 4.51 1.2 10.04 1.8 12.65 2 13.3.4 1.29 1.61 5.19 17.6 2.52 11.6-1.94 14.15-4.7 14.12-5.49-.03-1.03-.38-5.07-1.23-13.38a5.15 5.15 0 0 1 4.51-5.63c12.45-1.41 15.56-2.09 16.32-2.32 1.3-.38 5.2-1.58 2.52-17.22-1.93-11.39-4.63-13.85-5.54-13.85h-.03c-1.3.02-7.07.55-17.02 1.58a5.14 5.14 0 0 1-5.64-4.46 300 300 0 0 0-2.9-19.1c-.76-4.67-1.12-6.78-15.05-4.52-4.43.7-14.76 2.38-15.94 3.96 0 0-.17.44 0 2.11.2 1.82.68 6.84 1.3 13.5l.73 7.75a5.1 5.1 0 0 1-4.43 5.57c-6.37.82-10.89 1.53-13.47 2.03-5.28 1.05-8.48 1.67-6.9 15.37 1.85 15.9 3.29 15.73 6.14 15.4 1.84-.2 6.9-.67 13.58-1.28l3.73-.35q.24.02.5 0m407.33-95.49c-3.98 0-8-.76-11.7-2.38-13.85-6.01-21.07-23.18-15.43-36.76 5.63-13.5 23.03-21.13 37.3-16.32 8.8 2.97 15.34 8.98 18.39 16.9a28 28 0 0 1-1.5 23.48c-5.25 9.42-16.14 15.08-27.05 15.08m1.03-46.65c-7.8 0-15.81 4.58-18.69 11.47-3.52 8.42 1.27 19.57 10.04 23.39 8.89 3.84 21.13-.1 25.7-8.28a17.7 17.7 0 0 0 .88-14.76c-1.38-3.58-4.6-8.36-12.12-10.89a18 18 0 0 0-5.8-.93m-20.11 119.66c-4 0-8.02-.76-11.71-2.38-13.85-6.01-21.07-23.2-15.44-36.77 5.6-13.5 23.04-21.12 37.3-16.31 8.8 2.96 15.34 8.98 18.4 16.9a28 28 0 0 1-1.5 23.48c-5.25 9.41-16.17 15.08-27.05 15.08m1.02-46.66c-7.8 0-15.81 4.58-18.69 11.48-3.52 8.45 1.26 19.57 10.04 23.38 8.89 3.87 21.12-.09 25.7-8.27 2.4-4.32 2.76-9.98.88-14.76-1.38-3.58-4.6-8.37-12.12-10.89a18 18 0 0 0-5.8-.94" style="fill:#511239"/><path d="M1809.73 1966.84c-3.02 0-5.84-.97-8.16-2.82-3.31-2.67-4.84-6.54-5.78-9.6a61 61 0 0 1-1.58-29.69c1.64-8.42 5.08-14.52 10.21-18.2a17.5 17.5 0 0 1 13.59-2.78c3.99.85 7.27 3.11 9.21 6.37a5.16 5.16 0 0 1-1.79 7.04 5.16 5.16 0 0 1-7.04-1.79c-.59-.97-1.67-1.38-2.5-1.55a7.2 7.2 0 0 0-5.51 1.11c-2.9 2.08-4.96 6.04-6.08 11.8a51 51 0 0 0 1.32 24.7c.53 1.68 1.27 3.7 2.41 4.64.85.67 2 .62 2.82.44a6.6 6.6 0 0 0 4.31-3.29c2.23-4.58-.15-10.47-1.3-12.82a5.14 5.14 0 0 1 5.46-7.3c4.3.7 8.7.26 12.77-1.2a5.15 5.15 0 0 1 3.55 9.64 35 35 0 0 1-9.8 2.09c1.09 5.13.62 9.98-1.4 14.11a16.9 16.9 0 0 1-11.3 8.8q-1.79.29-3.4.3m43.21-16.14q-1.1 0-2.14-.47a5.13 5.13 0 0 1-2.52-6.8 294 294 0 0 0 16.4-44.9 5.2 5.2 0 0 1 4.93-3.79h.03a5.1 5.1 0 0 1 4.93 3.73l11.5 40.4a5.12 5.12 0 1 1-9.86 2.82l-6.75-23.7a313 313 0 0 1-11.82 29.69 5.2 5.2 0 0 1-4.7 3.02" style="fill:#e35a26"/><path d="M1859.58 1942.28a5.14 5.14 0 0 1-.76-10.21l19.9-2.94a5.14 5.14 0 0 1 1.52 10.15l-19.9 2.94q-.4.07-.76.06m48.3-4.32q-.48 0-.97-.08a5.14 5.14 0 0 1-4.07-6.02 178 178 0 0 0 3.08-35.45 5.12 5.12 0 0 1 9.68-2.46 188 188 0 0 1 9.95 22.48l16.66-29.14a5.15 5.15 0 0 1 9.6 2.4l1.08 40.88a5.14 5.14 0 0 1-10.27.3l-.58-22.51-13.27 23.2a5.12 5.12 0 0 1-9.39-1.08 184 184 0 0 0-4.13-12.3q-.8 7.9-2.3 15.65a5.2 5.2 0 0 1-5.07 4.13m65.59-7.3a5.14 5.14 0 0 1-5.13-5.13 146 146 0 0 1 4.4-35.75 5.12 5.12 0 1 1 9.94 2.5 135 135 0 0 0-3.96 27.02l16.46-3.1a5.14 5.14 0 0 1 1.94 10.09l-22.69 4.31q-.48.05-.97.06" style="fill:#e35a26"/><path d="M1978.98 1891.16a5.13 5.13 0 0 1-1.23-10.12l17.46-4.29a5.14 5.14 0 1 1 2.46 9.98l-17.46 4.28q-.6.15-1.23.15m-.61 17.52a5.14 5.14 0 0 1-.59-10.24l17.37-2a5.13 5.13 0 1 1 1.17 10.22l-17.37 2zm79.33 13.06c-4.6 0-8.15-3.67-9.23-9.57a52.3 52.3 0 0 1 7.04-36.8 5.2 5.2 0 0 1 3.05-2.22 5 5 0 0 1 2.5-3.26c4.69-2.58 10.94-.62 13.93 4.4 2.2 3.67 2.2 7.84 1.97 11.06a62.4 62.4 0 0 1-11.06 31.28c-.88 1.26-3.52 5.05-8.13 5.1zm1.48-9.69h.03zm5.66-32.68q-.17.75-.65 1.5a42 42 0 0 0-5.8 28.54 52 52 0 0 0 8.33-24.76c.11-1.73.17-3.85-.56-5.08-.12-.2-.35-.38-.56-.47zm53.52 35.06a5.1 5.1 0 0 1-4.81-3.37 513 513 0 0 1-6.93-20.22l-4.28 17.14a5.1 5.1 0 0 1-6.22 3.72 5.1 5.1 0 0 1-3.73-6.22l8.8-35.18a5.2 5.2 0 0 1 4.9-3.9c2.38.08 4.4 1.5 5.02 3.72 2.23 7.93 4.7 15.88 7.31 23.71l8.9-24.94a5.13 5.13 0 0 1 6.56-3.11 5.1 5.1 0 0 1 3.11 6.57l-13.76 38.65a5.2 5.2 0 0 1-4.87 3.43m51.88-22.21a5.16 5.16 0 0 1-5.02-6.25l4.9-22a5.14 5.14 0 0 1 10.04 2.22l-4.9 22a5.1 5.1 0 0 1-5.02 4.03m-3.4 34.57a5.15 5.15 0 0 1-5.14-4.88c-.2-3.72.5-7.5 2-10.94a5.13 5.13 0 1 1 9.41 4.14 14 14 0 0 0-1.14 6.25 5.14 5.14 0 0 1-4.84 5.4q-.13.04-.3.03" style="fill:#e35a26"/><path d="M1815.83 2051.08a4.4 4.4 0 0 1-3.14-7.48c.77-.76 18.84-18.99 47.07-24.59a4.4 4.4 0 0 1 1.7 8.63c-25.47 5.04-42.31 21.95-42.49 22.12-.85.88-2 1.32-3.14 1.32m71.4-30.28a4.4 4.4 0 0 1-.97-8.71l8.68-1.97a4.4 4.4 0 1 1 1.97 8.6l-8.69 1.96q-.51.13-1 .12m61.89 102.06a5.1 5.1 0 0 1-5.1-4.61c-1.65-16.14 1.05-27.82 1.17-28.32a5.14 5.14 0 0 1 10 2.35c-.06.24-2.4 10.68-.96 24.91a5.14 5.14 0 0 1-4.58 5.64q-.3.04-.53.03m1.06 27.54a5.14 5.14 0 0 1-5.02-4.07l-1.06-5.1c-.58-2.8 1.2-5.5 4-6.08s5.48 1.2 6.07 3.99l1.05 5.1a5.13 5.13 0 0 1-3.99 6.08c-.35.03-.7.09-1.05.09" style="fill:#fff7ed"/><path d="M1687.28 2016.78a5.1 5.1 0 0 1-4.55-2.76c-6.45-12.38-21.5-29.37-21.65-29.52a5.14 5.14 0 0 1 7.66-6.83c.64.73 16.05 18.1 23.1 31.6a5.14 5.14 0 0 1-4.56 7.51m-33.16 41.64q-.75.02-1.5-.24l-32.89-9.97a5.14 5.14 0 0 1 2.96-9.83l32.9 9.97a5.15 5.15 0 0 1-1.47 10.07m-39.72 57.04a5.14 5.14 0 0 1-.18-10.27l28.26-.9a5.15 5.15 0 0 1 .35 10.26l-28.26.91z" style="fill:#511239"/></svg>