<svg xmlns="http://www.w3.org/2000/svg" viewBox="3274 959.7 744.9 894.9"><path d="M3849.1 1482.85c-12.14 31.74-72.73 128.82-84.86 160.56 42.54-6.3 150.16-14.98 175.26 17.96 24.35 31.96 3.17 102.92-195.08 144.03-85.88 17.8-370.7 20.51-396.28 3.38-39.14-26.22-55.57-92.65-23.8-127.43 29.65-32.45 98.36-10.42 136.58-37.95-43.14-88.03-105.2-276.03-99.31-380.08 2.94-51.97 14.03-104.57 41.18-148.98 27.16-44.4 72.06-79.78 123.63-86.85 51.57-7.08 108.34 18.57 132 55.93 28.24-39.46 68.7-72.02 116.16-82.05 47.47-10.03 101.73 6.03 129.5 45.81 17.13 24.54 23.07 55.61 21.33 85.48-1.73 29.88-10.62 58.87-13.13 91.83 22.49-10.8 50.5 5.2 61.54 27.57s9.64 48.62 7.67 73.5c-3.02 38.1-7.29 77.67-27.33 110.23-20.05 32.56-60.57 55.73-105.07 47.06" style="fill:#f5ecdf"/><path d="M3885.65 1283.4c13.04 4.35 13.04 100.03 4.35 113.08-4.05 6.09-62.63 25.31-125 42.8-71.8 20.18-148.7 38.14-153.35 31.14-8.7-13.05-21.74-100.03-13.04-113.08 6.21-9.3 143.04-45.19 225.67-63.41 33.18-7.3 57.63-11.79 61.37-10.53m-67.41 106.56c4.35-8.7 6.52-54.37-6.53-54.37s-121.77 26.1-130.47 30.45-4.35 52.18 8.7 56.53 123.95-23.92 128.3-32.61" style="fill:#fae69c"/><path d="M3846.5 1113.79c26.1 78.28-22.22 180.14-22.22 180.14-82.63 18.22-219.46 54.1-225.68 63.4-8.7 13.05 4.35 100.04 13.05 113.08 4.66 7 81.55-10.96 153.35-31.14 0 0-118.55 222.5-140.3 231.2-21.74 8.7-82.63-43.49-139.17-204.4s-78.29-343.58 30.44-374.03 143.52 117.43 143.52 117.43c30.45-134.82 160.92-173.97 187.02-95.68" style="fill:#f53176"/><path d="M3811.71 1335.6c13.05 0 10.87 45.66 6.53 54.36-4.35 8.7-115.25 36.96-128.3 32.61s-17.4-52.18-8.7-56.53 117.43-30.45 130.47-30.45" style="fill:#ffa307"/><path d="M3493.15 1220.58a4.3 4.3 0 0 1-4.1-3.08c-7.66-26.22 3.3-56.22 26.04-71.35a4.26 4.26 0 1 1 4.72 7.11c-19.4 12.9-29.1 39.49-22.56 61.85a4.27 4.27 0 0 1-4.1 5.47m9.78 51.87h-2.18a4.27 4.27 0 1 1 0-8.54h2.17a4.27 4.27 0 1 1 0 8.54M3722.56 1379h-2.18a4.27 4.27 0 0 1 0-8.53h2.18a4.27 4.27 0 0 1 0 8.53m39.14 17.4h-2.18a4.27 4.27 0 0 1 0-8.54h2.18a4.27 4.27 0 0 1 0 8.54" style="fill:#fffaee"/><path d="M3685.42 1716.35c-6-2.22-12.92.67-19.22.66-9.8 1.25-19.8 1.76-29.6 3.06.73-6.68 2.14-14.01 1.47-18.85 7.7-1.2 14.3-2.18 21.75-3.02 5.91-1.37 16.22.01 17.35-7.91.9-4.45-3.49-8.49-7.8-7.92l-1.71.17c-1.41.26-11.16 1.18-18.24 2.17-7.57 1.07-15.14 2.16-22.68 3.37-3.45.91-7.65.26-10.55 2.55-6.5 4.47-1.04 15.33 6.47 12.98l1.03-.16c-2.1 17.37-3.94 35.38.26 52.56 1.4 5.82 9.9 6.92 12.77 1.67 2.07-3.54-.06-7.44-.33-11.18.06 2.2-.28-5.24-.34-11.57 15.58-1.62 31.14-3.34 46.6-5.91q.45-.04.9-.14h.01a7 7 0 0 0 3.25-1.8c3.15-3 2.38-8.59-1.39-10.73m12.26-9.31c-1.02 9.96-1.88 19.95-1.68 29.97.17 3.35.22 7.2 2.36 9.94 4.22 6.14 14.44.97 12.22-6.09-1.2-2.57-.32-16.81.34-25.42-.06-3.65 1.62-7.63.19-11.1-2.5-7-13.7-4.69-13.43 2.7m9.48-27.74c-8.42-3.58-13.54 8.58-4.83 11.59 8.43 3.48 13.52-8.56 4.83-11.6m42.67 44.08c-3.87-3.54-4.42-4.4-5.67-6.15 2.72-5.98 7.67-12.58 6.92-18.56-1.48-6.13-10.46-7.3-13.47-1.76q-1.21 2.68-2.47 5.35-.82-1.49-1.69-2.94a7 7 0 0 0-4.08-3.15c-5.66-1.76-10.88 5.02-7.72 10.05 2.18 3.72 4.28 7.63 6.55 11.45a109 109 0 0 0-4.28 11.72c-1.7 4.93-2.18 11.54 4.03 13.24 5.24 1.45 9.09-3.06 9.57-7.93l1.07-3.38a34 34 0 0 0 6.1 4.7c4.85 2.42 10.56-2.77 9-7.87-.5-2.15-2.28-3.43-3.86-4.77m62.71-47.05c-9.82.14-5.66 12.2-5.4 18.39l.2 1.69c-.3 2.51-.64 4.82-1 5.79-.48 6.45-9.01 20.57-12.82 23.87q-.52-1.1-.87-2.3a15 15 0 0 1-.35-1.65c-1.97-14.56-4.56-26.27-3.47-37.33-1.36-6.02-10.87-5.23-11.36.91-1.72 8.32.05 16.87 1.36 25.13 1.17 6.05 1.02 12.34 3.07 18.2 7.4 18.04 20.94 7.2 27.81-4.45.1 5.8-.2 11.78-1.14 18.71-1.7 13.38-4.17 11.67-8.6 11.26-2.92.03-3.45-3.91-9.58-3.8-7.34 1.38-6.78 10.64-.42 13.18 6.28 4.12 15.12 5.25 21.5.74 13.83-9.35 9.6-44.26 6.88-65.56 1.57-10.61.7-20.88-5.81-22.78m87.16 21.8c-1.05.62-1.66 1.61-2.28 2.61q-.23.26-.48.51l-.39.25c-.49.18-1 .33-1.31.42-.47.04-.97.06-1.4.06q-.6-.08-1.17-.22-.22-.5-.4-1a32 32 0 0 1-.85-4.68c2.45-7.84 2.44-15.37-5.13-14.68-5.03 1.06-5.9 7.91-5.44 14.3-1.83 4.36-4.6 8.37-6.25 9.66l-.16.1q-.2-.26-.37-.53c-.47-.78-1.93-6.9-2.06-11.1 6.52-9.77-6.58-15.3-9.12-3.13a23 23 0 0 1-10.25 5.08 19 19 0 0 0-3.22-5.3c-3.55-3.62-10.22-4.68-13.9-.73a7 7 0 0 0-1.96 5.22c-4.56 9.73-6.81 27.6 1.85 33.9 11.4 5.07 18.95-8.57 19.23-18.32q.18-2.78 0-5.67a30 30 0 0 0 7.63-2.72l.84-.53q.18 1.03.41 2.13c1.41 10.9 10.4 16.86 19.2 8.3.66-.54 1.4-1.4 2.19-2.49 4.44 4.76 13.12 5.07 18.6 1.62 2.46-1.8 5.18-4.43 5.41-7.62.66-4.8-5.33-8.17-9.23-5.44m-58.9 21.72-.3.01c-1.02-2.87-1.35-9.15-.19-14.24.14-.93.3-1.64.46-2.27 1.28.66 2.6 1.2 3.96 1.53l.07.47c.9 6.06-2.2 13.28-4 14.5m-451.74-21.74c-.14-3.27-2.75-6.4-6.24-6.25-8.25.35-16.5.32-24.75.02a6.3 6.3 0 0 0-7.36 1.01l-.78.73c-1.84 1.7-2.23 4.6-1.3 6.82a6.3 6.3 0 0 0 5.71 3.84c2.89.14 5.77.16 8.66.22a765 765 0 0 1 1.05 60.93q-2.97.03-5.94-.07c-3.27-.11-6.4 2.95-6.24 6.25a6.37 6.37 0 0 0 6.24 6.24c8.35.3 16.64-.32 24.9-1.58 1.44-.23 3.03-1.67 3.73-2.88a6.4 6.4 0 0 0 .63-4.8 6.3 6.3 0 0 0-2.87-3.74 7.2 7.2 0 0 0-4.81-.63l-1.36.2-.15.02-.23.03-1.4.16q.65-30.08-1.06-60.13c2.44-.05 4.88-.05 7.33-.15 3.26-.14 6.4-2.77 6.24-6.24m164.51 4.56-.11.06-.03.04-.02.05.15-.02q.02-.09 0-.13m-3.76 51.6c.8-.22-.69-.25 0 0m.01 0-.06.01h.01z" style="fill:#e45825"/><path d="M3561.38 1742.91a34 34 0 0 1-6.01 7.58 22 22 0 0 1-4.54 3.47c-.3.14-.7.23-1.03.3l.2.07-.26-.06-.1.03.09-.03c-.34-.06-.41-.04-1-.7l-.13-.16a94 94 0 0 0 7.26-12.02c3.8-7.44 6.93-15.49 8.24-23.77 1.11-7.01 1.42-15-2.61-21.23-3.69-5.69-10.63-7.95-16.1-3.16-4.43 3.89-6.55 10.26-8.14 15.74a109 109 0 0 0-3.9 23.85c-.35 5.9-.37 12.26.98 18.13a28 28 0 0 1-4.88 3.97c-.46.29-2.67 1.34-1.76 1-.24.09-1.38.41-1.8.55q-.4.05-.83.02l-.23-.06-.27-.18-.35-.24-.84-.86a19 19 0 0 1-1.46-2.35 24 24 0 0 1-1.98-5.39q-.29-1.06-.53-2.17c2.46-3.56 4.79-7.2 6.9-10.95 4.33-7.68 8.36-16.1 9.34-24.96.75-6.87-1.87-14.04-8.95-16.3-6.24-1.99-11.87.22-15.43 5.57-3.34 5.01-4.5 11.44-5.28 17.3a94 94 0 0 0 .19 26.42 115 115 0 0 1-9.62 11.52c-.3.32-1.62 1.48-2.22 2.2a4 4 0 0 1-.34-1.03c-.3-1.51-.16-3.2-.15-4.72q.02-4.36.37-8.68a67 67 0 0 1 2.4-12.89c.81-1.59 1.4-3.3 1.66-5.09 1.18-7.9-9.17-10.95-12.05-3.32-.33.88-.59 1.77-.88 2.66-1.64 3.1-5.11 4.03-8.94 4.06q-2.77 0-5.53-.24c-.95-3.05-2.64-5.76-5.5-7.4-6.73-3.86-15.03 1.71-13.56 9.42.81 4.28 3.7 6.74 7.25 8.2l-.21.93c-.85 3.4-1.45 7.37-2.86 10.58-1.12 2.54-3.01 5.8-5.23 7.53l-1.06.64c-2.5-7.73-1.65-16.27-4.23-23.94-2.32-6.92-11.55-5.27-12.27 1.66-.39 3.81-1.1 7.8-1.96 11.8-.85 3.97-1.62 8.8-3.92 12.27l-.12.18c-.21.26-.5.43-.75.64-.69-3.55-1.1-7.1-1.54-10.7q-1.43-11.67-2.83-23.35c-.41-3.35-2.58-6.25-6.25-6.25-3.06 0-6.66 2.88-6.25 6.25 1.31 10.8 2.53 21.6 3.94 32.4.6 4.65 1.86 9.13 5.72 12.14a11.5 11.5 0 0 0 12.91.8c3.1-1.73 5.2-4.37 6.77-7.37 1.9 3.87 5.06 6.78 9.97 6.62 6.97-.23 12.4-5.98 15.82-11.48 3.48-5.59 5.46-12.45 6.59-18.98 3.57.34 7.23.41 10.67-.2l-.12 1c-.6 6.14-1.39 13.32.38 19.33 1.86 6.31 7.68 10.83 14.4 9.2 5.03-1.2 8.58-5.72 11.86-9.44l1.62-1.93c2.5 5.61 6.38 10.18 12.5 11.35 6.6 1.27 12.6-1.55 17.79-6.06 3.23 3.15 7.54 4.9 12.56 3.71 7.08-1.66 12.4-7.76 16.57-13.33a51 51 0 0 0 2.64-3.8c4.23-6.85-6.57-13.13-10.79-6.3m-111.19 15.2c.16.15.13.21 0 0m73-52.86-.05-.16h.01zm-3.2 4.22q.36-1.2.83-2.36c.02.07.96-1.8 1.22-2.2l.04-.08.02-.03.33.01.69.27a9 9 0 0 1 .17 1v.1q.04 1.25-.07 2.49c-.15 1.5-1.36 5.64-2.27 8.07a72 72 0 0 1-3.32 7.37c.14-2.71.4-5.35.81-7.8.38-2.3.86-4.6 1.55-6.84m33.56-6.68c-.07.26-.32.74-.17.06l.02-.04h-.02l.04-.05v-.03h.03q.1-.1.1-.07l.28-.17-.34.11c.3-.46.97.02.06.19m-2.6 4.52c.18-.45.49-1.14.89-1.93l.2.61c.32 1.31.25 1.2.3 2.9.17 5.88-1.37 11.6-3.4 17.3a89 89 0 0 1-3.16 7.67q.21-4.96.96-9.85c.9-5.65 2.14-11.35 4.22-16.7" style="fill:#e45825"/><path d="M3494.44 1711.28c8.04 0 8.05-12.5 0-12.5-8.04 0-8.05 12.5 0 12.5" style="fill:#e45825"/><path d="M3850.55 1112.44c-9.44-28.33-33.24-44.31-63.78-42.8-47.35 2.36-104.45 45.5-127.54 123.85a261 261 0 0 0-11.65-29c-10.42-21.98-28.7-51.63-56.56-68.09-22.73-13.41-48.37-16.26-76.2-8.47-27 7.57-47.55 24.56-61.06 50.5-47.35 90.97 3.63 260.42 27.74 329.05 45.65 129.94 94.68 191.1 125.34 205.03 4.6 2.08 8.92 3.14 12.8 3.14q3.61 0 6.64-1.21c21.76-8.7 119.72-190.45 141.6-231.44 62.41-17.55 120.84-36.91 125.67-44.15 8.58-12.88 9.25-85.65 1.01-109.67-1.93-5.63-4.33-8.75-7.56-9.82-4.7-1.57-28.34 2.75-55.43 8.6a383 383 0 0 0 17.75-53.7c8.18-32.72 15.04-80.4 1.23-121.82m33.7 175.03c2.85 2.35 6.99 19.47 7.5 51.07.46 29.11-2.33 51.12-5.17 55.4-4.46 4.63-52.17 21.45-122.79 41.26l-.02.01q-5.57 1.57-11.32 3.15c-80.7 22.23-129.77 31.36-137.6 29.09-3.24-5.82-8.47-27.02-12.01-54.13-4.05-31.03-3.24-49.38-.77-53.48 4.82-4.46 50.48-19.44 139.87-41.96 79.2-19.94 135.12-31.21 142.32-30.4m-144.8 22.24c-51.27 12.92-138.2 35.97-144.4 45.26-9.92 14.9 4.08 104.36 13.05 117.81 2.02 3.03 6.34 3.44 10.3 3.44 19.6 0 79.29-13.86 138.1-30.06-56.07 104.66-120.57 215.22-133.38 220.35-3.08 1.23-7.48.61-12.75-1.78-27.73-12.59-76-72.54-120.81-200.08-49.45-140.75-60-261.22-28.22-322.28 12.37-23.77 31.14-39.32 55.78-46.22 25.5-7.14 48.9-4.58 69.53 7.59 49.97 29.48 68.51 105.94 68.7 106.7a4.3 4.3 0 0 0 4.15 3.3h.02a4.3 4.3 0 0 0 4.14-3.33c18.9-83.72 76.45-129.9 123.54-132.25 26.84-1.32 46.98 12.14 55.26 36.98 23.35 70.04-14.93 161.02-21.17 175.06a3333 3333 0 0 0-81.84 19.5" style="fill:#360623"/><path d="M3672.68 1389.54c1.07 15.02 5.88 33.74 15.9 37.08 1.32.44 3.22.63 5.57.63 15.88 0 52.22-8.9 64.25-11.96 27.15-6.9 60.23-16.58 63.65-23.42 4.36-8.71 6.3-42.64-1.26-54.89-2.89-4.67-6.53-5.66-9.08-5.66-14.56 0-123.33 26.38-132.38 30.9-7.22 3.61-7.27 18.67-6.65 27.32m10.57-19.73c8.64-4.1 115.89-29.95 128.46-29.95.68 0 1.37.88 1.82 1.6 5.85 9.48 3.83 39.91 1.02 46.32-8.8 8.33-112.67 34.26-123.26 30.75-2.58-.86-6.21-6.77-8.52-18.03-3.23-15.77-1.54-28.74.48-30.7" style="fill:#360623"/></svg>