<svg xmlns="http://www.w3.org/2000/svg" viewBox="1435.7 1495.7 925.7 754.3"><path d="M2301.89 2052.97c30.46 16.14 31.83 62.9 10.65 90.13-21.15 27.23-56.31 39.04-89.86 47-117.48 27.8-239.72 25.46-360.43 22.96-18.04-.37-37.24-1.1-52.07-11.39-14.84-10.28-21.83-33.82-9.04-46.54-29.36 18.46-61.77 33.05-95.62 38.06-11.78 1.74-24.63 2.13-34.7-4.19-11.85-7.41-16.88-22.64-15.97-36.56.92-13.95 6.75-27.01 12.52-39.77-17.52 4.73-36.2 1.4-54.21-4.12a242 242 0 0 1-80.49 22.92c-13.67 1.4-28.32 1.44-40.14-5.55-18.03-10.69-23.9-35.23-18.74-55.55s18.96-37.21 33.03-52.75c-33.94-29.45-40.08-74.93-28.75-114.12s38.12-72.46 69.68-98.3c31.56-25.86 67.91-45.06 103.99-64.1-.12-32.85-.89-65.32 5.16-96.97s19.47-62.79 43.15-84.61c23.69-21.82 58.7-32.78 89.28-22.68 37.36 12.33 60.13 54.45 57.23 93 25.46-30.98 59.46-57.1 99.01-63.55s84.55 11.18 101.4 47.56c13.64 29.42 6.86 65.1-9.46 93.12-16.36 28.02-41.15 49.96-65.5 71.42 18.03-2.16 35.61 15.66 33.17 33.67 22.22-25.73 60.62-36.02 92.73-24.88 32.1 11.14 55.85 43.04 59.97 67.98 20.06 3.84 40.66 3.02 61.08 3.41s41.3 2.17 59.85 10.72c18.56 8.54 34.52 25.03 37.48 45.23 2.45 16.6-4.3 33.82-15.93 45.9-11.63 12.1-27.68 19.36-44.16 22.35 25.7 6.5 44.86 32.69 45.69 70.2" style="fill:#f2e9e1"/><path d="M2166.52 2017.78a128 128 0 0 1 86.29 2.84c1.68 8.66-4.15 17.4-11.75 21.88s-16.64 5.68-25.4 6.78c-106.64 13.36-213.9 26.76-321.27 22.18-20.97 4.8-37.36 9.13-53.9 9.83-25.19 29.8-61.81 47.68-100.24 52.74-5.52.74-11.23 1.2-16.57-.4s-10.29-5.6-11.45-11.07c-1.22-5.71 1.83-11.42 5.37-16.03a66 66 0 0 1 42.19-24.75c-47.25-4.82-89.58-10.62-131.43-18.9-25.6 7.18-45.54 12.89-65.47 18.6-7.02 2.01-14.35 4.03-21.49 2.62-7.17-1.4-14-7.35-13.76-14.62.15-5.19 3.69-9.61 7.41-13.18a72 72 0 0 1 34.8-18.32c-33.73-26.95-47-72.18-38.52-111.92 8.45-39.74 35.98-73.65 69.74-96.27s73.4-34.95 112.2-41.39a289.6 289.6 0 0 1 1.59-133.56c2.99-11.93 6.86-23.93 14.25-33.79s18.8-17.33 31.13-17.24c13.9.09 26.37 9.83 33.21 21.91s9.04 26.22 10.26 40.08c3.23 35.9 1.03 72.27-5.44 110.95a514 514 0 0 1 91.87-113.7c7.73-7.14 15.78-14.16 25.34-18.59s20.84-6.01 30.61-2.07c15.14 6.13 22.65 24.14 21.58 40.44s-8.82 31.32-16.51 45.72c-17.55 32.84-36.14 66.17-68.62 93.92a258 258 0 0 1 76.16 74.53c22.98-9.58 47.82-14.68 76.4-16.9 8.57-20.49 31.7-33.76 53.53-29.61-1.44 2.84-2.84 5.7-4.8 8.3a33.6 33.6 0 0 1 30.2 12.79 18 18 0 0 0-10.32 2.14c5.34 6.59 9.49 14.19 14.95 19.68 14.04 5.2 25.43 15.63 40.75 28a106.4 106.4 0 0 1 57.26 1.42c2.44.77 4.91 1.62 6.8 3.33s3.09 4.43 2.3 6.84c-.77 2.32-3.06 3.75-5.16 4.94a204 204 0 0 1-44.54 18.6c2.81 19.06.16 38.96-9.55 61.25" style="fill:#fff7ed"/><path d="M1576.47 1933.23c-6.99 17.98 45.23 24.08 47.37 9.55s-41.94-23.5-47.37-9.55m196.75 45.45c-7 17.97 45.23 24.08 47.36 9.55s-41.96-23.5-47.37-9.55" style="fill:#f5a1a6"/><path d="M1654.7 1886.9c-2.69 8.24-12.58 13.82-18.83 5.34-2.9-5.13-1.9-4.46-1.56-10.62-.37-4.8-7.75-5.25-8.85-.61-5.47 23.77 25.54 35.83 36.96 13.7 4.43-9.19-4.43-13.95-7.72-7.81m156.06 37.33c-1.1-4.06-6.72-4.37-8.61-.74-3.39 6.84-10.2 7.7-14.01 5.8-4.49-2.68-5.62-4.82-5.86-9.67 0-6.02-9.19-6.02-9.22 0-.6 16.66 19.6 27.07 32.26 15.56 2.97-2.74 6.23-6.65 5.44-10.95m-92.48 58.45c-3.58-5.86-6.26-5.8-8.67-11.42-1.28-2.23-2.81-7.7-2.78-10.68-.34-3.79.95-8.27-5.07-8.43-4.12 1.07-3.11 3.15-4.36 4.8-3.15 4.45-6.84 8.11-13.86 11.96-2.6 1.56-8.24 3.05-10.38 3.08-1.98.06-4.12.03-5.58 1.62-3.3 3.08-.83 9.1 3.7 8.94 10.43.07 20.93-4.3 27.83-12.14a36.6 36.6 0 0 0 11.47 17.46c3.54 2.93 9.04-.83 7.7-5.2m312.63 50.43c-5.5.43-11.23.15-16.6 1.19-4.27 1.52-2.87 8.4 1.65 8.2 5.15-1 13.58-.11 17.73-2.65 2.5-2.32.64-6.83-2.78-6.74m42-1.2c-1.28-3.5-5.46-2.7-8.42-2.34-3.7.85-8 .55-11.3 2.44-4.36 3-.7 10.26 4.34 8.67 4.82-1.62 17.85-.83 15.38-8.76m-17.86-22.56c-4.9 1.56-11.9 3.33-15.87 2.08-6.5-1.77-9.22 8.12-2.74 9.95a29.7 29.7 0 0 0 18.92-2.14c1.8-.76 3.75-1.8 4.24-3.87a4.76 4.76 0 0 0-4.55-6.02m-316.42-300.76c-.55-9.04.86-14.65 1.13-20.54-.42-5.83-9.43-6.38-10.77-.74a88 88 0 0 0-1.13 22.68c.67 3.85.58 8.24 2.6 11.66 1.89 2.78 6.43 2.41 8.05-.49 1.59-3.93-.12-8.45.12-12.57m4.12 36.59c-1.7-7.38-11.8-4.88-8.82 2.17 2.14 7.24 11.63 4.85 8.82-2.17" style="fill:#511239"/><path d="M1791.4 2087.58q-6.21-.02-12.02-.12a731 731 0 0 1-118.67-11.81c-20.82-3.85-45.17-9.25-68.03-20.06-24.03-11.38-42.95-27.44-54.73-46.48-19.05-30.8-20.76-72.83-4.46-109.67 17.7-40.01 51.04-65.8 75.88-80.36 29.21-17.13 62.82-28.7 97.55-33.6a335 335 0 0 1 2.17-128.2c3.23-15.05 8.08-32.17 19.77-45.02 11.3-12.4 31.63-20.54 48.69-12.09 17.18 8.55 22.83 29.3 25.57 44.17a364 364 0 0 1 3.3 109.63 369 369 0 0 1 82.99-97.36c9.86-8.15 20.79-16.21 33.7-19.93 14.98-4.34 30.4-1.47 40.2 7.47 8.14 7.45 12.66 19.17 12.39 32.17-.28 11.39-3.88 21.98-7.73 31.78a303 303 0 0 1-78.62 113.54c32.81 18.47 58.75 44.5 73.53 73.96 18.19 36.29 19.47 77.83 3.41 111.13-14.5 30.1-44.25 54.78-81.64 67.79-31.47 10.9-65.2 13.06-93.24 13.06m-28.96-480.17c-9.64 0-19.56 5.3-25.7 12.02-9.98 10.96-14.31 26.4-17.24 40.08a324 324 0 0 0-1.07 129.5 5.4 5.4 0 0 1-4.61 6.35c-35.28 4.24-69.56 15.63-99.07 32.97-23.47 13.76-54.94 38.06-71.52 75.48-14.9 33.66-13.46 71.88 3.79 99.71 10.68 17.28 28.05 31.96 50.2 42.46 21.74 10.28 45.27 15.47 65.42 19.2a720 720 0 0 0 116.93 11.62c29.15.55 67.05-.36 101.54-12.36 34.7-12.08 62.24-34.8 75.55-62.35 14.4-29.88 13.12-68.86-3.33-101.7-14.77-29.46-41.66-55.37-75.73-72.95a5.33 5.33 0 0 1-1.04-8.79c35.8-30.58 63.95-70.17 81.47-114.46 3.5-8.85 6.77-18.37 6.99-28.08.21-9.89-3.02-18.65-8.91-24.02-8.46-7.72-21.06-7.69-30.04-5.1-11.05 3.21-20.9 10.5-29.88 17.92-40.62 33.54-73.77 76.24-95.8 123.52a5.37 5.37 0 0 1-6.57 2.81 5.36 5.36 0 0 1-3.51-6.2 354 354 0 0 0 2.26-138.69c-2.35-12.63-6.93-30.15-19.84-36.56a22 22 0 0 0-10.29-2.38" style="fill:#511239"/><path d="M1957.54 1902.92a5.34 5.34 0 0 1-2.5-10.04 170 170 0 0 1 79.1-19.57h.53a5.35 5.35 0 0 1 0 10.69c-.25-.06-.34 0-.5 0-25.72 0-51.33 6.35-74.1 18.34q-1.28.57-2.53.58" style="fill:#511239"/><path d="M2110.06 1913.64a5.36 5.36 0 0 1-4.3-8.52 16.7 16.7 0 0 0 2.5-14.35 16.6 16.6 0 0 0-9.92-10.65 5.34 5.34 0 0 1-.7-9.67q1.51-.82 3.17-1.47c-5.92-3.54-13.74-4.24-19.81-1a5.35 5.35 0 0 1-7.11-7.45 39 39 0 0 1 3.54-5.07c-8.37.64-16.21 3.23-22.56 7.57-10.1 6.9-16.36 18.55-15.9 29.7a5.33 5.33 0 0 1-5.13 5.55 5.3 5.3 0 0 1-5.55-5.13c-.61-14.74 7.47-30.03 20.54-38.97 11.63-7.94 27.2-11.18 42.64-8.86a5.35 5.35 0 0 1 2.08 9.8l-.5.3c9.59 1.07 18.78 6.39 23.63 14.87a5.38 5.38 0 0 1-3.39 7.85 27 27 0 0 1 5.19 9.58 27.7 27.7 0 0 1-4.12 23.72 5.3 5.3 0 0 1-4.3 2.2" style="fill:#511239"/><path d="M1936.42 2073.78q-25.67-.01-47.99-1.16a5.36 5.36 0 0 1-5.06-5.61 5.4 5.4 0 0 1 5.61-5.07c80.5 4.18 194.18-3.08 337.91-21.6 6.87-.9 12.49-1.8 16.94-4.68 3.64-2.35 6.6-7.08 5.31-10.92-1.8-5.44-10.59-7.06-15.65-7.54a139 139 0 0 0-67.24 10.4 5.3 5.3 0 0 1-6.05-1.34 5.3 5.3 0 0 1-.73-6.13 87.7 87.7 0 0 0 5.19-71.58 87.7 87.7 0 0 0-50.64-50.85 5.34 5.34 0 0 1 3.76-9.98c25.97 9.77 47.25 31.13 56.89 57.14 8.12 21.85 7.88 46.55-.3 68.34a150 150 0 0 1 60.12-6.62c16.94 1.61 22.83 8.94 24.79 14.77 3.08 9.19-2.54 18.68-9.62 23.29-6.83 4.42-14.9 5.46-21.36 6.28-117.9 15.2-215.8 22.86-291.88 22.86" style="fill:#511239"/><path d="M2176.47 1960.24a5.34 5.34 0 0 1-.24-10.68 90 90 0 0 0 39.28-11.14c4.12-2.3 6.47-4.76 6.32-6.63-.18-2.22-4.03-4.18-7.75-5.15-18.1-4.7-38.16-1.32-55.83 1.68a5.34 5.34 0 1 1-1.8-10.53c18.74-3.18 39.98-6.78 60.31-1.5 9.37 2.44 15.08 7.75 15.69 14.53.4 4.49-1.31 11.08-11.75 16.9a100 100 0 0 1-44.01 12.5q-.07.03-.22.02m-448.52 177.82c-3.2 0-6.53-.36-9.8-1.55-6.65-2.45-11.29-8.27-11.6-14.5-.3-6.75 4.1-12 8-15.81a137 137 0 0 1 43.8-28.75 5.35 5.35 0 0 1 6.96 2.93 5.35 5.35 0 0 1-2.93 6.95 125 125 0 0 0-40.32 26.47c-2.29 2.26-4.91 5.15-4.8 7.69.1 1.92 2.05 4.03 4.62 4.97 3.26 1.2 7.2.98 10.96.64 39.61-3.54 78.07-22.06 105.48-50.88a5.3 5.3 0 0 1 7.54-.18 5.3 5.3 0 0 1 .18 7.54c-29.18 30.68-70.1 50.4-112.29 54.18-1.83.15-3.79.3-5.8.3m-184.81-48.92c-2.14 0-4.24-.22-6.41-.7-7.57-1.8-13.34-7.51-14.4-14.2-1.41-9.06 5.73-16.33 8.05-18.7a90 90 0 0 1 39.8-23.48 5.35 5.35 0 0 1 2.9 10.28 79.3 79.3 0 0 0-35.07 20.7c-3.78 3.84-5.52 7.05-5.12 9.55.42 2.69 3.48 4.76 6.31 5.43 3.79.89 8.03.25 12.8-.67 23.62-4.42 47-10.9 69.52-19.26a5.36 5.36 0 0 1 6.87 3.15 5.36 5.36 0 0 1-3.15 6.87 437 437 0 0 1-71.26 19.74c-3.64.7-7.2 1.29-10.84 1.29m159.05-130h-.3a28.4 28.4 0 0 1-22.77-14.4c-2.6-4.73-1.71-8.15-.5-10.17 2.48-4.18 7.4-4.45 9.01-4.54 13.7-.83 27.8 1.19 40.75 5.76 3.87 1.38 6.16 3.64 6.77 6.75.28 1.46.7 6.47-5.95 9.89-7.81 4-16.02 6.07-26.64 6.74q-.2-.04-.37-.03m-13.1-18.52a17.5 17.5 0 0 0 13.13 7.84c7.3-.49 13.19-1.7 18.56-3.94a94 94 0 0 0-31.68-3.9m-.97-1.86" style="fill:#511239"/><path d="M1874.67 2175.94a4.6 4.6 0 0 1-4.15-2.69 416 416 0 0 1-11.78-28.8l-8.06 22.55a4.59 4.59 0 0 1-8.64-3.08l12.46-34.83a4.8 4.8 0 0 1 4.36-3.05 4.6 4.6 0 0 1 4.3 3.14 401 401 0 0 0 10.23 27.68 190 190 0 0 0 3.54-31.92 4.57 4.57 0 0 1 4.58-4.46h.12a4.57 4.57 0 0 1 4.46 4.7c-.4 16-2.75 31.96-7 47.4a4.6 4.6 0 0 1-4.05 3.36zm40.17 4.46a32 32 0 0 1-8.4-1.1c-4.18-1.13-7.05-3.15-8.51-6.05-1.1-2.16-1.87-5.83.58-10.92a27 27 0 0 1 7.54-9.43c-2.5-1.96-4.67-4.67-5.2-8.37-.6-4.36 1.47-9.06 5.44-12.2 3.05-2.45 6.6-3.64 9.7-4.7a4.58 4.58 0 0 1 2.94 8.66c-2.54.86-5.13 1.74-6.93 3.18-1.38 1.1-2.23 2.65-2.08 3.78.37 2.63 5.65 4.61 7.39 5.25a4.59 4.59 0 0 1-.18 8.64 18.2 18.2 0 0 0-10.38 9.16c-.86 1.77-.77 2.68-.68 2.86 0 .04.37.7 2.7 1.32 4.36 1.16 9.15 1 13.45-.4 2.38-.8 4.98.52 5.8 2.9.8 2.41-.52 5-2.9 5.8a34 34 0 0 1-10.28 1.62m36.62-3.24c-2.87 0-5.89-.6-8.57-2.53-6.38-4.58-6.6-13.68-3.12-19.78a24 24 0 0 1 4.8-5.83 11.5 11.5 0 0 1-3.85-6.77c-.55-3.36.52-6.87 2.93-9.62a12 12 0 0 1 9.22-4.18 4.58 4.58 0 0 1-.28 9.16c-.6-.03-1.46.4-2.04 1.06-.58.68-.89 1.47-.76 2.11.09.64.64 1.31 1.4 1.74s1.59.55 2.17.3a4.58 4.58 0 0 1 4.12 8.12c-3.63 2.3-7.72 4.89-9.74 8.43-1.43 2.5-1.52 6.35.49 7.81 1.98 1.44 5.7.73 9.43-.27a4.58 4.58 0 0 1 2.32 8.85 32 32 0 0 1-8.52 1.4m23.69-2.44q-.04 0 0 0a4.6 4.6 0 0 1-4.58-4.58 205 205 0 0 1 3-34.3 4.53 4.53 0 0 1 6.98-3.06q.09-.08.18-.21c2.35-2.5 6.54-5.22 10.93-5.1a9.2 9.2 0 0 1 6.87 3.15c1.95 2.25 2.4 5 2.6 7.1 1.3 15.09-8.52 30.29-22.66 35.5a4.4 4.4 0 0 1-3.32 1.5m16.3-38.1c-.68 0-2.57.68-4 2.2-5.46 5.87-7.05 14.26-7.54 23.54 7.78-5.04 12.91-14.6 12.12-23.78-.13-1.52-.4-1.89-.4-1.92q-.09-.04-.18-.03m44.01 32.66q-.78 0-1.56-.28a4.57 4.57 0 0 1-2.74-5.86l14.7-40.71c.65-1.8 2.36-3 4.28-3.03h.03c1.9 0 3.6 1.16 4.27 2.96a348 348 0 0 1 11.51 36.17 4.57 4.57 0 0 1-3.3 5.59 4.57 4.57 0 0 1-5.58-3.3 334 334 0 0 0-6.93-23.32l-10.37 28.76a4.6 4.6 0 0 1-4.31 3.02" style="fill:#e35a26"/><path d="M2039.06 2161.08a4.58 4.58 0 0 1-.98-9.07l18.29-4.03a4.58 4.58 0 1 1 1.98 8.95l-18.28 4.02c-.37.1-.67.13-1 .13m63.36-.98a4.55 4.55 0 0 1-4.55-4.15c-.76-7.9-1.59-16.64-.12-25.24q.13-2.7.3-5.38c.1-1.52.95-2.83 2.17-3.6 1.59-3.84 3.75-6.53 6.53-8.2 4.49-2.72 11.39-2.24 14.53 2.8 1.25 1.99 1.74 4.37 1.5 7.3-.19 2.13-.7 4.24-1.5 6.22a10 10 0 0 1 4.24 4.61c2.44 5.43.15 12.42-5.28 16.27-4.03 2.87-8.76 3.7-13.28 4.12 0 .12 0 .28.04.4a4.6 4.6 0 0 1-4.25 4.82q-.19.04-.33.03m4.42-28.32q-.3 6.95-.21 13.91c3.08-.3 6.13-.88 8.3-2.4 1.83-1.29 2.87-3.67 2.23-5.07-.06-.13-.3-.37-.73-.52q-.32-.13-.58-.12-.78.7-1.65 1.34a4.55 4.55 0 0 1-5.71-.28 4.6 4.6 0 0 1-.98-5.64 9 9 0 0 1 3.33-3.4 12 12 0 0 0 2.8-6.7c.1-1.32-.11-1.68-.11-1.71-.22-.19-1.26-.34-2.05.15q-1.88 1.16-3.27 5.07a37 37 0 0 0-1.37 5.37m31.1 22.4h-.06a4.56 4.56 0 0 1-4.52-4.49l-.57-29.3a4.57 4.57 0 0 1 7.41-3.7q4.03-8.1 10.99-9.27c1.68-.28 3.39.4 4.4 1.77a18.2 18.2 0 0 1 1.95 18.31 18 18 0 0 1-4.89 6.32 66 66 0 0 0 18.65 5.19 4.6 4.6 0 0 1 3.97 5.13 4.6 4.6 0 0 1-5.13 3.97 77 77 0 0 1-26.67-8.61q-.75 5.09-.95 10.22a4.6 4.6 0 0 1-4.58 4.46m11.9-35.77c-1.4 1.8-2.37 4.4-2.95 6.2l-.83 2.71a9 9 0 0 0 3.15-3.63c.79-1.62.97-3.48.64-5.28m41.72 28.17c-4.76 0-9.98-2.9-10.99-8.21-.67-3.66.89-6.8 2.35-9.13q.65-1.04 1.34-2.04a10 10 0 0 1-3.2-1.34c-5.13-3.3-5.52-10.3-2.93-14.9 2.23-3.97 6.07-6.35 8.88-8.09a4.56 4.56 0 1 1 4.8 7.78c-2.17 1.35-4.64 2.87-5.71 4.77-.64 1.13-.4 2.5-.13 2.68.46.3 1.96.22 3.18.16 1.77-.13 3.75-.22 5.89.3a4.57 4.57 0 0 1 1.98 7.78 39 39 0 0 0-6.35 7.73c-1.16 1.86-1.13 2.47-1.13 2.59.13.28 1.13.86 2.23.73 2.02-.24 4.24-1.83 6.23-3.23a4.6 4.6 0 0 1 6.38 1.07 4.6 4.6 0 0 1-1.07 6.38c-2.72 1.95-6.1 4.36-10.47 4.85q-.6.13-1.28.12m28.66-10.65q-.32 0-.64-.03a4.6 4.6 0 0 1-3.9-5.16 204 204 0 0 1 8.93-37.85 4.5 4.5 0 0 1 3.97-3.08 4.6 4.6 0 0 1 4.43 2.4 300 300 0 0 1 15.63 34.68 4.57 4.57 0 1 1-8.58 3.2 279 279 0 0 0-10.07-23.53 202 202 0 0 0-5.25 25.43 4.6 4.6 0 0 1-4.52 3.94" style="fill:#e35a26"/><path d="M2220.03 2128.54a4.6 4.6 0 0 1-4.55-4.03 4.57 4.57 0 0 1 3.97-5.1c5.92-.73 11.84-1.98 17.55-3.72a4.59 4.59 0 0 1 2.65 8.76 114 114 0 0 1-19.07 4.06q-.28.04-.55.03m42.06-4.54a4.6 4.6 0 0 1-4.5-3.76l-6.22-33.82a4.6 4.6 0 0 1 3.66-5.34 4.6 4.6 0 0 1 5.35 3.66l6.22 33.82a4.6 4.6 0 0 1-4.51 5.43" style="fill:#e35a26"/><path d="M2280.74 2112.06a33.5 33.5 0 0 1-16.8-4.52q-.11-.1-.3-.15a4.56 4.56 0 0 1-7.17-4.82 6 6 0 0 1 3.78-4.18 37 37 0 0 0 9.74-13.92 4.59 4.59 0 0 1 8.55 3.3 45 45 0 0 1-7.79 13 24 24 0 0 0 14.93 1.61 4.57 4.57 0 0 1 1.92 8.95c-2.26.48-4.58.73-6.86.73" style="fill:#e35a26"/><path d="M1702 1954.41c-2.07-4.15-7.26-5.4-11.44-7.45s-8.09-7.26-5.28-10.95c2.02-2.66 6.01-2.44 9.34-1.95l28.02 4.18c2.05.3 4.33.8 5.4 2.56 1.56 2.66-.82 5.9-3.26 7.75-6.3 4.8-14.13 7.51-22.77 5.86" style="fill:#511239"/></svg>