<svg xmlns="http://www.w3.org/2000/svg" viewBox="0 0 306 324"><g style="opacity:.15"><path d="M78.73 798.7c-6.54 4.14-9.95 10.5-9.62 17.92.11 2.37.55 4.67 1.3 6.8a38 38 0 0 0 3.7 7.61 22 22 0 0 0-6.38 5.64c-5.06 6.52-6.37 14.27-3.8 22.42 1.97 6.3 5.94 11.8 11.78 16.35 4.4 3.43 9.63 5.87 16.43 7.69 12.06 3.2 23.47 1.94 33.94-3.75q.96-.52 1.96-1.1a27.5 27.5 0 0 0 6.45 11.23 77 77 0 0 0 8.82 8.22c1.59 4.5 2.8 8.67 3.73 12.73l.33 1.42c1.23 5.39 2.5 10.97 3.65 16.44 1.46 7 2.86 13.4 4.26 19.55l.39 1.71c.97 4.32 1.98 8.8 3.54 13.26 1.1 3.16 2.25 6.33 3.37 9.4 1.01 2.8 2.06 5.68 3.06 8.51q2.48 7.06 5.63 13.96l-.79-.1c-5.16-.61-9.51.2-13.3 2.49-3.78 2.28-6.05 5.56-7.6 8.17a19 19 0 0 0-2.6 10.7c.2 4.2 1.46 8.33 3.71 12.27a45 45 0 0 0 7.36 9.44 54 54 0 0 0 20.3 13.08 61 61 0 0 0 15.37 3.4c5.85.49 11.5-.93 16.8-4.2q4.48 4.12 9.58 8.35a155 155 0 0 0 23.78 16.2c8.07 4.46 15.57 7.39 22.93 8.94 3.83.81 7.59 1.23 11.22 1.63 1.67.18 3.25.36 4.82.56 1.8.24 3.49.26 5.06.27 10.9 0 20.07-3.94 26.84-7.39 2-1.01 3.66-2.23 5.13-3.3l.7-.5c4.66-3.37 7.95-7.27 10.07-11.95.21-.48.46-1.03.65-1.35 2.4-4.01 3.79-8.6 4.24-14l.02-.27a66 66 0 0 0-2.24-23.98c-2.12-7.26-4.17-13.78-7.89-20.16-2.6-4.46-5.78-9.04-10-14.4-5.86-7.45-11.94-13.4-18.6-18.23l-.27-.2-1.09-.78q.91-2.3 1.4-4.98a41 41 0 0 0-1.43-19.81 75 75 0 0 0-15.85-28.08 51 51 0 0 0-9.17-8.22c-2.93-2-6.96-4.44-12.1-5.48a21.3 21.3 0 0 0-16.49 3.46q-5.86 3.98-7.09 11.81a168 168 0 0 1-2.07-3.22l-4.51-7.16-3.8-6.02c-2.9-4.6-5.87-9.03-8.4-12.76-3.5-5.17-6.89-9.62-10.37-13.62-3.8-4.35-7.96-8.46-12.39-12.24-1.96-3.67-4.3-7.36-7.3-11.52a47 47 0 0 0-11.97-11.51 22 22 0 0 0-7.45-3.29c-4.7-1.04-9.2-.22-13 2.33a114 114 0 0 0-9.1-3.15c-1.6-5.52-4.37-10.72-8.44-15.87a90 90 0 0 0-7.06-8 72 72 0 0 0-9.62-8.3 48.4 48.4 0 0 0-24.17-8.76c-6.24-.48-11.75.76-16.36 3.68" style="fill:#fff" transform="translate(-44.5 -780.9)"/><path d="M78.04 799.37c-6.54 4.15-9.95 10.51-9.62 17.93q.17 3.59 1.3 6.81a38 38 0 0 0 3.7 7.6 22 22 0 0 0-6.38 5.65c-5.06 6.5-6.37 14.26-3.8 22.41 1.97 6.3 5.94 11.8 11.78 16.35 4.4 3.43 9.63 5.88 16.43 7.69 12.05 3.2 23.47 1.94 33.94-3.75q.97-.52 1.96-1.1a27.5 27.5 0 0 0 6.44 11.23 77 77 0 0 0 8.83 8.22c1.58 4.5 2.8 8.67 3.73 12.73l.33 1.42c1.23 5.4 2.5 10.97 3.65 16.44 1.46 7 2.86 13.4 4.26 19.55l.38 1.72c.98 4.31 1.99 8.78 3.55 13.25 1.1 3.16 2.25 6.33 3.37 9.4 1.01 2.8 2.06 5.68 3.06 8.51q2.48 7.05 5.63 13.97l-.79-.1c-5.16-.62-9.51.19-13.3 2.48-3.78 2.28-6.05 5.56-7.6 8.17a19 19 0 0 0-2.6 10.7c.2 4.2 1.46 8.33 3.71 12.28a45 45 0 0 0 7.36 9.43 54 54 0 0 0 20.3 13.08 61 61 0 0 0 15.38 3.4c5.84.49 11.5-.92 16.8-4.2q4.47 4.12 9.58 8.35a155 155 0 0 0 23.77 16.2c8.07 4.46 15.57 7.39 22.93 8.94 3.84.81 7.59 1.23 11.22 1.63q2.49.26 4.82.57c1.8.24 3.49.26 5.06.26 10.9 0 20.07-3.94 26.84-7.38 2-1.02 3.66-2.23 5.13-3.3l.7-.51c4.66-3.37 7.96-7.27 10.07-11.95.22-.48.46-1.03.65-1.35 2.4-4.01 3.79-8.6 4.24-14l.02-.27c.68-8.63-.05-16.47-2.24-23.98-2.11-7.26-4.17-13.78-7.88-20.16-2.6-4.46-5.78-9.04-10.01-14.4-5.86-7.45-11.94-13.4-18.6-18.23l-.27-.2-1.08-.78q.9-2.3 1.39-4.98a41 41 0 0 0-1.43-19.81 75 75 0 0 0-15.85-28.08 51 51 0 0 0-9.17-8.22c-2.93-2-6.95-4.44-12.1-5.48a21.3 21.3 0 0 0-16.48 3.46q-5.86 3.98-7.1 11.81-1-1.53-2.06-3.22-2.25-3.6-4.52-7.16l-3.8-6.02c-2.9-4.6-5.87-9.03-8.4-12.76A138 138 0 0 0 204.9 876c-3.8-4.35-7.96-8.46-12.38-12.24-1.96-3.67-4.3-7.36-7.3-11.52a47 47 0 0 0-11.98-11.51 22 22 0 0 0-7.45-3.29c-4.7-1.04-9.2-.22-13 2.33a114 114 0 0 0-9.1-3.15c-1.6-5.52-4.37-10.72-8.44-15.87a90 90 0 0 0-7.06-8 72 72 0 0 0-9.61-8.3 48.4 48.4 0 0 0-24.17-8.76c-6.25-.48-11.76.76-16.37 3.68" style="fill:#d4d4d4" transform="translate(-44.5 -780.9)"/><path d="M77.35 800.05c-6.54 4.15-9.95 10.51-9.62 17.93q.17 3.58 1.3 6.81a38 38 0 0 0 3.7 7.6 22 22 0 0 0-6.38 5.65c-5.06 6.5-6.37 14.26-3.8 22.41 1.97 6.3 5.94 11.8 11.78 16.35 4.4 3.43 9.63 5.88 16.43 7.69 12.06 3.2 23.47 1.94 33.94-3.75q.96-.52 1.96-1.1a27.5 27.5 0 0 0 6.45 11.23 77 77 0 0 0 8.82 8.22c1.59 4.5 2.8 8.67 3.73 12.73l.33 1.42c1.23 5.4 2.5 10.97 3.65 16.44 1.46 7 2.86 13.4 4.26 19.55l.39 1.72c.97 4.31 1.98 8.78 3.54 13.25 1.1 3.16 2.25 6.33 3.37 9.4a845 845 0 0 1 3.06 8.51q2.48 7.05 5.63 13.97-.39-.07-.78-.1c-5.17-.62-9.52.19-13.31 2.48-3.78 2.28-6.05 5.56-7.6 8.17a19 19 0 0 0-2.6 10.7c.21 4.2 1.46 8.33 3.71 12.27a45 45 0 0 0 7.36 9.44 54 54 0 0 0 20.3 13.08 61 61 0 0 0 15.38 3.4c5.84.49 11.5-.92 16.8-4.2 3 2.76 6.16 5.52 9.58 8.35a155 155 0 0 0 23.77 16.2c8.07 4.46 15.57 7.39 22.93 8.94 3.84.81 7.59 1.23 11.22 1.63q2.49.27 4.82.56c1.8.24 3.49.27 5.06.27 10.9 0 20.07-3.94 26.84-7.39 2-1.01 3.66-2.23 5.13-3.3l.7-.5c4.66-3.37 7.96-7.27 10.07-11.95.22-.49.46-1.03.65-1.35 2.4-4.01 3.79-8.6 4.24-14l.02-.27a66 66 0 0 0-2.24-23.98c-2.12-7.26-4.17-13.78-7.89-20.16-2.6-4.46-5.77-9.04-10-14.41-5.86-7.44-11.94-13.4-18.6-18.22l-.27-.2-1.09-.78q.91-2.3 1.4-4.98a41 41 0 0 0-1.43-19.82 75 75 0 0 0-15.85-28.07 51 51 0 0 0-9.17-8.22c-2.93-2-6.96-4.44-12.1-5.49a21.3 21.3 0 0 0-16.49 3.47c-3.9 2.63-6.28 6.6-7.09 11.81q-1-1.53-2.07-3.22l-4.51-7.16-3.8-6.02c-2.9-4.6-5.87-9.03-8.4-12.76-3.5-5.17-6.89-9.62-10.37-13.62-3.8-4.35-7.96-8.47-12.38-12.25-1.97-3.67-4.3-7.35-7.3-11.51a47 47 0 0 0-11.98-11.51 22 22 0 0 0-7.45-3.29c-4.7-1.04-9.2-.22-13 2.33a114 114 0 0 0-9.1-3.15c-1.6-5.52-4.37-10.72-8.44-15.87a90 90 0 0 0-7.06-8 72 72 0 0 0-9.62-8.3 48.4 48.4 0 0 0-24.17-8.76c-6.24-.48-11.75.76-16.36 3.68" style="fill:#aaa" transform="translate(-44.5 -780.9)"/><path d="M76.66 800.73c-6.54 4.15-9.95 10.51-9.62 17.93q.17 3.58 1.3 6.81a38 38 0 0 0 3.7 7.6 22 22 0 0 0-6.38 5.65c-5.06 6.5-6.37 14.26-3.8 22.42 1.97 6.3 5.94 11.8 11.78 16.34 4.4 3.44 9.63 5.88 16.43 7.69 12.06 3.2 23.48 1.95 33.94-3.75q.97-.5 1.96-1.1a27.5 27.5 0 0 0 6.45 11.23 77 77 0 0 0 8.82 8.22c1.59 4.5 2.8 8.68 3.73 12.73l.33 1.42c1.23 5.4 2.5 10.97 3.65 16.44 1.46 7 2.86 13.4 4.26 19.56l.39 1.7c.97 4.33 1.98 8.8 3.54 13.27 1.1 3.16 2.25 6.33 3.37 9.4 1.01 2.79 2.06 5.68 3.06 8.5q2.48 7.05 5.63 13.97l-.78-.1c-5.17-.62-9.52.19-13.31 2.48-3.78 2.28-6.05 5.57-7.6 8.17a19 19 0 0 0-2.6 10.71c.21 4.2 1.46 8.32 3.71 12.27a45 45 0 0 0 7.36 9.44 54 54 0 0 0 20.3 13.07 61 61 0 0 0 15.38 3.4c5.84.5 11.5-.92 16.8-4.2q4.47 4.12 9.58 8.35a155 155 0 0 0 23.77 16.2c8.07 4.46 15.57 7.39 22.93 8.95 3.83.8 7.59 1.22 11.22 1.62q2.49.27 4.82.57c1.8.24 3.49.26 5.06.26 10.9.01 20.07-3.94 26.84-7.38 2-1.02 3.66-2.23 5.13-3.3l.7-.5c4.66-3.37 7.95-7.28 10.07-11.96.21-.48.46-1.03.65-1.34 2.4-4.02 3.79-8.6 4.24-14.01l.02-.26a66 66 0 0 0-2.24-23.99c-2.12-7.26-4.17-13.78-7.89-20.16-2.6-4.46-5.77-9.03-10-14.4-5.86-7.44-11.94-13.4-18.6-18.22l-.27-.2-1.08-.79q.9-2.29 1.39-4.98a41 41 0 0 0-1.43-19.81 75 75 0 0 0-15.85-28.08 51 51 0 0 0-9.17-8.22c-2.93-2-6.95-4.43-12.1-5.48a21.3 21.3 0 0 0-16.49 3.46c-3.9 2.64-6.28 6.61-7.08 11.81a168 168 0 0 1-2.07-3.22l-4.52-7.16-3.8-6.02c-2.9-4.6-5.87-9.03-8.4-12.76-3.5-5.16-6.88-9.62-10.37-13.61-3.8-4.35-7.96-8.47-12.38-12.25-1.96-3.67-4.3-7.36-7.3-11.52a47 47 0 0 0-11.98-11.5 22 22 0 0 0-7.45-3.3c-4.7-1.04-9.2-.21-13 2.34a114 114 0 0 0-9.1-3.16c-1.6-5.52-4.37-10.72-8.44-15.86a90 90 0 0 0-7.06-8 72 72 0 0 0-9.62-8.3 48.4 48.4 0 0 0-24.17-8.77c-6.24-.48-11.75.76-16.36 3.68" style="fill:gray" transform="translate(-44.5 -780.9)"/><path d="M75.97 801.42c-6.54 4.14-9.95 10.5-9.62 17.92q.17 3.59 1.3 6.81a38 38 0 0 0 3.7 7.6 22 22 0 0 0-6.38 5.65c-5.06 6.5-6.37 14.26-3.8 22.42 1.97 6.3 5.94 11.8 11.78 16.34 4.4 3.44 9.63 5.88 16.43 7.69 12.06 3.2 23.48 1.95 33.94-3.75q.96-.5 1.96-1.1a27.5 27.5 0 0 0 6.45 11.23 77 77 0 0 0 8.82 8.22c1.59 4.5 2.8 8.67 3.73 12.73l.33 1.42c1.23 5.4 2.5 10.97 3.65 16.44 1.46 7 2.86 13.4 4.26 19.55l.39 1.72a119 119 0 0 0 3.54 13.26c1.1 3.15 2.25 6.33 3.37 9.4 1.01 2.79 2.06 5.67 3.06 8.5q2.48 7.05 5.63 13.97l-.78-.1c-5.17-.62-9.52.19-13.31 2.48-3.78 2.28-6.05 5.57-7.6 8.17a19 19 0 0 0-2.6 10.71c.21 4.2 1.46 8.32 3.71 12.27a45 45 0 0 0 7.36 9.44 54 54 0 0 0 20.3 13.07 61 61 0 0 0 15.38 3.4c5.84.5 11.5-.92 16.8-4.2q4.47 4.12 9.58 8.35a155 155 0 0 0 23.77 16.2c8.07 4.46 15.57 7.39 22.93 8.95 3.84.8 7.59 1.22 11.22 1.62 1.67.18 3.25.36 4.82.57 1.8.24 3.49.26 5.06.26 10.9 0 20.07-3.94 26.84-7.38 2-1.02 3.66-2.23 5.13-3.3l.7-.5c4.66-3.37 7.96-7.28 10.07-11.96.22-.48.46-1.03.65-1.35 2.4-4.01 3.79-8.6 4.24-14l.02-.26c.68-8.63-.05-16.48-2.24-24-2.11-7.25-4.17-13.77-7.88-20.15-2.6-4.46-5.78-9.04-10.01-14.4-5.86-7.44-11.94-13.4-18.6-18.22l-.27-.2-1.08-.79q.9-2.29 1.39-4.98a41 41 0 0 0-1.43-19.81 75 75 0 0 0-15.85-28.08 51 51 0 0 0-9.17-8.22c-2.93-2-6.95-4.43-12.1-5.48a21.3 21.3 0 0 0-16.49 3.46c-3.9 2.64-6.28 6.61-7.08 11.81a168 168 0 0 1-2.07-3.22l-4.52-7.16-3.8-6.02c-2.9-4.6-5.87-9.03-8.4-12.76a139 139 0 0 0-10.37-13.61c-3.8-4.35-7.96-8.47-12.38-12.25-1.96-3.67-4.3-7.36-7.3-11.52a47 47 0 0 0-11.98-11.5 22 22 0 0 0-7.45-3.3c-4.7-1.04-9.2-.21-13 2.34a114 114 0 0 0-9.1-3.16c-1.6-5.52-4.37-10.72-8.44-15.86a90 90 0 0 0-7.06-8 72 72 0 0 0-9.61-8.3 48.4 48.4 0 0 0-24.18-8.77c-6.24-.48-11.75.76-16.36 3.68" style="fill:#555" transform="translate(-44.5 -780.9)"/><path d="M75.28 802.1c-6.54 4.14-9.95 10.5-9.62 17.92q.17 3.58 1.3 6.81a38 38 0 0 0 3.7 7.6 22 22 0 0 0-6.38 5.65c-5.06 6.51-6.37 14.26-3.8 22.42 1.97 6.3 5.94 11.8 11.78 16.35 4.4 3.43 9.63 5.87 16.43 7.68 12.06 3.2 23.48 1.95 33.94-3.75q.97-.5 1.96-1.1a27.5 27.5 0 0 0 6.45 11.23 77 77 0 0 0 8.82 8.22c1.59 4.5 2.8 8.68 3.73 12.73l.33 1.42c1.23 5.4 2.5 10.97 3.65 16.44 1.46 7.01 2.86 13.4 4.26 19.56l.39 1.71c.97 4.32 1.98 8.79 3.54 13.26 1.1 3.16 2.25 6.33 3.37 9.4a845 845 0 0 1 3.06 8.5q2.48 7.05 5.63 13.97l-.78-.1c-5.17-.62-9.52.19-13.31 2.48-3.78 2.28-6.05 5.57-7.6 8.17a19 19 0 0 0-2.6 10.71c.21 4.2 1.46 8.32 3.71 12.27a45 45 0 0 0 7.36 9.44 54 54 0 0 0 20.3 13.07 61 61 0 0 0 15.38 3.4c5.84.5 11.5-.92 16.8-4.2q4.47 4.12 9.58 8.35a155 155 0 0 0 23.77 16.2c8.07 4.46 15.57 7.39 22.93 8.95 3.83.8 7.59 1.22 11.22 1.62 1.67.18 3.25.36 4.82.57 1.8.24 3.49.26 5.06.26 10.9.01 20.07-3.94 26.84-7.38 2-1.02 3.66-2.23 5.13-3.3l.7-.5c4.66-3.37 7.95-7.28 10.07-11.96.21-.48.46-1.03.65-1.34 2.4-4.02 3.79-8.6 4.24-14.01l.02-.26a66 66 0 0 0-2.24-23.99c-2.11-7.26-4.17-13.78-7.89-20.16-2.6-4.46-5.77-9.03-10-14.4-5.86-7.44-11.94-13.4-18.6-18.22l-.27-.2-1.08-.79q.9-2.29 1.39-4.98a41 41 0 0 0-1.43-19.81 75 75 0 0 0-15.85-28.08 51 51 0 0 0-9.17-8.22c-2.93-2-6.95-4.43-12.1-5.48a21.3 21.3 0 0 0-16.48 3.46c-3.9 2.64-6.28 6.61-7.1 11.81a168 168 0 0 1-2.06-3.22l-4.52-7.16-3.8-6.02c-2.9-4.6-5.87-9.03-8.4-12.76a138 138 0 0 0-10.37-13.61c-3.8-4.35-7.96-8.47-12.38-12.25-1.96-3.67-4.3-7.36-7.3-11.52a47 47 0 0 0-11.98-11.5 22 22 0 0 0-7.45-3.3c-4.7-1.04-9.2-.21-13 2.34a114 114 0 0 0-9.1-3.16c-1.6-5.52-4.37-10.72-8.44-15.86a90 90 0 0 0-7.06-8 72 72 0 0 0-9.61-8.3 48.4 48.4 0 0 0-24.18-8.77c-6.24-.48-11.75.76-16.36 3.69" style="fill:#2b2b2b" transform="translate(-44.5 -780.9)"/><path d="M30.09 21.87c-6.54 4.15-9.95 10.5-9.62 17.93q.16 3.57 1.3 6.8a38 38 0 0 0 3.7 7.6 22 22 0 0 0-6.38 5.65c-5.06 6.51-6.38 14.27-3.81 22.42 1.98 6.3 5.95 11.8 11.79 16.35 4.4 3.43 9.62 5.87 16.43 7.68 12.05 3.21 23.47 1.95 33.94-3.74q.95-.52 1.96-1.1a27.5 27.5 0 0 0 6.44 11.23 77 77 0 0 0 8.83 8.22c1.58 4.5 2.8 8.67 3.73 12.73l.32 1.42c1.23 5.39 2.5 10.97 3.65 16.44 1.47 7 2.86 13.4 4.26 19.55l.39 1.71c.97 4.32 1.98 8.79 3.54 13.26 1.1 3.16 2.26 6.33 3.37 9.4a845 845 0 0 1 3.06 8.51q2.48 7.05 5.63 13.96l-.78-.1c-5.16-.62-9.51.2-13.3 2.48s-6.05 5.57-7.6 8.18a19 19 0 0 0-2.6 10.7c.2 4.2 1.46 8.33 3.7 12.27a45 45 0 0 0 7.36 9.44 54 54 0 0 0 20.3 13.08 61 61 0 0 0 15.38 3.4c5.85.49 11.5-.93 16.8-4.2 3 2.76 6.16 5.51 9.58 8.35a155 155 0 0 0 23.78 16.2c8.07 4.46 15.57 7.38 22.93 8.94 3.83.81 7.58 1.23 11.22 1.63 1.67.18 3.24.35 4.82.56 1.8.24 3.48.26 5.05.27 10.9 0 20.08-3.95 26.84-7.39 2-1.01 3.66-2.23 5.13-3.3l.7-.5c4.66-3.37 7.96-7.28 10.07-11.95.22-.49.47-1.04.66-1.35 2.4-4.02 3.78-8.6 4.24-14l.02-.27c.67-8.63-.06-16.48-2.25-23.99-2.11-7.25-4.16-13.77-7.88-20.16-2.6-4.45-5.78-9.03-10-14.4-5.86-7.44-11.95-13.4-18.6-18.22l-.27-.2-1.09-.78q.9-2.3 1.4-4.98a41 41 0 0 0-1.44-19.82 75 75 0 0 0-15.85-28.08 51 51 0 0 0-9.16-8.22c-2.94-2-6.96-4.43-12.1-5.48a21.3 21.3 0 0 0-16.5 3.47c-3.89 2.63-6.27 6.6-7.08 11.81a168 168 0 0 1-2.07-3.22q-2.24-3.6-4.52-7.16l-3.8-6.02c-2.9-4.6-5.87-9.03-8.4-12.76a138 138 0 0 0-10.37-13.62 119 119 0 0 0-12.38-12.25c-1.96-3.67-4.3-7.35-7.3-11.51a47 47 0 0 0-11.98-11.51 22 22 0 0 0-7.45-3.29c-4.7-1.04-9.2-.22-13 2.33a113 113 0 0 0-9.1-3.15c-1.6-5.52-4.37-10.72-8.44-15.87a90 90 0 0 0-7.06-8 72 72 0 0 0-9.61-8.3 48.4 48.4 0 0 0-24.17-8.76c-6.25-.48-11.75.76-16.36 3.68"/></g><path d="M74.59 802.78c-6.54 4.14-9.95 10.5-9.62 17.92q.17 3.59 1.3 6.81a38 38 0 0 0 3.7 7.6 22 22 0 0 0-6.38 5.65c-5.06 6.51-6.37 14.26-3.8 22.42 1.97 6.3 5.94 11.8 11.78 16.35 4.4 3.43 9.63 5.87 16.43 7.68 12.06 3.21 23.47 1.95 33.94-3.74l1.96-1.1a27.5 27.5 0 0 0 6.44 11.22 77 77 0 0 0 8.83 8.23c1.58 4.5 2.8 8.67 3.73 12.72l.33 1.42c1.23 5.4 2.5 10.97 3.65 16.44 1.46 7.01 2.86 13.4 4.26 19.56l.38 1.71c.98 4.32 1.99 8.79 3.55 13.26 1.1 3.16 2.25 6.33 3.37 9.4a845 845 0 0 1 3.06 8.5q2.48 7.05 5.63 13.97l-.79-.1c-5.16-.62-9.51.2-13.3 2.48-3.78 2.28-6.05 5.57-7.6 8.18a19 19 0 0 0-2.6 10.7c.2 4.2 1.46 8.32 3.71 12.27a45 45 0 0 0 7.36 9.44 54 54 0 0 0 20.3 13.08 61 61 0 0 0 15.38 3.4c5.84.48 11.5-.93 16.8-4.2q4.47 4.11 9.58 8.34a155 155 0 0 0 23.77 16.2c8.07 4.47 15.57 7.4 22.93 8.95 3.83.8 7.59 1.22 11.22 1.62q2.49.27 4.82.57c1.8.24 3.49.26 5.06.26 10.9.01 20.07-3.94 26.84-7.38 2-1.01 3.66-2.23 5.12-3.3l.7-.5c4.67-3.37 7.96-7.28 10.07-11.95.22-.49.47-1.04.66-1.35 2.4-4.02 3.79-8.6 4.24-14.01l.02-.26a66 66 0 0 0-2.24-23.99c-2.12-7.25-4.17-13.78-7.89-20.16-2.6-4.45-5.78-9.03-10-14.4-5.86-7.44-11.94-13.4-18.6-18.22l-.27-.2-1.09-.79q.91-2.29 1.4-4.97a41 41 0 0 0-1.43-19.82 75 75 0 0 0-15.85-28.08 51 51 0 0 0-9.17-8.22c-2.93-2-6.96-4.43-12.1-5.48a21.3 21.3 0 0 0-16.49 3.46c-3.9 2.64-6.28 6.61-7.09 11.82a168 168 0 0 1-2.07-3.23l-4.51-7.15-3.8-6.02c-2.9-4.6-5.87-9.03-8.4-12.77-3.5-5.16-6.89-9.62-10.37-13.6-3.8-4.36-7.96-8.48-12.38-12.26-1.97-3.67-4.3-7.35-7.3-11.52a47 47 0 0 0-11.98-11.5 22 22 0 0 0-7.45-3.29 16.4 16.4 0 0 0-13 2.33 113 113 0 0 0-9.1-3.15c-1.6-5.53-4.37-10.72-8.44-15.87a90 90 0 0 0-7.06-8 72 72 0 0 0-9.62-8.3 48.4 48.4 0 0 0-24.17-8.77c-6.24-.48-11.75.76-16.36 3.69" style="fill:#fff" transform="translate(-44.5 -780.9)"/><path d="M179.76 913.98c.28.58.44.97.64 1.33a225 225 0 0 1 8.63 17.58c4.34 9.7 8.84 19.32 14.28 28.47q3.36 5.65 6.78 11.27c.6 1 .78 1.01 1.8.42q2.81-1.64 6.1-1.82c2.66-.15 5.08.6 7.42 1.76l4.1 2.03q1.49.74 3.14.94c2.17.25 3.58-.86 3.87-3.02a9 9 0 0 0-.33-3.68q-.56-1.84-1.16-3.68c-.84-2.66-1.35-5.37-.9-8.17.38-2.4 1.5-4.3 3.76-5.38.25-.12.55-.2.69-.66-5.12-4.78-9.74-10.12-14.3-15.77a18 18 0 0 1-2.66 4.14c-2.65 3-7.08 4.31-10.66 3.1a14 14 0 0 1-6.51-4.71 21 21 0 0 1-4.27-9.42c-.3-1.7-.77-3.35-1.54-4.9-.58-1.17-.67-1.25-1.84-.67-2.84 1.41-5.34.81-7.69-1.1-1.72-1.42-2.99-3.2-4.27-4.98a7.2 7.2 0 0 0-5.08-3.08" style="fill:#fff" transform="translate(-44.5 -780.9)"/><path d="M218.48 1004.78c-3.7-1.35-7.38-2.78-10.78-4.84-.22-.13-.46-.35-.8-.2-.3.4-.1.83.01 1.22q.96 3.29 3.57 5.54c2.8 2.43 6.18 1.47 8.39-.14q.22-.17.4-.41c.3-.42.35-.78-.25-.98z" style="fill:#d35b30" transform="translate(-44.5 -780.9)"/><path d="m118.46 848.97-.14.33c.28.23.55.5.86.7a53 53 0 0 1 9.52 8.38c3.96 4.3 7.89 8.66 10.78 13.82.96 1.72 1.17 1.68 2.5.26 2.77-2.93 6.13-4.24 10.17-3.65q.85.14 1.69.3a23.4 23.4 0 0 1 11.41 5.56 37 37 0 0 1 6.15 7.3q1.49 2.34 3.03 4.67c1.67 2.44 3.76 3.54 6.86 2.62 2.83-.85 4.32.08 5.52 2.84.57 1.31.97 2.68 1.4 4.05a5 5 0 0 0 3.43 3.34c1.75.58 3.38.17 5-.51 1.77-.75 1.88-1.16.7-2.7l-.17-.22c-2.9-3.47-5.7-7.02-8.9-10.23a119 119 0 0 0-9.52-8.63 156 156 0 0 0-30.28-19.04c-8.24-3.96-16.77-7.06-25.81-8.58-1.4-.23-2.8-.4-4.2-.6" style="fill:#fff" transform="translate(-44.5 -780.9)"/><path d="M234.84 1005.16c.44 0 .93.16 1.35-.25-.3-.54-.8-.72-1.23-1a92 92 0 0 1-20.2-17.57c-2.1-2.4-3.96-5-5.8-7.6a227 227 0 0 1-11.7-18.62c-4.87-8.54-8.95-17.47-13.1-26.36-3.6-7.74-7.3-15.42-11.62-22.79-.8-1.37-1.55-2.78-2.55-4.05-.25.21-.2.41-.19.6.53 4.8.19 9.6.07 14.41a79 79 0 0 0 1.22 16.8 15 15 0 0 0 4.07 8.04c1.07 1.08 2.25 2.05 3.4 3.05a44 44 0 0 1 3.77 3.7 5.4 5.4 0 0 1 1.34 5.14 17 17 0 0 0-.23 6.96c1.04 5.3 3.49 9.96 6.8 14.16a84 84 0 0 0 11.62 11.99c3.98 3.37 8.22 6.34 13.1 8.3 3.77 1.52 7.69 2.55 11.58 3.65 2.7.76 5.46 1.37 8.3 1.44m-16.8-8.23c-.74.17-1.3-.13-1.86-.34q-2.4-.96-4.52-2.44a70 70 0 0 1-10.28-8.62c-3.32-3.37-5.65-7.4-7.6-11.67-1.92-4.17-3.68-8.38-4.53-12.92a2.5 2.5 0 0 0-.72-1.35c-5.64-5.72-9.91-12.28-12.28-20.02a22 22 0 0 1-.83-4.2q-.13-1.27.12-2.56c.04-.24.12-.5.38-.55.36-.07.5.22.6.49.78 2.25 1.76 4.42 2.62 6.64a48 48 0 0 0 7.93 13.49 24 24 0 0 0 4.49 4.38 3.5 3.5 0 0 1 1.45 2.2c1.03 4.78 2.9 9.27 4.7 13.78 2.37 5.96 6.2 10.9 10.6 15.46q3.15 3.3 6.86 6.03c.65.47 1.31.94 2.03 1.31.33.17.73.27.83.9m-61.61-141.79c5.03 2.5 9.8 5.44 14.5 8.52q2.41 1.6 4.8 3.26l.1-.1c-.73-.97-1.5-1.92-2.21-2.9a37 37 0 0 0-10.58-9.62q-1.72-1.07-3.71-1.42a5.4 5.4 0 0 0-3.7.7c-.76.45-.75.7.04 1.16z" style="fill:#fff0db" transform="translate(-44.5 -780.9)"/><path d="M241.81 954.3c-.77-.68-1.5-.77-2.46-.3a4.1 4.1 0 0 0-2.54 3.51 19 19 0 0 0 .8 7.48c.52 1.68 1.08 3.36 1.46 5.08q.38 1.78.08 3.55a6.13 6.13 0 0 1-6.45 5.27 14 14 0 0 1-4.7-1.17c-1.75-.74-3.48-1.54-5.25-2.26-3.07-1.25-6.07-.85-8.98.57-.97.47-1.04.63-.46 1.5q1.68 2.48 3.5 4.86c2.02 2.66 4.4 5 6.69 7.43 1.63 1.72 3.46 3.26 5.19 4.9.58.55 1.12.62 1.76.11.75-.59 1.58-1.07 2.3-1.7a16 16 0 0 1 4.37-2.66 41 41 0 0 1 4.58-1.61 13.2 13.2 0 0 1 12.73 2.63c1.93 1.59 3.35 3.64 4.83 5.34a53 53 0 0 0 3.75 4.41 15 15 0 0 0 5.45 3.84c2.93 1.13 5.35.32 6.98-2.38.24-.4.43-.85.7-1.24.74-1.11 1.82-1.22 2.75-.27.23.24.38.54.58.81 1.65 2.21 3.13 4.56 5.27 6.36 1.57 1.32 3.24 2.36 5.35 2.46a4.3 4.3 0 0 0 3.69-1.53 12 12 0 0 0 2.96-8.14c-.05-2.42-.81-4.68-1.52-6.95q-.16-.49-.55-.83c-1.34-1.28-2.64-2.61-4.03-3.84-6-5.27-12.57-9.75-19.42-13.82-8.82-5.25-17.34-10.9-25.09-17.66-1.43-1.25-2.9-2.47-4.32-3.74m12.88 97.43c-.55-1.99-1.3-3.88-2.74-5.43a4.8 4.8 0 0 0-4.36-1.63q-1.5.23-2.95.55-2.16.49-4.39.6a11.2 11.2 0 0 1-9.28-3.92 69 69 0 0 1-3.75-4.68c-3.62-4.86-8.4-7.19-14.51-6.34-2.57.35-4.94 1.42-7.28 2.49-1.13.51-1.13.74-.27 1.7l3.72 3.64q7.14 7 14.9 13.32c7 5.7 14.5 10.68 22.37 15.08q4.43 2.47 9.15 4.35c.96.38 1.2.25 1.3-.76.1-.8.06-1.61.08-2.42.1-5.6-.52-11.13-2-16.55" style="fill:#d35b30" transform="translate(-44.5 -780.9)"/><path d="M260.74 963.42c.3.2.57.54 1.02.37.1-.57-.22-1.02-.4-1.5-2.65-7.15-5.33-14.28-7.7-21.53a426 426 0 0 1-2-6.27c-.1-.37-.44-.92.09-1.12.45-.16.68.41.89.76q.84 1.42 1.6 2.87c2.18 4.25 3.94 8.68 5.61 13.14l5.9 15.8c.2.55.43 1.05.96 1.37l3.02 1.84c.34-.7.15-1.22.09-1.72-.58-4.97-1.21-9.93-1.76-14.9-.38-3.47-.72-6.93-.87-10.4-.02-.43-.1-.88.09-1.28.15-.32.45-.39.66-.07.18.26.29.6.38.91.4 1.37.82 2.74 1.17 4.13q3.03 12.15 4.27 24.62c.08.84.3 1.47 1.1 1.83.27.11.5.3.74.43 1.06.6 1.25.59 2.14-.2 1.43-1.26 2.12-2.92 2.55-4.7.88-3.62.9-7.27.35-10.94s-1.88-7.08-3.3-10.47c-2.1-4.98-4.66-9.7-8.15-13.87a75 75 0 0 0-4.98-5.5 35 35 0 0 0-9.09-6.62 11.5 11.5 0 0 0-5.63-1.41c-4.97.23-6.83 2.37-7.16 6.3-.1 1.34-.25 2.66-.19 4a36 36 0 0 0 3.23 13.11c1.99 4.38 4.1 8.7 6.15 13.06q.68 1.45 1.93 2.45c2.36 1.93 4.78 3.8 7.3 5.51m-125.32-89.18a10 10 0 0 0 .02 4.11c.92 4.77 4.26 7.89 7.52 11.08a233 233 0 0 0-7.54-15.2m52.3 170.47c4.6.8 8.9.16 13.05-1.9q1.24-.6 2.11-1.66c.72-.88.55-1.68-.42-2.25-.35-.2-.73-.15-1.1-.13a20 20 0 0 1-4.28-.25 172 172 0 0 1-19.2-3.85c-2.61-.7-5.24-1.4-7.76-2.44-.45-.18-1.28-.25-1.14-.85.16-.7.95-.29 1.47-.32q.5-.01 1 .07l6.82.75q6.61.73 13.16 1.84 3.66.6 7.33 1.16c-.85-1.3-1.49-2.65-3.02-3.2a189 189 0 0 1-20.15-8.82q-2.55-1.28-5.1-2.59c-.24-.12-.6-.26-.44-.6s.5-.2.76-.11q1.5.47 3 .97c6.28 2.09 12.4 4.62 18.58 7 .31.13.62.4 1.09.17-.89-1.24-1.78-2.36-2.53-3.57a6 6 0 0 0-2.01-1.96q-3.98-2.54-7.92-5.12c-2.84-1.84-5.67-3.7-8.84-4.96-2.9-1.16-5.88-1.94-9.05-1.6-1.1.1-2.22.21-3.12.9-3.98 3.1-5.42 6.42-3.79 10.95q.34.95.75 1.85c2.07 4.48 5.36 7.96 9.14 11 6.34 5.12 13.61 8.1 21.6 9.51m-86.17-199.23a40 40 0 0 1 7.85.18c.47.06.96.16 1.42.11q3.19-.35 6.38-.79c.9-.12.96-.33.35-1.07q-.45-.54-.97-1.05c-1.67-1.7-3.3-3.43-5.04-5.05-1.57-1.47-2.9-3.15-4.43-4.66-1.82-1.82-3.51-3.76-5.23-5.67-.32-.35-.98-.8-.52-1.3.44-.47.95.14 1.35.4a92 92 0 0 1 6.44 4.76 98 98 0 0 1 12.57 11.6c1.29 1.45 2.5 2.54 4.53 2.38.55-.05 1.13.16 1.69.25q.56.1 1.13.16c.63.08.78-.21.57-.76l-.88-2.26a37 37 0 0 0-5.68-10.03 72 72 0 0 0-6.61-7.3 61 61 0 0 0-10.4-8 42 42 0 0 0-14.86-5.3c-3.74-.6-7.41-.38-10.76 1.71a6.9 6.9 0 0 0-3.39 5.65c-.1 1.57.2 3.11.73 4.62 1.76 4.98 4.99 8.97 8.55 12.7a127 127 0 0 1 4.93 5.57q.23.27.43.57c.4.64.57 1.32.18 2.03-.4.7-1.07.92-1.83.85q-.92-.08-1.83-.28-3-.65-6.09-.8c-5.46-.3-9.38 3.28-10.75 7.5a12.7 12.7 0 0 0 .73 9.47 23.2 23.2 0 0 0 10.97 11.2 38 38 0 0 0 15.53 4.01c10.95.55 20.02-3.37 27.1-11.77 2.03-2.41 1.77-1.48-.15-3.8-.52-.63-1.04-.7-1.75-.37-1.4.64-2.9.93-4.42 1.12-3.36.4-6.71.82-10.08 1.14-3.7.34-7.4.64-11.12.27-.63-.06-1.64.16-1.75-.57-.15-.9.95-.88 1.55-1.1 4.23-1.51 8.64-2.32 12.99-3.38 2.73-.67 5.49-1.22 8.23-1.83.32-.07.67-.06 1.04-.5a40 40 0 0 0-7.18-5.2 15 15 0 0 0-4.64-1.77 45 45 0 0 1-7.1-2.2c-.45-.17-1.2-.26-1.1-.9.1-.66.84-.5 1.32-.54" style="fill:#fff0db" transform="translate(-44.5 -780.9)"/><path d="M185.2 1005q.3-.48.52-1.01a30 30 0 0 0 1.75-5.74c.6-2.96.27-5.78-1.36-8.39q-.57-.9-1.18-1.79c-1.14-1.73-1.55-1.89-3.53-1.34-2.64.73-4.25-.09-5.07-2.7-.45-1.46-.76-2.96-1.08-4.45a26 26 0 0 0-2.74-7.03 17 17 0 0 0-3.08-3.76c-.22.87.07 1.28.22 1.72q1.32 3.85 2.67 7.7c3 8.64 6.38 17.14 10.78 25.2.3.54.55 1.1.88 1.63.44.73.74.72 1.22-.04m-30.07-101.7a8 8 0 0 0 2.35 1.84q2.47 1.3 5.16 2.06c.5.14 1.02.25 1.55.16.81-.13 1.06-.44.98-1.25l-.1-.57c-.88-3.93-1.17-8.02-2.9-11.75-.28-.58-.44-1.24.26-1.65.6-.35 1.12-.04 1.52.4.5.53 1.1.92 1.67 1.35q2.05 1.47 3.55 3.5c2.8 3.84 5.5 7.77 7.83 11.93.6 1.07 1.3 1.56 2.47 1.45h.43q4.02.1 6.65 3.12c1.1 1.25 2.21 2.5 3.1 3.92a7 7 0 0 0 2.14 2.07q1.51 1.09 3.25.28c.68-.33 1.39-.65 2.11-.86 1.38-.4 2.4 0 3.24 1.17.48.66.79 1.42 1.07 2.18.65 1.8 1.07 3.65 1.39 5.53.54 3.26 1.62 6.27 3.85 8.79.49.52.94 1.08 1.47 1.56 2.25 2.04 4.8 3.14 7.85 2.09 2.88-1 4.67-3.17 5.95-5.83.56-1.16.34-2.18-.4-3.2-3.01-4.05-5.74-8.3-8.54-12.5-4.1-6.13-8.11-12.32-12.4-18.33-.6-.82-.61-.83-1.47-.31a11.3 11.3 0 0 1-5.81 1.73 7.36 7.36 0 0 1-7.43-5.33c-.21-.68-.38-1.38-.61-2.05-.25-.72-.49-1.45-.82-2.13-.53-1.05-1.06-1.3-2.2-1.11q-.85.17-1.68.38a7.1 7.1 0 0 1-6.09-1.26q-1.82-1.3-3.1-3.13c-1.2-1.73-2.33-3.49-3.56-5.19-4.21-5.82-9.67-9.64-16.95-10.55a7 7 0 0 0-4.3.7c-1.58.82-2.84 2.06-4.17 3.21q-.63.55-.2 1.27l.45.9c3.37 6.05 6.1 12.39 8.39 18.92a20 20 0 0 0 4.04 6.49" style="fill:#d35b30" transform="translate(-44.5 -780.9)"/><path d="M203.62 1031.42c2.3-1.29 4.7-2.31 7.15-3.24 1.26-.47 2.57-.76 3.91-.75 6.33.04 11.49 2.33 15.02 7.79a49 49 0 0 0 3.86 5.31 7.5 7.5 0 0 0 5.48 2.69 19 19 0 0 0 5.1-.47c.9-.19 1.78-.4 2.67-.53 3.81-.55 6.83.94 8.74 4.29q1.04 1.8 1.54 3.83c1.08 4.24 1.32 8.57 1.46 12.9a62 62 0 0 1-.11 8.28c-.12 1.14-.17 1.17.89 1.56 2.5.94 5.01 1.8 7.67 2.22a171 171 0 0 1 7.17 1.3 42 42 0 0 0 15.78.22c7-1.28 13.64-3.55 19.5-7.74 3.21-2.3 5.94-5.06 7.78-8.61 2-3.83 2.56-7.96 2.52-12.2a66 66 0 0 0-3.87-21.42c-1.93-5.5-4.25-10.8-7.47-15.7-2.13-3.22-4.4-6.33-6.67-9.45-.74-1.02-1.62-1.94-2.45-2.92q-.13.15-.12.18l.1.85c.43 3.73-.2 7.21-2.4 10.33a8 8 0 0 1-2.53 2.48c-3.27 1.85-7.35 1.39-10.53-1.22-1.98-1.61-3.49-3.64-5-5.66-.14-.2-.24-.41-.39-.6-.5-.63-.69-.65-1.22-.1q-.2.22-.37.44c-2.52 2.56-5.46 3.53-8.98 2.38a16 16 0 0 1-5.32-3 42 42 0 0 1-5.02-5.07 39 39 0 0 0-6.5-6.2 9.6 9.6 0 0 0-7.7-1.83 21 21 0 0 0-5.92 2.06c-1.6.85-3.03 1.97-4.43 3.13-.65.54-.63.8-.05 1.4q.31.3.66.56l4.94 4.11q1.32 1.12 2.3 2.53c.85 1.24.4 2.46-1.04 2.91q-.34.12-.7.15c-2.9.26-5.8.37-8.68-.27q-3.35-.75-6.62-1.77c-.98-.3-1.29-.61-1.95.67q-.47.92-1.32 1.48c-4.4 2.82-8.77 2.96-12.62-1.18-2.3-2.46-3.67-5.31-3.7-8.73 0-.84-.33-1.41-1.03-1.9a55 55 0 0 1-3.6-2.8 104 104 0 0 1-9.03-8.74 47 47 0 0 1-8.55-12.59c-2.06-4.51-3.14-9.2-2.29-14.17a3.7 3.7 0 0 0-1.33-3.66q-1.93-1.7-3.8-3.46c-3.44-3.24-6.07-6.97-6.9-11.74q-.33-1.9-.62-3.81c-1.06-7-1.14-14.05-1.15-21.1 0-1.53-.08-3.05-.12-4.57-.02-.47-.09-.9-.73-.75-2.06.48-3.95-.23-5.86-.85a17 17 0 0 1-5.17-2.8c.37 1.44.68 2.58.95 3.73q3.24 13.7 6.07 27.5a653 653 0 0 0 3.35 15.2q1.48 6.34 3.43 12.55c.23.73.52 1.1 1.37 1.09 1.31-.03 2.39.6 3.23 1.59a25 25 0 0 1 5.48 11.17c.29 1.35.46 2.73.8 4.07.36 1.5.67 1.6 2.09 1.04 2.53-1 4.05-.62 5.85 1.43 3.56 4.06 4.91 8.74 3.85 14.06-.6 2.97-1.63 5.78-3.64 8.13-.91 1.07-.93 1.08-.19 2.35a153 153 0 0 0 15.08 21.31c.8.93.83.93 1.9.33m103.92-2.67c.13-1.46.83-2.65 2.35-3.08 1.48-.42 2.72.09 3.68 1.25a11.4 11.4 0 0 1 2.52 8.24c-.18 2.69-2.9 3.87-5.16 2.38a6 6 0 0 1-1.24-1.17 10.5 10.5 0 0 1-2.15-7.62m-32.37 37.45q.33-.15.7-.18 4.68-.5 8.01 2.81.84.95 1.08 2.17a2.97 2.97 0 0 1-2.3 3.55q-.84.18-1.7.1a18 18 0 0 1-5.5-1.42 6 6 0 0 1-1.23-.7c-1.17-.83-1.86-1.94-1.68-3.4.2-1.55 1.3-2.36 2.62-2.93" style="fill:#fff" transform="translate(-44.5 -780.9)"/><path d="M132.4 266.3a54 54 0 0 0 13.35 2.97c4.51.37 8.58-.89 12.33-3.31a10 10 0 0 0 2.89-2.74c.86-1.29.88-1.28 2.04-.18l.2.2q6.47 6.29 13.42 12a146 146 0 0 0 22.53 15.36c6.53 3.61 13.35 6.56 20.68 8.1 5.09 1.08 10.29 1.4 15.43 2.1 1.32.17 2.67.18 4 .18 8.33.01 15.88-2.8 23.16-6.5 1.69-.86 3.22-2.04 4.76-3.16 3.18-2.29 5.8-5.08 7.43-8.7q.48-1.12 1.08-2.18c1.98-3.3 2.85-6.96 3.14-10.74a59 59 0 0 0-1.94-21.1c-1.84-6.32-3.76-12.6-7.1-18.34a118 118 0 0 0-9.38-13.47c-4.95-6.29-10.48-11.96-16.98-16.67q-3.4-2.5-6.87-4.88c-.8-.55-.84-.7-.2-1.3 2.25-2.11 3.34-4.8 3.88-7.77.97-5.42.46-10.74-1.18-15.95a67 67 0 0 0-14.13-25.08c-2.34-2.59-4.84-5-7.73-6.97-2.81-1.92-5.77-3.54-9.15-4.23-3.77-.77-7.2.12-10.33 2.23-2.33 1.58-3.31 3.99-3.67 6.68-.7 5.27.27 10.35 1.77 15.36 1.1 3.67 2.87 7.06 4.44 10.53.14.32.38.61.33 1.1-4.18-3.52-7.81-7.43-11.44-11.33-4.59-4.93-8.42-10.45-11.99-16.15q-4.15-6.6-8.32-13.17-4-6.34-8.24-12.54a131 131 0 0 0-9.77-12.82 111 111 0 0 0-12.11-11.9 4 4 0 0 1-.9-1.1 92 92 0 0 0-7.14-11.36 39 39 0 0 0-9.94-9.54 14 14 0 0 0-4.67-2.08c-3.44-.77-6.3.26-8.65 2.8-.94 1.01-.92 1.04-2.15.53-3.09-1.27-6.19-2.5-9.37-3.52-2-.65-4-1.26-6.04-1.72-.82-.18-1.24-.56-1.25-1.44-.02-.9-.3-1.78-.53-2.66-1.39-5.05-3.93-9.49-7.15-13.56a83 83 0 0 0-6.42-7.29A64 64 0 0 0 66 33.61a40 40 0 0 0-20.17-7.35c-4.02-.3-7.92.24-11.4 2.45-3.9 2.48-6.08 5.97-5.87 10.72q.1 2.3.85 4.48a32 32 0 0 0 6.67 10.9c1.49 1.66 2.92 3.38 4.7 4.97-1.6-.09-2.92-.2-4.25-.23a13 13 0 0 0-11.05 5.27c-3.51 4.53-4.17 9.64-2.48 15.02 1.62 5.12 4.86 9.12 9.05 12.4 4.02 3.13 8.65 4.94 13.53 6.24 9.73 2.58 19.08 1.81 27.99-3.04 3.06-1.66 6-3.5 8.39-6.1.97-1.06 1.9-2.13 2.71-3.31.48-.7.67-.7 1.17-.1l1.96 2.45c.38.46.48.9.12 1.43a8.5 8.5 0 0 0-1.17 4.07c-.47 5.27 1.66 9.6 5.08 13.35a69 69 0 0 0 8.62 7.92q1.05.8 1.5 2.03c1.72 4.8 3.21 9.68 4.35 14.66 1.37 6 2.74 11.98 4 18q2.03 9.72 4.23 19.41c1.08 4.74 2.08 9.5 3.68 14.1 2.1 5.99 4.33 11.92 6.43 17.9a164 164 0 0 0 14.18 30.06l2.58 4.3c-.52 0-.74-.28-1.01-.47-1.81-1.23-3.6-2.5-5.43-3.71-4.29-2.87-8.9-4.98-14.08-5.6-2.85-.34-5.63-.15-8.16 1.38-2.15 1.3-3.56 3.27-4.8 5.37a10.7 10.7 0 0 0-1.5 6.16 19 19 0 0 0 2.67 8.67 37 37 0 0 0 6.05 7.73 45.5 45.5 0 0 0 17.25 11.16m79.7 23.5c-.1 1.02-.34 1.15-1.3.77a77 77 0 0 1-9.16-4.36 154 154 0 0 1-22.36-15.08 215 215 0 0 1-14.91-13.32l-3.72-3.64c-.86-.96-.86-1.18.28-1.7 2.34-1.07 4.7-2.13 7.27-2.49 6.11-.84 10.9 1.48 14.51 6.35a69 69 0 0 0 3.76 4.67 11.2 11.2 0 0 0 9.28 3.92q2.21-.1 4.38-.6 1.47-.31 2.95-.54a4.8 4.8 0 0 1 4.36 1.63c1.45 1.54 2.2 3.43 2.74 5.43a59 59 0 0 1 1.99 16.54c-.01.8.02 1.62-.07 2.43M207 174.57c-2.05-4.36-4.16-8.68-6.15-13.06a36 36 0 0 1-3.22-13.12c-.06-1.33.08-2.66.19-4 .32-3.93 2.19-6.06 7.15-6.3 2-.1 3.86.54 5.63 1.41a35 35 0 0 1 9.1 6.61 75 75 0 0 1 4.97 5.51c3.5 4.17 6.05 8.9 8.15 13.88 1.42 3.38 2.76 6.8 3.3 10.47.55 3.66.53 7.31-.34 10.93-.43 1.78-1.13 3.45-2.55 4.7-.9.79-1.08.8-2.14.2-.25-.14-.48-.32-.74-.43-.8-.35-1.03-1-1.1-1.82a172 172 0 0 0-4.28-24.63c-.34-1.39-.77-2.75-1.17-4.13q-.12-.48-.38-.91c-.2-.32-.5-.25-.66.08-.19.4-.1.84-.09 1.27.16 3.47.5 6.94.87 10.4.55 4.97 1.18 9.93 1.76 14.9.06.5.26 1.02-.08 1.72l-3.02-1.84c-.53-.31-.76-.82-.97-1.37q-2.93-7.9-5.9-15.8c-1.67-4.46-3.42-8.9-5.6-13.14a56 56 0 0 0-1.6-2.86c-.22-.35-.45-.93-.9-.76-.52.2-.2.75-.08 1.12q.98 3.14 2 6.26c2.37 7.25 5.05 14.39 7.7 21.53.18.48.5.93.4 1.5-.46.17-.73-.17-1.02-.36a108 108 0 0 1-7.3-5.51 7 7 0 0 1-1.93-2.45m19.7 20.24a129 129 0 0 1 19.42 13.82c1.4 1.22 2.7 2.56 4.03 3.84q.39.35.55.83c.71 2.27 1.47 4.53 1.52 6.95.07 3.1-1 5.79-2.96 8.14a4.3 4.3 0 0 1-3.69 1.53c-2.11-.1-3.78-1.14-5.34-2.46-2.15-1.8-3.63-4.15-5.28-6.36-.2-.27-.35-.57-.58-.8-.92-.96-2.01-.85-2.75.26-.27.4-.45.84-.7 1.24-1.62 2.7-4.04 3.51-6.98 2.38a15 15 0 0 1-5.45-3.84 54 54 0 0 1-3.75-4.4c-1.48-1.71-2.9-3.76-4.83-5.35a13.2 13.2 0 0 0-12.72-2.63 41 41 0 0 0-4.58 1.61 16 16 0 0 0-4.38 2.67c-.71.62-1.55 1.1-2.3 1.69-.64.5-1.18.44-1.76-.11-1.72-1.64-3.56-3.18-5.19-4.9-2.29-2.42-4.67-4.77-6.7-7.43a105 105 0 0 1-3.49-4.87c-.58-.86-.5-1.02.46-1.5 2.92-1.4 5.91-1.81 8.99-.56 1.76.72 3.5 1.52 5.25 2.25 1.5.63 3.05 1.1 4.7 1.18a6.1 6.1 0 0 0 6.44-5.27 9 9 0 0 0-.08-3.55c-.38-1.72-.93-3.4-1.46-5.08a19 19 0 0 1-.8-7.48 4.1 4.1 0 0 1 2.54-3.52c.96-.46 1.7-.37 2.47.32q2.14 1.87 4.32 3.74c7.74 6.77 16.27 12.41 25.09 17.66m-56.25 24.37c-4.89-1.97-9.12-4.93-13.1-8.31a84 84 0 0 1-11.63-11.98c-3.3-4.2-5.75-8.86-6.8-14.17-.46-2.34-.24-4.67.24-6.96a5.4 5.4 0 0 0-1.35-5.13 44 44 0 0 0-3.76-3.7c-1.15-1-2.33-1.98-3.4-3.05a15 15 0 0 1-4.07-8.05 79 79 0 0 1-1.23-16.8c.13-4.8.46-9.6-.06-14.41-.02-.18-.07-.38.19-.6 1 1.27 1.75 2.68 2.55 4.06 4.31 7.37 8.02 15.05 11.62 22.78 4.14 8.9 8.23 17.82 13.1 26.36a227 227 0 0 0 11.7 18.62 93 93 0 0 0 5.8 7.6 92 92 0 0 0 20.2 17.58c.42.27.93.46 1.23 1-.42.4-.91.25-1.36.24a34 34 0 0 1-8.29-1.43c-3.9-1.1-7.82-2.13-11.58-3.65m4.3 5.87q-.17.24-.4.41c-2.2 1.61-5.58 2.57-8.39.14a11.4 11.4 0 0 1-3.56-5.54c-.12-.39-.3-.81 0-1.21.32-.16.56.06.79.2 3.4 2.05 7.07 3.48 10.78 4.83l.54.19c.6.2.55.56.24.98m-30.15-83.92c2.34 1.93 4.85 2.52 7.69 1.11 1.17-.58 1.25-.5 1.84.68.77 1.55 1.23 3.2 1.54 4.9a21 21 0 0 0 4.26 9.41 14 14 0 0 0 6.52 4.72c3.58 1.2 8.01-.11 10.65-3.1a18 18 0 0 0 2.67-4.14c4.56 5.64 9.17 10.98 14.3 15.76-.14.47-.44.54-.69.66-2.26 1.1-3.39 3-3.77 5.39-.44 2.8.06 5.5.9 8.16q.6 1.84 1.17 3.68c.35 1.2.5 2.43.33 3.68-.3 2.16-1.7 3.27-3.88 3.02a10 10 0 0 1-3.13-.93l-4.1-2.04a15 15 0 0 0-7.43-1.76q-3.27.18-6.1 1.82c-1.01.6-1.19.58-1.8-.42q-3.42-5.62-6.77-11.26c-5.45-9.15-9.94-18.78-14.28-28.48a225 225 0 0 0-8.63-17.57c-.2-.37-.36-.75-.64-1.34a7.2 7.2 0 0 1 5.08 3.09c1.28 1.77 2.55 3.56 4.27 4.96m-33.5-68.44a5.4 5.4 0 0 1 3.7-.7q2 .35 3.71 1.42a37 37 0 0 1 10.58 9.63q1.1 1.45 2.22 2.88l-.1.1c-1.6-1.08-3.19-2.2-4.8-3.25a144 144 0 0 0-14.5-8.52l-.77-.4c-.78-.46-.8-.71-.04-1.16m-7.15 4.57a156 156 0 0 1 30.29 19.04c3.34 2.69 6.47 5.6 9.5 8.63 3.22 3.2 6.02 6.76 8.9 10.24l.19.22c1.17 1.53 1.07 1.95-.71 2.7-1.61.67-3.24 1.08-5 .5a5 5 0 0 1-3.43-3.34c-.42-1.36-.83-2.73-1.4-4.05-1.2-2.75-2.68-3.69-5.52-2.84-3.1.92-5.19-.18-6.85-2.62-1.05-1.53-2.03-3.11-3.03-4.67a37 37 0 0 0-6.15-7.3 23.4 23.4 0 0 0-11.42-5.55q-.84-.18-1.68-.31c-4.04-.6-7.4.73-10.17 3.66-1.33 1.41-1.55 1.45-2.51-.26-2.89-5.17-6.82-9.52-10.78-13.83a53 53 0 0 0-9.52-8.38c-.3-.2-.57-.47-.86-.7l.15-.33q2.1.28 4.19.61c9.05 1.52 17.57 4.62 25.8 8.58M56.83 65.99c2.31.9 4.66 1.7 7.1 2.2q2.47.51 4.63 1.77a40 40 0 0 1 7.19 5.2c-.37.43-.73.43-1.04.5-2.75.61-5.5 1.16-8.23 1.83-4.35 1.06-8.77 1.87-13 3.38-.6.22-1.7.2-1.55 1.1.12.73 1.13.51 1.75.57 3.72.37 7.43.07 11.13-.27 3.36-.32 6.72-.74 10.08-1.14A15 15 0 0 0 79.3 80c.7-.33 1.23-.25 1.74.37 1.93 2.33 2.18 1.4.15 3.8-7.07 8.4-16.14 12.33-27.1 11.78a38 38 0 0 1-15.52-4A23.2 23.2 0 0 1 27.6 80.73a12.7 12.7 0 0 1-.73-9.45c1.36-4.23 5.28-7.82 10.75-7.52q3.07.16 6.09.81.9.2 1.83.28c.76.07 1.43-.14 1.83-.86.38-.7.22-1.38-.19-2.02q-.2-.3-.43-.57c-1.6-1.9-3.2-3.77-4.92-5.56-3.57-3.74-6.8-7.74-8.55-12.71-.53-1.5-.84-3.05-.73-4.63a6.9 6.9 0 0 1 3.38-5.64c3.35-2.1 7.03-2.31 10.77-1.71q7.92 1.24 14.85 5.3c3.8 2.24 7.18 5 10.4 8a72 72 0 0 1 6.61 7.3 37 37 0 0 1 5.68 10.02l.88 2.27c.21.55.06.84-.56.76q-.57-.07-1.13-.17c-.57-.08-1.14-.29-1.7-.25-2.03.17-3.24-.92-4.52-2.36A98 98 0 0 0 64.64 50.4a93 93 0 0 0-6.43-4.75c-.4-.26-.92-.88-1.36-.4-.45.5.2.95.52 1.3 1.72 1.91 3.42 3.85 5.24 5.66 1.52 1.52 2.86 3.2 4.43 4.66 1.74 1.63 3.37 3.37 5.04 5.06q.5.51.96 1.05c.61.74.56.95-.35 1.07q-3.18.45-6.38.8c-.46.04-.94-.07-1.42-.12a40 40 0 0 0-7.84-.19c-.49.04-1.23-.11-1.33.54s.66.74 1.11.91m41.36 30.99-.46-.9q-.42-.72.2-1.27c1.34-1.15 2.59-2.39 4.18-3.22a7 7 0 0 1 4.3-.69c7.27.9 12.73 4.73 16.94 10.55 1.23 1.7 2.37 3.46 3.56 5.19q1.28 1.83 3.1 3.13a7.1 7.1 0 0 0 6.1 1.26c.55-.13 1.1-.29 1.67-.38 1.14-.2 1.68.06 2.2 1.1.34.69.58 1.42.82 2.14.23.67.4 1.37.62 2.05a7.36 7.36 0 0 0 7.42 5.33c2.1-.02 4.03-.65 5.82-1.73.85-.52.87-.5 1.46.31 4.3 6 8.3 12.2 12.4 18.33 2.8 4.2 5.53 8.45 8.54 12.5.75 1.02.97 2.04.41 3.2-1.28 2.66-3.07 4.83-5.95 5.83-3.06 1.05-5.6-.05-7.86-2.1-.53-.47-.98-1.03-1.47-1.55-2.22-2.52-3.3-5.54-3.85-8.79a31 31 0 0 0-1.39-5.53 9 9 0 0 0-1.06-2.18c-.84-1.17-1.87-1.56-3.24-1.17-.73.21-1.43.53-2.12.86a3 3 0 0 1-3.24-.28 8 8 0 0 1-2.15-2.07c-.88-1.42-2-2.66-3.1-3.92a8.7 8.7 0 0 0-6.64-3.12h-.43c-1.18.11-1.88-.38-2.48-1.45a121 121 0 0 0-7.83-11.94c-.98-1.35-2.2-2.5-3.55-3.5-.57-.42-1.17-.8-1.66-1.34-.4-.44-.93-.75-1.53-.4-.7.41-.53 1.07-.26 1.65 1.74 3.73 2.02 7.82 2.91 11.75l.1.57c.07.81-.17 1.12-.98 1.25a4 4 0 0 1-1.55-.16q-2.7-.76-5.17-2.07a8 8 0 0 1-2.35-1.83 20 20 0 0 1-4.05-6.5 122 122 0 0 0-8.38-18.91m-7.24.47a10 10 0 0 1-.02-4.12 233 233 0 0 1 7.53 15.2c-3.25-3.2-6.6-6.32-7.51-11.08m48.52 126.69c-.32-.53-.58-1.1-.88-1.64-4.4-8.06-7.76-16.55-10.78-25.2l-2.66-7.7c-.15-.44-.44-.85-.23-1.72a17 17 0 0 1 3.08 3.76 26 26 0 0 1 2.75 7.04c.32 1.49.63 2.99 1.08 4.44.82 2.61 2.43 3.43 5.07 2.7 1.98-.54 2.39-.39 3.53 1.34q.6.9 1.17 1.8a11 11 0 0 1 1.37 8.39q-.58 2.95-1.75 5.73-.23.53-.53 1.01c-.47.76-.77.77-1.22.05m10.04 16.11a153 153 0 0 1-7.37-11.39c-.75-1.27-.72-1.27.19-2.34 2-2.35 3.03-5.16 3.63-8.13 1.07-5.32-.28-10-3.85-14.07-1.8-2.04-3.3-2.42-5.84-1.42-1.43.56-1.73.45-2.1-1.05-.33-1.34-.5-2.71-.8-4.06a25 25 0 0 0-5.47-11.17 4 4 0 0 0-3.23-1.6c-.86.03-1.14-.36-1.37-1.08a168 168 0 0 1-3.43-12.55 671 671 0 0 1-3.36-15.2q-2.84-13.8-6.06-27.5c-.27-1.15-.59-2.3-.96-3.73a17 17 0 0 0 5.18 2.8c1.9.61 3.8 1.33 5.86.84.64-.15.7.3.72.75.05 1.53.12 3.05.12 4.58.01 7.05.1 14.1 1.15 21.1q.3 1.9.63 3.8c.82 4.78 3.45 8.5 6.9 11.74q1.86 1.77 3.8 3.47a3.7 3.7 0 0 1 1.33 3.65c-.86 4.97.22 9.67 2.29 14.18a47 47 0 0 0 8.55 12.58c2.87 3.06 5.8 6.05 9.02 8.74q1.75 1.48 3.6 2.8c.7.5 1.04 1.07 1.04 1.9.02 3.42 1.4 6.28 3.7 8.74 3.85 4.14 8.22 4 12.61 1.17a4 4 0 0 0 1.33-1.47c.66-1.29.97-.97 1.94-.67q3.28 1.02 6.63 1.77c2.88.64 5.77.52 8.68.27q.35-.04.7-.15c1.43-.46 1.89-1.67 1.04-2.9q-.98-1.43-2.3-2.54l-4.95-4.11c-.22-.19-.46-.35-.65-.56-.58-.6-.6-.86.05-1.4a27 27 0 0 1 4.42-3.14c1.86-1 3.87-1.65 5.93-2.05a9.6 9.6 0 0 1 7.7 1.83 39 39 0 0 1 6.5 6.2 42 42 0 0 0 5.02 5.07 16 16 0 0 0 5.32 3c3.52 1.15 6.45.18 8.98-2.38l.36-.44c.54-.55.73-.54 1.23.1.14.18.24.4.39.6 1.5 2.02 3.02 4.04 5 5.66 3.18 2.6 7.25 3.06 10.53 1.21a8 8 0 0 0 2.53-2.47c2.2-3.12 2.83-6.6 2.4-10.34l-.1-.84q0-.03.12-.18c.83.98 1.7 1.9 2.45 2.92 2.27 3.12 4.54 6.23 6.66 9.45 3.23 4.9 5.55 10.2 7.48 15.7a66 66 0 0 1 3.87 21.42c.04 4.24-.53 8.37-2.52 12.2-1.85 3.55-4.57 6.3-7.79 8.6-5.85 4.2-12.5 6.46-19.5 7.75-5.24.96-10.52.82-15.77-.22a171 171 0 0 0-7.17-1.3 39 39 0 0 1-7.68-2.22c-1.05-.4-1-.42-.89-1.56.28-2.75.2-5.52.11-8.28-.13-4.33-.38-8.66-1.46-12.9a15 15 0 0 0-1.53-3.83c-1.92-3.35-4.93-4.84-8.74-4.3-.9.14-1.78.35-2.66.54-1.69.36-3.39.57-5.11.47a7.5 7.5 0 0 1-5.48-2.69 48 48 0 0 1-3.86-5.31c-3.54-5.46-8.7-7.75-15.02-7.8-1.34 0-2.66.29-3.91.76a52 52 0 0 0-7.15 3.23c-1.07.6-1.1.6-1.9-.32a138 138 0 0 1-7.7-9.93m-37.03 3.03q-.42-.91-.75-1.85c-1.63-4.53-.19-7.85 3.79-10.94.9-.7 2.02-.81 3.11-.92 3.17-.33 6.16.45 9.06 1.6 3.16 1.26 6 3.12 8.83 4.97q3.95 2.58 7.92 5.12c.82.52 1.5 1.1 2.02 1.95.75 1.22 1.64 2.34 2.52 3.58-.47.22-.78-.05-1.08-.17-6.18-2.38-12.3-4.91-18.59-7q-1.5-.5-3-.97c-.26-.09-.6-.23-.75.1-.16.35.2.48.44.6l5.1 2.6a189 189 0 0 0 20.15 8.81c1.53.55 2.17 1.9 3.01 3.2q-3.67-.55-7.32-1.15-6.56-1.11-13.16-1.84l-6.82-.75c-.33-.04-.67-.1-1-.07-.52.03-1.32-.39-1.48.32-.14.6.7.66 1.15.85 2.51 1.04 5.14 1.74 7.76 2.44 6.32 1.68 12.73 2.9 19.2 3.85 1.4.2 2.83.33 4.27.25.37-.02.75-.08 1.1.13.97.57 1.15 1.37.43 2.25a6 6 0 0 1-2.12 1.66 20.5 20.5 0 0 1-13.05 1.89c-8-1.42-15.27-4.4-21.6-9.5-3.78-3.05-7.08-6.53-9.14-11"/><path d="M271.59 254.25c.2-3.02-.56-5.84-2.52-8.24-.96-1.16-2.2-1.67-3.68-1.25-1.52.43-2.23 1.62-2.35 3.08-.24 2.8.4 5.37 2.14 7.62.38.44.77.85 1.25 1.17 2.26 1.5 4.98.31 5.16-2.38m-41.86 37.36q.58.43 1.23.72c1.76.72 3.58 1.26 5.5 1.41q.86.08 1.7-.1a2.97 2.97 0 0 0 2.3-3.55 4.5 4.5 0 0 0-1.08-2.17 9.5 9.5 0 0 0-8.02-2.81q-.37.03-.69.18c-1.32.57-2.43 1.38-2.62 2.93-.18 1.47.51 2.57 1.67 3.4m-59.06-77.8a53 53 0 0 1-6.86-6.03c-4.4-4.55-8.23-9.5-10.6-15.46-1.8-4.51-3.67-9-4.7-13.77a3.5 3.5 0 0 0-1.45-2.2 24 24 0 0 1-4.48-4.4 48 48 0 0 1-7.93-13.48c-.86-2.22-1.84-4.4-2.63-6.64-.1-.27-.23-.56-.6-.49-.25.06-.33.32-.38.55q-.24 1.28-.11 2.57.2 2.13.82 4.2c2.37 7.73 6.65 14.29 12.29 20.01.39.4.62.82.72 1.35.85 4.54 2.61 8.76 4.52 12.92 1.95 4.26 4.29 8.3 7.6 11.67a70 70 0 0 0 10.28 8.62 23 23 0 0 0 4.52 2.44c.56.21 1.12.51 1.86.34-.1-.61-.5-.72-.83-.88q-1.07-.58-2.04-1.32"/></svg>