<svg xmlns="http://www.w3.org/2000/svg" xmlns:xlink="http://www.w3.org/1999/xlink" xml:space="preserve" viewBox="-33.6 -52 212.5 227.1"><defs><path id="a" d="M0 0h500v500H0z" transform="matrix(-1 0 0 -1 500 500)"/></defs><clipPath id="b"><use xlink:href="#a" style="overflow:visible"/></clipPath><g style="clip-path:url(#b)"><path d="M10.78-26.14h122.67v173.33H10.78z" style="opacity:.26;fill:#00609b" transform="rotate(33.94 72.11 60.52)"/><path d="M11.88-24.19h122.67v173.33H11.88z" style="fill:#f3f3e9" transform="rotate(33.94 73.21 62.47)"/><path d="M-13.8 116.62h95.33v2.67H-13.8z" style="opacity:.26;fill:#00609b" transform="rotate(33.94 33.87 117.95)"/><path d="M-8.22 108.33h95.33V111H-8.22z" style="opacity:.26;fill:#00609b" transform="rotate(33.94 39.45 109.65)"/><path d="M-2.63 100.03H92.7v2.67H-2.63z" style="opacity:.26;fill:#00609b" transform="rotate(33.94 45.03 101.36)"/><path d="M2.95 91.73h95.33v2.67H2.95z" style="opacity:.26;fill:#00609b" transform="rotate(33.94 50.62 93.06)"/><path d="M8.53 83.44h95.33v2.67H8.53z" style="opacity:.26;fill:#00609b" transform="rotate(33.94 56.2 84.77)"/><path d="M14.12 75.14h95.33v2.67H14.12z" style="opacity:.26;fill:#00609b" transform="rotate(33.94 61.78 76.47)"/><path d="M19.7 66.85h95.33v2.67H19.7z" style="opacity:.26;fill:#00609b" transform="rotate(33.94 67.37 68.18)"/><path d="M25.29 58.55h95.33v2.67H25.29z" style="opacity:.26;fill:#00609b" transform="rotate(33.94 72.95 59.88)"/><path d="M30.87 50.25h95.33v2.67H30.87z" style="opacity:.26;fill:#00609b" transform="rotate(33.94 78.53 51.58)"/><path d="M36.45 41.96h95.33v2.67H36.45z" style="opacity:.26;fill:#00609b" transform="rotate(33.94 84.12 43.29)"/><path d="M42.04 33.66h95.33v2.67H42.04z" style="opacity:.26;fill:#00609b" transform="rotate(33.94 89.7 35)"/></g></svg>