<svg xmlns="http://www.w3.org/2000/svg" viewBox="770.88 1559.88 813.24 651.24"><path d="M1374.5 2070.5c.66 21.33-4.38 43.23-16.63 60.7s-32.21 29.99-53.55 30.87-43.26-11.14-51.9-30.68c-7.51 15.67-26.28 25.01-43.32 21.56-17.03-3.44-30.68-19.37-31.53-36.71-33.55 10.17-71.07 14.13-108.04 11.28-4.41 32.27-30.28 56.88-59.24 58.7s-57.71-19.3-64.6-47.5c-11.37 13.64-33.5 14.72-48.48 5.2-14.99-9.5-23.3-27.2-25.44-44.8-2.16-17.63 1.05-35.43 4.7-52.8-44.52-35.76-73.34-92.67-73.57-150.37-.2-57.71 28.2-114.82 74.37-149.46 7.57-14.47 11.9-27.4 17.91-39.47 8.6-17.27 21.28-33.27 38.74-41.42 17.46-8.17 40.16-6.8 53.86 6.75-8.29-21.85.8-45.12 16.6-58.9 15.82-13.79 36.84-19.88 57.49-23.64 73.94-13.48 149.9-2.2 224.2 9.17 23.63 3.62 48.81 7.95 66.39 24.15 17.6 16.21 22.1 48.68 1.65 65.63 40.9 20.1 72.43 58.39 84.37 102.37 16.29-12.68 41.13-12.82 57.56-.34 16.44 12.5 22.93 36.48 15.04 55.57 21.85-5.7 43.7 17.34 42.21 39.9-1.48 22.53-20.22 41-41.33 49.02s-44.34 7.72-65.34 4.96c-.76 48.6-26.65 96.16-72.11 130.25" style="fill:#f2e9e1"/><path d="M1398.83 1808.7c-28.77-45.34-73-75.08-124.44-90.46s-106.3-16.15-159.68-10.37c-43.64 4.73-88.5 13.62-130.72 1.54-9.37-2.68-18.74-6.41-28.48-6.04-16.6.66-30.76 13.47-37.88 28.48-7.15 15.02-8.6 32-5.41 46.06-41.5 29.4-67.4 79.64-67.23 130.51s26.4 100.95 68.85 134.59a144 144 0 0 0 5.61 51.61c1.48 5.01 3.85 10.57 8.8 12.25 4.62 1.57 9.57-.88 13.65-3.53 13.1-8.52 24.24-20.03 28.85-35.1 4.27.69 8.52 1.37 12.56-.42a132 132 0 0 0 5.01 52.12c1.97 6.44 5.13 13.45 11.45 15.7 8.04 2.87 16.3-3.42 22.1-9.69 11.12-11.96 20.43-25.58 28.46-42.72 48.5 3.39 97.19 3.93 146.6 3.16 2.26 5.07 4.93 10.08 8.86 13.98 3.94 3.9 9.3 6.67 14.84 6.47 6.5-.23 12.34-4.47 16.13-9.77s5.84-11.6 6.8-18.09c6.07-1.36 12.1-2.76 18.18-3.73.94 17.43 15.03 33.3 32.24 36.26 5.78 1 12.3.46 16.69-3.42 3.9-3.44 5.41-8.8 6.6-13.87a308 308 0 0 0 6.9-43.26c38.88-22.68 69.1-59.79 83.4-102.46 14.28-42.67 18.6-96.67-8.74-139.8" style="fill:#f5a1a6"/><path d="M1034.24 1867.44c-6.3-4.65-16.12-3.56-21.25 2.36s-4.81 15.8.69 21.4 15.38 6.03 21.36.99c6-5.07 9.43-17.2-.8-24.75m-115.33-50.48c-6.3-4.64-16.12-3.56-21.25 2.37s-4.81 15.8.69 21.39 15.38 6.04 21.36 1 9.43-17.2-.8-24.76" style="fill:#511239"/><path d="M892.17 1909.34c1.85-10.43 9.9-19.34 19.88-22.9s21.47-1.94 30.5 3.64 15.5 14.81 18.43 24.98c2 6.9 1.68 15.78-4.44 19.51-2.88 1.77-6.41 1.97-9.8 1.88-20.08-.51-39.8-9.94-54.58-27.12" style="fill:#d8707a"/><path d="M1208.73 1735.3a121 121 0 0 0-29.05.03c-4.16.51-9.17 2.08-9.89 6.2-.48 2.83 1.54 5.56 4.08 6.9 2.53 1.31 5.47 1.51 8.31 1.71l41.99 2.65c4.98.31 11.28-.14 13.1-4.79 1.4-3.5-.94-7.6-4.27-9.42-3.3-1.8-7.26-1.83-11.02-1.63s-7.21-.94-13.25-1.65m-276.69 218.38c-4.07-2.82-6 1.6-7.86 4.5-.37.43-.88 1-1.2 1.23l-.28.23-.26.17c-4.27 2.36-5.2 2.08-8.8.51-2.33-1.68-1.6-.94-3.22-3.22-1.16-1 .03-3.13-2.96-5.41-3.07-1.94-7.23 1.25-6.15 4.73 2.17 12.02 18 17.8 27.12 9.4 3.13-2.6 7.52-8.58 3.61-12.14m130.49-133.56c-1.46-3.93-1.83-8.48-4.22-11.93a4.7 4.7 0 0 0-6.64 0c-3.3 3.33-7.83 5.84-10.45 9.71-2.16 4.39 4.13 8.57 7.43 5.01l3.54-2.96c1.08 4.96 2.25 11.08 7.89 10.23 4.5-1.34 3.38-6.6 2.45-10.06m-143.19 80.36c-2.9-.86-5.27 1.6-6.21 4.1-.57 1.5-1.62 3.07-1.22 4.76.4 5.26 8.54 5.78 9.74.65 1.1-3.25 1.99-8.32-2.31-9.51m26.75 13.12c-.72-3.1-4.65-4.26-7.1-2.41-2.59 2.13-5.4 5.8-4.67 9.34 1.03 4.24 7.24 5.07 9.32 1.22 1.42-2.45 3.21-5.15 2.45-8.14" style="fill:#511239"/><path d="M1145.04 2093.03c-97.55 0-168.17-12.37-215.88-37.8-47.76-25.47-75.62-65.49-85.19-122.34-12.25-72.92 29.28-127.5 59.36-156.46a6 6 0 0 1-.09-1.4c3.8-42.95 23.53-73.4 40.22-80.23 6.64-2.74 13-1.91 17.92 2.27l.29.26c14.3 12.2 22.18 18.89 86.87 10.74 141.65-17.86 249.74-1.23 312.6 48.1 34.04 26.72 53.87 62.67 58.91 106.76 6.9 60.16-7.72 112.4-42.24 151.08-46.12 51.67-126.61 79.02-232.77 79.02M934.46 1752.3a4.99 4.99 0 0 1 2.68 9.2c-1 .66-100.8 65.6-83.31 169.74 18.11 107.8 102.48 151.79 291.21 151.79 103.26 0 181.16-26.18 225.34-75.66 33.04-37.02 46.4-85.25 39.76-143.3-4.73-41.35-23.3-75.02-55.17-100.03-59.82-47-168.2-63.38-305.18-46.09-66.1 8.35-77.36 1.66-94.59-13.04l-.28-.26c-1.29-1.1-3.5-2.36-7.67-.65-12.64 5.18-27.88 29.93-32.9 62.46 10.09-8.6 17.18-13.22 17.46-13.39.8-.5 1.74-.76 2.65-.76" style="fill:#511239"/><path d="M1086.74 1838.16a5 5 0 0 1-4.9-4.1 243 243 0 0 0-12.76-44.93c-1.26-3.16-2.68-6.2-4.76-7.15-3.59-1.62-8.92 2.94-11.05 4.99a106 106 0 0 0-23.56 33.67 4.99 4.99 0 1 1-9.14-4.02 116 116 0 0 1 25.78-36.86c7.69-7.37 15.52-9.82 22.04-6.86 6.04 2.73 8.55 9.14 9.91 12.59a252 252 0 0 1 13.3 46.77 5.02 5.02 0 0 1-4.86 5.9M948.2 1943.52c-18.75 0-46.8-13-56.1-25.21-4.83-6.38-3.98-15.36 2.32-23.99 8.65-11.87 26.14-20.82 42.8-14.95 20.86 7.35 31.62 27.2 31.48 43.04-.08 10.03-4.5 17.46-11.8 19.88a28 28 0 0 1-8.7 1.23m-21.77-56.03c-9.6 0-18.94 5.8-23.95 12.7-2.74 3.76-4.82 8.92-2.43 12.08 8.44 11.1 40.88 24.8 53.72 20.56 3.05-1.02 4.93-4.95 4.96-10.5.11-12.28-8.37-27.78-24.8-33.56a22 22 0 0 0-7.5-1.28m77.22 252.21q-2.83 0-5.5-.99c-6.95-2.62-10.25-9.48-12.33-15.18a144 144 0 0 1-8.83-52.67 4.9 4.9 0 0 1 5.1-4.87 4.97 4.97 0 0 1 4.87 5.1 136 136 0 0 0 8.2 49.02c1.37 3.7 3.34 8.09 6.5 9.29 3.93 1.48 9.08-2.08 12.73-5.3a110.4 110.4 0 0 0 29-40.87 4.96 4.96 0 0 1 6.49-2.74 4.97 4.97 0 0 1 2.73 6.5 120 120 0 0 1-31.64 44.57c-6.13 5.41-11.94 8.15-17.32 8.15m-70.95-28.66a15 15 0 0 1-3.48-.42c-5.44-1.4-9.54-5.78-12.53-13.39-6.92-17.6-6.78-37.08-6.64-54.26a5 5 0 0 1 4.99-4.96h.03a5 5 0 0 1 4.95 5.02c-.11 17.06-.25 34.72 5.96 50.53 1.68 4.3 3.67 6.83 5.75 7.37 2.28.6 5.5-1 9.48-4.75 9.6-9 17.55-19.51 23.59-31.22a4.97 4.97 0 0 1 6.72-2.14 4.97 4.97 0 0 1 2.14 6.72 124 124 0 0 1-25.64 33.93c-2.13 2-8.09 7.57-15.32 7.57m364.79 9.15c-8.43 0-17.07-3.96-22.88-9.83-8.94-9.06-12.9-21.76-16.06-31.99a4.99 4.99 0 0 1 9.51-2.96c3 9.66 6.38 20.62 13.65 27.94 6.1 6.18 17.03 9.57 24 4.28 3.91-2.97 6.13-8.3 7.79-13.13a128 128 0 0 0 6.89-42.79 5 5 0 0 1 4.93-5.04h.05c2.74 0 4.96 2.2 4.99 4.93a138 138 0 0 1-7.44 46.11c-2.13 6.24-5.12 13.25-11.16 17.84a23.4 23.4 0 0 1-14.27 4.64m-75.54-8.86q-.77 0-1.54-.06c-5.47-.42-10.94-3.22-15.38-7.77-3.79-3.9-6.35-8.52-8.57-12.88a4.97 4.97 0 1 1 8.88-4.5c1.85 3.68 3.96 7.46 6.84 10.43 2.76 2.84 5.95 4.53 9.03 4.78 5.27.43 10.2-3.42 12.93-7.15 3.59-4.87 5.47-11.16 7.32-17.23a5 5 0 0 1 6.2-3.33 5 5 0 0 1 3.34 6.2c-2 6.56-4.22 13.99-8.8 20.26-5.21 7.03-12.82 11.25-20.25 11.25m265.55-207.3a43.5 43.5 0 0 1-24.67-7.5 42 42 0 0 1-2.25-1.67c-14.12 9.57-32.24 11.28-46.48 4.33a4.96 4.96 0 0 1-2.28-6.67 4.96 4.96 0 0 1 6.66-2.28c10.4 5.07 24.07 3.99 34.9-2.56-9.52-11.88-13.76-28.71-10.54-44.64 1.4-6.86 3.81-12.22 7.37-16.32 4.76-5.47 11.71-8.34 18.12-7.49 7.18.91 13.7 6.47 16.55 14.13 2.05 5.5 2.4 11.96 1.08 19.82-2.33 13.76-8.57 26.15-17.49 35.15l.03.03c13.25 9.17 33.24 7.04 42.78-4.59a4.95 4.95 0 0 1 7.01-.68 4.95 4.95 0 0 1 .68 7c-7.46 9.12-19.37 13.94-31.47 13.94m-21.36-75c-2.88 0-6.07 1.6-8.38 4.22-2.42 2.76-4.1 6.6-5.12 11.73-2.65 13.1.8 26.92 8.57 36.49 7.6-7.55 12.93-18.15 14.95-30 1.03-6.06.83-10.85-.6-14.66-1.56-4.2-4.98-7.3-8.48-7.75q-.48-.04-.94-.03m-235.7-70.38q-.6 0-1.2-.06a1661 1661 0 0 0-24.72-1.68 1754 1754 0 0 1-28.83-1.97c-8.66-.74-12.99-6.49-12.82-11.79.17-5.1 4.62-10.68 13.93-10.88 13.62-.25 44.92.2 55.74 2.45 8.2 1.71 11.11 8.23 10.34 13.56-.88 6.1-6.15 10.37-12.44 10.37m-53.55-21.4.08 5c-2.82.05-4.04.96-4.19 1.27.09.26 1.12 1.28 3.7 1.48 5.7.49 17.35 1.23 28.6 1.97 10.49.68 20.37 1.3 24.96 1.68 2.53.23 2.87-1.45 2.93-1.8.23-1.53-1.48-2.13-2.5-2.36-9.6-2-39.48-2.53-53.53-2.25z" style="fill:#511239"/><path d="M1034.67 1687.56q-1.73 0-3.36-.48c-5.93-1.82-9.43-8-9.57-16.95a71 71 0 0 1 4.81-26.83c3.08-7.8 7.18-12.68 12.56-14.87a14.6 14.6 0 0 1 13.13 1.37c3.25 2.1 5.19 5.38 5.27 8.94a4.25 4.25 0 0 1-4.13 4.39 4.24 4.24 0 0 1-4.38-4.13c-.03-.94-.77-1.63-1.4-2.05a6.2 6.2 0 0 0-5.24-.63c-3.1 1.25-5.67 4.56-7.83 10.08a62 62 0 0 0-4.25 23.56c.06 3.61 1.03 8.14 3.56 8.91 1.31.4 3.22-.23 4.87-1.62a12.3 12.3 0 0 0 4.25-10.83c-.14-1.1.17-2.25.85-3.16s1.71-1.48 2.85-1.62c5.64-.74 11.25-1.9 16.66-3.53a4.27 4.27 0 1 1 2.45 8.2c-4.64 1.4-9.42 2.5-14.24 3.28a21 21 0 0 1-7.35 14.27c-2.9 2.42-6.3 3.7-9.51 3.7m54.97-8.49q-.6.01-1.2-.05c-4.35-.32-8.14-2.62-9.9-6.04-2.28-4.42-.69-9.31-.15-10.91a39 39 0 0 1 5.44-10.68q-.9-.78-1.62-1.74a11.7 11.7 0 0 1-2.37-8.69 11.8 11.8 0 0 1 4.7-7.69 11.8 11.8 0 0 1 8.72-2.28 4.27 4.27 0 0 1-1.31 8.43c-.71-.1-1.6.15-2.34.69a3.3 3.3 0 0 0-1.34 2.02c-.11.74.17 1.6.72 2.34a3.2 3.2 0 0 0 2.05 1.3 4.28 4.28 0 0 1 2.5 7.21 31 31 0 0 0-7.06 11.74c-.83 2.56-.68 3.76-.37 4.33.4.74 1.6 1.34 2.96 1.45 1.88.14 4.1-.45 6.21-1.02a4.26 4.26 0 1 1 2.25 8.23c-2.25.62-4.95 1.36-7.89 1.36m25.84-43.87h-.66a4.25 4.25 0 0 1-4.24-4.3c0-2.36 1.9-4.24 4.27-4.24h.63c8.23 0 16.49-.74 24.6-2.22a4.27 4.27 0 1 1 1.54 8.43c-8.6 1.54-17.4 2.34-26.14 2.34" style="fill:#e35a26"/><path d="M1121.15 1679.59q-.29 0-.58-.03a4.3 4.3 0 0 1-3.67-4.81l5.21-39.03a4.3 4.3 0 0 1 8.5 1.14l-5.22 39.03a4.3 4.3 0 0 1-4.25 3.7m114.96-.26q-.26 0-.5-.03a4.27 4.27 0 0 1-3.74-4.76l5.36-45.17a4.27 4.27 0 1 1 8.49 1.03l-5.36 45.17a4.3 4.3 0 0 1-4.25 3.76m33.87-1.88a10 10 0 0 1-5.35-1.54c-3.36-2.22-4.45-5.98-4.99-8.63a45.5 45.5 0 0 1 4.13-29.48c3.02-5.87 7.47-9 12.25-8.66 3.5.26 6.75 2.5 8.69 5.96 1.5 2.67 2 5.52 2.33 8a4.27 4.27 0 0 1-8.46 1.17c-.22-1.77-.54-3.62-1.3-4.99-.5-.88-1.32-1.56-1.91-1.62-1.09-.17-2.74 1.6-4 4.04a37 37 0 0 0-3.35 23.93c.48 2.4 1.05 3.02 1.28 3.16.31.23 1.5.52 5.35-1.48a4.26 4.26 0 1 1 3.93 7.58c-1.6.8-4.95 2.56-8.6 2.56m23.53 5.21q-.39-.01-.77-.05a4.26 4.26 0 0 1-3.45-4.96 575 575 0 0 1 8.97-41.16 4.28 4.28 0 1 1 8.3 2.14 570 570 0 0 0-8.84 40.53 4.3 4.3 0 0 1-4.21 3.5" style="fill:#e35a26"/><path d="M1314.23 1665.32q-.5 0-1-.12l-14.92-3.59a4.27 4.27 0 1 1 2-8.31l14.92 3.59a4.27 4.27 0 0 1-1 8.43" style="fill:#e35a26"/><path d="M1311.73 1684.2q-.47 0-.94-.11a4.27 4.27 0 0 1-3.22-5.1 342 342 0 0 1 12.02-41.16 4.27 4.27 0 1 1 8.03 2.9 338 338 0 0 0-11.7 40.17 4.3 4.3 0 0 1-4.2 3.3m-125.09-9.68h-.34a4.26 4.26 0 0 1-3.9-4.62l3.24-40.27a4.28 4.28 0 0 1 8.52.71l-3.25 40.28a4.3 4.3 0 0 1-4.27 3.9" style="fill:#e35a26"/><path d="M1214.17 1674.03c-3.76 0-7.69-1.65-10.85-4.61-3.02-2.85-4.99-6.41-6.7-9.57l-5.89-10.8a4.3 4.3 0 0 1 3.76-6.32h.11c4.5 0 8.92-3.39 10.09-7.72.3-1.17.22-1.77.14-2.02-.29-.91-2-1.6-3.5-1.42-2.37.25-4.82 1.85-7.18 3.39a4.25 4.25 0 0 1-5.9-1.29 4.25 4.25 0 0 1 1.28-5.9c2.9-1.87 6.5-4.18 10.86-4.7 4.84-.53 10.9 1.86 12.64 7.38q.93 3.05-.05 6.81c-1.6 5.9-6.27 10.68-11.91 12.82l3.1 5.67c1.49 2.7 3.02 5.52 5.07 7.43 1.8 1.71 4.02 2.56 5.73 2.22a4.27 4.27 0 0 1 1.6 8.38 12 12 0 0 1-2.4.25" style="fill:#e35a26"/><path d="M1378.32 1927.88q-.78 0-1.57-.29a4.3 4.3 0 0 1-2.42-5.55c6.95-17.63 3.9-32.59 3.88-32.73a4.27 4.27 0 1 1 8.34-1.8c.15.72 3.68 17.5-4.27 37.7a4.3 4.3 0 0 1-3.96 2.67m-11.36 28.22a4.3 4.3 0 0 1-3.96-5.9l2.87-6.97a4.29 4.29 0 0 1 7.92 3.25l-2.87 6.98a4.3 4.3 0 0 1-3.96 2.64" style="fill:#fff7ed"/></svg>