<svg xmlns="http://www.w3.org/2000/svg" xmlns:xlink="http://www.w3.org/1999/xlink" xml:space="preserve" viewBox="368.9 211 184.9 217"><defs><path id="a" d="M0 0h500v500H0z" transform="matrix(-1 0 0 -1 500 500)"/></defs><clipPath id="b"><use xlink:href="#a" style="overflow:visible"/></clipPath><g style="clip-path:url(#b)"><path d="M400.79 233.62h122.67v173.33H400.79z" style="opacity:.26;fill:#00609b" transform="rotate(198.38 462.13 320.28)"/><path d="M399.21 232.04h122.67v173.33H399.21z" style="fill:#f3f3e9" transform="rotate(198.38 460.55 318.7)"/><path d="M435.89 253.37h95.33v2.67h-95.33z" style="opacity:.26;fill:#00609b" transform="rotate(198.38 483.57 254.7)"/><path d="M432.74 262.86h95.33v2.67h-95.33z" style="opacity:.26;fill:#00609b" transform="rotate(198.38 480.41 264.18)"/><path d="M429.59 272.35h95.33v2.67h-95.33z" style="opacity:.26;fill:#00609b" transform="rotate(198.38 477.26 273.67)"/><path d="M426.43 281.84h95.33v2.67h-95.33z" style="opacity:.26;fill:#00609b" transform="rotate(198.38 474.1 283.16)"/><path d="M423.28 291.33h95.33V294h-95.33z" style="opacity:.26;fill:#00609b" transform="rotate(198.38 470.96 292.65)"/><path d="M420.13 300.82h95.33v2.67h-95.33z" style="opacity:.26;fill:#00609b" transform="rotate(198.38 467.8 302.14)"/><path d="M416.98 310.31h95.33v2.67h-95.33z" style="opacity:.26;fill:#00609b" transform="rotate(198.38 464.65 311.63)"/><path d="M413.82 319.8h95.33v2.67h-95.33z" style="opacity:.26;fill:#00609b" transform="rotate(198.38 461.5 321.12)"/><path d="M410.67 329.29H506v2.67h-95.33z" style="opacity:.26;fill:#00609b" transform="rotate(198.38 458.35 330.61)"/><path d="M407.52 338.78h95.33v2.67h-95.33z" style="opacity:.26;fill:#00609b" transform="rotate(198.38 455.2 340.1)"/><path d="M404.37 348.27h95.33v2.67h-95.33z" style="opacity:.26;fill:#00609b" transform="rotate(198.38 452.04 349.6)"/></g></svg>