<svg xmlns="http://www.w3.org/2000/svg" xml:space="preserve" viewBox="57.8 129.8 55.4 64.7"><path d="M95.26 178.3c.15.31 1.44 2.71 3.25 5.51l.02.02q.49.8 1.08 1.62c1.3 1.9 1.83 4.24 4.53 2.39 1.32-.92.13-2.22.13-2.22l-5.71-9.38-.6.4q-1.41.95-2.7 1.67" style="fill-rule:evenodd;clip-rule:evenodd;fill:#c6c0bd"/><path d="M78.84 165.1c-4.86 5.7-4.85 16.8 3.14 17.46 8.96.79 17-5.73 20.61-8.96-1.42-1.78 1.83-8.85-4.16-6.26-2.44 1.05-11.63 7.48-14.4 6.45-3.02-1.13-5.3-2.85-3.88-5.67l.09-.16c-.33-.53-.7-1.36-1.13-2.32v-.02q-.1-.27-.23-.56z" style="fill-rule:evenodd;clip-rule:evenodd;fill:#df4542"/><path d="M88.98 137.4q-.6-.5-1.2-.85c-3.03-1.68-7.72-.21-11.58 1.67a42 42 0 0 0-2.94 1.61c-4.9 2.94-10.72 8.07-9.29 13.24q.1.4.27.8c2.7 6.35 6.92 5.5 9.79 4.73 3.47-.92 5.1-2.42 6.67-3.3 2.55-1.44 4.2-2.52 7.54-6.38 4.42-5.14 3.1-9.35.76-11.49zm-8.06 5.71c-2.65 1.3-5.48 2.61-5.1 1.08.39-1.55 4.62-3.68 6.72-3.66 1 .01 1.06 1.3-1.62 2.58" style="fill-rule:evenodd;clip-rule:evenodd;fill:#cd4344"/><path d="M82.28 136.05c-2.03.4-4.15 1.23-6.08 2.17a42 42 0 0 0-2.94 1.61 23 23 0 0 0-7.49 7.01c-2.26 3.55-2.67 7.24-.35 9.8a8 8 0 0 0 2.93 2l.88-.21c8.44-2.24 22.52-14.28 14.98-21.17q0-.02-.02-.03-.6-.51-1.2-.86a5 5 0 0 0-.7-.32m-1.36 7.06c-2.65 1.3-5.48 2.61-5.1 1.08.39-1.55 4.62-3.68 6.72-3.66 1 .01 1.06 1.3-1.62 2.58" style="fill-rule:evenodd;clip-rule:evenodd;fill:#df4542"/><path d="M75.82 144.19c-.38 1.53 2.45.21 5.1-1.08 2.68-1.28 2.61-2.57 1.62-2.58-2.1-.02-6.33 2.1-6.72 3.66" style="fill-rule:evenodd;clip-rule:evenodd;fill:#fbcf9e"/><path d="M75.62 156.23c-.7.37.6 1.56-.01 1.82q-.89.37-1.58.55c1.88-.34 3.56 3.46 4.85 6.46q.13.29.23.56v.02c.1.64 1.6 3.11 1.04 2.48-.08.18-.46.63-.5 1.12a4.4 4.4 0 0 0 3.08 4.7c3.97 1.25 4.4 1.06 10.38-1.53 3.08-1.33 5.12-1.45 6.58-1.01 1.37.41-8.19 8.38-14.97 11.37 2.52-.53 4.93-.97 6.97-1.82 8.05-3.37 12.21-8.71 12.6-9.2 1.9-2.3 2.78-4.47 2.86-6.54a9 9 0 0 0-.27-2.52c-.47-1.78-1.32-4.55-4.88-5.74-1.96-.66-4.69-.96-8.2.12q-.64-.57-1.14-1.11c-3.36-3.44-4.23-5.88-4.42-7.04-.97 1.13-2.74 1.66-3.73 2.35-3.02 2.08-5.4 2.96-8.89 4.96" style="fill-rule:evenodd;clip-rule:evenodd;fill:#cd4344"/></svg>