<svg xmlns="http://www.w3.org/2000/svg" viewBox="0 0 231 162"><g xmlns="http://www.w3.org/2000/svg"><path d="m617.18 737.97-26.76-196.65a15.84 15.84 0 0 0-17.8-13.54l-128.1 17.43a15.83 15.83 0 0 0-13.53 17.8l26.76 196.66a15.84 15.84 0 0 0 17.8 13.54l128.1-17.43a15.83 15.83 0 0 0 13.53-17.8m-13.84 15.6L475.25 771a13.6 13.6 0 0 1-15.3-11.63L433.2 562.72a13.6 13.6 0 0 1 11.63-15.3l128.1-17.43q.93-.13 1.84-.13c6.69 0 12.53 4.95 13.46 11.76l26.76 196.65c1 7.43-4.21 14.29-11.64 15.3" style="fill:#fff" transform="rotate(-82.25 -6.06 599.62)"/><g transform="rotate(-82.25 -6.06 599.62)"><path d="m603.5 754.67-128.1 17.44a14.7 14.7 0 0 1-16.55-12.6l-26.76-196.64a14.7 14.7 0 0 1 12.58-16.55l128.1-17.44a14.7 14.7 0 0 1 16.55 12.6l26.76 196.64a14.7 14.7 0 0 1-12.59 16.55" style="fill:#2b2b2b"/><rect width="143.04" height="188.29" x="451.97" y="552" rx="9" ry="9" style="fill:#1c1b1b" transform="rotate(-7.75 523.7 646.37)"/><path d="M548.14 750.34a10.37 10.37 0 1 1-20.54 2.87 10.37 10.37 0 0 1 20.53-2.87" style="fill:#050404"/><path d="M547.6 750.42a9.83 9.83 0 1 1-19.47 2.72 9.83 9.83 0 0 1 19.47-2.72" style="fill:#282828"/><path d="M547.53 750.43a9.75 9.75 0 1 1-19.32 2.7 9.75 9.75 0 0 1 19.32-2.7" style="fill:#292929"/><path d="M547.46 750.44a9.68 9.68 0 1 1-19.18 2.68 9.68 9.68 0 0 1 19.18-2.68" style="fill:#2a2a2a"/><path d="M547.39 750.45a9.61 9.61 0 1 1-19.04 2.66 9.61 9.61 0 0 1 19.03-2.66" style="fill:#2b2b2b"/><path d="M547.31 750.46a9.54 9.54 0 1 1-18.9 2.64 9.54 9.54 0 0 1 18.9-2.64" style="fill:#2b2b2b"/><path d="M547.24 750.47a9.47 9.47 0 1 1-18.75 2.62 9.47 9.47 0 0 1 18.75-2.62" style="fill:#2c2c2c"/><path d="M547.17 750.48a9.4 9.4 0 1 1-18.6 2.6 9.4 9.4 0 0 1 18.6-2.6" style="fill:#2d2d2d"/><path d="M547.1 750.49a9.32 9.32 0 1 1-18.47 2.58 9.32 9.32 0 0 1 18.47-2.58" style="fill:#2e2e2e"/><path d="M547.03 750.5a9.25 9.25 0 1 1-18.33 2.56 9.25 9.25 0 0 1 18.33-2.56" style="fill:#2f2f2f"/><path d="M546.96 750.5a9.18 9.18 0 1 1-18.18 2.55 9.18 9.18 0 0 1 18.18-2.54" style="fill:#303030"/><path d="M546.89 750.52a9.1 9.1 0 1 1-18.04 2.52 9.1 9.1 0 0 1 18.04-2.52" style="fill:#313131"/><path d="M546.82 750.53a9.03 9.03 0 1 1-17.9 2.5 9.03 9.03 0 0 1 17.9-2.5" style="fill:#313131"/><path d="M546.74 750.54a8.96 8.96 0 1 1-17.75 2.48 8.96 8.96 0 0 1 17.75-2.48" style="fill:#323232"/><path d="M546.67 750.55a8.9 8.9 0 1 1-17.6 2.46 8.9 8.9 0 0 1 17.6-2.46" style="fill:#333"/><path d="M546.6 750.56a8.82 8.82 0 1 1-17.47 2.44 8.82 8.82 0 0 1 17.47-2.44" style="fill:#343434"/><path d="M546.53 750.57a8.75 8.75 0 1 1-17.32 2.42 8.75 8.75 0 0 1 17.32-2.42" style="fill:#353535"/><path d="M546.46 750.58a8.68 8.68 0 1 1-17.19 2.4 8.68 8.68 0 0 1 17.19-2.4" style="fill:#363636"/><path d="M546.39 750.59a8.6 8.6 0 1 1-17.04 2.38 8.6 8.6 0 0 1 17.04-2.38" style="fill:#373737"/><path d="M546.32 750.6a8.53 8.53 0 1 1-16.9 2.36 8.53 8.53 0 0 1 16.9-2.36" style="fill:#373737"/><path d="M546.25 750.6a8.46 8.46 0 1 1-16.76 2.35 8.46 8.46 0 0 1 16.75-2.34" style="fill:#383838"/><path d="M546.17 750.62a8.39 8.39 0 1 1-16.61 2.32 8.39 8.39 0 0 1 16.61-2.32" style="fill:#393939"/><path d="M546.1 750.63a8.32 8.32 0 1 1-16.47 2.3 8.32 8.32 0 0 1 16.47-2.3" style="fill:#3a3a3a"/><path d="m521.12 549.1-21.26 2.96a1.03 1.03 0 0 1-1.17-.88l-.05-.4c-.08-.57.31-1.1.88-1.17l21.26-2.98c.56-.07 1.09.32 1.17.89l.05.4c.08.57-.31 1.1-.88 1.17m-8.64-6.19a3.03 3.03 0 1 1-6 .85 3.03 3.03 0 0 1 6-.84"/><path d="M512.2 542.95a2.75 2.75 0 1 1-5.45.76 2.75 2.75 0 0 1 5.45-.76" style="opacity:.45;fill:#fff"/><path d="M511.58 543.03a2.12 2.12 0 1 1-4.2.6 2.12 2.12 0 0 1 4.2-.6"/><path d="M508 543.92a1.91 1.91 0 0 1 2.84-1.92 1.9 1.9 0 1 0-2.28 3.02 2 2 0 0 1-.56-1.1" style="opacity:.75;fill:#fff"/><g style="opacity:.36"><path d="m535.64 739.51 54.11-136.87-4.7-34.5-68.79 174.01zm48.21-180.18-2.19-16.11-.77.1-79.39 200.84 9.82-1.34zM462.23 726.36l69.73-176.38-19.38 2.64-55.04 139.24zm-5.89-43.31 51.29-129.76-9.81 1.34-43.86 110.95z" style="fill:#333"/></g><path d="m443.44 565.29 138.66-18.87-.44-3.2-141.73 19.29 25.39 186.57 3.07-.42z" style="fill:#1c1b1b"/></g></g></svg>