<svg xmlns="http://www.w3.org/2000/svg" xml:space="preserve" viewBox="0 0 2122 2122"><path d="M0 .01h2121.31v2121.31H0z" style="fill:#abd7c0"/><path d="M1213.84 1861.06q-1.17-1.62-2.3-3.24a275 275 0 0 1-18.68-31.66v44.64c6.89-3.47 13.9-6.68 20.98-9.74" style="fill:#bddfcd"/><path d="M1040.83 2048.54H928.45v-121.48h121.48v97.17c1.06-2.67 2.05-5.38 3.16-8.03a280 280 0 0 1 18.28-35.94v-53.2h41.77a283 283 0 0 1 24.48-21.44h-66.25v-121.5h33.08a60.4 60.4 0 0 1-24.21-21.43h-8.87v-18.4c-4.48-12.5-6.82-25.83-8.38-38.98q-6.67-3.3-13.06-7.1v64.48H928.44v-121.5h76.13c-1.88-7.05-3.51-14.2-4.08-21.43h-72.04v-121.5h2.62c.35-7.78 2.3-15.14 6.7-21.43h-9.32v-14.37c-8.38-6.86-15.77-14.8-21.44-24.1v38.47H785.5v-121.49H907v4.9c2.19-5.17 4.41-10.32 6.36-15.47 3.7-9.75 7.8-20.26 15.07-28v-36.74l-7-14.24-14.43.6v67.5H785.5v-79.28c-7.2-3.03-14.28-6.4-21.44-9.58v88.87H642.58v-121.5h22.2c-7.56-6.18-14.21-13.54-20.25-21.43h-1.95v-2.57a292 292 0 0 1-12.91-19.26l-8.53.02v21.81H499.65v-18.57l-18.95-.05-2.48-.01v18.63h-121.5v-21.64a252 252 0 0 1-21.43-3.24v24.88h-121.5v-121.49h101.47c14.77-11.7 35.26-16.3 53.35-10q0-.4-.02-.7c-.15-1.57.15-3.33.36-4.9.25-2.01.77-3.95 1.41-5.84h-13.63v-121.5h121.49v96.95c7.95 3.87 15.34 8.78 21.43 14.67V961.8c-2.5-15.2-2.56-30.8.16-45.98q1.01-5.45 2.5-10.72h-2.66v-60.07c-6.5-10.5-13.2-20.85-15.48-33.3-.37-2.04 1.06-3.44 2.62-3.8-3.15-21.52-2.17-41.18 3.1-59.17a53 53 0 0 1-9.14-2.8c-.87-.36-1.7-.83-2.53-1.28v17.49h-121.5v-121.5h88.8l.71-1.52c.16-.33 2.1-3.45 1.85-2.48-.06.25.21.57 0-.39-.2-.94-1.11-1.97-1.6-2.8-1.45-2.49-2.96-4.95-4.43-7.44a50 50 0 0 1-3.26-6.8h-82.06v-121.5h52.2a48 48 0 0 1-7.36-21.43h-44.84v-121.5h59.86c.58-3.3.53-6.51.39-10.24-.16-3.88.5-7.63 1.75-11.19h-62v-60.8l-21.45-.16v60.96H213.8v-66.21l-3.06-.52c-5.8-1.1-12.3-2.16-18.37-4.05v70.78H70.86v-121.5h95.6a62 62 0 0 1 6.07-21.43H70.86V68.96h121.5v98.34a58 58 0 0 1 21.43-9.09V68.97h121.5v47.93a108 108 0 0 1 19.72 8.23q.87.48 1.72.98V68.97h121.49v86.12a156 156 0 0 1 21.43 4.63V68.97h121.5v121.5h-73.6a62 62 0 0 1 4.52 7.43 93 93 0 0 1 3.53 7.95c.68 1.71 1.24 3.98 2.07 6.05h63.47v99.57c3.73.2 7.46.6 11.14 1.3 3.48.65 6.92 1.63 10.3 2.75V211.9h121.5v121.49h-92.2c2.77 3.1 5.64 6.79 9.7 7.13 4.8.42 9.84-.84 14.73-.52 4.25.28 8.49.93 12.61 1.98a65 65 0 0 1 24.06 11.81c.41.32.74.7 1.13 1.04h29.96v26.61q2.13.85 4.3 1.47c4.18 1.2 7.26-1.4 11.16-3.05q2.96-1.25 5.98-2.3v-22.73h104.66q3.98-1.73 8.05-3.23c10.14-3.7 20.7-5.45 31.4-6.48 21.09-2.04 44.5 1.14 64.57-6.43a123 123 0 0 0 11.86-5.3h-77.6V211.9h121.48v103.5a43 43 0 0 1 14.55.58 40 40 0 0 1 6.89 2.3V211.9h121.49v48.16a65 65 0 0 1 13.97-5.86c-.5-1.54 0-3.4 2.02-3.87a11 11 0 0 0 5.45-2.87V211.9h27.52a81 81 0 0 1 26.95-13.2c3.98-1.1 7.23-1.73 9.9-5.3q1.07-1.45 2.07-2.94h-66.44V68.96h121.49v89.24l.69-.05c5.5-.7 9.28-7.24 14.42-9.47 2.16-.93 4.25-2 6.33-3.08V68.97h121.5v121.45a63 63 0 0 1 3.67 6.73c5.55 12.06 6.57 24.83 10.28 37.36 1.6 5.37 4.64 10.26 7.48 15.15V211.9h121.49v121.49h-108.76c2.31 3.41 6.17 6.46 7.82 10.16 1.58 3.57 2.6 7.4 3.14 11.28h97.8v121.49h-72.06c.8 3.2 1.08 6.52.46 9.96-.7 3.83-2.87 7.65-5.22 11.48h76.82v37.66c6.89.94 14.15 2.49 21.44 4.64v-42.3h121.48v91.67c.57-.1 1.14-.25 1.71-.35a177 177 0 0 1 19.74-2.16v-89.16h121.49v121.49h-6.57c.95.85 1.98 1.6 2.9 2.48a80 80 0 0 1 14.64 19.13 104 104 0 0 1 4.87 10.5c1.5 3.72 2.33 8.83 4.46 12.17.34.52.74.94 1.14 1.36v-24.2h121.5v121.49h-121.5V736c-7.15.12-14.3.26-21.44.33v25.85h-121.49v-28.5h-4.2c.03 1.57-.97 3.16-3 3.16l-14.24-.02v25.36h-121.49v-25.46h-21.44v25.46h-9.01a140 140 0 0 1 3.5 21.44h5.51V905.1h-17.7a84 84 0 0 1 2.41 21.44h15.3v121.49h-72.47a105 105 0 0 1-12.2 21.44h84.66v121.49h-121.49v-93.63c-3.52 1.84-7.06 3.66-10.57 5.57-3.83 2.08-7.4 4.43-10.86 6.9v81.16h-99l-2.52 21.44h101.52v121.49h-86.9a585 585 0 0 1 20.2 21.44h66.7v85.21a6512 6512 0 0 1 21.43 29.79v-115h121.5v121.48h-116.84l15.27 21.44h101.56v121.5h-15.04a283 283 0 0 1 15 21.44h.04v.04c7.39 11.58 14.25 23.48 21.44 35.22v-35.26h121.49v121.49h-64.41a52 52 0 0 1 3.03 4.64c1.82 3.25 2.52 6.61 4.56 9.7q2.3 3.53 4.6 7.1h52.22v24.32c8.22-16.4 18.8-31.7 31.03-45.76h-9.58v-121.5h121.48v40.26a423 423 0 0 1 21.44-9.36v-30.9h121.5v1.67q10.73-.97 21.43-1.39V51.32H49.43v2018.7h21.43v-.04h121.5v.03h21.43v-.03h121.5v.03h21.44v-.03h121.49v.03h21.43v-.03h121.5v.03h21.43v-.03h121.5v.03h21.43v-.03h121.5v.03h21.44v-.03h104.18c2.58-4.23 3.98-9.45 5.52-13.92.87-2.51 1.8-5 2.68-7.52m-112.38-264.41h121.48v121.49H928.44zM356.73 783.62h121.49V905.1h-121.5zm-142.94-428.8h121.5v121.5h-121.5zm0 142.94h121.5v121.49h-121.5zm0 142.93h121.5v121.49h-121.5zm0 142.93h121.5V905.1h-121.5zm0 142.93h121.5v121.49h-121.5zm1407.86 407.35h-121.49v-121.5h121.5zm142.93 285.86h-121.49v-121.5h121.49zm0-142.94h-121.49v-121.48h121.49zm0-142.92h-121.49v-121.5h121.49zm0-142.93h-121.49v-121.49h121.49zm0-142.93h-121.49v-121.5h121.49zm0-142.93h-121.49V783.6h121.49zm142.93 714.65h-121.49v-121.5h121.5zm0-142.94h-121.49v-121.48h121.5zm0-142.92h-121.49v-121.5h121.5zm0-142.93h-121.49v-121.49h121.5zm0-142.93h-121.49v-121.5h121.5zm0-142.93h-121.49V783.6h121.5zm142.94 714.65h-121.5v-121.5h121.5zm0-142.94h-121.5v-121.48h121.5zm0-142.92h-121.5v-121.5h121.5zm0-142.93h-121.5v-121.49h121.5zm0-142.93h-121.5v-121.5h121.5zm0-142.93h-121.5V783.6h121.5zm-121.5-836.14h121.5v121.5h-121.5zm0 142.93h121.5v121.49h-121.5zm0 142.93h121.5v121.49h-121.5zm0 142.93h121.5v121.49h-121.5zm-142.93-428.8h121.5v121.5h-121.5zm0 142.94h121.5v121.49h-121.5zm0 142.93h121.5v121.49h-121.5zM1643.1 68.97h121.49v121.5H1643.1zm0 142.93h121.49v121.49H1643.1zm0 142.93h121.49v121.49H1643.1zM1500.16 68.97h121.5v121.5h-121.5zm-428.79 0h121.49v121.5h-121.49zm-142.92 0h121.48v121.5H928.44zm-142.94 0h121.5v121.5H785.5zm0 142.93h121.5v121.49H785.5zM642.58 68.97h121.5v121.5h-121.5zm0 1286.37h121.5v121.48h-121.5zm-142.93-142.93h121.5v121.49h-121.5zm0 142.93h121.5v121.48h-121.5zm-142.92-142.93h121.49v121.49h-121.5zm0 142.93h121.49v121.48h-121.5zm-142.94-142.93h121.5v121.49h-121.5zm0 142.93h121.5v121.48h-121.5zM70.86 354.83h121.5v121.49H70.86zm0 142.93h121.5v121.49H70.86zm0 142.93h121.5v121.49H70.86zm0 142.93h121.5V905.1H70.86zm0 142.93h121.5v121.49H70.86zm0 142.93h121.5v121.49H70.86zm0 142.93h121.5v121.49H70.86zm0 142.93h121.5v121.48H70.86zm0 142.93h121.5v121.49H70.86zm121.5 550.27H70.86v-121.48h121.5zm0-142.92H70.86v-121.5h121.5zm142.93 142.92h-121.5v-121.48h121.5zm0-142.92h-121.5v-121.5h121.5zm142.93 142.92h-121.5v-121.48h121.5zm0-142.92h-121.5v-121.5h121.5zm142.92 142.92H499.65v-121.48h121.5zm0-142.92H499.65v-121.5h121.5zm142.93 142.92H642.58v-121.48h121.5zm0-142.92H642.58v-121.5h121.5zm142.94 142.92H785.5v-121.48H907zm0-142.92H785.5v-121.5H907zm0-285.86h-52.2a91 91 0 0 1 12.58 21.44h39.62v121.5H785.5v-4.35q-10.68 1.37-21.44 2.28v2.06h-37.13c-29.58.9-59.27.4-88.55.62q-95.31.67-190.63.62a2.8 2.8 0 0 1-2.41-1.24h-88.62v-2.16l-21.45-.11v2.27h-44.02a2.8 2.8 0 0 1-1.8.6c-13.83-.11-27.66-.49-41.5-.6h-1.74c-7.05.01-14.45.62-21.6 0H213.8v-2.26a43.3 43.3 0 0 1-21.43-17.18v19.44H70.86v-121.5h121.5v65.41c5.02-7.92 12.92-14.12 21.43-18.2v-47.2h65.05a106 106 0 0 1 18.45-21.44h-83.5v-121.5h121.5v98.07a180 180 0 0 1 19.73-6.88l1.7-.46v-90.73h121.5v87.41l3.01.73a389 389 0 0 1 18.42 5.44v-93.58h121.5v21.55a157 157 0 0 1 21.43-4.03v-17.52h121.5v90.33l3.59-1a84 84 0 0 1 17.84-2.55v-86.78h121.5z" style="fill:#bddfcd"/><path d="M478.22 269.44v22.7a53 53 0 0 1 15.02-2.78c2.17-.07 4.3.09 6.41.3v-20.29q-10.72.05-21.43.07m36.92 798.46c4.03-2.1 9.09-3.4 11.9-4.39 9.82-3.42 19.9-6.51 30.16-8.3l.18-.02.57-1.61q-4-2.63-7.77-5.54h-42.32a45 45 0 0 1 7.28 19.85" style="fill:#bddfcd"/><path d="M1906.66 730.1c9.54-.08 19.08-.3 28.62-.44 8.82-.12 18.74 1.32 27.36-.57 14.76-3.25 26.27-19.54 18.88-34.08-7.4-14.59-25.04-18.95-39.95-20.51-5.48-.57-13.54.47-17.4-4.43-3.63-4.6-4.63-11.68-6.83-17.05-11.8-28.77-37.93-44.77-66.91-52.75-30.17-8.3-63.18-10.3-93.71-2.83a304 304 0 0 0-24.53 7.31c-4.68 1.58-9.38 3.2-13.88 5.24-1.25.57-6.16 2.28-6.46 3.76-.72 3.48-6.26 2.64-6.12-.83.99-25.3-17.9-44.69-38.62-56.33-33.55-18.86-82.86-23.85-114.1 1.18a44 44 0 0 1 6.6 7.35 195 195 0 0 1 12.25 19.85c7.09 13.26 12.54 27.55 14.41 42.53a72 72 0 0 1-3.83 34.46c-3.35 9.05-9.08 18.69-7.19 28.69 2.22 11.68 13.24 20.3 19.58 29.9 2.06 3.12 3.9 6.36 5.68 9.65 11.29-.04 22.56-.1 33.75-.02q72.29.48 144.57.43c2 0 2.98 1.53 3 3.07h4.2c39.2-.04 78.41-.16 117.62-.45 0-1.55 1-3.1 3.01-3.13m-329.69-141.12a3.13 3.13 0 0 1-1.11-4.26l5.07-7.9a3.2 3.2 0 0 1 4.27-1.11c1.44.76 2 2.89 1.12 4.26l-5.08 7.9a3.2 3.2 0 0 1-4.27 1.11m9.59-1.91a3.2 3.2 0 0 1-.91-2.2c0-.8.34-1.64.9-2.21l6.51-6.5a3.12 3.12 0 0 1 4.41 4.4l-6.5 6.51c-.6.6-1.38.87-2.2.91a3.2 3.2 0 0 1-2.21-.91m7.4 113.14c4.03 0 4.03 6.23 0 6.23-4.01 0-4-6.23 0-6.23m13.1 15.05a3.2 3.2 0 0 1-1.86 1.44c-3.04.61-6.27.16-8.91-1.54a3.2 3.2 0 0 1-1.13-4.27 3.2 3.2 0 0 1 1.87-1.43c.75-.2 1.74-.11 2.4.31q.44.27.9.48.76.29 1.57.43a9 9 0 0 0 1.7 0c.83-.16 1.6-.08 2.35.32.72.38 1.18 1.1 1.43 1.86a3.2 3.2 0 0 1-.31 2.4m195.6-9.59.14-.06-.47.2-.94.46a27 27 0 0 0-3.59 2.13l-.57.42-.65.53c-1.34 1.12-3.08 1.23-4.42 0-1.16-1.07-1.25-3.36 0-4.4a31.4 31.4 0 0 1 17.91-7.3c1.74-.14 3.05 1.53 3.12 3.11.08 1.77-1.5 3-3.12 3.12l-1.04.1.05-.02-.51.07q-1.04.17-2.05.41c-1.32.32-2.58.77-3.85 1.23m23.03 9.89h-14.32a3.17 3.17 0 0 1-3.12-3.12c-.07-1.68 1.49-3.12 3.12-3.12h14.32a3.2 3.2 0 0 1 3.12 3.12c.07 1.68-1.5 3.12-3.12 3.12m67.08-56.28c-8.27-18.83-28.96-25.75-47.09-31.43-3.82-1.2-2.18-7.21 1.66-6.01 19.57 6.14 41.9 13.99 50.81 34.3 1.6 3.64-3.78 6.8-5.38 3.14M538.42 269.25c.01-1.55 1.01-3.1 3.01-3.12 7.79-.07 15.57-.27 23.35-.36 6.74-.09 14.4 1.06 20.99-.57 12.65-3.13 20.2-17.53 11.93-28.62-7.73-10.37-21.54-12.16-33.5-13.17-3.56-.3-7.04-.32-9.5-3.27-2.76-3.33-3.53-8.67-5.1-12.63-9.12-22.81-29.26-35.54-52.18-41.9-23.36-6.5-48.96-8.14-72.65-2.52a230 230 0 0 0-19.68 5.8c-2.92.97-15.34 4.24-15.95 6.74-.84 3.42-6.25 2.68-6.12-.83.84-24.64-21.88-41.94-42.95-49.6-22.12-8.03-47.84-10.08-68.74 2.34-8.51 5.06-17.4 12.45-21.04 21.97-1.5 3.93-1.09 7.73-1.74 11.74-.28 1.73-.67 3.33-2.3 4.3-2.1 1.27-4.86.33-7.02-.19-6.23-1.5-12.18-2.53-18.62-1.98a52 52 0 0 0-27.03 10.6 55.3 55.3 0 0 0-20.85 51.23c.24 1.73-.8 2.98-2.06 3.55q.5 3.51 1.38 6.93c1.47-.34 3.19.21 3.77 2.06 2.85 9.05 6.97 14.83 16.13 17.89 11.16 3.73 23.08 5.78 34.72 7.25 23.13 2.91 46.52 2.86 69.8 3.06q72.3.62 144.6.58c1.97 0 2.96 1.5 3 3.02q17.07-.03 34.15-.1l21.43-.07c12.93-.07 25.85-.04 38.77-.13m-339.94-28.02c-.81 1.38-2.88 2.07-4.27 1.12-10.2-6.95-13.32-22.48-5.7-32.5 1.02-1.34 2.66-2.05 4.26-1.11 1.34.77 2.14 2.92 1.12 4.26-5.51 7.26-4.1 18.8 3.47 23.96 1.4.96 2.02 2.73 1.12 4.27m91.18-86.25a3.2 3.2 0 0 1-.92-2.2q.02-.56.23-1.1l-2.44 3.8a3.2 3.2 0 0 1-4.26 1.1 3.2 3.2 0 0 1-1.43-1.85 3.2 3.2 0 0 1 .3-2.4l4-6.2a3.2 3.2 0 0 1 4.26-1.13 3.2 3.2 0 0 1 1.44 1.87c.2.75.1 1.74-.32 2.4q-.4.6-.78 1.22l5.03-5.03a3.14 3.14 0 0 1 5.32 2.2c0 .8-.35 1.64-.91 2.2l-5.11 5.12a3.13 3.13 0 0 1-4.41 0m6.29 87.68c4.02 0 4.01 6.23 0 6.23s-4.02-6.23 0-6.23m10.86 12.82a3 3 0 0 1-1.86 1.43q-1.08.24-2.18.26-1.05-.02-2.09-.23a11 11 0 0 1-3.25-1.3 3.4 3.4 0 0 1-1.43-1.86 3.14 3.14 0 0 1 2.18-3.84 3.2 3.2 0 0 1 2.4.32l.61.32q.52.19 1.07.3.68.06 1.35 0l-.2.02a3 3 0 0 1 1.53 0l.75.32a3.13 3.13 0 0 1 1.12 4.26m153.18-7.23-.13.06-.74.35a19 19 0 0 0-2.81 1.68l-.33.23-.5.4c-1.34 1.13-3.07 1.23-4.4 0-1.17-1.06-1.26-3.35 0-4.4a25.4 25.4 0 0 1 14.52-5.93c1.74-.13 3.05 1.54 3.12 3.12.08 1.77-1.5 3-3.12 3.12l-.82.07h-.02l-.16.03a22 22 0 0 0-4.61 1.27m17.87 7.8h-11.24a3.17 3.17 0 0 1-3.12-3.12c-.07-1.68 1.5-3.12 3.12-3.12h11.24a3.17 3.17 0 0 1 3.12 3.12c.08 1.68-1.48 3.12-3.12 3.12m17.18-74.9c15.52 4.87 33.22 11.13 40.29 27.24.68 1.55.47 3.33-1.12 4.27-1.33.77-3.59.42-4.27-1.12-6.41-14.63-22.49-19.96-36.56-24.37-3.82-1.2-2.18-7.22 1.66-6.02m110.36 974.28c-.44.23-.9.4-1.4.4h-11.23a3.17 3.17 0 0 1-3.12-3.12c-.07-1.69 1.49-3.12 3.12-3.12h1.46a80 80 0 0 1-4.05-2.73q-.53.1-1.04.22c-1.04.24-2.03.59-3.03.96l-.1.05-.74.35a19 19 0 0 0-2.81 1.68l-.33.23.14-.11-.64.51c-1.34 1.13-3.07 1.23-4.41 0-1.16-1.06-1.25-3.35 0-4.4a26 26 0 0 1 6.98-4.18c-22.5-19.44-35.08-50.87-28.64-80.22-1.55.3-3.1.55-4.64.92a229 229 0 0 0-19.68 5.79c-2.93.98-15.34 4.25-15.95 6.75-.84 3.42-6.25 2.67-6.13-.83.68-19.8-14.07-34.8-30.34-43.84-30.21-16.78-78.72-19.6-99.71 13.38a26 26 0 0 0-4.1 11.33c-.22 2.17.17 4.66-.47 6.76-1.1 3.58-3.95 4.04-7.3 3.39-9.84-1.91-18.47-3.62-28.49-1.09a51.7 51.7 0 0 0-23.82 13.53c-1.34 1.33-3 1.03-4.12.08a58 58 0 0 0-10.9 18.9 2.7 2.7 0 0 1 1.02 3.2c-4.5 14.44-4.48 33.34 4.72 46.06 5.3 7.32 13.04 9.54 21.46 11.64 11.18 2.8 22.6 4.57 34.06 5.67 22.46 2.15 45.08 2 67.62 2.19q69.2.57 138.43.52c1.97 0 2.96 1.5 3 3.02q25.46-.03 50.93-.15l8.52-.03a850 850 0 0 1-5.23-8.55 73 73 0 0 1-19.03-5.16m-280.78-14.42c-.8 1.38-2.87 2.07-4.27 1.11-10.18-6.94-13.3-22.47-5.7-32.49 1.03-1.34 2.67-2.06 4.27-1.11 1.33.78 2.14 2.92 1.12 4.27-5.52 7.24-4.11 18.78 3.46 23.95 1.4.95 2.02 2.72 1.12 4.27m91.18-86.26a3.2 3.2 0 0 1-.9-2.2q0-.55.21-1.09-1.2 1.9-2.43 3.79a3.2 3.2 0 0 1-4.27 1.11 3.2 3.2 0 0 1-1.43-1.86c-.2-.75-.11-1.74.31-2.4l4-6.2a3.2 3.2 0 0 1 4.26-1.12 3.2 3.2 0 0 1 1.43 1.86c.2.75.11 1.74-.32 2.41l-.77 1.2q2.52-2.5 5.02-5.02a3.14 3.14 0 0 1 5.32 2.2c0 .81-.34 1.65-.9 2.22l-5.12 5.1c-.6.6-1.38.88-2.2.92a3 3 0 0 1-2.2-.92m6.3 87.68c4.01 0 4.01 6.24 0 6.24-4.03 0-4.02-6.24 0-6.24m10.86 12.83a3.2 3.2 0 0 1-1.87 1.43q-1.07.24-2.17.26a11 11 0 0 1-3.44-.61c-.66-.27-1.3-.53-1.9-.92a3.4 3.4 0 0 1-1.44-1.87 3 3 0 0 1 .32-2.4 3.2 3.2 0 0 1 1.86-1.43 3.2 3.2 0 0 1 2.4.32l.61.32q.53.17 1.07.29c.46.03.9.06 1.36 0l-.2.03a3 3 0 0 1 1.53 0l.74.32a3.1 3.1 0 0 1 1.13 4.25m1642.77 492.3c-78.38 2.63-159.48 27.72-223.83 73-45.3 31.87-84.31 76.95-96 130.83 6.56 10.1 13.15 20.17 19.67 30.3 29.76 46.17 58.86 92.83 85.18 141.07a1197 1197 0 0 1 37.06 73.56q5.68 12.43 11.03 25.01h212.45v-472.05a322 322 0 0 0-45.56-1.72m-180.06 163.37c-2.1 3.41-7.49.27-5.38-3.15a262 262 0 0 1 28.33-37.9c2.68-2.98 7.08 1.44 4.41 4.42a253 253 0 0 0-27.36 36.63m46.39-42.7a301 301 0 0 0-18.86 40.18c-1.43 3.72-7.45 2.1-6.02-1.66a311 311 0 0 1 19.5-41.66c1.96-3.5 7.35-.36 5.38 3.14m-537.11 255.09c-14.52-32.79-30.46-73.46-51.17-108.56-1.35.78-3.21.7-4.24-1-6.36-10.48-13.17-20.7-20.95-30.17-8.5-10.35-18.22-19.46-28.58-27.89a127 127 0 0 1-5.29 12.64c-4.08 8.32-9.47 16.4-16.57 22.45-3.04 2.58-6.43 5-10.17 6.47-3.86 1.52-8.6.27-12.49-.91-15.88-4.8-27.97-17.09-37.9-30.16-35.4 15.19-68.6 35.27-96.78 61.82-17.03 16.04-32.04 34.22-44.02 54.34-14.06 23.63-23.68 49.49-32.64 75.38-3.05 8.78-5.77 18.9-14.48 23.76-9.3 5.19-22.57 4.08-32.76 4.95-27.43 2.31-55.1 5.9-81.05 15.56a148 148 0 0 0-35.78 19.34h558.87c-10.38-31.77-21.91-63.13-35.5-93.7-.8-1.83.15-3.53 1.5-4.32m-107.2-88.8c-61.1 19.16-131.26 42.98-159 106.57-1.6 3.68-6.98.5-5.39-3.14 28.38-65.07 100.2-89.83 162.74-109.44 3.85-1.21 5.48 4.82 1.66 6" style="fill:#fffce3"/><path d="M1743.53 1843.69q-10.95-16.8-21.86-33.6-5.76-8.87-11.48-17.75c-3.22-5-8.01-10.39-10.21-15.9-1.48-3.7-2.52-6.78-4.87-10.19-2.52-3.63-5.33-7.06-8.02-10.56-7.56-9.83-13.72-20.89-20.4-31.32-15.48-24.15-31.48-47.82-45.7-72.75-6.88-12.07-15-22.81-23.65-33.64-7.63-9.54-14.88-19.31-20.04-30.44a3.1 3.1 0 0 1 .26-3.13q-14.85-21.01-29.8-41.93c-1.35.77-3.26.73-4.4-.88l-22.42-31.28c-48.89-68.1-95.31-140.22-158.86-195.85l-8.24 68.88c11.48 7.33 22.9 14.73 33.23 23.52s19.4 19.19 28.94 28.8a1182 1182 0 0 1 29.57 30.47c2.73 2.95-1.68 7.37-4.41 4.41a1121 1121 0 0 0-27.43-28.3l-4.63-4.68c-3.28-3.3-6.52-6.69-9.76-10.07-6.31-6.58-12.7-13.1-19.8-18.78a242 242 0 0 0-14.5-10.66c-15.19-10.4-31.26-19.64-45.93-30.8-19.33-14.72-37.61-30.77-55.5-47.22-1.5-1.37-2.98-2.79-4.46-4.17l-.4-.39c-16.34-15.25-32.23-31.14-49.29-45.54a66 66 0 0 0-6.28-4.7c-9.01-4.47-18.57-6.38-28.7-3.74-1.4.37-2.72.9-4.05 1.43-8.54 4.71-15.44 12.45-21.35 20.01l-.26.32c-.04.06-.09.06-.13.11-.12.14-.25.21-.37.32a57 57 0 0 0-4.47 10.7c-.39 1.26-.68 2.54-.98 3.82 1.48.07 2.8 1.03 2.59 2.94-5.9 51.78 14.54 104.5 53.88 138.7.58.5.82 1.07.92 1.64l2.38 2.48c7.6 7.92 14.8 15.93 20.76 24.31l1.71 2.48c-1.68-3.4 3.49-6.34 5.46-2.93l37.73 65.2c21.41 37 41.65 75.08 64.73 111.07 22.03 34.34 54.38 56.22 88.4 77.43 3.4 2.12.26 7.52-3.16 5.38q-6.17-3.84-12.33-7.75c2.3 1.61 4.68 3.13 7.04 4.66 14.54 32.99 10.94 71.37 10.61 106.43-.28 30.66-5.63 60.18-25.78 84.5a54 54 0 0 1-6.86 6.98c-13.03 10.92-26.92 9.58-37.13-7l-.03.02c20.71 35.1 36.65 75.77 51.18 108.56 1.34-.78 3.07-.65 3.89 1.17a886 886 0 0 1 15.81 37.94 1089 1089 0 0 1 20.91 58.9h456.58l-.2-.45c-42.25-98.03-100.36-188-158.44-277.18m-548.45-438.17c-.53.57-1.44.91-2.2.91-.73 0-1.73-.34-2.21-.91l-7.87-9.46a3.6 3.6 0 0 1-.9-2.2c-.04-.84.37-1.61.9-2.2a3.13 3.13 0 0 1 4.41 0l7.87 9.44c.55.68.87 1.34.9 2.2a3 3 0 0 1-.9 2.22m11.96-7.8a3.1 3.1 0 0 1-3.83 2.19l-1.06-.56-.8-.88-4.74-6.28c-.49-.66-.48-1.64-.31-2.4a3.13 3.13 0 0 1 3.83-2.19l1.06.57.8.87 4.74 6.3c.5.64.49 1.63.31 2.39m488.7 434.5c-1.2 1.3-3.2 1.07-4.42 0a71 71 0 0 1-9.98-10.91c-.5-.65-.5-1.64-.32-2.4a3.13 3.13 0 0 1 3.83-2.18c.85.23 1.36.76 1.87 1.43l.42.57.06.07.23.29a64 64 0 0 0 3.35 3.9 68 68 0 0 0 4.95 4.81c1.31 1.15 1.08 3.24 0 4.41m5.72-3.47c-1.47.94-3.39.25-4.27-1.12l-7.29-11.2c-.95-1.46-.24-3.38 1.12-4.27 1.46-.93 3.38-.24 4.27 1.12l7.28 11.2c.95 1.47.25 3.39-1.11 4.27" style="fill:#f8cea0"/><path d="m1325.85 1644.22-.61 5.16c-3.06 25.87-6.58 51.7-8.29 77.7-1.68 25.38-2.3 50.87-5.5 76.14-1.94 15.4-4.6 31.38-9.38 46.47 3.88 3.01 7.72 6.08 11.43 9.27 16.82 14.48 30 32.77 41.44 51.64 1.05 1.71.23 3.35-1.11 4.14 10.2 16.57 24.1 17.91 37.13 7a54 54 0 0 0 6.86-6.99c20.15-24.31 25.5-53.83 25.78-84.5.33-35.06 3.93-73.44-10.61-106.43-2.36-1.53-4.74-3.05-7.04-4.65-14.28-9.07-28.34-18.5-41.28-29.42-15.55-13.12-27.87-28.8-38.82-45.54m12.55 215.35c-1.36.88-3.53.34-4.28-1.12l-7.52-14.76a3.2 3.2 0 0 1 1.12-4.27c1.35-.87 3.52-.34 4.27 1.12l7.52 14.77a3.2 3.2 0 0 1-1.12 4.26m11.54-2.75c-1.15 1.25-3.24 1.14-4.41 0a22.7 22.7 0 0 1-6.74-14.77c-.12-1.74 1.52-3.05 3.11-3.12 1.77-.07 3.01 1.5 3.12 3.12l.07.84.06.34a19 19 0 0 0 .86 3.22l.23.63.15.31a19 19 0 0 0 1.73 2.97l.21.3.43.5 1.18 1.25c1.24 1.21 1.13 3.18 0 4.41" style="fill:#f7b598"/><path d="M1145.48 1283.91c-1.44-.58-1.97-2.16-1.7-3.57l.07-.35q.03-.11.1-.24a370 370 0 0 1-21.4-17.46q-5.15-4.54-10.1-9.32c-45.35 8.7-91.26 13.76-137.87 12.03-13.29-.48-26.57-.2-39.83.27 10.73 12.77 21.33 25.76 33 36.22a645 645 0 0 0 60.35 47.8q2.23.61 4.54 1.06c12.32 2.33 25.02 2.72 37.15 5.8.37-1.56 1.75-2.84 3.72-2.25 25.41 7.71 45.26 28.78 52.4 54 4.23 2.19 8.44 4.42 12.7 6.54a1148 1148 0 0 0 49.03 23.05 166 166 0 0 1-37-55.67c-.3-.6-.63-1.17-.9-1.77a75 75 0 0 1-5.32-16.44 164 164 0 0 1-5.19-62.46c.23-2.05 2.03-3.02 3.64-2.94.31-1.27.6-2.56.99-3.82a57 57 0 0 1 4.46-10.7c-.91.77-1.96.75-2.84.22M1041 1326.88c-1.35.8-3.56.41-4.27-1.12l-10.85-23.64c-.7-1.54-.45-3.35 1.12-4.27 1.35-.78 3.56-.4 4.27 1.13l10.85 23.63c.7 1.54.45 3.35-1.12 4.27m16.25-6.3c-1.15 1.26-3.23 1.14-4.4 0-5.18-5-8.8-11.66-10.09-18.74-.31-1.73.45-3.28 2.18-3.84 1.5-.49 3.54.57 3.83 2.17q.44 2.44 1.25 4.78l.43 1.19.21.52.02.04q.49 1.08 1.05 2.15a34 34 0 0 0 2.65 4.16l.03.04.35.43.83.97q.8.9 1.66 1.72c1.25 1.21 1.13 3.18 0 4.41m287.98-126.78c-13.03 4.24-26.3 7.56-39.5 11.15a664 664 0 0 0 63.68 20.74q2.53-21.29 5.01-42.59a407 407 0 0 1-29.19 10.7m-138.41 445.32a59 59 0 0 1-11.32 27.15l.1.1.2.14a57 57 0 0 0 5.15 3.45c1.5.88 1.9 2.76 1.11 4.26-.78 1.49-2.86 1.95-4.26 1.12a56 56 0 0 1-6.25-4.34 59 59 0 0 1-4 3.93l7.45 6.79c1.26 1.14 1.16 3.26 0 4.4a3.2 3.2 0 0 1-4.4 0l-8-7.25c-5.24 3.7-11.01 6.4-16.96 8.88q-5.65 2.37-10.94 5.1c-.17.2-.3.4-.53.57-.46.33-.97.58-1.44.9 4.28 2.57 8.6 5.04 12.93 7.52a22 22 0 0 1 1.81.11 2.8 2.8 0 0 1 2.61-.5c12.86 3.57 26.86 10.9 35.97 21.66a678 678 0 0 0 103 40.1c1.63-25.14 2.42-50.4 5.36-75.29l2.94-24.75a883 883 0 0 1-110.86-41.71 58 58 0 0 1 .33 17.66m66.6 54.95c4.02 0 4.01 6.24 0 6.24s-4.01-6.24 0-6.24m-70.77-250.09-2.39-2.49q.14.73-.12 1.41zm-18.9 347.68c10.42 24.28 21.82 48.03 37.7 69.33 6.41 8.6 13.59 16.75 22.54 22.8 4.35 2.92 9.04 5.38 14.09 6.8 6.38 1.77 10.8-.09 15.68-4.23 15.57-13.15 21.76-34.6 26.22-53.66q1.12-4.76 2.06-9.55c-24.4-.5-48.63-3.31-71.94-10.55-16.3-5.08-31.7-12.24-46.35-20.94m85.4 67.23.52-.64.11-.15q3.72-4.95 6.34-10.58c.73-1.57 2.89-1.84 4.26-1.12 1.6.84 1.81 2.8 1.12 4.27a60 60 0 0 1-15.5 20.4c-1.34 1.15-3.1 1.23-4.42 0-1.17-1.07-1.24-3.34 0-4.4a58 58 0 0 0 6.63-6.63zm-24.45 7.5 17.96-19.44c1.18-1.28 3.2-1.1 4.4 0 1.28 1.17 1.11 3.22 0 4.41l-17.95 19.44c-1.18 1.28-3.2 1.1-4.4 0-1.28-1.17-1.11-3.21 0-4.4" style="fill:#fffce3"/><path d="M967.74 1301.49c-11.66-10.46-22.26-23.45-33-36.22q-3.25.11-6.49.24 8.35 16.95 16.68 33.93l4 8.12q4.78-.1 9.74 1.14c2.03.5 2.53 2.37 2.01 3.9 24.24 7.9 41.24 29.74 67.42 36.69a645 645 0 0 1-60.36-47.8m227.2 142.76q-3.75-3.26-7.3-6.76a1146 1146 0 0 1-49.03-23.05c-4.26-2.12-8.47-4.35-12.7-6.54a76 76 0 0 1 2.57 13.35c.2 2.06-1.37 3.03-2.98 2.96a71 71 0 0 1-1.28 16.8 3 3 0 0 1 2.36 2.87c.36 8.96-4.28 15.36-10.74 19.95l-.06.08c.22 0 .42-.06.66-.02 24.29 3.95 50.52 16.87 61.88 39.85 11.91 24.1 2 50.62-16.4 68.1 12.98 5.38 25.26 12.65 33.79 24.13a59.5 59.5 0 0 1 10.78 25.49 884 884 0 0 0 110.86 41.71l3.23-27.22c-9.58-15.49-18.24-31.66-27.35-47.38l-68.04-117.6-.08-.2q-.84-1.25-1.7-2.49c-5.97-8.37-13.17-16.39-20.76-24.3l-2.52-1.08c-.73 1.8-3.24 3.06-5.19 1.35m-43.48 250.87c.05.45-.02.98-.01 1.44v.08l.17.78.22.78.15.34.58 1.08c.07.1.32.42.32.44l.24.28.48.48.23.2 1.06.63q.14.07.25.1l1.22.32.18.06h.23l.94.06q1.13.01 2.23-.08c1.94-.13 3.82-.3 5.72-.27-4.33-2.48-8.66-4.95-12.94-7.52zm64.14 48.68c2.67 20.5-16.48 35.08-33.24 42.08-.32.13-.63.21-.94.34q1.15 2.73 2.33 5.44c14.65 8.7 30.05 15.86 46.35 20.94 23.31 7.24 47.54 10.06 71.94 10.55 3.9-19.72 5.73-39.79 7.02-59.93a678 678 0 0 1-103.01-40.1c4.98 5.88 8.51 12.78 9.54 20.69m-70.05-45.14c-1.03.54-2.11 1-3.17 1.49q1.95.53 3.95.9-.5-1.16-.78-2.39m29.7-438.01a38 38 0 0 0-4.8 2.27c1.32-.52 2.65-1.06 4.04-1.43 10.14-2.64 19.7-.73 28.71 3.75-8.35-5.54-17.7-8.5-27.95-4.59" style="fill:#f6a66f"/><path d="M1372.08 1229.5c-1.56 0-3-.98-2.77-2.97l.1-.84a664 664 0 0 1-63.68-20.74 529 529 0 0 0-15 4.27c-1.93.6-3.3-.64-3.7-2.15-57.4 17-115.5 34.56-174.58 45.9q4.95 4.78 10.1 9.32c6.9 6.12 14.07 11.9 21.4 17.46q.07-.17.18-.32c.1-.2.15-.4.29-.58 7.74-9.94 17.08-19.73 29.16-24.2 11.6-4.31 23.31-1.5 33.26 5.38 10.13 7 18.9 16.2 27.87 24.57 9.75 9.08 19.44 18.23 29.22 27.27 19.9 18.38 40.17 36.44 61.88 52.68 9 6.72 18.53 12.74 28.03 18.8q4.14-34.42 8.24-68.88l.89-7.5q4.6-38.73 9.11-77.47m-95.56 88.94c-1.2 1.3-3.19 1.06-4.41 0a25 25 0 0 1-7.96-13.8c-.33-1.71.47-3.28 2.18-3.83 1.52-.49 3.52.58 3.84 2.18q.34 1.78.97 3.46l.17.47.04.09.04.08.2.45a23 23 0 0 0 1.76 3.03l.47.65.25.31q1.13 1.35 2.45 2.5c1.3 1.15 1.08 3.23 0 4.4m69.5-94.12-9.58 13.54c-1 1.43-2.66 1.96-4.27 1.12-1.4-.74-2.06-2.93-1.12-4.27l9.58-13.54c1.01-1.43 2.67-1.97 4.27-1.12 1.4.74 2.06 2.93 1.12 4.27m14.63 5.99-8.2 11.6c-1.02 1.43-2.68 1.97-4.28 1.13-1.4-.75-2.06-2.93-1.12-4.27l8.21-11.6c1.01-1.44 2.67-1.98 4.27-1.13 1.4.74 2.06 2.93 1.12 4.27" style="fill:#f6a66f"/><path d="M490.18 810.08c3.7 20.1 19.55 34.44 26.07 53.35 5.95 17.2-6.03 33.29-9.6 49.86-3.72 17.28-3.51 35.4.08 52.67 7.07 33.98 26.96 65.1 56.52 83.68 1.09.68 1.94 2.22 1.44 3.52-6.1 15.7-5.77 32.68-.55 48.3 34.95 30.36 83.84 45.35 128.8 33.38q1.51 6.15 4.15 11.75a3 3 0 0 1 2.26.29l27.4 15.37c3.5 1.97.36 7.35-3.14 5.38l-21.26-11.91c14.15 20.9 39.75 34.41 65.36 37.89 33.4 4.52 67-4.53 99.37-13.86 59.91 52.6 162.3 45.8 214.77-14.24 37.6 5.57 76.73 6.25 112.77-5.86 36.04-12.04 68.63-38.4 81.33-74.2 67.15 4.41 129.25-63.2 119.06-129.76 48.4-24.8 81.74-76.6 84.29-130.94.46-9 .22-18.45 4.6-26.31 4.3-7.7 12.27-12.41 19.52-17.42 45.53-31.52 72.55-88.1 68.42-143.35-.68-8.94-2.04-18.25 1-26.65a30 30 0 0 1 2.01-4.28 141 141 0 0 0-8.37-18.63c-6.32-11.84-13.08-22.62-23.82-30.8l-.1-.1a5 5 0 0 1-1.18-1.33q-27.9-13.76-55.9-27.5c-1.29-.64-2.66-1.36-3.26-2.69-.77-1.68.12-3.7.98-5.37 4.3-8.32 8.81-16.77 10.52-25.99 1.76-9.46-6-19.1-5.28-26.33l.09-.59c1.42-8.1 12.17-15.77 13.64-26.14 1.5-10.75-.29-21.7-2.6-32.32 7.12-3 12.35-9.33 15.54-16.42-1.27-2.93-2.2-6-2.14-9.2.1-5.9 3.37-11.17 4.52-16.86 1.44-7.15.38-15.94-3.36-22.26-3.8-6.43-13.58-12.98-7.72-21.3 7.34-10.4 12.03-20.43 9.88-33.59a41 41 0 0 0-8.05-18.52c-3.48-4.47-7.88-7.95-10.69-12.94-3.2-5.7-6.72-11.47-9.3-17.47-2.18-5.02-2.84-10.45-3.95-15.77-2.97-14.12-7.1-27.8-16.73-38.88-4.07-4.68-7.53-8.66-9.41-14.67-1.77-5.62-3.03-10.07-7.35-14.29-7.71-7.52-19.57-12.15-30.31-12.2-6.23-.02-11.76.63-17.98-.58-7.34-1.42-14.23-2.49-21.68-1.16s-13.66 4.79-20.24 8.26c-2.83 1.5-5.96 2.44-8.77 3.92-2.3 1.22-3.9 3.25-5.79 4.99-8.63 7.97-20.2 1.58-30.47 5.44-13.12 4.93-22.3 17.74-29.93 28.8-3.1 4.47-5.62 7.75-10.99 9.37-5.9 1.78-11.64 3.26-17.2 6a73 73 0 0 0-27.34 22.97c-3.47 4.89-5.76 10.11-8.27 15.51-2.4 5.18-5.92 6.96-11.33 8.24-1.87.45-3.21-.71-3.68-2.14a65 65 0 0 0-13.97 5.86c-11.5 6.5-20.82 16.28-26.02 28.07-3.13 7.07-4.85 14.8-9.18 21.27-3.64 5.47-8.94 9.78-14.49 13.86-5.55.09-11.1.65-16.54 1.86-10.88 2.4-21.9 6.9-32.82 5.57-.3 1.64-1.7 3.12-3.78 2.58-9.33-2.44-17.06-8.74-26.37-11.08-17.2-4.32-34 5.86-48.63 13.53-7.25 3.8-14.6 7.57-22.41 10.13-8.84 2.9-18.06 3.22-27.3 3.65-22.28 1.02-45.23.54-66.42 8.48-18.44 6.91-35.39 17.78-55.49 19.24-11.12.81-22.27-.17-33.37 1.08a101 101 0 0 0-29.01 7.65c-1.46.64-3.1 1.72-4.79 2.63-1.72.93-3.47 1.7-5.11 1.66-3.7-.09-8.53-2.7-11.9-4.2-8.4-3.76-14.02-9.9-19.78-16.87-13.32-16.1-32.2-24.61-53.22-22.81-3.89.33-7.74.89-11.23-1.3-3.24-2.03-5.56-5.6-8.3-8.2a69 69 0 0 0-24.76-15.05 75 75 0 0 0-29.26-4.12c-4.51.26-8.94 1.15-13.16-.95-4.33-2.15-8.15-5.73-12.17-8.42-8.74-5.86-18.79-11.59-29.5-12.45-5.07-.4-9.85.78-14.48 2.75-3.58 1.52-7.1 3.61-11.08 3.79-3.63.15-6.54-1.66-9.76-3.06-4.54-1.98-10.02-1.54-14.9-2.3-11.9-1.85-23.28-2.1-34.24 3.7-4.22 2.24-8.1 5.08-12.47 7.04-3.2 1.43-6.59 1.94-9.89 3-8.74 2.83-16.81 9.31-22.15 16.7-2.65 3.65-4.84 7.82-5.51 12.32-.69 4.56.62 9.13.08 13.7-.55 4.78-2.78 8.94-4.44 13.38a60 60 0 0 0-3.61 17.06c-.74 11.19 1.26 22.16 2.68 33.2 1.11 8.66-1.32 17.73-2.75 26.24-1.61 9.6-7.56 17.4-7.82 27.46a42 42 0 0 0 7.44 24.93 38 38 0 0 0 11.22 10.57c1.72 1.07 3.61 1.91 4.83 3.61 3.84 5.36.35 11.89-1.52 17.19-3.75 10.64.37 22.28 7.08 30.71 4.89 6.14 7.85 11.35 7.09 19.47-.44 4.6-1.77 9.03-2.47 13.57-.9 5.82-.33 11.83.82 17.57 1.4 7 4.12 12.22 7.7 18.21 1.86 3.14 5.43 7.07 4.34 10.88-1.57 5.43-5.3 10.4-7.04 15.91-1.49 4.75-2.6 10.02-1.47 14.98 3.38 14.84 23.15 17.84 24.84 33.97.23 2.2-1.55 3.13-3.27 2.9-.59 4.7-2.86 9.33-3.57 14.08-1.61 10.7 5.4 20.33 14.69 25.29.83.45 1.66.91 2.52 1.28a53 53 0 0 0 9.14 2.8c-5.27 17.99-6.24 37.64-3.1 59.16 1.47-.33 3.06.24 3.4 2.15m94.77-33.72c.16 1.68-1.55 3.11-3.11 3.11-1.8 0-2.97-1.44-3.12-3.11l-1.95-21.24c-.15-1.69 1.56-3.12 3.12-3.12 1.8 0 2.97 1.44 3.12 3.12zM625 1119.69c-20.96-4.36-35.14-27.55-29.88-48.2 1-3.89 7-2.23 6.02 1.66-4.47 17.53 7.91 36.87 25.52 40.53 3.93.81 2.26 6.82-1.66 6.01m116.24 35.73c-.37 1.62-2.27 2.65-3.84 2.18a53 53 0 0 1-21.45-12.52 3.15 3.15 0 0 1 0-4.4 3.17 3.17 0 0 1 4.41 0 46.6 46.6 0 0 0 18.7 10.91 3.2 3.2 0 0 1 2.18 3.83m-1.99-284.23c-19.04 24.88-49.72 38.38-80.44 44.49-7.04 1.4-14.53 2.43-21.24-.1s-12.15-9.82-10.21-16.74A97 97 0 0 1 586 925.25c-3.04.98-6.68 1.7-9.15-.32-1.75-1.41-2.35-3.8-2.6-6.04-3.7-32.62 36.72-57.75 64.61-61.22 12.95-1.61 25-.95 37.92-4.13 16.65-4.1 37.67-14.32 55.1-10.56 6.18 1.34 12.12 5.84 13.2 12.08 1.01 5.8-2.25 11.46-5.83 16.13m45.05-95.06c-1.6 1.57-3.26 3.08-4.9 4.6-.12 3.16-1.36 6.17-4.04 8.02q-10.52 7.23-21.83 13.07a261 261 0 0 1-42.01 24.44 12 12 0 0 1-14-3.08c-2.84-3.39-3.21-7.67-1.86-11.57-3.66-4.77-4.08-11.48-.91-17.22.54-.98 1.22-1.87 1.9-2.77a12 12 0 0 1-1.78-2.7c-2.53-5.38-.39-11.74 4.45-14.89a12 12 0 0 1 3.45-6.02c2.97-5 6.89-9.48 10.89-12.79 12.81-10.56 28.8-15.81 44.64-19.9 6.67-1.72 12.83 4.25 13.73 10.57 4.9-.5 9.65 1.37 12.01 6.4a11 11 0 0 1 .94 6.59 13 13 0 0 1 2.87 4.77c1.5 4.75-.11 9.1-3.55 12.48m162.95 291.02a34.7 34.7 0 0 1-26.7-4.26c-3.38-2.14-.25-7.54 3.15-5.39a28.3 28.3 0 0 0 21.89 3.63c3.9-.97 5.55 5.05 1.66 6.01m10.8-16.5c-.4 1.78-2.22 2.43-3.83 2.19a67 67 0 0 1-17.45-5.24c-1.58-.71-1.83-2.9-1.11-4.26.84-1.6 2.78-1.8 4.26-1.12l.98.42.53.23a71 71 0 0 0 6.08 2.11q4.12 1.2 8.37 1.84c1.73.26 2.52 2.35 2.18 3.84m308.52-346.2c-3.13-.85-5.3-3.27-6.47-6.2-2.06-.9-4.13-1.76-6.16-2.7-4.37-2.04-7.33-5.61-7.51-10.6-.06-1.75.34-3.68 1.12-5.45a11 11 0 0 1-1.31-6.52c.54-5.53 4.4-8.87 9.19-10.04-1.26-6.26 2.55-13.94 9.42-14.54 16.3-1.43 33.11-1.81 48.72 3.88a50 50 0 0 1 14.53 8.42c2.2 1 4.08 2.58 5.25 4.53 5.62 1.35 9.75 6.64 9.17 12.56a11 11 0 0 1-.78 3.13c.94.62 1.89 1.24 2.72 1.98 4.9 4.36 6.74 10.82 4.88 16.54 2.57 3.23 3.66 7.39 2.1 11.53a12 12 0 0 1-12.17 7.57 262 262 0 0 1-47.75-9.03 202 202 0 0 1-24.95-5.06M1502 742.1c-2.82 13.4-24.87 23.4-36.02 27.18-11.48 3.9-23.09 7.82-35.14 9.1-12.06 1.3-24.79-.26-35.08-6.67 5.98 3.72-19.35 10.49-22.39 10.73-10.77.86-33.54 3.34-43.47-2.78-25.46-15.67 1.16-47.46 17.65-56.37 12.48-6.75 20.53-9.65 33.77-6.26 2.83.73 24.24 7.69 21.7 12.59a66 66 0 0 1 35.9-31.38 63.6 63.6 0 0 1 27.87-3.64c20.48 1.95 39.64 26.42 35.2 47.5m-21.08-156a31 31 0 0 0 3 5.21l.43.58c.4.47.13.17.02.02l-.02-.02-.08-.1.23.3.96 1.13a3.2 3.2 0 0 1 0 4.4c-1.1 1.2-3.34 1.24-4.41 0a35 35 0 0 1-6.87-11.76l-.17-.46c-.56-1.65.64-3.33 2.18-3.83 1.66-.54 3.32.63 3.84 2.18q.24.75.53 1.48l.13.34.04.1.07.15zm-111.8-421.35c.79-1.5 2.85-1.94 4.27-1.13l11.06 6.4c1.5.87 1.9 2.77 1.11 4.26-.79 1.5-2.85 1.94-4.26 1.12l-11.07-6.39a3.17 3.17 0 0 1-1.11-4.26m-21.06 17.83c1.08-1.17 3.34-1.24 4.4 0a36 36 0 0 0 4.28 4.2l.77.61-.05-.04.02.02.35.26a36 36 0 0 0 5.13 3.1l.88.41.4.18-.05-.01c.8.33 1.4.7 1.87 1.43.45.71.5 1.6.31 2.4a3.2 3.2 0 0 1-1.43 1.87c-.61.36-1.71.6-2.4.31a38.6 38.6 0 0 1-14.48-10.33c-1.13-1.32-1.21-3.08 0-4.4m-41.93 80.01c12.23-5.59 26.57-6.42 38.49.4 8.2 4.7 14.46 12.34 16.95 21.23 6.52-7.08 17.56-10.33 26.68-11.68 13.61-2.02 27.96-.03 40 6.83 20.21 11.54 30.32 37.92 21.32 59.22 8.13-1.21 16.65 2.87 22 9.56 8.02 10.05 10.46 24.04 8.7 36.54-3.8 27.12-28.4 46.4-55.53 44.73-4-.24-4.01-6.48 0-6.23 21.7 1.33 42.17-11.97 48.1-33.24 2.9-10.42 2.35-22.08-2.4-31.9-4.73-9.78-15.99-18.22-26.3-10.51-2.48 1.85-6.03-1.8-4.27-4.27 13.35-18.78 5.86-45.75-13.2-57.57-10.05-6.25-22.16-8.5-33.88-7.46-10.64.94-27.17 4.7-30.16 16.7-.84 3.4-6.29 2.68-6.13-.83.54-11.49-6.52-21.46-16.58-26.57-10.85-5.5-23.85-3.47-34.17 2.2-18.8 10.34-34.33 36.73-20.28 56.76 2.3 3.3-3.1 6.4-5.39 3.15-16.86-24.05 2.58-56.31 26.05-67.06m-257.07 168.63c.58.53.92 1.44.92 2.2 0 .87-.37 1.57-.92 2.2l-7.9 9.27c-1.12 1.32-3.24 1.07-4.4 0a3.2 3.2 0 0 1-.92-2.2c0-.87.37-1.57.92-2.2l7.9-9.27c1.12-1.33 3.24-1.07 4.4 0m-33.36 18.3 24.44-32.65c1.01-1.35 2.68-2.05 4.27-1.12 1.34.78 2.13 2.92 1.12 4.27l-24.45 32.64c-1.01 1.35-2.67 2.05-4.26 1.12-1.34-.78-2.13-2.92-1.12-4.27m-59.24 423.8c28.13-12.04 47.94-37.88 59.13-65.82a53 53 0 0 1-20.36-6.28c-8.57-4.79-16.34-13.16-18.19-23.05-2.27-12.08 5.32-24.08 17.6-26.22 9.31-1.61 19 1.36 27.16 5.78q.95-1.5 2.07-2.91a47 47 0 0 1 6.98-6.98c3-3.88 7.57-6.27 12.55-6.7a22 22 0 0 1 6-.78c3.11-.43 6.4.18 9.36 2.1 10.35 6.68 11.51 20.82 6.78 31.3l-.71 1.4a40 40 0 0 1-2.6 8.2c-3.05 6.75-7.8 13-14 17.18 30.06 21.35 68.19 35.35 104.73 25.62 35.65-9.48 61.88-39.28 73.6-73.41 4.89-14.25 27.58-8.1 22.66 6.25-6.71 19.56-16.74 37.62-30.65 53-22.87 25.3-55.34 40.64-89.56 40.74-33.98.1-65.86-13.35-93.33-32.55a164 164 0 0 1-21.34 36.26c-19.4 24.83-46.76 42.24-78.28 46.14-35.48 4.4-70.09-10.18-96.8-32.78-4.86-4.13-4.2-12.42 0-16.63 4.76-4.75 11.79-4.1 16.63 0 27.42 23.22 66.3 34.81 100.57 20.14M556.43 324.8a3.15 3.15 0 0 1 4.27 1.12l7.28 13.7a3.2 3.2 0 0 1-1.12 4.26c-1.37.89-3.5.33-4.26-1.11l-7.3-13.7a3.2 3.2 0 0 1 1.13-4.27M534.91 337c1.18-1.3 3.2-1.09 4.4 0l15.67 13.9c1.3 1.16 1.08 3.23 0 4.42-1.19 1.29-3.2 1.08-4.41 0L534.9 341.4c-1.3-1.16-1.09-3.23 0-4.41m-29.47 107.77c18.52-25.58 52.99-26.1 77.4-9.5 7.78-18.84 23.98-39.32 46.54-30.05 11.6 4.77 23.53 14.86 30.83 25 7.36 10.2 9.96 23.4 3.82 34.79-1.9 3.54-7.29.38-5.39-3.15 11-20.4-13.57-42.86-30.53-50.45-20.75-9.28-34.86 12.83-40.8 29.53-.84 2.36-3.32 2.86-5.2 1.37-22.25-17.49-57.24-17.36-73.23 8.49-16.99 27.44 6.2 55.25 24.52 74.63 1.86 1.96.54 5.28-2.2 5.32-17.73.3-30.86 19.26-27.4 36.16 3.7 18.13 22.42 29.3 39.93 29.5 4.02.05 4.01 6.28 0 6.24-21.1-.25-43.22-14.48-46.37-36.53-2.58-18.09 9.88-36.8 27.46-40.79-19.98-22.1-39.92-52.2-19.38-80.56" style="fill:#ec9b9b"/><path d="M974.58 1265c46.6 1.73 92.52-3.32 137.86-12.03 59.09-11.34 117.19-28.9 174.58-45.9-.4-1.5.15-3.28 2.05-3.86 19.43-5.9 39.21-10.28 58.49-16.73 19.45-6.51 38.52-14.3 56.34-24.5 15.88-9.1 30.02-20.2 43.19-32.87 13.09-12.6 25.9-24.56 42.12-33.07 16.29-8.53 32.5-15.92 43.6-31.27 9.63-13.31 15.1-29.07 19.19-44.85a355 355 0 0 0 3.1-13.07c.66-3 .72-7.97 2.31-10.58 1.44-2.37 4.93-3.24 7.26-4.62a63 63 0 0 0 7.87-5.45c10.34-8.46 18-19.94 22.53-32.46 9.04-24.9 6.5-54.46-11.18-74.99-1.21-1.4-1.11-3.01 0-4.4 15.77-19.94 24.6-44.73 26.2-70.01 1.39-22-2.4-44.49-11.68-64.53a121 121 0 0 0-17.5-27.42c-6.38-7.52-12.23-15.51-12.26-25.8-.03-8.79 4.13-16.8 7.21-24.8a68.6 68.6 0 0 0 4.06-35.14c-.98-6.8-2.74-13.45-5.07-19.91a30 30 0 0 0-2 4.28c-3.05 8.4-1.7 17.7-1.02 26.65 4.14 55.25-22.88 111.83-68.41 143.35-7.25 5-15.22 9.72-19.53 17.42-4.37 7.86-4.13 17.3-4.59 26.3-2.56 54.35-35.88 106.15-84.29 130.95 10.19 66.56-51.9 134.17-119.06 129.76-12.7 35.81-45.3 62.16-81.33 74.2-36.04 12.1-75.17 11.43-112.77 5.86-52.47 60.04-154.86 66.83-214.77 14.24-32.37 9.33-65.97 18.38-99.37 13.86-25.61-3.48-51.21-17-65.36-37.9l-6.15-3.44c-2.7-1.52-1.43-5.04.9-5.68a63 63 0 0 1-4.15-11.75c-44.97 11.97-93.86-3.01-128.8-33.38a82 82 0 0 0 6.36 14.35c9.35 16.55 24.46 30.39 42.79 36.14q3.36 1.06 6.83 1.75c2 .4 5.25.07 7.05 1.02 3.24 1.7 4.91 6.49 6.8 9.54 6.23 10.06 12.78 20 20.47 29.03 7.03 8.27 15.04 15.84 24.41 21.41 11.94 7.1 25.14 9.4 38.73 11.17 12.34 1.6 24.25 3.62 35.94 8.07 12.44 4.73 24.26 10.92 36.6 15.9 1.8.73 2.32 2.54 1.95 4.03 37.79 14.23 76.23 14.06 114.93 12.52l14.44-.6 6.8-.28q3.24-.13 6.5-.24c13.26-.48 26.54-.75 39.83-.27m526.58-407.9 8.68-16.5c.8-1.54 2.82-1.88 4.26-1.12 1.54.81 1.88 2.82 1.12 4.27l-8.68 16.5c-.81 1.55-2.82 1.88-4.26 1.12-1.54-.8-1.88-2.82-1.12-4.26m-17.37 4.7a161 161 0 0 0 10.75-21.12c.65-1.57 2.04-2.68 3.84-2.18 1.47.4 2.82 2.28 2.17 3.83-3.25 7.81-7 15.37-11.37 22.62a3.17 3.17 0 0 1-4.27 1.12 3.16 3.16 0 0 1-1.12-4.27m-99.62 222.76a69 69 0 0 0 7.23-12.71l.05-.14.24-.6.47-1.18.86-2.4a3.2 3.2 0 0 1 3.83-2.17c1.58.35 2.7 2.28 2.18 3.83a70 70 0 0 1-9.47 18.51c-1.02 1.42-2.65 1.98-4.27 1.12-1.4-.73-2.07-2.94-1.12-4.26m-29.67 10.19 16.92-27.71c2.08-3.43 7.47-.3 5.38 3.14l-16.91 27.71c-2.09 3.43-7.49.3-5.39-3.14m-373.83 134.79A679 679 0 0 0 1250 1154.9c3.57-1.85 6.71 3.53 3.15 5.38a687 687 0 0 1-272.5 75.48c-4 .25-3.98-5.98 0-6.23m560.47-675.83c3.85-9.49 1.63-16.67-4.15-24.6-3.61-4.96-6.4-9.93-5.6-16.26 1.65-12.85 15.82-21.74 12.13-35.56-2.06-7.72-8-14.12-13.54-19.6-3.26-3.22-5.64-4.38-5.05-8.97.54-4.18 1.65-8.32 2.44-12.45 1.13-5.97.58-12-.65-17.93-1.68-8.07-5.33-14.09-9.28-21.13q-1.25-2.26-2.31-4.67c-3.2 7.09-8.42 13.41-15.53 16.42 2.3 10.62 4.08 21.57 2.59 32.32-1.47 10.37-12.22 18.03-13.64 26.14l-.09.6c-.72 7.22 7.04 16.86 5.28 26.32-1.7 9.22-6.22 17.67-10.52 26-.86 1.66-1.75 3.68-.99 5.36.61 1.33 1.98 2.05 3.28 2.68q27.98 13.75 55.88 27.5c-.37-.65-.56-1.4-.25-2.18M731.87 842.98c-17.42-3.76-38.44 6.47-55.09 10.56-12.92 3.18-24.97 2.52-37.92 4.13-27.9 3.48-68.3 28.6-64.61 61.23.25 2.23.85 4.62 2.6 6.03 2.47 2.02 6.11 1.3 9.15.32a97 97 0 0 0 41.36-26.4c-1.94 6.9 3.5 14.19 10.21 16.73 6.71 2.53 14.2 1.5 21.24.1 30.72-6.1 61.4-19.61 80.44-44.5 3.58-4.66 6.84-10.31 5.83-16.12-1.08-6.24-7.02-10.74-13.2-12.08" style="fill:#ed8786"/><path d="M1466.8 694.6c-9.61-.92-19.1.44-27.88 3.64a66 66 0 0 0-35.9 31.38c2.55-4.9-18.86-11.87-21.7-12.6-13.23-3.38-21.3-.48-33.77 6.27-16.49 8.91-43.1 40.7-17.65 56.37 9.93 6.12 32.7 3.64 43.47 2.78 3.04-.24 28.37-7.01 22.39-10.73 10.3 6.4 23.02 7.97 35.09 6.68 12.05-1.29 23.65-5.21 35.13-9.1 11.15-3.8 33.2-13.79 36.02-27.19 4.43-21.08-14.73-45.55-35.2-47.5" style="fill:#ed8786"/><path d="M1149.73 1380.05c.28.6.62 1.18.91 1.77a170 170 0 0 1-6.22-18.21 75 75 0 0 0 5.31 16.44m-34.03 83.86h.09l.05-.08zm6.54-42.66c-2.7-28.09-23.44-53.16-50.39-61.34-1.87-.56-2.42-2.28-2.06-3.76-12.13-3.08-24.83-3.47-37.15-5.8q-2.32-.46-4.54-1.06c-26.18-6.95-43.18-28.79-67.42-36.69-.47 1.43-1.8 2.57-3.67 2.1-29.7-7.46-36.55 31.23-45.08 51.19-4.37 10.23-9.13 20.47-9.81 31.75-.53 8.94 1.2 17.88 4.5 26.2 7.87 19.88 23.93 34.32 41.92 45.1.65.39 1.01.92 1.24 1.5h.25a286 286 0 0 0 89.97 6.36 279 279 0 0 0 45.29-7.84c12.92-3.35 35.78-7.7 35.05-25.08-.1-2.4 2.07-3.33 3.88-2.86a71 71 0 0 0 1.28-16.81c-1.52-.06-3.07-1.04-3.26-2.96m-182.31-58.42a3.1 3.1 0 0 1-4.41 0 3.4 3.4 0 0 1-.91-2.2l-.92-8.23c-.09-.8.4-1.64.92-2.2a3.13 3.13 0 0 1 4.4 0c.64.62.83 1.35.92 2.2l.91 8.22c.09.81-.4 1.64-.91 2.2m13.84-.35c-1.46.94-3.38.25-4.27-1.11a19.7 19.7 0 0 1-3.03-12.62c.09-.87.32-1.56.9-2.2a3.14 3.14 0 0 1 4.42 0c.5.5 1 1.46.91 2.2q-.18 1.85.04 3.7.24 1.59.76 3.1l.15.4.3.65q.43.83.94 1.62c.94 1.46.25 3.38-1.12 4.26" style="fill:#f8cea0"/><path d="m1004.57 1641.2 1.6 5.9c1.66 5.95 3.44 11.96 6.44 17.31 1.33-.62 3.07-.53 4.16.98 8.02 11.18 21.92 18.72 33.46 25.78q3.9 2.4 7.9 4.61c2.04 1.15 5 2.13 7.3 3.41q1.16.64 2 1.4c2.86 2.58 2.27 8.86 2.82 12.42 2.88 18.87 7.92 39.65 21 54.23 14.37 16 39.45 20.86 60.04 19.56 20.38-1.29 49.66-10.37 57.07-31.93 8.07-23.42-19.94-41.47-38.88-47.08-.71.37-1.57.48-2.38.33l-.11-.04-.63-.06-1.27-.04q-1.12.03-2.25.12c-1.6.13-3.2.33-4.8.32-3.25-.01-6.31-.92-8.75-3.1a12 12 0 0 1-2.97-4.26 51 51 0 0 1-3.95-.9l-1.9.9-.65.4q-.63.4-1.25.48a78.4 78.4 0 0 1-53.5 1.95c-3.8-1.25-2.17-7.27 1.65-6.02a72 72 0 0 0 47.2-.93c1.18-.45 2.38-.88 3.54-1.38q4.8-3.12 9.72-5.96.67-.68 1.57-.87a94 94 0 0 1 7.57-3.8c6.78-2.95 13.82-5.39 20.12-9.3a53.4 53.4 0 0 0 23.33-32.53c3.39-14.16.35-29.53-7.75-41.58-8.63-12.83-22.64-20.34-36.75-25.66-1.57-.6-2.72-2.49-2.16-4.07q.2-.62.78-1.14c19.37-16.22 31.14-43.01 17.5-66.66-11.48-19.86-34.78-30.54-56.6-34.09a2.5 2.5 0 0 1-1.91-1.24c-.5-.87-.4-2.02.11-2.99a61 61 0 0 1-11.9 5.24c-16.14 5.26-32.92 8.73-49.73 10.88a291 291 0 0 1-103-5.34c-.58-.13-1-.4-1.34-.73-9.43 8.45-10.48 21.7-9 33.75 1.87 15.37 8 29.88 14.66 43.71 5.41 11.21 10.73 22.96 20.55 31.05 7 5.78 15.46 8.8 24.21 10.52a3 3 0 0 1 2.5-.48c1.44.32 2.88.59 4.32.9a226.7 226.7 0 0 0 136.9-14.36c3.64-1.6 6.8 3.77 3.15 5.39a234 234 0 0 1-139 15.53 52 52 0 0 0-1.92 11.68c-.09 1.92-1.58 2.9-3.08 2.98q.05 1.68.18 3.37c.57 7.23 2.2 14.38 4.08 21.44m160.4 11.9 2.7-11.89c.38-1.7 2.25-2.54 3.83-2.18 1.7.4 2.54 2.25 2.18 3.84l-2.7 11.89c-.39 1.7-2.24 2.54-3.83 2.18-1.7-.39-2.54-2.26-2.18-3.84m-132.03-95.97a3.2 3.2 0 0 1-1.43 1.86 3.2 3.2 0 0 1-2.4.31l-7.29-1.9a3.14 3.14 0 0 1-2.18-3.84 3.15 3.15 0 0 1 3.83-2.18l7.3 1.91a3.14 3.14 0 0 1 2.17 3.84m-1.14 18.62a29 29 0 0 1-12.53-2.3c-.72-.32-1.2-1.16-1.43-1.87a3.15 3.15 0 0 1 2.18-3.84c.88-.24 1.6-.03 2.4.32-.87-.38 0 0 .19.06l.75.27a21 21 0 0 0 3.99.97c1.48.17 2.96.25 4.45.15 1.74-.1 3.05 1.52 3.12 3.12.01.21-.07.39-.1.58a3.2 3.2 0 0 1-3.02 2.54" style="fill:#f8cea0"/><path d="M846.93 1615.41a83 83 0 0 0-44.5-23.12 78 78 0 0 0-28.76.28c-4.58.95-9.86 3.5-14.64 3.26-6.9-.36-5.88-7.87-6.2-12.92-.78-12.93-7.67-23.69-16.68-32.63-20.3-20.17-47.88-29.82-76.24-29.4-29.34.45-59.87 9.56-84.19 26.12-21.55 14.69-39.36 36.95-38.2 64.23.16 3.48-5.5 4.28-6.12.82-.4-2.24-8.32-5.12-10.8-6.16a242 242 0 0 0-18.7-6.75c-13.27-4.33-26.7-8.32-40.47-10.7-37.67-6.53-78.79-2.1-114.86 10.2-17.32 5.89-33.8 14.51-47.24 27.07-14.58 13.61-22.43 30.39-28.95 48.95-2.35 6.68-5.24 10.32-12.55 11.1-9.94 1.04-19.85 1.49-29.57 4.03-16.55 4.33-35.65 16.48-35.18 35.8.42 16.75 16.58 30.27 32.68 30.93 21.14.87 42.55.36 63.71.54 2.01.02 3.01 1.58 3.01 3.13q21.4.13 42.8.23l21.45.1q44 .2 88.03.23c.02-1.54 1.01-3.06 3-3.06q51.09.03 102.17-.15c59.88-.2 119.88.28 179.73-1.56 29.39-.9 58.86-3.1 87.64-9.33 11.76-2.54 25.81-4.76 35.9-11.75 8.13-5.63 11.82-14.8 14.65-23.91.58-1.86 2.3-2.42 3.77-2.06a106.7 106.7 0 0 0 .35-54.29 100 100 0 0 0-4.58-13.44 91 91 0 0 0-16.24-25.77c-1.12 1.02-2.85 1.36-4.22-.02M364.78 1629c-22.62 7.09-48.44 15.76-58.75 39.25-1.61 3.67-6.98.5-5.39-3.14 10.97-24.97 38.42-34.59 62.48-42.12 3.84-1.22 5.47 4.81 1.66 6m42.68 108.56h-17.73a3.17 3.17 0 0 1-3.12-3.11c-.07-1.68 1.49-3.12 3.12-3.12h17.73a3.17 3.17 0 0 1 3.11 3.12c.08 1.69-1.48 3.11-3.11 3.11m23.25-7.46c-1.21 1.32-3.16 1.05-4.4 0l-1.01-.81-.67-.48q-1.06-.74-2.17-1.41t-2.27-1.23l-1.16-.57-.6-.26v.01a35 35 0 0 0-7.3-2.02l-.64-.1h-.13l-1.3-.12c-1.74-.14-3.03-1.32-3.11-3.12-.07-1.6 1.49-3.24 3.12-3.12 8 .6 15.48 3.66 21.64 8.82 1.33 1.12 1.06 3.25 0 4.41m244.13 5.2a3.3 3.3 0 0 1-1.44 1.87 14 14 0 0 1-10.47 1.83 3.12 3.12 0 0 1-.74-5.7 3.3 3.3 0 0 1 2.4-.32l.14.03q1.1.1 2.2 0 1.08-.2 2.1-.58.64-.29 1.22-.64c1.47-.95 3.39-.25 4.27 1.12.43.66.52 1.65.32 2.4m1.8-9.01c-4.01 0-4-6.24 0-6.24 4.02 0 4.02 6.24 0 6.24m8.66-147.6c-1.14 1.24-3.26 1.15-4.41 0l-8.06-8.06a3.2 3.2 0 0 1 0-4.41c1.14-1.24 3.25-1.16 4.4 0l8.07 8.06a3.2 3.2 0 0 1 0 4.41m12.01 2.25c-1.45.95-3.38.26-4.26-1.12q-3.15-4.87-6.29-9.77c-.94-1.46-.25-3.38 1.12-4.26 1.46-.95 3.39-.25 4.27 1.12q3.15 4.87 6.28 9.77c.95 1.46.25 3.39-1.12 4.26m138.89 135.27c-3.33 2.27-6.44-3.14-3.15-5.38 12.78-8.73 15.32-28.13 6.11-40.26-1.02-1.34-.21-3.51 1.12-4.27 1.59-.9 3.24-.23 4.26 1.12 11.39 14.98 7 38.33-8.34 48.8" style="fill:#fffce3"/><path d="M1847.34 621.84c-3.84-1.2-5.48 4.81-1.66 6.01 18.13 5.69 38.82 12.6 47.09 31.43 1.6 3.67 6.98.5 5.38-3.14-8.91-20.31-31.24-28.16-50.8-34.3m-249.87-41.28c.56-.56.92-1.4.92-2.2a3.12 3.12 0 0 0-5.33-2.2l-6.51 6.5a3.2 3.2 0 0 0-.91 2.2c0 .77.34 1.68.9 2.21.6.54 1.38.95 2.21.91a3.3 3.3 0 0 0 2.2-.9zm-12.28-4.86a3.2 3.2 0 0 0-4.27 1.12l-5.08 7.9a3.14 3.14 0 0 0 1.12 4.26c1.55.82 3.32.36 4.27-1.11l5.08-7.9c.88-1.37.32-3.5-1.12-4.26m240.5 133.61h-14.33c-1.63 0-3.2 1.44-3.12 3.12a3.17 3.17 0 0 0 3.12 3.12h14.32c1.63 0 3.2-1.44 3.12-3.12a3.2 3.2 0 0 0-3.12-3.12m-16.61-5.36-.05.01 1.04-.1c1.62-.11 3.2-1.34 3.12-3.1-.07-1.6-1.38-3.26-3.12-3.13-6.64.5-12.8 3.03-17.9 7.3-1.26 1.05-1.17 3.34 0 4.41 1.33 1.23 3.07 1.12 4.4 0l.66-.53.57-.42a27 27 0 0 1 3.59-2.13l.94-.45.47-.21-.13.06c1.27-.46 2.53-.91 3.85-1.23q1.02-.24 2.05-.4zM1605.95 711a3.4 3.4 0 0 0-2.35-.32 9 9 0 0 1-1.7 0 9 9 0 0 1-1.57-.43q-.46-.22-.9-.48a3.2 3.2 0 0 0-2.4-.31c-.73.2-1.5.76-1.87 1.43a3.2 3.2 0 0 0 1.13 4.27 12 12 0 0 0 8.9 1.54c.74-.16 1.5-.8 1.88-1.44.39-.67.55-1.65.3-2.4a3.2 3.2 0 0 0-1.42-1.86m-11.98-10.79c-4.02 0-4.02 6.23 0 6.23s4.02-6.23 0-6.23M444.07 269.55c-.04-1.53-1.03-3.03-3-3.03q-72.3.05-144.6-.58c-23.28-.2-46.67-.14-69.8-3.05-11.64-1.47-23.56-3.53-34.72-7.26-9.16-3.06-13.28-8.83-16.13-17.88-.59-1.85-2.3-2.4-3.77-2.06-1.57.36-2.87 1.74-2.24 3.72 2.19 6.95 5.12 13.66 11.28 17.97 3.32 2.32 7.2 3.96 11.27 5.23 6.07 1.9 12.57 2.95 18.37 4.05 1.02.2 2.04.34 3.06.52 23.23 4.08 46.89 4.65 70.42 4.89 17.02.17 34.05.25 51.08.36 7.14.04 14.29.12 21.44.15q42.16.2 84.34.18c2.05 0 3.04-1.63 3-3.21m-277.35-42.68c.31 2.22 2.33 2.62 3.95 1.89 1.27-.58 2.3-1.83 2.06-3.55a55.3 55.3 0 0 1 20.85-51.23 52 52 0 0 1 27.03-10.6c6.44-.55 12.4.49 18.62 1.98 2.16.52 4.93 1.45 7.03.2 1.62-.98 2-2.58 2.3-4.31.64-4.01.23-7.82 1.73-11.74 3.65-9.52 12.53-16.91 21.04-21.97 20.9-12.42 46.62-10.37 68.74-2.34 21.07 7.65 43.79 24.96 42.95 49.6-.13 3.5 5.28 4.25 6.12.83.6-2.5 13.03-5.77 15.95-6.75a230 230 0 0 1 19.68-5.8c23.69-5.61 49.3-3.97 72.65 2.52 22.92 6.36 43.06 19.1 52.17 41.9 1.58 3.97 2.35 9.31 5.11 12.63 2.46 2.96 5.94 2.97 9.5 3.27 11.96 1.02 25.77 2.81 33.5 13.18 8.27 11.09.71 25.49-11.93 28.62-6.59 1.63-14.25.48-21 .57-7.77.1-15.56.28-23.34.35-2 .02-3 1.58-3 3.13-.02 1.56.98 3.13 3 3.11 8.2-.08 16.39-.28 24.58-.37 6.72-.07 13.99.87 20.6-.57 9.09-1.99 17.3-9.1 20.04-18.07 3.12-10.23-1.82-20.32-10-26.56a42 42 0 0 0-14.5-6.94 70 70 0 0 0-9.3-1.8c-3.29-.44-7.71.05-10.81-1.04-2.19-.77-3.45-2.82-4.37-5.11-.83-2.07-1.39-4.34-2.07-6.05a93 93 0 0 0-3.53-7.95 65 65 0 0 0-10.97-15.24c-8.42-8.68-19-14.9-30.23-19.21q-5.48-2.08-11.22-3.73a156 156 0 0 0-21.43-4.63c-15.76-2.3-31.95-2.3-47.17.35-10.25 1.78-20.34 4.87-30.16 8.3-2.83.98-7.92 2.3-11.97 4.41-2.26-18.43-16.28-32.96-32.2-42.05q-.86-.5-1.71-.97c-6.14-3.34-12.8-6.1-19.73-8.23-17.07-5.23-35.77-6.39-52.47-1.29-18.08 5.52-38.74 20.51-40.24 40.84-.04.54-.28 2.18-.24 3.23a3 3 0 0 1-.75-.15c-.9-.36-2.16-.6-3.04-.81a56 56 0 0 0-20.81-1.27c-1.33.17-2.63.5-3.94.76a58 58 0 0 0-21.43 9.09c-.53.36-1.09.65-1.6 1.02a60 60 0 0 0-18.24 22.14 64 64 0 0 0-5.8 36.4" style="fill:#66394d"/><path d="M529.95 211.54c.68 1.54 2.93 1.9 4.26 1.12 1.6-.94 1.8-2.72 1.12-4.27-7.07-16.1-24.77-22.37-40.3-27.24-3.83-1.2-5.47 4.82-1.65 6.02 14.07 4.41 30.15 9.74 36.57 24.37m-332.59 25.43c-7.58-5.18-8.98-16.7-3.47-23.97 1.02-1.34.21-3.48-1.12-4.26-1.6-.94-3.24-.23-4.26 1.12-7.62 10.01-4.5 25.54 5.7 32.5 1.4.94 3.46.25 4.27-1.13.9-1.54.27-3.31-1.12-4.26m101.82-87.1c.56-.57.91-1.4.91-2.2 0-.77-.34-1.69-.91-2.21a3.14 3.14 0 0 0-4.41 0l-5.03 5.03.78-1.22c.43-.66.52-1.65.32-2.4a3.2 3.2 0 0 0-1.44-1.87 3.2 3.2 0 0 0-4.27 1.12l-3.98 6.2a3.2 3.2 0 0 0-.31 2.4c.2.73.75 1.51 1.43 1.87 1.54.81 3.32.35 4.26-1.12l2.44-3.79q-.22.54-.23 1.1a3.14 3.14 0 0 0 5.32 2.2zm178.68 99.94h-11.24c-1.63 0-3.19 1.44-3.12 3.12a3.17 3.17 0 0 0 3.12 3.12h11.24c1.64 0 3.2-1.44 3.12-3.12a3.17 3.17 0 0 0-3.12-3.12m-13.1-2.86h.02l.82-.07c1.63-.12 3.2-1.35 3.12-3.12-.07-1.58-1.38-3.25-3.12-3.12a25.4 25.4 0 0 0-14.53 5.93c-1.25 1.05-1.16 3.34 0 4.4 1.34 1.23 3.07 1.13 4.41 0l.5-.4.33-.23a21 21 0 0 1 2.81-1.68l.74-.35.13-.06q1.47-.56 3-.95.8-.2 1.6-.32zm-159.07 4.27-.74-.32a3 3 0 0 0-1.53 0l.2-.02c-.46.06-.9.03-1.36 0a7 7 0 0 1-1.07-.3l-.61-.32a3.2 3.2 0 0 0-2.4-.32 3.13 3.13 0 0 0-2.18 3.84q.38 1.19 1.43 1.86a11 11 0 0 0 3.25 1.3q1.04.21 2.1.23a11 11 0 0 0 2.17-.25c.74-.15 1.5-.8 1.86-1.43a3.15 3.15 0 0 0-1.12-4.27m-9.74-8.56c-4.02 0-4.02 6.23 0 6.23s4.02-6.23 0-6.23m274.27 926.66c-.04-1.53-1.03-3.02-3-3.02q-69.22.04-138.43-.53c-22.54-.18-45.16-.03-67.62-2.18a231 231 0 0 1-34.06-5.67c-8.42-2.1-16.15-4.32-21.46-11.65-9.2-12.72-9.22-31.62-4.72-46.06a2.7 2.7 0 0 0-1.03-3.18c-1.57-1.12-4.23-.9-4.98 1.52-4.23 13.57-4.35 29.43 1.02 42.71 2.4 5.93 5.96 11.33 11.05 15.26 7.38 5.72 17.54 7.39 26.44 9.23l1.86.34c7.1 1.4 14.25 2.45 21.44 3.24 16.2 1.77 32.54 2.26 48.82 2.46 24.23.3 48.45.42 72.67.54l2.48.02c6.32.03 12.64.01 18.95.04 22.52.08 45.04.16 67.57.14 2.05 0 3.03-1.62 3-3.21" style="fill:#66394d"/><path d="M323.5 1136.74c-7.57-5.17-8.98-16.7-3.46-23.95 1.02-1.35.21-3.5-1.12-4.27-1.6-.95-3.24-.23-4.27 1.11-7.6 10.02-4.48 25.54 5.7 32.49 1.4.96 3.46.27 4.27-1.11.9-1.55.28-3.32-1.12-4.27m101.82-87.09c.57-.57.91-1.4.91-2.21 0-.76-.34-1.68-.91-2.2a3 3 0 0 0-2.2-.92 3.3 3.3 0 0 0-2.21.91l-5.02 5.03.77-1.2c.43-.68.52-1.67.32-2.42a3.2 3.2 0 0 0-1.43-1.86 3.2 3.2 0 0 0-4.27 1.12l-3.99 6.2a3.2 3.2 0 0 0-.31 2.4c.2.73.76 1.5 1.43 1.86a3.2 3.2 0 0 0 4.27-1.11l2.43-3.79q-.2.54-.22 1.1c0 .76.34 1.67.91 2.2a3.14 3.14 0 0 0 4.41 0zm6.52 101.35-.75-.32a3 3 0 0 0-1.53 0l.2-.03c-.45.06-.9.03-1.35 0a7 7 0 0 1-1.07-.3l-.62-.31a3.2 3.2 0 0 0-2.4-.32c-.72.2-1.5.76-1.86 1.43a3.2 3.2 0 0 0-.32 2.4q.38 1.2 1.44 1.87c.6.39 1.25.65 1.9.92q.66.26 1.35.38 1.03.21 2.1.23 1.08-.03 2.17-.26c.73-.15 1.49-.8 1.86-1.43a3.2 3.2 0 0 0 .31-2.4 3.2 3.2 0 0 0-1.43-1.86m-9.74-8.57c-4.02 0-4.03 6.24 0 6.24 4 0 4.01-6.24 0-6.24m1649.78 499.04q-10.7.42-21.44 1.39a435 435 0 0 0-121.49 29.23 422 422 0 0 0-21.44 9.36 398 398 0 0 0-45.75 25c-24.16 15.42-47.14 34.35-66.15 56.24-12.23 14.07-22.82 29.37-31.03 45.76a178 178 0 0 0-13.4 35.64l-20.49-31.55c-6.14-9.45-12.2-18.96-18.34-28.42q-2.28-3.54-4.6-7.09c-2.03-3.09-2.73-6.44-4.55-9.7-.9-1.6-1.97-3.13-3.03-4.64q-2.33-3.26-4.76-6.4c-7.6-9.8-13.97-20.42-20.65-30.87-8.09-12.65-16.4-25.15-24.6-37.73q-3.62-5.56-7.07-11.23c-7.2-11.74-14.05-23.64-21.44-35.21q0-.03-.03-.05a283 283 0 0 0-15.01-21.44c-.75-.97-1.46-1.95-2.22-2.9-8.22-10.2-16.16-20.53-21.7-32.47-1.15-2.46-3.94-1.78-5.13.02-.56.87-.8 1.96-.26 3.13 5.16 11.13 12.41 20.9 20.04 30.44 8.65 10.83 16.77 21.57 23.65 33.64 14.22 24.94 30.22 48.6 45.7 72.76 6.68 10.42 12.84 21.48 20.4 31.3 2.69 3.52 5.5 6.94 8.02 10.57 2.35 3.41 3.4 6.5 4.87 10.19 2.2 5.51 6.99 10.9 10.2 15.9l11.49 17.75 21.86 33.6c58.08 89.19 116.19 179.15 158.44 277.18l.2.46h6.68a998 998 0 0 0-11.02-25.02 1197 1197 0 0 0-37.06-73.56c-26.33-48.24-55.42-94.9-85.18-141.07-6.52-10.13-13.11-20.2-19.67-30.3 11.69-53.88 50.7-98.96 96-130.83 64.34-45.28 145.45-70.36 223.83-73a321 321 0 0 1 45.56 1.72v-6.4a313 313 0 0 0-29.8-1.74c-6.52-.07-13.07.08-19.63.34M996.93 2086.43c10.19-.87 23.45.23 32.75-4.95 8.71-4.86 11.44-14.98 14.48-23.76 8.96-25.9 18.59-51.75 32.65-75.38 11.98-20.12 26.98-38.3 44.02-54.34 28.18-26.56 61.39-46.63 96.78-61.82 9.93 13.07 22.02 25.35 37.9 30.16 3.88 1.17 8.63 2.43 12.5.9 3.73-1.46 7.12-3.88 10.16-6.46 7.1-6.05 12.5-14.13 16.57-22.45a128 128 0 0 0 5.29-12.64c10.36 8.43 20.07 17.53 28.57 27.9 7.79 9.46 14.6 19.68 20.96 30.15 1.03 1.7 2.89 1.79 4.24 1h.02c1.34-.8 2.16-2.43 1.12-4.14-11.45-18.87-24.62-37.16-41.44-51.64a298 298 0 0 0-11.43-9.27c4.78-15.1 7.44-31.07 9.38-46.47 3.2-25.27 3.82-50.76 5.5-76.15 1.71-26 5.23-51.83 8.28-77.7l.61-5.16c10.95 16.74 23.28 32.42 38.82 45.53 12.94 10.92 27 20.36 41.28 29.42q6.15 3.9 12.34 7.75c3.42 2.13 6.55-3.26 3.15-5.38-34.02-21.21-66.37-43.1-88.4-77.44-23.08-35.98-43.31-74.06-64.73-111.06l-37.73-65.2c-1.97-3.41-7.14-.47-5.46 2.93.04.07.03.14.08.2l68.04 117.6c9.1 15.73 17.77 31.9 27.35 47.39q-1.63 13.6-3.24 27.22l-2.94 24.75c-2.93 24.88-3.73 50.15-5.34 75.3-1.3 20.14-3.13 40.2-7.03 59.93q-.94 4.8-2.05 9.55c-4.47 19.06-10.65 40.5-26.22 53.66-4.9 4.14-9.3 6-15.68 4.22-5.06-1.41-9.75-3.87-14.1-6.8-8.95-6.04-16.12-14.18-22.53-22.79-15.88-21.3-27.28-45.05-37.7-69.33q-1.18-2.71-2.33-5.44c.3-.13.62-.21.93-.34 16.77-7 35.91-21.59 33.24-42.08-1.03-7.9-4.56-14.8-9.54-20.69-9.1-10.76-23.11-18.1-35.97-21.66a2.8 2.8 0 0 0-2.61.5q-.9-.09-1.8-.12c-1.9-.03-3.78.15-5.72.28q-1.11.1-2.23.08l-.94-.06h-.23c-.03-.01-.06-.03-.19-.06l-1.22-.31-.24-.1-1.06-.64-.23-.2-.48-.48-.25-.28c0-.02-.24-.34-.31-.44l-.58-1.08-.15-.34-.23-.78-.16-.78v-.08c-.01-.46.05-1 0-1.44l1.28-.8c.47-.32.97-.57 1.43-.9.24-.16.37-.37.54-.56a144 144 0 0 1 10.93-5.1c5.96-2.49 11.73-5.2 16.98-8.9l7.99 7.27a3.2 3.2 0 0 0 4.4 0c1.15-1.15 1.26-3.27 0-4.41l-7.46-6.79a59 59 0 0 0 4-3.93 56 56 0 0 0 6.25 4.34c1.4.83 3.49.37 4.27-1.12.79-1.5.39-3.38-1.12-4.26a57 57 0 0 1-5.15-3.45l-.18-.15-.12-.09a59 59 0 0 0 11.33-27.15c.8-5.86.65-11.83-.33-17.66a59.5 59.5 0 0 0-10.79-25.49c-8.52-11.48-20.8-18.75-33.79-24.14 18.4-17.47 28.32-43.99 16.41-68.1-11.37-22.97-37.6-35.89-61.88-39.84-.24-.04-.44.02-.66.02h-.08l.14-.08c6.45-4.6 11.1-11 10.74-19.95a3 3 0 0 0-2.36-2.86c-1.8-.47-3.98.46-3.88 2.86.72 17.4-22.14 21.73-35.05 25.08a279 279 0 0 1-45.3 7.84 286 286 0 0 1-89.97-6.36q-.13-.02-.24 0a3 3 0 0 0-1.24-1.5c-18-10.78-34.05-25.22-41.93-45.1-3.29-8.32-5.03-17.26-4.5-26.2.69-11.28 5.45-21.51 9.82-31.75 8.53-19.96 15.38-58.65 45.08-51.18 1.87.47 3.2-.68 3.67-2.1.52-1.54.02-3.4-2.01-3.91q-4.96-1.24-9.75-1.14l-4-8.12-16.67-33.93-6.8.28q3.48 7.13 7 14.24l13.92 28.35a27 27 0 0 0-12.52 6.9q-.73.72-1.4 1.49c-7.28 7.74-11.39 18.25-15.08 28-1.95 5.15-4.17 10.3-6.36 15.47-3.66 8.6-7.23 17.26-9.41 26.14-3.85 15.7-1.02 31.92 6.17 46.23q1.52 2.96 3.24 5.75c5.66 9.3 13.06 17.24 21.43 24.1 4.25 3.48 8.75 6.67 13.41 9.63a35 35 0 0 0-4.08 4.73c-4.4 6.3-6.35 13.66-6.7 21.45-.8 17.71 6.77 37.6 13.38 52.01 6.05 13.2 12.16 27.57 23.25 37.4 8.84 7.84 19.74 11.73 31.19 13.64-1 3.96-1.56 7.95-1.73 12.1-.1 2.06 1.53 3.05 3.15 2.97 1.5-.08 3-1.06 3.08-2.98.17-4.02.87-7.85 1.93-11.68a234 234 0 0 0 139-15.53c3.65-1.62.48-7-3.16-5.38a226.7 226.7 0 0 1-136.9 14.34q-2.15-.43-4.31-.89a3 3 0 0 0-2.5.48c-8.76-1.73-17.2-4.74-24.22-10.52-9.82-8.09-15.13-19.84-20.54-31.05-6.67-13.83-12.8-28.34-14.67-43.7-1.48-12.06-.43-25.3 9-33.76q.5.51 1.35.73a293 293 0 0 0 102.99 5.34c16.8-2.15 33.6-5.62 49.73-10.88a61 61 0 0 0 11.9-5.24c-.5.97-.6 2.12-.11 2.99.34.61.96 1.09 1.91 1.24 21.82 3.55 45.13 14.23 56.6 34.1 13.65 23.64 1.88 50.43-17.5 66.65-.4.34-.63.73-.78 1.14-.56 1.58.6 3.48 2.16 4.07 14.12 5.32 28.13 12.83 36.76 25.66 8.1 12.05 11.13 27.42 7.74 41.58a53.4 53.4 0 0 1-23.33 32.52c-6.3 3.92-13.34 6.36-20.11 9.32a93 93 0 0 0-7.57 3.8q-.9.16-1.58.86c-3.29 1.88-6.5 3.9-9.71 5.96q-1.76.74-3.55 1.38a72 72 0 0 1-47.2.93c-3.82-1.25-5.46 4.77-1.65 6.02a78.4 78.4 0 0 0 53.5-1.95q.61-.08 1.26-.49.32-.18.63-.4.97-.44 1.91-.89c1.06-.5 2.15-.94 3.18-1.49q.27 1.23.77 2.4c.69 1.6 1.66 3.06 2.97 4.24 2.44 2.2 5.5 3.1 8.75 3.12 1.6 0 3.2-.2 4.8-.33q1.12-.1 2.25-.11l1.27.03.63.06.12.04c.8.15 1.66.04 2.37-.33 18.94 5.61 46.95 23.66 38.89 47.09-7.42 21.55-36.7 30.63-57.07 31.92-20.6 1.3-45.67-3.56-60.04-19.56-13.08-14.58-18.12-35.36-21-54.23-.55-3.56.03-9.84-2.82-12.42q-.86-.76-2.01-1.4c-2.3-1.28-5.25-2.26-7.3-3.4a216 216 0 0 1-7.9-4.62c-11.54-7.06-25.43-14.6-33.46-25.77-1.08-1.52-2.83-1.6-4.15-.98-1.52.72-2.5 2.38-1.24 4.13 6.01 8.36 14.33 13.99 22.78 19.66a332 332 0 0 0 15.78 10q6.38 3.8 13.06 7.1c1.55 13.15 3.89 26.47 8.37 38.99 1.7 4.71 3.67 9.32 6.04 13.75a66 66 0 0 0 2.83 4.64 60.5 60.5 0 0 0 24.22 21.44 81 81 0 0 0 15.88 5.95 98.6 98.6 0 0 0 55.27-1.72c5.39 12.8 10.98 25.48 17.25 37.8a276 276 0 0 0 18.68 31.66q1.13 1.62 2.3 3.24a399 399 0 0 0-20.98 9.74 333 333 0 0 0-50.66 31.15c-1.57 1.18-3.03 2.46-4.57 3.67a283 283 0 0 0-24.48 21.44 271 271 0 0 0-41.77 53.2 280 280 0 0 0-18.28 35.94c-1.11 2.65-2.1 5.36-3.16 8.03a674 674 0 0 0-9.1 24.31c-.89 2.52-1.82 5-2.69 7.52-1.54 4.47-2.93 9.7-5.52 13.93a16.6 16.6 0 0 1-6.1 6.1c-6.67 3.68-15.78 3-23.17 3.58-27.99 2.2-56.3 5.23-83.07 14.17-17.72 5.91-35.57 15.17-50.54 27.48h10.36a148 148 0 0 1 35.78-19.34c25.93-9.66 53.6-13.24 81.04-15.55" style="fill:#66394d"/><path d="M1296.12 1928.5c-62.54 19.6-134.35 44.37-162.74 109.44-1.59 3.64 3.78 6.82 5.39 3.14 27.74-63.6 97.9-87.4 159-106.57 3.83-1.2 2.2-7.22-1.65-6.01m622.52-158.62a262 262 0 0 0-28.34 37.89c-2.1 3.43 3.29 6.56 5.39 3.15 8-13.01 17.14-25.26 27.36-36.63 2.67-2.98-1.73-7.4-4.4-4.41m18.05-4.8a311 311 0 0 0-19.5 41.66c-1.43 3.76 4.6 5.38 6.02 1.66a301 301 0 0 1 18.86-40.18c1.97-3.5-3.42-6.65-5.39-3.14m-387.95-226.62q-14.33-20.08-28.65-40.2l-15.27-21.43-4.65-6.49a6436 6436 0 0 0-21.44-29.79q-10.33-14.26-20.78-28.44a777 777 0 0 0-45.91-56.77 585 585 0 0 0-34.1-35.01 431 431 0 0 0-14.97-13.35l-.9 7.5c63.56 55.62 109.98 127.74 158.87 195.84l22.41 31.29c1.15 1.6 3.06 1.64 4.41.88 1.37-.78 2.16-2.38.98-4.03m-139.88 486.02c-.81-1.82-2.54-1.95-3.89-1.17-1.35.8-2.3 2.5-1.5 4.32 13.58 30.56 25.11 61.93 35.5 93.7h6.61a1089 1089 0 0 0-20.9-58.9 886 886 0 0 0-15.82-37.95m-76.87-183.94c-.75-1.46-2.92-2-4.27-1.12a3.2 3.2 0 0 0-1.12 4.27l7.52 14.76c.75 1.46 2.91 2 4.27 1.12a3.2 3.2 0 0 0 1.12-4.27zm16.77 10.62-.43-.5-.2-.3a19 19 0 0 1-1.74-2.97l-.15-.32-.23-.62a19 19 0 0 1-.86-3.22l-.06-.34-.07-.84c-.1-1.62-1.35-3.2-3.12-3.12-1.6.07-3.24 1.37-3.11 3.12a22.7 22.7 0 0 0 6.74 14.77c1.17 1.14 3.26 1.25 4.4 0 1.14-1.23 1.25-3.2 0-4.4zm342.02-28.17a65 65 0 0 1-3.36-3.9l-.23-.3-.05-.06-.42-.57c-.51-.67-1.02-1.2-1.87-1.43a3.13 3.13 0 0 0-3.83 2.18c-.18.76-.18 1.75.32 2.4a71 71 0 0 0 9.98 10.9c1.23 1.08 3.22 1.3 4.41 0 1.08-1.18 1.31-3.26 0-4.4a68 68 0 0 1-4.95-4.82m4.51-9.7c-.89-1.37-2.8-2.06-4.27-1.13-1.36.89-2.07 2.81-1.12 4.27l7.29 11.2c.88 1.37 2.8 2.06 4.27 1.12 1.36-.88 2.06-2.8 1.11-4.26zm-446.18 57.51 17.96-19.44c1.1-1.2 1.27-3.24 0-4.41-1.2-1.1-3.23-1.28-4.41 0l-17.96 19.44c-1.1 1.2-1.27 3.24 0 4.41 1.2 1.1 3.23 1.28 4.41 0m12.47-4.13c-1.24 1.06-1.17 3.33 0 4.4 1.33 1.23 3.08 1.15 4.41 0a60 60 0 0 0 15.51-20.4c.7-1.48.47-3.43-1.12-4.27-1.37-.73-3.52-.46-4.26 1.12a59 59 0 0 1-6.34 10.58l-.11.15-.51.64-.95 1.15q-1 1.2-2.09 2.33a58 58 0 0 1-4.54 4.3m-230.31-567.69c-.7-1.53-2.92-1.91-4.27-1.12-1.57.91-1.83 2.72-1.12 4.26l10.85 23.64c.7 1.53 2.92 1.91 4.27 1.12 1.57-.92 1.82-2.73 1.12-4.27zm24.32 15.47-.83-.97-.35-.43-.04-.04a34 34 0 0 1-3.7-6.31l-.01-.04-.21-.52-.43-1.2a32 32 0 0 1-1.25-4.77c-.29-1.6-2.33-2.66-3.83-2.17-1.73.56-2.5 2.1-2.18 3.84a35 35 0 0 0 10.08 18.74c1.18 1.14 3.26 1.26 4.4 0 1.14-1.22 1.26-3.2 0-4.4a33 33 0 0 1-1.65-1.73m218.48-2.92-.25-.3-.47-.66a22 22 0 0 1-1.75-3.03l-.21-.45-.04-.08-.04-.1-.17-.46a21 21 0 0 1-.97-3.46c-.32-1.6-2.32-2.67-3.84-2.18-1.71.55-2.52 2.12-2.18 3.84a25 25 0 0 0 7.96 13.79c1.22 1.06 3.21 1.3 4.4 0 1.09-1.18 1.32-3.26 0-4.4q-1.31-1.17-2.44-2.5m70.83-91.49c-1.6-.85-3.26-.31-4.27 1.12l-9.58 13.54c-.95 1.34-.28 3.53 1.12 4.27 1.6.84 3.26.3 4.27-1.12l9.58-13.54c.94-1.34.28-3.53-1.12-4.27m14.63 5.99c-1.6-.85-3.26-.3-4.27 1.12l-8.21 11.6c-.94 1.35-.28 3.53 1.12 4.28 1.6.84 3.25.3 4.27-1.12l8.2-11.61c.95-1.34.29-3.53-1.1-4.27m-86.11 474.26c4 0 4.01-6.23 0-6.23s-4.03 6.24 0 6.24m-481.35-446.44c.37-1.5-.15-3.3-1.95-4.03-12.34-4.98-24.16-11.17-36.6-15.9-11.69-4.45-23.6-6.48-35.94-8.08-13.6-1.75-26.79-4.06-38.73-11.16-9.37-5.57-17.38-13.14-24.41-21.41-7.7-9.03-14.24-18.97-20.47-29.04-1.9-3.05-3.56-7.83-6.8-9.53-1.8-.95-5.04-.62-7.05-1.02a64 64 0 0 1-6.83-1.75c-18.33-5.75-33.44-19.59-42.8-36.14a82 82 0 0 1-6.36-14.35c-5.22-15.62-5.55-32.6.55-48.3.5-1.3-.35-2.84-1.44-3.52-29.56-18.59-49.45-49.7-56.52-83.68-3.6-17.27-3.8-35.39-.08-52.67 3.56-16.57 15.54-32.66 9.6-49.86-6.52-18.9-22.37-33.24-26.07-53.35-.34-1.9-1.93-2.48-3.4-2.14-1.55.35-2.98 1.76-2.6 3.8 2.28 12.45 8.98 22.8 15.47 33.3 3.14 5.08 6.24 10.18 8.76 15.58 1.7 3.64 3.23 7.7 3.54 11.75.49 6.22-2.15 12.05-4.46 17.66a137 137 0 0 0-7.68 25.8 136 136 0 0 0-.16 45.98 142 142 0 0 0 19.86 52.46 131 131 0 0 0 38.43 39.3l-.56 1.62-.19.02c-10.25 1.79-20.34 4.88-30.15 8.3-2.82.98-7.87 2.29-11.9 4.38a45 45 0 0 0-7.28-19.85 57 57 0 0 0-8.2-9.89c-6.1-5.89-13.49-10.79-21.44-14.67a115 115 0 0 0-36.85-10.72c-19.15-2.11-38.22 1.98-53.7 13.67-6.23 4.7-12.04 10.43-15.6 17.45a31 31 0 0 0-1.7 4.16 30 30 0 0 0-1.43 5.84c-.2 1.57-.5 3.32-.35 4.9.02.18.01.45.01.7-18.08-6.3-38.57-1.7-53.34 10a57 57 0 0 0-4.74 4.14c-1.51 1.5-.97 3.41.29 4.49 1.11.96 2.78 1.25 4.12-.08a51.7 51.7 0 0 1 23.82-13.53c10.02-2.52 18.65-.82 28.48 1.1 3.36.64 6.22.19 7.3-3.4.64-2.1.26-4.59.48-6.76a26 26 0 0 1 4.1-11.33c20.99-32.98 69.5-30.16 99.7-13.38 16.28 9.04 31.03 24.04 30.35 43.84-.12 3.5 5.29 4.25 6.12.83.62-2.5 13.03-5.77 15.96-6.75a229 229 0 0 1 19.68-5.79c1.53-.36 3.09-.62 4.64-.92-6.44 29.36 6.14 60.78 28.64 80.22q-3.77 1.5-6.98 4.18c-1.26 1.06-1.17 3.34 0 4.4 1.33 1.24 3.07 1.13 4.4 0l.64-.5-.14.1.34-.23a20 20 0 0 1 2.8-1.68l.75-.35.1-.05q1.49-.57 3.02-.96l1.05-.21q1.98 1.42 4.05 2.72h-1.46c-1.64 0-3.2 1.44-3.12 3.12a3.17 3.17 0 0 0 3.12 3.12H604q.73-.02 1.4-.4a72 72 0 0 0 19.03 5.16q2.56 4.25 5.23 8.56a287 287 0 0 0 12.91 19.25l1.94 2.57c6.05 7.9 12.7 15.25 20.27 21.44a83 83 0 0 0 19.48 12.06c16.82 7.31 35.3 6.65 52.87 10.85 9.33 2.23 18.19 5.81 26.93 9.71 7.16 3.19 14.24 6.55 21.44 9.58q1.48.64 2.96 1.24c1.9.78 3.23-.42 3.61-1.97M449.15 684.7c5.63 4.94 14.12 9.51 14.98 17.73.19 1.78 1.57 2.72 2.98 2.9 1.71.22 3.49-.7 3.26-2.9-1.69-16.14-21.46-19.14-24.84-33.97-1.13-4.96-.02-10.23 1.47-14.99 1.73-5.5 5.47-10.47 7.04-15.9 1.1-3.82-2.48-7.75-4.34-10.89-3.58-6-6.3-11.21-7.7-18.2-1.15-5.75-1.71-11.75-.82-17.57.7-4.55 2.04-8.98 2.47-13.57.76-8.13-2.2-13.34-7.09-19.47-6.71-8.44-10.83-20.07-7.07-30.72 1.87-5.3 5.35-11.83 1.51-17.18-1.21-1.7-3.1-2.54-4.83-3.62a38 38 0 0 1-11.22-10.57 42 42 0 0 1-7.44-24.92c.26-10.07 6.2-17.86 7.82-27.46 1.43-8.52 3.87-17.59 2.75-26.24-1.42-11.05-3.42-22.02-2.68-33.2a60 60 0 0 1 3.6-17.06c1.67-4.45 3.9-8.6 4.46-13.38.53-4.58-.77-9.15-.09-13.7.67-4.5 2.86-8.68 5.5-12.33 5.35-7.39 13.43-13.87 22.16-16.7 3.3-1.06 6.7-1.57 9.9-3 4.37-1.95 8.24-4.8 12.46-7.03 10.97-5.8 22.34-5.56 34.24-3.71 4.89.76 10.36.33 14.9 2.3 3.22 1.4 6.13 3.21 9.76 3.06 3.99-.17 7.5-2.26 11.08-3.79 4.63-1.97 9.41-3.15 14.48-2.75 10.72.86 20.76 6.6 29.5 12.46 4.03 2.69 7.84 6.26 12.17 8.41 4.22 2.1 8.65 1.21 13.16.95 9.92-.56 19.89.82 29.26 4.12a69 69 0 0 1 24.76 15.04c2.74 2.62 5.06 6.19 8.3 8.21 3.5 2.2 7.34 1.63 11.23 1.3 21.02-1.8 39.9 6.72 53.22 22.82 5.77 6.96 11.39 13.1 19.78 16.86 3.37 1.51 8.21 4.12 11.9 4.2 1.64.03 3.4-.73 5.11-1.66 1.69-.91 3.33-1.98 4.79-2.63a101 101 0 0 1 29-7.64c11.11-1.26 22.26-.28 33.38-1.09 20.1-1.46 37.05-12.33 55.5-19.24 21.18-7.94 44.13-7.46 66.41-8.48 9.24-.43 18.46-.75 27.3-3.65 7.8-2.56 15.16-6.32 22.42-10.13 14.63-7.67 31.43-17.84 48.62-13.52 9.32 2.34 17.04 8.64 26.37 11.07 2.09.54 3.49-.94 3.78-2.58.26-1.42-.31-2.97-2.12-3.43-7.23-1.89-13.5-6.1-20.32-9a40 40 0 0 0-6.89-2.29 43 43 0 0 0-14.55-.58c-2.57.3-5.14.73-7.65 1.4-12.94 3.46-24.33 10.62-36.23 16.6-3.87 1.95-7.8 3.78-11.85 5.3-20.09 7.57-43.5 4.4-64.57 6.43-10.71 1.03-21.27 2.78-31.41 6.48q-4.08 1.52-8.05 3.23c-6.13 2.62-12.15 5.5-18.26 8.15-11.16 4.83-22.12 7.99-34.36 8.26-10.54.23-20.99-.16-31.46 1.33a108 108 0 0 0-26.56 7.3c-3.9 1.65-6.98 4.24-11.15 3.05a46 46 0 0 1-4.3-1.48 39 39 0 0 1-11.87-7.27c-6.56-6-11.3-13.57-18.1-19.34-.39-.33-.72-.72-1.12-1.04a65 65 0 0 0-24.06-11.8A70 70 0 0 0 696.3 340c-4.9-.32-9.93.94-14.73.52-4.06-.34-6.93-4.03-9.7-7.13-.73-.8-1.44-1.59-2.18-2.25a75 75 0 0 0-11.38-8.46 78 78 0 0 0-15.74-7.16 79 79 0 0 0-10.3-2.75c-3.67-.7-7.4-1.1-11.13-1.3-.5-.02-.98-.09-1.48-.1-5.36-.19-11.61 1.52-16.63-.25-4.86-1.71-9.12-5.92-13.42-8.76a95 95 0 0 0-14.78-8.17c-7.9-3.4-16.6-5.69-25.2-4.08-4.15.78-7.85 2.48-11.67 4.15-2.86 1.25-5.47 2.27-8.57 1.44-2.07-.55-4.02-2-6.04-2.75-4.5-1.67-9.37-1.2-14.07-1.92-3.22-.48-6.42-1.02-9.64-1.36a47 47 0 0 0-6.4-.31 53 53 0 0 0-15.03 2.78q-5.9 1.94-11.33 5.16c-4.51 2.7-8.73 5.23-13.87 6.53a47 47 0 0 0-10.38 3.82c-10.18 5.3-20.01 14.6-23.91 25.74a30 30 0 0 0-1.75 11.19c.14 3.73.2 6.94-.38 10.25a25 25 0 0 1-1.34 4.91c-2.15 5.48-4.26 10.75-5.23 16.6-1.75 10.47-.92 21.06.46 31.51.69 5.15 1.92 10.35 1.62 15.56-.3 5.4-1.67 10.7-2.5 16.03-1.42 9.12-6.57 16.84-7.85 26.04-.5 3.6-.51 7.24-.19 10.84a48 48 0 0 0 7.36 21.44c2.7 4.2 5.99 8.02 10 11.13 2.1 1.64 6.18 3.09 7.31 5.49 1.56 3.29-2.06 8.85-3.03 11.86-2.65 8.23-1.2 17.98 2.25 25.77 3.64 8.17 12.33 13.69 12.1 23.23-.14 5.6-2.09 11.04-2.76 16.58-.57 4.69-.21 9.45.47 14.12a58 58 0 0 0 3.52 13.3c.93 2.32 1.96 4.6 3.27 6.81l4.43 7.44c.48.83 1.39 1.86 1.6 2.8.2.96-.07.64 0 .39.24-.97-1.7 2.15-1.85 2.48l-.73 1.53c-7.2 15.3-10.47 31.64 3.64 44.02" style="fill:#66394d"/><path d="M1210.51 256.34c5.42-1.28 8.93-3.06 11.33-8.24 2.5-5.4 4.8-10.62 8.27-15.51a73 73 0 0 1 27.34-22.97c5.57-2.74 11.3-4.22 17.2-6 5.37-1.62 7.9-4.9 10.99-9.37 7.63-11.06 16.81-23.87 29.93-28.8 10.27-3.86 21.85 2.53 30.47-5.44 1.89-1.74 3.49-3.77 5.8-4.99 2.8-1.48 5.93-2.42 8.76-3.92 6.58-3.47 12.8-6.92 20.24-8.26 7.45-1.33 14.35-.26 21.68 1.16 6.22 1.2 11.75.56 17.98.59 10.74.04 22.6 4.67 30.31 12.2 4.32 4.2 5.58 8.66 7.35 14.28 1.88 6 5.35 9.99 9.42 14.67 9.63 11.08 13.75 24.76 16.72 38.88 1.12 5.32 1.77 10.75 3.94 15.77 2.6 6 6.12 11.77 9.31 17.47 2.8 4.99 7.21 8.47 10.7 12.94a41 41 0 0 1 8.05 18.52c2.14 13.16-2.55 23.18-9.88 33.59-5.87 8.32 3.92 14.87 7.7 21.3 3.75 6.32 4.82 15.11 3.37 22.26-1.14 5.69-4.42 10.96-4.52 16.85-.05 3.21.87 6.28 2.14 9.2q1.06 2.42 2.31 4.68c3.95 7.04 7.6 13.06 9.28 21.13 1.24 5.94 1.79 11.96.65 17.93-.79 4.14-1.9 8.28-2.44 12.46-.58 4.58 1.8 5.75 5.05 8.96 5.54 5.48 11.48 11.88 13.54 19.6 3.7 13.82-10.48 22.71-12.12 35.56-.8 6.33 1.98 11.3 5.59 16.25 5.78 7.95 8 15.13 4.15 24.6-.3.77-.12 1.52.26 2.19.3.52.72 1 1.18 1.34l.1.08c10.74 8.19 17.5 18.98 23.82 30.82a140 140 0 0 1 8.37 18.62c2.33 6.46 4.1 13.11 5.07 19.91a68.6 68.6 0 0 1-4.06 35.14c-3.07 8-7.23 16.01-7.21 24.8.03 10.29 5.88 18.27 12.27 25.8a121 121 0 0 1 17.5 27.42c9.28 20.04 13.06 42.53 11.67 64.53-1.6 25.28-10.43 50.07-26.2 70-1.11 1.4-1.2 3 0 4.41 17.68 20.52 20.23 50.1 11.19 75-4.54 12.5-12.2 23.99-22.53 32.45a63 63 0 0 1-7.87 5.45c-2.33 1.38-5.83 2.25-7.27 4.62-1.59 2.61-1.65 7.57-2.31 10.58a355 355 0 0 1-3.1 13.07c-4.08 15.78-9.56 31.54-19.18 44.85-11.1 15.35-27.32 22.74-43.6 31.27-16.23 8.51-29.04 20.48-42.13 33.07-13.16 12.67-27.3 23.77-43.19 32.86-17.82 10.2-36.89 18-56.34 24.5-19.27 6.46-39.06 10.84-58.48 16.74-1.9.58-2.46 2.36-2.05 3.86.4 1.51 1.77 2.74 3.7 2.15q7.48-2.23 15-4.27c13.2-3.6 26.48-6.9 39.5-11.15q14.79-4.79 29.2-10.7-2.49 21.3-5.02 42.6l-.1.83c-.23 1.99 1.21 2.98 2.77 2.97s3.24-1 3.47-2.97l1.66-14.12 2.53-21.44 1.25-10.66a283 283 0 0 0 16.08-7.55c16.83-8.63 32.65-19.2 46.67-31.93 11.63-10.57 22.32-21.92 34.99-31.01 3.46-2.48 7.03-4.83 10.86-6.9 3.5-1.92 7.05-3.74 10.58-5.58 12.55-6.53 24.8-13.2 34.17-24.43q1.36-1.7 2.65-3.43a105 105 0 0 0 12.2-21.44c2.67-6.2 4.9-12.6 6.79-19.06a351 351 0 0 0 6.33-26.06c.86-4.07 2.7-4.17 6.16-6.26a72 72 0 0 0 7.92-5.59c10.35-8.35 18.13-19.56 23.2-31.8a90 90 0 0 0 6.77-32.73 84 84 0 0 0-2.4-21.43 74 74 0 0 0-13.98-28.65c19.97-26.46 28.84-60.04 26.16-92.85a140 140 0 0 0-3.5-21.43c-.95-3.95-2.02-7.87-3.32-11.72q-2.41-7.07-5.59-13.84l17.92.09q10.73.02 21.44 0c16.02-.01 32.03-.07 48 0q36.75.12 73.49.1l14.24.03c2.03 0 3.03-1.6 3.01-3.16-.02-1.55-1.01-3.08-3-3.08q-72.3.06-144.57-.43c-11.2-.07-22.46-.01-33.76.02a123 123 0 0 0-5.67-9.64c-6.34-9.6-17.36-18.23-19.58-29.9-1.9-10 3.84-19.65 7.19-28.7a72 72 0 0 0 3.83-34.45c-1.87-14.99-7.33-29.28-14.4-42.54a195 195 0 0 0-12.27-19.85 44 44 0 0 0-6.59-7.35c31.24-25.02 80.55-20.04 114.1-1.18 20.71 11.65 39.6 31.04 38.62 56.34-.14 3.46 5.4 4.3 6.12.82.3-1.47 5.2-3.19 6.46-3.75 4.5-2.04 9.2-3.66 13.88-5.24a304 304 0 0 1 24.52-7.32c30.53-7.47 63.55-5.47 93.71 2.83 29 7.98 55.11 23.98 66.92 52.76 2.2 5.37 3.2 12.44 6.83 17.04 3.86 4.9 11.92 3.86 17.4 4.43 14.9 1.56 32.54 5.93 39.95 20.52 7.4 14.54-4.12 30.82-18.88 34.07-8.63 1.9-18.54.46-27.36.58-9.54.13-19.08.35-28.62.44-2 .02-3.01 1.58-3.01 3.13 0 1.57.99 3.12 3 3.1h.86q10.73-.14 21.44-.34l6.33-.1c8.93-.11 18.55 1.07 27.36-.47 11.98-2.1 22.8-11.2 26.35-22.92 3.88-12.85-2.7-25.42-13-33.06-6.14-4.56-13.32-7.4-20.74-9.08-3.8-.86-7.66-1.42-11.52-1.87-4.94-.57-11.08.2-14.78-3.6-.4-.42-.8-.84-1.14-1.37-2.13-3.33-2.95-8.45-4.46-12.16a104 104 0 0 0-4.87-10.5 80 80 0 0 0-14.63-19.13c-.93-.9-1.96-1.64-2.9-2.49-10.17-9.03-22.15-15.77-34.87-20.5a199 199 0 0 0-80.06-11.82c-6.66.4-13.27 1.04-19.74 2.16l-1.7.34c-12 2.22-23.78 5.8-35.32 9.75-5.44 1.86-10.96 3.8-16.1 6.38l-1.36.69c-2.62-34.43-35.94-56.49-68.71-66.18a145 145 0 0 0-25.73-5.16c-23.8-2.4-47.4 2.82-66.64 17.28-.76.57-1.48 1.22-2.22 1.81l-.73-.56c1.81-5.25 2.47-10.8.93-16.26-1.9-6.75-7.64-11.1-10.2-17.42-3.09-7.55 1.92-14.8 6.33-22 2.35-3.83 4.52-7.64 5.22-11.48.62-3.44.34-6.76-.46-9.96-1.9-7.6-7.06-14.44-12.34-20.1a119 119 0 0 0-3.63-3.66c-.43-.43-3.08-2.47-2.77-1.79-.32-.7.68-3.68.81-4.35.74-3.8 1.63-7.57 2.23-11.39 1.9-12.03-1.94-25.61-8.04-35.9-3.45-5.82-7.84-11.73-6.16-18.86 1.53-6.5 4.45-12.19 4.6-19 .04-2.15-.14-4.3-.44-6.44a42 42 0 0 0-3.14-11.27c-1.65-3.7-5.5-6.75-7.82-10.17a11 11 0 0 1-1.53-3.05c-1.34-4.52 5.4-10.5 7.35-14.7a47.2 47.2 0 0 0-5.3-48.31c-3.55-4.67-8.14-8.17-10.87-13.42a118 118 0 0 0-2.38-4.25c-2.84-4.89-5.89-9.78-7.48-15.15-3.7-12.53-4.73-25.3-10.28-37.36a69 69 0 0 0-10.42-15.82c-2.73-3.1-5.63-5.92-7.17-9.88-1.26-3.21-1.67-6.67-3.05-9.86-3.9-8.94-12.61-15-21.3-18.74a55 55 0 0 0-14.34-4.06c-5.67-.77-11.08.51-16.7.05-7.01-.59-13.63-3.04-20.74-2.95-6.76.1-13.54 1.4-19.8 3.97-4 1.64-7.8 3.75-11.65 5.75a100 100 0 0 1-6.33 3.08c-5.14 2.23-8.92 8.77-14.42 9.47l-.69.05c-6.12.58-12.1-1.2-18.35.19-6.42 1.43-12.17 5.13-17.19 9.25-5.92 4.86-10.82 10.76-15.36 16.9-1.43 1.93-2.78 3.93-4.15 5.92q-1 1.48-2.07 2.94c-2.67 3.57-5.92 4.2-9.9 5.3a81.5 81.5 0 0 0-34.28 19.37 77 77 0 0 0-11.73 14.3 69 69 0 0 0-4.96 9.35c-1.05 2.38-2.06 4.28-3.5 5.73a11 11 0 0 1-5.45 2.87c-2.03.48-2.53 2.34-2.02 3.87.47 1.44 1.8 2.6 3.68 2.15m-193.69 197.44c1.59.93 3.25.23 4.26-1.12l24.45-32.64c1-1.35.22-3.49-1.12-4.27-1.6-.93-3.26-.23-4.27 1.12l-24.44 32.64c-1.01 1.35-.22 3.49 1.12 4.27m19.94-13.3a3.3 3.3 0 0 0-.92 2.2c0 .77.34 1.68.92 2.21 1.16 1.07 3.28 1.32 4.4 0l7.9-9.26c.55-.64.92-1.34.92-2.2 0-.77-.34-1.68-.92-2.2-1.16-1.08-3.28-1.34-4.4 0zm-91.17 620.65a28.3 28.3 0 0 1-21.9-3.63c-3.39-2.15-6.52 3.25-3.13 5.39a34.7 34.7 0 0 0 26.69 4.25c3.9-.96 2.24-6.98-1.66-6.01m10.29-14.31a65 65 0 0 1-14.45-3.95l-.53-.23-.98-.43c-1.48-.66-3.42-.48-4.26 1.13-.72 1.35-.47 3.55 1.11 4.26a67 67 0 0 0 17.45 5.24c1.6.24 3.43-.41 3.84-2.18.34-1.5-.45-3.58-2.18-3.84m-458.52-480.7c3.15 22.06 25.27 36.28 46.37 36.53 4.01.05 4.02-6.19 0-6.24-17.5-.2-36.24-11.37-39.94-29.5-3.45-16.9 9.68-35.87 27.4-36.16 2.75-.04 4.07-3.35 2.21-5.32-18.31-19.38-41.51-47.18-24.52-74.63 16-25.85 50.98-25.98 73.22-8.49 1.9 1.49 4.37 1 5.21-1.37 5.94-16.7 20.05-38.8 40.8-29.53 16.96 7.59 41.53 30.05 30.53 50.45-1.9 3.54 3.49 6.69 5.4 3.15 6.13-11.38 3.53-24.59-3.83-34.79-7.3-10.14-19.23-20.23-30.83-25-22.56-9.27-38.76 11.2-46.54 30.06-24.4-16.61-58.88-16.1-77.4 9.5-20.54 28.35-.6 58.45 19.39 80.55-17.59 3.99-30.05 22.7-27.47 40.8" style="fill:#66394d"/><path d="M1285.46 326.5c-14.04-20.03 1.49-46.42 20.29-56.75 10.32-5.68 23.32-7.71 34.17-2.2 10.06 5.1 17.12 15.07 16.58 26.56-.16 3.51 5.28 4.23 6.13.82 3-11.98 19.52-15.75 30.16-16.7 11.72-1.02 23.83 1.22 33.89 7.47 19.05 11.82 26.54 38.79 13.2 57.57-1.77 2.48 1.78 6.13 4.25 4.27 10.32-7.7 21.58.73 26.31 10.52 4.75 9.81 5.3 21.47 2.4 31.9-5.93 21.27-26.4 34.56-48.1 33.23-4.01-.25-4 6 0 6.23 27.14 1.66 51.73-17.61 55.53-44.73 1.76-12.5-.69-26.49-8.7-36.54-5.35-6.7-13.87-10.77-22-9.56 9-21.3-1.1-47.68-21.32-59.21-12.04-6.87-26.39-8.86-40-6.84-9.13 1.36-20.16 4.6-26.68 11.68-2.49-8.89-8.75-16.53-16.95-21.22-11.92-6.83-26.27-6-38.49-.4-23.47 10.74-42.91 43-26.05 67.05 2.3 3.26 7.7.15 5.38-3.15m-558.71 835.75-27.4-15.37a3 3 0 0 0-2.26-.29c-2.32.64-3.59 4.16-.89 5.68l6.15 3.44 21.25 11.92c3.51 1.97 6.66-3.41 3.15-5.38m12.31-10.66a46.6 46.6 0 0 1-18.7-10.92 3.17 3.17 0 0 0-4.4 0 3.15 3.15 0 0 0 0 4.41 53 53 0 0 0 21.44 12.52c1.57.48 3.47-.56 3.84-2.18a3.2 3.2 0 0 0-2.18-3.83M550.57 355.32c1.21 1.08 3.22 1.29 4.4 0 1.1-1.19 1.31-3.26 0-4.41L539.33 337c-1.22-1.09-3.23-1.3-4.41 0-1.09 1.18-1.3 3.25 0 4.4zm12.03-12.55c.76 1.44 2.89 2 4.26 1.11a3.2 3.2 0 0 0 1.12-4.26l-7.28-13.7c-.77-1.44-2.9-2-4.27-1.12a3.2 3.2 0 0 0-1.12 4.27zm922.3 523.3c1.48.86 3.4.33 4.28-1.12a172 172 0 0 0 11.37-22.62c.65-1.55-.7-3.43-2.18-3.83-1.79-.5-3.18.61-3.83 2.18a162 162 0 0 1-10.75 21.13 3.16 3.16 0 0 0 1.12 4.26m17.37-4.7c1.44.76 3.45.43 4.26-1.12l8.68-16.5c.76-1.45.42-3.46-1.12-4.27-1.44-.76-3.45-.42-4.26 1.12l-8.68 16.5c-.76 1.45-.42 3.46 1.12 4.27m-17.93-269.48.02.02c.11.15.37.45-.02-.02" style="fill:#66394d"/><path d="m1480.7 585.57-.14-.34q-.3-.75-.53-1.49c-.52-1.54-2.18-2.71-3.84-2.17-1.54.5-2.74 2.17-2.18 3.83l.17.45a35 35 0 0 0 6.87 11.77c1.07 1.23 3.32 1.2 4.4 0a3.2 3.2 0 0 0 0-4.4l-.95-1.14-.23-.29.08.1-.42-.58a32 32 0 0 1-3-5.2l-.13-.3-.07-.15zm-120.81 512.33 16.91-27.72c2.1-3.43-3.3-6.57-5.38-3.14l-16.92 27.7c-2.1 3.44 3.3 6.58 5.39 3.15m25.41-9.07c1.6.86 3.24.3 4.25-1.12a70 70 0 0 0 9.48-18.5c.52-1.56-.6-3.49-2.18-3.85a3.2 3.2 0 0 0-3.83 2.19q-.41 1.2-.86 2.39l-.47 1.19-.24.59-.05.14a68 68 0 0 1-7.23 12.71c-.95 1.32-.27 3.53 1.12 4.26m-22.75-891.5c.69.3 1.78.05 2.4-.31a3.2 3.2 0 0 0 1.43-1.87c.18-.8.14-1.69-.31-2.4a3.7 3.7 0 0 0-1.87-1.43l.04.01-.4-.18-.88-.42a35 35 0 0 1-5.12-3.1l-.35-.25-.02-.02.04.04-.76-.61a36 36 0 0 1-4.27-4.2c-1.07-1.24-3.33-1.17-4.4 0-1.22 1.33-1.15 3.09 0 4.41 3.93 4.58 8.92 8 14.47 10.33m7.69-28.31 11.07 6.39c1.41.82 3.47.38 4.26-1.12.8-1.49.39-3.39-1.11-4.26l-11.06-6.4c-1.42-.8-3.48-.37-4.27 1.13a3.17 3.17 0 0 0 1.11 4.26M579.9 752c-1.58 0-3.28 1.43-3.13 3.12l1.95 21.23c.15 1.68 1.32 3.12 3.12 3.12 1.56 0 3.27-1.43 3.11-3.12l-1.94-21.23c-.15-1.68-1.32-3.12-3.12-3.12m46.77 361.68c-17.6-3.66-30-23-25.52-40.53.99-3.89-5.03-5.55-6.02-1.66-5.26 20.65 8.92 43.84 29.88 48.2 3.92.81 5.59-5.2 1.66-6.01m354.01 122.09a687 687 0 0 0 272.49-75.48c3.56-1.85.42-7.23-3.15-5.38a679 679 0 0 1-269.34 74.63c-3.99.25-4.01 6.48 0 6.23m-141.4-382.59c-4.2 4.2-4.87 12.5 0 16.63 26.7 22.6 61.3 37.17 96.8 32.78 31.51-3.9 58.87-21.3 78.27-46.15a164 164 0 0 0 21.34-36.25c27.47 19.2 59.35 32.65 93.33 32.55 34.22-.1 66.7-15.45 89.56-40.74 13.91-15.38 23.94-33.44 30.65-53 4.92-14.34-17.77-20.5-22.67-6.25-11.7 34.13-37.93 63.93-73.59 73.41-36.54 9.73-74.67-4.27-104.73-25.63 6.2-4.16 10.96-10.42 14-17.17 1.14-2.53 2-5.32 2.6-8.2.23-.47.5-.92.7-1.4 4.74-10.48 3.58-24.62-6.76-31.3a13.6 13.6 0 0 0-9.38-2.1 22 22 0 0 0-6 .78 17.7 17.7 0 0 0-12.53 6.7 47 47 0 0 0-7 6.98q-1.1 1.41-2.06 2.91c-8.17-4.42-17.85-7.4-27.15-5.78-12.29 2.14-19.88 14.14-17.6 26.22 1.85 9.88 9.6 18.26 18.18 23.04a53 53 0 0 0 20.36 6.29c-11.19 27.94-31 53.78-59.13 65.82-34.27 14.67-73.15 3.08-100.57-20.14-4.84-4.1-11.87-4.75-16.62 0m-54.29-94.3c.35-2.11.1-4.36-.94-6.6-2.36-5.03-7.11-6.89-12-6.39-.92-6.32-7.07-12.29-13.74-10.57-15.85 4.09-31.83 9.34-44.64 19.9-4 3.3-7.92 7.79-10.9 12.8a12 12 0 0 0-3.44 6.01c-4.84 3.15-6.98 9.5-4.45 14.9.48 1.04 1.11 1.9 1.79 2.69-.69.9-1.38 1.8-1.91 2.77-3.17 5.74-2.75 12.45.91 17.22-1.35 3.9-.98 8.18 1.86 11.57a12 12 0 0 0 14 3.08 261 261 0 0 0 42-24.44q11.32-5.83 21.84-13.08c2.68-1.84 3.92-4.85 4.04-8 1.64-1.53 3.3-3.04 4.9-4.6 3.44-3.38 5.04-7.74 3.55-12.5a13 13 0 0 0-2.87-4.76m566.46-47.91c1.56-4.14.48-8.3-2.1-11.53 1.86-5.72.02-12.19-4.88-16.54-.83-.74-1.78-1.36-2.72-1.98.37-.96.67-1.98.78-3.13.59-5.92-3.55-11.2-9.16-12.56a12 12 0 0 0-5.25-4.53 50 50 0 0 0-14.54-8.42c-15.6-5.69-32.42-5.31-48.72-3.88-6.87.6-10.68 8.28-9.42 14.54-4.79 1.16-8.65 4.5-9.2 10.04-.23 2.45.28 4.64 1.32 6.51a13 13 0 0 0-1.12 5.46c.18 4.99 3.14 8.56 7.51 10.6 2.03.94 4.1 1.8 6.16 2.7 1.17 2.93 3.34 5.35 6.47 6.2a202 202 0 0 0 24.95 5.06 262 262 0 0 0 47.75 9.03 12 12 0 0 0 12.17-7.57m-87.51 600.9c-9.78-9.04-19.47-18.19-29.22-27.27-8.98-8.36-17.75-17.56-27.87-24.57-9.95-6.88-21.66-9.69-33.26-5.39-12.08 4.48-21.42 14.27-29.16 24.21-.14.19-.2.38-.3.58l-.18.32-.1.24-.05.35c-.28 1.4.25 3 1.69 3.57.88.53 1.93.55 2.84-.22q.2-.13.38-.32c.04-.05.09-.05.13-.1l.26-.33c5.9-7.56 12.8-15.3 21.35-20.01a37 37 0 0 1 4.8-2.27c10.26-3.9 19.6-.94 27.95 4.59a66 66 0 0 1 6.28 4.69c17.06 14.4 32.95 30.29 49.28 45.54l.4.39c1.5 1.38 2.97 2.8 4.46 4.17 17.9 16.44 36.17 32.5 55.51 47.22 14.66 11.16 30.74 20.4 45.93 30.8 4.95 3.4 9.81 6.9 14.5 10.66 7.1 5.67 13.48 12.2 19.8 18.78 3.24 3.38 6.48 6.77 9.76 10.07l4.63 4.69c9.26 9.32 18.5 18.65 27.43 28.3 2.73 2.95 7.13-1.47 4.4-4.41a1180 1180 0 0 0-29.56-30.47c-9.55-9.62-18.62-20.02-28.94-28.8s-21.75-16.2-33.23-23.52c-9.5-6.07-19.04-12.1-28.03-18.81-21.7-16.24-41.98-34.3-61.88-52.68m-124.7-10.72a164 164 0 0 0 5.2 62.46q2.59 9.28 6.21 18.21a166 166 0 0 0 37 55.67q3.54 3.5 7.3 6.76c1.95 1.7 4.46.45 5.2-1.35q.26-.68.12-1.4a2.7 2.7 0 0 0-.9-1.65c-39.35-34.2-59.79-86.92-53.9-138.7.22-1.9-1.1-2.87-2.59-2.94-1.6-.08-3.4.89-3.64 2.94m-67.38 58.76c26.95 8.18 47.69 33.25 50.39 61.34.19 1.92 1.75 2.9 3.26 2.96 1.61.07 3.18-.9 2.98-2.96-.44-4.55-1.34-9-2.57-13.35-7.14-25.22-26.99-46.29-52.4-54-1.97-.6-3.34.7-3.72 2.25-.36 1.48.19 3.2 2.06 3.76m-132.83-9.71a3.13 3.13 0 0 0-4.41 0c-.53.56-1 1.4-.92 2.2l.92 8.22c.09.85.28 1.58.91 2.2a3.1 3.1 0 0 0 4.4 0c.53-.56 1.01-1.39.92-2.2l-.91-8.22a3.4 3.4 0 0 0-.91-2.2m14.94 6.4-.3-.65-.16-.4q-.52-1.5-.76-3.1a17 17 0 0 1-.04-3.7c.08-.74-.4-1.7-.91-2.2a3.14 3.14 0 0 0-4.41 0 3.5 3.5 0 0 0-.91 2.2c-.48 4.36.66 8.94 3.03 12.62.89 1.37 2.8 2.05 4.27 1.11 1.37-.88 2.06-2.8 1.12-4.26a18 18 0 0 1-.93-1.62m77.84 212.91c-1.49.1-2.98.02-4.45-.15a23 23 0 0 1-4-.97l-.75-.27c-.18-.07-1.05-.44-.18-.06-.8-.35-1.52-.56-2.4-.32a3.1 3.1 0 0 0-2.18 3.83c.23.72.71 1.56 1.43 1.87a29 29 0 0 0 12.53 2.3 3.2 3.2 0 0 0 3.01-2.53c.04-.2.12-.37.11-.58-.07-1.6-1.38-3.22-3.12-3.12m-1.03-16.21q-3.64-.97-7.3-1.92a3.3 3.3 0 0 0-2.4.31 3.2 3.2 0 0 0-1.43 1.86 3.14 3.14 0 0 0 2.18 3.84l7.29 1.91c.78.22 1.7.1 2.4-.3a3.2 3.2 0 0 0 1.43-1.88 3.2 3.2 0 0 0-.31-2.4 3.2 3.2 0 0 0-1.86-1.43m136.38 103.65c1.58.36 3.44-.48 3.83-2.18l2.7-11.89c.36-1.59-.48-3.45-2.18-3.84-1.58-.36-3.45.48-3.83 2.18l-2.7 11.89c-.36 1.58.48 3.45 2.17 3.84" style="fill:#66394d"/><path d="M1187.22 1391.65a3.13 3.13 0 0 0-4.41 0c-.54.6-.95 1.37-.91 2.2.04.87.35 1.54.9 2.21l7.87 9.46a3.14 3.14 0 0 0 4.4 0c.56-.6.96-1.38.92-2.21a3.6 3.6 0 0 0-.91-2.2zm14.78-2.61-.8-.88-1.07-.56a3.13 3.13 0 0 0-3.83 2.18c-.18.77-.18 1.75.31 2.4l4.74 6.3.8.87 1.06.55c.74.21 1.74.12 2.4-.3a3.2 3.2 0 0 0 1.43-1.88c.18-.75.18-1.74-.31-2.4zM858.11 1739c8.53-6.53 12.66-16.39 15.75-26.36.62-1.97-.68-3.34-2.24-3.72-1.48-.35-3.2.2-3.77 2.07-2.83 9.1-6.52 18.28-14.65 23.9-10.1 7-24.14 9.22-35.9 11.76-28.78 6.23-58.26 8.42-87.64 9.33-59.85 1.84-119.85 1.35-179.73 1.56q-51.1.18-102.17.15c-1.99 0-2.99 1.52-3 3.06q-.01 1.07.59 1.94c.5.71 1.27 1.23 2.4 1.24q95.33.05 190.65-.62c29.27-.21 58.96.28 88.55-.62 12.4-.39 24.8-1.01 37.12-2.06q10.76-.9 21.44-2.28c12.4-1.58 24.7-3.67 36.89-6.45 12-2.73 25.7-5.26 35.71-12.9m-568.64 18.06c-21.17-.18-42.58.33-63.7-.54-16.11-.66-32.27-14.18-32.69-30.94-.48-19.31 18.62-31.46 35.18-35.8 9.72-2.53 19.63-2.98 29.57-4.03 7.31-.77 10.2-4.4 12.54-11.1 6.53-18.55 14.37-35.33 28.95-48.94 13.45-12.55 29.92-21.18 47.24-27.08 36.08-12.3 77.2-16.72 114.87-10.2 13.77 2.39 27.2 6.38 40.47 10.7 6.3 2.06 12.58 4.2 18.7 6.76 2.48 1.04 10.4 3.92 10.8 6.16.62 3.47 6.27 2.66 6.12-.82-1.16-27.28 16.65-49.54 38.2-64.23 24.31-16.55 54.85-25.67 84.19-26.11 28.36-.42 55.93 9.22 76.23 29.39 9.02 8.94 15.9 19.7 16.7 32.63.3 5.05-.72 12.56 6.19 12.92 4.78.25 10.05-2.31 14.64-3.26a78 78 0 0 1 28.77-.28 83 83 0 0 1 44.49 23.12c1.37 1.38 3.1 1.04 4.21.02 1.19-1.09 1.66-2.96.2-4.42a89 89 0 0 0-65.83-25.96 84 84 0 0 0-17.84 2.55c-1.2.3-2.4.66-3.6 1-1.12.3-2.24.59-3.37.78-2.14.36-1.07 1.09-1.38-.76-.8-4.72-.28-9.57-1.37-14.32-2.8-12.14-10.98-22.64-20-30.92-26.05-23.9-61.12-31.58-95.37-27.6q-10.85 1.26-21.44 4.04a158 158 0 0 0-47.02 20.76c-21.97 14.52-40.6 36.32-42.65 63.02-5.55-3.33-13.45-5.44-17.17-6.79q-7.26-2.63-14.65-4.97a390 390 0 0 0-18.42-5.43q-1.5-.38-3.01-.74c-39.6-9.85-82.33-7.6-121.5 3.32l-1.7.47a180 180 0 0 0-19.74 6.88c-14.03 5.86-26.97 13.57-38 23.42a106 106 0 0 0-27.32 38.21c-2.2 5.3-3.97 10.74-5.97 16.12-2.61 7-10.7 5.7-16.96 6.33-10.05 1-20.13 2.56-29.55 6.34q-1.86.76-3.69 1.64c-8.51 4.09-16.41 10.29-21.43 18.2a34.4 34.4 0 0 0-5.42 15.67c-.63 7.57 1.5 14.78 5.42 20.98a43.3 43.3 0 0 0 21.43 17.18l.42.17a42 42 0 0 0 10.4 2.1c7.16.62 14.56 0 21.61 0a32 32 0 0 1 1.74 0c13.84.1 27.67.48 41.5.6a2.8 2.8 0 0 0 1.8-.6 3.1 3.1 0 0 0 1.22-2.5c0-1.56-1-3.12-3.01-3.14" style="fill:#66394d"/><path d="M363.12 1622.98c-24.06 7.54-51.51 17.16-62.48 42.12-1.6 3.65 3.78 6.82 5.4 3.15 10.3-23.49 36.12-32.16 58.74-39.26 3.81-1.19 2.19-7.22-1.66-6m477.16 43.31c-1.33.76-2.14 2.94-1.12 4.27 9.22 12.13 6.67 31.53-6.1 40.26-3.3 2.24-.19 7.65 3.14 5.38 15.33-10.46 19.73-33.81 8.34-48.79-1.02-1.35-2.67-2.02-4.26-1.12m-163.04-100.08c-1.16-1.16-3.27-1.24-4.41 0a3.2 3.2 0 0 0 0 4.41l8.06 8.06c1.15 1.15 3.27 1.24 4.4 0a3.2 3.2 0 0 0 0-4.41zm14.91.68c-.88-1.37-2.81-2.06-4.27-1.11-1.37.88-2.06 2.8-1.12 4.26l6.29 9.77c.88 1.38 2.8 2.07 4.26 1.12 1.37-.87 2.07-2.8 1.12-4.26zm-284.69 164.43h-17.73c-1.63 0-3.2 1.44-3.12 3.12a3.17 3.17 0 0 0 3.12 3.11h17.73c1.63 0 3.2-1.42 3.11-3.12a3.17 3.17 0 0 0-3.11-3.11m1.61-14.46c-1.63-.12-3.2 1.52-3.12 3.12.08 1.8 1.37 2.98 3.12 3.12l1.28.11.14.01.64.1a35 35 0 0 1 7.3 2.03v-.02l.6.26 1.16.56a34 34 0 0 1 4.44 2.64l.67.48 1 .82c1.25 1.05 3.2 1.31 4.41 0 1.06-1.16 1.33-3.29 0-4.41a38 38 0 0 0-21.64-8.82m261.18 14.92q-.58.37-1.21.64-1.03.4-2.1.58-1.11.1-2.21 0l-.14-.02a3.4 3.4 0 0 0-2.4.31 3.14 3.14 0 0 0-1.12 4.27 3 3 0 0 0 1.86 1.43c3.58.73 7.38.17 10.47-1.83a3.3 3.3 0 0 0 1.44-1.86c.2-.75.1-1.74-.32-2.4-.88-1.37-2.8-2.07-4.27-1.12m6.39-11.74c-4 0-4.01 6.23 0 6.23s4.02-6.23 0-6.23" style="fill:#66394d"/></svg>