<svg xmlns="http://www.w3.org/2000/svg" xml:space="preserve" aria-label="sunglasses sticker" viewBox="40.79 8.96 806.26 824.23"><path d="m490.7 353.4 13 41.3c1.35 4.3 14.56 41.65 60.4 27.22a172 172 0 0 0 21.08-8.14c18.75-8.8 49.3-28.12 43.28-58.8-4.28-21.72-8.82-35.52-19.42-41.82-11-6.52-29.55-5.33-58.4 3.74a237 237 0 0 0-29.06 11.07c-27.31 12.8-30.52 23.5-30.88 25.43m198.8-78.62c-34.88 16.35-31.86 33.62-17.37 66.46 11.33 25.67 45.38 32.41 91.09 18.03a76 76 0 0 0 9.4-3.64c34.97-16.4 25.7-49.55 24.52-53.27l-12.99-41.29c-1.77-1.7-15.78-12.68-70.03 4.4-9.73 3.06-17.8 6.1-24.62 9.3m86.46 87.96a84 84 0 0 1-10.39 4.01c-49.9 15.7-87.52 7.36-100.61-22.34-4.14-9.39-7.66-18.1-9.53-26.23l-26.53 8.35c3.28 8.02 5.36 17.32 7.25 26.94 5.16 26.23-12.38 49.69-47.8 66.3-6.83 3.2-14.08 7.18-21.9 9.64-43.13 13.57-64.44-13.96-70.23-32.36l-13.39-43c-.07-1.66.3-16.71 35.42-33.18a244 244 0 0 1 30.03-11.44c31.56-9.94 51.54-10.86 64.77-3.01q1.44.86 2.76 1.85l39.82-12.53c3.43-10.36 12.54-19.62 30.54-28.06 7.15-3.36 15.52-6.53 25.6-9.7 64.63-20.34 77.91-2.95 79.22-.9l.27.44 7.42.4 4.28 17.86-4.25 5.05 5.91 19.17c6.24 19.82 2.47 48.14-28.66 62.74" style="opacity:.3;fill-rule:evenodd;clip-rule:evenodd;fill:#15130f"/><path d="M465.4 349.52a10572 10572 0 0 1 236.95-19.9c35.83-2.65 46.72 2.8 80.99 13.45 21.96 6.82 18.43 28.4-6.42 16.25-30.5-14.91-38.7-22.92-72.29-19.55-81.1 8.13-152.93 16.28-233.86 27.51-1.1-5.5-4.27-12.26-5.37-17.76" style="fill-rule:evenodd;clip-rule:evenodd;fill:#5b5b5b"/><path d="M791.2 251.25a10928 10928 0 0 0-210.53 115c-31.63 17.68-37.6 28.12-60.18 55.67-14.48 17.67 1.02 33.15 14.83 9.58 16.94-28.91 19.17-39.92 49.34-55.78 72.82-38.3 137.87-71.46 212.35-107.15-2.27-5.05-3.53-12.28-5.8-17.32" style="fill-rule:evenodd;clip-rule:evenodd;fill:#5b5b5b"/><path d="M491.29 374.83c0-.02-.58-13.63 33.16-29.45-33.73 15.81-33.17 29.43-33.16 29.45m65.78-41.66-.05.02zm-.16.05-.07.02zm-.13.04-.15.04zm-2.59.8-.05.01zm-.58.18-.06.02zm-.26.09q-.04 0-.07.02zm-28.89 11.04" style="fill-rule:evenodd;clip-rule:evenodd;fill:#ffa098"/><path d="m793.78 299.45-13.2-42s-11.11-17.48-74.74 2.54c-64.88 20.42-61.47 42.42-44.4 81.1 13.46 30.52 53.86 33.4 95.85 20.19 42-13.22 41.3-46.56 36.5-61.83m-300.93 94.7-13.21-42s-.92-20.69 62.71-40.72c64.88-20.4 74.7-.42 82.85 41.07 6.43 32.72-25.04 58.22-67.03 71.44-41.99 13.2-60.5-14.53-65.32-29.8" style="opacity:.5;fill-rule:evenodd;clip-rule:evenodd;fill:#fdf8c6"/><path d="M674.2 357.4a51 51 0 0 1-10.87-18.6l-12.14-38.6c1.68-11.75 10.09-21.58 29.53-30.7 6.92-3.25 15.23-6.4 25.12-9.51 36.47-11.47 55.68-10.63 65.44-7.82-33.21 34.28-65.4 69.51-97.07 105.23m-170.48 55.35a51 51 0 0 1-10.87-18.6l-13.21-42c0-.03-.57-13.64 33.17-29.46 7.7-3.61 17.17-7.33 28.83-11.03l.06-.02.2-.06.06-.02.4-.13.14-.04.04-.02.12-.03 2.32-.72.16-.05.05-.01.08-.03q.06 0 .1-.03l.06-.01.14-.05h.01c27.43-8.3 44.59-8.97 55.9-3.63-33.45 34.5-65.87 69.97-97.76 105.94" style="opacity:.5;fill-rule:evenodd;clip-rule:evenodd;fill:#fdf8c6"/><path d="m483.6 351.67 13 41.3c1.35 4.3 14.55 41.65 60.4 27.22a170 170 0 0 0 21.08-8.14c18.75-8.8 49.3-28.13 43.27-58.8-4.27-21.72-8.81-35.53-19.41-41.82-11-6.52-29.55-5.33-58.4 3.74a237 237 0 0 0-29.06 11.07c-27.31 12.8-30.52 23.5-30.88 25.43m276.23-105.5 31.85 2.8 6.41 20.35-6.11 11.32 5.54 17.63c6.24 19.82 2.47 48.13-28.66 62.73a84 84 0 0 1-10.4 4.02c-49.9 15.7-87.51 7.35-100.6-22.35-4.15-9.38-7.66-18.1-9.54-26.23l-26.52 8.35c3.28 8.02 5.36 17.33 7.25 26.95 5.16 26.22-12.21 50.8-47.64 67.4a178 178 0 0 1-22.06 8.53c-43.14 13.58-64.44-13.95-70.24-32.35l-4.8-15.43-13.3-8.31-5.78-22.54 24.11-17.56q.01.27-.25.87c5.13-4.12 12.24-8.61 22.06-13.22a244 244 0 0 1 30.02-11.44c31.57-9.93 51.55-10.86 64.77-3q1.44.86 2.76 1.84l39.82-12.52c3.44-10.36 12.55-19.63 30.54-28.06 7.15-3.36 15.53-6.53 25.6-9.7 25.9-8.15 43.55-10.24 55.5-9.69a3 3 0 0 1-.33-.4m-77.44 26.88c-34.87 16.35-31.86 33.61-17.36 66.46 11.33 25.67 45.38 32.4 91.09 18.02a76 76 0 0 0 9.4-3.63c34.97-16.4 25.7-49.55 24.52-53.27l-12.99-41.29c-1.78-1.7-15.78-12.68-70.03 4.4-9.74 3.05-17.8 6.1-24.62 9.3" style="fill-rule:evenodd;clip-rule:evenodd;fill:#666"/><path d="M81.03 709.64c52.63 13.8 143.63 25.03 242.02 34.47 1.23-66.4 15.01-137.16 21.11-203.49 0 0-194.32-17.22-237.82-21.39-14.86 162.83-19.59 138.1-25.31 190.4" style="opacity:.2;fill-rule:evenodd;clip-rule:evenodd;fill:#3f3426"/><path d="M70.72 701.52c52.66 15.23 148.7 24.48 247.15 36.6.7-37.9 26.54-199.4 26.54-199.4L94.88 507.98C80 670.28 76.45 649.4 70.72 701.52" style="fill-rule:evenodd;clip-rule:evenodd;fill:#fadf7d"/><path d="m357.81 411.59-37.74 10.61c-6.61 1.98-11.7.76-14.7-1.99a9 9 0 0 1-2.65-4.32 10 10 0 0 1 0-5.2c1.17-4.57 5.5-9.31 13.7-11.95h.02l51.17-15.7c4.9-1.57 8.75-.25 11.07 2.26a9.1 9.1 0 0 1 2.35 7.4c-.45 3.31-2.75 6.48-7.34 7.86l-41.57 12.82h-.01c-3.83 1.15-6.64.45-8.3-1.1a5.3 5.3 0 0 1-1.47-2.46 6 6 0 0 1-.07-2.87c.53-2.47 2.6-4.95 6.28-6.11l24.23-7.62.75 2.4-24.23 7.6c-2.72.86-4.22 2.58-4.58 4.26q-.2.88.03 1.66.2.76.79 1.31c1.04.99 3 1.39 5.83.53l41.57-12.81h.01c3.51-1.06 5.26-3.39 5.6-5.8a6.6 6.6 0 0 0-1.7-5.36c-1.72-1.86-4.66-2.81-8.5-1.58l-51.18 15.7c-7.26 2.34-11.04 6.36-12.03 10.19a7.5 7.5 0 0 0 0 3.9 6.6 6.6 0 0 0 1.93 3.14c2.4 2.2 6.63 3.13 12.3 1.43h.02l37.74-10.62z" style="opacity:.3;fill-rule:evenodd;clip-rule:evenodd;fill:#1c1b17"/><path d="m357.69 409.14-37.75 10.61c-6.6 1.98-11.7.76-14.69-1.99a9 9 0 0 1-2.65-4.31 10 10 0 0 1-.01-5.21c1.18-4.57 5.5-9.31 13.7-11.94l.02-.01 51.17-15.7c4.9-1.57 8.75-.25 11.08 2.26a9.1 9.1 0 0 1 2.34 7.4c-.45 3.31-2.75 6.48-7.34 7.86L332 410.93h-.01c-3.83 1.16-6.64.45-8.29-1.1a5.3 5.3 0 0 1-1.48-2.46 6 6 0 0 1-.07-2.87c.54-2.47 2.6-4.95 6.29-6.11l24.23-7.61.75 2.38-24.23 7.62c-2.72.85-4.22 2.57-4.59 4.25q-.18.88.03 1.66.2.76.8 1.31c1.04.99 2.99 1.39 5.83.53l41.57-12.81h.01c3.51-1.06 5.26-3.39 5.59-5.8a6.6 6.6 0 0 0-1.7-5.36c-1.72-1.86-4.66-2.81-8.5-1.58l-51.17 15.71c-7.26 2.33-11.05 6.35-12.04 10.18a7.5 7.5 0 0 0 0 3.9 7 7 0 0 0 1.94 3.15c2.39 2.2 6.63 3.13 12.3 1.42h.01l37.75-10.62z" style="fill-rule:evenodd;clip-rule:evenodd;fill:#e76a1f"/><path d="m356.75 409.77-1.18.33-.46-1.64-37.58 10.57h-.02c-5.64 1.7-9.86.78-12.24-1.41a6.7 6.7 0 0 1-1.93-3.14 7.4 7.4 0 0 1 0-3.88 11 11 0 0 1 2.93-4.93 10.5 10.5 0 0 0-1.96 3.83 7.4 7.4 0 0 0 0 3.88 6.7 6.7 0 0 0 1.93 3.14c2.38 2.2 6.6 3.11 12.23 1.42h.03l37.57-10.58zm-51.54-5.24c2.26-2.82 5.08-5.86 10.33-7.55h.01l50.95-15.64c4.88-1.56 8.72-.24 11.03 2.26a9 9 0 0 1 2.33 7.37 8.8 8.8 0 0 1-2.62 5.17 9 9 0 0 0 1.66-4.07 9 9 0 0 0-2.33-7.37c-2.32-2.5-6.16-3.82-11.03-2.26l-50.95 15.63-.01.01c-4.56 1.46-7.08 4.07-9.37 6.45m17.37-2.04a10 10 0 0 1 4.07-2.32l24.13-7.58.52 1.65 1.19-.37-.75-2.38-24.12 7.58a9.7 9.7 0 0 0-5.04 3.42m1.89 1.65a5 5 0 0 0-1.63 2.64q-.2.88.03 1.65.21.75.78 1.3c1.05.99 2.99 1.39 5.81.54l41.4-12.76a8.2 8.2 0 0 0 4.48-3.03 9 9 0 0 1-3.51 1.93h-.01l-41.4 12.76c-2.82.85-4.76.45-5.8-.53a3 3 0 0 1-.8-1.3 3.4 3.4 0 0 1-.02-1.66q.16-.79.67-1.54" style="fill-rule:evenodd;clip-rule:evenodd;fill:#f3942f"/><path d="M637.64 787.72c-48.72 33.23-115.63 24.44-153.92-21.93-13.9-16.82-69.92-84.11-72.9-104.23-5.7-38.65 56.06-31.56 88.39-58.26 34.74-28.7 51.87-82.84 90.5-65.91 16.03 7.02 60.09 67 71.99 81.4 36.57 44.28 34.55 107.71-2.14 149.53l17.74 20.61c3.6 4.35 1.45 12.06-4.77 17.2-6.23 5.15-14.2 5.8-17.8 1.44z" style="opacity:.3;fill-rule:evenodd;clip-rule:evenodd;fill:#2b2a29"/><path d="M590.08 712.41c-48.56 40.1-120.43 33.25-160.53-15.3s-33.25-120.43 15.3-160.52c48.56-40.1 120.42-33.25 160.53 15.3s33.24 120.42-15.3 160.52" style="fill-rule:evenodd;clip-rule:evenodd;fill:#e9e5b2"/><path d="M630.53 756.93c-6.23 5.15-14.2 5.8-17.8 1.44l-33.01-38.34a115 115 0 0 0 22.28-19l33.3 38.7c3.6 4.35 1.45 12.05-4.77 17.2" style="fill-rule:evenodd;clip-rule:evenodd;fill:#d9d19f"/><path d="M577.37 697.03c-40.06 33.08-99.35 27.43-132.43-12.63-33.08-40.05-27.44-99.35 12.63-132.43A94.06 94.06 0 0 1 590 564.6c33.08 40.05 27.42 99.35-12.63 132.43" style="fill-rule:evenodd;clip-rule:evenodd;fill:#854d1d"/><path d="M415.47 660.6c-14.98-42.09-3.06-90.86 33.39-120.96 46.56-38.45 115.46-31.88 153.91 14.67a109 109 0 0 1 21.46 41.85 109 109 0 0 0-18.72-32.95c-38.45-46.55-107.35-53.12-153.91-14.67a109.3 109.3 0 0 0-36.13 112.07" style="fill-rule:evenodd;clip-rule:evenodd;fill:#fef9d2"/><path d="M624.67 749.68c-4.86 4.01-11.08 4.52-13.88 1.12l-25.74-29.9a90 90 0 0 0 17.37-14.81l25.97 30.18c2.8 3.39 1.13 9.4-3.73 13.4" style="fill-rule:evenodd;clip-rule:evenodd;fill:#e9e5b2"/><path d="M621.14 739.68c-2.25 1.87-10.83-7.55-12.13-9.13-1.31-1.7-14.16-14.76-11.66-16.83 3.17-2.61 12.63 9.9 14.83 11.8 1.3 1.58 11.22 12.3 8.96 14.16" style="fill-rule:evenodd;clip-rule:evenodd;fill:#f8f5c3"/><path d="M591.14 574.1c13.02 14.8 15.77 29.92 16.45 45.08.8 17.69-1.08 36.32-14.99 55.85-30.12 42.33-90.36 51.46-132.68 21.33-13.63-9.7-18.26-21.62-24.9-35.74 8.87 10.08 28.42 28.3 40.36 31.17 19.33 4.63 29.74-15.06 47.8-21.17 3.99-1.34 10.2-1.4 16.61-1.3 7.04.12 14.33.42 19.2-.59 8.46-1.75 18.05-1.66 22.92-8.5 3.33-4.68 1.38-4.9 1.38-13.2 0-6.68 3.66-10.22 7.5-10.22 3.12 0 5.29-3.57 6.12-6.44 1.5-5.15.72-9.56 1.07-14.73.9-13.35-.28-27.59-6.84-41.53" style="fill-rule:evenodd;clip-rule:evenodd;fill:#a15f40"/><path d="M433.13 666.21c-18.96-38.25-9.9-85.88 24.44-114.24a94.06 94.06 0 0 1 152.47 55.78c-3.15-6.37-7.24-16.44-11.96-22.16-33.09-40.06-95.22-50.75-135.27-17.66-27.17 22.43-35.5 65.92-29.68 98.28" style="opacity:.1;fill-rule:evenodd;clip-rule:evenodd;fill:#1c1b17"/><path d="M514.29 682.37a3.56 3.56 0 1 1 0 7.13 3.56 3.56 0 0 1 0-7.13m20.62-4.12a3.56 3.56 0 1 1 0 7.12 3.56 3.56 0 0 1 0-7.12m-13.12 18.37a2.81 2.81 0 1 1 0 5.63 2.81 2.81 0 0 1 0-5.63m39.65-24a1.97 1.97 0 1 1 0 3.94 1.97 1.97 0 0 1 0-3.94M596.5 643a1.97 1.97 0 1 1 0 3.94 1.97 1.97 0 0 1 0-3.94" style="fill-rule:evenodd;clip-rule:evenodd;fill:#854d1d"/><path d="m138.45 450.75-4.33-3.34-1.74-17.93 47.6-25.71 4.62-1.34 1.87 6.43 16.23-6.23 6.99 4.76 4.16 13.49-.29 2.46-19.9 5.46.55 6.8z" style="opacity:.3;fill-rule:evenodd;clip-rule:evenodd;fill:#1c1b17"/><path d="m133.85 447.32-9.19-31.52 1.45-3.44 54.33-15.74 8.94 30.69.2 3.72z" style="fill-rule:evenodd;clip-rule:evenodd;fill:#7f8968"/><path d="M184.74 399.53h22.76v21.15h-22.76z" style="fill-rule:evenodd;clip-rule:evenodd;fill:#fff7dd" transform="rotate(-15.93 196.09 410.05)"/><path d="M194.13 412.81h6.16v2.24h-6.16z" style="fill-rule:evenodd;clip-rule:evenodd;fill:#777f77" transform="rotate(-15.82 197.19 413.89)"/><path d="M191.95 405.15h6.17v2.24h-6.17z" style="fill-rule:evenodd;clip-rule:evenodd;fill:#777f77" transform="rotate(-15.9 195.03 406.27)"/><path d="m180.44 396.62-54.11 15.68 8.6 29.87 54.45-14.86z" style="fill-rule:evenodd;clip-rule:evenodd;fill:#9da080"/><path d="M134.37 417.89h16.67v15.37h-16.67z" style="fill-rule:evenodd;clip-rule:evenodd;fill:#fff7dd" transform="rotate(-15.91 142.7 425.58)"/><path d="m188.08 423.39 21.89-6.24-.33 2.29-20.85 5.99z" style="fill-rule:evenodd;clip-rule:evenodd;fill:#d1ccb7"/><path d="M310.97 302.18 394.12 34.6l413.76 127.95zM433.5 100.43 396.55 218.7l224.75-60.2z" style="opacity:.3;fill-rule:evenodd;clip-rule:evenodd;fill:#1f1b20"/><path d="M309.35 298.93 392.5 31.35 806.26 159.3zM431.88 97.18l-36.95 118.29 224.74-60.21z" style="fill-rule:evenodd;clip-rule:evenodd;fill:#c65f55"/><path d="m407.73 41.39-.65-.2 1.42-4.56.65.2zm-12.07 5.34c-.48 1.54-1.31 2.21-2.31 1.9-.89-.28-1.23-1.29-.78-2.8.47-1.5 1.39-2.15 2.31-1.86.95.3 1.23 1.32.78 2.76m-2.48-.7c-.36 1.18-.2 1.96.35 2.14.63.19 1.15-.44 1.52-1.6.34-1.12.28-1.94-.35-2.13-.54-.17-1.13.36-1.52 1.6m14.22 2.54-.92.18.02-.5 1.16-.23.52.17-1.4 4.53-.6-.18zm10.08 7.48.12-.38.62-.32c1.5-.74 2.2-1.16 2.43-1.84.14-.46.05-.96-.63-1.17a1.6 1.6 0 0 0-1.08.09l-.06-.5c.4-.17.9-.22 1.43-.06.97.3 1.17 1.1.97 1.75-.26.84-1.08 1.32-2.31 1.95l-.47.22v.01l2.03.64-.16.5zm14.14 3.62c.14.16.5.46.91.6.8.24 1.2-.18 1.3-.56.2-.64-.3-1.09-.89-1.27l-.34-.1.14-.47.34.1c.45.15 1.09.1 1.25-.44.12-.37-.02-.76-.58-.94a2 2 0 0 0-1 .02l-.02-.5c.3-.1.8-.13 1.29.03.9.27 1.13.93.96 1.48-.14.47-.54.78-1.17.8v.02c.52.28.85.85.65 1.48-.22.72-.99 1.18-2.07.84-.51-.16-.9-.46-1.09-.67zm14.3 5.22.4-1.23-2.1-.66.12-.4 2.92-2.27.66.2-.88 2.83.64.2-.15.47-.64-.2-.38 1.24zm.54-1.72.47-1.5.25-.71h-.03q-.3.3-.58.54L445 62.7v.01zm14.37 1.95-1.73-.54-.53 1.1.38.1c.34.1.67.29.9.54.29.32.46.8.29 1.37-.28.88-1.19 1.33-2.17 1.02a2.3 2.3 0 0 1-1.04-.63l.3-.42c.15.17.48.42.88.55.59.18 1.2-.04 1.38-.64s-.08-1.13-.99-1.41q-.39-.11-.64-.15l.97-2.08 2.17.67zm13.13 3.98a2 2 0 0 0-.47-.11 1.9 1.9 0 0 0-2.07 1.12h.02c.3-.21.75-.33 1.25-.17.8.25 1.19 1 .91 1.88-.26.83-1.06 1.42-2 1.13-.97-.3-1.37-1.25-1-2.43a3 3 0 0 1 1.4-1.8q.76-.39 1.65-.22.3.05.46.1zm-1 2.56c.21-.65-.04-1.15-.6-1.32-.37-.12-.79 0-1.05.28a1 1 0 0 0-.16.25c-.21.75-.04 1.4.6 1.6.53.17 1.02-.16 1.22-.81m14.33 1.12-.12.4-3.26 3.51-.64-.2 3.21-3.39v-.01l-2.2-.7.15-.5zm8.8 6.43c.18-.57.65-.86 1.27-.93v-.02c-.42-.4-.52-.85-.4-1.24.22-.72.98-1.02 1.78-.77.88.27 1.14.96.97 1.52-.12.38-.44.74-1.08.83v.02c.49.4.71.9.54 1.45-.24.79-1.08 1.1-1.94.84-.95-.3-1.35-1.03-1.14-1.7m2.45.73c.17-.55-.13-.93-.7-1.3q-.87.02-1.1.69c-.16.45.06.96.64 1.14.55.17 1.01-.06 1.16-.53m-.99-2.78c-.14.45.13.8.6 1.1.44 0 .83-.2.96-.6.1-.37 0-.82-.54-.99-.51-.16-.9.1-1.02.49m11.76 6.95q.18.06.5.13.57.1 1.08-.14.6-.26.98-1.02h-.02c-.35.22-.77.3-1.22.15-.82-.25-1.15-1.03-.9-1.8.26-.86 1.11-1.42 2.04-1.14.93.3 1.27 1.23.9 2.38-.3 1-.86 1.6-1.44 1.88-.45.23-1 .3-1.5.2q-.36-.06-.58-.14zm1.03-2.54c-.18.57.04 1.07.57 1.23.42.13.8.03 1.04-.2a.4.4 0 0 0 .13-.2c.24-.77.14-1.45-.5-1.65-.53-.17-1.04.18-1.24.82m17.2 6.14c-.48 1.54-1.32 2.21-2.32 1.9-.89-.28-1.23-1.29-.78-2.8.47-1.5 1.4-2.14 2.31-1.86.95.3 1.23 1.32.79 2.76m-2.49-.7c-.36 1.18-.2 1.96.35 2.13.63.2 1.15-.43 1.52-1.6.34-1.1.28-1.93-.35-2.13-.54-.16-1.13.37-1.52 1.6m-2.25-2.58-.92.18.02-.5 1.16-.22.52.16-1.41 4.53-.6-.18zm16.35 5.08-.93.18.03-.5 1.15-.22.53.16-1.41 4.53-.6-.18zm-3.57-1.1-.01-.01-.92.18.02-.5 1.16-.22.52.16-1.4 4.53-.6-.18zm13.91 8.66.12-.38.63-.31c1.5-.75 2.2-1.17 2.42-1.85.15-.46.05-.95-.62-1.16a1.6 1.6 0 0 0-1.08.08l-.07-.49c.4-.17.9-.23 1.43-.06.97.3 1.18 1.1.98 1.75-.26.83-1.08 1.32-2.32 1.94l-.47.22v.02l2.04.63-.16.51zm-1-4.65-.02-.01-.92.18.03-.5 1.15-.22.53.16-1.41 4.53-.6-.18zm14.34 8.02c.14.17.5.47.91.6.79.24 1.19-.18 1.3-.56.19-.64-.3-1.08-.89-1.27l-.34-.1.14-.47.34.11c.45.14 1.09.09 1.25-.45.12-.36-.02-.76-.58-.93a1.7 1.7 0 0 0-1 .02l-.02-.5c.3-.1.8-.13 1.3.02.88.28 1.12.94.95 1.49-.14.46-.54.77-1.16.8v.01c.52.29.84.85.64 1.48-.23.73-.99 1.18-2.07.85a2.5 2.5 0 0 1-1.09-.68zm-1.38-4h-.01l-.92.18.03-.5 1.15-.22.52.16-1.4 4.53-.6-.18zm16.06 9.34.39-1.23-2.1-.66.12-.4 2.92-2.27.66.2-.88 2.83.64.2-.15.47-.64-.2-.38 1.24zm.53-1.72.47-1.5.25-.71h-.02l-.59.54-1.58 1.2v.01zm-3.43-3.53h-.01l-.92.18.02-.5 1.15-.23.53.17-1.41 4.53-.6-.18zm17.18 5.28-1.72-.53-.54 1.1q.14.02.38.1.54.15.9.54c.29.32.46.8.29 1.37-.28.88-1.2 1.32-2.17 1.02a2.3 2.3 0 0 1-1.05-.63l.3-.42c.15.17.48.42.9.55.57.18 1.18-.04 1.37-.65.18-.59-.09-1.13-1-1.4q-.37-.12-.63-.15l.97-2.09 2.16.68zm-4.95-1.48h-.02l-.92.18.02-.5 1.16-.23.52.17-1.4 4.53-.6-.18zm18.51 5.6a2 2 0 0 0-.46-.11 1.94 1.94 0 0 0-2.08 1.12h.02c.3-.21.75-.33 1.25-.17.8.25 1.2 1 .92 1.88-.26.83-1.06 1.42-2 1.13-.97-.3-1.37-1.25-1-2.43a3 3 0 0 1 1.4-1.8 2.5 2.5 0 0 1 1.65-.22l.46.1zm-.98 2.56c.2-.64-.05-1.15-.62-1.32-.37-.12-.78.01-1.05.28a1 1 0 0 0-.15.25c-.22.75-.05 1.4.6 1.6.52.17 1.02-.16 1.22-.8m-3.89-3.92-.93.18.03-.5 1.15-.22.52.16-1.4 4.53-.6-.18zm18.33 5.08-.12.4-3.26 3.52-.64-.2 3.21-3.4v-.02l-2.2-.68.15-.51zm-5.36-1.05h-.01l-.92.18.02-.5 1.16-.22.52.16-1.4 4.53-.6-.18zm14.22 7.5c.18-.57.64-.86 1.28-.93v-.03c-.43-.4-.53-.84-.4-1.24.22-.7.98-1.01 1.77-.77.87.28 1.15.97.97 1.53-.12.38-.44.74-1.08.83v.02c.49.4.72.9.55 1.45-.25.79-1.09 1.1-1.95.84-.95-.3-1.35-1.03-1.14-1.7m2.45.73c.17-.55-.13-.93-.69-1.3q-.89.01-1.1.69c-.17.45.05.96.63 1.14.55.17 1.02-.06 1.16-.53m-.98-2.78c-.15.45.12.8.6 1.1.43 0 .82-.2.95-.6.11-.37.01-.82-.54-.99-.51-.16-.9.1-1.01.49m-2.78-1.44h-.02l-.92.18.03-.5 1.15-.22.53.16-1.4 4.53-.6-.18zm14.4 8.34q.2.08.5.14.58.1 1.09-.14.58-.27.97-1.02l-.02-.01q-.52.36-1.21.16c-.82-.25-1.15-1.03-.91-1.8.27-.86 1.12-1.42 2.05-1.14.92.3 1.26 1.22.9 2.38-.3 1-.86 1.59-1.44 1.88-.45.24-1 .3-1.5.2a3 3 0 0 1-.58-.14zm1.03-2.53c-.17.57.05 1.07.58 1.23.41.13.8.03 1.04-.2q.08-.05.12-.2c.24-.77.15-1.45-.5-1.65-.52-.17-1.03.18-1.24.83m-2.52-1.8h-.02l-.92.18.03-.5 1.15-.22.53.16-1.41 4.53-.6-.18zm17.45 7.24c-.47 1.54-1.3 2.2-2.31 1.9-.89-.28-1.23-1.3-.78-2.8.47-1.51 1.39-2.15 2.31-1.86.95.3 1.23 1.31.78 2.76m-2.48-.7c-.36 1.18-.2 1.96.35 2.13.63.2 1.15-.43 1.51-1.6.35-1.11.3-1.93-.34-2.13-.54-.17-1.13.37-1.52 1.6m-4.82.97 2.9.9.16-.51-2.04-.64v-.01l.47-.23c1.24-.62 2.06-1.1 2.32-1.94.2-.65 0-1.45-.98-1.75a2 2 0 0 0-1.42.06l.06.5c.26-.11.67-.22 1.07-.09.68.21.77.7.63 1.17-.22.68-.92 1.1-2.42 1.84l-.63.32zm19.35 1.66h-.01l-.92.18.03-.5 1.15-.22.52.16-1.4 4.53-.6-.18zm-6.13 2.44.12-.38.63-.31c1.5-.75 2.2-1.17 2.42-1.85.14-.46.05-.95-.63-1.16a1.6 1.6 0 0 0-1.08.08l-.06-.49c.4-.17.9-.22 1.43-.06.98.3 1.18 1.1.98 1.75-.26.83-1.08 1.32-2.32 1.94l-.46.23-.01.01 2.03.63-.16.51zm16.98 5.28.11-.38.63-.32c1.5-.74 2.2-1.16 2.42-1.84.14-.46.05-.96-.63-1.17-.4-.12-.81-.02-1.07.09l-.07-.5c.4-.17.9-.22 1.43-.06.98.3 1.18 1.1.97 1.75-.26.84-1.07 1.33-2.31 1.95l-.47.22v.01l2.03.64-.16.5zm-3.58-1.11 2.9.9.15-.51-2.03-.63v-.02l.47-.22c1.24-.62 2.06-1.11 2.32-1.95.2-.64 0-1.44-.98-1.75a2 2 0 0 0-1.43.07l.06.49a1.6 1.6 0 0 1 1.08-.09c.68.21.77.7.63 1.17-.22.68-.92 1.1-2.42 1.84l-.63.32zm16.6 4.38c.14.16.49.46.91.6.8.24 1.19-.18 1.3-.56.2-.64-.3-1.08-.9-1.27l-.33-.1.14-.47.34.1c.45.15 1.08.1 1.25-.44.11-.37-.02-.76-.58-.93a1.7 1.7 0 0 0-1 .02l-.02-.5c.29-.1.8-.13 1.3.02.89.28 1.12.94.95 1.49-.14.46-.55.77-1.16.8v.01c.51.28.84.85.64 1.48-.22.73-.99 1.18-2.08.85-.5-.16-.9-.46-1.08-.68zm-3.94-.45 2.9.9.15-.5-2.03-.64v-.02l.47-.22c1.24-.62 2.06-1.1 2.32-1.94.2-.65 0-1.45-.98-1.75a2 2 0 0 0-1.43.06l.06.5c.27-.12.67-.22 1.09-.1.67.22.76.71.62 1.17-.22.68-.93 1.1-2.42 1.85l-.63.32zm18.43 5.73.39-1.23-2.1-.66.12-.4 2.92-2.26.67.2-.88 2.82.63.2-.15.48-.63-.2-.38 1.23zm.54-1.72.47-1.5q.1-.37.24-.71h-.02l-.58.54-1.59 1.2v.02zm-6 .03 2.9.9.15-.52-2.03-.63v-.01l.47-.23c1.24-.62 2.06-1.1 2.32-1.94.2-.65 0-1.45-.98-1.75a2 2 0 0 0-1.43.06l.07.5c.26-.12.66-.22 1.07-.1.68.22.77.71.63 1.17-.22.68-.93 1.1-2.42 1.85l-.63.32zm20.06 1.82-1.73-.54-.54 1.11q.15.02.38.1a2 2 0 0 1 .9.54c.3.31.46.79.29 1.36-.28.89-1.19 1.33-2.17 1.02a2.3 2.3 0 0 1-1.04-.62l.3-.42c.15.17.48.42.89.55.58.18 1.18-.05 1.37-.65.18-.59-.08-1.13-.99-1.41q-.37-.11-.64-.15l.97-2.08 2.17.67zm-7.52 2.07 2.89.9.16-.51-2.04-.64V148l.47-.22c1.24-.63 2.06-1.11 2.32-1.95.2-.65 0-1.45-.98-1.75a2 2 0 0 0-1.42.06l.06.5a1.6 1.6 0 0 1 1.08-.09c.68.21.77.7.62 1.17-.22.68-.92 1.1-2.42 1.84l-.63.32zm20.64 1.92a2 2 0 0 0-.46-.12 1.94 1.94 0 0 0-2.08 1.12h.02c.3-.2.75-.32 1.25-.17.8.25 1.2 1 .92 1.89-.26.83-1.06 1.42-2 1.12-.98-.3-1.37-1.25-1-2.42.27-.9.8-1.5 1.4-1.8q.75-.4 1.65-.23l.45.1zm-.99 2.56c.2-.65-.04-1.15-.6-1.33-.38-.11-.8.01-1.06.28a1 1 0 0 0-.15.25c-.21.75-.05 1.4.6 1.6.53.17 1.01-.16 1.21-.8m-6.44-.37 2.9.9.15-.52-2.03-.63v-.01l.47-.23c1.24-.62 2.06-1.1 2.32-1.94.2-.65 0-1.45-.98-1.75a2 2 0 0 0-1.42.06l.06.5c.26-.11.66-.22 1.07-.1.68.22.77.71.63 1.17-.22.68-.93 1.1-2.42 1.85l-.63.32zm20.95 1.54-.12.4-3.26 3.52-.63-.2 3.2-3.4.01-.01-2.22-.7.16-.5zm-7.92 2.5 2.9.9.16-.5-2.04-.64v-.01l.47-.23c1.25-.62 2.06-1.1 2.32-1.94.2-.65 0-1.45-.98-1.75a2 2 0 0 0-1.42.06l.06.5c.26-.12.67-.22 1.08-.1.67.22.77.71.62 1.17-.22.68-.92 1.1-2.42 1.85l-.63.31zm17.15 4.07c.18-.57.65-.87 1.28-.93v-.03c-.42-.4-.52-.84-.4-1.24.22-.71.98-1.01 1.77-.77.88.28 1.15.97.97 1.53-.11.38-.43.74-1.07.83v.02c.48.4.71.9.54 1.45-.24.79-1.08 1.1-1.95.84-.94-.3-1.34-1.04-1.14-1.7m2.45.73c.18-.55-.13-.93-.69-1.3-.57-.01-.97.25-1.1.68-.17.46.06.97.64 1.15.55.17 1-.06 1.15-.53m-.98-2.79c-.14.46.12.8.6 1.1.44 0 .82-.19.95-.6.11-.36.01-.8-.54-.98-.5-.16-.89.09-1.01.48m-5.34 2.12 2.9.9.15-.51-2.03-.63v-.02l.47-.22c1.24-.62 2.06-1.11 2.32-1.95.2-.64 0-1.44-.98-1.75a2 2 0 0 0-1.42.07l.05.49c.27-.1.67-.21 1.08-.08.68.2.77.7.63 1.16-.22.68-.93 1.1-2.43 1.84l-.62.32zm16.53 4.66q.2.08.5.14.58.1 1.1-.15.58-.25.96-1.02h-.02q-.52.35-1.21.16c-.82-.26-1.15-1.03-.9-1.81.26-.85 1.11-1.42 2.03-1.13.93.29 1.27 1.22.91 2.38-.3 1-.86 1.59-1.44 1.88-.45.23-1 .3-1.5.2a3 3 0 0 1-.58-.14zm1.04-2.53c-.18.56.04 1.06.57 1.23.41.13.8.03 1.04-.2q.08-.06.12-.2c.24-.78.14-1.46-.5-1.66-.52-.16-1.03.19-1.23.83m-5.1 1.75 2.9.9.16-.51-2.04-.64v-.01l.47-.22c1.25-.62 2.06-1.11 2.32-1.95.2-.65 0-1.45-.98-1.75a2 2 0 0 0-1.42.06l.06.5a1.6 1.6 0 0 1 1.08-.09c.68.21.77.7.62 1.17-.22.67-.92 1.1-2.42 1.84l-.63.32zm14.99 1.73-.34-.1-.13.43.98-.28q-.26.03-.51-.05m.94-1.84c.9.28 1.13.94.96 1.49l-.02.02-.98.27q.24-.11.35-.39c.11-.36-.02-.75-.59-.93a1.7 1.7 0 0 0-.99.02l-.02-.5c.29-.1.8-.13 1.29.02m6.69-4.5-.66-.2 1.42-4.56.66.2zm2.73.85-.65-.2 1.41-4.56.66.2zm2.73.85-.65-.2 1.42-4.57.65.2zm4.14-3.71-.65-.2-1.34 4.33.77-.2zM396.17 41.68l-.97-.3 2.51-8.1.98.3zm12.98 4.04 2.52-8.1-.98-.31-2.52 8.1zm12.98 4.03-.97-.3 2.52-8.1.96.3zm12.97 4.03-.97-.3 2.52-8.1.97.3zm12.98 4.04-.97-.3 2.52-8.11.97.3zm12.98 4.03-.97-.3 2.52-8.11.97.3zm12.98 4.03-.98-.3 2.52-8.1.98.3zm12.97 4.03-.97-.3 2.52-8.1.97.3zM500 73.95l-.98-.3 2.52-8.11.97.3zm12.98 4.03-.98-.3 2.52-8.11.98.3zm12.97 4.03-.98-.3 2.52-8.1.98.3zm12.98 4.04-.97-.3 2.52-8.11.97.3zm12.98 4.03-.98-.3 2.52-8.11.98.3zm12.97 4.03-.98-.3 2.52-8.1.98.3zm12.98 4.03-.97-.3 2.51-8.1.98.3zm12.97 4.04-.97-.3 2.52-8.11.97.3zm12.98 4.03-.96-.3 2.51-8.1.97.3zm12.98 4.03-.97-.3 2.51-8.1.98.3zm12.98 4.04-.97-.3 2.52-8.11.97.3zm12.98 4.03-.98-.3 2.52-8.11.98.3zm12.98 4.03-.98-.3 2.52-8.1.98.3zm12.97 4.03-.97-.3 2.52-8.1.97.3zm12.98 4.04-.98-.3 2.52-8.11.98.3zm12.97 4.03-.97-.3 2.52-8.1.97.3zm12.98 4.03-.97-.3 2.52-8.1.97.3zm12.98 4.03-.97-.3 2.52-8.1.97.3zm12.98 4.04-.97-.3 2.52-8.11.97.3zm12.98 4.03-.98-.3 2.52-8.1.98.3zm12.98 4.03-.98-.3 2.52-8.1.98.3zm12.97 4.04-.97-.3 2.52-8.11.97.3zm12.98 4.03-.97-.3 2.52-8.11.97.3zm-9.82-6.94 1.41-4.56-.65-.2-1.42 4.56zm2.73.85-.65-.2 1.42-4.56.65.2zm2.72.85-.64-.2 1.42-4.57.64.2zm2.74.85 1.42-4.57-.66-.2-1.41 4.56zm-21-6.53-.66-.2 1.42-4.57.65.2zm2.73.85-.66-.2 1.42-4.57.65.2zm2.72.84-.65-.2 1.42-4.56.65.2zm2.73.85 1.42-4.56-.65-.2-1.42 4.56zm-21.17-6.58-.65-.2 1.42-4.56.65.2zm2.73.85-.65-.2 1.42-4.56.65.2zm2.73.85-.64-.2 1.41-4.56.65.2zm2.74.85 1.41-4.56-.64-.2-1.42 4.56zm-21.17-6.58-.65-.2 1.42-4.56.65.2zm2.73.85-.66-.2 1.42-4.57.66.2zm2.73.85-.65-.2 1.41-4.57.66.2zm2.73.85 1.42-4.56-.65-.2-1.42 4.56zm-21.17-6.58-.65-.2 1.42-4.56.64.2zm2.73.85-.65-.2 1.42-4.57.65.2zm2.73.85-.65-.2 1.42-4.57.65.2zm2.73.84 1.42-4.56-.65-.2-1.42 4.56zm-21.17-6.57-.65-.2 1.42-4.57.65.2zm2.73.84-.65-.2 1.42-4.56.65.2zm2.74.85-.66-.2 1.42-4.56.65.2zm2.72.85 1.42-4.56-.65-.2-1.42 4.56zm-21-6.53-.65-.2 1.42-4.56.64.2zm2.72.85-.64-.2 1.42-4.56.64.2zm2.74.85-.65-.2 1.41-4.56.66.2zm2.73.85 1.41-4.56-.64-.2-1.42 4.56zm-21.17-6.58-.65-.2 1.42-4.56.65.2zm2.73.85-.65-.2 1.42-4.56.65.2zm2.73.85-.65-.2 1.41-4.57.66.2zm2.73.85 1.42-4.57-.65-.2-1.42 4.57zm-21.33-6.63-.65-.2 1.42-4.57.65.2zm2.73.85-.65-.2 1.42-4.57.65.2zm2.73.84-.65-.2 1.42-4.56.65.2zm2.73.85 1.42-4.56-.65-.2-1.42 4.56zm-21-6.52-.66-.2 1.42-4.57.65.2zm2.72.84-.64-.2 1.41-4.56.65.2zm2.74.85-.65-.2 1.41-4.56.65.2zm2.72.85 1.42-4.56-.64-.2-1.42 4.56zm-21.44-6.66-.65-.2 1.42-4.57.65.2zm2.73.84-.65-.2 1.42-4.56.65.2zm2.73.85-.65-.2 1.42-4.56.65.2zm2.73.85 1.42-4.56-.65-.2-1.42 4.56zm-21.17-6.58-.65-.2 1.42-4.56.65.2zm2.73.85-.65-.2 1.42-4.56.65.2zm2.74.85-.66-.2 1.42-4.56.66.2zm2.72.85 1.42-4.56-.64-.2-1.42 4.56zm-20.68-6.43-.64-.2 1.41-4.56.65.2zm2.73.85-.65-.2 1.42-4.56.65.2zm2.73.85-.64-.2 1.41-4.56.65.2zm2.73.85 1.42-4.56-.65-.2-1.42 4.56zm-21.5-6.68-.64-.2 1.42-4.57.64.2zm2.74.85-.65-.2 1.42-4.57.65.2zm2.73.85-.65-.2 1.42-4.57.65.2zm2.73.84 1.42-4.56-.65-.2-1.42 4.56zm-21.17-6.57-.65-.2 1.42-4.57.65.2zm2.73.84-.64-.2 1.41-4.56.65.2zm2.73.85-.65-.2 1.42-4.56.65.2zm2.74.85 1.41-4.56-.65-.2-1.42 4.56zm-21.01-6.53-.65-.2 1.42-4.56.64.2zm2.72.85-.64-.2 1.42-4.56.64.2zm2.74.85-.65-.2 1.41-4.56.66.2zm2.73.85 1.41-4.57-.64-.2-1.42 4.57zm-21.5-6.68-.64-.2 1.42-4.56.64.2zm2.73.85-.64-.2 1.42-4.57.64.2zm2.74.85-.66-.2 1.42-4.57.65.2zm2.73.85 1.42-4.57-.66-.2-1.41 4.56zm-21.01-6.53-.65-.2 1.42-4.57.65.2zm2.73.85-.65-.2 1.42-4.57.65.2zm2.73.84-.65-.2 1.42-4.56.65.2zm2.73.85 1.42-4.56-.65-.2-1.42 4.56zm-21.33-6.63-.65-.2 1.42-4.56.65.2zm2.73.85-.65-.2 1.42-4.56.65.2zm2.73.85-.65-.2 1.42-4.56.65.2zm2.74.85 1.41-4.56-.65-.2-1.42 4.56zm-20.86-6.48-.64-.2 1.42-4.56.64.2zm2.73.85-.64-.2 1.41-4.56.65.2zm2.74.85-.65-.2 1.42-4.56.64.2zm2.73.85 1.42-4.56-.65-.2-1.42 4.55zm-21.34-6.63-.64-.2 1.41-4.56.65.2zm2.74.85-.66-.2 1.42-4.57.65.2zm2.73.84-.65-.2 1.42-4.56.64.2zm2.73.86 1.42-4.57-.66-.2-1.41 4.56zm-21.33-6.63-.65-.2 1.42-4.57.65.2zm2.73.84-.65-.2 1.42-4.56.64.2zm2.73.85-.65-.2 1.42-4.56.65.2zm2.73.85 1.42-4.56-.65-.2-1.42 4.56zm-21-6.53-.65-.2 1.42-4.56.64.2zm2.72.85-.65-.2 1.42-4.56.65.2zm2.74.85-.66-.2 1.42-4.56.65.2zm2.72.85 1.42-4.56-.64-.2-1.42 4.56zm-21.33-6.63-.65-.2 1.42-4.56.65.2zm2.73.85-.64-.2 1.42-4.56.64.2zm2.73.85-.65-.2 1.42-4.57.65.2zm2.74.85 1.42-4.57-.66-.2-1.41 4.57zm-20.85-6.48-.65-.2 1.42-4.57.65.2zm2.73.85-.65-.2 1.42-4.57.65.2zm2.73.85-.65-.2 1.42-4.57.65.2zm2.73.84 1.42-4.56-.64-.2-1.42 4.56zm-21.17-6.57-.65-.2 1.42-4.57.65.2zm2.73.84-.65-.2 1.42-4.56.65.2zm2.73.85-.65-.2 1.42-4.56.65.2zm2.73.85 1.42-4.56-.65-.2-1.41 4.56zm-21.49-6.68-.65-.2 1.42-4.56.65.2zm2.73.85-.65-.2 1.42-4.56.65.2zm2.73.85-.65-.2 1.42-4.57.65.2zm2.74.85 1.41-4.56-.65-.2-1.42 4.56zm-21.18-6.58-.65-.2 1.42-4.57.65.2zm2.73.85-.65-.2 1.42-4.57.65.2zm2.73.85-.64-.2 1.42-4.57.64.2zm2.74.84 1.41-4.56-.65-.2-1.42 4.56zm-21.18-6.57-.65-.2 1.42-4.57.65.2zm2.74.85-.65-.2 1.42-4.57.65.2zm2.72.84-.64-.2 1.42-4.56.64.2zm2.74.85 1.41-4.56-.65-.2-1.42 4.56zm-21.01-6.53-.65-.2 1.42-4.56.64.2zm2.73.85-.65-.2 1.42-4.56.65.2zm2.73.85-.64-.2 1.41-4.56.65.2z" style="fill-rule:evenodd;clip-rule:evenodd;fill:#ca8278"/><path d="M97.42 331.27c37.54.46 104.42-9.35 171.43-21.23-12.01-51.96-21.5-113.45-30.28-166.3 0 0-132.08 24.57-161.71 29.82C98.47 303.3 91.1 289.42 97.42 331.27" style="opacity:.2;fill-rule:evenodd;clip-rule:evenodd;fill:#3f3426"/><path d="M88.48 322.51c37.83 1.57 107.22-4.88 174.8-14.67-6.85-29.67-24.91-165.63-24.91-165.63L67.09 167.03C88.6 296.37 82.2 280.81 88.48 322.51" style="fill-rule:evenodd;clip-rule:evenodd;fill:#94bda8"/><path d="M804.38 678.72 643.85 471.77l-15.48-34.71 34.33 20.24 160.75 206.57c5.62 7.22-11.87 24.11-19.07 14.85" style="opacity:.3;fill-rule:evenodd;clip-rule:evenodd;fill:#15130f"/><path d="M799.77 680.76 638.04 472.95l18.77-14.6 160.7 206.47c6.27 8.06-13.79 21.02-17.74 15.94" style="fill-rule:evenodd;clip-rule:evenodd;fill:#b7b625"/><path d="m638.04 472.95-11.24-33.81 30.01 19.2z" style="fill-rule:evenodd;clip-rule:evenodd;fill:#e4b769"/><path d="m622.5 433.62 8.16 10.49z" style="fill-rule:evenodd;clip-rule:evenodd;fill:#25394f"/><path d="M624.49 432.22h4.2v13.29h-4.2z" style="fill-rule:evenodd;clip-rule:evenodd;fill:#25394f" transform="rotate(-37.86 626.55 438.86)"/><path d="m815.12 671.48-5.97 5.35-164.71-208.87 8.22-6.38z" style="fill-rule:evenodd;clip-rule:evenodd;fill:#d0ce00"/><path d="M114.6 186.91c9.1-1.8 16.46 2.19 16.46 8.9s-7.37 13.63-16.45 15.43c-9.09 1.8-16.45-2.19-16.45-8.9 0-4.01 2.61-8.08 6.65-11.1a74 74 0 0 1-3.14-2.56q.94-1.13 1.92-2.53.21-.28.41-.59l4.47 3.44q2.87-1.43 6.14-2.09" style="opacity:.1;fill-rule:evenodd;clip-rule:evenodd;fill:#1f1b20"/><path d="M95.26 178.3c.15.31 1.44 2.71 3.25 5.51l.02.02q.49.8 1.08 1.62c1.3 1.9 1.83 4.24 4.53 2.39 1.32-.92.13-2.22.13-2.22l-5.71-9.38-.6.4q-1.41.95-2.7 1.67" style="fill-rule:evenodd;clip-rule:evenodd;fill:#c6c0bd"/><path d="M78.84 165.1c-4.86 5.7-4.85 16.8 3.14 17.46 8.96.79 17-5.73 20.61-8.96-1.42-1.78 1.83-8.85-4.16-6.26-2.44 1.05-11.63 7.48-14.4 6.45-3.02-1.13-5.3-2.85-3.88-5.67l.09-.16c-.33-.53-.7-1.36-1.13-2.32v-.02q-.1-.27-.23-.56z" style="fill-rule:evenodd;clip-rule:evenodd;fill:#df4542"/><path d="M88.98 137.4q-.6-.5-1.2-.85c-3.03-1.68-7.72-.21-11.58 1.67a42 42 0 0 0-2.94 1.61c-4.9 2.94-10.72 8.07-9.29 13.24q.1.4.27.8c2.7 6.35 6.92 5.5 9.79 4.73 3.47-.92 5.1-2.42 6.67-3.3 2.55-1.44 4.2-2.52 7.54-6.38 4.42-5.14 3.1-9.35.76-11.49zm-8.06 5.71c-2.65 1.3-5.48 2.61-5.1 1.08.39-1.55 4.62-3.68 6.72-3.66 1 .01 1.06 1.3-1.62 2.58" style="fill-rule:evenodd;clip-rule:evenodd;fill:#cd4344"/><path d="M82.28 136.05c-2.03.4-4.15 1.23-6.08 2.17a42 42 0 0 0-2.94 1.61 23 23 0 0 0-7.49 7.01c-2.26 3.55-2.67 7.24-.35 9.8a8 8 0 0 0 2.93 2l.88-.21c8.44-2.24 22.52-14.28 14.98-21.17q0-.02-.02-.03-.6-.51-1.2-.86a5 5 0 0 0-.7-.32m-1.36 7.06c-2.65 1.3-5.48 2.61-5.1 1.08.39-1.55 4.62-3.68 6.72-3.66 1 .01 1.06 1.3-1.62 2.58" style="fill-rule:evenodd;clip-rule:evenodd;fill:#df4542"/><path d="M75.82 144.19c-.38 1.53 2.45.21 5.1-1.08 2.68-1.28 2.61-2.57 1.62-2.58-2.1-.02-6.33 2.1-6.72 3.66" style="fill-rule:evenodd;clip-rule:evenodd;fill:#fbcf9e"/><path d="M75.62 156.23c-.7.37.6 1.56-.01 1.82q-.89.37-1.58.55c1.88-.34 3.56 3.46 4.85 6.46q.13.29.23.56v.02c.1.64 1.6 3.11 1.04 2.48-.08.18-.46.63-.5 1.12a4.4 4.4 0 0 0 3.08 4.7c3.97 1.25 4.4 1.06 10.38-1.53 3.08-1.33 5.12-1.45 6.58-1.01 1.37.41-8.19 8.38-14.97 11.37 2.52-.53 4.93-.97 6.97-1.82 8.05-3.37 12.21-8.71 12.6-9.2 1.9-2.3 2.78-4.47 2.86-6.54a9 9 0 0 0-.27-2.52c-.47-1.78-1.32-4.55-4.88-5.74-1.96-.66-4.69-.96-8.2.12q-.64-.57-1.14-1.11c-3.36-3.44-4.23-5.88-4.42-7.04-.97 1.13-2.74 1.66-3.73 2.35-3.02 2.08-5.4 2.96-8.89 4.96" style="fill-rule:evenodd;clip-rule:evenodd;fill:#cd4344"/><path d="m400.86 454.24-39.2.48c-6.9.2-11.5-2.29-13.68-5.72a9 9 0 0 1-1.45-4.86 10 10 0 0 1 1.34-5.03c2.32-4.11 7.73-7.57 16.34-7.99h.01l53.5-1.92c5.13-.25 8.5 2.03 10.1 5.05a9.1 9.1 0 0 1 .35 7.76c-1.29 3.08-4.33 5.54-9.12 5.69l-43.47 1.62h-.01c-4 .12-6.53-1.29-7.72-3.21a5.3 5.3 0 0 1-.8-2.76c-.01-.94.22-1.9.68-2.79 1.15-2.24 3.79-4.11 7.65-4.28l25.38-1.08.1 2.5-25.37 1.09c-2.86.12-4.75 1.4-5.53 2.92q-.4.8-.4 1.6t.42 1.48c.76 1.22 2.54 2.11 5.5 2.02l43.47-1.62h.01c3.67-.1 5.96-1.9 6.9-4.15a6.6 6.6 0 0 0-.25-5.62c-1.18-2.23-3.77-3.91-7.8-3.72l-53.5 1.93c-7.61.37-12.31 3.28-14.26 6.72a7.5 7.5 0 0 0-1.01 3.76 6.7 6.7 0 0 0 1.06 3.54c1.74 2.75 5.6 4.74 11.5 4.57h.03l39.2-.49z" style="opacity:.3;fill-rule:evenodd;clip-rule:evenodd;fill:#1c1b17"/><path d="m401.38 451.84-39.2.49c-6.9.2-11.51-2.3-13.69-5.73a9 9 0 0 1-1.44-4.86 10 10 0 0 1 1.34-5.03c2.32-4.1 7.73-7.57 16.33-7.98h.02l53.49-1.93c5.13-.24 8.51 2.03 10.1 5.06a9.1 9.1 0 0 1 .36 7.75c-1.3 3.08-4.34 5.54-9.13 5.7l-43.47 1.61h-.01c-4 .13-6.53-1.28-7.72-3.21a5.3 5.3 0 0 1-.8-2.76 6 6 0 0 1 .68-2.78c1.16-2.25 3.8-4.12 7.65-4.28l25.38-1.08.1 2.5-25.37 1.08c-2.85.12-4.74 1.4-5.53 2.92q-.4.8-.4 1.61 0 .79.43 1.47c.75 1.23 2.53 2.12 5.5 2.03l43.47-1.62c3.67-.12 5.96-1.91 6.9-4.15a6.6 6.6 0 0 0-.24-5.62c-1.18-2.24-3.78-3.92-7.8-3.73h-.01l-53.5 1.93c-7.6.37-12.3 3.28-14.25 6.72a7.5 7.5 0 0 0-1.01 3.76 6.7 6.7 0 0 0 1.05 3.55c1.74 2.74 5.6 4.74 11.5 4.56h.03l39.2-.49z" style="fill-rule:evenodd;clip-rule:evenodd;fill:#5c8aff"/><path d="m400.31 452.2-1.23.02-.02-1.7-39.03.48H360c-5.89.18-9.73-1.8-11.46-4.54a6.7 6.7 0 0 1-1.05-3.53 7.5 7.5 0 0 1 1-3.74 11 11 0 0 1 4.1-4.01 10.5 10.5 0 0 0-2.88 3.2 7.5 7.5 0 0 0-1 3.74 6.7 6.7 0 0 0 1.05 3.53c1.73 2.74 5.57 4.72 11.45 4.54h.02l39.04-.48zm-48.43-18.4c2.82-1.7 5.93-3.56 10.72-3.8h.01l53.26-1.92c5.11-.24 8.48 2.03 10.07 5.04a9 9 0 0 1 .35 7.72 9 9 0 0 1-2.66 3.5 8.8 8.8 0 0 0 4.56-8.2 9 9 0 0 0-1.04-3.83c-1.58-3.01-4.95-5.28-10.07-5.04l-53.25 1.92h-.02c-5.5.27-9.02 2.48-11.93 4.62m17.3 2.53a10 10 0 0 1 4.54-1.19l25.27-1.07.07 1.73 1.25-.06-.1-2.49-25.27 1.08a9.7 9.7 0 0 0-5.76 2m1.4 2.09a5 5 0 0 0-2.26 2.12q-.4.8-.4 1.6.01.79.43 1.47c.75 1.22 2.52 2.1 5.47 2.02L417.1 444h.01a8.2 8.2 0 0 0 5.12-1.75 9 9 0 0 1-3.9.94h-.01l-43.28 1.62c-2.95.08-4.72-.8-5.48-2.02a3 3 0 0 1-.42-1.47q0-.8.4-1.6.37-.72 1.04-1.31" style="fill-rule:evenodd;clip-rule:evenodd;fill:#90b6ff"/></svg>