<svg xmlns="http://www.w3.org/2000/svg" xml:space="preserve" aria-label="journal sticker" viewBox="15.56 28.33 937.78 951.11"><path d="M746.34 833.48c.7 8.97-.1 16.34-1.77 16.47s-3.59-7.04-4.28-16 .1-16.34 1.77-16.47c1.68-.13 3.6 7.03 4.28 16" style="fill:#6d6e71"/><path d="M745.2 659.47c5 86.94 5.5 160.24 1.65 181.12l-5.97.46c-7-20.04-17.77-92.55-26.17-179.23-9.92-102.5-9.54-186.27.88-187.07s23.67 81.9 29.6 184.72" style="fill:#e6e7e8"/><path d="m743.77 637.27.45 6.49c-3.02 3.58-8.56 6.23-15.06 6.74s-12.37-1.28-15.9-4.35l-.57-6.48c3.52 3.13 9.43 4.93 15.98 4.42 6.54-.5 12.12-3.2 15.1-6.82" style="fill:#0260a0"/><linearGradient id="a" x1="714.68" x2="745.94" y1="657.99" y2="657.99" gradientTransform="rotate(-4.42 727.58 665.1)" gradientUnits="userSpaceOnUse"><stop offset="0" style="stop-color:#f1f2f2"/><stop offset=".18" style="stop-color:#eceded"/><stop offset=".4" style="stop-color:#dddedf"/><stop offset=".65" style="stop-color:#c5c6c7"/><stop offset=".9" style="stop-color:#a3a4a7"/><stop offset="1" style="stop-color:#939598"/></linearGradient><path d="M745.2 659.47c5 86.94 5.5 160.24 1.65 181.12l-5.97.46c-7-20.04-17.77-92.55-26.17-179.23-9.92-102.5-9.54-186.27.88-187.07s23.67 81.9 29.6 184.72" style="fill:url(#a)"/><path d="M747.9 832.55q-.46 4.82-1.05 8.04l-5.97.46a96 96 0 0 1-2.27-7.79 59 59 0 0 0 9.28-.72m-23.92-343.08c9.04 7.92 20.5 127.67 20.34 131.47-.15 3.8-1.22 3.63-2.58 1.45-1.38-2.15-2.5-4.84-1.13-6.72 1.18-4.16-2.25-32.14-7.25-62.78-4.34-26.57-11.7-55.9-11.98-57.89-.58-4.23-.5-5.35.68-6.61 1.2-1.27.7.01 1.92 1.08" style="fill:#0260a0"/><path d="M156.86 415.46h369.52v25.74H156.86z" style="fill:#fbcf78" transform="rotate(-11.98 341.58 428.3)"/><path d="M156.41 445.6 262.3 944.8l361.48-76.66L517.9 368.93zm40.94 23c-6.33 1.35-12.5-2.49-13.8-8.55-1.28-6.06 2.81-12.07 9.14-13.4 6.33-1.35 12.5 2.47 13.79 8.54s-2.8 12.07-9.13 13.41m58.49-12.4c-6.33 1.34-12.5-2.5-13.79-8.56s2.8-12.06 9.13-13.4c6.34-1.35 12.5 2.48 13.8 8.54 1.28 6.07-2.8 12.08-9.14 13.42m58.5-12.4c-6.33 1.33-12.5-2.5-13.8-8.56-1.28-6.07 2.8-12.07 9.13-13.4 6.34-1.35 12.51 2.47 13.8 8.54 1.28 6.06-2.8 12.07-9.14 13.41m58.5-12.41c-6.34 1.34-12.52-2.5-13.8-8.56-1.3-6.06 2.8-12.06 9.13-13.4 6.33-1.35 12.5 2.48 13.79 8.54 1.29 6.07-2.8 12.07-9.13 13.42m58.48-12.4c-6.33 1.33-12.5-2.5-13.79-8.57-1.28-6.06 2.8-12.06 9.13-13.4s12.5 2.48 13.8 8.54c1.28 6.07-2.8 12.08-9.14 13.42m58.5-12.42c-6.34 1.35-12.52-2.48-13.8-8.55-1.29-6.06 2.8-12.06 9.14-13.4 6.32-1.35 12.5 2.47 13.79 8.54s-2.8 12.07-9.14 13.41" style="fill:#fbf3a7"/><path d="M188.57 486.84h332.02v5.21H188.57z" style="fill:#ffd742" transform="rotate(-11.98 354.52 489.38)"/><path d="M195.77 520.79h332.02v5.22H195.77z" style="fill:#ffd742" transform="rotate(-11.98 361.72 523.33)"/><path d="M202.97 554.76h332.02v5.21H202.97z" style="fill:#ffd742" transform="rotate(-11.98 368.92 557.29)"/><path d="M210.17 588.72h332.02v5.21H210.17z" style="fill:#ffd742" transform="rotate(-11.98 376.12 591.24)"/><path d="M217.38 622.68H549.4v5.21H217.38z" style="fill:#ffd742" transform="rotate(-11.98 383.32 625.2)"/><path d="M224.58 656.64h332.03v5.21H224.58z" style="fill:#ffd742" transform="rotate(-11.98 390.52 659.15)"/><path d="M231.78 690.6H563.8v5.21H231.78z" style="fill:#ffd742" transform="rotate(-11.98 397.72 693.1)"/><path d="M238.99 724.56h332.02v5.21H238.99z" style="fill:#ffd742" transform="rotate(-11.98 404.92 727.06)"/><path d="M246.19 758.53h332.02v5.2H246.19z" style="fill:#ffd742" transform="rotate(-11.98 412.12 761.01)"/><path d="M253.39 792.48h332.02v5.21H253.39z" style="fill:#ffd742" transform="rotate(-11.98 419.33 794.98)"/><path d="M260.59 826.45h332.02v5.21H260.59z" style="fill:#ffd742" transform="rotate(-11.98 426.53 828.93)"/><path d="M267.8 860.41h332.03v5.2H267.8z" style="fill:#ffd742" transform="rotate(-11.98 433.73 862.89)"/><path d="m277.11 954-14.82-9.19 361.48-76.67 14.82 9.19z" style="fill:#fbcf78"/><path d="m532.3 377.86-14.41-8.93 105.88 499.21 14.82 9.19z" style="fill:#fbe697"/><path d="M186.95 416.65c-1.48-2.08-3.11-3.2-4.92-2.81-5.6 1.19-3.89 15.13-1.45 26.63a109 109 0 0 0 3.57 13.22c2.25 6.46 5.12 11.25 8.56 10.52 1.81-.39 2.85-2.06 3.36-4.56.68-3.36.4-8.18-.3-13.25a135 135 0 0 0-1.6-8.82c-1.65-7.81-4.08-16.52-7.22-20.93m3.41 30.74c.49 3.67.64 6.6.63 8.72a63 63 0 0 1-2.74-7.53q-1.21-3.94-2.35-9.24c-1.68-7.92-2.18-13.84-2.16-17.4 1.5 3.24 3.44 8.85 5.12 16.77.59 2.78 1.28 5.7 2.05 8.47z" style="fill:#808285"/><path d="M198.8 446.93c.36 3.08.48 5.58.46 7.42a62 62 0 0 1-2.86-7.91 113 113 0 0 1-2.22-8.86c-1.68-7.91-2.2-13.83-2.16-17.4 1.48 3.24 3.41 8.86 5.1 16.78l5.31-1.13c-2.43-11.5-6.51-24.94-12.13-23.74-1.8.38-2.84 2.06-3.35 4.56-1.07 5.3.25 14.25 1.9 22.06.6 2.78 1.29 5.7 2.06 8.47 1.42 5.02 3.14 9.63 5.16 12.47 1.49 2.08 3.12 3.18 4.91 2.8 3.15-.66 4-5.33 3.67-11.35a11 11 0 0 0-5.85-4.17m46.07-42.53c-1.48-2.1-3.13-3.22-4.94-2.84-5.61 1.19-3.88 15.12-1.44 26.62 1 4.71 2.27 9.76 3.83 13.98 2.2 6.09 4.98 10.47 8.3 9.76 1.8-.38 2.85-2.07 3.35-4.6.69-3.39.4-8.24-.33-13.36a144 144 0 0 0-1.58-8.66c-1.66-7.8-4.05-16.5-7.2-20.9m3.42 30.86c.46 3.61.63 6.48.6 8.57a62 62 0 0 1-2.66-7.28c-.81-2.67-1.65-5.85-2.43-9.5-1.68-7.91-2.2-13.83-2.15-17.4 1.48 3.25 3.42 8.87 5.1 16.78.6 2.82 1.29 5.74 2.09 8.55q-.29.13-.55.28" style="fill:#808285"/><path d="M256.66 434.33c.4 3.22.53 5.82.51 7.74a65 65 0 0 1-2.93-8.07 120 120 0 0 1-2.18-8.7c-1.68-7.91-2.17-13.84-2.13-17.4 1.48 3.24 3.42 8.86 5.1 16.78l5.3-1.13c-2.43-11.5-6.5-24.94-12.12-23.75-1.8.39-2.86 2.08-3.34 4.6-1.1 5.3.22 14.24 1.88 22.03a127 127 0 0 0 2.1 8.56c1.4 4.97 3.1 9.52 5.12 12.34 1.47 2.1 3.12 3.23 4.92 2.84 3.32-.7 4.08-5.85 3.62-12.3a11.6 11.6 0 0 0-5.85-3.54m47.17-42.47c-1.47-2.08-3.12-3.2-4.92-2.81-5.62 1.2-3.89 15.13-1.45 26.63a107 107 0 0 0 3.6 13.35c2.25 6.41 5.1 11.11 8.53 10.39 1.8-.39 2.86-2.06 3.36-4.56.68-3.36.41-8.2-.31-13.28a135 135 0 0 0-1.6-8.79c-1.65-7.81-4.07-16.53-7.21-20.93m3.41 30.77c.49 3.66.64 6.6.63 8.69a60 60 0 0 1-2.74-7.48q-1.21-3.96-2.36-9.3c-1.68-7.9-2.2-13.83-2.15-17.39 1.49 3.24 3.43 8.86 5.11 16.77.6 2.78 1.29 5.7 2.06 8.49q-.28.09-.55.22" style="fill:#808285"/><path d="M315.66 422.07q.54 4.67.49 7.5a58 58 0 0 1-2.88-7.97q-1.14-3.78-2.22-8.8c-1.68-7.92-2.2-13.84-2.15-17.4 1.48 3.23 3.4 8.85 5.09 16.77l5.32-1.13c-2.44-11.5-6.51-24.94-12.13-23.75-1.8.39-2.84 2.07-3.35 4.57-1.08 5.3.25 14.25 1.9 22.06.6 2.78 1.29 5.7 2.06 8.49 1.42 5 3.13 9.6 5.16 12.45 1.48 2.08 3.12 3.18 4.92 2.8 3.17-.67 4-5.43 3.65-11.52a11.4 11.4 0 0 0-5.86-4.07m46.07-42.49c-1.47-2.08-3.12-3.2-4.9-2.81-5.62 1.19-3.88 15.12-1.44 26.62 1 4.75 2.3 9.85 3.87 14.1 2.2 6 4.95 10.34 8.25 9.64 1.79-.38 2.84-2.05 3.34-4.55.71-3.4.42-8.3-.32-13.42-.42-2.88-.98-5.85-1.57-8.65-1.66-7.81-4.08-16.53-7.23-20.93m3.43 30.9c.49 3.6.65 6.47.63 8.55a62 62 0 0 1-2.67-7.22c-.8-2.69-1.64-5.88-2.42-9.55-1.68-7.92-2.2-13.84-2.15-17.4 1.48 3.24 3.41 8.86 5.09 16.78.6 2.82 1.3 5.77 2.1 8.58z" style="fill:#808285"/><path d="M373.55 409.5q.56 4.87.52 7.78a63 63 0 0 1-2.94-8.1c-.73-2.5-1.48-5.4-2.17-8.67-1.68-7.91-2.18-13.84-2.14-17.4 1.48 3.24 3.42 8.86 5.1 16.77l5.32-1.12c-2.44-11.5-6.52-24.94-12.13-23.75-1.82.39-2.87 2.07-3.38 4.57-1.07 5.3.25 14.25 1.91 22.06.6 2.82 1.3 5.77 2.1 8.59 1.4 4.97 3.11 9.54 5.11 12.35 1.48 2.08 3.13 3.18 4.94 2.8 3.33-.7 4.08-5.9 3.6-12.41a11.4 11.4 0 0 0-5.84-3.47m47.12-42.38c-1.48-2.09-3.13-3.21-4.92-2.83-5.62 1.19-3.9 15.11-1.47 26.6v.02c.97 4.57 2.21 9.44 3.7 13.56 2.24 6.3 5.06 10.9 8.45 10.18 1.79-.38 2.84-2.07 3.35-4.57.69-3.37.4-8.22-.34-13.31a123 123 0 0 0-1.57-8.74v-.01c-1.66-7.82-4.07-16.52-7.2-20.9m3.41 30.77c.48 3.66.66 6.57.64 8.67a62 62 0 0 1-2.73-7.43q-1.24-3.94-2.4-9.34v-.02c-1.67-7.9-2.16-13.82-2.12-17.38 1.46 3.24 3.41 8.85 5.09 16.75v.02c.6 2.8 1.29 5.7 2.06 8.5q-.29.08-.54.23" style="fill:#808285"/><path d="M432.49 397.2a60 60 0 0 1 .48 7.6 62 62 0 0 1-2.88-8q-1.15-3.76-2.22-8.77v-.01c-1.67-7.9-2.2-13.82-2.15-17.38 1.49 3.23 3.44 8.85 5.11 16.75l5.32-1.13c-2.44-11.5-6.52-24.92-12.15-23.72-1.8.38-2.83 2.07-3.33 4.58-1.1 5.28.23 14.21 1.89 22.02v.02c.6 2.8 1.28 5.7 2.06 8.5 1.41 5 3.13 9.6 5.16 12.42 1.47 2.08 3.1 3.2 4.9 2.82 3.23-.68 4.03-5.55 3.67-11.78a11.3 11.3 0 0 0-5.86-3.92m43.97-41.96c-1.48-2.07-3.13-3.18-4.92-2.8-5.62 1.19-3.9 15.13-1.46 26.63 1.42 6.7 3.4 14.05 5.91 18.8 1.83 3.38 3.9 5.43 6.23 4.93 1.8-.38 2.85-2.06 3.36-4.55.69-3.45.37-8.43-.38-13.65-.41-2.8-.95-5.69-1.53-8.42-1.66-7.81-4.08-16.53-7.21-20.94m3.54 31.83c.38 3.19.51 5.75.5 7.63a62 62 0 0 1-2.24-5.88c-.95-2.93-1.95-6.57-2.86-10.88-1.68-7.92-2.18-13.84-2.15-17.4 1.47 3.24 3.42 8.85 5.1 16.77a130 130 0 0 0 2.3 9.29q-.33.2-.65.47" style="fill:#808285"/><path d="M488.77 392.95a62 62 0 0 1-3.02-8.43q-1.06-3.62-2.08-8.34c-1.68-7.92-2.19-13.84-2.15-17.4 1.48 3.24 3.43 8.86 5.11 16.77l5.32-1.12c-2.44-11.5-6.53-24.94-12.15-23.75-1.8.38-2.84 2.06-3.34 4.56-1.09 5.3.24 14.26 1.9 22.07a130 130 0 0 0 2.3 9.29c1.36 4.7 2.99 8.96 4.92 11.65 1.47 2.08 3.11 3.18 4.9 2.8 3.76-.8 4.23-7.3 3.4-14.98a11.6 11.6 0 0 0-5.71-1.7c.47 3.6.62 6.5.6 8.58" style="fill:#808285"/><radialGradient id="b" cx="738.92" cy="230.63" r="185.21" gradientTransform="rotate(20.74 717.35 242.57)" gradientUnits="userSpaceOnUse"><stop offset=".49" style="stop-color:#939598"/><stop offset=".57" style="stop-color:#989a9c"/><stop offset=".67" style="stop-color:#a5a7a9"/><stop offset=".78" style="stop-color:#bbbdbf"/><stop offset=".89" style="stop-color:#dadcdc"/><stop offset=".95" style="stop-color:#f1f2f2"/><stop offset=".97" style="stop-color:#eeefef"/><stop offset=".98" style="stop-color:#e6e7e7"/><stop offset=".99" style="stop-color:#d7d8d9"/><stop offset=".99" style="stop-color:#c2c3c5"/><stop offset="1" style="stop-color:#a7a9ac"/></radialGradient><path d="M914.97 304.67c-36.24 95.66-143.15 143.83-238.81 107.6S532.33 269.1 568.56 173.45 711.71 29.63 807.38 65.87c95.65 36.23 143.82 143.15 107.59 238.8" style="fill:url(#b)"/><path d="M926.2 300.69a25.3 25.3 0 0 1-32.57 14.83l-36.49-13.82a25.3 25.3 0 0 1-14.57-32.7 25.3 25.3 0 0 1 32.57-14.82l36.5 13.82a25.3 25.3 0 0 1 14.57 32.69" style="fill:#d1d3d4"/><path d="M925.7 300.5a24.95 24.95 0 0 1-32.2 14.41l-36.2-13.7a24.95 24.95 0 0 1-14.56-32.14 24.95 24.95 0 0 1 32.2-14.41l36.19 13.7a24.95 24.95 0 0 1 14.57 32.14" style="fill:#d2d4d5"/><path d="M925.2 300.3c-4.77 12.6-19.02 18.86-31.83 14l-35.9-13.59c-12.8-4.85-19.33-18.99-14.56-31.57s19.02-18.85 31.83-14l35.89 13.6c12.81 4.85 19.33 18.98 14.56 31.57" style="fill:#d3d5d6"/><path d="M924.69 300.12c-4.67 12.31-18.75 18.4-31.45 13.58l-35.6-13.48c-12.7-4.82-19.22-18.7-14.56-31.02 4.67-12.31 18.75-18.4 31.45-13.58l35.6 13.48c12.7 4.81 19.23 18.7 14.56 31.02" style="fill:#d5d7d7"/><path d="M924.19 299.93c-4.57 12.04-18.48 17.94-31.08 13.17l-35.3-13.38c-12.6-4.77-19.12-18.4-14.55-30.45 4.56-12.05 18.47-17.94 31.07-13.17l35.3 13.37c12.6 4.77 19.12 18.4 14.55 30.45" style="fill:#d6d8d9"/><path d="M923.68 299.73c-4.46 11.78-18.2 17.5-30.7 12.76l-35-13.26c-12.5-4.73-19.01-18.12-14.55-29.9s18.2-17.48 30.7-12.75l35 13.26c12.5 4.73 19.01 18.12 14.55 29.9" style="fill:#d7d9da"/><path d="M923.18 299.54c-4.36 11.51-17.94 17.04-30.33 12.35l-34.71-13.15c-12.39-4.7-18.9-17.83-14.54-29.34s17.94-17.03 30.32-12.34l34.72 13.15c12.39 4.69 18.9 17.82 14.54 29.33" style="fill:#d8dadb"/><path d="M922.67 299.35c-4.26 11.24-17.67 16.58-29.95 11.93l-34.42-13.04c-12.28-4.65-18.78-17.54-14.53-28.77 4.26-11.25 17.67-16.58 29.95-11.93l34.42 13.04c12.28 4.65 18.79 17.53 14.53 28.77" style="fill:#dadbdc"/><path d="M922.17 299.16c-4.16 10.97-17.4 16.13-29.58 11.51l-34.12-12.92c-12.18-4.61-18.68-17.25-14.52-28.22s17.4-16.12 29.57-11.51l34.12 12.93c12.18 4.6 18.68 17.24 14.53 28.21" style="fill:#dbdddd"/><path d="M921.66 298.97c-4.05 10.7-17.13 15.67-29.2 11.1l-33.83-12.82c-12.07-4.57-18.57-16.95-14.51-27.65 4.05-10.7 17.12-15.67 29.2-11.1l33.82 12.81c12.08 4.57 18.58 16.96 14.52 27.66" style="fill:#dcdede"/><path d="M921.16 298.78c-3.96 10.43-16.86 15.21-28.82 10.68l-33.54-12.7c-11.96-4.53-18.46-16.67-14.51-27.1s16.86-15.22 28.82-10.68l33.54 12.7c11.96 4.53 18.46 16.66 14.5 27.1" style="fill:#dddfe0"/><path d="M920.65 298.59c-3.85 10.16-16.59 14.76-28.44 10.27l-33.25-12.6c-11.85-4.49-18.35-16.37-14.5-26.53s16.59-14.76 28.45-10.27l33.24 12.59c11.86 4.49 18.35 16.37 14.5 26.54" style="fill:#dfe0e1"/><path d="M920.15 298.4c-3.75 9.89-16.32 14.3-28.07 9.85l-32.95-12.48c-11.75-4.45-18.24-16.09-14.5-25.98 3.75-9.9 16.32-14.3 28.07-9.85l32.95 12.48c11.75 4.45 18.25 16.08 14.5 25.97" style="fill:#e0e1e2"/><path d="M919.64 298.2c-3.64 9.63-16.05 13.86-27.69 9.45l-32.65-12.37c-11.65-4.41-18.14-15.8-14.5-25.42 3.66-9.63 16.06-13.85 27.7-9.44l32.65 12.37c11.65 4.4 18.14 15.79 14.5 25.41" style="fill:#e1e3e3"/><path d="M919.14 298.01c-3.55 9.36-15.78 13.4-27.32 9.03l-32.36-12.26c-11.54-4.37-18.02-15.5-14.48-24.86 3.55-9.36 15.78-13.4 27.32-9.02l32.36 12.26c11.54 4.36 18.02 15.5 14.48 24.85" style="fill:#e2e4e4"/><path d="M918.63 297.82c-3.44 9.09-15.5 12.95-26.94 8.62l-32.06-12.15c-11.44-4.33-17.92-15.22-14.48-24.3 3.45-9.1 15.51-12.95 26.94-8.61l32.07 12.14c11.43 4.33 17.92 15.21 14.47 24.3" style="fill:#e3e5e5"/><path d="M918.13 297.63c-3.34 8.82-15.24 12.49-26.57 8.2L859.8 293.8c-11.32-4.3-17.8-14.93-14.46-23.75s15.23-12.48 26.56-8.2l31.77 12.04c11.33 4.3 17.81 14.92 14.47 23.74" style="fill:#e5e6e6"/><path d="M917.62 297.44c-3.23 8.55-14.97 12.03-26.19 7.78l-31.47-11.92c-11.23-4.25-17.7-14.63-14.46-23.18s14.96-12.03 26.19-7.78l31.47 11.92c11.22 4.25 17.7 14.63 14.46 23.18" style="fill:#e6e7e8"/><path d="M917.12 297.25c-3.14 8.28-14.7 11.58-25.82 7.37l-31.18-11.81c-11.11-4.21-17.59-14.35-14.45-22.63s14.7-11.58 25.81-7.37l31.19 11.82c11.1 4.2 17.59 14.33 14.45 22.62" style="fill:#e7e8e9"/><path d="M916.61 297.06c-3.03 8-14.43 11.12-25.44 6.95l-30.88-11.7c-11.01-4.17-17.48-14.05-14.45-22.06 3.04-8.02 14.43-11.12 25.44-6.95l30.89 11.7c11 4.17 17.48 14.04 14.44 22.06" style="fill:#e8eaea"/><path d="M916.1 296.87c-2.92 7.74-14.15 10.67-25.06 6.54l-30.59-11.6c-10.9-4.12-17.37-13.76-14.44-21.5s14.16-10.67 25.07-6.54l30.59 11.6c10.9 4.12 17.37 13.75 14.44 21.5" style="fill:#eaebeb"/><path d="M915.6 296.67c-2.83 7.48-13.89 10.22-24.68 6.13l-30.3-11.48c-10.8-4.09-17.26-13.47-14.43-20.94s13.88-10.22 24.68-6.13l30.3 11.48c10.8 4.1 17.27 13.47 14.43 20.94" style="fill:#ebecec"/><path d="M915.1 296.48c-2.73 7.2-13.62 9.77-24.31 5.72l-30-11.37c-10.7-4.05-17.16-13.18-14.43-20.39 2.73-7.2 13.62-9.76 24.31-5.7l30 11.36c10.7 4.05 17.16 13.18 14.43 20.38" style="fill:#eceded"/><path d="M914.6 296.3c-2.63 6.93-13.36 9.3-23.94 5.29l-29.71-11.25c-10.59-4.01-17.05-12.9-14.42-19.83 2.63-6.94 13.35-9.3 23.94-5.3l29.7 11.26c10.59 4 17.05 12.88 14.43 19.82" style="fill:#edeeef"/><path d="M914.1 296.1c-2.53 6.67-13.1 8.85-23.57 4.88l-29.41-11.14c-10.49-3.97-16.94-12.6-14.42-19.27s13.08-8.85 23.56-4.87l29.42 11.14c10.48 3.97 16.94 12.6 14.41 19.26" style="fill:#eff0f0"/><path d="M913.59 295.91c-2.43 6.4-12.82 8.4-23.2 4.47l-29.1-11.03c-10.38-3.93-16.84-12.31-14.42-18.71 2.43-6.4 12.81-8.4 23.19-4.47l29.12 11.04c10.37 3.93 16.83 12.3 14.4 18.7" style="fill:#f0f1f1"/><path d="M913.08 295.72c-2.32 6.12-12.54 7.94-22.81 4.05l-28.82-10.91c-10.27-3.9-16.72-12.03-14.4-18.15 2.32-6.14 12.54-7.94 22.8-4.05l28.83 10.91c10.27 3.9 16.72 12.02 14.4 18.15" style="fill:#f1f2f2"/><radialGradient id="c" cx="738.92" cy="230.64" r="144.5" gradientTransform="rotate(20.74 717.35 242.57)" gradientUnits="userSpaceOnUse"><stop offset=".82" style="stop-color:#a3a5a8"/><stop offset=".84" style="stop-color:#bfc0c2"/><stop offset=".87" style="stop-color:#dbdbdd"/><stop offset=".9" style="stop-color:#efeff0"/><stop offset=".93" style="stop-color:#fbfbfb"/><stop offset=".96" style="stop-color:#fff"/><stop offset=".96" style="stop-color:#fafafa"/><stop offset=".97" style="stop-color:#ececed"/><stop offset=".98" style="stop-color:#d5d5d7"/><stop offset="1" style="stop-color:#b4b6b8"/><stop offset="1" style="stop-color:#a3a5a8"/></radialGradient><path d="M876.9 290.25c-28.27 74.64-111.69 112.22-186.32 83.95-74.64-28.27-112.22-111.7-83.95-186.33s111.7-112.2 186.33-83.94c74.63 28.28 112.21 111.7 83.94 186.32" style="fill:url(#c)"/><path d="M852.26 280.92c-23.12 61.02-91.33 91.75-152.34 68.63-61.03-23.11-91.76-91.32-68.65-152.34 23.12-61.02 91.33-91.74 152.35-68.63s91.75 91.32 68.63 152.34" style="fill:#2e1b09"/><linearGradient id="d" x1="657.53" x2="736.21" y1="110.35" y2="338.46" gradientTransform="rotate(20.74 717.35 242.57)" gradientUnits="userSpaceOnUse"><stop offset="0" style="stop-color:#9c7959"/><stop offset=".49" style="stop-color:#7f602c"/><stop offset="1" style="stop-color:#634700"/></linearGradient><path d="M783.62 128.58c-61.02-23.11-129.23 7.61-152.35 68.63-18.63 49.17-2.27 103.01 36.7 134.15 1.7-.56 2.72-2.38 2.41-6.23-.5-6.28-6.08-10.62-9.91-15.04-2.49-2.85-5.15-6.42-5.83-10.13-.76-4.22.77-8.33-.86-12.85-2.71-7.5-8.69-14.83-9.2-23-.26-4.47 3.4-8.45 4.12-12.84.87-5.11-1.04-8.03-2.95-12.62-3.28-7.86-7.52-15.64-4.34-24.04 1.9-5.02 4.76-6.74 7.51-10.61 3.04-4.27 2.84-8.4 6.93-11.92 3.64-3.14 6.94-4.43 9.9-8.18 3.29-4.18 6.75-7.46 10.35-11.2 1.96-2.05 1.67-3.82 4.38-5.66 1.96-1.33 4.77-1.29 6.68-2.9 3.55-3.02 4.86-7.86 9.35-10.26 3.76-2.03 5.57-2.53 8.67-5.32 3.6-3.26 5.48-4.2 10.68-4.6 8.95-.65 17.1-.97 25.2-4.3 9.84-4.05 16.89-3.2 27.3-2.9 6.36.2 16.61.12 19.42-6.5q-2.07-.88-4.16-1.68M647.49 292.05c.7.27 1.06 1.02.81 1.69s-1.02.98-1.72.72a1.3 1.3 0 0 1-.82-1.69 1.3 1.3 0 0 1 1.73-.72m-6.75-6.95c1.11.42 1.71 1.63 1.3 2.7-.4 1.05-1.64 1.57-2.76 1.14a2.1 2.1 0 0 1-1.3-2.69 2.1 2.1 0 0 1 2.76-1.15m-.06-11.69c1.04.4 1.59 1.52 1.21 2.5-.37.99-1.52 1.46-2.56 1.06-1.03-.39-1.58-1.5-1.2-2.49.36-.98 1.51-1.46 2.55-1.07m-6.31-8.76a.8.8 0 0 1-1.08.46.83.83 0 0 1-.5-1.06c.15-.41.64-.61 1.08-.45.42.17.65.64.5 1.05m.19-5.28a1.3 1.3 0 0 1 .8 1.67 1.3 1.3 0 0 1-1.7.72c-.72-.26-1.08-1.01-.82-1.67.24-.66 1.01-.99 1.72-.72m-1.18-11.84a2.46 2.46 0 0 1 1.45 3.16 2.46 2.46 0 0 1-3.18 1.4 2.45 2.45 0 0 1-1.45-3.15 2.46 2.46 0 0 1 3.18-1.4m14.84-59.16c-.3.8-1.24 1.2-2.1.87a1.6 1.6 0 0 1-.98-2.04 1.6 1.6 0 0 1 2.08-.88c.86.33 1.3 1.24 1 2.05m.3-8.72c.83.32 1.26 1.2.97 1.98a1.57 1.57 0 0 1-2.04.86 1.56 1.56 0 0 1-.96-2c.3-.77 1.2-1.15 2.03-.84m-15.33 21.36a2.2 2.2 0 0 1 2.9-1.21c1.19.45 1.81 1.71 1.39 2.83s-1.73 1.66-2.92 1.21a2.23 2.23 0 0 1-1.37-2.83m-3.07 32.88c-.85-.32-1.3-1.23-1-2.03s1.24-1.18 2.09-.86 1.27 1.22.97 2.02-1.22 1.19-2.06.87m1.7-10.56a4.05 4.05 0 0 1-2.49-5.16 4.05 4.05 0 0 1 5.28-2.2 4.06 4.06 0 0 1 2.5 5.15 4.05 4.05 0 0 1-5.29 2.2m23.78-47.1a2.3 2.3 0 0 1-1.43-2.95 2.33 2.33 0 0 1 3.03-1.27 2.33 2.33 0 0 1 1.43 2.96 2.3 2.3 0 0 1-3.02 1.26m7.94-15.57a.5.5 0 0 1-.3-.63.5.5 0 0 1 .64-.27c.28.1.42.39.32.64s-.39.37-.66.26m8.55-.58c.46.18.7.67.53 1.11s-.67.65-1.13.47c-.46-.17-.7-.67-.54-1.1s.67-.65 1.13-.48m-3.63 9.35a2.07 2.07 0 0 1-1.27-2.62c.39-1.04 1.6-1.54 2.7-1.12a2.06 2.06 0 0 1 1.27 2.62 2.07 2.07 0 0 1-2.7 1.13m8.85-11.51c-1.27-.49-1.94-1.86-1.49-3.07a2.4 2.4 0 0 1 3.16-1.32 2.4 2.4 0 0 1 1.48 3.08c-.45 1.2-1.87 1.8-3.15 1.3m10.3-7.92a1.87 1.87 0 0 1-1.15-2.37c.35-.92 1.44-1.37 2.43-1 .98.38 1.5 1.43 1.14 2.36a1.86 1.86 0 0 1-2.42 1.01m9.43-9.43c-.17-.07-.26-.26-.2-.42a.33.33 0 0 1 .44-.2c.18.08.27.27.2.44-.05.16-.25.25-.44.18m17.78-4.8c-.65-.25-.98-.94-.76-1.53.23-.6.94-.9 1.58-.66s.96.93.74 1.53c-.23.6-.93.9-1.56.65m13 2.41a4.73 4.73 0 0 1-2.92-6c.9-2.38 3.67-3.52 6.17-2.58a4.73 4.73 0 0 1 2.91 6.02c-.89 2.36-3.65 3.51-6.16 2.56m13.7-7.8a.84.84 0 0 1-.5-1.05.84.84 0 0 1 1.07-.45c.44.17.67.64.52 1.05s-.64.61-1.08.45m13.62.93c-.74-.28-1.13-1.07-.87-1.75.26-.7 1.08-1.03 1.81-.75.73.27 1.11 1.06.85 1.76a1.4 1.4 0 0 1-1.8.74m9.71 2.95c-.57-.22-.87-.82-.66-1.36s.82-.8 1.4-.57c.55.2.84.8.64 1.34s-.83.8-1.38.59m9.24-.37a1.53 1.53 0 0 1-.94-1.95 1.53 1.53 0 0 1 2-.84c.8.31 1.23 1.19.94 1.95-.29.77-1.2 1.14-2 .84" style="fill:url(#d)"/><linearGradient id="e" x1="794.65" x2="811.45" y1="115.29" y2="164" gradientTransform="rotate(20.74 717.35 242.57)" gradientUnits="userSpaceOnUse"><stop offset="0" style="stop-color:#b88e69"/><stop offset=".56" style="stop-color:#936e2c"/><stop offset="1" style="stop-color:#785600"/></linearGradient><path d="M819.99 150.49c-5.68 1.88-6.32 10.26-4.34 16.6 1.28 4.05 3.86 7.23 6.84 10.14 1.17 1.14 9.84 6.85 9.7 8.05-1 8.99 4.23 14.15 11.98 16.55 4.19 1.29 5.71 2.04 8.54-1.61q.2-.28.4-.61A118.4 118.4 0 0 0 820 150.49m.62 7.6a.9.9 0 0 1-.54-1.11.87.87 0 0 1 1.14-.47c.46.17.7.66.54 1.1a.87.87 0 0 1-1.14.47m4.39 7.06c-.67-.26-1-.97-.77-1.6.24-.63.97-.94 1.63-.68.68.25 1.02.96.78 1.59s-.97.94-1.64.69m2.61 11.34c-1.92-.73-2.92-2.8-2.23-4.6a3.6 3.6 0 0 1 4.72-1.97 3.6 3.6 0 0 1 2.23 4.6c-.68 1.81-2.8 2.7-4.72 1.97m8.38-1.33a.87.87 0 0 1-.53-1.1.9.9 0 0 1 1.13-.49c.48.19.71.68.55 1.12-.17.44-.67.65-1.15.47m-1.54 17.5a1.85 1.85 0 0 1-1.14-2.35 1.85 1.85 0 0 1 2.4-1c1 .37 1.5 1.42 1.15 2.34a1.84 1.84 0 0 1-2.41 1m5.75-6.27a2 2 0 0 1-1.24-2.56c.38-1 1.56-1.5 2.62-1.09 1.07.4 1.63 1.55 1.25 2.55a2 2 0 0 1-2.63 1.1m3.17 6.4a.7.7 0 0 1-.42-.87.7.7 0 0 1 .89-.37c.37.14.55.52.42.87s-.52.5-.89.37" style="fill:url(#e)"/><linearGradient id="f" x1="714.24" x2="831.4" y1="181.99" y2="310.39" gradientTransform="rotate(20.74 717.35 242.57)" gradientUnits="userSpaceOnUse"><stop offset="0" style="stop-color:#2e1b09"/><stop offset=".78" style="stop-color:#3d3735"/><stop offset="1" style="stop-color:#414042"/></linearGradient><path d="M852.26 280.92a117.6 117.6 0 0 0 3.98-71.08c-10.33-1.73-20.74-.83-31.24-3.75-17.07-4.75-31.72-14.78-48.2-20.08-14.45-4.64-35.72-2.19-44.52 10.84-9.02 13.4-13.97 28.9-19.16 44.17-4.19 12.32-8.27 26.8-16.76 36.17-2.95 3.23-6.88 5.76-9.15 9.85-2.97 5.38-5.14 13.29-4.73 19.3.74 10.95-.49 23.62 4.68 33.5.81 1.56 1.65 3.37 2.54 5.28q4.95 2.43 10.21 4.43c61.02 23.12 129.23-7.6 152.35-68.63" style="fill:url(#f)"/><path d="M49.57 203.65s312.13-62.52 332.72-62.28 98.13 14 111.19 17.2c13.05 3.22 36.38 19.3 35.54 26.08-.83 6.77-33.57 6.47-39.98 3.67-6.41-2.81-70.32-36.06-98.7-34.75-21.19.99-212.38 49.38-226.15 53.38S57.48 230.9 57.48 230.9z" style="fill:#231f20"/><path d="M470.74 76.67c-57.9 22.31-286.05 110.47-301.13 120.27-17.26 11.23-75.41 64.31-84.72 74.01S64.47 306.73 68.79 312c4.34 5.28 31.83-12.5 35.75-18.3s40.12-68.07 64.8-82.14c18.43-10.51 205.86-71.9 219.62-75.9 10.44-3.02 64.2-22.64 89.62-31.95z" style="fill:#231f20"/><path d="M138.06 148.71C101 159.46 46.2 184.21 42.4 190.44s-1.04 19.8 9.08 39.35c25.12 48.54 66.44 94.55 131.12 75.8 88.21-25.59 75.14-124.26 89.43-128.4l-7.99-27.54c-21.16 6.14-72.2-16.53-126-.94M180.59 297c-54.42 13.91-77.4-15.23-84.36-22.8-6.95-7.6-34.82-51.48-29.97-69.06 4.17-15.07 54.13-31.24 83.4-39.73 29.39-8.52 87.2-19.69 100.6 9.39 13.41 29.07-15.24 108.28-69.67 122.2" style="fill:#231f20"/><path d="M66.26 205.14c4.17-15.07 54.13-31.24 83.4-39.73 29.39-8.52 87.2-19.69 100.6 9.39 13.41 29.07-15.24 108.28-69.67 122.2-54.42 13.91-77.4-15.23-84.36-22.8-6.95-7.6-34.82-51.48-29.97-69.06" style="opacity:.5;fill:#d7f0f9"/><path d="M473.14 65.54C466.6 62.31 407.07 70.7 370 81.45c-53.78 15.6-84.78 62.06-105.95 68.2l7.99 27.54c14.28-4.15 56.03 86.21 144.24 60.63 64.69-18.75 74.99-79.73 70.25-134.18-1.93-21.94-6.86-34.86-13.39-38.1m-.67 99.55c-1.82 10.13-5.64 47.04-59.07 64.4s-120-34.24-124.24-65.97c-4.23-31.74 50.59-53.23 79.99-61.76 29.26-8.48 80.12-21.55 91.7-11.04 13.5 12.26 13.44 64.24 11.62 74.37" style="fill:#231f20"/><path d="M460.86 90.72c-11.6-10.5-62.46 2.56-91.71 11.04-29.4 8.53-84.22 30.02-80 61.76 4.24 31.73 70.81 83.33 124.24 65.97 53.44-17.36 57.26-54.27 59.08-64.4s1.88-62.11-11.62-74.37" style="opacity:.5;fill:#d7f0f9"/></svg>