<svg xmlns="http://www.w3.org/2000/svg" xmlns:xlink="http://www.w3.org/1999/xlink" xml:space="preserve" viewBox="0 0 1200 800"><path d="M0 0h1200v800H0z" style="fill:#f2a8a2"/><defs><path id="a" d="M0 0h1200v800H0z"/></defs><clipPath id="b"><use xlink:href="#a" style="overflow:visible"/></clipPath><g style="clip-path:url(#b)"><path d="M735.52 625.01s14.42 21.95-22.7 59.07-59.07 22.7-59.07 22.7L572 625l81.76-81.76z" style="fill:#b57777"/><path d="m708.22 618.39-5.3-5.3-5.35-5.27c2.24-2.32 8.88-10.59.04-19.43l-14.91-14.91c-1.43-1.44-2.4-1.86-2.64-1.9.28.04.77-.05 1.56-.78l-10.2-11c3.38-3.13 12.3-6.52 21.89 3.07l14.9 14.9c14.9 14.9 8.17 32.46 0 40.62" style="fill:#b57777"/><circle cx="592.44" cy="564.2" r="95.95" style="fill:#b57777"/><circle cx="580.06" cy="551.82" r="95.95" style="fill:#e8e5dc" transform="rotate(-45 580.06 551.82)"/><defs><circle id="c" cx="580.06" cy="551.82" r="95.95" transform="rotate(-45 580.06 551.82)"/></defs><clipPath id="d"><use xlink:href="#c" style="overflow:visible"/></clipPath><path d="m532.61 586.37 87.9 87.91 88.26-76.77-86.62-86.62z" style="clip-path:url(#d);fill:#ab9f98"/><circle cx="580.06" cy="551.82" r="58.71" style="fill:#fff" transform="rotate(-76.71 580.1 551.82)"/><path d="M621.58 510.3a58.71 58.71 0 0 1-83.03 83.04" style="fill:#fff"/><circle cx="580.06" cy="551.82" r="47.46" style="fill:#4a3535" transform="rotate(-22.5 580.05 551.81)"/><path d="M640.59 551.82h21.91" style="fill:none;stroke:#fff;stroke-width:17;stroke-linecap:round;stroke-linejoin:round;stroke-miterlimit:10"/><g style="opacity:.8"><path d="M603.41 553.2h-14.03a10.3 10.3 0 0 1-10.32-10.3v-14.04c0-7.3 7.42-12.4 14.15-9.58A37 37 0 0 1 613 539.05c2.82 6.74-2.28 14.16-9.58 14.16" style="fill:#ebb96a"/></g><g style="opacity:.8"><path d="M555.86 564.2h7.02c2.85 0 5.16 2.3 5.16 5.16v7.01c0 3.65-3.71 6.2-7.08 4.8a18.5 18.5 0 0 1-9.88-9.9 5.14 5.14 0 0 1 4.78-7.07" style="fill:#ebb96a"/></g><path d="m201.27 715.26-47.48-47.48a12.04 12.04 0 0 1 0-16.97l110.05-110.05a12.03 12.03 0 0 1 16.97 0l47.48 47.48a12.04 12.04 0 0 1 0 16.97L218.24 715.26a12.04 12.04 0 0 1-16.97 0" style="fill:#b57777"/><path d="m194.6 708.7-47.48-47.5a12.04 12.04 0 0 1 0-16.96l110.05-110.05a12.04 12.04 0 0 1 16.97 0l47.48 47.48a12.04 12.04 0 0 1 0 16.97L211.57 708.7a12.04 12.04 0 0 1-16.97 0" style="fill:#877774"/><path d="m216.38 694.66-55.23-55.23a1.45 1.45 0 0 1 0-2.05l92.94-92.94a1.45 1.45 0 0 1 2.05 0l55.23 55.23c.56.57.56 1.48 0 2.05l-92.94 92.94c-.57.57-1.49.57-2.05 0" style="fill:#241e1e"/><path d="M171.09 581.05h130.33v77H171.09z" style="fill:#363131" transform="rotate(135 236.26 619.55)"/><path d="M185.7 680.48a7.33 7.33 0 1 1-10.37-10.37 7.33 7.33 0 0 1 10.37 10.37" style="fill:#241e1e"/><path d="M176.04 679.77a6.34 6.34 0 1 1 8.98-8.95 6.34 6.34 0 0 1-8.98 8.95" style="fill:#363131"/><path d="m294.21 570.73-9.13-9.13a1.67 1.67 0 0 1 0-2.36 1.7 1.7 0 0 1 2.36 0l9.13 9.13a1.67 1.67 0 0 1-2.36 2.36M282.3 556.7a1.83 1.83 0 1 1-2.6-2.6 1.83 1.83 0 0 1 2.6 2.6" style="fill:#241e1e"/><circle cx="361.05" cy="358.11" r="112.17" style="fill:#b57777"/><circle cx="348.05" cy="346.11" r="112.17" style="fill:#fff" transform="rotate(-45 348.05 346.11)"/><path d="M270.43 348.89a80.32 80.32 0 0 1 160.61-1.35l.04-1.36a83.03 83.03 0 1 0-83.03 83.03l1.35-.03a80.3 80.3 0 0 1-78.97-80.29" style="fill:#ab9f98"/><path d="M314.82 388.3c-8.25-.26-20.64-1.34-30.6-5.15-7.26-2.79-14.48 4.38-11.51 11.57 5.38 13.08 16.84 25.73 41 25.92a8.95 8.95 0 0 0 9.02-8.52l.66-14.51a8.9 8.9 0 0 0-8.57-9.31" style="fill:#ebb96a"/><path d="m313.64 379.65 4.73-1.07a12.6 12.6 0 0 1 14.92 8.82l6.64 23.24a12.6 12.6 0 0 1-9.25 15.74l-6.95 1.62a12.6 12.6 0 0 1-15.26-9.97l-4.42-23.79a12.6 12.6 0 0 1 9.6-14.59" style="fill:#b88f4f"/><path d="m327.93 365.34 13.18-5.28a16 16 0 0 1 19.88 6.96l19.72 34.75a16 16 0 0 1-7.99 22.77l-23.57 9.41a16 16 0 0 1-21.5-11.13l-9.33-38.89a16 16 0 0 1 9.61-18.59m63.61-53.77c-.25-8.24-1.33-20.64-5.15-30.6-2.78-7.26 4.38-14.47 11.57-11.51 13.08 5.39 25.74 16.85 25.93 41a8.95 8.95 0 0 1-8.52 9.02l-14.52.67a8.9 8.9 0 0 1-9.3-8.58" style="fill:#ebb96a"/><path d="m382.9 310.4-1.08 4.72a12.6 12.6 0 0 0 8.83 14.93l23.24 6.64a12.6 12.6 0 0 0 15.73-9.26l1.63-6.95a12.6 12.6 0 0 0-9.97-15.26l-23.79-4.42a12.6 12.6 0 0 0-14.59 9.6" style="fill:#b88f4f"/><path d="m368.59 324.68-5.28 13.19a16 16 0 0 0 6.96 19.87l34.75 19.72a16 16 0 0 0 22.76-7.98l9.42-23.57a16 16 0 0 0-11.13-21.5l-38.89-9.34a16 16 0 0 0-18.6 9.61" style="fill:#ebb96a"/><path d="m345.26 341.85 1.95-1.96a24 24 0 0 1 26.57-5l41.98 18.4a23.97 23.97 0 0 1 7.33 38.9l-27.65 27.64c-12.36 12.37-33.37 7.76-39.43-8.64l-16.28-44.1a24 24 0 0 1 5.53-25.24" style="fill:#b88f4f"/><path d="m354.13 351.84.95-.95a9.13 9.13 0 0 1 12.89 0L403 374.63a11.5 11.5 0 0 1 4.14 14.1c-1.6 3.62-3.86 7.1-5.49 8.72l-.95.96c-1.5 1.5-4.28 3.24-7.26 4.5a11.54 11.54 0 0 1-13.72-3.77l-25.59-34.42a9.14 9.14 0 0 1 0-12.88" style="fill:#ebb96a"/><path d="M419.38 206.66c2.66-7.04-1.97-18.89-9.32-26.24-8.58-8.58-24.13-14.32-30.18-8.27-6.05 6.04-.3 21.6 8.27 30.17 7.42 7.41 19.4 12.05 26.42 9.26 15.87 11.32 37.2 41.05 50.35 54.2 14.14 14.14 22.36 20.05 25.5 16.9s-1.82-10.42-16.9-25.5c-13.23-13.22-42.1-34.33-53.74-50.01z" style="fill:#b57777"/><path d="M409.38 195.66c2.65-7.04-1.97-18.89-9.33-26.24-8.57-8.58-24.12-14.32-30.17-8.28s-.3 21.6 8.27 30.18c7.42 7.41 19.4 12.05 26.41 9.26 15.87 11.32 37.2 41.05 50.35 54.2 14.14 14.14 22.37 20.05 25.51 16.9 3.15-3.14-1.82-10.42-16.9-25.5-13.23-13.22-42.1-34.33-53.74-50.01z" style="fill:#fff"/><path d="m903.15 497.83-82.89 210.82 225.85 225.46 69.56-2.11 14.77 11.18 42.47-90.73-10.24-11.45-12.33-95.98z" style="fill:#b57777"/><path d="m894.59 676.49-70.54 32.03a4 4 0 0 1-5.3-1.99l-64.14-141.25a4 4 0 0 1 1.99-5.3l70.4-31.97z" style="fill:#e8e5dc"/><path d="m827 528.01 70.85-32.17a4 4 0 0 1 5.3 1.99l64.14 141.25a4 4 0 0 1-1.99 5.3l-70.61 32.06z" style="fill:#bdb0a8"/><path d="m900.15 673.96-11.32 5.14-68.11-148.24 12.59-5.71z" style="fill:#fff"/><path id="e" d="M777.67 573.67 827 684.33" style="fill:none"/><text>					<textPath xlink:href="#e" startOffset="0%">
<tspan style="fill:#fff;font-family:&quot;VAL&quot;;font-size:42px">MILK</tspan>					</textPath>
</text><path d="m827 528.01 67.59 148.48" style="fill:none;stroke:#bdb0a8;stroke-width:2;stroke-miterlimit:10"/><path d="M930.57 323.06q-.56-2.83-1.29-5.64a99 99 0 0 0-4.15-12.7 99 99 0 0 0-21.75-32.75c-30.87-30.88-77.06-37.07-114.1-18.63q-.2-.29-.44-.53s-41.06-15.38-47.5-21.82c-4.02-4.02-2.2-9.36-5.6-10.27-2.03-.54-9.43 1.61-15 7.18-5.05 5.05-6.27 11.5-5.78 13.41.96 3.73 6.98 2.1 10.64 5.77 5.55 5.55 18.62 50.34 18.62 50.34q.24.25.54.43c-18.45 37.05-12.26 83.24 18.62 114.12a99 99 0 0 0 28.32 19.82 99.1 99.1 0 0 0 102.74-11.92l11.33 11.33a11.95 11.95 0 0 0 16.84 0l3-2.99a11.95 11.95 0 0 0 0-16.84l-11.75-11.75a98.3 98.3 0 0 0 18.07-48.16 100 100 0 0 0-1.36-28.4" style="fill:#b57777"/><circle cx="773.65" cy="281.54" r="99" style="fill:#fff"/><path d="M811.05 189.86s59.08 17.2-24.92 101.2-104.16 27.88-104.16 27.88a99 99 0 0 0 21.68 32.6c38.66 38.67 101.35 38.67 140 0 38.67-38.66 38.67-101.34 0-140a99 99 0 0 0-32.6-21.68" style="fill:#e8e5dc"/><circle cx="773.65" cy="281.54" r="60" style="fill:#c77777"/><circle cx="773.65" cy="281.54" r="52.06" style="fill:#fff" transform="rotate(-16.85 773.62 281.54)"/><path d="M713.56 220.01c-15.58 15.58-25.74 20.31-29.07 16.99 0 0-13.07-44.8-18.62-50.35-3.66-3.66-9.68-2.04-10.64-5.76-.5-1.92.74-8.37 5.79-13.42 5.57-5.57 12.96-7.72 15-7.18 3.39.91 1.57 6.25 5.6 10.27 6.43 6.44 47.49 21.82 47.49 21.82 3.32 3.32.03 12.05-15.55 27.63" style="fill:#fff"/><path d="M674.23 163.66c1.45 1.46-1.61 5.67-6.1 10.16s-8.7 7.55-10.15 6.1.4-6.88 4.9-11.36c4.48-4.5 9.9-6.35 11.35-4.9" style="fill:#c77777"/><path d="m865.88 367.78-3 3a11.95 11.95 0 0 1-16.84 0l-17.8-17.8a11.95 11.95 0 0 1 0-16.85l2.99-3a11.95 11.95 0 0 1 16.84 0l17.8 17.8a11.95 11.95 0 0 1 0 16.85M802.9 238.47s4.08 18.74-24.75 47.57-47.57 24.74-47.57 24.74q2.73 4.02 6.26 7.58a52.06 52.06 0 1 0 66.06-79.89" style="fill:#e8e5dc"/><path d="M789.8 281.54a16.14 16.14 0 1 1-32.29 0 16.14 16.14 0 0 1 32.28 0" style="fill:#c77777"/><path d="M769.8 272.53c1.16 1.16.73 3.48-.96 5.17s-4 2.12-5.16.95c-1.16-1.16-.74-3.47.96-5.16 1.69-1.7 4-2.12 5.16-.96" style="fill:#fff"/></g><defs><path id="f" d="M-871.53 0h800v800h-800z"/></defs><clipPath id="g"><use xlink:href="#f" style="overflow:visible"/></clipPath><g style="clip-path:url(#g)"><path d="m-168.38 497.83-82.89 210.82 225.85 225.46L44.14 932l14.77 11.18 42.47-90.73L91.14 841l-12.33-95.98z" style="fill:#b57777"/></g><path d="M509.38 780.12v-.2q-.42.47-.82.77a3 3 0 0 1-1.9.6 3 3 0 0 1-2.45-1.2q-.46-.58-.7-1.36a6 6 0 0 1-.24-1.7q0-1.93.94-3a3.1 3.1 0 0 1 2.48-1.08q.9 0 1.5.3.6.31 1.19.94v-3.03q0-.63.25-.96t.72-.32.72.3.25.87v9.07q0 .58-.27.88t-.7.3a1 1 0 0 1-.7-.31q-.27-.3-.27-.87m-4.04-3.02q0 .84.26 1.42.25.6.7.89t1 .3a1.8 1.8 0 0 0 1.7-1.15q.27-.59.27-1.46 0-.82-.27-1.41-.27-.6-.72-.9-.46-.32-1-.32-.56 0-1.01.33-.44.3-.69.91-.24.6-.24 1.4m13.1.51h-4.02q0 .7.29 1.24.27.53.72.8t1.01.27q.37 0 .68-.08.3-.09.59-.27.28-.2.52-.4l.63-.57q.15-.14.45-.14t.51.17.2.5q0 .27-.22.64-.23.38-.66.72t-1.1.57-1.54.22a4 4 0 0 1-3.08-1.13 4.2 4.2 0 0 1-1.1-3.06q0-.9.27-1.69.28-.77.8-1.34.51-.55 1.27-.85t1.69-.3q1.2 0 2.07.51t1.29 1.31.43 1.64q0 .78-.45 1.01-.44.23-1.25.23m-4.02-1.17h3.73a2.5 2.5 0 0 0-.57-1.57 1.7 1.7 0 0 0-1.3-.53q-.76 0-1.26.53-.49.54-.6 1.57m13.38 2.15q0 .86-.4 1.46-.42.61-1.23.92t-1.97.31a5 5 0 0 1-1.9-.33q-.78-.34-1.16-.85a1.7 1.7 0 0 1-.38-1.02q0-.34.24-.58a.8.8 0 0 1 .61-.24q.33 0 .5.16.17.15.33.44.31.55.76.82t1.2.27q.62 0 1.01-.27.4-.28.4-.63 0-.54-.41-.8a5 5 0 0 0-1.35-.47q-1.07-.26-1.73-.55-.67-.3-1.07-.76-.4-.48-.4-1.17 0-.62.37-1.17t1.1-.87a4 4 0 0 1 1.73-.33q.79 0 1.43.16t1.06.45q.43.27.65.61t.22.67q0 .35-.24.58a1 1 0 0 1-.67.22 1 1 0 0 1-.54-.18q-.23-.18-.5-.54-.24-.3-.56-.48-.31-.18-.86-.18-.56 0-.92.23-.37.24-.37.6 0 .32.27.52t.73.35 1.27.33q.94.23 1.56.55.6.33.92.77.3.45.3 1m2.1-6.62q-.42 0-.72-.26a1 1 0 0 1-.31-.75q0-.43.31-.72t.73-.28q.4 0 .7.26.32.26.32.74t-.3.74-.72.27m1.03 2.13v5.93q0 .63-.3.94a1 1 0 0 1-.74.32q-.45 0-.74-.33a1.4 1.4 0 0 1-.28-.93v-5.88q0-.6.28-.91.3-.31.74-.31.45 0 .74.3.3.31.3.87m8.99.34v5.97q0 1.01-.22 1.76-.21.74-.7 1.22-.48.48-1.26.71-.78.24-1.94.24-1.06 0-1.9-.3t-1.29-.77a1.4 1.4 0 0 1-.45-.97.8.8 0 0 1 .26-.61 1 1 0 0 1 .62-.24q.45 0 .79.4.15.2.34.41.18.21.4.36.2.15.5.21.3.07.7.07.8 0 1.24-.22t.62-.62.2-.85.05-1.47q-.48.66-1.1 1.01-.6.35-1.47.35a3.1 3.1 0 0 1-3-2 5 5 0 0 1-.4-2.2q0-.92.24-1.67.25-.75.72-1.25a3 3 0 0 1 2.42-1.03q.88 0 1.51.33.64.33 1.2 1.05v-.28q0-.53.26-.83t.67-.3q.6 0 .8.4.2.38.2 1.12m-5.95 2.6q0 1.25.54 1.89.55.64 1.41.64.52 0 .97-.28.45-.27.74-.82.3-.55.29-1.35 0-1.26-.56-1.96-.55-.7-1.45-.7-.88 0-1.41.67a3 3 0 0 0-.53 1.9m9.21-2.96v.24q.54-.7 1.18-1.05.64-.33 1.48-.33.81 0 1.45.35.64.36.96 1 .2.38.26.82t.07 1.11v3.82q0 .63-.29.94a1 1 0 0 1-.73.32q-.46 0-.75-.33-.28-.32-.28-.93v-3.42q0-1.02-.28-1.55-.3-.54-1.13-.54-.55 0-1 .32-.45.33-.66.9-.15.46-.15 1.72v2.58q0 .62-.3.93-.29.32-.74.32t-.73-.33a1.4 1.4 0 0 1-.29-.93v-5.93q0-.6.26-.88.25-.3.7-.3.27 0 .49.14.21.12.35.38.13.25.13.63m12.5 3.54h-4.02q0 .7.29 1.24.27.53.73.8t1 .27q.37 0 .67-.08t.6-.27l.52-.4.63-.57q.15-.14.45-.14t.5.17.2.5q0 .27-.21.64-.23.38-.66.72t-1.11.57q-.66.22-1.53.22a4 4 0 0 1-3.08-1.13 4.2 4.2 0 0 1-1.1-3.06q0-.9.27-1.69.27-.77.8-1.34.5-.55 1.27-.85.75-.3 1.69-.3 1.2 0 2.06.51t1.3 1.31.43 1.64q0 .78-.45 1.01-.44.23-1.25.23m-4.02-1.17h3.73q-.07-1.06-.57-1.57a1.7 1.7 0 0 0-1.3-.53q-.76 0-1.26.53-.5.54-.6 1.57m12.4 3.67v-.2q-.42.47-.82.77a3 3 0 0 1-1.9.6 3 3 0 0 1-2.45-1.2q-.45-.58-.7-1.36a6 6 0 0 1-.23-1.7q0-1.93.94-3a3.1 3.1 0 0 1 2.47-1.08q.9 0 1.5.3.6.31 1.2.94v-3.03q0-.63.24-.96.25-.32.72-.32t.72.3.26.87v9.07q0 .58-.28.88-.27.3-.7.3a1 1 0 0 1-.7-.31q-.27-.3-.27-.87m-4.04-3.02q0 .84.26 1.42.25.6.7.89.46.3 1 .3a1.8 1.8 0 0 0 1.7-1.15q.27-.59.27-1.46a3.4 3.4 0 0 0-.27-1.41q-.27-.6-.72-.9a1.7 1.7 0 0 0-2 0q-.45.33-.7.92t-.24 1.4m12.44-6.05v3.14q.58-.6 1.18-.93.6-.31 1.5-.32 1.02 0 1.8.49.75.49 1.19 1.4.42.93.42 2.2 0 .93-.23 1.7-.24.8-.7 1.36a3.1 3.1 0 0 1-2.5 1.2q-.48 0-.9-.12a2.6 2.6 0 0 1-1.21-.68l-.55-.58v.2q0 .58-.28.88-.27.3-.7.3-.45 0-.7-.3-.26-.3-.26-.88v-8.97q0-.62.25-.95t.7-.32q.48 0 .74.3.25.31.25.88m.1 6.1q0 1.23.56 1.89t1.47.66q.78 0 1.34-.68.56-.67.56-1.93 0-.8-.23-1.4t-.66-.9a1.6 1.6 0 0 0-1-.33q-.6 0-1.05.32-.46.33-.73.93t-.26 1.44" style="fill:#fff"/><path d="m581.24 781.55.19-.46-2.53-6.37a2 2 0 0 1-.24-.8q0-.25.14-.48a1 1 0 0 1 .37-.36q.24-.14.5-.14.43 0 .66.28t.4.81l1.74 5.06 1.65-4.7q.2-.59.35-.9.16-.33.34-.44a1 1 0 0 1 .5-.11q.23 0 .45.12.21.13.33.34a1 1 0 0 1 .12.44l-.27.94-2.68 7.02q-.34.93-.68 1.45-.32.52-.87.81t-1.48.28q-.9 0-1.35-.19-.45-.2-.45-.72 0-.35.21-.54t.64-.2q.16 0 .32.05.2.05.34.05.36 0 .56-.1a1 1 0 0 0 .36-.38q.17-.25.38-.76m29.78-8.43h.48v-.62q0-.97.25-1.54.24-.56.83-.83.58-.25 1.6-.25 1.8 0 1.8.88 0 .28-.2.49a.6.6 0 0 1-.43.2q-.12 0-.42-.05l-.5-.04q-.55 0-.71.33-.15.32-.16.94v.49h.5q1.18 0 1.18.7 0 .5-.31.64-.32.14-.87.14h-.5v5.45q0 .6-.3.92a1 1 0 0 1-.74.33q-.43 0-.73-.33-.28-.31-.28-.92v-5.45h-.57q-.45 0-.7-.2a.7.7 0 0 1-.26-.54q0-.75 1.03-.74m6.73 5.21v1.72q0 .62-.3.93a1 1 0 0 1-.74.31q-.45 0-.73-.31-.29-.31-.29-.93v-5.73q0-1.38 1-1.39.53 0 .74.33.23.32.26.96.36-.64.75-.96.39-.33 1.03-.33.65 0 1.26.33t.61.86q0 .38-.26.62a.8.8 0 0 1-.56.24q-.11 0-.55-.14a3 3 0 0 0-.76-.13q-.45 0-.74.23t-.44.7-.22 1.12-.06 1.57m9.46-.71h-4.03q0 .7.28 1.24a2 2 0 0 0 .74.8q.45.27 1 .27a2.3 2.3 0 0 0 1.26-.36q.3-.18.53-.4l.63-.57q.15-.13.45-.13.32 0 .51.17.2.18.2.49 0 .28-.22.65-.22.38-.66.72t-1.1.56-1.54.23a4 4 0 0 1-3.08-1.13 4.2 4.2 0 0 1-1.1-3.06q0-.9.27-1.7.27-.78.8-1.33.5-.56 1.27-.86a4.6 4.6 0 0 1 3.76.22q.86.5 1.29 1.3.42.82.43 1.65 0 .78-.45 1-.44.24-1.25.24m-4.02-1.17h3.73q-.07-1.06-.57-1.57a1.7 1.7 0 0 0-1.3-.53q-.76 0-1.26.53-.5.54-.6 1.57m12.58 1.17h-4.03q0 .7.28 1.24.28.53.73.8t1.01.27a2.3 2.3 0 0 0 1.27-.36q.28-.18.52-.4l.63-.57q.16-.13.45-.13.32 0 .51.17.2.18.2.49 0 .28-.22.65-.21.38-.66.72t-1.1.56q-.67.23-1.54.23a4 4 0 0 1-3.08-1.13 4.2 4.2 0 0 1-1.1-3.06q0-.9.28-1.7.27-.78.79-1.33.51-.56 1.28-.86a4.6 4.6 0 0 1 3.75.22q.86.5 1.29 1.3.42.82.43 1.65 0 .78-.44 1-.45.24-1.25.24m-4.03-1.17h3.73a2.5 2.5 0 0 0-.57-1.57 1.7 1.7 0 0 0-1.3-.53q-.76 0-1.26.53-.5.54-.6 1.57m8.53-2.36v.25q.58-.72 1.2-1.05.63-.34 1.42-.34a3.3 3.3 0 0 1 3 1.92q.48.94.47 2.23 0 .94-.26 1.75a4 4 0 0 1-.74 1.33 3.24 3.24 0 0 1-3.95.76q-.6-.35-1.14-1.04v3.1q0 1.35-.99 1.36-.57 0-.77-.35a2 2 0 0 1-.18-1.02v-8.88q0-.59.25-.88a1 1 0 0 1 .7-.28q.44 0 .71.3.28.29.28.85m4.03 2.99q0-.82-.25-1.4t-.69-.9q-.44-.3-.98-.31-.84 0-1.43.67-.58.67-.58 1.98 0 1.21.58 1.9a1.8 1.8 0 0 0 2.38.39q.45-.3.7-.9.27-.6.27-1.43m4.13-5.11q-.42 0-.73-.27a1 1 0 0 1-.3-.74q0-.44.3-.72.33-.29.73-.29t.71.26q.3.25.31.75 0 .48-.3.74-.3.27-.72.27m1.02 2.12v5.95q0 .6-.3.93a1 1 0 0 1-.74.31q-.45 0-.73-.32a1.4 1.4 0 0 1-.29-.92v-5.89q0-.6.29-.91t.73-.32.75.32.3.85m6.62 6.26-1.81-2.99-1.12 1.05v1.64q0 .6-.31.91a1 1 0 0 1-.72.32 1 1 0 0 1-.75-.31q-.27-.31-.27-.93v-8.77q0-.68.26-1.04a.9.9 0 0 1 .76-.36q.46 0 .75.32.27.33.28.95v5l2.31-2.43q.43-.45.66-.62a1 1 0 0 1 .54-.16q.39 0 .65.24.25.25.25.61 0 .45-.83 1.2l-1.1 1.01 2.11 3.32q.24.36.34.56.1.19.1.36 0 .49-.27.78a1 1 0 0 1-.7.28q-.38 0-.58-.2a5 5 0 0 1-.55-.74m4.46.94q-.45 0-.8-.3-.34-.3-.34-.85 0-.45.33-.8.32-.32.8-.32a1.13 1.13 0 0 1 1.14 1.12q0 .54-.33.84-.35.3-.8.3m10.23-2.54q0 .38-.23.82-.23.45-.7.83-.48.4-1.19.64t-1.6.24a4 4 0 0 1-2.99-1.11 4 4 0 0 1-1.06-2.98q0-1.28.49-2.24.49-.98 1.4-1.5a4.4 4.4 0 0 1 2.22-.53 4.4 4.4 0 0 1 2.6.83q.45.38.7.79t.25.78-.27.63a1 1 0 0 1-.67.25.7.7 0 0 1-.43-.13 2 2 0 0 1-.38-.43 3 3 0 0 0-.78-.85q-.41-.3-1.05-.29-.91 0-1.46.71a3 3 0 0 0-.56 1.95q0 .57.14 1.07.14.49.42.82a1.8 1.8 0 0 0 1.5.7q.6 0 1.05-.28.45-.3.78-.88.2-.34.4-.54.23-.2.54-.2.37 0 .63.29.25.3.25.6m8.87-1.62q0 .9-.28 1.69a3.8 3.8 0 0 1-2.13 2.19q-.75.3-1.7.3-.93 0-1.67-.31a3.7 3.7 0 0 1-2.13-2.19 5 5 0 0 1-.28-1.69q0-.94.29-1.7a3.7 3.7 0 0 1 2.12-2.18q.76-.3 1.68-.3t1.7.3a3.7 3.7 0 0 1 2.12 2.19q.27.77.28 1.7m-2.06 0q0-1.26-.56-1.96-.55-.7-1.48-.7-.6 0-1.07.3-.45.32-.7.93-.25.6-.25 1.43 0 .8.24 1.4.25.6.7.93.46.31 1.08.32.94 0 1.48-.71.56-.7.56-1.94m9.9.15V780q0 .64-.3.97a1 1 0 0 1-.77.33 1 1 0 0 1-.75-.33q-.3-.33-.3-.97v-3.28q0-.77-.05-1.2a1.3 1.3 0 0 0-.28-.7q-.23-.29-.74-.28-1.01 0-1.33.7a5 5 0 0 0-.32 1.98V780q0 .63-.29.97a1 1 0 0 1-.76.32 1 1 0 0 1-.77-.32q-.3-.34-.3-.97v-5.88q0-.6.27-.88a1 1 0 0 1 .7-.3q.43 0 .71.27.28.3.28.78v.2q.54-.63 1.15-.94t1.35-.3q.78 0 1.33.3.56.32.92.94.52-.63 1.12-.94t1.32-.3q.84 0 1.45.33.6.33.91.95.26.56.26 1.75V780q0 .64-.29.97a1 1 0 0 1-.77.32 1 1 0 0 1-.77-.32q-.3-.34-.3-.97v-3.46q0-.67-.05-1.06-.06-.41-.3-.67-.25-.27-.76-.27-.4 0-.77.24-.37.25-.57.64-.23.53-.23 1.85m-87.73-8.53c.4 0 .7.03 1.03.09l.1-.6s-.93-.3-2.15-.2l-.1-.32a.84.84 0 1 0-.35 0l.1.37a8 8 0 0 0-2.32.68l.19.56a10 10 0 0 1 3.5-.58m-7.18 3.06.1-.12-.26-.18-.38-.28c-.02.03-.63.59-1.11 1.62l-.07-.1a.8.8 0 0 0-.6-.23h-.02a.5.5 0 0 1-.34-.11q.11-.14.12-.33a.53.53 0 1 0-.4.51c.13.15.34.28.64.27q.24 0 .35.12.11.17.12.34c-.34.95-.24 2.12-.24 2.12l.83.04a6.3 6.3 0 0 1 1.26-3.67m14.48-2.36a.53.53 0 0 0-.52.66.8.8 0 0 0-.26.64q0 .24-.12.35l-.24.11a7 7 0 0 0-1.4-1.4l-.6.64a9 9 0 0 1 2.28 3.17l.8-.38s-.36-.92-.88-1.74q.14-.04.26-.15a.8.8 0 0 0 .23-.6.5.5 0 0 1 .12-.35q.13.1.33.11a.53.53 0 0 0 0-1.06m-2.11 7.3a18 18 0 0 1-8.1 1.78 23 23 0 0 1-4.74-.5 7 7 0 0 0 .37.93l.05.1.05.1.01.03q.36.69.86 1.23a4.5 4.5 0 0 0 2.31 1.45h.04c0 .01 1.04.34 2.6.34q2.33 0 4.5-.92a7.4 7.4 0 0 0 2.59-2.12q.57-.86.83-1.82c.09-.33.16-.87.12-1.44q-.48.31-1.49.84" style="fill:#fff"/><path d="M592.9 772.07a8 8 0 0 0-.9 1.78c-.28.79-.27 1.94-.27 1.95a7 7 0 0 0 .05.82l.01.1q.03.27.1.56c.55.14 3.86.9 7.56.4a17 17 0 0 0 5.15-1.53c.9-.43 1.46-.83 1.69-.98-.22-.82-.83-2.1-1.39-2.9-1.59-2.27-3.3-2.85-4.18-3a6 6 0 0 0-.99-.08q-.51 0-1.38.09-.87.1-2 .47a8 8 0 0 0-2.8 1.63l-.03.02c-.1.1-.35.32-.62.67m9.73-.54a1.38 1.38 0 1 1 0 2.77 1.38 1.38 0 0 1 0-2.76m-6.53-.05a2.23 2.23 0 1 1 0 4.46 2.23 2.23 0 0 1 0-4.46" style="fill:#fff"/></svg>