<svg xmlns="http://www.w3.org/2000/svg" xmlns:xlink="http://www.w3.org/1999/xlink" xml:space="preserve" viewBox="0 0 500 500"><radialGradient id="a" cx="211" cy="157" r="285.17" gradientUnits="userSpaceOnUse"><stop offset="0" style="stop-color:#008e9c"/><stop offset="1" style="stop-color:#00709c"/></radialGradient><path d="M0 0h500v500H0z" style="fill:url(#a)"/><path d="M126.7 269.39 274.16 314l10.4-2.76.66.2a.67.67 0 1 0 .4-1.29l-.67-.2-.13.43.12-.42-7.12-8.06-147.44-44.62h-.02a6.3 6.3 0 0 0-6.9 2.3v-.03q-.17.23-.32.5l-.2.34q-.29.52-.47 1.1a6.33 6.33 0 0 0 4.22 7.9zm149.89 36.54" style="opacity:.26;fill:#00609b"/><path d="m271.38 311.14 3.67-12.1-147.47-44.63a6.33 6.33 0 1 0-3.66 12.1z" style="fill:#5d5262"/><path d="M119.7 258.63q.32-1.08.98-1.95a6.3 6.3 0 0 0 4.48 5.73l147.47 44.62-1.25 4.11-147.46-44.62a6.33 6.33 0 0 1-4.22-7.89" style="fill:#32343d"/><path d="M283.29 308.13a.67.67 0 0 0-.45-.84l-.67-.2-.39 1.29.67.2c.35.1.73-.1.84-.45" style="fill:#5d5262"/><path d="M270.77 308.75c.3-1 1.53-.63 1.83-1.64s-.92-1.38-.61-2.4c.3-1 1.53-.63 1.83-1.64s-.92-1.38-.61-2.39c.3-1 1.53-.64 1.84-1.65l7.12 8.07-.39 1.27-10.4 2.77c.3-1-.92-1.38-.62-2.39" style="fill:#ffb869"/><path d="M271.38 311.14c.3-1-.92-1.38-.61-2.39.3-1 1.53-.63 1.83-1.64l9.44.4-.26.86z" style="fill:#e5974a"/><path d="M274.44 301.05c-.3 1.01.92 1.38.61 2.4-.3 1-1.53.63-1.84 1.64-.3 1 .93 1.38.62 2.39-.3 1-1.53.64-1.84 1.64-.22.75.38 1.14.6 1.7l-1.2.32c.3-1-.93-1.38-.62-2.39.3-1 1.53-.63 1.83-1.64s-.92-1.38-.61-2.4c.3-1 1.53-.63 1.83-1.64s-.92-1.38-.61-2.39c.3-1 1.53-.64 1.84-1.65l.82.94c-.49.34-1.2.34-1.43 1.08" style="fill:#e5974a"/><path d="M123.94 266.52h-.02a6.33 6.33 0 1 1 3.66-12.1h.03z" style="fill:#5d5262"/><defs><path id="b" d="M0 0h500v500H0z" transform="matrix(-1 0 0 -1 500 500)"/></defs><clipPath id="c"><use xlink:href="#b" style="overflow:visible"/></clipPath><g style="clip-path:url(#c)"><path d="m460.12 243.67 90.02 103.43-6.68 5.81a2.92 2.92 0 0 0-4.77-1.46 2.95 2.95 0 0 0 .79 4.92l-5.34 4.65a2.92 2.92 0 0 0-4.77-1.46 2.95 2.95 0 0 0 .8 4.92l-5.34 4.65a2.92 2.92 0 0 0-4.77-1.47 2.95 2.95 0 0 0 .79 4.93l-5.34 4.64a2.92 2.92 0 0 0-4.77-1.46 2.95 2.95 0 0 0 .8 4.92l-5.34 4.65a2.92 2.92 0 0 0-4.77-1.46 2.95 2.95 0 0 0 .79 4.92l-5.34 4.65a2.92 2.92 0 0 0-4.77-1.47 2.95 2.95 0 0 0 .8 4.93l-5.34 4.64a2.92 2.92 0 0 0-4.77-1.46 2.95 2.95 0 0 0 .79 4.93l-5.34 4.64a2.92 2.92 0 0 0-4.77-1.46 2.95 2.95 0 0 0 .8 4.92l-5.34 4.65a2.92 2.92 0 0 0-4.77-1.47 2.95 2.95 0 0 0 .79 4.93l-5.34 4.64a2.92 2.92 0 0 0-4.77-1.46 2.95 2.95 0 0 0 .8 4.93l-5.34 4.64a2.92 2.92 0 0 0-4.77-1.46 2.95 2.95 0 0 0 .79 4.92l-5.34 4.65a2.92 2.92 0 0 0-4.77-1.47 2.95 2.95 0 0 0 .8 4.93l-5.34 4.65a2.92 2.92 0 0 0-4.77-1.47 2.95 2.95 0 0 0 .79 4.93l-5.34 4.64a2.92 2.92 0 0 0-4.77-1.46 2.95 2.95 0 0 0 .8 4.92l-5.34 4.65a2.92 2.92 0 0 0-4.77-1.46 2.95 2.95 0 0 0 .79 4.92l-5.34 4.65a2.92 2.92 0 0 0-4.77-1.47 2.95 2.95 0 0 0 .8 4.93l-5.34 4.64a2.92 2.92 0 0 0-4.77-1.46 2.95 2.95 0 0 0 .79 4.93l-6.68 5.8-90.01-103.43z" style="opacity:.26;fill:#00609b"/><path d="m548.14 345.1-6.68 5.81a2.92 2.92 0 0 0-4.77-1.46 2.95 2.95 0 0 0 .79 4.93l-5.34 4.64a2.92 2.92 0 0 0-4.77-1.46 2.95 2.95 0 0 0 .8 4.92l-5.34 4.65a2.92 2.92 0 0 0-4.77-1.47 2.95 2.95 0 0 0 .79 4.93l-5.34 4.64a2.92 2.92 0 0 0-4.77-1.46 2.95 2.95 0 0 0 .8 4.93l-5.34 4.64a2.92 2.92 0 0 0-4.77-1.46 2.95 2.95 0 0 0 .79 4.92l-5.34 4.65a2.92 2.92 0 0 0-4.77-1.47 2.95 2.95 0 0 0 .8 4.93l-5.34 4.64a2.92 2.92 0 0 0-4.77-1.46 2.95 2.95 0 0 0 .79 4.93l-5.34 4.64a2.92 2.92 0 0 0-4.77-1.46 2.95 2.95 0 0 0 .8 4.92l-5.34 4.65a2.92 2.92 0 0 0-4.77-1.47 2.95 2.95 0 0 0 .79 4.93l-5.34 4.65a2.92 2.92 0 0 0-4.77-1.47 2.95 2.95 0 0 0 .8 4.93l-5.34 4.64a2.92 2.92 0 0 0-4.77-1.46 2.95 2.95 0 0 0 .79 4.92l-5.34 4.65a2.92 2.92 0 0 0-4.77-1.46 2.95 2.95 0 0 0 .8 4.92l-5.34 4.65a2.92 2.92 0 0 0-4.77-1.47 2.95 2.95 0 0 0 .79 4.93l-5.34 4.64a2.92 2.92 0 0 0-4.77-1.46 2.95 2.95 0 0 0 .8 4.93l-5.34 4.64a2.92 2.92 0 0 0-4.77-1.46 2.95 2.95 0 0 0 .79 4.92l-5.34 4.65a2.92 2.92 0 0 0-4.77-1.47 2.95 2.95 0 0 0 .8 4.93l-5.34 4.64a2.92 2.92 0 0 0-4.77-1.46 2.95 2.95 0 0 0 .79 4.93l-6.68 5.8-90.01-103.43 166.37-144.78z" style="fill:#e7ffe1"/><g style="opacity:.6"><path d="m526.17 346.88-69.18-79.49m59.21 88.17-69.18-79.5m59.21 88.18-69.18-79.5m59.21 88.18-69.19-79.5m59.22 88.18-69.19-79.5m59.21 88.18-69.18-79.5m59.21 88.17-69.18-79.49m59.21 88.17-69.19-79.49m59.21 88.17-69.18-79.5m59.21 88.18-69.18-79.5m59.21 88.18-69.18-79.5m59.21 88.18-69.19-79.5m59.21 88.18-69.18-79.5m59.21 88.18-69.18-79.5m59.21 88.17-69.18-79.49" style="fill:none;stroke:#b8d1b2;stroke-miterlimit:10"/></g></g><g style="clip-path:url(#c)"><path d="m-106 161.24 136.5-12.96.83 8.82q-.61-.24-1.3-.19a2.95 2.95 0 1 0 1.8 5.43l.67 7.05q-.61-.24-1.31-.19a2.95 2.95 0 1 0 1.81 5.44l.67 7.04q-.61-.24-1.31-.18a2.95 2.95 0 1 0 1.81 5.43l.67 7.04q-.61-.24-1.31-.18a2.95 2.95 0 1 0 1.8 5.43l.68 7.05q-.61-.24-1.32-.19a2.95 2.95 0 1 0 1.82 5.44l.66 7.04q-.61-.24-1.3-.18a2.95 2.95 0 1 0 1.8 5.43l.67 7.04q-.61-.24-1.31-.18a2.95 2.95 0 1 0 1.81 5.43l.67 7.05q-.61-.25-1.31-.19a2.95 2.95 0 1 0 1.8 5.44l.67 7.04q-.61-.24-1.31-.19a2.95 2.95 0 1 0 1.8 5.44l.68 7.04q-.62-.24-1.32-.18a2.95 2.95 0 1 0 1.82 5.43l.66 7.05q-.61-.25-1.3-.19a2.95 2.95 0 1 0 1.8 5.44l.67 7.04q-.61-.24-1.31-.19a2.95 2.95 0 1 0 1.81 5.44l.67 7.04q-.61-.24-1.31-.18a2.95 2.95 0 1 0 1.81 5.43l.67 7.05q-.61-.24-1.31-.2a2.95 2.95 0 1 0 1.8 5.44l.68 7.05q-.61-.25-1.32-.19a2.95 2.95 0 1 0 1.82 5.44l.66 7.04q-.61-.24-1.3-.18a2.95 2.95 0 1 0 1.8 5.43l.67 7.04q-.61-.24-1.31-.18a2.95 2.95 0 1 0 1.81 5.43l.84 8.82-136.5 12.96z" style="opacity:.26;fill:#00609b"/><path d="m27.7 148.74.84 8.82q-.61-.25-1.3-.19a2.95 2.95 0 1 0 1.8 5.44l.67 7.04q-.61-.24-1.31-.18a2.95 2.95 0 1 0 1.81 5.43l.67 7.04q-.61-.24-1.31-.18a2.95 2.95 0 1 0 1.8 5.43l.68 7.05q-.6-.25-1.32-.19a2.95 2.95 0 1 0 1.82 5.44l.67 7.04q-.61-.24-1.32-.19a2.95 2.95 0 1 0 1.81 5.44l.67 7.04q-.61-.24-1.3-.18a2.95 2.95 0 1 0 1.8 5.43l.67 7.05q-.61-.25-1.31-.19a2.95 2.95 0 1 0 1.81 5.44l.67 7.04q-.61-.24-1.31-.19a2.95 2.95 0 1 0 1.8 5.44l.68 7.04q-.6-.24-1.32-.18a2.95 2.95 0 1 0 1.82 5.43l.67 7.05q-.62-.24-1.32-.2a2.95 2.95 0 1 0 1.81 5.44l.67 7.05q-.61-.25-1.3-.19a2.95 2.95 0 1 0 1.8 5.44l.67 7.04q-.61-.24-1.31-.18a2.95 2.95 0 1 0 1.81 5.43l.67 7.04q-.61-.24-1.31-.18a2.95 2.95 0 1 0 1.8 5.43l.68 7.05q-.6-.25-1.32-.19a2.95 2.95 0 1 0 1.82 5.44l.67 7.04q-.61-.24-1.32-.19a2.95 2.95 0 1 0 1.81 5.44l.67 7.04q-.61-.24-1.3-.18a2.95 2.95 0 1 0 1.8 5.43l.67 7.05q-.61-.25-1.31-.19a2.95 2.95 0 1 0 1.81 5.44l.84 8.8-136.5 12.97-20.85-219.57z" style="fill:#e7ffe1"/><g style="opacity:.6"><path d="m16.37 167.64-104.91 9.96m106.16 3.2-104.91 9.96m106.16 3.2-104.91 9.96m106.16 3.2-104.91 9.96m106.16 3.2-104.92 9.96m106.17 3.2L-82.3 243.4m106.17 3.2-104.92 9.96m106.17 3.2-104.92 9.97m106.17 3.19-104.92 9.97m106.17 3.19-104.92 9.97m106.17 3.2-104.92 9.96m106.17 3.2-104.92 9.96m106.17 3.2-104.92 9.96m106.17 3.2-104.92 9.96m106.17 3.2-104.92 9.96" style="fill:none;stroke:#b8d1b2;stroke-miterlimit:10"/></g></g><g style="clip-path:url(#c)"><path d="M400.79 233.62h122.67v173.33H400.79z" style="opacity:.26;fill:#00609b" transform="rotate(198.38 462.13 320.28)"/><path d="M399.21 232.04h122.67v173.33H399.21z" style="fill:#f3f3e9" transform="rotate(198.38 460.55 318.7)"/><path d="M435.89 253.37h95.33v2.67h-95.33z" style="opacity:.26;fill:#00609b" transform="rotate(198.38 483.57 254.7)"/><path d="M432.74 262.86h95.33v2.67h-95.33z" style="opacity:.26;fill:#00609b" transform="rotate(198.38 480.41 264.18)"/><path d="M429.59 272.35h95.33v2.67h-95.33z" style="opacity:.26;fill:#00609b" transform="rotate(198.38 477.26 273.67)"/><path d="M426.43 281.84h95.33v2.67h-95.33z" style="opacity:.26;fill:#00609b" transform="rotate(198.38 474.1 283.16)"/><path d="M423.28 291.33h95.33V294h-95.33z" style="opacity:.26;fill:#00609b" transform="rotate(198.38 470.96 292.65)"/><path d="M420.13 300.82h95.33v2.67h-95.33z" style="opacity:.26;fill:#00609b" transform="rotate(198.38 467.8 302.14)"/><path d="M416.98 310.31h95.33v2.67h-95.33z" style="opacity:.26;fill:#00609b" transform="rotate(198.38 464.65 311.63)"/><path d="M413.82 319.8h95.33v2.67h-95.33z" style="opacity:.26;fill:#00609b" transform="rotate(198.38 461.5 321.12)"/><path d="M410.67 329.29H506v2.67h-95.33z" style="opacity:.26;fill:#00609b" transform="rotate(198.38 458.35 330.61)"/><path d="M407.52 338.78h95.33v2.67h-95.33z" style="opacity:.26;fill:#00609b" transform="rotate(198.38 455.2 340.1)"/><path d="M404.37 348.27h95.33v2.67h-95.33z" style="opacity:.26;fill:#00609b" transform="rotate(198.38 452.04 349.6)"/><path d="M10.78-26.14h122.67v173.33H10.78z" style="opacity:.26;fill:#00609b" transform="rotate(33.94 72.11 60.52)"/><path d="M11.88-24.19h122.67v173.33H11.88z" style="fill:#f3f3e9" transform="rotate(33.94 73.21 62.47)"/><path d="M-13.8 116.62h95.33v2.67H-13.8z" style="opacity:.26;fill:#00609b" transform="rotate(33.94 33.87 117.95)"/><path d="M-8.22 108.33h95.33V111H-8.22z" style="opacity:.26;fill:#00609b" transform="rotate(33.94 39.45 109.65)"/><path d="M-2.63 100.03H92.7v2.67H-2.63z" style="opacity:.26;fill:#00609b" transform="rotate(33.94 45.03 101.36)"/><path d="M2.95 91.73h95.33v2.67H2.95z" style="opacity:.26;fill:#00609b" transform="rotate(33.94 50.62 93.06)"/><path d="M8.53 83.44h95.33v2.67H8.53z" style="opacity:.26;fill:#00609b" transform="rotate(33.94 56.2 84.77)"/><path d="M14.12 75.14h95.33v2.67H14.12z" style="opacity:.26;fill:#00609b" transform="rotate(33.94 61.78 76.47)"/><path d="M19.7 66.85h95.33v2.67H19.7z" style="opacity:.26;fill:#00609b" transform="rotate(33.94 67.37 68.18)"/><path d="M25.29 58.55h95.33v2.67H25.29z" style="opacity:.26;fill:#00609b" transform="rotate(33.94 72.95 59.88)"/><path d="M30.87 50.25h95.33v2.67H30.87z" style="opacity:.26;fill:#00609b" transform="rotate(33.94 78.53 51.58)"/><path d="M36.45 41.96h95.33v2.67H36.45z" style="opacity:.26;fill:#00609b" transform="rotate(33.94 84.12 43.29)"/><path d="M42.04 33.66h95.33v2.67H42.04z" style="opacity:.26;fill:#00609b" transform="rotate(33.94 89.7 35)"/><path d="m405.68 302.05.38-.57.12-.2-.1-.1 2.69-9.45.06-.22 31.02-38.62.16-.2 63.43-69.94 1.07-1.23.09-.1 1.44 1.26 2.83-3.25a2 2 0 0 1 .53-.42q.21-.12.46-.2h.01a2 2 0 0 1 .63-.06q.26 0 .5.08h.01a2 2 0 0 1 .72.4l.25.22 1.64 1.43a2 2 0 0 1 .4.5h.01l.02.04q.14.25.2.52l.02.07q.04.25.03.52v.07q-.03.27-.13.53l-.05.11q-.11.26-.3.5l-.3.34-2.53 2.9 1.45 1.26-1.16 1.33-60.67 72.54-.17.2-.01-.02-33.75 36.04-9.07 4-.15.06-.1-.09-.7.6-.22.16-.01.01h-.04l-.2.05h-.02a.6.6 0 0 1-.42-.15.65.65 0 0 1-.07-.92" style="opacity:.26;fill:#00609b"/><path d="m510.82 181.73-5.15 5.92-4.95-4.3 5.15-5.92a2 2 0 0 1 2.86-.2l1.89 1.65c.84.73.93 2.01.2 2.85" style="fill:#c1c0bf"/><path d="m508.97 177.45-.24-.22a2 2 0 0 0-2.86.2l-5.15 5.92 1.78 1.54z" style="fill:#c1c0bf"/><path d="M508.01 176.83a2 2 0 0 0-2.14.6l-5.15 5.92.92.8zm-4.41 9.03 2.06 1.79 5.15-5.92a2 2 0 0 0-.2-2.85l-.53-.47z" style="fill:#c1c0bf"/><path d="m504.63 186.75 1.03.9 5.15-5.92c.59-.67.65-1.62.22-2.35z" style="fill:#c1c0bf"/><path d="m500.44 180.75-63.43 69.94 10.59 9.42 60.68-72.54z" style="fill:#ffa61a"/><path d="m500.44 180.75-63.43 69.94 4.01 3.56 62.39-70.92z" style="opacity:.58;fill:#ffa61a"/><path d="m506.76 186.25-61.21 72.03 2.05 1.83 60.68-72.54z" style="fill:#ffa61a"/><path d="M495.17 189.05a.9.9 0 0 0 1.36 1.19l1.38-1.58-.78-1.87z" style="fill:#c1c0bf"/><path d="m501.87 181.35-35 40.23a1.58 1.58 0 1 0 2.4 2.08l34.99-40.23z" style="fill:#ffa61a"/><path d="m501.36 180.9-35 40.24a1.58 1.58 0 1 0 2.4 2.07l34.98-40.23z" style="fill:#c1c0bf"/><path d="m501.36 180.9-35 40.24a1.58 1.58 0 1 0 2.4 2.07l34.98-40.23z" style="fill:#c1c0bf"/><path d="m503.5 183-34.88 40.1a1.41 1.41 0 0 1-2.13-1.85l34.88-40.1zm-36.92 38.32a1.3 1.3 0 0 0 1.96 1.7l34.8-40-1.95-1.71z" style="fill:#c1c0bf"/><path d="m501.42 181.86-30.7 35.31.78 1.86 31.29-35.98zm-95.59 107.65 7.84 6.82 33.93-36.22-10.59-9.42z" style="fill:#c1c0bf"/><path d="m405.83 289.51 2.97 2.58 32.22-37.84-4.01-3.56zm6.34 5.51 1.5 1.31 33.93-36.22-2.02-1.8zm-7.55 5.05-.95.83a.65.65 0 1 1-.98-.85l.69-1.06z" style="fill:#c1c0bf"/><path d="m403.06 299.48.88.76-.77.88q.29 0 .5-.22l.95-.83-1.24-1.08z" style="fill:#c1c0bf"/><path d="m403.12 299.38 1.01.88-.7.81q.12-.05.23-.17l.96-.83-1.25-1.08z" style="fill:#c1c0bf"/><path d="m413.67 296.33-9.21 4.06-1.38-1.2 2.75-9.68z" style="fill:#c1c0bf"/><path d="m413.67 296.33-9.21 4.06-.36-.31 6.62-6.32z" style="fill:#c1c0bf"/><path d="m413.67 296.33-9.21 4.06-.16-.14 7.83-5.26zm-7.84-6.82-2.75 9.68.36.31 5.35-7.42z" style="fill:#c1c0bf"/><path d="m407.11 290.61-3.86 8.73.19.16 5.35-7.42z" style="fill:#c1c0bf"/><path d="m403.12 299.04-.04.15 1.38 1.2.15-.06zm2.65-9.31 7.69 6.7.21-.1-7.84-6.82zm-2.44 10.3c.15.13.15.37 0 .53s-.38.2-.53.07-.15-.37 0-.53.38-.2.53-.07" style="fill:#c1c0bf"/><path d="M403.04 300.07c.1.08.1.24 0 .35s-.25.13-.35.04-.1-.24 0-.35.25-.13.35-.04m33.8-49.18 10.6 9.41.16-.19-10.59-9.42z" style="fill:#c1c0bf"/><path d="M503.4 178.6h2.55v10.39h-2.55z" style="fill:#c1c0bf" transform="rotate(-48.97 504.65 183.8)"/><path d="M500.96 179.71h2.55v3.93h-2.55z" style="fill:#c1c0bf" transform="rotate(-48.96 502.26 181.67)"/><path d="M505.82 183.91h2.55v3.98h-2.55z" style="fill:#c1c0bf" transform="rotate(-48.97 507.07 185.9)"/><path d="M506.57 185.56h2.55v1.99h-2.55z" style="fill:#c1c0bf" transform="rotate(-48.97 507.83 186.56)"/><path d="M503.81 179.51h.13v10.39h-.13z" style="fill:#c1c0bf" transform="rotate(-48.97 503.85 184.71)"/><path d="M505.41 177.68h.13v10.39h-.13z" style="fill:#c1c0bf" transform="rotate(-48.97 505.44 182.88)"/><path d="m505.87 177.43-.3.35 4.94 4.3.3-.35a2 2 0 0 0-.2-2.85l-1.88-1.65a2 2 0 0 0-2.86.2" style="fill:#c1c0bf"/><path d="M303.83 214.58H426.5v173.33H303.83z" style="opacity:.26;fill:#00609b" transform="matrix(-1 0 0 -1 730.33 602.5)"/><path d="M300 208.33h122.67v173.33H300z" style="fill:#f3f3e9" transform="matrix(-1 0 0 -1 722.67 590)"/><path d="M315.33 225.67h95.33v2.67h-95.33z" style="opacity:.26;fill:#00609b" transform="matrix(-1 0 0 -1 726 454)"/><path d="M315.33 235.67h95.33v2.67h-95.33z" style="opacity:.26;fill:#00609b" transform="matrix(-1 0 0 -1 726 474)"/><path d="M315.33 245.67h95.33v2.67h-95.33z" style="opacity:.26;fill:#00609b" transform="matrix(-1 0 0 -1 726 494)"/><path d="M315.33 255.67h95.33v2.67h-95.33z" style="opacity:.26;fill:#00609b" transform="matrix(-1 0 0 -1 726 514)"/><path d="M315.33 265.67h95.33v2.67h-95.33z" style="opacity:.26;fill:#00609b" transform="matrix(-1 0 0 -1 726 534)"/><path d="M315.33 275.67h95.33v2.67h-95.33z" style="opacity:.26;fill:#00609b" transform="matrix(-1 0 0 -1 726 554)"/><path d="M315.33 285.67h95.33v2.67h-95.33z" style="opacity:.26;fill:#00609b" transform="matrix(-1 0 0 -1 726 574)"/><path d="M315.33 295.67h95.33v2.67h-95.33z" style="opacity:.26;fill:#00609b" transform="matrix(-1 0 0 -1 726 594)"/><path d="M315.33 305.67h95.33v2.67h-95.33z" style="opacity:.26;fill:#00609b" transform="matrix(-1 0 0 -1 726 614)"/><path d="M315.33 315.67h95.33v2.67h-95.33z" style="opacity:.26;fill:#00609b" transform="matrix(-1 0 0 -1 726 634)"/><path d="M315.33 325.67h95.33v2.67h-95.33z" style="opacity:.26;fill:#00609b" transform="matrix(-1 0 0 -1 726 654)"/></g><path d="m35.39 101.1 58.7-14.77a5.5 5.5 0 0 1 6.68 4l6.99 27.74 1.87-.47 3.22 12.81-1.87.47 20.7 82.18a5.5 5.5 0 0 1-4 6.68l-58.7 14.78a5.5 5.5 0 0 1-6.68-4l-15.85-62.96-.8.2-3.7-14.68.8-.2-1.14-4.53-1.07.27-4.97-19.75 1.07-.27-5.24-20.81a5.5 5.5 0 0 1 3.99-6.68" style="opacity:.26;fill:#00609b"/><path d="M41.44 125.89h3.03v20.36h-3.03z" style="fill:#7f8493" transform="rotate(165.87 42.95 136.07)"/><path d="M47.2 150.32h1.93v15.13H47.2z" style="fill:#7f8493" transform="rotate(165.87 48.16 157.89)"/><path d="M111.69 115.47h3.03v13.21h-3.03z" style="fill:#7f8493" transform="rotate(165.87 113.2 122.07)"/><path d="m73.54 231.94 56.44-14.21a6.67 6.67 0 0 0 4.84-8.1L104.48 89.15a6.67 6.67 0 0 0-8.09-4.84L39.95 98.54a6.67 6.67 0 0 0-4.84 8.09L65.44 227.1a6.67 6.67 0 0 0 8.1 4.84" style="fill:#3b323f"/><path d="M55.97 97.78H111v108.96H55.97z" style="fill:#445e79" transform="rotate(-14.13 83.5 152.28)"/><path d="m116.5 170.69 6.97 27.68-53.37 13.44-13.79-54.79c19.74 7.01 39.97 13.31 60.19 13.66" style="fill:#364a62"/><path d="M59.2 94.59h20.09v2.2H59.2z" style="fill:#7f8493" transform="rotate(165.87 69.25 95.69)"/><path d="m95.6 216.73 7.74-1.94a3.44 3.44 0 0 0-1.68-6.67l-7.73 1.94a3.44 3.44 0 1 0 1.68 6.67" style="fill:#7f8493"/><path d="m44.5 106.74 51.77-13.03 26.2 104.06L70.7 210.8zm-1-.6L70.1 211.8l53.37-13.43L96.87 92.7z" style="fill:#445e79"/><path d="M98.67 378.17c4.34 23.63 24.5 43.1 49.32 35.68 1.72-.51 6.96-3.63 13.68-7.82 1.12 5.65 11.19 9.04 15.84 8.05 3.16-.67 5.83-2.7 8.38-4.67l7.7-5.95c1.28-1 2.65-2.11 3.02-3.7.56-2.41-1.41-4.61-3.22-6.31a40 40 0 0 0-4.93-4.16c10.56-6.44 19.3-11.31 20.35-10.14-20.88-23.61-46.53-43.08-72.52-62-3.96-2.87-28.93 21.57-31.96 26.42-6.36 10.2-7.8 22.93-5.66 34.6m67.8 24.87c4.94-3.11 10.36-6.54 15.62-9.82 1.61 1.07 3.27 2.23 3.72 4.07.72 3.01-2.23 5.53-4.83 7.22-2.14 1.4-4.47 2.84-7.02 2.75-1.96-.06-4.94-2.64-7.5-4.22" style="opacity:.26;fill:#00609b"/><circle cx="173.51" cy="341.84" r="48.91" style="fill:#f3f3e9"/><circle cx="173.51" cy="341.84" r="41.38" style="fill:#6b320b"/><circle cx="175.32" cy="341.59" r="40.09" style="fill:#451c00" transform="rotate(-45 175.32 341.59)"/><path d="M140.38 322.02a40 40 0 0 1 2.96-4.6 40.09 40.09 0 0 1 69.75 37.62c-20.66-16.95-46.23-28.27-72.7-33.03" style="fill:#5e2a06"/><circle cx="171.31" cy="313.95" r="1.8" style="fill:#6b320b"/><circle cx="165.34" cy="320.15" r="2.35" style="fill:#6b320b"/><circle cx="172.22" cy="322.1" r="1.02" style="fill:#6b320b"/><circle cx="184.26" cy="320.99" r="5.72" style="fill:#6b320b"/><circle cx="185.08" cy="336.54" r="1.33" style="fill:#6b320b"/><circle cx="174.13" cy="334.26" r="2.51" style="fill:#6b320b"/><circle cx="197.77" cy="331.2" r="4.31" style="fill:#6b320b"/><circle cx="194.07" cy="341.67" r="1.1" style="fill:#6b320b"/><circle cx="194.52" cy="319.11" r="2.12" style="fill:#6b320b"/><circle cx="178.52" cy="308.69" r="2.82" style="fill:#6b320b"/><circle cx="160.56" cy="311.52" r="1.49" style="fill:#6b320b"/><circle cx="206.11" cy="341.34" r="1.72" style="fill:#6b320b"/><circle cx="204.3" cy="356.47" r="3.29" style="fill:#6b320b"/><circle cx="200.71" cy="368.5" r="1.41" style="fill:#6b320b"/><circle cx="192.7" cy="372.86" r=".78" style="fill:#6b320b"/><circle cx="187.99" cy="375.97" r="1.57" style="fill:#6b320b"/><circle cx="189.03" cy="371.35" r="1.18" style="fill:#6b320b"/><circle cx="179.94" cy="377.65" r="2.12" style="fill:#6b320b"/><circle cx="178.52" cy="373.04" r=".7" style="fill:#6b320b"/><circle cx="172.66" cy="378.44" r="1.18" style="fill:#6b320b"/><circle cx="166.33" cy="377.98" r="1.02" style="fill:#6b320b"/><circle cx="149.53" cy="315.86" r="1.72" style="fill:#6b320b"/><circle cx="145.75" cy="320.07" r=".94" style="fill:#6b320b"/><circle cx="142.43" cy="325.13" r="1.33" style="fill:#6b320b"/><circle cx="166.9" cy="307.18" r="1.88" style="fill:#6b320b"/><circle cx="172.28" cy="304.86" r="1.02" style="fill:#6b320b"/><circle cx="185.97" cy="307.55" r="1.49" style="fill:#6b320b"/><circle cx="191.56" cy="310.69" r="2.35" style="fill:#6b320b"/><circle cx="198.92" cy="316.15" r="1.18" style="fill:#6b320b"/><circle cx="205.61" cy="321.6" r="2.43" style="fill:#6b320b"/><circle cx="209.99" cy="327.37" r=".94" style="fill:#6b320b"/><circle cx="210.95" cy="335.85" r="1.96" style="fill:#6b320b"/><circle cx="210.81" cy="346.17" r="1.49" style="fill:#6b320b"/><circle cx="210.45" cy="354.83" r="1.57" style="fill:#6b320b"/><circle cx="205.87" cy="348.42" r=".78" style="fill:#6b320b"/><circle cx="206.07" cy="364.39" r="1.33" style="fill:#6b320b"/><path d="m228 387.26 4.06-5.39a3.83 3.83 0 0 0-.74-5.37l-19.95-15.08-8.7 11.5 19.95 15.09a3.83 3.83 0 0 0 5.37-.75" style="fill:#f3f3e9"/><defs><path id="d" d="M0 0h500v500H0z" transform="matrix(-1 0 0 -1 500 500)"/></defs><clipPath id="e"><use xlink:href="#d" style="overflow:visible"/></clipPath><g style="clip-path:url(#e)"><path d="M386.58 210.1a118 118 0 0 0 64.06-27.5c44.9-38.14 54.32-102.54 24.88-151.43l7.62-7.79 1.01 1.19 18.97-16.11-5.21-6.14-2.6 2.21-8.6-10.11-1.55-1.84-2.02-2.37 2.6-2.2-5.2-6.14-18.98 16.1 1.22 1.44-8.58 5.62c-43.42-40.1-110.9-42.4-157.09-3.18a120 120 0 0 0-7.83 7.31l-.66.65q-1.56 1.64-3.07 3.32l-.92 1.02q-1.39 1.6-2.7 3.22l-1.05 1.27q-.6.78-1.2 1.6c45.14 46.93 86.92 96.83 105.6 159.56 3.13 9.38 2.74 19.65 1.3 30.3m85.36-184.52 7.6-6.45.7.84-7 7.6q-.63-1-1.3-2m-14.7-17.65 8.4-5.16.62.74-7.28 6.19z" style="opacity:.26;fill:#00609b"/><path d="M228.04 150.31c-15.02 12.8-16.12 36.16-2.47 52.2s38.55 21.16 53.57 8.37c15.01-12.8 16.74-42.3 3.08-58.34s-39.17-15.02-54.19-2.23" style="opacity:.19;fill:#f5ffd1"/><path d="M221.45 155.92c-15.01 12.79-16.11 36.16-2.46 52.19 13.66 16.03 38.55 21.17 53.57 8.38 15.01-12.8 16.74-42.31 3.08-58.35s-39.17-15.01-54.19-2.22" style="opacity:.19;fill:#f5ffd1"/><path d="M221.26 137.92c-15.02 12.79-16.12 36.15-2.46 52.19s38.55 21.16 53.56 8.37 16.74-42.3 3.09-58.34c-13.66-16.03-39.17-15.02-54.19-2.22" style="opacity:.19;fill:#f5ffd1"/><path d="M222.1 147.8c-15.01 12.79-16.11 36.15-2.46 52.18 13.66 16.04 38.55 21.17 53.57 8.38 15.01-12.79 16.74-42.3 3.08-58.34s-39.17-15.02-54.19-2.23" style="opacity:.19;fill:#f5ffd1"/><path d="M227.6 150.69c-15.02 12.79-16.12 36.15-2.46 52.19s38.54 21.17 53.56 8.37c15.02-12.79 16.74-42.3 3.08-58.34s-39.17-15.01-54.18-2.22" style="opacity:.19;fill:#f5ffd1"/><path d="M226.4 155.5c-15.02 12.79-16.12 36.15-2.47 52.19s38.55 21.16 53.57 8.37c15.01-12.79 16.74-42.3 3.08-58.34-13.65-16.03-39.17-15.01-54.19-2.22" style="opacity:.19;fill:#f5ffd1"/><path d="M228.04 150.31c-15.02 12.8-16.12 36.16-2.47 52.2s38.55 21.16 53.57 8.37c15.01-12.8 16.74-42.3 3.08-58.34s-39.17-15.02-54.19-2.23" style="opacity:.19;fill:#f5ffd1"/><circle cx="358.31" cy="95.29" r="118.58" style="fill:#c0c3ce"/><circle cx="358.31" cy="95.29" r="116.14" style="fill:#7f8493"/><ellipse cx="415.04" cy="47.59" rx="27.08" ry="30.19" style="fill:#878b96" transform="rotate(-40.34 415.02 47.6)"/><path d="M277.3 8.71c65 43.04 95.93 126.14 101.98 203.27a118.5 118.5 0 0 1-111.35-39.93c-41.15-48.45-36.6-120.39 9.37-163.34" style="fill:#989ba5"/><circle cx="417.84" cy="46.65" r="27.82" style="fill:#dfe2ea"/><path d="m469.21 24.79-38.23 39.03-1.9-2.23 37.02-40.08z" style="fill:#c0c3ce"/><path d="M151.73 151.5c0 63.48 54.95 114.94 122.72 114.94s132.3-50.27 132.3-113.74S338.04 23.4 270.26 23.4 151.73 88.02 151.73 151.5" style="opacity:.19;fill:#f5ffd1"/><path d="m452.07 4.61-45 27.66-1.9-2.23 43.8-28.71z" style="fill:#c0c3ce"/><circle cx="417.84" cy="46.65" r="27.08" style="fill:#c0c3ce"/><circle cx="358.31" cy="95.29" r="118.58" style="fill:#c0c3ce"/><circle cx="358.31" cy="95.29" r="116.14" style="fill:#7f8493"/><ellipse cx="415.04" cy="47.59" rx="27.08" ry="30.19" style="fill:#676c7a" transform="rotate(-40.34 415.02 47.6)"/><path d="M277.3 8.71c65 43.04 95.93 126.14 101.98 203.27a118.5 118.5 0 0 1-111.35-39.93c-41.15-48.45-36.6-120.39 9.37-163.34" style="fill:#989ba5"/><path d="M116.8 162.04c0 73.61 63.7 133.3 142.3 133.3s153.43-58.3 153.43-131.91S332.85 13.47 254.25 13.47 116.79 88.43 116.79 162.04" style="opacity:.19;fill:#f5ffd1"/><circle cx="417.84" cy="46.65" r="27.82" style="fill:#dfe2ea"/><path d="m469.21 24.79-38.23 39.03-1.9-2.23 37.02-40.08zM452.07 4.61l-45 27.66-1.9-2.23 43.8-28.71z" style="fill:#c0c3ce"/><circle cx="417.84" cy="46.65" r="27.08" style="fill:#c0c3ce"/><path d="M419.21 19.63c9.52 12.25 16.7 26.39 21.85 40.92a27 27 0 0 1-5.69 6.75q-1.39 1.16-2.9 2.1c-4.62-17.18-10.22-34.95-20.61-49.14a27 27 0 0 1 7.35-.63m-16.99 4.92q1.69-1.2 3.5-2.11c9.1 15.4 13.48 33.45 13.66 51.21-3.84.22-7.7-.38-11.31-1.76 1.4-16.2-.3-32.23-5.86-47.34" style="fill:#dfe2ea"/><path d="M223.58 79.12c-30.2 25.65-25.4 80.9 10.71 123.43s89.87 56.2 120.07 30.55 47.7-99.86 11.6-142.38-112.19-37.24-142.38-11.6" style="fill:#3f414c"/><path d="M258.04 76.74a228 228 0 0 0-11.37-10.4c36.1-13.05 90.43-9.59 119.28 24.38 36.12 42.52 18.6 116.73-11.6 142.38a52 52 0 0 1-10.6 6.94c-9.57-61.12-46.1-120.08-85.7-163.3" style="fill:#32343d"/><path d="M406.55-25.84h20.5v149.32h-20.5z" style="fill:#989ba5" transform="rotate(229.66 416.8 48.82)"/><path d="M411.01-27.05h9.52v149.32h-9.52z" style="fill:#c0c3ce" transform="rotate(229.66 415.77 47.61)"/><path d="M471.44 4.07h8.05v24.89h-8.05z" style="fill:#c0c3ce" transform="rotate(229.66 475.46 16.52)"/><path d="M471.99 2.88h4.94v24.89h-4.94z" style="fill:#989ba5" transform="rotate(229.66 474.46 15.33)"/><path d="M454.07-16.39h8.05V8.5h-8.05z" style="fill:#c0c3ce" transform="rotate(49.66 458.1 -3.94)"/><path d="M456.63-15.2h4.94V9.69h-4.94z" style="fill:#989ba5" transform="rotate(49.66 459.11 -2.75)"/><path d="M427.7 176.54c-3.86 3.47-12.94 6.04-12.12-2.52.58-6.17 7.88-12.91 11.1-18a149 149 0 0 0 11.1-21.3c6.1-14.45 9.9-29.88 11.12-45.53.17-2.2.35-4.58 1.73-6.31 6.17-7.73 11.22 2.67 12.73 8.24 2.78 10.31-.66 22.28-3.35 32.28-5.45 20.28-16.69 39.06-32.32 53.14" style="fill:#c0c3ce"/><ellipse cx="314.8" cy="7.87" rx="14.7" ry="11.48" style="fill:#878b96" transform="rotate(-33.08 314.83 7.86)"/><ellipse cx="316.28" cy="7.4" rx="15.1" ry="10.58" style="fill:#dfe2ea" transform="rotate(-33.08 316.3 7.4)"/><ellipse cx="316.28" cy="7.4" rx="14.7" ry="10.3" style="fill:#c0c3ce" transform="rotate(-33.08 316.3 7.4)"/><path d="M322.35 5.47c-2.1 1.46-16.1 11.33-12.16 2 1-2.37 3.62-3.91 5.83-4.94 9.17-4.28 10.56 0 6.33 2.94" style="fill:#3f414c"/><path d="M319.02 6.06s6.02-14.4 4.28-16.44-15.23-4.36-8.2 15.6c0 0 2.13 3.64 3.92.84" style="fill:#3f414c"/><path d="M316.18-9.72a6 6 0 0 0-1.91 4.3 16 16 0 0 0 .7 4.78c.33 1.22.69 2.52.35 3.74-.6 2.17-3.1 3.24-4.22 5.2-.12.2-.22.43-.17.66.1.42.68.56 1.07.37s.63-.58.87-.94a12 12 0 0 1 5.34-4.45c.38-.15.84-.48.67-.85-.13-.29-.54-.28-.86-.32-.68-.09-1.25-.61-1.55-1.23s-.4-1.32-.44-2.01q-.18-2.8.38-5.55c.15-.75.35-1.5.78-2.13s1.14-1.11 1.9-1.1c.58.02 1.1.36 1.7.29.91-.12 1.16-1.27.1-1.41-1.56-.2-3.4-.45-4.7.65" style="fill:#32343d"/><path d="M366.47 39.78c13.13-6.1 28.72-3.94 41.18 10.72 12.45 14.67 12.07 30.4 3.92 42.38L368.5 157.7c-16.65 14.14-46.48 6.37-66.63-17.35s-23-54.42-6.34-68.56z" style="fill:#3f414c"/><path d="M373.34 44.08c11.13-5.18 24.34-3.34 34.89 9.08 10.54 12.42 10.22 25.75 3.31 35.9l-36.48 54.9c-14.1 11.98-39.37 5.4-56.44-14.7-17.07-20.09-19.47-46.1-5.37-58.07z" style="fill:#32343d"/><path d="M376.45 51.07c-6.77 5.76-5.34 18.58 3.2 28.65 8.56 10.07 20.98 13.56 27.76 7.8s-9.9-5.63-18.45-15.7-5.73-26.5-12.5-20.75" style="fill:#3f414c"/><path d="M414.35 69.2c.75 2.66 1.1 5.88-.8 7.9a6 6 0 0 1-4.87 1.59c-1.75-.17-3.4-.91-4.95-1.75a37.4 37.4 0 0 1-16.8-18.96c-.9-2.3-1.56-4.95-.49-7.17 1.23-2.57 4.46-3.66 7.29-3.29 10.74 1.43 17.88 12.01 20.62 21.67" style="fill:#3f414c"/><path d="M295.55 152.41c-12.34-22.85-31.84-42.64-56.36-51.2-4-1.39-8.62-2.42-12.3-.32-3.31 1.91-4.85 5.83-5.83 9.53-6.75 25.32 1.6 53.1 17.82 73.67s39.5 34.6 63.91 44.12c20.74 8.1 12.08-17.5 9.65-28.44-3.63-16.4-8.9-32.54-16.9-47.36" style="fill:#585b66"/><path d="M299.83 74.27c-2.47 4.75-3.45 10.15-3.65 15.5-.73 19.9 9.79 39.82 26.62 50.45-9.96-2.77-18.32-10.06-23.6-18.94s-7.67-19.27-8.19-29.59c-.33-6.6.15-13.5 3.38-19.28 1.43-2.55 12.63-13.54 15.12-7.97-4.1 2.5-7.43 5.51-9.68 9.83" style="fill:#32343d"/><path d="M223.58 79.12c-30.2 25.65-25.4 80.9 10.71 123.43s89.87 56.2 120.07 30.55 47.7-99.86 11.6-142.38-112.19-37.24-142.38-11.6" style="fill:#3f414c"/><path d="M258.04 76.74a228 228 0 0 0-11.37-10.4c36.1-13.05 90.43-9.59 119.28 24.38 36.12 42.52 18.6 116.73-11.6 142.38a52 52 0 0 1-10.6 6.94c-9.57-61.12-46.1-120.08-85.7-163.3" style="fill:#32343d"/><path d="M406.55-25.84h20.5v149.32h-20.5z" style="fill:#989ba5" transform="rotate(229.66 416.8 48.82)"/><path d="M411.01-27.05h9.52v149.32h-9.52z" style="fill:#c0c3ce" transform="rotate(229.66 415.77 47.61)"/><path d="M471.44 4.07h8.05v24.89h-8.05z" style="fill:#c0c3ce" transform="rotate(229.66 475.46 16.52)"/><path d="M471.99 2.88h4.94v24.89h-4.94z" style="fill:#989ba5" transform="rotate(229.66 474.46 15.33)"/><path d="M454.07-16.39h8.05V8.5h-8.05z" style="fill:#c0c3ce" transform="rotate(49.66 458.1 -3.94)"/><path d="M456.63-15.2h4.94V9.69h-4.94z" style="fill:#989ba5" transform="rotate(49.66 459.11 -2.75)"/><path d="M427.7 176.54c-3.86 3.47-12.94 6.04-12.12-2.52.58-6.17 7.88-12.91 11.1-18a149 149 0 0 0 11.1-21.3c6.1-14.45 9.9-29.88 11.12-45.53.17-2.2.35-4.58 1.73-6.31 6.17-7.73 11.22 2.67 12.73 8.24 2.78 10.31-.66 22.28-3.35 32.28-5.45 20.28-16.69 39.06-32.32 53.14" style="fill:#c0c3ce"/><ellipse cx="314.54" cy="8.65" rx="14.7" ry="11.48" style="fill:#676c7a" transform="rotate(-33.08 314.57 8.64)"/><ellipse cx="316.28" cy="7.4" rx="15.1" ry="10.58" style="fill:#dfe2ea" transform="rotate(-33.08 316.3 7.4)"/><ellipse cx="316.28" cy="7.4" rx="14.7" ry="10.3" style="fill:#c0c3ce" transform="rotate(-33.08 316.3 7.4)"/><path d="m310.64-1.21.02-.01c6.8-4.44 14.83-4.17 17.94.6 2.43 3.73 1.1 9.11-2.85 13.4-5.77-3.9-11.21-8.37-15.11-13.99" style="fill:#c0c3ce"/><path d="M310.64-1.21c3.9 5.62 9.34 10.08 15.1 13.99a20 20 0 0 1-3.84 3.25c-6.8 4.43-14.84 4.16-17.94-.6s-.11-12.2 6.68-16.64" style="fill:#dfe2ea"/><path d="M322.35 5.47c-2.1 1.46-16.1 11.33-12.16 2 1-2.37 3.62-3.91 5.83-4.94 9.17-4.28 10.56 0 6.33 2.94" style="fill:#3f414c"/><path d="M319.02 6.06s6.02-14.4 4.28-16.44-15.23-4.36-8.2 15.6c0 0 2.13 3.64 3.92.84" style="fill:#3f414c"/><path d="M316.18-9.72a6 6 0 0 0-1.91 4.3 16 16 0 0 0 .7 4.78c.33 1.22.69 2.52.35 3.74-.6 2.17-3.1 3.24-4.22 5.2-.12.2-.22.43-.17.66.1.42.68.56 1.07.37s.63-.58.87-.94a12 12 0 0 1 5.34-4.45c.38-.15.84-.48.67-.85-.13-.29-.54-.28-.86-.32-.68-.09-1.25-.61-1.55-1.23s-.4-1.32-.44-2.01q-.18-2.8.38-5.55c.15-.75.35-1.5.78-2.13s1.14-1.11 1.9-1.1c.58.02 1.1.36 1.7.29.91-.12 1.16-1.27.1-1.41-1.56-.2-3.4-.45-4.7.65" style="fill:#32343d"/><path d="M366.47 39.78c13.13-6.1 28.72-3.94 41.18 10.72 12.45 14.67 12.07 30.4 3.92 42.38L368.5 157.7c-16.65 14.14-46.48 6.37-66.63-17.35s-23-54.42-6.34-68.56z" style="fill:#3f414c"/><path d="M373.34 44.08c11.13-5.18 24.34-3.34 34.89 9.08 10.54 12.42 10.22 25.75 3.31 35.9l-36.48 54.9c-14.1 11.98-39.37 5.4-56.44-14.7-17.07-20.09-19.47-46.1-5.37-58.07z" style="fill:#32343d"/><path d="M376.45 51.07c-6.77 5.76-5.34 18.58 3.2 28.65 8.56 10.07 20.98 13.56 27.76 7.8s-9.9-5.63-18.45-15.7-5.73-26.5-12.5-20.75" style="fill:#3f414c"/><path d="M414.35 69.2c.75 2.66 1.1 5.88-.8 7.9a6 6 0 0 1-4.87 1.59c-1.75-.17-3.4-.91-4.95-1.75a37.4 37.4 0 0 1-16.8-18.96c-.9-2.3-1.56-4.95-.49-7.17 1.23-2.57 4.46-3.66 7.29-3.29 10.74 1.43 17.88 12.01 20.62 21.67" style="fill:#3f414c"/><path d="M295.55 152.41c-12.34-22.85-31.84-42.64-56.36-51.2-4-1.39-8.62-2.42-12.3-.32-3.31 1.91-4.85 5.83-5.83 9.53-6.75 25.32 1.6 53.1 17.82 73.67s39.5 34.6 63.91 44.12c20.74 8.1 12.08-17.5 9.65-28.44-3.63-16.4-8.9-32.54-16.9-47.36" style="fill:#585b66"/><path d="M299.83 74.27c-2.47 4.75-3.45 10.15-3.65 15.5-.73 19.9 9.79 39.82 26.62 50.45-9.96-2.77-18.32-10.06-23.6-18.94s-7.67-19.27-8.19-29.59c-.33-6.6.15-13.5 3.38-19.28 1.43-2.55 12.63-13.54 15.12-7.97-4.1 2.5-7.43 5.51-9.68 9.83" style="fill:#32343d"/></g><path d="M260.1 465.47q-.65.67-1.1 1.45l-.47-.24a.6.6 0 0 0-1.19.2.6.6 0 0 0 .86.48l.45.23a7 7 0 0 0-.54 1.75l.75.13a6.6 6.6 0 0 1 1.79-3.48zm5.5-2.31q-.27 0-.52.02l-.07-.63a.71.71 0 0 0-.53-1.27.72.72 0 0 0-.22 1.36l.07.62q-1.07.18-2.06.65l.33.68a7 7 0 0 1 4.47-.51l.16-.74a8 8 0 0 0-1.64-.18m6.61 2.55a.6.6 0 1 0-.68-.59l-.42.36a8 8 0 0 0-1.4-1.13l-.41.64a6.7 6.7 0 0 1 2.56 2.92l.7-.31a7 7 0 0 0-.95-1.55l.4-.35q.1.03.2.01m-7.16 7.66a20 20 0 0 1-3.63-.14 9 9 0 0 1-1.27-.3 6.2 6.2 0 0 0 5.39 3.13 6.14 6.14 0 0 0 5.95-4.5q-1.03.67-2.46 1.12c-1.18.37-2.56.6-3.98.7" style="fill:#f7fafb"/><path d="M265.6 464.68a6.02 6.02 0 0 0-5.95 7.2c.67.49 2.7.9 5.35.74 2.88-.18 5.3-.96 6.67-2.16q0-.3-.05-.59a6.04 6.04 0 0 0-6.03-5.19m-2.17 6.51a1.85 1.85 0 1 1 0-3.7 1.85 1.85 0 0 1 0 3.7m4.74-.9a1.36 1.36 0 1 1 0-2.73 1.36 1.36 0 0 1 0 2.73m13.44-3.74c-.3-.12-.81-.31-1.39-.24-.55.07-.84.34-.84 1v.87h2.23v1.72h-2.23v5.46h-1.93v-5.46h-1.34v-1.72h1.34v-.89c0-1.68.9-2.78 2.57-2.78q.94.01 1.59.31zm4.7 3.33a3 3 0 0 0-.53-.05c-.9 0-1.5.55-1.5 1.62v3.9h-1.94v-7.17h1.87v.79q.69-1 2.02-.98c.42 0 .85.13 1.1.34zm7.66 1.88c0 .22-.01.49-.03.65h-5.09c.21 1.03.94 1.49 1.85 1.49.62 0 1.3-.26 1.8-.7l1.14 1.25a4.4 4.4 0 0 1-3.06 1.09c-2.2 0-3.72-1.5-3.72-3.75s1.48-3.8 3.63-3.8c2.06 0 3.48 1.53 3.48 3.77m-5.1-.67h3.17c-.18-.92-.74-1.43-1.57-1.43-.9 0-1.44.54-1.6 1.43m12.76.67c0 .22-.02.49-.04.65h-5.08c.2 1.03.93 1.49 1.84 1.49.62 0 1.3-.26 1.81-.7l1.13 1.25a4.4 4.4 0 0 1-3.05 1.09c-2.2 0-3.73-1.5-3.73-3.75s1.48-3.8 3.63-3.8c2.07 0 3.48 1.53 3.49 3.77m-5.12-.67h3.18c-.18-.92-.73-1.43-1.56-1.43-.91 0-1.45.54-1.62 1.43m13.46.67c0 2.16-1.5 3.78-3.47 3.78-.96 0-1.64-.38-2.1-.93v3.7h-1.93v-10.13h1.89v.8a2.6 2.6 0 0 1 2.14-1c1.98.01 3.47 1.63 3.47 3.78m-5.67 0c0 1.14.74 1.98 1.84 1.98 1.14 0 1.85-.88 1.85-1.98s-.71-1.97-1.85-1.97c-1.1 0-1.84.84-1.84 1.97m8.78-5.92c0 .7-.54 1.23-1.24 1.23a1.2 1.2 0 0 1-1.23-1.23c0-.7.54-1.25 1.23-1.25.7 0 1.24.55 1.24 1.25m-.26 9.51h-1.93v-7.17h1.93zm3.22-4.61 2.7-2.56h2.37l-3.48 3.38 3.5 3.8h-2.37l-2.72-2.9v2.9h-1.93V464.7h1.93zm-131.62 4.55v-1.06a3 3 0 0 1-2.39 1.23c-1.84 0-3.15-1.4-3.15-3.7 0-2.26 1.3-3.72 3.15-3.72a3 3 0 0 1 2.4 1.24v-3.76h1.1v9.77zm0-1.92v-3.2a2.7 2.7 0 0 0-2.12-1.15c-1.42 0-2.27 1.17-2.27 2.74 0 1.56.85 2.72 2.27 2.72.88 0 1.73-.5 2.12-1.11m2.52-1.63c0-2.05 1.47-3.7 3.49-3.7 2.14 0 3.4 1.67 3.4 3.8v.27h-5.73c.09 1.33 1.02 2.45 2.55 2.45.8 0 1.62-.32 2.18-.9l.53.72q-1.06 1.07-2.82 1.09c-2.09 0-3.6-1.51-3.6-3.73m3.47-2.8c-1.5 0-2.25 1.28-2.31 2.37h4.64c-.01-1.06-.72-2.36-2.33-2.36m4.2 5.4.58-.79a3.2 3.2 0 0 0 2.33 1.01c1.08 0 1.67-.51 1.67-1.21 0-1.72-4.38-.66-4.38-3.29 0-1.1.95-2.03 2.63-2.03 1.2 0 2.05.45 2.62 1.02l-.5.77c-.43-.52-1.2-.9-2.12-.9-.96 0-1.56.49-1.56 1.12 0 1.55 4.38.52 4.38 3.28 0 1.18-.96 2.13-2.79 2.13a3.8 3.8 0 0 1-2.85-1.1m6.87-7.89c0-.4.33-.75.73-.75s.75.34.75.75-.34.73-.75.73a.73.73 0 0 1-.73-.73m.19 8.82v-7.08h1.1v7.08zm2.91 1.81.56-.82c.58.7 1.29.97 2.3.97 1.17 0 2.27-.57 2.27-2.12v-1.01a3 3 0 0 1-2.37 1.26c-1.85 0-3.15-1.38-3.15-3.67 0-2.27 1.29-3.67 3.15-3.67.95 0 1.8.47 2.37 1.24v-1.07h1.1v6.87c0 2.35-1.64 3.08-3.37 3.08-1.2 0-2.02-.23-2.86-1.06m5.13-3.85v-3.09a2.6 2.6 0 0 0-2.11-1.14c-1.42 0-2.27 1.13-2.27 2.7 0 1.55.85 2.69 2.27 2.69.88 0 1.73-.54 2.1-1.16m7.71 2.04v-4.63c0-1.25-.63-1.64-1.58-1.64-.86 0-1.68.53-2.1 1.1v5.17h-1.1v-7.08h1.1v1.03a3.5 3.5 0 0 1 2.53-1.2q2.24-.01 2.25 2.28v4.97zm2.52-3.55c0-2.05 1.47-3.7 3.49-3.7 2.14 0 3.4 1.67 3.4 3.8v.27h-5.73c.09 1.33 1.02 2.45 2.55 2.45.8 0 1.62-.32 2.18-.9l.53.72q-1.07 1.07-2.81 1.09c-2.1 0-3.6-1.51-3.6-3.73m3.47-2.8c-1.5 0-2.25 1.28-2.31 2.37h4.64c-.01-1.06-.72-2.36-2.33-2.36m9.94 6.34v-1.06a3 3 0 0 1-2.39 1.23c-1.84 0-3.15-1.4-3.15-3.7 0-2.26 1.3-3.72 3.15-3.72.95 0 1.82.47 2.39 1.24v-3.76h1.1v9.77zm0-1.92v-3.2a2.7 2.7 0 0 0-2.12-1.15c-1.42 0-2.27 1.17-2.27 2.74 0 1.56.84 2.72 2.27 2.72.88 0 1.72-.5 2.12-1.11m6.35 1.92v-9.77h1.09v3.76a3 3 0 0 1 2.39-1.24c1.84 0 3.15 1.46 3.15 3.72 0 2.3-1.3 3.7-3.15 3.7-1 0-1.86-.5-2.39-1.22v1.05zm3.2-.8c1.44 0 2.29-1.16 2.29-2.73s-.85-2.74-2.29-2.74c-.86 0-1.73.53-2.1 1.14v3.21a2.6 2.6 0 0 0 2.1 1.11m4.63 2.58c.16.07.42.12.6.12.48 0 .8-.16 1.05-.75l.47-1.07-2.96-7.15h1.2l2.35 5.8 2.34-5.8h1.2l-3.54 8.51c-.43 1.03-1.14 1.42-2.08 1.44-.24 0-.6-.05-.8-.1z" style="fill:#f7fafb"/></svg>